M48
INCH,TZ
T1C0.0197
T2C0.0390
T3C0.1260
%
G90
G05
T1
X43965Y-17874
X43965Y-18207
X43965Y-18541
X43965Y-18874
X43965Y-33874
X43965Y-34207
X43965Y-34541
X43965Y-34874
X43965Y-49874
X43965Y-50207
X43965Y-50541
X43965Y-50874
X43965Y-65874
X43965Y-66207
X43965Y-66541
X43965Y-66874
X43965Y-81874
X43965Y-82207
X43965Y-82541
X43965Y-82874
X57965Y-10874
X57965Y-25874
X57965Y-26874
X57965Y-41874
X57965Y-42874
X57965Y-57874
X57965Y-58874
X57965Y-73874
X57965Y-74874
X57965Y-89874
X58298Y-10874
X58298Y-25874
X58298Y-26874
X58298Y-41874
X58298Y-42874
X58298Y-57874
X58298Y-58874
X58298Y-73874
X58298Y-74874
X58298Y-89874
X58631Y-10874
X58631Y-25874
X58631Y-26874
X58631Y-41874
X58631Y-42874
X58631Y-57874
X58631Y-58874
X58631Y-73874
X58631Y-74874
X58631Y-89874
X58965Y-10874
X58965Y-25874
X58965Y-26874
X58965Y-41874
X58965Y-42874
X58965Y-57874
X58965Y-58874
X58965Y-73874
X58965Y-74874
X58965Y-89874
X72965Y-17874
X72965Y-18207
X72965Y-18541
X72965Y-18874
X72965Y-33874
X72965Y-34207
X72965Y-34541
X72965Y-34874
X72965Y-49874
X72965Y-50207
X72965Y-50541
X72965Y-50874
X72965Y-65874
X72965Y-66207
X72965Y-66541
X72965Y-66874
X72965Y-81874
X72965Y-82207
X72965Y-82541
X72965Y-82874
T2
X52615Y-18374
X52615Y-34374
X52615Y-50374
X52615Y-66374
X52615Y-82374
X53015Y-20374
X53015Y-36374
X53015Y-52374
X53015Y-68374
X53015Y-84374
X53415Y-18374
X53415Y-34374
X53415Y-50374
X53415Y-66374
X53415Y-82374
T3
X64079Y-22816
X64079Y-38816
X64079Y-54816
X64079Y-70816
X64079Y-86816
X64101Y-13932
X64101Y-29932
X64101Y-45932
X64101Y-61932
X64101Y-77932
X68579Y-22816
X68579Y-38816
X68579Y-54816
X68579Y-70816
X68579Y-86816
X68601Y-13932
X68601Y-29932
X68601Y-45932
X68601Y-61932
X68601Y-77932
T0
M30
