G04 #@! TF.GenerationSoftware,KiCad,Pcbnew,6.0.2+dfsg-1*
G04 #@! TF.CreationDate,2024-05-29T15:43:08-06:00*
G04 #@! TF.ProjectId,mss-crossover-array,6d73732d-6372-46f7-9373-6f7665722d61,rev?*
G04 #@! TF.SameCoordinates,Original*
G04 #@! TF.FileFunction,Paste,Top*
G04 #@! TF.FilePolarity,Positive*
%FSLAX46Y46*%
G04 Gerber Fmt 4.6, Leading zero omitted, Abs format (unit mm)*
G04 Created by KiCad (PCBNEW 6.0.2+dfsg-1) date 2024-05-29 15:43:08*
%MOMM*%
%LPD*%
G01*
G04 APERTURE LIST*
%ADD10R,1.900000X1.400000*%
%ADD11R,2.800000X0.650000*%
%ADD12R,1.397000X1.701800*%
%ADD13R,1.800000X2.500000*%
%ADD14R,0.550000X1.300000*%
G04 APERTURE END LIST*
D10*
X116877000Y-81850000D03*
X116877000Y-85150000D03*
G36*
G01*
X146726500Y-86307250D02*
X146726500Y-87207250D01*
G75*
G02*
X146476500Y-87457250I-250000J0D01*
G01*
X145951500Y-87457250D01*
G75*
G02*
X145701500Y-87207250I0J250000D01*
G01*
X145701500Y-86307250D01*
G75*
G02*
X145951500Y-86057250I250000J0D01*
G01*
X146476500Y-86057250D01*
G75*
G02*
X146726500Y-86307250I0J-250000D01*
G01*
G37*
G36*
G01*
X144901500Y-86307250D02*
X144901500Y-87207250D01*
G75*
G02*
X144651500Y-87457250I-250000J0D01*
G01*
X144126500Y-87457250D01*
G75*
G02*
X143876500Y-87207250I0J250000D01*
G01*
X143876500Y-86307250D01*
G75*
G02*
X144126500Y-86057250I250000J0D01*
G01*
X144651500Y-86057250D01*
G75*
G02*
X144901500Y-86307250I0J-250000D01*
G01*
G37*
G36*
G01*
X131483250Y-80047000D02*
X131783250Y-80047000D01*
G75*
G02*
X131933250Y-80197000I0J-150000D01*
G01*
X131933250Y-81372000D01*
G75*
G02*
X131783250Y-81522000I-150000J0D01*
G01*
X131483250Y-81522000D01*
G75*
G02*
X131333250Y-81372000I0J150000D01*
G01*
X131333250Y-80197000D01*
G75*
G02*
X131483250Y-80047000I150000J0D01*
G01*
G37*
G36*
G01*
X129583250Y-80047000D02*
X129883250Y-80047000D01*
G75*
G02*
X130033250Y-80197000I0J-150000D01*
G01*
X130033250Y-81372000D01*
G75*
G02*
X129883250Y-81522000I-150000J0D01*
G01*
X129583250Y-81522000D01*
G75*
G02*
X129433250Y-81372000I0J150000D01*
G01*
X129433250Y-80197000D01*
G75*
G02*
X129583250Y-80047000I150000J0D01*
G01*
G37*
G36*
G01*
X130533250Y-81922000D02*
X130833250Y-81922000D01*
G75*
G02*
X130983250Y-82072000I0J-150000D01*
G01*
X130983250Y-83247000D01*
G75*
G02*
X130833250Y-83397000I-150000J0D01*
G01*
X130533250Y-83397000D01*
G75*
G02*
X130383250Y-83247000I0J150000D01*
G01*
X130383250Y-82072000D01*
G75*
G02*
X130533250Y-81922000I150000J0D01*
G01*
G37*
G36*
G01*
X146212000Y-71237000D02*
X145108000Y-71237000D01*
G75*
G02*
X144970000Y-71099000I0J138000D01*
G01*
X144970000Y-69275000D01*
G75*
G02*
X145108000Y-69137000I138000J0D01*
G01*
X146212000Y-69137000D01*
G75*
G02*
X146350000Y-69275000I0J-138000D01*
G01*
X146350000Y-71099000D01*
G75*
G02*
X146212000Y-71237000I-138000J0D01*
G01*
G37*
G36*
G01*
X146212000Y-80337000D02*
X145108000Y-80337000D01*
G75*
G02*
X144970000Y-80199000I0J138000D01*
G01*
X144970000Y-78375000D01*
G75*
G02*
X145108000Y-78237000I138000J0D01*
G01*
X146212000Y-78237000D01*
G75*
G02*
X146350000Y-78375000I0J-138000D01*
G01*
X146350000Y-80199000D01*
G75*
G02*
X146212000Y-80337000I-138000J0D01*
G01*
G37*
G36*
G01*
X141732000Y-71237000D02*
X140628000Y-71237000D01*
G75*
G02*
X140490000Y-71099000I0J138000D01*
G01*
X140490000Y-69275000D01*
G75*
G02*
X140628000Y-69137000I138000J0D01*
G01*
X141732000Y-69137000D01*
G75*
G02*
X141870000Y-69275000I0J-138000D01*
G01*
X141870000Y-71099000D01*
G75*
G02*
X141732000Y-71237000I-138000J0D01*
G01*
G37*
G36*
G01*
X141732000Y-80337000D02*
X140628000Y-80337000D01*
G75*
G02*
X140490000Y-80199000I0J138000D01*
G01*
X140490000Y-78375000D01*
G75*
G02*
X140628000Y-78237000I138000J0D01*
G01*
X141732000Y-78237000D01*
G75*
G02*
X141870000Y-78375000I0J-138000D01*
G01*
X141870000Y-80199000D01*
G75*
G02*
X141732000Y-80337000I-138000J0D01*
G01*
G37*
G36*
G01*
X146726500Y-167587250D02*
X146726500Y-168487250D01*
G75*
G02*
X146476500Y-168737250I-250000J0D01*
G01*
X145951500Y-168737250D01*
G75*
G02*
X145701500Y-168487250I0J250000D01*
G01*
X145701500Y-167587250D01*
G75*
G02*
X145951500Y-167337250I250000J0D01*
G01*
X146476500Y-167337250D01*
G75*
G02*
X146726500Y-167587250I0J-250000D01*
G01*
G37*
G36*
G01*
X144901500Y-167587250D02*
X144901500Y-168487250D01*
G75*
G02*
X144651500Y-168737250I-250000J0D01*
G01*
X144126500Y-168737250D01*
G75*
G02*
X143876500Y-168487250I0J250000D01*
G01*
X143876500Y-167587250D01*
G75*
G02*
X144126500Y-167337250I250000J0D01*
G01*
X144651500Y-167337250D01*
G75*
G02*
X144901500Y-167587250I0J-250000D01*
G01*
G37*
G36*
G01*
X146212000Y-30597000D02*
X145108000Y-30597000D01*
G75*
G02*
X144970000Y-30459000I0J138000D01*
G01*
X144970000Y-28635000D01*
G75*
G02*
X145108000Y-28497000I138000J0D01*
G01*
X146212000Y-28497000D01*
G75*
G02*
X146350000Y-28635000I0J-138000D01*
G01*
X146350000Y-30459000D01*
G75*
G02*
X146212000Y-30597000I-138000J0D01*
G01*
G37*
G36*
G01*
X146212000Y-39697000D02*
X145108000Y-39697000D01*
G75*
G02*
X144970000Y-39559000I0J138000D01*
G01*
X144970000Y-37735000D01*
G75*
G02*
X145108000Y-37597000I138000J0D01*
G01*
X146212000Y-37597000D01*
G75*
G02*
X146350000Y-37735000I0J-138000D01*
G01*
X146350000Y-39559000D01*
G75*
G02*
X146212000Y-39697000I-138000J0D01*
G01*
G37*
G36*
G01*
X141732000Y-30597000D02*
X140628000Y-30597000D01*
G75*
G02*
X140490000Y-30459000I0J138000D01*
G01*
X140490000Y-28635000D01*
G75*
G02*
X140628000Y-28497000I138000J0D01*
G01*
X141732000Y-28497000D01*
G75*
G02*
X141870000Y-28635000I0J-138000D01*
G01*
X141870000Y-30459000D01*
G75*
G02*
X141732000Y-30597000I-138000J0D01*
G01*
G37*
G36*
G01*
X141732000Y-39697000D02*
X140628000Y-39697000D01*
G75*
G02*
X140490000Y-39559000I0J138000D01*
G01*
X140490000Y-37735000D01*
G75*
G02*
X140628000Y-37597000I138000J0D01*
G01*
X141732000Y-37597000D01*
G75*
G02*
X141870000Y-37735000I0J-138000D01*
G01*
X141870000Y-39559000D01*
G75*
G02*
X141732000Y-39697000I-138000J0D01*
G01*
G37*
G36*
G01*
X134726000Y-164427000D02*
X133826000Y-164427000D01*
G75*
G02*
X133576000Y-164177000I0J250000D01*
G01*
X133576000Y-163652000D01*
G75*
G02*
X133826000Y-163402000I250000J0D01*
G01*
X134726000Y-163402000D01*
G75*
G02*
X134976000Y-163652000I0J-250000D01*
G01*
X134976000Y-164177000D01*
G75*
G02*
X134726000Y-164427000I-250000J0D01*
G01*
G37*
G36*
G01*
X134726000Y-162602000D02*
X133826000Y-162602000D01*
G75*
G02*
X133576000Y-162352000I0J250000D01*
G01*
X133576000Y-161827000D01*
G75*
G02*
X133826000Y-161577000I250000J0D01*
G01*
X134726000Y-161577000D01*
G75*
G02*
X134976000Y-161827000I0J-250000D01*
G01*
X134976000Y-162352000D01*
G75*
G02*
X134726000Y-162602000I-250000J0D01*
G01*
G37*
D11*
X144869000Y-177861000D03*
X144869000Y-176591000D03*
X144869000Y-175321000D03*
X144869000Y-174051000D03*
X138669000Y-174051000D03*
X138669000Y-175321000D03*
X138669000Y-176591000D03*
X138669000Y-177861000D03*
X144869000Y-55941000D03*
X144869000Y-54671000D03*
X144869000Y-53401000D03*
X144869000Y-52131000D03*
X138669000Y-52131000D03*
X138669000Y-53401000D03*
X138669000Y-54671000D03*
X138669000Y-55941000D03*
D10*
X126376600Y-203770000D03*
X126376600Y-207070000D03*
G36*
G01*
X139511000Y-221099000D02*
X139511000Y-221999000D01*
G75*
G02*
X139261000Y-222249000I-250000J0D01*
G01*
X138736000Y-222249000D01*
G75*
G02*
X138486000Y-221999000I0J250000D01*
G01*
X138486000Y-221099000D01*
G75*
G02*
X138736000Y-220849000I250000J0D01*
G01*
X139261000Y-220849000D01*
G75*
G02*
X139511000Y-221099000I0J-250000D01*
G01*
G37*
G36*
G01*
X137686000Y-221099000D02*
X137686000Y-221999000D01*
G75*
G02*
X137436000Y-222249000I-250000J0D01*
G01*
X136911000Y-222249000D01*
G75*
G02*
X136661000Y-221999000I0J250000D01*
G01*
X136661000Y-221099000D01*
G75*
G02*
X136911000Y-220849000I250000J0D01*
G01*
X137436000Y-220849000D01*
G75*
G02*
X137686000Y-221099000I0J-250000D01*
G01*
G37*
X126376600Y-81850000D03*
X126376600Y-85150000D03*
X126376600Y-41210000D03*
X126376600Y-44510000D03*
D12*
X151040000Y-216151500D03*
X153580000Y-216151500D03*
X153580000Y-207134500D03*
X151040000Y-207134500D03*
D13*
X157644000Y-209643000D03*
X157644000Y-213643000D03*
G36*
G01*
X146726500Y-45667250D02*
X146726500Y-46567250D01*
G75*
G02*
X146476500Y-46817250I-250000J0D01*
G01*
X145951500Y-46817250D01*
G75*
G02*
X145701500Y-46567250I0J250000D01*
G01*
X145701500Y-45667250D01*
G75*
G02*
X145951500Y-45417250I250000J0D01*
G01*
X146476500Y-45417250D01*
G75*
G02*
X146726500Y-45667250I0J-250000D01*
G01*
G37*
G36*
G01*
X144901500Y-45667250D02*
X144901500Y-46567250D01*
G75*
G02*
X144651500Y-46817250I-250000J0D01*
G01*
X144126500Y-46817250D01*
G75*
G02*
X143876500Y-46567250I0J250000D01*
G01*
X143876500Y-45667250D01*
G75*
G02*
X144126500Y-45417250I250000J0D01*
G01*
X144651500Y-45417250D01*
G75*
G02*
X144901500Y-45667250I0J-250000D01*
G01*
G37*
G36*
G01*
X151393000Y-140719000D02*
X151393000Y-139819000D01*
G75*
G02*
X151643000Y-139569000I250000J0D01*
G01*
X152168000Y-139569000D01*
G75*
G02*
X152418000Y-139819000I0J-250000D01*
G01*
X152418000Y-140719000D01*
G75*
G02*
X152168000Y-140969000I-250000J0D01*
G01*
X151643000Y-140969000D01*
G75*
G02*
X151393000Y-140719000I0J250000D01*
G01*
G37*
G36*
G01*
X153218000Y-140719000D02*
X153218000Y-139819000D01*
G75*
G02*
X153468000Y-139569000I250000J0D01*
G01*
X153993000Y-139569000D01*
G75*
G02*
X154243000Y-139819000I0J-250000D01*
G01*
X154243000Y-140719000D01*
G75*
G02*
X153993000Y-140969000I-250000J0D01*
G01*
X153468000Y-140969000D01*
G75*
G02*
X153218000Y-140719000I0J250000D01*
G01*
G37*
G36*
G01*
X134726000Y-83147000D02*
X133826000Y-83147000D01*
G75*
G02*
X133576000Y-82897000I0J250000D01*
G01*
X133576000Y-82372000D01*
G75*
G02*
X133826000Y-82122000I250000J0D01*
G01*
X134726000Y-82122000D01*
G75*
G02*
X134976000Y-82372000I0J-250000D01*
G01*
X134976000Y-82897000D01*
G75*
G02*
X134726000Y-83147000I-250000J0D01*
G01*
G37*
G36*
G01*
X134726000Y-81322000D02*
X133826000Y-81322000D01*
G75*
G02*
X133576000Y-81072000I0J250000D01*
G01*
X133576000Y-80547000D01*
G75*
G02*
X133826000Y-80297000I250000J0D01*
G01*
X134726000Y-80297000D01*
G75*
G02*
X134976000Y-80547000I0J-250000D01*
G01*
X134976000Y-81072000D01*
G75*
G02*
X134726000Y-81322000I-250000J0D01*
G01*
G37*
D14*
X130569000Y-139927500D03*
G36*
X128144000Y-143877500D02*
G01*
X128144000Y-141277500D01*
X128669000Y-140752500D01*
X128669000Y-139277500D01*
X129469000Y-139277500D01*
X129469000Y-140752500D01*
X129994000Y-141277500D01*
X129994000Y-143877500D01*
X128144000Y-143877500D01*
G37*
X127569000Y-139927500D03*
D10*
X120077400Y-44510000D03*
X120077400Y-41210000D03*
G36*
G01*
X136661000Y-102625250D02*
X136661000Y-101712750D01*
G75*
G02*
X136904750Y-101469000I243750J0D01*
G01*
X137392250Y-101469000D01*
G75*
G02*
X137636000Y-101712750I0J-243750D01*
G01*
X137636000Y-102625250D01*
G75*
G02*
X137392250Y-102869000I-243750J0D01*
G01*
X136904750Y-102869000D01*
G75*
G02*
X136661000Y-102625250I0J243750D01*
G01*
G37*
G36*
G01*
X138536000Y-102625250D02*
X138536000Y-101712750D01*
G75*
G02*
X138779750Y-101469000I243750J0D01*
G01*
X139267250Y-101469000D01*
G75*
G02*
X139511000Y-101712750I0J-243750D01*
G01*
X139511000Y-102625250D01*
G75*
G02*
X139267250Y-102869000I-243750J0D01*
G01*
X138779750Y-102869000D01*
G75*
G02*
X138536000Y-102625250I0J243750D01*
G01*
G37*
G36*
G01*
X146775000Y-205580000D02*
X146775000Y-206530000D01*
G75*
G02*
X146525000Y-206780000I-250000J0D01*
G01*
X146025000Y-206780000D01*
G75*
G02*
X145775000Y-206530000I0J250000D01*
G01*
X145775000Y-205580000D01*
G75*
G02*
X146025000Y-205330000I250000J0D01*
G01*
X146525000Y-205330000D01*
G75*
G02*
X146775000Y-205580000I0J-250000D01*
G01*
G37*
G36*
G01*
X144875000Y-205580000D02*
X144875000Y-206530000D01*
G75*
G02*
X144625000Y-206780000I-250000J0D01*
G01*
X144125000Y-206780000D01*
G75*
G02*
X143875000Y-206530000I0J250000D01*
G01*
X143875000Y-205580000D01*
G75*
G02*
X144125000Y-205330000I250000J0D01*
G01*
X144625000Y-205330000D01*
G75*
G02*
X144875000Y-205580000I0J-250000D01*
G01*
G37*
G36*
G01*
X146751500Y-129589250D02*
X146751500Y-130539250D01*
G75*
G02*
X146501500Y-130789250I-250000J0D01*
G01*
X146001500Y-130789250D01*
G75*
G02*
X145751500Y-130539250I0J250000D01*
G01*
X145751500Y-129589250D01*
G75*
G02*
X146001500Y-129339250I250000J0D01*
G01*
X146501500Y-129339250D01*
G75*
G02*
X146751500Y-129589250I0J-250000D01*
G01*
G37*
G36*
G01*
X144851500Y-129589250D02*
X144851500Y-130539250D01*
G75*
G02*
X144601500Y-130789250I-250000J0D01*
G01*
X144101500Y-130789250D01*
G75*
G02*
X143851500Y-130539250I0J250000D01*
G01*
X143851500Y-129589250D01*
G75*
G02*
X144101500Y-129339250I250000J0D01*
G01*
X144601500Y-129339250D01*
G75*
G02*
X144851500Y-129589250I0J-250000D01*
G01*
G37*
G36*
G01*
X143646000Y-100079000D02*
X143646000Y-99179000D01*
G75*
G02*
X143896000Y-98929000I250000J0D01*
G01*
X144421000Y-98929000D01*
G75*
G02*
X144671000Y-99179000I0J-250000D01*
G01*
X144671000Y-100079000D01*
G75*
G02*
X144421000Y-100329000I-250000J0D01*
G01*
X143896000Y-100329000D01*
G75*
G02*
X143646000Y-100079000I0J250000D01*
G01*
G37*
G36*
G01*
X145471000Y-100079000D02*
X145471000Y-99179000D01*
G75*
G02*
X145721000Y-98929000I250000J0D01*
G01*
X146246000Y-98929000D01*
G75*
G02*
X146496000Y-99179000I0J-250000D01*
G01*
X146496000Y-100079000D01*
G75*
G02*
X146246000Y-100329000I-250000J0D01*
G01*
X145721000Y-100329000D01*
G75*
G02*
X145471000Y-100079000I0J250000D01*
G01*
G37*
G36*
G01*
X139303000Y-89944000D02*
X139303000Y-88994000D01*
G75*
G02*
X139553000Y-88744000I250000J0D01*
G01*
X140053000Y-88744000D01*
G75*
G02*
X140303000Y-88994000I0J-250000D01*
G01*
X140303000Y-89944000D01*
G75*
G02*
X140053000Y-90194000I-250000J0D01*
G01*
X139553000Y-90194000D01*
G75*
G02*
X139303000Y-89944000I0J250000D01*
G01*
G37*
G36*
G01*
X141203000Y-89944000D02*
X141203000Y-88994000D01*
G75*
G02*
X141453000Y-88744000I250000J0D01*
G01*
X141953000Y-88744000D01*
G75*
G02*
X142203000Y-88994000I0J-250000D01*
G01*
X142203000Y-89944000D01*
G75*
G02*
X141953000Y-90194000I-250000J0D01*
G01*
X141453000Y-90194000D01*
G75*
G02*
X141203000Y-89944000I0J250000D01*
G01*
G37*
X126376600Y-163130000D03*
X126376600Y-166430000D03*
D12*
X151040000Y-94231500D03*
X153580000Y-94231500D03*
X153580000Y-85214500D03*
X151040000Y-85214500D03*
D13*
X157644000Y-87723000D03*
X157644000Y-91723000D03*
D10*
X116877000Y-122490000D03*
X116877000Y-125790000D03*
G36*
G01*
X139511000Y-99179000D02*
X139511000Y-100079000D01*
G75*
G02*
X139261000Y-100329000I-250000J0D01*
G01*
X138736000Y-100329000D01*
G75*
G02*
X138486000Y-100079000I0J250000D01*
G01*
X138486000Y-99179000D01*
G75*
G02*
X138736000Y-98929000I250000J0D01*
G01*
X139261000Y-98929000D01*
G75*
G02*
X139511000Y-99179000I0J-250000D01*
G01*
G37*
G36*
G01*
X137686000Y-99179000D02*
X137686000Y-100079000D01*
G75*
G02*
X137436000Y-100329000I-250000J0D01*
G01*
X136911000Y-100329000D01*
G75*
G02*
X136661000Y-100079000I0J250000D01*
G01*
X136661000Y-99179000D01*
G75*
G02*
X136911000Y-98929000I250000J0D01*
G01*
X137436000Y-98929000D01*
G75*
G02*
X137686000Y-99179000I0J-250000D01*
G01*
G37*
G36*
G01*
X133547000Y-58174000D02*
X134497000Y-58174000D01*
G75*
G02*
X134747000Y-58424000I0J-250000D01*
G01*
X134747000Y-58924000D01*
G75*
G02*
X134497000Y-59174000I-250000J0D01*
G01*
X133547000Y-59174000D01*
G75*
G02*
X133297000Y-58924000I0J250000D01*
G01*
X133297000Y-58424000D01*
G75*
G02*
X133547000Y-58174000I250000J0D01*
G01*
G37*
G36*
G01*
X133547000Y-60074000D02*
X134497000Y-60074000D01*
G75*
G02*
X134747000Y-60324000I0J-250000D01*
G01*
X134747000Y-60824000D01*
G75*
G02*
X134497000Y-61074000I-250000J0D01*
G01*
X133547000Y-61074000D01*
G75*
G02*
X133297000Y-60824000I0J250000D01*
G01*
X133297000Y-60324000D01*
G75*
G02*
X133547000Y-60074000I250000J0D01*
G01*
G37*
G36*
G01*
X131483250Y-120687000D02*
X131783250Y-120687000D01*
G75*
G02*
X131933250Y-120837000I0J-150000D01*
G01*
X131933250Y-122012000D01*
G75*
G02*
X131783250Y-122162000I-150000J0D01*
G01*
X131483250Y-122162000D01*
G75*
G02*
X131333250Y-122012000I0J150000D01*
G01*
X131333250Y-120837000D01*
G75*
G02*
X131483250Y-120687000I150000J0D01*
G01*
G37*
G36*
G01*
X129583250Y-120687000D02*
X129883250Y-120687000D01*
G75*
G02*
X130033250Y-120837000I0J-150000D01*
G01*
X130033250Y-122012000D01*
G75*
G02*
X129883250Y-122162000I-150000J0D01*
G01*
X129583250Y-122162000D01*
G75*
G02*
X129433250Y-122012000I0J150000D01*
G01*
X129433250Y-120837000D01*
G75*
G02*
X129583250Y-120687000I150000J0D01*
G01*
G37*
G36*
G01*
X130533250Y-122562000D02*
X130833250Y-122562000D01*
G75*
G02*
X130983250Y-122712000I0J-150000D01*
G01*
X130983250Y-123887000D01*
G75*
G02*
X130833250Y-124037000I-150000J0D01*
G01*
X130533250Y-124037000D01*
G75*
G02*
X130383250Y-123887000I0J150000D01*
G01*
X130383250Y-122712000D01*
G75*
G02*
X130533250Y-122562000I150000J0D01*
G01*
G37*
G36*
G01*
X151393000Y-183905250D02*
X151393000Y-182992750D01*
G75*
G02*
X151636750Y-182749000I243750J0D01*
G01*
X152124250Y-182749000D01*
G75*
G02*
X152368000Y-182992750I0J-243750D01*
G01*
X152368000Y-183905250D01*
G75*
G02*
X152124250Y-184149000I-243750J0D01*
G01*
X151636750Y-184149000D01*
G75*
G02*
X151393000Y-183905250I0J243750D01*
G01*
G37*
G36*
G01*
X153268000Y-183905250D02*
X153268000Y-182992750D01*
G75*
G02*
X153511750Y-182749000I243750J0D01*
G01*
X153999250Y-182749000D01*
G75*
G02*
X154243000Y-182992750I0J-243750D01*
G01*
X154243000Y-183905250D01*
G75*
G02*
X153999250Y-184149000I-243750J0D01*
G01*
X153511750Y-184149000D01*
G75*
G02*
X153268000Y-183905250I0J243750D01*
G01*
G37*
G36*
G01*
X142801500Y-208445000D02*
X142801500Y-208745000D01*
G75*
G02*
X142651500Y-208895000I-150000J0D01*
G01*
X141626500Y-208895000D01*
G75*
G02*
X141476500Y-208745000I0J150000D01*
G01*
X141476500Y-208445000D01*
G75*
G02*
X141626500Y-208295000I150000J0D01*
G01*
X142651500Y-208295000D01*
G75*
G02*
X142801500Y-208445000I0J-150000D01*
G01*
G37*
G36*
G01*
X142801500Y-207495000D02*
X142801500Y-207795000D01*
G75*
G02*
X142651500Y-207945000I-150000J0D01*
G01*
X141626500Y-207945000D01*
G75*
G02*
X141476500Y-207795000I0J150000D01*
G01*
X141476500Y-207495000D01*
G75*
G02*
X141626500Y-207345000I150000J0D01*
G01*
X142651500Y-207345000D01*
G75*
G02*
X142801500Y-207495000I0J-150000D01*
G01*
G37*
G36*
G01*
X142801500Y-206545000D02*
X142801500Y-206845000D01*
G75*
G02*
X142651500Y-206995000I-150000J0D01*
G01*
X141626500Y-206995000D01*
G75*
G02*
X141476500Y-206845000I0J150000D01*
G01*
X141476500Y-206545000D01*
G75*
G02*
X141626500Y-206395000I150000J0D01*
G01*
X142651500Y-206395000D01*
G75*
G02*
X142801500Y-206545000I0J-150000D01*
G01*
G37*
G36*
G01*
X140526500Y-206545000D02*
X140526500Y-206845000D01*
G75*
G02*
X140376500Y-206995000I-150000J0D01*
G01*
X139351500Y-206995000D01*
G75*
G02*
X139201500Y-206845000I0J150000D01*
G01*
X139201500Y-206545000D01*
G75*
G02*
X139351500Y-206395000I150000J0D01*
G01*
X140376500Y-206395000D01*
G75*
G02*
X140526500Y-206545000I0J-150000D01*
G01*
G37*
G36*
G01*
X140526500Y-208445000D02*
X140526500Y-208745000D01*
G75*
G02*
X140376500Y-208895000I-150000J0D01*
G01*
X139351500Y-208895000D01*
G75*
G02*
X139201500Y-208745000I0J150000D01*
G01*
X139201500Y-208445000D01*
G75*
G02*
X139351500Y-208295000I150000J0D01*
G01*
X140376500Y-208295000D01*
G75*
G02*
X140526500Y-208445000I0J-150000D01*
G01*
G37*
G36*
G01*
X136685250Y-161552000D02*
X137635250Y-161552000D01*
G75*
G02*
X137885250Y-161802000I0J-250000D01*
G01*
X137885250Y-162302000D01*
G75*
G02*
X137635250Y-162552000I-250000J0D01*
G01*
X136685250Y-162552000D01*
G75*
G02*
X136435250Y-162302000I0J250000D01*
G01*
X136435250Y-161802000D01*
G75*
G02*
X136685250Y-161552000I250000J0D01*
G01*
G37*
G36*
G01*
X136685250Y-163452000D02*
X137635250Y-163452000D01*
G75*
G02*
X137885250Y-163702000I0J-250000D01*
G01*
X137885250Y-164202000D01*
G75*
G02*
X137635250Y-164452000I-250000J0D01*
G01*
X136685250Y-164452000D01*
G75*
G02*
X136435250Y-164202000I0J250000D01*
G01*
X136435250Y-163702000D01*
G75*
G02*
X136685250Y-163452000I250000J0D01*
G01*
G37*
G36*
G01*
X136685250Y-120912000D02*
X137635250Y-120912000D01*
G75*
G02*
X137885250Y-121162000I0J-250000D01*
G01*
X137885250Y-121662000D01*
G75*
G02*
X137635250Y-121912000I-250000J0D01*
G01*
X136685250Y-121912000D01*
G75*
G02*
X136435250Y-121662000I0J250000D01*
G01*
X136435250Y-121162000D01*
G75*
G02*
X136685250Y-120912000I250000J0D01*
G01*
G37*
G36*
G01*
X136685250Y-122812000D02*
X137635250Y-122812000D01*
G75*
G02*
X137885250Y-123062000I0J-250000D01*
G01*
X137885250Y-123562000D01*
G75*
G02*
X137635250Y-123812000I-250000J0D01*
G01*
X136685250Y-123812000D01*
G75*
G02*
X136435250Y-123562000I0J250000D01*
G01*
X136435250Y-123062000D01*
G75*
G02*
X136685250Y-122812000I250000J0D01*
G01*
G37*
G36*
G01*
X142801500Y-127165000D02*
X142801500Y-127465000D01*
G75*
G02*
X142651500Y-127615000I-150000J0D01*
G01*
X141626500Y-127615000D01*
G75*
G02*
X141476500Y-127465000I0J150000D01*
G01*
X141476500Y-127165000D01*
G75*
G02*
X141626500Y-127015000I150000J0D01*
G01*
X142651500Y-127015000D01*
G75*
G02*
X142801500Y-127165000I0J-150000D01*
G01*
G37*
G36*
G01*
X142801500Y-126215000D02*
X142801500Y-126515000D01*
G75*
G02*
X142651500Y-126665000I-150000J0D01*
G01*
X141626500Y-126665000D01*
G75*
G02*
X141476500Y-126515000I0J150000D01*
G01*
X141476500Y-126215000D01*
G75*
G02*
X141626500Y-126065000I150000J0D01*
G01*
X142651500Y-126065000D01*
G75*
G02*
X142801500Y-126215000I0J-150000D01*
G01*
G37*
G36*
G01*
X142801500Y-125265000D02*
X142801500Y-125565000D01*
G75*
G02*
X142651500Y-125715000I-150000J0D01*
G01*
X141626500Y-125715000D01*
G75*
G02*
X141476500Y-125565000I0J150000D01*
G01*
X141476500Y-125265000D01*
G75*
G02*
X141626500Y-125115000I150000J0D01*
G01*
X142651500Y-125115000D01*
G75*
G02*
X142801500Y-125265000I0J-150000D01*
G01*
G37*
G36*
G01*
X140526500Y-125265000D02*
X140526500Y-125565000D01*
G75*
G02*
X140376500Y-125715000I-150000J0D01*
G01*
X139351500Y-125715000D01*
G75*
G02*
X139201500Y-125565000I0J150000D01*
G01*
X139201500Y-125265000D01*
G75*
G02*
X139351500Y-125115000I150000J0D01*
G01*
X140376500Y-125115000D01*
G75*
G02*
X140526500Y-125265000I0J-150000D01*
G01*
G37*
G36*
G01*
X140526500Y-127165000D02*
X140526500Y-127465000D01*
G75*
G02*
X140376500Y-127615000I-150000J0D01*
G01*
X139351500Y-127615000D01*
G75*
G02*
X139201500Y-127465000I0J150000D01*
G01*
X139201500Y-127165000D01*
G75*
G02*
X139351500Y-127015000I150000J0D01*
G01*
X140376500Y-127015000D01*
G75*
G02*
X140526500Y-127165000I0J-150000D01*
G01*
G37*
D11*
X144869000Y-137221000D03*
X144869000Y-135951000D03*
X144869000Y-134681000D03*
X144869000Y-133411000D03*
X138669000Y-133411000D03*
X138669000Y-134681000D03*
X138669000Y-135951000D03*
X138669000Y-137221000D03*
G36*
G01*
X152592000Y-218559000D02*
X152592000Y-219459000D01*
G75*
G02*
X152342000Y-219709000I-250000J0D01*
G01*
X151817000Y-219709000D01*
G75*
G02*
X151567000Y-219459000I0J250000D01*
G01*
X151567000Y-218559000D01*
G75*
G02*
X151817000Y-218309000I250000J0D01*
G01*
X152342000Y-218309000D01*
G75*
G02*
X152592000Y-218559000I0J-250000D01*
G01*
G37*
G36*
G01*
X150767000Y-218559000D02*
X150767000Y-219459000D01*
G75*
G02*
X150517000Y-219709000I-250000J0D01*
G01*
X149992000Y-219709000D01*
G75*
G02*
X149742000Y-219459000I0J250000D01*
G01*
X149742000Y-218559000D01*
G75*
G02*
X149992000Y-218309000I250000J0D01*
G01*
X150517000Y-218309000D01*
G75*
G02*
X150767000Y-218559000I0J-250000D01*
G01*
G37*
G36*
G01*
X143646000Y-140719000D02*
X143646000Y-139819000D01*
G75*
G02*
X143896000Y-139569000I250000J0D01*
G01*
X144421000Y-139569000D01*
G75*
G02*
X144671000Y-139819000I0J-250000D01*
G01*
X144671000Y-140719000D01*
G75*
G02*
X144421000Y-140969000I-250000J0D01*
G01*
X143896000Y-140969000D01*
G75*
G02*
X143646000Y-140719000I0J250000D01*
G01*
G37*
G36*
G01*
X145471000Y-140719000D02*
X145471000Y-139819000D01*
G75*
G02*
X145721000Y-139569000I250000J0D01*
G01*
X146246000Y-139569000D01*
G75*
G02*
X146496000Y-139819000I0J-250000D01*
G01*
X146496000Y-140719000D01*
G75*
G02*
X146246000Y-140969000I-250000J0D01*
G01*
X145721000Y-140969000D01*
G75*
G02*
X145471000Y-140719000I0J250000D01*
G01*
G37*
D12*
X151040000Y-134871500D03*
X153580000Y-134871500D03*
X153580000Y-125854500D03*
X151040000Y-125854500D03*
G36*
G01*
X151393000Y-181359000D02*
X151393000Y-180459000D01*
G75*
G02*
X151643000Y-180209000I250000J0D01*
G01*
X152168000Y-180209000D01*
G75*
G02*
X152418000Y-180459000I0J-250000D01*
G01*
X152418000Y-181359000D01*
G75*
G02*
X152168000Y-181609000I-250000J0D01*
G01*
X151643000Y-181609000D01*
G75*
G02*
X151393000Y-181359000I0J250000D01*
G01*
G37*
G36*
G01*
X153218000Y-181359000D02*
X153218000Y-180459000D01*
G75*
G02*
X153468000Y-180209000I250000J0D01*
G01*
X153993000Y-180209000D01*
G75*
G02*
X154243000Y-180459000I0J-250000D01*
G01*
X154243000Y-181359000D01*
G75*
G02*
X153993000Y-181609000I-250000J0D01*
G01*
X153468000Y-181609000D01*
G75*
G02*
X153218000Y-181359000I0J250000D01*
G01*
G37*
D10*
X123252400Y-166430000D03*
X123252400Y-163130000D03*
G36*
G01*
X133547000Y-180094000D02*
X134497000Y-180094000D01*
G75*
G02*
X134747000Y-180344000I0J-250000D01*
G01*
X134747000Y-180844000D01*
G75*
G02*
X134497000Y-181094000I-250000J0D01*
G01*
X133547000Y-181094000D01*
G75*
G02*
X133297000Y-180844000I0J250000D01*
G01*
X133297000Y-180344000D01*
G75*
G02*
X133547000Y-180094000I250000J0D01*
G01*
G37*
G36*
G01*
X133547000Y-181994000D02*
X134497000Y-181994000D01*
G75*
G02*
X134747000Y-182244000I0J-250000D01*
G01*
X134747000Y-182744000D01*
G75*
G02*
X134497000Y-182994000I-250000J0D01*
G01*
X133547000Y-182994000D01*
G75*
G02*
X133297000Y-182744000I0J250000D01*
G01*
X133297000Y-182244000D01*
G75*
G02*
X133547000Y-181994000I250000J0D01*
G01*
G37*
D13*
X157644000Y-47083000D03*
X157644000Y-51083000D03*
G36*
G01*
X139511000Y-58539000D02*
X139511000Y-59439000D01*
G75*
G02*
X139261000Y-59689000I-250000J0D01*
G01*
X138736000Y-59689000D01*
G75*
G02*
X138486000Y-59439000I0J250000D01*
G01*
X138486000Y-58539000D01*
G75*
G02*
X138736000Y-58289000I250000J0D01*
G01*
X139261000Y-58289000D01*
G75*
G02*
X139511000Y-58539000I0J-250000D01*
G01*
G37*
G36*
G01*
X137686000Y-58539000D02*
X137686000Y-59439000D01*
G75*
G02*
X137436000Y-59689000I-250000J0D01*
G01*
X136911000Y-59689000D01*
G75*
G02*
X136661000Y-59439000I0J250000D01*
G01*
X136661000Y-58539000D01*
G75*
G02*
X136911000Y-58289000I250000J0D01*
G01*
X137436000Y-58289000D01*
G75*
G02*
X137686000Y-58539000I0J-250000D01*
G01*
G37*
G36*
G01*
X136685250Y-202192000D02*
X137635250Y-202192000D01*
G75*
G02*
X137885250Y-202442000I0J-250000D01*
G01*
X137885250Y-202942000D01*
G75*
G02*
X137635250Y-203192000I-250000J0D01*
G01*
X136685250Y-203192000D01*
G75*
G02*
X136435250Y-202942000I0J250000D01*
G01*
X136435250Y-202442000D01*
G75*
G02*
X136685250Y-202192000I250000J0D01*
G01*
G37*
G36*
G01*
X136685250Y-204092000D02*
X137635250Y-204092000D01*
G75*
G02*
X137885250Y-204342000I0J-250000D01*
G01*
X137885250Y-204842000D01*
G75*
G02*
X137635250Y-205092000I-250000J0D01*
G01*
X136685250Y-205092000D01*
G75*
G02*
X136435250Y-204842000I0J250000D01*
G01*
X136435250Y-204342000D01*
G75*
G02*
X136685250Y-204092000I250000J0D01*
G01*
G37*
G36*
G01*
X142801500Y-167805000D02*
X142801500Y-168105000D01*
G75*
G02*
X142651500Y-168255000I-150000J0D01*
G01*
X141626500Y-168255000D01*
G75*
G02*
X141476500Y-168105000I0J150000D01*
G01*
X141476500Y-167805000D01*
G75*
G02*
X141626500Y-167655000I150000J0D01*
G01*
X142651500Y-167655000D01*
G75*
G02*
X142801500Y-167805000I0J-150000D01*
G01*
G37*
G36*
G01*
X142801500Y-166855000D02*
X142801500Y-167155000D01*
G75*
G02*
X142651500Y-167305000I-150000J0D01*
G01*
X141626500Y-167305000D01*
G75*
G02*
X141476500Y-167155000I0J150000D01*
G01*
X141476500Y-166855000D01*
G75*
G02*
X141626500Y-166705000I150000J0D01*
G01*
X142651500Y-166705000D01*
G75*
G02*
X142801500Y-166855000I0J-150000D01*
G01*
G37*
G36*
G01*
X142801500Y-165905000D02*
X142801500Y-166205000D01*
G75*
G02*
X142651500Y-166355000I-150000J0D01*
G01*
X141626500Y-166355000D01*
G75*
G02*
X141476500Y-166205000I0J150000D01*
G01*
X141476500Y-165905000D01*
G75*
G02*
X141626500Y-165755000I150000J0D01*
G01*
X142651500Y-165755000D01*
G75*
G02*
X142801500Y-165905000I0J-150000D01*
G01*
G37*
G36*
G01*
X140526500Y-165905000D02*
X140526500Y-166205000D01*
G75*
G02*
X140376500Y-166355000I-150000J0D01*
G01*
X139351500Y-166355000D01*
G75*
G02*
X139201500Y-166205000I0J150000D01*
G01*
X139201500Y-165905000D01*
G75*
G02*
X139351500Y-165755000I150000J0D01*
G01*
X140376500Y-165755000D01*
G75*
G02*
X140526500Y-165905000I0J-150000D01*
G01*
G37*
G36*
G01*
X140526500Y-167805000D02*
X140526500Y-168105000D01*
G75*
G02*
X140376500Y-168255000I-150000J0D01*
G01*
X139351500Y-168255000D01*
G75*
G02*
X139201500Y-168105000I0J150000D01*
G01*
X139201500Y-167805000D01*
G75*
G02*
X139351500Y-167655000I150000J0D01*
G01*
X140376500Y-167655000D01*
G75*
G02*
X140526500Y-167805000I0J-150000D01*
G01*
G37*
G36*
G01*
X128095000Y-55565000D02*
X126995000Y-55565000D01*
G75*
G02*
X126745000Y-55315000I0J250000D01*
G01*
X126745000Y-52315000D01*
G75*
G02*
X126995000Y-52065000I250000J0D01*
G01*
X128095000Y-52065000D01*
G75*
G02*
X128345000Y-52315000I0J-250000D01*
G01*
X128345000Y-55315000D01*
G75*
G02*
X128095000Y-55565000I-250000J0D01*
G01*
G37*
G36*
G01*
X128095000Y-50165000D02*
X126995000Y-50165000D01*
G75*
G02*
X126745000Y-49915000I0J250000D01*
G01*
X126745000Y-46915000D01*
G75*
G02*
X126995000Y-46665000I250000J0D01*
G01*
X128095000Y-46665000D01*
G75*
G02*
X128345000Y-46915000I0J-250000D01*
G01*
X128345000Y-49915000D01*
G75*
G02*
X128095000Y-50165000I-250000J0D01*
G01*
G37*
D14*
X130569000Y-58647500D03*
G36*
X128144000Y-62597500D02*
G01*
X128144000Y-59997500D01*
X128669000Y-59472500D01*
X128669000Y-57997500D01*
X129469000Y-57997500D01*
X129469000Y-59472500D01*
X129994000Y-59997500D01*
X129994000Y-62597500D01*
X128144000Y-62597500D01*
G37*
X127569000Y-58647500D03*
G36*
G01*
X152592000Y-96639000D02*
X152592000Y-97539000D01*
G75*
G02*
X152342000Y-97789000I-250000J0D01*
G01*
X151817000Y-97789000D01*
G75*
G02*
X151567000Y-97539000I0J250000D01*
G01*
X151567000Y-96639000D01*
G75*
G02*
X151817000Y-96389000I250000J0D01*
G01*
X152342000Y-96389000D01*
G75*
G02*
X152592000Y-96639000I0J-250000D01*
G01*
G37*
G36*
G01*
X150767000Y-96639000D02*
X150767000Y-97539000D01*
G75*
G02*
X150517000Y-97789000I-250000J0D01*
G01*
X149992000Y-97789000D01*
G75*
G02*
X149742000Y-97539000I0J250000D01*
G01*
X149742000Y-96639000D01*
G75*
G02*
X149992000Y-96389000I250000J0D01*
G01*
X150517000Y-96389000D01*
G75*
G02*
X150767000Y-96639000I0J-250000D01*
G01*
G37*
G36*
G01*
X143646000Y-183905250D02*
X143646000Y-182992750D01*
G75*
G02*
X143889750Y-182749000I243750J0D01*
G01*
X144377250Y-182749000D01*
G75*
G02*
X144621000Y-182992750I0J-243750D01*
G01*
X144621000Y-183905250D01*
G75*
G02*
X144377250Y-184149000I-243750J0D01*
G01*
X143889750Y-184149000D01*
G75*
G02*
X143646000Y-183905250I0J243750D01*
G01*
G37*
G36*
G01*
X145521000Y-183905250D02*
X145521000Y-182992750D01*
G75*
G02*
X145764750Y-182749000I243750J0D01*
G01*
X146252250Y-182749000D01*
G75*
G02*
X146496000Y-182992750I0J-243750D01*
G01*
X146496000Y-183905250D01*
G75*
G02*
X146252250Y-184149000I-243750J0D01*
G01*
X145764750Y-184149000D01*
G75*
G02*
X145521000Y-183905250I0J243750D01*
G01*
G37*
G36*
G01*
X151393000Y-61985250D02*
X151393000Y-61072750D01*
G75*
G02*
X151636750Y-60829000I243750J0D01*
G01*
X152124250Y-60829000D01*
G75*
G02*
X152368000Y-61072750I0J-243750D01*
G01*
X152368000Y-61985250D01*
G75*
G02*
X152124250Y-62229000I-243750J0D01*
G01*
X151636750Y-62229000D01*
G75*
G02*
X151393000Y-61985250I0J243750D01*
G01*
G37*
G36*
G01*
X153268000Y-61985250D02*
X153268000Y-61072750D01*
G75*
G02*
X153511750Y-60829000I243750J0D01*
G01*
X153999250Y-60829000D01*
G75*
G02*
X154243000Y-61072750I0J-243750D01*
G01*
X154243000Y-61985250D01*
G75*
G02*
X153999250Y-62229000I-243750J0D01*
G01*
X153511750Y-62229000D01*
G75*
G02*
X153268000Y-61985250I0J243750D01*
G01*
G37*
G36*
G01*
X139303000Y-49304000D02*
X139303000Y-48354000D01*
G75*
G02*
X139553000Y-48104000I250000J0D01*
G01*
X140053000Y-48104000D01*
G75*
G02*
X140303000Y-48354000I0J-250000D01*
G01*
X140303000Y-49304000D01*
G75*
G02*
X140053000Y-49554000I-250000J0D01*
G01*
X139553000Y-49554000D01*
G75*
G02*
X139303000Y-49304000I0J250000D01*
G01*
G37*
G36*
G01*
X141203000Y-49304000D02*
X141203000Y-48354000D01*
G75*
G02*
X141453000Y-48104000I250000J0D01*
G01*
X141953000Y-48104000D01*
G75*
G02*
X142203000Y-48354000I0J-250000D01*
G01*
X142203000Y-49304000D01*
G75*
G02*
X141953000Y-49554000I-250000J0D01*
G01*
X141453000Y-49554000D01*
G75*
G02*
X141203000Y-49304000I0J250000D01*
G01*
G37*
G36*
G01*
X146751500Y-170229250D02*
X146751500Y-171179250D01*
G75*
G02*
X146501500Y-171429250I-250000J0D01*
G01*
X146001500Y-171429250D01*
G75*
G02*
X145751500Y-171179250I0J250000D01*
G01*
X145751500Y-170229250D01*
G75*
G02*
X146001500Y-169979250I250000J0D01*
G01*
X146501500Y-169979250D01*
G75*
G02*
X146751500Y-170229250I0J-250000D01*
G01*
G37*
G36*
G01*
X144851500Y-170229250D02*
X144851500Y-171179250D01*
G75*
G02*
X144601500Y-171429250I-250000J0D01*
G01*
X144101500Y-171429250D01*
G75*
G02*
X143851500Y-171179250I0J250000D01*
G01*
X143851500Y-170229250D01*
G75*
G02*
X144101500Y-169979250I250000J0D01*
G01*
X144601500Y-169979250D01*
G75*
G02*
X144851500Y-170229250I0J-250000D01*
G01*
G37*
G36*
G01*
X143646000Y-221999000D02*
X143646000Y-221099000D01*
G75*
G02*
X143896000Y-220849000I250000J0D01*
G01*
X144421000Y-220849000D01*
G75*
G02*
X144671000Y-221099000I0J-250000D01*
G01*
X144671000Y-221999000D01*
G75*
G02*
X144421000Y-222249000I-250000J0D01*
G01*
X143896000Y-222249000D01*
G75*
G02*
X143646000Y-221999000I0J250000D01*
G01*
G37*
G36*
G01*
X145471000Y-221999000D02*
X145471000Y-221099000D01*
G75*
G02*
X145721000Y-220849000I250000J0D01*
G01*
X146246000Y-220849000D01*
G75*
G02*
X146496000Y-221099000I0J-250000D01*
G01*
X146496000Y-221999000D01*
G75*
G02*
X146246000Y-222249000I-250000J0D01*
G01*
X145721000Y-222249000D01*
G75*
G02*
X145471000Y-221999000I0J250000D01*
G01*
G37*
G36*
G01*
X151393000Y-59439000D02*
X151393000Y-58539000D01*
G75*
G02*
X151643000Y-58289000I250000J0D01*
G01*
X152168000Y-58289000D01*
G75*
G02*
X152418000Y-58539000I0J-250000D01*
G01*
X152418000Y-59439000D01*
G75*
G02*
X152168000Y-59689000I-250000J0D01*
G01*
X151643000Y-59689000D01*
G75*
G02*
X151393000Y-59439000I0J250000D01*
G01*
G37*
G36*
G01*
X153218000Y-59439000D02*
X153218000Y-58539000D01*
G75*
G02*
X153468000Y-58289000I250000J0D01*
G01*
X153993000Y-58289000D01*
G75*
G02*
X154243000Y-58539000I0J-250000D01*
G01*
X154243000Y-59439000D01*
G75*
G02*
X153993000Y-59689000I-250000J0D01*
G01*
X153468000Y-59689000D01*
G75*
G02*
X153218000Y-59439000I0J250000D01*
G01*
G37*
X130569000Y-221207500D03*
G36*
X128144000Y-225157500D02*
G01*
X128144000Y-222557500D01*
X128669000Y-222032500D01*
X128669000Y-220557500D01*
X129469000Y-220557500D01*
X129469000Y-222032500D01*
X129994000Y-222557500D01*
X129994000Y-225157500D01*
X128144000Y-225157500D01*
G37*
X127569000Y-221207500D03*
G36*
G01*
X151393000Y-100079000D02*
X151393000Y-99179000D01*
G75*
G02*
X151643000Y-98929000I250000J0D01*
G01*
X152168000Y-98929000D01*
G75*
G02*
X152418000Y-99179000I0J-250000D01*
G01*
X152418000Y-100079000D01*
G75*
G02*
X152168000Y-100329000I-250000J0D01*
G01*
X151643000Y-100329000D01*
G75*
G02*
X151393000Y-100079000I0J250000D01*
G01*
G37*
G36*
G01*
X153218000Y-100079000D02*
X153218000Y-99179000D01*
G75*
G02*
X153468000Y-98929000I250000J0D01*
G01*
X153993000Y-98929000D01*
G75*
G02*
X154243000Y-99179000I0J-250000D01*
G01*
X154243000Y-100079000D01*
G75*
G02*
X153993000Y-100329000I-250000J0D01*
G01*
X153468000Y-100329000D01*
G75*
G02*
X153218000Y-100079000I0J250000D01*
G01*
G37*
G36*
G01*
X146775000Y-83660000D02*
X146775000Y-84610000D01*
G75*
G02*
X146525000Y-84860000I-250000J0D01*
G01*
X146025000Y-84860000D01*
G75*
G02*
X145775000Y-84610000I0J250000D01*
G01*
X145775000Y-83660000D01*
G75*
G02*
X146025000Y-83410000I250000J0D01*
G01*
X146525000Y-83410000D01*
G75*
G02*
X146775000Y-83660000I0J-250000D01*
G01*
G37*
G36*
G01*
X144875000Y-83660000D02*
X144875000Y-84610000D01*
G75*
G02*
X144625000Y-84860000I-250000J0D01*
G01*
X144125000Y-84860000D01*
G75*
G02*
X143875000Y-84610000I0J250000D01*
G01*
X143875000Y-83660000D01*
G75*
G02*
X144125000Y-83410000I250000J0D01*
G01*
X144625000Y-83410000D01*
G75*
G02*
X144875000Y-83660000I0J-250000D01*
G01*
G37*
X130569000Y-99287500D03*
G36*
X128144000Y-103237500D02*
G01*
X128144000Y-100637500D01*
X128669000Y-100112500D01*
X128669000Y-98637500D01*
X129469000Y-98637500D01*
X129469000Y-100112500D01*
X129994000Y-100637500D01*
X129994000Y-103237500D01*
X128144000Y-103237500D01*
G37*
X127569000Y-99287500D03*
D10*
X123252400Y-44510000D03*
X123252400Y-41210000D03*
G36*
G01*
X139511000Y-180459000D02*
X139511000Y-181359000D01*
G75*
G02*
X139261000Y-181609000I-250000J0D01*
G01*
X138736000Y-181609000D01*
G75*
G02*
X138486000Y-181359000I0J250000D01*
G01*
X138486000Y-180459000D01*
G75*
G02*
X138736000Y-180209000I250000J0D01*
G01*
X139261000Y-180209000D01*
G75*
G02*
X139511000Y-180459000I0J-250000D01*
G01*
G37*
G36*
G01*
X137686000Y-180459000D02*
X137686000Y-181359000D01*
G75*
G02*
X137436000Y-181609000I-250000J0D01*
G01*
X136911000Y-181609000D01*
G75*
G02*
X136661000Y-181359000I0J250000D01*
G01*
X136661000Y-180459000D01*
G75*
G02*
X136911000Y-180209000I250000J0D01*
G01*
X137436000Y-180209000D01*
G75*
G02*
X137686000Y-180459000I0J-250000D01*
G01*
G37*
G36*
G01*
X157129000Y-40388000D02*
X157129000Y-42538000D01*
G75*
G02*
X156879000Y-42788000I-250000J0D01*
G01*
X156254000Y-42788000D01*
G75*
G02*
X156004000Y-42538000I0J250000D01*
G01*
X156004000Y-40388000D01*
G75*
G02*
X156254000Y-40138000I250000J0D01*
G01*
X156879000Y-40138000D01*
G75*
G02*
X157129000Y-40388000I0J-250000D01*
G01*
G37*
G36*
G01*
X154204000Y-40388000D02*
X154204000Y-42538000D01*
G75*
G02*
X153954000Y-42788000I-250000J0D01*
G01*
X153329000Y-42788000D01*
G75*
G02*
X153079000Y-42538000I0J250000D01*
G01*
X153079000Y-40388000D01*
G75*
G02*
X153329000Y-40138000I250000J0D01*
G01*
X153954000Y-40138000D01*
G75*
G02*
X154204000Y-40388000I0J-250000D01*
G01*
G37*
G36*
G01*
X157129000Y-202948000D02*
X157129000Y-205098000D01*
G75*
G02*
X156879000Y-205348000I-250000J0D01*
G01*
X156254000Y-205348000D01*
G75*
G02*
X156004000Y-205098000I0J250000D01*
G01*
X156004000Y-202948000D01*
G75*
G02*
X156254000Y-202698000I250000J0D01*
G01*
X156879000Y-202698000D01*
G75*
G02*
X157129000Y-202948000I0J-250000D01*
G01*
G37*
G36*
G01*
X154204000Y-202948000D02*
X154204000Y-205098000D01*
G75*
G02*
X153954000Y-205348000I-250000J0D01*
G01*
X153329000Y-205348000D01*
G75*
G02*
X153079000Y-205098000I0J250000D01*
G01*
X153079000Y-202948000D01*
G75*
G02*
X153329000Y-202698000I250000J0D01*
G01*
X153954000Y-202698000D01*
G75*
G02*
X154204000Y-202948000I0J-250000D01*
G01*
G37*
G36*
G01*
X136661000Y-143265250D02*
X136661000Y-142352750D01*
G75*
G02*
X136904750Y-142109000I243750J0D01*
G01*
X137392250Y-142109000D01*
G75*
G02*
X137636000Y-142352750I0J-243750D01*
G01*
X137636000Y-143265250D01*
G75*
G02*
X137392250Y-143509000I-243750J0D01*
G01*
X136904750Y-143509000D01*
G75*
G02*
X136661000Y-143265250I0J243750D01*
G01*
G37*
G36*
G01*
X138536000Y-143265250D02*
X138536000Y-142352750D01*
G75*
G02*
X138779750Y-142109000I243750J0D01*
G01*
X139267250Y-142109000D01*
G75*
G02*
X139511000Y-142352750I0J-243750D01*
G01*
X139511000Y-143265250D01*
G75*
G02*
X139267250Y-143509000I-243750J0D01*
G01*
X138779750Y-143509000D01*
G75*
G02*
X138536000Y-143265250I0J243750D01*
G01*
G37*
X120077400Y-85150000D03*
X120077400Y-81850000D03*
G36*
G01*
X151393000Y-224545250D02*
X151393000Y-223632750D01*
G75*
G02*
X151636750Y-223389000I243750J0D01*
G01*
X152124250Y-223389000D01*
G75*
G02*
X152368000Y-223632750I0J-243750D01*
G01*
X152368000Y-224545250D01*
G75*
G02*
X152124250Y-224789000I-243750J0D01*
G01*
X151636750Y-224789000D01*
G75*
G02*
X151393000Y-224545250I0J243750D01*
G01*
G37*
G36*
G01*
X153268000Y-224545250D02*
X153268000Y-223632750D01*
G75*
G02*
X153511750Y-223389000I243750J0D01*
G01*
X153999250Y-223389000D01*
G75*
G02*
X154243000Y-223632750I0J-243750D01*
G01*
X154243000Y-224545250D01*
G75*
G02*
X153999250Y-224789000I-243750J0D01*
G01*
X153511750Y-224789000D01*
G75*
G02*
X153268000Y-224545250I0J243750D01*
G01*
G37*
X123252400Y-125790000D03*
X123252400Y-122490000D03*
D14*
X130569000Y-180567500D03*
G36*
X128144000Y-184517500D02*
G01*
X128144000Y-181917500D01*
X128669000Y-181392500D01*
X128669000Y-179917500D01*
X129469000Y-179917500D01*
X129469000Y-181392500D01*
X129994000Y-181917500D01*
X129994000Y-184517500D01*
X128144000Y-184517500D01*
G37*
X127569000Y-180567500D03*
D10*
X123252400Y-207070000D03*
X123252400Y-203770000D03*
G36*
G01*
X146751500Y-210869250D02*
X146751500Y-211819250D01*
G75*
G02*
X146501500Y-212069250I-250000J0D01*
G01*
X146001500Y-212069250D01*
G75*
G02*
X145751500Y-211819250I0J250000D01*
G01*
X145751500Y-210869250D01*
G75*
G02*
X146001500Y-210619250I250000J0D01*
G01*
X146501500Y-210619250D01*
G75*
G02*
X146751500Y-210869250I0J-250000D01*
G01*
G37*
G36*
G01*
X144851500Y-210869250D02*
X144851500Y-211819250D01*
G75*
G02*
X144601500Y-212069250I-250000J0D01*
G01*
X144101500Y-212069250D01*
G75*
G02*
X143851500Y-211819250I0J250000D01*
G01*
X143851500Y-210869250D01*
G75*
G02*
X144101500Y-210619250I250000J0D01*
G01*
X144601500Y-210619250D01*
G75*
G02*
X144851500Y-210869250I0J-250000D01*
G01*
G37*
X120077400Y-207070000D03*
X120077400Y-203770000D03*
G36*
G01*
X134726000Y-123787000D02*
X133826000Y-123787000D01*
G75*
G02*
X133576000Y-123537000I0J250000D01*
G01*
X133576000Y-123012000D01*
G75*
G02*
X133826000Y-122762000I250000J0D01*
G01*
X134726000Y-122762000D01*
G75*
G02*
X134976000Y-123012000I0J-250000D01*
G01*
X134976000Y-123537000D01*
G75*
G02*
X134726000Y-123787000I-250000J0D01*
G01*
G37*
G36*
G01*
X134726000Y-121962000D02*
X133826000Y-121962000D01*
G75*
G02*
X133576000Y-121712000I0J250000D01*
G01*
X133576000Y-121187000D01*
G75*
G02*
X133826000Y-120937000I250000J0D01*
G01*
X134726000Y-120937000D01*
G75*
G02*
X134976000Y-121187000I0J-250000D01*
G01*
X134976000Y-121712000D01*
G75*
G02*
X134726000Y-121962000I-250000J0D01*
G01*
G37*
G36*
G01*
X157129000Y-162308000D02*
X157129000Y-164458000D01*
G75*
G02*
X156879000Y-164708000I-250000J0D01*
G01*
X156254000Y-164708000D01*
G75*
G02*
X156004000Y-164458000I0J250000D01*
G01*
X156004000Y-162308000D01*
G75*
G02*
X156254000Y-162058000I250000J0D01*
G01*
X156879000Y-162058000D01*
G75*
G02*
X157129000Y-162308000I0J-250000D01*
G01*
G37*
G36*
G01*
X154204000Y-162308000D02*
X154204000Y-164458000D01*
G75*
G02*
X153954000Y-164708000I-250000J0D01*
G01*
X153329000Y-164708000D01*
G75*
G02*
X153079000Y-164458000I0J250000D01*
G01*
X153079000Y-162308000D01*
G75*
G02*
X153329000Y-162058000I250000J0D01*
G01*
X153954000Y-162058000D01*
G75*
G02*
X154204000Y-162308000I0J-250000D01*
G01*
G37*
G36*
G01*
X152592000Y-177919000D02*
X152592000Y-178819000D01*
G75*
G02*
X152342000Y-179069000I-250000J0D01*
G01*
X151817000Y-179069000D01*
G75*
G02*
X151567000Y-178819000I0J250000D01*
G01*
X151567000Y-177919000D01*
G75*
G02*
X151817000Y-177669000I250000J0D01*
G01*
X152342000Y-177669000D01*
G75*
G02*
X152592000Y-177919000I0J-250000D01*
G01*
G37*
G36*
G01*
X150767000Y-177919000D02*
X150767000Y-178819000D01*
G75*
G02*
X150517000Y-179069000I-250000J0D01*
G01*
X149992000Y-179069000D01*
G75*
G02*
X149742000Y-178819000I0J250000D01*
G01*
X149742000Y-177919000D01*
G75*
G02*
X149992000Y-177669000I250000J0D01*
G01*
X150517000Y-177669000D01*
G75*
G02*
X150767000Y-177919000I0J-250000D01*
G01*
G37*
G36*
G01*
X136661000Y-183905250D02*
X136661000Y-182992750D01*
G75*
G02*
X136904750Y-182749000I243750J0D01*
G01*
X137392250Y-182749000D01*
G75*
G02*
X137636000Y-182992750I0J-243750D01*
G01*
X137636000Y-183905250D01*
G75*
G02*
X137392250Y-184149000I-243750J0D01*
G01*
X136904750Y-184149000D01*
G75*
G02*
X136661000Y-183905250I0J243750D01*
G01*
G37*
G36*
G01*
X138536000Y-183905250D02*
X138536000Y-182992750D01*
G75*
G02*
X138779750Y-182749000I243750J0D01*
G01*
X139267250Y-182749000D01*
G75*
G02*
X139511000Y-182992750I0J-243750D01*
G01*
X139511000Y-183905250D01*
G75*
G02*
X139267250Y-184149000I-243750J0D01*
G01*
X138779750Y-184149000D01*
G75*
G02*
X138536000Y-183905250I0J243750D01*
G01*
G37*
G36*
G01*
X136661000Y-224545250D02*
X136661000Y-223632750D01*
G75*
G02*
X136904750Y-223389000I243750J0D01*
G01*
X137392250Y-223389000D01*
G75*
G02*
X137636000Y-223632750I0J-243750D01*
G01*
X137636000Y-224545250D01*
G75*
G02*
X137392250Y-224789000I-243750J0D01*
G01*
X136904750Y-224789000D01*
G75*
G02*
X136661000Y-224545250I0J243750D01*
G01*
G37*
G36*
G01*
X138536000Y-224545250D02*
X138536000Y-223632750D01*
G75*
G02*
X138779750Y-223389000I243750J0D01*
G01*
X139267250Y-223389000D01*
G75*
G02*
X139511000Y-223632750I0J-243750D01*
G01*
X139511000Y-224545250D01*
G75*
G02*
X139267250Y-224789000I-243750J0D01*
G01*
X138779750Y-224789000D01*
G75*
G02*
X138536000Y-224545250I0J243750D01*
G01*
G37*
G36*
G01*
X136685250Y-80272000D02*
X137635250Y-80272000D01*
G75*
G02*
X137885250Y-80522000I0J-250000D01*
G01*
X137885250Y-81022000D01*
G75*
G02*
X137635250Y-81272000I-250000J0D01*
G01*
X136685250Y-81272000D01*
G75*
G02*
X136435250Y-81022000I0J250000D01*
G01*
X136435250Y-80522000D01*
G75*
G02*
X136685250Y-80272000I250000J0D01*
G01*
G37*
G36*
G01*
X136685250Y-82172000D02*
X137635250Y-82172000D01*
G75*
G02*
X137885250Y-82422000I0J-250000D01*
G01*
X137885250Y-82922000D01*
G75*
G02*
X137635250Y-83172000I-250000J0D01*
G01*
X136685250Y-83172000D01*
G75*
G02*
X136435250Y-82922000I0J250000D01*
G01*
X136435250Y-82422000D01*
G75*
G02*
X136685250Y-82172000I250000J0D01*
G01*
G37*
G36*
G01*
X143646000Y-59439000D02*
X143646000Y-58539000D01*
G75*
G02*
X143896000Y-58289000I250000J0D01*
G01*
X144421000Y-58289000D01*
G75*
G02*
X144671000Y-58539000I0J-250000D01*
G01*
X144671000Y-59439000D01*
G75*
G02*
X144421000Y-59689000I-250000J0D01*
G01*
X143896000Y-59689000D01*
G75*
G02*
X143646000Y-59439000I0J250000D01*
G01*
G37*
G36*
G01*
X145471000Y-59439000D02*
X145471000Y-58539000D01*
G75*
G02*
X145721000Y-58289000I250000J0D01*
G01*
X146246000Y-58289000D01*
G75*
G02*
X146496000Y-58539000I0J-250000D01*
G01*
X146496000Y-59439000D01*
G75*
G02*
X146246000Y-59689000I-250000J0D01*
G01*
X145721000Y-59689000D01*
G75*
G02*
X145471000Y-59439000I0J250000D01*
G01*
G37*
G36*
G01*
X146775000Y-164940000D02*
X146775000Y-165890000D01*
G75*
G02*
X146525000Y-166140000I-250000J0D01*
G01*
X146025000Y-166140000D01*
G75*
G02*
X145775000Y-165890000I0J250000D01*
G01*
X145775000Y-164940000D01*
G75*
G02*
X146025000Y-164690000I250000J0D01*
G01*
X146525000Y-164690000D01*
G75*
G02*
X146775000Y-164940000I0J-250000D01*
G01*
G37*
G36*
G01*
X144875000Y-164940000D02*
X144875000Y-165890000D01*
G75*
G02*
X144625000Y-166140000I-250000J0D01*
G01*
X144125000Y-166140000D01*
G75*
G02*
X143875000Y-165890000I0J250000D01*
G01*
X143875000Y-164940000D01*
G75*
G02*
X144125000Y-164690000I250000J0D01*
G01*
X144625000Y-164690000D01*
G75*
G02*
X144875000Y-164940000I0J-250000D01*
G01*
G37*
X116877000Y-41210000D03*
X116877000Y-44510000D03*
G36*
G01*
X143646000Y-143265250D02*
X143646000Y-142352750D01*
G75*
G02*
X143889750Y-142109000I243750J0D01*
G01*
X144377250Y-142109000D01*
G75*
G02*
X144621000Y-142352750I0J-243750D01*
G01*
X144621000Y-143265250D01*
G75*
G02*
X144377250Y-143509000I-243750J0D01*
G01*
X143889750Y-143509000D01*
G75*
G02*
X143646000Y-143265250I0J243750D01*
G01*
G37*
G36*
G01*
X145521000Y-143265250D02*
X145521000Y-142352750D01*
G75*
G02*
X145764750Y-142109000I243750J0D01*
G01*
X146252250Y-142109000D01*
G75*
G02*
X146496000Y-142352750I0J-243750D01*
G01*
X146496000Y-143265250D01*
G75*
G02*
X146252250Y-143509000I-243750J0D01*
G01*
X145764750Y-143509000D01*
G75*
G02*
X145521000Y-143265250I0J243750D01*
G01*
G37*
G36*
G01*
X139303000Y-171224000D02*
X139303000Y-170274000D01*
G75*
G02*
X139553000Y-170024000I250000J0D01*
G01*
X140053000Y-170024000D01*
G75*
G02*
X140303000Y-170274000I0J-250000D01*
G01*
X140303000Y-171224000D01*
G75*
G02*
X140053000Y-171474000I-250000J0D01*
G01*
X139553000Y-171474000D01*
G75*
G02*
X139303000Y-171224000I0J250000D01*
G01*
G37*
G36*
G01*
X141203000Y-171224000D02*
X141203000Y-170274000D01*
G75*
G02*
X141453000Y-170024000I250000J0D01*
G01*
X141953000Y-170024000D01*
G75*
G02*
X142203000Y-170274000I0J-250000D01*
G01*
X142203000Y-171224000D01*
G75*
G02*
X141953000Y-171474000I-250000J0D01*
G01*
X141453000Y-171474000D01*
G75*
G02*
X141203000Y-171224000I0J250000D01*
G01*
G37*
G36*
G01*
X142801500Y-86525000D02*
X142801500Y-86825000D01*
G75*
G02*
X142651500Y-86975000I-150000J0D01*
G01*
X141626500Y-86975000D01*
G75*
G02*
X141476500Y-86825000I0J150000D01*
G01*
X141476500Y-86525000D01*
G75*
G02*
X141626500Y-86375000I150000J0D01*
G01*
X142651500Y-86375000D01*
G75*
G02*
X142801500Y-86525000I0J-150000D01*
G01*
G37*
G36*
G01*
X142801500Y-85575000D02*
X142801500Y-85875000D01*
G75*
G02*
X142651500Y-86025000I-150000J0D01*
G01*
X141626500Y-86025000D01*
G75*
G02*
X141476500Y-85875000I0J150000D01*
G01*
X141476500Y-85575000D01*
G75*
G02*
X141626500Y-85425000I150000J0D01*
G01*
X142651500Y-85425000D01*
G75*
G02*
X142801500Y-85575000I0J-150000D01*
G01*
G37*
G36*
G01*
X142801500Y-84625000D02*
X142801500Y-84925000D01*
G75*
G02*
X142651500Y-85075000I-150000J0D01*
G01*
X141626500Y-85075000D01*
G75*
G02*
X141476500Y-84925000I0J150000D01*
G01*
X141476500Y-84625000D01*
G75*
G02*
X141626500Y-84475000I150000J0D01*
G01*
X142651500Y-84475000D01*
G75*
G02*
X142801500Y-84625000I0J-150000D01*
G01*
G37*
G36*
G01*
X140526500Y-84625000D02*
X140526500Y-84925000D01*
G75*
G02*
X140376500Y-85075000I-150000J0D01*
G01*
X139351500Y-85075000D01*
G75*
G02*
X139201500Y-84925000I0J150000D01*
G01*
X139201500Y-84625000D01*
G75*
G02*
X139351500Y-84475000I150000J0D01*
G01*
X140376500Y-84475000D01*
G75*
G02*
X140526500Y-84625000I0J-150000D01*
G01*
G37*
G36*
G01*
X140526500Y-86525000D02*
X140526500Y-86825000D01*
G75*
G02*
X140376500Y-86975000I-150000J0D01*
G01*
X139351500Y-86975000D01*
G75*
G02*
X139201500Y-86825000I0J150000D01*
G01*
X139201500Y-86525000D01*
G75*
G02*
X139351500Y-86375000I150000J0D01*
G01*
X140376500Y-86375000D01*
G75*
G02*
X140526500Y-86525000I0J-150000D01*
G01*
G37*
G36*
G01*
X131483250Y-201967000D02*
X131783250Y-201967000D01*
G75*
G02*
X131933250Y-202117000I0J-150000D01*
G01*
X131933250Y-203292000D01*
G75*
G02*
X131783250Y-203442000I-150000J0D01*
G01*
X131483250Y-203442000D01*
G75*
G02*
X131333250Y-203292000I0J150000D01*
G01*
X131333250Y-202117000D01*
G75*
G02*
X131483250Y-201967000I150000J0D01*
G01*
G37*
G36*
G01*
X129583250Y-201967000D02*
X129883250Y-201967000D01*
G75*
G02*
X130033250Y-202117000I0J-150000D01*
G01*
X130033250Y-203292000D01*
G75*
G02*
X129883250Y-203442000I-150000J0D01*
G01*
X129583250Y-203442000D01*
G75*
G02*
X129433250Y-203292000I0J150000D01*
G01*
X129433250Y-202117000D01*
G75*
G02*
X129583250Y-201967000I150000J0D01*
G01*
G37*
G36*
G01*
X130533250Y-203842000D02*
X130833250Y-203842000D01*
G75*
G02*
X130983250Y-203992000I0J-150000D01*
G01*
X130983250Y-205167000D01*
G75*
G02*
X130833250Y-205317000I-150000J0D01*
G01*
X130533250Y-205317000D01*
G75*
G02*
X130383250Y-205167000I0J150000D01*
G01*
X130383250Y-203992000D01*
G75*
G02*
X130533250Y-203842000I150000J0D01*
G01*
G37*
G36*
G01*
X151393000Y-102625250D02*
X151393000Y-101712750D01*
G75*
G02*
X151636750Y-101469000I243750J0D01*
G01*
X152124250Y-101469000D01*
G75*
G02*
X152368000Y-101712750I0J-243750D01*
G01*
X152368000Y-102625250D01*
G75*
G02*
X152124250Y-102869000I-243750J0D01*
G01*
X151636750Y-102869000D01*
G75*
G02*
X151393000Y-102625250I0J243750D01*
G01*
G37*
G36*
G01*
X153268000Y-102625250D02*
X153268000Y-101712750D01*
G75*
G02*
X153511750Y-101469000I243750J0D01*
G01*
X153999250Y-101469000D01*
G75*
G02*
X154243000Y-101712750I0J-243750D01*
G01*
X154243000Y-102625250D01*
G75*
G02*
X153999250Y-102869000I-243750J0D01*
G01*
X153511750Y-102869000D01*
G75*
G02*
X153268000Y-102625250I0J243750D01*
G01*
G37*
D13*
X157644000Y-128363000D03*
X157644000Y-132363000D03*
G36*
G01*
X134726000Y-205067000D02*
X133826000Y-205067000D01*
G75*
G02*
X133576000Y-204817000I0J250000D01*
G01*
X133576000Y-204292000D01*
G75*
G02*
X133826000Y-204042000I250000J0D01*
G01*
X134726000Y-204042000D01*
G75*
G02*
X134976000Y-204292000I0J-250000D01*
G01*
X134976000Y-204817000D01*
G75*
G02*
X134726000Y-205067000I-250000J0D01*
G01*
G37*
G36*
G01*
X134726000Y-203242000D02*
X133826000Y-203242000D01*
G75*
G02*
X133576000Y-202992000I0J250000D01*
G01*
X133576000Y-202467000D01*
G75*
G02*
X133826000Y-202217000I250000J0D01*
G01*
X134726000Y-202217000D01*
G75*
G02*
X134976000Y-202467000I0J-250000D01*
G01*
X134976000Y-202992000D01*
G75*
G02*
X134726000Y-203242000I-250000J0D01*
G01*
G37*
G36*
G01*
X146212000Y-111877000D02*
X145108000Y-111877000D01*
G75*
G02*
X144970000Y-111739000I0J138000D01*
G01*
X144970000Y-109915000D01*
G75*
G02*
X145108000Y-109777000I138000J0D01*
G01*
X146212000Y-109777000D01*
G75*
G02*
X146350000Y-109915000I0J-138000D01*
G01*
X146350000Y-111739000D01*
G75*
G02*
X146212000Y-111877000I-138000J0D01*
G01*
G37*
G36*
G01*
X146212000Y-120977000D02*
X145108000Y-120977000D01*
G75*
G02*
X144970000Y-120839000I0J138000D01*
G01*
X144970000Y-119015000D01*
G75*
G02*
X145108000Y-118877000I138000J0D01*
G01*
X146212000Y-118877000D01*
G75*
G02*
X146350000Y-119015000I0J-138000D01*
G01*
X146350000Y-120839000D01*
G75*
G02*
X146212000Y-120977000I-138000J0D01*
G01*
G37*
G36*
G01*
X141732000Y-111877000D02*
X140628000Y-111877000D01*
G75*
G02*
X140490000Y-111739000I0J138000D01*
G01*
X140490000Y-109915000D01*
G75*
G02*
X140628000Y-109777000I138000J0D01*
G01*
X141732000Y-109777000D01*
G75*
G02*
X141870000Y-109915000I0J-138000D01*
G01*
X141870000Y-111739000D01*
G75*
G02*
X141732000Y-111877000I-138000J0D01*
G01*
G37*
G36*
G01*
X141732000Y-120977000D02*
X140628000Y-120977000D01*
G75*
G02*
X140490000Y-120839000I0J138000D01*
G01*
X140490000Y-119015000D01*
G75*
G02*
X140628000Y-118877000I138000J0D01*
G01*
X141732000Y-118877000D01*
G75*
G02*
X141870000Y-119015000I0J-138000D01*
G01*
X141870000Y-120839000D01*
G75*
G02*
X141732000Y-120977000I-138000J0D01*
G01*
G37*
G36*
G01*
X139303000Y-211864000D02*
X139303000Y-210914000D01*
G75*
G02*
X139553000Y-210664000I250000J0D01*
G01*
X140053000Y-210664000D01*
G75*
G02*
X140303000Y-210914000I0J-250000D01*
G01*
X140303000Y-211864000D01*
G75*
G02*
X140053000Y-212114000I-250000J0D01*
G01*
X139553000Y-212114000D01*
G75*
G02*
X139303000Y-211864000I0J250000D01*
G01*
G37*
G36*
G01*
X141203000Y-211864000D02*
X141203000Y-210914000D01*
G75*
G02*
X141453000Y-210664000I250000J0D01*
G01*
X141953000Y-210664000D01*
G75*
G02*
X142203000Y-210914000I0J-250000D01*
G01*
X142203000Y-211864000D01*
G75*
G02*
X141953000Y-212114000I-250000J0D01*
G01*
X141453000Y-212114000D01*
G75*
G02*
X141203000Y-211864000I0J250000D01*
G01*
G37*
D10*
X120077400Y-125790000D03*
X120077400Y-122490000D03*
X126376600Y-122490000D03*
X126376600Y-125790000D03*
G36*
G01*
X128095000Y-177485000D02*
X126995000Y-177485000D01*
G75*
G02*
X126745000Y-177235000I0J250000D01*
G01*
X126745000Y-174235000D01*
G75*
G02*
X126995000Y-173985000I250000J0D01*
G01*
X128095000Y-173985000D01*
G75*
G02*
X128345000Y-174235000I0J-250000D01*
G01*
X128345000Y-177235000D01*
G75*
G02*
X128095000Y-177485000I-250000J0D01*
G01*
G37*
G36*
G01*
X128095000Y-172085000D02*
X126995000Y-172085000D01*
G75*
G02*
X126745000Y-171835000I0J250000D01*
G01*
X126745000Y-168835000D01*
G75*
G02*
X126995000Y-168585000I250000J0D01*
G01*
X128095000Y-168585000D01*
G75*
G02*
X128345000Y-168835000I0J-250000D01*
G01*
X128345000Y-171835000D01*
G75*
G02*
X128095000Y-172085000I-250000J0D01*
G01*
G37*
X123252400Y-85150000D03*
X123252400Y-81850000D03*
X120077400Y-166430000D03*
X120077400Y-163130000D03*
D11*
X144869000Y-96581000D03*
X144869000Y-95311000D03*
X144869000Y-94041000D03*
X144869000Y-92771000D03*
X138669000Y-92771000D03*
X138669000Y-94041000D03*
X138669000Y-95311000D03*
X138669000Y-96581000D03*
D10*
X116877000Y-163130000D03*
X116877000Y-166430000D03*
G36*
G01*
X133547000Y-220734000D02*
X134497000Y-220734000D01*
G75*
G02*
X134747000Y-220984000I0J-250000D01*
G01*
X134747000Y-221484000D01*
G75*
G02*
X134497000Y-221734000I-250000J0D01*
G01*
X133547000Y-221734000D01*
G75*
G02*
X133297000Y-221484000I0J250000D01*
G01*
X133297000Y-220984000D01*
G75*
G02*
X133547000Y-220734000I250000J0D01*
G01*
G37*
G36*
G01*
X133547000Y-222634000D02*
X134497000Y-222634000D01*
G75*
G02*
X134747000Y-222884000I0J-250000D01*
G01*
X134747000Y-223384000D01*
G75*
G02*
X134497000Y-223634000I-250000J0D01*
G01*
X133547000Y-223634000D01*
G75*
G02*
X133297000Y-223384000I0J250000D01*
G01*
X133297000Y-222884000D01*
G75*
G02*
X133547000Y-222634000I250000J0D01*
G01*
G37*
G36*
G01*
X143646000Y-224545250D02*
X143646000Y-223632750D01*
G75*
G02*
X143889750Y-223389000I243750J0D01*
G01*
X144377250Y-223389000D01*
G75*
G02*
X144621000Y-223632750I0J-243750D01*
G01*
X144621000Y-224545250D01*
G75*
G02*
X144377250Y-224789000I-243750J0D01*
G01*
X143889750Y-224789000D01*
G75*
G02*
X143646000Y-224545250I0J243750D01*
G01*
G37*
G36*
G01*
X145521000Y-224545250D02*
X145521000Y-223632750D01*
G75*
G02*
X145764750Y-223389000I243750J0D01*
G01*
X146252250Y-223389000D01*
G75*
G02*
X146496000Y-223632750I0J-243750D01*
G01*
X146496000Y-224545250D01*
G75*
G02*
X146252250Y-224789000I-243750J0D01*
G01*
X145764750Y-224789000D01*
G75*
G02*
X145521000Y-224545250I0J243750D01*
G01*
G37*
G36*
G01*
X143646000Y-102625250D02*
X143646000Y-101712750D01*
G75*
G02*
X143889750Y-101469000I243750J0D01*
G01*
X144377250Y-101469000D01*
G75*
G02*
X144621000Y-101712750I0J-243750D01*
G01*
X144621000Y-102625250D01*
G75*
G02*
X144377250Y-102869000I-243750J0D01*
G01*
X143889750Y-102869000D01*
G75*
G02*
X143646000Y-102625250I0J243750D01*
G01*
G37*
G36*
G01*
X145521000Y-102625250D02*
X145521000Y-101712750D01*
G75*
G02*
X145764750Y-101469000I243750J0D01*
G01*
X146252250Y-101469000D01*
G75*
G02*
X146496000Y-101712750I0J-243750D01*
G01*
X146496000Y-102625250D01*
G75*
G02*
X146252250Y-102869000I-243750J0D01*
G01*
X145764750Y-102869000D01*
G75*
G02*
X145521000Y-102625250I0J243750D01*
G01*
G37*
G36*
G01*
X146751500Y-88949250D02*
X146751500Y-89899250D01*
G75*
G02*
X146501500Y-90149250I-250000J0D01*
G01*
X146001500Y-90149250D01*
G75*
G02*
X145751500Y-89899250I0J250000D01*
G01*
X145751500Y-88949250D01*
G75*
G02*
X146001500Y-88699250I250000J0D01*
G01*
X146501500Y-88699250D01*
G75*
G02*
X146751500Y-88949250I0J-250000D01*
G01*
G37*
G36*
G01*
X144851500Y-88949250D02*
X144851500Y-89899250D01*
G75*
G02*
X144601500Y-90149250I-250000J0D01*
G01*
X144101500Y-90149250D01*
G75*
G02*
X143851500Y-89899250I0J250000D01*
G01*
X143851500Y-88949250D01*
G75*
G02*
X144101500Y-88699250I250000J0D01*
G01*
X144601500Y-88699250D01*
G75*
G02*
X144851500Y-88949250I0J-250000D01*
G01*
G37*
D11*
X144869000Y-218501000D03*
X144869000Y-217231000D03*
X144869000Y-215961000D03*
X144869000Y-214691000D03*
X138669000Y-214691000D03*
X138669000Y-215961000D03*
X138669000Y-217231000D03*
X138669000Y-218501000D03*
G36*
G01*
X128095000Y-218125000D02*
X126995000Y-218125000D01*
G75*
G02*
X126745000Y-217875000I0J250000D01*
G01*
X126745000Y-214875000D01*
G75*
G02*
X126995000Y-214625000I250000J0D01*
G01*
X128095000Y-214625000D01*
G75*
G02*
X128345000Y-214875000I0J-250000D01*
G01*
X128345000Y-217875000D01*
G75*
G02*
X128095000Y-218125000I-250000J0D01*
G01*
G37*
G36*
G01*
X128095000Y-212725000D02*
X126995000Y-212725000D01*
G75*
G02*
X126745000Y-212475000I0J250000D01*
G01*
X126745000Y-209475000D01*
G75*
G02*
X126995000Y-209225000I250000J0D01*
G01*
X128095000Y-209225000D01*
G75*
G02*
X128345000Y-209475000I0J-250000D01*
G01*
X128345000Y-212475000D01*
G75*
G02*
X128095000Y-212725000I-250000J0D01*
G01*
G37*
G36*
G01*
X143646000Y-61985250D02*
X143646000Y-61072750D01*
G75*
G02*
X143889750Y-60829000I243750J0D01*
G01*
X144377250Y-60829000D01*
G75*
G02*
X144621000Y-61072750I0J-243750D01*
G01*
X144621000Y-61985250D01*
G75*
G02*
X144377250Y-62229000I-243750J0D01*
G01*
X143889750Y-62229000D01*
G75*
G02*
X143646000Y-61985250I0J243750D01*
G01*
G37*
G36*
G01*
X145521000Y-61985250D02*
X145521000Y-61072750D01*
G75*
G02*
X145764750Y-60829000I243750J0D01*
G01*
X146252250Y-60829000D01*
G75*
G02*
X146496000Y-61072750I0J-243750D01*
G01*
X146496000Y-61985250D01*
G75*
G02*
X146252250Y-62229000I-243750J0D01*
G01*
X145764750Y-62229000D01*
G75*
G02*
X145521000Y-61985250I0J243750D01*
G01*
G37*
G36*
G01*
X146212000Y-152517000D02*
X145108000Y-152517000D01*
G75*
G02*
X144970000Y-152379000I0J138000D01*
G01*
X144970000Y-150555000D01*
G75*
G02*
X145108000Y-150417000I138000J0D01*
G01*
X146212000Y-150417000D01*
G75*
G02*
X146350000Y-150555000I0J-138000D01*
G01*
X146350000Y-152379000D01*
G75*
G02*
X146212000Y-152517000I-138000J0D01*
G01*
G37*
G36*
G01*
X146212000Y-161617000D02*
X145108000Y-161617000D01*
G75*
G02*
X144970000Y-161479000I0J138000D01*
G01*
X144970000Y-159655000D01*
G75*
G02*
X145108000Y-159517000I138000J0D01*
G01*
X146212000Y-159517000D01*
G75*
G02*
X146350000Y-159655000I0J-138000D01*
G01*
X146350000Y-161479000D01*
G75*
G02*
X146212000Y-161617000I-138000J0D01*
G01*
G37*
G36*
G01*
X141732000Y-152517000D02*
X140628000Y-152517000D01*
G75*
G02*
X140490000Y-152379000I0J138000D01*
G01*
X140490000Y-150555000D01*
G75*
G02*
X140628000Y-150417000I138000J0D01*
G01*
X141732000Y-150417000D01*
G75*
G02*
X141870000Y-150555000I0J-138000D01*
G01*
X141870000Y-152379000D01*
G75*
G02*
X141732000Y-152517000I-138000J0D01*
G01*
G37*
G36*
G01*
X141732000Y-161617000D02*
X140628000Y-161617000D01*
G75*
G02*
X140490000Y-161479000I0J138000D01*
G01*
X140490000Y-159655000D01*
G75*
G02*
X140628000Y-159517000I138000J0D01*
G01*
X141732000Y-159517000D01*
G75*
G02*
X141870000Y-159655000I0J-138000D01*
G01*
X141870000Y-161479000D01*
G75*
G02*
X141732000Y-161617000I-138000J0D01*
G01*
G37*
D12*
X151040000Y-53591500D03*
X153580000Y-53591500D03*
X153580000Y-44574500D03*
X151040000Y-44574500D03*
G36*
G01*
X133547000Y-98814000D02*
X134497000Y-98814000D01*
G75*
G02*
X134747000Y-99064000I0J-250000D01*
G01*
X134747000Y-99564000D01*
G75*
G02*
X134497000Y-99814000I-250000J0D01*
G01*
X133547000Y-99814000D01*
G75*
G02*
X133297000Y-99564000I0J250000D01*
G01*
X133297000Y-99064000D01*
G75*
G02*
X133547000Y-98814000I250000J0D01*
G01*
G37*
G36*
G01*
X133547000Y-100714000D02*
X134497000Y-100714000D01*
G75*
G02*
X134747000Y-100964000I0J-250000D01*
G01*
X134747000Y-101464000D01*
G75*
G02*
X134497000Y-101714000I-250000J0D01*
G01*
X133547000Y-101714000D01*
G75*
G02*
X133297000Y-101464000I0J250000D01*
G01*
X133297000Y-100964000D01*
G75*
G02*
X133547000Y-100714000I250000J0D01*
G01*
G37*
G36*
G01*
X157129000Y-121668000D02*
X157129000Y-123818000D01*
G75*
G02*
X156879000Y-124068000I-250000J0D01*
G01*
X156254000Y-124068000D01*
G75*
G02*
X156004000Y-123818000I0J250000D01*
G01*
X156004000Y-121668000D01*
G75*
G02*
X156254000Y-121418000I250000J0D01*
G01*
X156879000Y-121418000D01*
G75*
G02*
X157129000Y-121668000I0J-250000D01*
G01*
G37*
G36*
G01*
X154204000Y-121668000D02*
X154204000Y-123818000D01*
G75*
G02*
X153954000Y-124068000I-250000J0D01*
G01*
X153329000Y-124068000D01*
G75*
G02*
X153079000Y-123818000I0J250000D01*
G01*
X153079000Y-121668000D01*
G75*
G02*
X153329000Y-121418000I250000J0D01*
G01*
X153954000Y-121418000D01*
G75*
G02*
X154204000Y-121668000I0J-250000D01*
G01*
G37*
G36*
G01*
X151393000Y-221999000D02*
X151393000Y-221099000D01*
G75*
G02*
X151643000Y-220849000I250000J0D01*
G01*
X152168000Y-220849000D01*
G75*
G02*
X152418000Y-221099000I0J-250000D01*
G01*
X152418000Y-221999000D01*
G75*
G02*
X152168000Y-222249000I-250000J0D01*
G01*
X151643000Y-222249000D01*
G75*
G02*
X151393000Y-221999000I0J250000D01*
G01*
G37*
G36*
G01*
X153218000Y-221999000D02*
X153218000Y-221099000D01*
G75*
G02*
X153468000Y-220849000I250000J0D01*
G01*
X153993000Y-220849000D01*
G75*
G02*
X154243000Y-221099000I0J-250000D01*
G01*
X154243000Y-221999000D01*
G75*
G02*
X153993000Y-222249000I-250000J0D01*
G01*
X153468000Y-222249000D01*
G75*
G02*
X153218000Y-221999000I0J250000D01*
G01*
G37*
G36*
G01*
X146212000Y-193157000D02*
X145108000Y-193157000D01*
G75*
G02*
X144970000Y-193019000I0J138000D01*
G01*
X144970000Y-191195000D01*
G75*
G02*
X145108000Y-191057000I138000J0D01*
G01*
X146212000Y-191057000D01*
G75*
G02*
X146350000Y-191195000I0J-138000D01*
G01*
X146350000Y-193019000D01*
G75*
G02*
X146212000Y-193157000I-138000J0D01*
G01*
G37*
G36*
G01*
X146212000Y-202257000D02*
X145108000Y-202257000D01*
G75*
G02*
X144970000Y-202119000I0J138000D01*
G01*
X144970000Y-200295000D01*
G75*
G02*
X145108000Y-200157000I138000J0D01*
G01*
X146212000Y-200157000D01*
G75*
G02*
X146350000Y-200295000I0J-138000D01*
G01*
X146350000Y-202119000D01*
G75*
G02*
X146212000Y-202257000I-138000J0D01*
G01*
G37*
G36*
G01*
X141732000Y-193157000D02*
X140628000Y-193157000D01*
G75*
G02*
X140490000Y-193019000I0J138000D01*
G01*
X140490000Y-191195000D01*
G75*
G02*
X140628000Y-191057000I138000J0D01*
G01*
X141732000Y-191057000D01*
G75*
G02*
X141870000Y-191195000I0J-138000D01*
G01*
X141870000Y-193019000D01*
G75*
G02*
X141732000Y-193157000I-138000J0D01*
G01*
G37*
G36*
G01*
X141732000Y-202257000D02*
X140628000Y-202257000D01*
G75*
G02*
X140490000Y-202119000I0J138000D01*
G01*
X140490000Y-200295000D01*
G75*
G02*
X140628000Y-200157000I138000J0D01*
G01*
X141732000Y-200157000D01*
G75*
G02*
X141870000Y-200295000I0J-138000D01*
G01*
X141870000Y-202119000D01*
G75*
G02*
X141732000Y-202257000I-138000J0D01*
G01*
G37*
G36*
G01*
X142801500Y-45885000D02*
X142801500Y-46185000D01*
G75*
G02*
X142651500Y-46335000I-150000J0D01*
G01*
X141626500Y-46335000D01*
G75*
G02*
X141476500Y-46185000I0J150000D01*
G01*
X141476500Y-45885000D01*
G75*
G02*
X141626500Y-45735000I150000J0D01*
G01*
X142651500Y-45735000D01*
G75*
G02*
X142801500Y-45885000I0J-150000D01*
G01*
G37*
G36*
G01*
X142801500Y-44935000D02*
X142801500Y-45235000D01*
G75*
G02*
X142651500Y-45385000I-150000J0D01*
G01*
X141626500Y-45385000D01*
G75*
G02*
X141476500Y-45235000I0J150000D01*
G01*
X141476500Y-44935000D01*
G75*
G02*
X141626500Y-44785000I150000J0D01*
G01*
X142651500Y-44785000D01*
G75*
G02*
X142801500Y-44935000I0J-150000D01*
G01*
G37*
G36*
G01*
X142801500Y-43985000D02*
X142801500Y-44285000D01*
G75*
G02*
X142651500Y-44435000I-150000J0D01*
G01*
X141626500Y-44435000D01*
G75*
G02*
X141476500Y-44285000I0J150000D01*
G01*
X141476500Y-43985000D01*
G75*
G02*
X141626500Y-43835000I150000J0D01*
G01*
X142651500Y-43835000D01*
G75*
G02*
X142801500Y-43985000I0J-150000D01*
G01*
G37*
G36*
G01*
X140526500Y-43985000D02*
X140526500Y-44285000D01*
G75*
G02*
X140376500Y-44435000I-150000J0D01*
G01*
X139351500Y-44435000D01*
G75*
G02*
X139201500Y-44285000I0J150000D01*
G01*
X139201500Y-43985000D01*
G75*
G02*
X139351500Y-43835000I150000J0D01*
G01*
X140376500Y-43835000D01*
G75*
G02*
X140526500Y-43985000I0J-150000D01*
G01*
G37*
G36*
G01*
X140526500Y-45885000D02*
X140526500Y-46185000D01*
G75*
G02*
X140376500Y-46335000I-150000J0D01*
G01*
X139351500Y-46335000D01*
G75*
G02*
X139201500Y-46185000I0J150000D01*
G01*
X139201500Y-45885000D01*
G75*
G02*
X139351500Y-45735000I150000J0D01*
G01*
X140376500Y-45735000D01*
G75*
G02*
X140526500Y-45885000I0J-150000D01*
G01*
G37*
G36*
G01*
X131483250Y-39407000D02*
X131783250Y-39407000D01*
G75*
G02*
X131933250Y-39557000I0J-150000D01*
G01*
X131933250Y-40732000D01*
G75*
G02*
X131783250Y-40882000I-150000J0D01*
G01*
X131483250Y-40882000D01*
G75*
G02*
X131333250Y-40732000I0J150000D01*
G01*
X131333250Y-39557000D01*
G75*
G02*
X131483250Y-39407000I150000J0D01*
G01*
G37*
G36*
G01*
X129583250Y-39407000D02*
X129883250Y-39407000D01*
G75*
G02*
X130033250Y-39557000I0J-150000D01*
G01*
X130033250Y-40732000D01*
G75*
G02*
X129883250Y-40882000I-150000J0D01*
G01*
X129583250Y-40882000D01*
G75*
G02*
X129433250Y-40732000I0J150000D01*
G01*
X129433250Y-39557000D01*
G75*
G02*
X129583250Y-39407000I150000J0D01*
G01*
G37*
G36*
G01*
X130533250Y-41282000D02*
X130833250Y-41282000D01*
G75*
G02*
X130983250Y-41432000I0J-150000D01*
G01*
X130983250Y-42607000D01*
G75*
G02*
X130833250Y-42757000I-150000J0D01*
G01*
X130533250Y-42757000D01*
G75*
G02*
X130383250Y-42607000I0J150000D01*
G01*
X130383250Y-41432000D01*
G75*
G02*
X130533250Y-41282000I150000J0D01*
G01*
G37*
G36*
G01*
X151393000Y-143265250D02*
X151393000Y-142352750D01*
G75*
G02*
X151636750Y-142109000I243750J0D01*
G01*
X152124250Y-142109000D01*
G75*
G02*
X152368000Y-142352750I0J-243750D01*
G01*
X152368000Y-143265250D01*
G75*
G02*
X152124250Y-143509000I-243750J0D01*
G01*
X151636750Y-143509000D01*
G75*
G02*
X151393000Y-143265250I0J243750D01*
G01*
G37*
G36*
G01*
X153268000Y-143265250D02*
X153268000Y-142352750D01*
G75*
G02*
X153511750Y-142109000I243750J0D01*
G01*
X153999250Y-142109000D01*
G75*
G02*
X154243000Y-142352750I0J-243750D01*
G01*
X154243000Y-143265250D01*
G75*
G02*
X153999250Y-143509000I-243750J0D01*
G01*
X153511750Y-143509000D01*
G75*
G02*
X153268000Y-143265250I0J243750D01*
G01*
G37*
G36*
G01*
X143646000Y-181359000D02*
X143646000Y-180459000D01*
G75*
G02*
X143896000Y-180209000I250000J0D01*
G01*
X144421000Y-180209000D01*
G75*
G02*
X144671000Y-180459000I0J-250000D01*
G01*
X144671000Y-181359000D01*
G75*
G02*
X144421000Y-181609000I-250000J0D01*
G01*
X143896000Y-181609000D01*
G75*
G02*
X143646000Y-181359000I0J250000D01*
G01*
G37*
G36*
G01*
X145471000Y-181359000D02*
X145471000Y-180459000D01*
G75*
G02*
X145721000Y-180209000I250000J0D01*
G01*
X146246000Y-180209000D01*
G75*
G02*
X146496000Y-180459000I0J-250000D01*
G01*
X146496000Y-181359000D01*
G75*
G02*
X146246000Y-181609000I-250000J0D01*
G01*
X145721000Y-181609000D01*
G75*
G02*
X145471000Y-181359000I0J250000D01*
G01*
G37*
G36*
G01*
X139303000Y-130584000D02*
X139303000Y-129634000D01*
G75*
G02*
X139553000Y-129384000I250000J0D01*
G01*
X140053000Y-129384000D01*
G75*
G02*
X140303000Y-129634000I0J-250000D01*
G01*
X140303000Y-130584000D01*
G75*
G02*
X140053000Y-130834000I-250000J0D01*
G01*
X139553000Y-130834000D01*
G75*
G02*
X139303000Y-130584000I0J250000D01*
G01*
G37*
G36*
G01*
X141203000Y-130584000D02*
X141203000Y-129634000D01*
G75*
G02*
X141453000Y-129384000I250000J0D01*
G01*
X141953000Y-129384000D01*
G75*
G02*
X142203000Y-129634000I0J-250000D01*
G01*
X142203000Y-130584000D01*
G75*
G02*
X141953000Y-130834000I-250000J0D01*
G01*
X141453000Y-130834000D01*
G75*
G02*
X141203000Y-130584000I0J250000D01*
G01*
G37*
G36*
G01*
X133547000Y-139454000D02*
X134497000Y-139454000D01*
G75*
G02*
X134747000Y-139704000I0J-250000D01*
G01*
X134747000Y-140204000D01*
G75*
G02*
X134497000Y-140454000I-250000J0D01*
G01*
X133547000Y-140454000D01*
G75*
G02*
X133297000Y-140204000I0J250000D01*
G01*
X133297000Y-139704000D01*
G75*
G02*
X133547000Y-139454000I250000J0D01*
G01*
G37*
G36*
G01*
X133547000Y-141354000D02*
X134497000Y-141354000D01*
G75*
G02*
X134747000Y-141604000I0J-250000D01*
G01*
X134747000Y-142104000D01*
G75*
G02*
X134497000Y-142354000I-250000J0D01*
G01*
X133547000Y-142354000D01*
G75*
G02*
X133297000Y-142104000I0J250000D01*
G01*
X133297000Y-141604000D01*
G75*
G02*
X133547000Y-141354000I250000J0D01*
G01*
G37*
D13*
X157644000Y-169003000D03*
X157644000Y-173003000D03*
G36*
G01*
X146751500Y-48309250D02*
X146751500Y-49259250D01*
G75*
G02*
X146501500Y-49509250I-250000J0D01*
G01*
X146001500Y-49509250D01*
G75*
G02*
X145751500Y-49259250I0J250000D01*
G01*
X145751500Y-48309250D01*
G75*
G02*
X146001500Y-48059250I250000J0D01*
G01*
X146501500Y-48059250D01*
G75*
G02*
X146751500Y-48309250I0J-250000D01*
G01*
G37*
G36*
G01*
X144851500Y-48309250D02*
X144851500Y-49259250D01*
G75*
G02*
X144601500Y-49509250I-250000J0D01*
G01*
X144101500Y-49509250D01*
G75*
G02*
X143851500Y-49259250I0J250000D01*
G01*
X143851500Y-48309250D01*
G75*
G02*
X144101500Y-48059250I250000J0D01*
G01*
X144601500Y-48059250D01*
G75*
G02*
X144851500Y-48309250I0J-250000D01*
G01*
G37*
G36*
G01*
X152592000Y-137279000D02*
X152592000Y-138179000D01*
G75*
G02*
X152342000Y-138429000I-250000J0D01*
G01*
X151817000Y-138429000D01*
G75*
G02*
X151567000Y-138179000I0J250000D01*
G01*
X151567000Y-137279000D01*
G75*
G02*
X151817000Y-137029000I250000J0D01*
G01*
X152342000Y-137029000D01*
G75*
G02*
X152592000Y-137279000I0J-250000D01*
G01*
G37*
G36*
G01*
X150767000Y-137279000D02*
X150767000Y-138179000D01*
G75*
G02*
X150517000Y-138429000I-250000J0D01*
G01*
X149992000Y-138429000D01*
G75*
G02*
X149742000Y-138179000I0J250000D01*
G01*
X149742000Y-137279000D01*
G75*
G02*
X149992000Y-137029000I250000J0D01*
G01*
X150517000Y-137029000D01*
G75*
G02*
X150767000Y-137279000I0J-250000D01*
G01*
G37*
G36*
G01*
X146775000Y-124300000D02*
X146775000Y-125250000D01*
G75*
G02*
X146525000Y-125500000I-250000J0D01*
G01*
X146025000Y-125500000D01*
G75*
G02*
X145775000Y-125250000I0J250000D01*
G01*
X145775000Y-124300000D01*
G75*
G02*
X146025000Y-124050000I250000J0D01*
G01*
X146525000Y-124050000D01*
G75*
G02*
X146775000Y-124300000I0J-250000D01*
G01*
G37*
G36*
G01*
X144875000Y-124300000D02*
X144875000Y-125250000D01*
G75*
G02*
X144625000Y-125500000I-250000J0D01*
G01*
X144125000Y-125500000D01*
G75*
G02*
X143875000Y-125250000I0J250000D01*
G01*
X143875000Y-124300000D01*
G75*
G02*
X144125000Y-124050000I250000J0D01*
G01*
X144625000Y-124050000D01*
G75*
G02*
X144875000Y-124300000I0J-250000D01*
G01*
G37*
G36*
G01*
X136685250Y-39632000D02*
X137635250Y-39632000D01*
G75*
G02*
X137885250Y-39882000I0J-250000D01*
G01*
X137885250Y-40382000D01*
G75*
G02*
X137635250Y-40632000I-250000J0D01*
G01*
X136685250Y-40632000D01*
G75*
G02*
X136435250Y-40382000I0J250000D01*
G01*
X136435250Y-39882000D01*
G75*
G02*
X136685250Y-39632000I250000J0D01*
G01*
G37*
G36*
G01*
X136685250Y-41532000D02*
X137635250Y-41532000D01*
G75*
G02*
X137885250Y-41782000I0J-250000D01*
G01*
X137885250Y-42282000D01*
G75*
G02*
X137635250Y-42532000I-250000J0D01*
G01*
X136685250Y-42532000D01*
G75*
G02*
X136435250Y-42282000I0J250000D01*
G01*
X136435250Y-41782000D01*
G75*
G02*
X136685250Y-41532000I250000J0D01*
G01*
G37*
G36*
G01*
X128095000Y-136845000D02*
X126995000Y-136845000D01*
G75*
G02*
X126745000Y-136595000I0J250000D01*
G01*
X126745000Y-133595000D01*
G75*
G02*
X126995000Y-133345000I250000J0D01*
G01*
X128095000Y-133345000D01*
G75*
G02*
X128345000Y-133595000I0J-250000D01*
G01*
X128345000Y-136595000D01*
G75*
G02*
X128095000Y-136845000I-250000J0D01*
G01*
G37*
G36*
G01*
X128095000Y-131445000D02*
X126995000Y-131445000D01*
G75*
G02*
X126745000Y-131195000I0J250000D01*
G01*
X126745000Y-128195000D01*
G75*
G02*
X126995000Y-127945000I250000J0D01*
G01*
X128095000Y-127945000D01*
G75*
G02*
X128345000Y-128195000I0J-250000D01*
G01*
X128345000Y-131195000D01*
G75*
G02*
X128095000Y-131445000I-250000J0D01*
G01*
G37*
G36*
G01*
X134726000Y-42507000D02*
X133826000Y-42507000D01*
G75*
G02*
X133576000Y-42257000I0J250000D01*
G01*
X133576000Y-41732000D01*
G75*
G02*
X133826000Y-41482000I250000J0D01*
G01*
X134726000Y-41482000D01*
G75*
G02*
X134976000Y-41732000I0J-250000D01*
G01*
X134976000Y-42257000D01*
G75*
G02*
X134726000Y-42507000I-250000J0D01*
G01*
G37*
G36*
G01*
X134726000Y-40682000D02*
X133826000Y-40682000D01*
G75*
G02*
X133576000Y-40432000I0J250000D01*
G01*
X133576000Y-39907000D01*
G75*
G02*
X133826000Y-39657000I250000J0D01*
G01*
X134726000Y-39657000D01*
G75*
G02*
X134976000Y-39907000I0J-250000D01*
G01*
X134976000Y-40432000D01*
G75*
G02*
X134726000Y-40682000I-250000J0D01*
G01*
G37*
G36*
G01*
X152592000Y-55999000D02*
X152592000Y-56899000D01*
G75*
G02*
X152342000Y-57149000I-250000J0D01*
G01*
X151817000Y-57149000D01*
G75*
G02*
X151567000Y-56899000I0J250000D01*
G01*
X151567000Y-55999000D01*
G75*
G02*
X151817000Y-55749000I250000J0D01*
G01*
X152342000Y-55749000D01*
G75*
G02*
X152592000Y-55999000I0J-250000D01*
G01*
G37*
G36*
G01*
X150767000Y-55999000D02*
X150767000Y-56899000D01*
G75*
G02*
X150517000Y-57149000I-250000J0D01*
G01*
X149992000Y-57149000D01*
G75*
G02*
X149742000Y-56899000I0J250000D01*
G01*
X149742000Y-55999000D01*
G75*
G02*
X149992000Y-55749000I250000J0D01*
G01*
X150517000Y-55749000D01*
G75*
G02*
X150767000Y-55999000I0J-250000D01*
G01*
G37*
G36*
G01*
X136661000Y-61985250D02*
X136661000Y-61072750D01*
G75*
G02*
X136904750Y-60829000I243750J0D01*
G01*
X137392250Y-60829000D01*
G75*
G02*
X137636000Y-61072750I0J-243750D01*
G01*
X137636000Y-61985250D01*
G75*
G02*
X137392250Y-62229000I-243750J0D01*
G01*
X136904750Y-62229000D01*
G75*
G02*
X136661000Y-61985250I0J243750D01*
G01*
G37*
G36*
G01*
X138536000Y-61985250D02*
X138536000Y-61072750D01*
G75*
G02*
X138779750Y-60829000I243750J0D01*
G01*
X139267250Y-60829000D01*
G75*
G02*
X139511000Y-61072750I0J-243750D01*
G01*
X139511000Y-61985250D01*
G75*
G02*
X139267250Y-62229000I-243750J0D01*
G01*
X138779750Y-62229000D01*
G75*
G02*
X138536000Y-61985250I0J243750D01*
G01*
G37*
G36*
G01*
X146726500Y-208227250D02*
X146726500Y-209127250D01*
G75*
G02*
X146476500Y-209377250I-250000J0D01*
G01*
X145951500Y-209377250D01*
G75*
G02*
X145701500Y-209127250I0J250000D01*
G01*
X145701500Y-208227250D01*
G75*
G02*
X145951500Y-207977250I250000J0D01*
G01*
X146476500Y-207977250D01*
G75*
G02*
X146726500Y-208227250I0J-250000D01*
G01*
G37*
G36*
G01*
X144901500Y-208227250D02*
X144901500Y-209127250D01*
G75*
G02*
X144651500Y-209377250I-250000J0D01*
G01*
X144126500Y-209377250D01*
G75*
G02*
X143876500Y-209127250I0J250000D01*
G01*
X143876500Y-208227250D01*
G75*
G02*
X144126500Y-207977250I250000J0D01*
G01*
X144651500Y-207977250D01*
G75*
G02*
X144901500Y-208227250I0J-250000D01*
G01*
G37*
G36*
G01*
X128095000Y-96205000D02*
X126995000Y-96205000D01*
G75*
G02*
X126745000Y-95955000I0J250000D01*
G01*
X126745000Y-92955000D01*
G75*
G02*
X126995000Y-92705000I250000J0D01*
G01*
X128095000Y-92705000D01*
G75*
G02*
X128345000Y-92955000I0J-250000D01*
G01*
X128345000Y-95955000D01*
G75*
G02*
X128095000Y-96205000I-250000J0D01*
G01*
G37*
G36*
G01*
X128095000Y-90805000D02*
X126995000Y-90805000D01*
G75*
G02*
X126745000Y-90555000I0J250000D01*
G01*
X126745000Y-87555000D01*
G75*
G02*
X126995000Y-87305000I250000J0D01*
G01*
X128095000Y-87305000D01*
G75*
G02*
X128345000Y-87555000I0J-250000D01*
G01*
X128345000Y-90555000D01*
G75*
G02*
X128095000Y-90805000I-250000J0D01*
G01*
G37*
G36*
G01*
X146726500Y-126947250D02*
X146726500Y-127847250D01*
G75*
G02*
X146476500Y-128097250I-250000J0D01*
G01*
X145951500Y-128097250D01*
G75*
G02*
X145701500Y-127847250I0J250000D01*
G01*
X145701500Y-126947250D01*
G75*
G02*
X145951500Y-126697250I250000J0D01*
G01*
X146476500Y-126697250D01*
G75*
G02*
X146726500Y-126947250I0J-250000D01*
G01*
G37*
G36*
G01*
X144901500Y-126947250D02*
X144901500Y-127847250D01*
G75*
G02*
X144651500Y-128097250I-250000J0D01*
G01*
X144126500Y-128097250D01*
G75*
G02*
X143876500Y-127847250I0J250000D01*
G01*
X143876500Y-126947250D01*
G75*
G02*
X144126500Y-126697250I250000J0D01*
G01*
X144651500Y-126697250D01*
G75*
G02*
X144901500Y-126947250I0J-250000D01*
G01*
G37*
D10*
X116877000Y-203770000D03*
X116877000Y-207070000D03*
G36*
G01*
X157129000Y-81028000D02*
X157129000Y-83178000D01*
G75*
G02*
X156879000Y-83428000I-250000J0D01*
G01*
X156254000Y-83428000D01*
G75*
G02*
X156004000Y-83178000I0J250000D01*
G01*
X156004000Y-81028000D01*
G75*
G02*
X156254000Y-80778000I250000J0D01*
G01*
X156879000Y-80778000D01*
G75*
G02*
X157129000Y-81028000I0J-250000D01*
G01*
G37*
G36*
G01*
X154204000Y-81028000D02*
X154204000Y-83178000D01*
G75*
G02*
X153954000Y-83428000I-250000J0D01*
G01*
X153329000Y-83428000D01*
G75*
G02*
X153079000Y-83178000I0J250000D01*
G01*
X153079000Y-81028000D01*
G75*
G02*
X153329000Y-80778000I250000J0D01*
G01*
X153954000Y-80778000D01*
G75*
G02*
X154204000Y-81028000I0J-250000D01*
G01*
G37*
G36*
G01*
X139511000Y-139819000D02*
X139511000Y-140719000D01*
G75*
G02*
X139261000Y-140969000I-250000J0D01*
G01*
X138736000Y-140969000D01*
G75*
G02*
X138486000Y-140719000I0J250000D01*
G01*
X138486000Y-139819000D01*
G75*
G02*
X138736000Y-139569000I250000J0D01*
G01*
X139261000Y-139569000D01*
G75*
G02*
X139511000Y-139819000I0J-250000D01*
G01*
G37*
G36*
G01*
X137686000Y-139819000D02*
X137686000Y-140719000D01*
G75*
G02*
X137436000Y-140969000I-250000J0D01*
G01*
X136911000Y-140969000D01*
G75*
G02*
X136661000Y-140719000I0J250000D01*
G01*
X136661000Y-139819000D01*
G75*
G02*
X136911000Y-139569000I250000J0D01*
G01*
X137436000Y-139569000D01*
G75*
G02*
X137686000Y-139819000I0J-250000D01*
G01*
G37*
G36*
G01*
X146775000Y-43020000D02*
X146775000Y-43970000D01*
G75*
G02*
X146525000Y-44220000I-250000J0D01*
G01*
X146025000Y-44220000D01*
G75*
G02*
X145775000Y-43970000I0J250000D01*
G01*
X145775000Y-43020000D01*
G75*
G02*
X146025000Y-42770000I250000J0D01*
G01*
X146525000Y-42770000D01*
G75*
G02*
X146775000Y-43020000I0J-250000D01*
G01*
G37*
G36*
G01*
X144875000Y-43020000D02*
X144875000Y-43970000D01*
G75*
G02*
X144625000Y-44220000I-250000J0D01*
G01*
X144125000Y-44220000D01*
G75*
G02*
X143875000Y-43970000I0J250000D01*
G01*
X143875000Y-43020000D01*
G75*
G02*
X144125000Y-42770000I250000J0D01*
G01*
X144625000Y-42770000D01*
G75*
G02*
X144875000Y-43020000I0J-250000D01*
G01*
G37*
D12*
X151040000Y-175511500D03*
X153580000Y-175511500D03*
X153580000Y-166494500D03*
X151040000Y-166494500D03*
G36*
G01*
X131483250Y-161327000D02*
X131783250Y-161327000D01*
G75*
G02*
X131933250Y-161477000I0J-150000D01*
G01*
X131933250Y-162652000D01*
G75*
G02*
X131783250Y-162802000I-150000J0D01*
G01*
X131483250Y-162802000D01*
G75*
G02*
X131333250Y-162652000I0J150000D01*
G01*
X131333250Y-161477000D01*
G75*
G02*
X131483250Y-161327000I150000J0D01*
G01*
G37*
G36*
G01*
X129583250Y-161327000D02*
X129883250Y-161327000D01*
G75*
G02*
X130033250Y-161477000I0J-150000D01*
G01*
X130033250Y-162652000D01*
G75*
G02*
X129883250Y-162802000I-150000J0D01*
G01*
X129583250Y-162802000D01*
G75*
G02*
X129433250Y-162652000I0J150000D01*
G01*
X129433250Y-161477000D01*
G75*
G02*
X129583250Y-161327000I150000J0D01*
G01*
G37*
G36*
G01*
X130533250Y-163202000D02*
X130833250Y-163202000D01*
G75*
G02*
X130983250Y-163352000I0J-150000D01*
G01*
X130983250Y-164527000D01*
G75*
G02*
X130833250Y-164677000I-150000J0D01*
G01*
X130533250Y-164677000D01*
G75*
G02*
X130383250Y-164527000I0J150000D01*
G01*
X130383250Y-163352000D01*
G75*
G02*
X130533250Y-163202000I150000J0D01*
G01*
G37*
M02*
