G04 #@! TF.GenerationSoftware,KiCad,Pcbnew,6.0.2+dfsg-1*
G04 #@! TF.CreationDate,2024-05-29T15:43:08-06:00*
G04 #@! TF.ProjectId,mss-crossover-array,6d73732d-6372-46f7-9373-6f7665722d61,rev?*
G04 #@! TF.SameCoordinates,Original*
G04 #@! TF.FileFunction,Soldermask,Top*
G04 #@! TF.FilePolarity,Negative*
%FSLAX46Y46*%
G04 Gerber Fmt 4.6, Leading zero omitted, Abs format (unit mm)*
G04 Created by KiCad (PCBNEW 6.0.2+dfsg-1) date 2024-05-29 15:43:08*
%MOMM*%
%LPD*%
G01*
G04 APERTURE LIST*
%ADD10C,0.500000*%
%ADD11C,3.352400*%
%ADD12C,1.652400*%
%ADD13C,6.552400*%
%ADD14C,1.143000*%
%ADD15C,0.939800*%
%ADD16C,2.652400*%
%ADD17C,1.728000*%
%ADD18C,2.000000*%
G04 APERTURE END LIST*
G36*
G01*
X115927000Y-81073800D02*
X117827000Y-81073800D01*
G75*
G02*
X117903200Y-81150000I0J-76200D01*
G01*
X117903200Y-82550000D01*
G75*
G02*
X117827000Y-82626200I-76200J0D01*
G01*
X115927000Y-82626200D01*
G75*
G02*
X115850800Y-82550000I0J76200D01*
G01*
X115850800Y-81150000D01*
G75*
G02*
X115927000Y-81073800I76200J0D01*
G01*
G37*
G36*
G01*
X115927000Y-84373800D02*
X117827000Y-84373800D01*
G75*
G02*
X117903200Y-84450000I0J-76200D01*
G01*
X117903200Y-85850000D01*
G75*
G02*
X117827000Y-85926200I-76200J0D01*
G01*
X115927000Y-85926200D01*
G75*
G02*
X115850800Y-85850000I0J76200D01*
G01*
X115850800Y-84450000D01*
G75*
G02*
X115927000Y-84373800I76200J0D01*
G01*
G37*
G36*
G01*
X146802700Y-86307250D02*
X146802700Y-87207250D01*
G75*
G02*
X146476500Y-87533450I-326200J0D01*
G01*
X145951500Y-87533450D01*
G75*
G02*
X145625300Y-87207250I0J326200D01*
G01*
X145625300Y-86307250D01*
G75*
G02*
X145951500Y-85981050I326200J0D01*
G01*
X146476500Y-85981050D01*
G75*
G02*
X146802700Y-86307250I0J-326200D01*
G01*
G37*
G36*
G01*
X144977700Y-86307250D02*
X144977700Y-87207250D01*
G75*
G02*
X144651500Y-87533450I-326200J0D01*
G01*
X144126500Y-87533450D01*
G75*
G02*
X143800300Y-87207250I0J326200D01*
G01*
X143800300Y-86307250D01*
G75*
G02*
X144126500Y-85981050I326200J0D01*
G01*
X144651500Y-85981050D01*
G75*
G02*
X144977700Y-86307250I0J-326200D01*
G01*
G37*
D10*
X149770000Y-147000000D03*
G36*
G01*
X131483250Y-79970800D02*
X131783250Y-79970800D01*
G75*
G02*
X132009450Y-80197000I0J-226200D01*
G01*
X132009450Y-81372000D01*
G75*
G02*
X131783250Y-81598200I-226200J0D01*
G01*
X131483250Y-81598200D01*
G75*
G02*
X131257050Y-81372000I0J226200D01*
G01*
X131257050Y-80197000D01*
G75*
G02*
X131483250Y-79970800I226200J0D01*
G01*
G37*
G36*
G01*
X129583250Y-79970800D02*
X129883250Y-79970800D01*
G75*
G02*
X130109450Y-80197000I0J-226200D01*
G01*
X130109450Y-81372000D01*
G75*
G02*
X129883250Y-81598200I-226200J0D01*
G01*
X129583250Y-81598200D01*
G75*
G02*
X129357050Y-81372000I0J226200D01*
G01*
X129357050Y-80197000D01*
G75*
G02*
X129583250Y-79970800I226200J0D01*
G01*
G37*
G36*
G01*
X130533250Y-81845800D02*
X130833250Y-81845800D01*
G75*
G02*
X131059450Y-82072000I0J-226200D01*
G01*
X131059450Y-83247000D01*
G75*
G02*
X130833250Y-83473200I-226200J0D01*
G01*
X130533250Y-83473200D01*
G75*
G02*
X130307050Y-83247000I0J226200D01*
G01*
X130307050Y-82072000D01*
G75*
G02*
X130533250Y-81845800I226200J0D01*
G01*
G37*
G36*
G01*
X146212000Y-71339000D02*
X145108000Y-71339000D01*
G75*
G02*
X144868000Y-71099000I0J240000D01*
G01*
X144868000Y-69275000D01*
G75*
G02*
X145108000Y-69035000I240000J0D01*
G01*
X146212000Y-69035000D01*
G75*
G02*
X146452000Y-69275000I0J-240000D01*
G01*
X146452000Y-71099000D01*
G75*
G02*
X146212000Y-71339000I-240000J0D01*
G01*
G37*
G36*
G01*
X146212000Y-80439000D02*
X145108000Y-80439000D01*
G75*
G02*
X144868000Y-80199000I0J240000D01*
G01*
X144868000Y-78375000D01*
G75*
G02*
X145108000Y-78135000I240000J0D01*
G01*
X146212000Y-78135000D01*
G75*
G02*
X146452000Y-78375000I0J-240000D01*
G01*
X146452000Y-80199000D01*
G75*
G02*
X146212000Y-80439000I-240000J0D01*
G01*
G37*
G36*
G01*
X141732000Y-71339000D02*
X140628000Y-71339000D01*
G75*
G02*
X140388000Y-71099000I0J240000D01*
G01*
X140388000Y-69275000D01*
G75*
G02*
X140628000Y-69035000I240000J0D01*
G01*
X141732000Y-69035000D01*
G75*
G02*
X141972000Y-69275000I0J-240000D01*
G01*
X141972000Y-71099000D01*
G75*
G02*
X141732000Y-71339000I-240000J0D01*
G01*
G37*
G36*
G01*
X141732000Y-80439000D02*
X140628000Y-80439000D01*
G75*
G02*
X140388000Y-80199000I0J240000D01*
G01*
X140388000Y-78375000D01*
G75*
G02*
X140628000Y-78135000I240000J0D01*
G01*
X141732000Y-78135000D01*
G75*
G02*
X141972000Y-78375000I0J-240000D01*
G01*
X141972000Y-80199000D01*
G75*
G02*
X141732000Y-80439000I-240000J0D01*
G01*
G37*
X185330000Y-167320000D03*
X185330000Y-207960000D03*
G36*
G01*
X146802700Y-167587250D02*
X146802700Y-168487250D01*
G75*
G02*
X146476500Y-168813450I-326200J0D01*
G01*
X145951500Y-168813450D01*
G75*
G02*
X145625300Y-168487250I0J326200D01*
G01*
X145625300Y-167587250D01*
G75*
G02*
X145951500Y-167261050I326200J0D01*
G01*
X146476500Y-167261050D01*
G75*
G02*
X146802700Y-167587250I0J-326200D01*
G01*
G37*
G36*
G01*
X144977700Y-167587250D02*
X144977700Y-168487250D01*
G75*
G02*
X144651500Y-168813450I-326200J0D01*
G01*
X144126500Y-168813450D01*
G75*
G02*
X143800300Y-168487250I0J326200D01*
G01*
X143800300Y-167587250D01*
G75*
G02*
X144126500Y-167261050I326200J0D01*
G01*
X144651500Y-167261050D01*
G75*
G02*
X144977700Y-167587250I0J-326200D01*
G01*
G37*
D11*
X162815500Y-35387000D03*
X174245500Y-35387000D03*
G36*
G01*
X173801700Y-40987000D02*
X173801700Y-42487000D01*
G75*
G02*
X173725500Y-42563200I-76200J0D01*
G01*
X172225500Y-42563200D01*
G75*
G02*
X172149300Y-42487000I0J76200D01*
G01*
X172149300Y-40987000D01*
G75*
G02*
X172225500Y-40910800I76200J0D01*
G01*
X173725500Y-40910800D01*
G75*
G02*
X173801700Y-40987000I0J-76200D01*
G01*
G37*
D12*
X171705500Y-44277000D03*
X170435500Y-41737000D03*
X169165500Y-44277000D03*
X167895500Y-41737000D03*
X166625500Y-44277000D03*
X165355500Y-41737000D03*
X164085500Y-44277000D03*
G36*
G01*
X146212000Y-30699000D02*
X145108000Y-30699000D01*
G75*
G02*
X144868000Y-30459000I0J240000D01*
G01*
X144868000Y-28635000D01*
G75*
G02*
X145108000Y-28395000I240000J0D01*
G01*
X146212000Y-28395000D01*
G75*
G02*
X146452000Y-28635000I0J-240000D01*
G01*
X146452000Y-30459000D01*
G75*
G02*
X146212000Y-30699000I-240000J0D01*
G01*
G37*
G36*
G01*
X146212000Y-39799000D02*
X145108000Y-39799000D01*
G75*
G02*
X144868000Y-39559000I0J240000D01*
G01*
X144868000Y-37735000D01*
G75*
G02*
X145108000Y-37495000I240000J0D01*
G01*
X146212000Y-37495000D01*
G75*
G02*
X146452000Y-37735000I0J-240000D01*
G01*
X146452000Y-39559000D01*
G75*
G02*
X146212000Y-39799000I-240000J0D01*
G01*
G37*
G36*
G01*
X141732000Y-30699000D02*
X140628000Y-30699000D01*
G75*
G02*
X140388000Y-30459000I0J240000D01*
G01*
X140388000Y-28635000D01*
G75*
G02*
X140628000Y-28395000I240000J0D01*
G01*
X141732000Y-28395000D01*
G75*
G02*
X141972000Y-28635000I0J-240000D01*
G01*
X141972000Y-30459000D01*
G75*
G02*
X141732000Y-30699000I-240000J0D01*
G01*
G37*
G36*
G01*
X141732000Y-39799000D02*
X140628000Y-39799000D01*
G75*
G02*
X140388000Y-39559000I0J240000D01*
G01*
X140388000Y-37735000D01*
G75*
G02*
X140628000Y-37495000I240000J0D01*
G01*
X141732000Y-37495000D01*
G75*
G02*
X141972000Y-37735000I0J-240000D01*
G01*
X141972000Y-39559000D01*
G75*
G02*
X141732000Y-39799000I-240000J0D01*
G01*
G37*
G36*
G01*
X134726000Y-164503200D02*
X133826000Y-164503200D01*
G75*
G02*
X133499800Y-164177000I0J326200D01*
G01*
X133499800Y-163652000D01*
G75*
G02*
X133826000Y-163325800I326200J0D01*
G01*
X134726000Y-163325800D01*
G75*
G02*
X135052200Y-163652000I0J-326200D01*
G01*
X135052200Y-164177000D01*
G75*
G02*
X134726000Y-164503200I-326200J0D01*
G01*
G37*
G36*
G01*
X134726000Y-162678200D02*
X133826000Y-162678200D01*
G75*
G02*
X133499800Y-162352000I0J326200D01*
G01*
X133499800Y-161827000D01*
G75*
G02*
X133826000Y-161500800I326200J0D01*
G01*
X134726000Y-161500800D01*
G75*
G02*
X135052200Y-161827000I0J-326200D01*
G01*
X135052200Y-162352000D01*
G75*
G02*
X134726000Y-162678200I-326200J0D01*
G01*
G37*
D10*
X147230000Y-65720000D03*
G36*
G01*
X146345200Y-177536000D02*
X146345200Y-178186000D01*
G75*
G02*
X146269000Y-178262200I-76200J0D01*
G01*
X143469000Y-178262200D01*
G75*
G02*
X143392800Y-178186000I0J76200D01*
G01*
X143392800Y-177536000D01*
G75*
G02*
X143469000Y-177459800I76200J0D01*
G01*
X146269000Y-177459800D01*
G75*
G02*
X146345200Y-177536000I0J-76200D01*
G01*
G37*
G36*
G01*
X146345200Y-176266000D02*
X146345200Y-176916000D01*
G75*
G02*
X146269000Y-176992200I-76200J0D01*
G01*
X143469000Y-176992200D01*
G75*
G02*
X143392800Y-176916000I0J76200D01*
G01*
X143392800Y-176266000D01*
G75*
G02*
X143469000Y-176189800I76200J0D01*
G01*
X146269000Y-176189800D01*
G75*
G02*
X146345200Y-176266000I0J-76200D01*
G01*
G37*
G36*
G01*
X146345200Y-174996000D02*
X146345200Y-175646000D01*
G75*
G02*
X146269000Y-175722200I-76200J0D01*
G01*
X143469000Y-175722200D01*
G75*
G02*
X143392800Y-175646000I0J76200D01*
G01*
X143392800Y-174996000D01*
G75*
G02*
X143469000Y-174919800I76200J0D01*
G01*
X146269000Y-174919800D01*
G75*
G02*
X146345200Y-174996000I0J-76200D01*
G01*
G37*
G36*
G01*
X146345200Y-173726000D02*
X146345200Y-174376000D01*
G75*
G02*
X146269000Y-174452200I-76200J0D01*
G01*
X143469000Y-174452200D01*
G75*
G02*
X143392800Y-174376000I0J76200D01*
G01*
X143392800Y-173726000D01*
G75*
G02*
X143469000Y-173649800I76200J0D01*
G01*
X146269000Y-173649800D01*
G75*
G02*
X146345200Y-173726000I0J-76200D01*
G01*
G37*
G36*
G01*
X140145200Y-173726000D02*
X140145200Y-174376000D01*
G75*
G02*
X140069000Y-174452200I-76200J0D01*
G01*
X137269000Y-174452200D01*
G75*
G02*
X137192800Y-174376000I0J76200D01*
G01*
X137192800Y-173726000D01*
G75*
G02*
X137269000Y-173649800I76200J0D01*
G01*
X140069000Y-173649800D01*
G75*
G02*
X140145200Y-173726000I0J-76200D01*
G01*
G37*
G36*
G01*
X140145200Y-174996000D02*
X140145200Y-175646000D01*
G75*
G02*
X140069000Y-175722200I-76200J0D01*
G01*
X137269000Y-175722200D01*
G75*
G02*
X137192800Y-175646000I0J76200D01*
G01*
X137192800Y-174996000D01*
G75*
G02*
X137269000Y-174919800I76200J0D01*
G01*
X140069000Y-174919800D01*
G75*
G02*
X140145200Y-174996000I0J-76200D01*
G01*
G37*
G36*
G01*
X140145200Y-176266000D02*
X140145200Y-176916000D01*
G75*
G02*
X140069000Y-176992200I-76200J0D01*
G01*
X137269000Y-176992200D01*
G75*
G02*
X137192800Y-176916000I0J76200D01*
G01*
X137192800Y-176266000D01*
G75*
G02*
X137269000Y-176189800I76200J0D01*
G01*
X140069000Y-176189800D01*
G75*
G02*
X140145200Y-176266000I0J-76200D01*
G01*
G37*
G36*
G01*
X140145200Y-177536000D02*
X140145200Y-178186000D01*
G75*
G02*
X140069000Y-178262200I-76200J0D01*
G01*
X137269000Y-178262200D01*
G75*
G02*
X137192800Y-178186000I0J76200D01*
G01*
X137192800Y-177536000D01*
G75*
G02*
X137269000Y-177459800I76200J0D01*
G01*
X140069000Y-177459800D01*
G75*
G02*
X140145200Y-177536000I0J-76200D01*
G01*
G37*
G36*
G01*
X146345200Y-55616000D02*
X146345200Y-56266000D01*
G75*
G02*
X146269000Y-56342200I-76200J0D01*
G01*
X143469000Y-56342200D01*
G75*
G02*
X143392800Y-56266000I0J76200D01*
G01*
X143392800Y-55616000D01*
G75*
G02*
X143469000Y-55539800I76200J0D01*
G01*
X146269000Y-55539800D01*
G75*
G02*
X146345200Y-55616000I0J-76200D01*
G01*
G37*
G36*
G01*
X146345200Y-54346000D02*
X146345200Y-54996000D01*
G75*
G02*
X146269000Y-55072200I-76200J0D01*
G01*
X143469000Y-55072200D01*
G75*
G02*
X143392800Y-54996000I0J76200D01*
G01*
X143392800Y-54346000D01*
G75*
G02*
X143469000Y-54269800I76200J0D01*
G01*
X146269000Y-54269800D01*
G75*
G02*
X146345200Y-54346000I0J-76200D01*
G01*
G37*
G36*
G01*
X146345200Y-53076000D02*
X146345200Y-53726000D01*
G75*
G02*
X146269000Y-53802200I-76200J0D01*
G01*
X143469000Y-53802200D01*
G75*
G02*
X143392800Y-53726000I0J76200D01*
G01*
X143392800Y-53076000D01*
G75*
G02*
X143469000Y-52999800I76200J0D01*
G01*
X146269000Y-52999800D01*
G75*
G02*
X146345200Y-53076000I0J-76200D01*
G01*
G37*
G36*
G01*
X146345200Y-51806000D02*
X146345200Y-52456000D01*
G75*
G02*
X146269000Y-52532200I-76200J0D01*
G01*
X143469000Y-52532200D01*
G75*
G02*
X143392800Y-52456000I0J76200D01*
G01*
X143392800Y-51806000D01*
G75*
G02*
X143469000Y-51729800I76200J0D01*
G01*
X146269000Y-51729800D01*
G75*
G02*
X146345200Y-51806000I0J-76200D01*
G01*
G37*
G36*
G01*
X140145200Y-51806000D02*
X140145200Y-52456000D01*
G75*
G02*
X140069000Y-52532200I-76200J0D01*
G01*
X137269000Y-52532200D01*
G75*
G02*
X137192800Y-52456000I0J76200D01*
G01*
X137192800Y-51806000D01*
G75*
G02*
X137269000Y-51729800I76200J0D01*
G01*
X140069000Y-51729800D01*
G75*
G02*
X140145200Y-51806000I0J-76200D01*
G01*
G37*
G36*
G01*
X140145200Y-53076000D02*
X140145200Y-53726000D01*
G75*
G02*
X140069000Y-53802200I-76200J0D01*
G01*
X137269000Y-53802200D01*
G75*
G02*
X137192800Y-53726000I0J76200D01*
G01*
X137192800Y-53076000D01*
G75*
G02*
X137269000Y-52999800I76200J0D01*
G01*
X140069000Y-52999800D01*
G75*
G02*
X140145200Y-53076000I0J-76200D01*
G01*
G37*
G36*
G01*
X140145200Y-54346000D02*
X140145200Y-54996000D01*
G75*
G02*
X140069000Y-55072200I-76200J0D01*
G01*
X137269000Y-55072200D01*
G75*
G02*
X137192800Y-54996000I0J76200D01*
G01*
X137192800Y-54346000D01*
G75*
G02*
X137269000Y-54269800I76200J0D01*
G01*
X140069000Y-54269800D01*
G75*
G02*
X140145200Y-54346000I0J-76200D01*
G01*
G37*
G36*
G01*
X140145200Y-55616000D02*
X140145200Y-56266000D01*
G75*
G02*
X140069000Y-56342200I-76200J0D01*
G01*
X137269000Y-56342200D01*
G75*
G02*
X137192800Y-56266000I0J76200D01*
G01*
X137192800Y-55616000D01*
G75*
G02*
X137269000Y-55539800I76200J0D01*
G01*
X140069000Y-55539800D01*
G75*
G02*
X140145200Y-55616000I0J-76200D01*
G01*
G37*
G36*
G01*
X125426600Y-202993800D02*
X127326600Y-202993800D01*
G75*
G02*
X127402800Y-203070000I0J-76200D01*
G01*
X127402800Y-204470000D01*
G75*
G02*
X127326600Y-204546200I-76200J0D01*
G01*
X125426600Y-204546200D01*
G75*
G02*
X125350400Y-204470000I0J76200D01*
G01*
X125350400Y-203070000D01*
G75*
G02*
X125426600Y-202993800I76200J0D01*
G01*
G37*
G36*
G01*
X125426600Y-206293800D02*
X127326600Y-206293800D01*
G75*
G02*
X127402800Y-206370000I0J-76200D01*
G01*
X127402800Y-207770000D01*
G75*
G02*
X127326600Y-207846200I-76200J0D01*
G01*
X125426600Y-207846200D01*
G75*
G02*
X125350400Y-207770000I0J76200D01*
G01*
X125350400Y-206370000D01*
G75*
G02*
X125426600Y-206293800I76200J0D01*
G01*
G37*
X147230000Y-147000000D03*
G36*
G01*
X139587200Y-221099000D02*
X139587200Y-221999000D01*
G75*
G02*
X139261000Y-222325200I-326200J0D01*
G01*
X138736000Y-222325200D01*
G75*
G02*
X138409800Y-221999000I0J326200D01*
G01*
X138409800Y-221099000D01*
G75*
G02*
X138736000Y-220772800I326200J0D01*
G01*
X139261000Y-220772800D01*
G75*
G02*
X139587200Y-221099000I0J-326200D01*
G01*
G37*
G36*
G01*
X137762200Y-221099000D02*
X137762200Y-221999000D01*
G75*
G02*
X137436000Y-222325200I-326200J0D01*
G01*
X136911000Y-222325200D01*
G75*
G02*
X136584800Y-221999000I0J326200D01*
G01*
X136584800Y-221099000D01*
G75*
G02*
X136911000Y-220772800I326200J0D01*
G01*
X137436000Y-220772800D01*
G75*
G02*
X137762200Y-221099000I0J-326200D01*
G01*
G37*
D13*
X115988000Y-102042000D03*
D10*
X185330000Y-88580000D03*
G36*
G01*
X125426600Y-81073800D02*
X127326600Y-81073800D01*
G75*
G02*
X127402800Y-81150000I0J-76200D01*
G01*
X127402800Y-82550000D01*
G75*
G02*
X127326600Y-82626200I-76200J0D01*
G01*
X125426600Y-82626200D01*
G75*
G02*
X125350400Y-82550000I0J76200D01*
G01*
X125350400Y-81150000D01*
G75*
G02*
X125426600Y-81073800I76200J0D01*
G01*
G37*
G36*
G01*
X125426600Y-84373800D02*
X127326600Y-84373800D01*
G75*
G02*
X127402800Y-84450000I0J-76200D01*
G01*
X127402800Y-85850000D01*
G75*
G02*
X127326600Y-85926200I-76200J0D01*
G01*
X125426600Y-85926200D01*
G75*
G02*
X125350400Y-85850000I0J76200D01*
G01*
X125350400Y-84450000D01*
G75*
G02*
X125426600Y-84373800I76200J0D01*
G01*
G37*
D14*
X134657000Y-133030000D03*
X133641000Y-127950000D03*
X135673000Y-127950000D03*
D15*
X135292000Y-131760000D03*
X134022000Y-131760000D03*
X135292000Y-130490000D03*
X134022000Y-130490000D03*
X135292000Y-129220000D03*
X134022000Y-129220000D03*
D10*
X185330000Y-168166666D03*
G36*
G01*
X117486000Y-47923800D02*
X119986000Y-47923800D01*
G75*
G02*
X120062200Y-48000000I0J-76200D01*
G01*
X120062200Y-50500000D01*
G75*
G02*
X119986000Y-50576200I-76200J0D01*
G01*
X117486000Y-50576200D01*
G75*
G02*
X117409800Y-50500000I0J76200D01*
G01*
X117409800Y-48000000D01*
G75*
G02*
X117486000Y-47923800I76200J0D01*
G01*
G37*
D16*
X118736000Y-54250000D03*
G36*
G01*
X125426600Y-40433800D02*
X127326600Y-40433800D01*
G75*
G02*
X127402800Y-40510000I0J-76200D01*
G01*
X127402800Y-41910000D01*
G75*
G02*
X127326600Y-41986200I-76200J0D01*
G01*
X125426600Y-41986200D01*
G75*
G02*
X125350400Y-41910000I0J76200D01*
G01*
X125350400Y-40510000D01*
G75*
G02*
X125426600Y-40433800I76200J0D01*
G01*
G37*
G36*
G01*
X125426600Y-43733800D02*
X127326600Y-43733800D01*
G75*
G02*
X127402800Y-43810000I0J-76200D01*
G01*
X127402800Y-45210000D01*
G75*
G02*
X127326600Y-45286200I-76200J0D01*
G01*
X125426600Y-45286200D01*
G75*
G02*
X125350400Y-45210000I0J76200D01*
G01*
X125350400Y-43810000D01*
G75*
G02*
X125426600Y-43733800I76200J0D01*
G01*
G37*
G36*
G01*
X158168200Y-74330000D02*
X158168200Y-76830000D01*
G75*
G02*
X158092000Y-76906200I-76200J0D01*
G01*
X155592000Y-76906200D01*
G75*
G02*
X155515800Y-76830000I0J76200D01*
G01*
X155515800Y-74330000D01*
G75*
G02*
X155592000Y-74253800I76200J0D01*
G01*
X158092000Y-74253800D01*
G75*
G02*
X158168200Y-74330000I0J-76200D01*
G01*
G37*
X151842000Y-75580000D03*
G36*
G01*
X151738500Y-217078600D02*
X150341500Y-217078600D01*
G75*
G02*
X150265300Y-217002400I0J76200D01*
G01*
X150265300Y-215300600D01*
G75*
G02*
X150341500Y-215224400I76200J0D01*
G01*
X151738500Y-215224400D01*
G75*
G02*
X151814700Y-215300600I0J-76200D01*
G01*
X151814700Y-217002400D01*
G75*
G02*
X151738500Y-217078600I-76200J0D01*
G01*
G37*
G36*
G01*
X154278500Y-217078600D02*
X152881500Y-217078600D01*
G75*
G02*
X152805300Y-217002400I0J76200D01*
G01*
X152805300Y-215300600D01*
G75*
G02*
X152881500Y-215224400I76200J0D01*
G01*
X154278500Y-215224400D01*
G75*
G02*
X154354700Y-215300600I0J-76200D01*
G01*
X154354700Y-217002400D01*
G75*
G02*
X154278500Y-217078600I-76200J0D01*
G01*
G37*
G36*
G01*
X154278500Y-208061600D02*
X152881500Y-208061600D01*
G75*
G02*
X152805300Y-207985400I0J76200D01*
G01*
X152805300Y-206283600D01*
G75*
G02*
X152881500Y-206207400I76200J0D01*
G01*
X154278500Y-206207400D01*
G75*
G02*
X154354700Y-206283600I0J-76200D01*
G01*
X154354700Y-207985400D01*
G75*
G02*
X154278500Y-208061600I-76200J0D01*
G01*
G37*
G36*
G01*
X151738500Y-208061600D02*
X150341500Y-208061600D01*
G75*
G02*
X150265300Y-207985400I0J76200D01*
G01*
X150265300Y-206283600D01*
G75*
G02*
X150341500Y-206207400I76200J0D01*
G01*
X151738500Y-206207400D01*
G75*
G02*
X151814700Y-206283600I0J-76200D01*
G01*
X151814700Y-207985400D01*
G75*
G02*
X151738500Y-208061600I-76200J0D01*
G01*
G37*
G36*
G01*
X136410000Y-195006000D02*
X136410000Y-196530000D01*
G75*
G02*
X136308000Y-196632000I-102000J0D01*
G01*
X134784000Y-196632000D01*
G75*
G02*
X134682000Y-196530000I0J102000D01*
G01*
X134682000Y-195006000D01*
G75*
G02*
X134784000Y-194904000I102000J0D01*
G01*
X136308000Y-194904000D01*
G75*
G02*
X136410000Y-195006000I0J-102000D01*
G01*
G37*
D17*
X122846000Y-195768000D03*
G36*
G01*
X156744000Y-208316800D02*
X158544000Y-208316800D01*
G75*
G02*
X158620200Y-208393000I0J-76200D01*
G01*
X158620200Y-210893000D01*
G75*
G02*
X158544000Y-210969200I-76200J0D01*
G01*
X156744000Y-210969200D01*
G75*
G02*
X156667800Y-210893000I0J76200D01*
G01*
X156667800Y-208393000D01*
G75*
G02*
X156744000Y-208316800I76200J0D01*
G01*
G37*
G36*
G01*
X156744000Y-212316800D02*
X158544000Y-212316800D01*
G75*
G02*
X158620200Y-212393000I0J-76200D01*
G01*
X158620200Y-214893000D01*
G75*
G02*
X158544000Y-214969200I-76200J0D01*
G01*
X156744000Y-214969200D01*
G75*
G02*
X156667800Y-214893000I0J76200D01*
G01*
X156667800Y-212393000D01*
G75*
G02*
X156744000Y-212316800I76200J0D01*
G01*
G37*
D10*
X148076667Y-108900000D03*
G36*
G01*
X146802700Y-45667250D02*
X146802700Y-46567250D01*
G75*
G02*
X146476500Y-46893450I-326200J0D01*
G01*
X145951500Y-46893450D01*
G75*
G02*
X145625300Y-46567250I0J326200D01*
G01*
X145625300Y-45667250D01*
G75*
G02*
X145951500Y-45341050I326200J0D01*
G01*
X146476500Y-45341050D01*
G75*
G02*
X146802700Y-45667250I0J-326200D01*
G01*
G37*
G36*
G01*
X144977700Y-45667250D02*
X144977700Y-46567250D01*
G75*
G02*
X144651500Y-46893450I-326200J0D01*
G01*
X144126500Y-46893450D01*
G75*
G02*
X143800300Y-46567250I0J326200D01*
G01*
X143800300Y-45667250D01*
G75*
G02*
X144126500Y-45341050I326200J0D01*
G01*
X144651500Y-45341050D01*
G75*
G02*
X144977700Y-45667250I0J-326200D01*
G01*
G37*
X147230000Y-187640000D03*
G36*
G01*
X151316800Y-140719000D02*
X151316800Y-139819000D01*
G75*
G02*
X151643000Y-139492800I326200J0D01*
G01*
X152168000Y-139492800D01*
G75*
G02*
X152494200Y-139819000I0J-326200D01*
G01*
X152494200Y-140719000D01*
G75*
G02*
X152168000Y-141045200I-326200J0D01*
G01*
X151643000Y-141045200D01*
G75*
G02*
X151316800Y-140719000I0J326200D01*
G01*
G37*
G36*
G01*
X153141800Y-140719000D02*
X153141800Y-139819000D01*
G75*
G02*
X153468000Y-139492800I326200J0D01*
G01*
X153993000Y-139492800D01*
G75*
G02*
X154319200Y-139819000I0J-326200D01*
G01*
X154319200Y-140719000D01*
G75*
G02*
X153993000Y-141045200I-326200J0D01*
G01*
X153468000Y-141045200D01*
G75*
G02*
X153141800Y-140719000I0J326200D01*
G01*
G37*
G36*
G01*
X134726000Y-83223200D02*
X133826000Y-83223200D01*
G75*
G02*
X133499800Y-82897000I0J326200D01*
G01*
X133499800Y-82372000D01*
G75*
G02*
X133826000Y-82045800I326200J0D01*
G01*
X134726000Y-82045800D01*
G75*
G02*
X135052200Y-82372000I0J-326200D01*
G01*
X135052200Y-82897000D01*
G75*
G02*
X134726000Y-83223200I-326200J0D01*
G01*
G37*
G36*
G01*
X134726000Y-81398200D02*
X133826000Y-81398200D01*
G75*
G02*
X133499800Y-81072000I0J326200D01*
G01*
X133499800Y-80547000D01*
G75*
G02*
X133826000Y-80220800I326200J0D01*
G01*
X134726000Y-80220800D01*
G75*
G02*
X135052200Y-80547000I0J-326200D01*
G01*
X135052200Y-81072000D01*
G75*
G02*
X134726000Y-81398200I-326200J0D01*
G01*
G37*
G36*
G01*
X136410000Y-154366000D02*
X136410000Y-155890000D01*
G75*
G02*
X136308000Y-155992000I-102000J0D01*
G01*
X134784000Y-155992000D01*
G75*
G02*
X134682000Y-155890000I0J102000D01*
G01*
X134682000Y-154366000D01*
G75*
G02*
X134784000Y-154264000I102000J0D01*
G01*
X136308000Y-154264000D01*
G75*
G02*
X136410000Y-154366000I0J-102000D01*
G01*
G37*
D17*
X122846000Y-155128000D03*
G36*
G01*
X130294000Y-139201300D02*
X130844000Y-139201300D01*
G75*
G02*
X130920200Y-139277500I0J-76200D01*
G01*
X130920200Y-140577500D01*
G75*
G02*
X130844000Y-140653700I-76200J0D01*
G01*
X130294000Y-140653700D01*
G75*
G02*
X130217800Y-140577500I0J76200D01*
G01*
X130217800Y-139277500D01*
G75*
G02*
X130294000Y-139201300I76200J0D01*
G01*
G37*
G36*
X130052373Y-143926480D02*
G01*
X130007232Y-143952542D01*
X129994000Y-143953700D01*
X128144000Y-143953700D01*
X128095020Y-143935873D01*
X128068958Y-143890732D01*
X128067800Y-143877500D01*
X128067800Y-141277500D01*
X128085627Y-141228520D01*
X128090118Y-141223618D01*
X128592800Y-140720936D01*
X128592800Y-139277500D01*
X128610627Y-139228520D01*
X128655768Y-139202458D01*
X128669000Y-139201300D01*
X129469000Y-139201300D01*
X129517980Y-139219127D01*
X129544042Y-139264268D01*
X129545200Y-139277500D01*
X129545200Y-140720936D01*
X130047882Y-141223618D01*
X130069910Y-141270859D01*
X130070200Y-141277500D01*
X130070200Y-143877500D01*
X130052373Y-143926480D01*
G37*
G36*
G01*
X127294000Y-139201300D02*
X127844000Y-139201300D01*
G75*
G02*
X127920200Y-139277500I0J-76200D01*
G01*
X127920200Y-140577500D01*
G75*
G02*
X127844000Y-140653700I-76200J0D01*
G01*
X127294000Y-140653700D01*
G75*
G02*
X127217800Y-140577500I0J76200D01*
G01*
X127217800Y-139277500D01*
G75*
G02*
X127294000Y-139201300I76200J0D01*
G01*
G37*
D10*
X185330000Y-209653333D03*
G36*
G01*
X121027400Y-45286200D02*
X119127400Y-45286200D01*
G75*
G02*
X119051200Y-45210000I0J76200D01*
G01*
X119051200Y-43810000D01*
G75*
G02*
X119127400Y-43733800I76200J0D01*
G01*
X121027400Y-43733800D01*
G75*
G02*
X121103600Y-43810000I0J-76200D01*
G01*
X121103600Y-45210000D01*
G75*
G02*
X121027400Y-45286200I-76200J0D01*
G01*
G37*
G36*
G01*
X121027400Y-41986200D02*
X119127400Y-41986200D01*
G75*
G02*
X119051200Y-41910000I0J76200D01*
G01*
X119051200Y-40510000D01*
G75*
G02*
X119127400Y-40433800I76200J0D01*
G01*
X121027400Y-40433800D01*
G75*
G02*
X121103600Y-40510000I0J-76200D01*
G01*
X121103600Y-41910000D01*
G75*
G02*
X121027400Y-41986200I-76200J0D01*
G01*
G37*
X148923333Y-108900000D03*
G36*
G01*
X136584800Y-102625250D02*
X136584800Y-101712750D01*
G75*
G02*
X136904750Y-101392800I319950J0D01*
G01*
X137392250Y-101392800D01*
G75*
G02*
X137712200Y-101712750I0J-319950D01*
G01*
X137712200Y-102625250D01*
G75*
G02*
X137392250Y-102945200I-319950J0D01*
G01*
X136904750Y-102945200D01*
G75*
G02*
X136584800Y-102625250I0J319950D01*
G01*
G37*
G36*
G01*
X138459800Y-102625250D02*
X138459800Y-101712750D01*
G75*
G02*
X138779750Y-101392800I319950J0D01*
G01*
X139267250Y-101392800D01*
G75*
G02*
X139587200Y-101712750I0J-319950D01*
G01*
X139587200Y-102625250D01*
G75*
G02*
X139267250Y-102945200I-319950J0D01*
G01*
X138779750Y-102945200D01*
G75*
G02*
X138459800Y-102625250I0J319950D01*
G01*
G37*
X147230000Y-106360000D03*
X111670000Y-169860000D03*
X149770000Y-68260000D03*
G36*
G01*
X146851200Y-205580000D02*
X146851200Y-206530000D01*
G75*
G02*
X146525000Y-206856200I-326200J0D01*
G01*
X146025000Y-206856200D01*
G75*
G02*
X145698800Y-206530000I0J326200D01*
G01*
X145698800Y-205580000D01*
G75*
G02*
X146025000Y-205253800I326200J0D01*
G01*
X146525000Y-205253800D01*
G75*
G02*
X146851200Y-205580000I0J-326200D01*
G01*
G37*
G36*
G01*
X144951200Y-205580000D02*
X144951200Y-206530000D01*
G75*
G02*
X144625000Y-206856200I-326200J0D01*
G01*
X144125000Y-206856200D01*
G75*
G02*
X143798800Y-206530000I0J326200D01*
G01*
X143798800Y-205580000D01*
G75*
G02*
X144125000Y-205253800I326200J0D01*
G01*
X144625000Y-205253800D01*
G75*
G02*
X144951200Y-205580000I0J-326200D01*
G01*
G37*
X185330000Y-127526666D03*
G36*
G01*
X146827700Y-129589250D02*
X146827700Y-130539250D01*
G75*
G02*
X146501500Y-130865450I-326200J0D01*
G01*
X146001500Y-130865450D01*
G75*
G02*
X145675300Y-130539250I0J326200D01*
G01*
X145675300Y-129589250D01*
G75*
G02*
X146001500Y-129263050I326200J0D01*
G01*
X146501500Y-129263050D01*
G75*
G02*
X146827700Y-129589250I0J-326200D01*
G01*
G37*
G36*
G01*
X144927700Y-129589250D02*
X144927700Y-130539250D01*
G75*
G02*
X144601500Y-130865450I-326200J0D01*
G01*
X144101500Y-130865450D01*
G75*
G02*
X143775300Y-130539250I0J326200D01*
G01*
X143775300Y-129589250D01*
G75*
G02*
X144101500Y-129263050I326200J0D01*
G01*
X144601500Y-129263050D01*
G75*
G02*
X144927700Y-129589250I0J-326200D01*
G01*
G37*
G36*
G01*
X143569800Y-100079000D02*
X143569800Y-99179000D01*
G75*
G02*
X143896000Y-98852800I326200J0D01*
G01*
X144421000Y-98852800D01*
G75*
G02*
X144747200Y-99179000I0J-326200D01*
G01*
X144747200Y-100079000D01*
G75*
G02*
X144421000Y-100405200I-326200J0D01*
G01*
X143896000Y-100405200D01*
G75*
G02*
X143569800Y-100079000I0J326200D01*
G01*
G37*
G36*
G01*
X145394800Y-100079000D02*
X145394800Y-99179000D01*
G75*
G02*
X145721000Y-98852800I326200J0D01*
G01*
X146246000Y-98852800D01*
G75*
G02*
X146572200Y-99179000I0J-326200D01*
G01*
X146572200Y-100079000D01*
G75*
G02*
X146246000Y-100405200I-326200J0D01*
G01*
X145721000Y-100405200D01*
G75*
G02*
X145394800Y-100079000I0J326200D01*
G01*
G37*
X148076667Y-190180000D03*
G36*
G01*
X139226800Y-89944000D02*
X139226800Y-88994000D01*
G75*
G02*
X139553000Y-88667800I326200J0D01*
G01*
X140053000Y-88667800D01*
G75*
G02*
X140379200Y-88994000I0J-326200D01*
G01*
X140379200Y-89944000D01*
G75*
G02*
X140053000Y-90270200I-326200J0D01*
G01*
X139553000Y-90270200D01*
G75*
G02*
X139226800Y-89944000I0J326200D01*
G01*
G37*
G36*
G01*
X141126800Y-89944000D02*
X141126800Y-88994000D01*
G75*
G02*
X141453000Y-88667800I326200J0D01*
G01*
X141953000Y-88667800D01*
G75*
G02*
X142279200Y-88994000I0J-326200D01*
G01*
X142279200Y-89944000D01*
G75*
G02*
X141953000Y-90270200I-326200J0D01*
G01*
X141453000Y-90270200D01*
G75*
G02*
X141126800Y-89944000I0J326200D01*
G01*
G37*
G36*
G01*
X125426600Y-162353800D02*
X127326600Y-162353800D01*
G75*
G02*
X127402800Y-162430000I0J-76200D01*
G01*
X127402800Y-163830000D01*
G75*
G02*
X127326600Y-163906200I-76200J0D01*
G01*
X125426600Y-163906200D01*
G75*
G02*
X125350400Y-163830000I0J76200D01*
G01*
X125350400Y-162430000D01*
G75*
G02*
X125426600Y-162353800I76200J0D01*
G01*
G37*
G36*
G01*
X125426600Y-165653800D02*
X127326600Y-165653800D01*
G75*
G02*
X127402800Y-165730000I0J-76200D01*
G01*
X127402800Y-167130000D01*
G75*
G02*
X127326600Y-167206200I-76200J0D01*
G01*
X125426600Y-167206200D01*
G75*
G02*
X125350400Y-167130000I0J76200D01*
G01*
X125350400Y-165730000D01*
G75*
G02*
X125426600Y-165653800I76200J0D01*
G01*
G37*
G36*
G01*
X151738500Y-95158600D02*
X150341500Y-95158600D01*
G75*
G02*
X150265300Y-95082400I0J76200D01*
G01*
X150265300Y-93380600D01*
G75*
G02*
X150341500Y-93304400I76200J0D01*
G01*
X151738500Y-93304400D01*
G75*
G02*
X151814700Y-93380600I0J-76200D01*
G01*
X151814700Y-95082400D01*
G75*
G02*
X151738500Y-95158600I-76200J0D01*
G01*
G37*
G36*
G01*
X154278500Y-95158600D02*
X152881500Y-95158600D01*
G75*
G02*
X152805300Y-95082400I0J76200D01*
G01*
X152805300Y-93380600D01*
G75*
G02*
X152881500Y-93304400I76200J0D01*
G01*
X154278500Y-93304400D01*
G75*
G02*
X154354700Y-93380600I0J-76200D01*
G01*
X154354700Y-95082400D01*
G75*
G02*
X154278500Y-95158600I-76200J0D01*
G01*
G37*
G36*
G01*
X154278500Y-86141600D02*
X152881500Y-86141600D01*
G75*
G02*
X152805300Y-86065400I0J76200D01*
G01*
X152805300Y-84363600D01*
G75*
G02*
X152881500Y-84287400I76200J0D01*
G01*
X154278500Y-84287400D01*
G75*
G02*
X154354700Y-84363600I0J-76200D01*
G01*
X154354700Y-86065400D01*
G75*
G02*
X154278500Y-86141600I-76200J0D01*
G01*
G37*
G36*
G01*
X151738500Y-86141600D02*
X150341500Y-86141600D01*
G75*
G02*
X150265300Y-86065400I0J76200D01*
G01*
X150265300Y-84363600D01*
G75*
G02*
X150341500Y-84287400I76200J0D01*
G01*
X151738500Y-84287400D01*
G75*
G02*
X151814700Y-84363600I0J-76200D01*
G01*
X151814700Y-86065400D01*
G75*
G02*
X151738500Y-86141600I-76200J0D01*
G01*
G37*
X111670000Y-168166666D03*
G36*
G01*
X156744000Y-86396800D02*
X158544000Y-86396800D01*
G75*
G02*
X158620200Y-86473000I0J-76200D01*
G01*
X158620200Y-88973000D01*
G75*
G02*
X158544000Y-89049200I-76200J0D01*
G01*
X156744000Y-89049200D01*
G75*
G02*
X156667800Y-88973000I0J76200D01*
G01*
X156667800Y-86473000D01*
G75*
G02*
X156744000Y-86396800I76200J0D01*
G01*
G37*
G36*
G01*
X156744000Y-90396800D02*
X158544000Y-90396800D01*
G75*
G02*
X158620200Y-90473000I0J-76200D01*
G01*
X158620200Y-92973000D01*
G75*
G02*
X158544000Y-93049200I-76200J0D01*
G01*
X156744000Y-93049200D01*
G75*
G02*
X156667800Y-92973000I0J76200D01*
G01*
X156667800Y-90473000D01*
G75*
G02*
X156744000Y-90396800I76200J0D01*
G01*
G37*
X147230000Y-190180000D03*
G36*
G01*
X115927000Y-121713800D02*
X117827000Y-121713800D01*
G75*
G02*
X117903200Y-121790000I0J-76200D01*
G01*
X117903200Y-123190000D01*
G75*
G02*
X117827000Y-123266200I-76200J0D01*
G01*
X115927000Y-123266200D01*
G75*
G02*
X115850800Y-123190000I0J76200D01*
G01*
X115850800Y-121790000D01*
G75*
G02*
X115927000Y-121713800I76200J0D01*
G01*
G37*
G36*
G01*
X115927000Y-125013800D02*
X117827000Y-125013800D01*
G75*
G02*
X117903200Y-125090000I0J-76200D01*
G01*
X117903200Y-126490000D01*
G75*
G02*
X117827000Y-126566200I-76200J0D01*
G01*
X115927000Y-126566200D01*
G75*
G02*
X115850800Y-126490000I0J76200D01*
G01*
X115850800Y-125090000D01*
G75*
G02*
X115927000Y-125013800I76200J0D01*
G01*
G37*
G36*
G01*
X139587200Y-99179000D02*
X139587200Y-100079000D01*
G75*
G02*
X139261000Y-100405200I-326200J0D01*
G01*
X138736000Y-100405200D01*
G75*
G02*
X138409800Y-100079000I0J326200D01*
G01*
X138409800Y-99179000D01*
G75*
G02*
X138736000Y-98852800I326200J0D01*
G01*
X139261000Y-98852800D01*
G75*
G02*
X139587200Y-99179000I0J-326200D01*
G01*
G37*
G36*
G01*
X137762200Y-99179000D02*
X137762200Y-100079000D01*
G75*
G02*
X137436000Y-100405200I-326200J0D01*
G01*
X136911000Y-100405200D01*
G75*
G02*
X136584800Y-100079000I0J326200D01*
G01*
X136584800Y-99179000D01*
G75*
G02*
X136911000Y-98852800I326200J0D01*
G01*
X137436000Y-98852800D01*
G75*
G02*
X137762200Y-99179000I0J-326200D01*
G01*
G37*
G36*
G01*
X133547000Y-58097800D02*
X134497000Y-58097800D01*
G75*
G02*
X134823200Y-58424000I0J-326200D01*
G01*
X134823200Y-58924000D01*
G75*
G02*
X134497000Y-59250200I-326200J0D01*
G01*
X133547000Y-59250200D01*
G75*
G02*
X133220800Y-58924000I0J326200D01*
G01*
X133220800Y-58424000D01*
G75*
G02*
X133547000Y-58097800I326200J0D01*
G01*
G37*
G36*
G01*
X133547000Y-59997800D02*
X134497000Y-59997800D01*
G75*
G02*
X134823200Y-60324000I0J-326200D01*
G01*
X134823200Y-60824000D01*
G75*
G02*
X134497000Y-61150200I-326200J0D01*
G01*
X133547000Y-61150200D01*
G75*
G02*
X133220800Y-60824000I0J326200D01*
G01*
X133220800Y-60324000D01*
G75*
G02*
X133547000Y-59997800I326200J0D01*
G01*
G37*
D11*
X174245500Y-157307000D03*
X162815500Y-157307000D03*
G36*
G01*
X173801700Y-162907000D02*
X173801700Y-164407000D01*
G75*
G02*
X173725500Y-164483200I-76200J0D01*
G01*
X172225500Y-164483200D01*
G75*
G02*
X172149300Y-164407000I0J76200D01*
G01*
X172149300Y-162907000D01*
G75*
G02*
X172225500Y-162830800I76200J0D01*
G01*
X173725500Y-162830800D01*
G75*
G02*
X173801700Y-162907000I0J-76200D01*
G01*
G37*
D12*
X171705500Y-166197000D03*
X170435500Y-163657000D03*
X169165500Y-166197000D03*
X167895500Y-163657000D03*
X166625500Y-166197000D03*
X165355500Y-163657000D03*
X164085500Y-166197000D03*
D14*
X134657000Y-51750000D03*
X135673000Y-46670000D03*
X133641000Y-46670000D03*
D15*
X135292000Y-50480000D03*
X134022000Y-50480000D03*
X135292000Y-49210000D03*
X134022000Y-49210000D03*
X135292000Y-47940000D03*
X134022000Y-47940000D03*
G36*
G01*
X131483250Y-120610800D02*
X131783250Y-120610800D01*
G75*
G02*
X132009450Y-120837000I0J-226200D01*
G01*
X132009450Y-122012000D01*
G75*
G02*
X131783250Y-122238200I-226200J0D01*
G01*
X131483250Y-122238200D01*
G75*
G02*
X131257050Y-122012000I0J226200D01*
G01*
X131257050Y-120837000D01*
G75*
G02*
X131483250Y-120610800I226200J0D01*
G01*
G37*
G36*
G01*
X129583250Y-120610800D02*
X129883250Y-120610800D01*
G75*
G02*
X130109450Y-120837000I0J-226200D01*
G01*
X130109450Y-122012000D01*
G75*
G02*
X129883250Y-122238200I-226200J0D01*
G01*
X129583250Y-122238200D01*
G75*
G02*
X129357050Y-122012000I0J226200D01*
G01*
X129357050Y-120837000D01*
G75*
G02*
X129583250Y-120610800I226200J0D01*
G01*
G37*
G36*
G01*
X130533250Y-122485800D02*
X130833250Y-122485800D01*
G75*
G02*
X131059450Y-122712000I0J-226200D01*
G01*
X131059450Y-123887000D01*
G75*
G02*
X130833250Y-124113200I-226200J0D01*
G01*
X130533250Y-124113200D01*
G75*
G02*
X130307050Y-123887000I0J226200D01*
G01*
X130307050Y-122712000D01*
G75*
G02*
X130533250Y-122485800I226200J0D01*
G01*
G37*
D10*
X149770000Y-65720000D03*
X111670000Y-47940000D03*
X148076667Y-228280000D03*
G36*
G01*
X151316800Y-183905250D02*
X151316800Y-182992750D01*
G75*
G02*
X151636750Y-182672800I319950J0D01*
G01*
X152124250Y-182672800D01*
G75*
G02*
X152444200Y-182992750I0J-319950D01*
G01*
X152444200Y-183905250D01*
G75*
G02*
X152124250Y-184225200I-319950J0D01*
G01*
X151636750Y-184225200D01*
G75*
G02*
X151316800Y-183905250I0J319950D01*
G01*
G37*
G36*
G01*
X153191800Y-183905250D02*
X153191800Y-182992750D01*
G75*
G02*
X153511750Y-182672800I319950J0D01*
G01*
X153999250Y-182672800D01*
G75*
G02*
X154319200Y-182992750I0J-319950D01*
G01*
X154319200Y-183905250D01*
G75*
G02*
X153999250Y-184225200I-319950J0D01*
G01*
X153511750Y-184225200D01*
G75*
G02*
X153191800Y-183905250I0J319950D01*
G01*
G37*
D14*
X133641000Y-168590000D03*
X135673000Y-168590000D03*
X134657000Y-173670000D03*
D15*
X135292000Y-172400000D03*
X134022000Y-172400000D03*
X135292000Y-171130000D03*
X134022000Y-171130000D03*
X135292000Y-169860000D03*
X134022000Y-169860000D03*
G36*
G01*
X142877700Y-208445000D02*
X142877700Y-208745000D01*
G75*
G02*
X142651500Y-208971200I-226200J0D01*
G01*
X141626500Y-208971200D01*
G75*
G02*
X141400300Y-208745000I0J226200D01*
G01*
X141400300Y-208445000D01*
G75*
G02*
X141626500Y-208218800I226200J0D01*
G01*
X142651500Y-208218800D01*
G75*
G02*
X142877700Y-208445000I0J-226200D01*
G01*
G37*
G36*
G01*
X142877700Y-207495000D02*
X142877700Y-207795000D01*
G75*
G02*
X142651500Y-208021200I-226200J0D01*
G01*
X141626500Y-208021200D01*
G75*
G02*
X141400300Y-207795000I0J226200D01*
G01*
X141400300Y-207495000D01*
G75*
G02*
X141626500Y-207268800I226200J0D01*
G01*
X142651500Y-207268800D01*
G75*
G02*
X142877700Y-207495000I0J-226200D01*
G01*
G37*
G36*
G01*
X142877700Y-206545000D02*
X142877700Y-206845000D01*
G75*
G02*
X142651500Y-207071200I-226200J0D01*
G01*
X141626500Y-207071200D01*
G75*
G02*
X141400300Y-206845000I0J226200D01*
G01*
X141400300Y-206545000D01*
G75*
G02*
X141626500Y-206318800I226200J0D01*
G01*
X142651500Y-206318800D01*
G75*
G02*
X142877700Y-206545000I0J-226200D01*
G01*
G37*
G36*
G01*
X140602700Y-206545000D02*
X140602700Y-206845000D01*
G75*
G02*
X140376500Y-207071200I-226200J0D01*
G01*
X139351500Y-207071200D01*
G75*
G02*
X139125300Y-206845000I0J226200D01*
G01*
X139125300Y-206545000D01*
G75*
G02*
X139351500Y-206318800I226200J0D01*
G01*
X140376500Y-206318800D01*
G75*
G02*
X140602700Y-206545000I0J-226200D01*
G01*
G37*
G36*
G01*
X140602700Y-208445000D02*
X140602700Y-208745000D01*
G75*
G02*
X140376500Y-208971200I-226200J0D01*
G01*
X139351500Y-208971200D01*
G75*
G02*
X139125300Y-208745000I0J226200D01*
G01*
X139125300Y-208445000D01*
G75*
G02*
X139351500Y-208218800I226200J0D01*
G01*
X140376500Y-208218800D01*
G75*
G02*
X140602700Y-208445000I0J-226200D01*
G01*
G37*
D10*
X111670000Y-127526666D03*
X148923333Y-27620000D03*
G36*
G01*
X136685250Y-161475800D02*
X137635250Y-161475800D01*
G75*
G02*
X137961450Y-161802000I0J-326200D01*
G01*
X137961450Y-162302000D01*
G75*
G02*
X137635250Y-162628200I-326200J0D01*
G01*
X136685250Y-162628200D01*
G75*
G02*
X136359050Y-162302000I0J326200D01*
G01*
X136359050Y-161802000D01*
G75*
G02*
X136685250Y-161475800I326200J0D01*
G01*
G37*
G36*
G01*
X136685250Y-163375800D02*
X137635250Y-163375800D01*
G75*
G02*
X137961450Y-163702000I0J-326200D01*
G01*
X137961450Y-164202000D01*
G75*
G02*
X137635250Y-164528200I-326200J0D01*
G01*
X136685250Y-164528200D01*
G75*
G02*
X136359050Y-164202000I0J326200D01*
G01*
X136359050Y-163702000D01*
G75*
G02*
X136685250Y-163375800I326200J0D01*
G01*
G37*
G36*
G01*
X136685250Y-120835800D02*
X137635250Y-120835800D01*
G75*
G02*
X137961450Y-121162000I0J-326200D01*
G01*
X137961450Y-121662000D01*
G75*
G02*
X137635250Y-121988200I-326200J0D01*
G01*
X136685250Y-121988200D01*
G75*
G02*
X136359050Y-121662000I0J326200D01*
G01*
X136359050Y-121162000D01*
G75*
G02*
X136685250Y-120835800I326200J0D01*
G01*
G37*
G36*
G01*
X136685250Y-122735800D02*
X137635250Y-122735800D01*
G75*
G02*
X137961450Y-123062000I0J-326200D01*
G01*
X137961450Y-123562000D01*
G75*
G02*
X137635250Y-123888200I-326200J0D01*
G01*
X136685250Y-123888200D01*
G75*
G02*
X136359050Y-123562000I0J326200D01*
G01*
X136359050Y-123062000D01*
G75*
G02*
X136685250Y-122735800I326200J0D01*
G01*
G37*
G36*
G01*
X142877700Y-127165000D02*
X142877700Y-127465000D01*
G75*
G02*
X142651500Y-127691200I-226200J0D01*
G01*
X141626500Y-127691200D01*
G75*
G02*
X141400300Y-127465000I0J226200D01*
G01*
X141400300Y-127165000D01*
G75*
G02*
X141626500Y-126938800I226200J0D01*
G01*
X142651500Y-126938800D01*
G75*
G02*
X142877700Y-127165000I0J-226200D01*
G01*
G37*
G36*
G01*
X142877700Y-126215000D02*
X142877700Y-126515000D01*
G75*
G02*
X142651500Y-126741200I-226200J0D01*
G01*
X141626500Y-126741200D01*
G75*
G02*
X141400300Y-126515000I0J226200D01*
G01*
X141400300Y-126215000D01*
G75*
G02*
X141626500Y-125988800I226200J0D01*
G01*
X142651500Y-125988800D01*
G75*
G02*
X142877700Y-126215000I0J-226200D01*
G01*
G37*
G36*
G01*
X142877700Y-125265000D02*
X142877700Y-125565000D01*
G75*
G02*
X142651500Y-125791200I-226200J0D01*
G01*
X141626500Y-125791200D01*
G75*
G02*
X141400300Y-125565000I0J226200D01*
G01*
X141400300Y-125265000D01*
G75*
G02*
X141626500Y-125038800I226200J0D01*
G01*
X142651500Y-125038800D01*
G75*
G02*
X142877700Y-125265000I0J-226200D01*
G01*
G37*
G36*
G01*
X140602700Y-125265000D02*
X140602700Y-125565000D01*
G75*
G02*
X140376500Y-125791200I-226200J0D01*
G01*
X139351500Y-125791200D01*
G75*
G02*
X139125300Y-125565000I0J226200D01*
G01*
X139125300Y-125265000D01*
G75*
G02*
X139351500Y-125038800I226200J0D01*
G01*
X140376500Y-125038800D01*
G75*
G02*
X140602700Y-125265000I0J-226200D01*
G01*
G37*
G36*
G01*
X140602700Y-127165000D02*
X140602700Y-127465000D01*
G75*
G02*
X140376500Y-127691200I-226200J0D01*
G01*
X139351500Y-127691200D01*
G75*
G02*
X139125300Y-127465000I0J226200D01*
G01*
X139125300Y-127165000D01*
G75*
G02*
X139351500Y-126938800I226200J0D01*
G01*
X140376500Y-126938800D01*
G75*
G02*
X140602700Y-127165000I0J-226200D01*
G01*
G37*
X147230000Y-108900000D03*
G36*
G01*
X146345200Y-136896000D02*
X146345200Y-137546000D01*
G75*
G02*
X146269000Y-137622200I-76200J0D01*
G01*
X143469000Y-137622200D01*
G75*
G02*
X143392800Y-137546000I0J76200D01*
G01*
X143392800Y-136896000D01*
G75*
G02*
X143469000Y-136819800I76200J0D01*
G01*
X146269000Y-136819800D01*
G75*
G02*
X146345200Y-136896000I0J-76200D01*
G01*
G37*
G36*
G01*
X146345200Y-135626000D02*
X146345200Y-136276000D01*
G75*
G02*
X146269000Y-136352200I-76200J0D01*
G01*
X143469000Y-136352200D01*
G75*
G02*
X143392800Y-136276000I0J76200D01*
G01*
X143392800Y-135626000D01*
G75*
G02*
X143469000Y-135549800I76200J0D01*
G01*
X146269000Y-135549800D01*
G75*
G02*
X146345200Y-135626000I0J-76200D01*
G01*
G37*
G36*
G01*
X146345200Y-134356000D02*
X146345200Y-135006000D01*
G75*
G02*
X146269000Y-135082200I-76200J0D01*
G01*
X143469000Y-135082200D01*
G75*
G02*
X143392800Y-135006000I0J76200D01*
G01*
X143392800Y-134356000D01*
G75*
G02*
X143469000Y-134279800I76200J0D01*
G01*
X146269000Y-134279800D01*
G75*
G02*
X146345200Y-134356000I0J-76200D01*
G01*
G37*
G36*
G01*
X146345200Y-133086000D02*
X146345200Y-133736000D01*
G75*
G02*
X146269000Y-133812200I-76200J0D01*
G01*
X143469000Y-133812200D01*
G75*
G02*
X143392800Y-133736000I0J76200D01*
G01*
X143392800Y-133086000D01*
G75*
G02*
X143469000Y-133009800I76200J0D01*
G01*
X146269000Y-133009800D01*
G75*
G02*
X146345200Y-133086000I0J-76200D01*
G01*
G37*
G36*
G01*
X140145200Y-133086000D02*
X140145200Y-133736000D01*
G75*
G02*
X140069000Y-133812200I-76200J0D01*
G01*
X137269000Y-133812200D01*
G75*
G02*
X137192800Y-133736000I0J76200D01*
G01*
X137192800Y-133086000D01*
G75*
G02*
X137269000Y-133009800I76200J0D01*
G01*
X140069000Y-133009800D01*
G75*
G02*
X140145200Y-133086000I0J-76200D01*
G01*
G37*
G36*
G01*
X140145200Y-134356000D02*
X140145200Y-135006000D01*
G75*
G02*
X140069000Y-135082200I-76200J0D01*
G01*
X137269000Y-135082200D01*
G75*
G02*
X137192800Y-135006000I0J76200D01*
G01*
X137192800Y-134356000D01*
G75*
G02*
X137269000Y-134279800I76200J0D01*
G01*
X140069000Y-134279800D01*
G75*
G02*
X140145200Y-134356000I0J-76200D01*
G01*
G37*
G36*
G01*
X140145200Y-135626000D02*
X140145200Y-136276000D01*
G75*
G02*
X140069000Y-136352200I-76200J0D01*
G01*
X137269000Y-136352200D01*
G75*
G02*
X137192800Y-136276000I0J76200D01*
G01*
X137192800Y-135626000D01*
G75*
G02*
X137269000Y-135549800I76200J0D01*
G01*
X140069000Y-135549800D01*
G75*
G02*
X140145200Y-135626000I0J-76200D01*
G01*
G37*
G36*
G01*
X140145200Y-136896000D02*
X140145200Y-137546000D01*
G75*
G02*
X140069000Y-137622200I-76200J0D01*
G01*
X137269000Y-137622200D01*
G75*
G02*
X137192800Y-137546000I0J76200D01*
G01*
X137192800Y-136896000D01*
G75*
G02*
X137269000Y-136819800I76200J0D01*
G01*
X140069000Y-136819800D01*
G75*
G02*
X140145200Y-136896000I0J-76200D01*
G01*
G37*
G36*
G01*
X152668200Y-218559000D02*
X152668200Y-219459000D01*
G75*
G02*
X152342000Y-219785200I-326200J0D01*
G01*
X151817000Y-219785200D01*
G75*
G02*
X151490800Y-219459000I0J326200D01*
G01*
X151490800Y-218559000D01*
G75*
G02*
X151817000Y-218232800I326200J0D01*
G01*
X152342000Y-218232800D01*
G75*
G02*
X152668200Y-218559000I0J-326200D01*
G01*
G37*
G36*
G01*
X150843200Y-218559000D02*
X150843200Y-219459000D01*
G75*
G02*
X150517000Y-219785200I-326200J0D01*
G01*
X149992000Y-219785200D01*
G75*
G02*
X149665800Y-219459000I0J326200D01*
G01*
X149665800Y-218559000D01*
G75*
G02*
X149992000Y-218232800I326200J0D01*
G01*
X150517000Y-218232800D01*
G75*
G02*
X150843200Y-218559000I0J-326200D01*
G01*
G37*
X185330000Y-126680000D03*
G36*
G01*
X143569800Y-140719000D02*
X143569800Y-139819000D01*
G75*
G02*
X143896000Y-139492800I326200J0D01*
G01*
X144421000Y-139492800D01*
G75*
G02*
X144747200Y-139819000I0J-326200D01*
G01*
X144747200Y-140719000D01*
G75*
G02*
X144421000Y-141045200I-326200J0D01*
G01*
X143896000Y-141045200D01*
G75*
G02*
X143569800Y-140719000I0J326200D01*
G01*
G37*
G36*
G01*
X145394800Y-140719000D02*
X145394800Y-139819000D01*
G75*
G02*
X145721000Y-139492800I326200J0D01*
G01*
X146246000Y-139492800D01*
G75*
G02*
X146572200Y-139819000I0J-326200D01*
G01*
X146572200Y-140719000D01*
G75*
G02*
X146246000Y-141045200I-326200J0D01*
G01*
X145721000Y-141045200D01*
G75*
G02*
X145394800Y-140719000I0J326200D01*
G01*
G37*
G36*
G01*
X151738500Y-135798600D02*
X150341500Y-135798600D01*
G75*
G02*
X150265300Y-135722400I0J76200D01*
G01*
X150265300Y-134020600D01*
G75*
G02*
X150341500Y-133944400I76200J0D01*
G01*
X151738500Y-133944400D01*
G75*
G02*
X151814700Y-134020600I0J-76200D01*
G01*
X151814700Y-135722400D01*
G75*
G02*
X151738500Y-135798600I-76200J0D01*
G01*
G37*
G36*
G01*
X154278500Y-135798600D02*
X152881500Y-135798600D01*
G75*
G02*
X152805300Y-135722400I0J76200D01*
G01*
X152805300Y-134020600D01*
G75*
G02*
X152881500Y-133944400I76200J0D01*
G01*
X154278500Y-133944400D01*
G75*
G02*
X154354700Y-134020600I0J-76200D01*
G01*
X154354700Y-135722400D01*
G75*
G02*
X154278500Y-135798600I-76200J0D01*
G01*
G37*
G36*
G01*
X154278500Y-126781600D02*
X152881500Y-126781600D01*
G75*
G02*
X152805300Y-126705400I0J76200D01*
G01*
X152805300Y-125003600D01*
G75*
G02*
X152881500Y-124927400I76200J0D01*
G01*
X154278500Y-124927400D01*
G75*
G02*
X154354700Y-125003600I0J-76200D01*
G01*
X154354700Y-126705400D01*
G75*
G02*
X154278500Y-126781600I-76200J0D01*
G01*
G37*
G36*
G01*
X151738500Y-126781600D02*
X150341500Y-126781600D01*
G75*
G02*
X150265300Y-126705400I0J76200D01*
G01*
X150265300Y-125003600D01*
G75*
G02*
X150341500Y-124927400I76200J0D01*
G01*
X151738500Y-124927400D01*
G75*
G02*
X151814700Y-125003600I0J-76200D01*
G01*
X151814700Y-126705400D01*
G75*
G02*
X151738500Y-126781600I-76200J0D01*
G01*
G37*
X185330000Y-45400000D03*
G36*
G01*
X151316800Y-181359000D02*
X151316800Y-180459000D01*
G75*
G02*
X151643000Y-180132800I326200J0D01*
G01*
X152168000Y-180132800D01*
G75*
G02*
X152494200Y-180459000I0J-326200D01*
G01*
X152494200Y-181359000D01*
G75*
G02*
X152168000Y-181685200I-326200J0D01*
G01*
X151643000Y-181685200D01*
G75*
G02*
X151316800Y-181359000I0J326200D01*
G01*
G37*
G36*
G01*
X153141800Y-181359000D02*
X153141800Y-180459000D01*
G75*
G02*
X153468000Y-180132800I326200J0D01*
G01*
X153993000Y-180132800D01*
G75*
G02*
X154319200Y-180459000I0J-326200D01*
G01*
X154319200Y-181359000D01*
G75*
G02*
X153993000Y-181685200I-326200J0D01*
G01*
X153468000Y-181685200D01*
G75*
G02*
X153141800Y-181359000I0J326200D01*
G01*
G37*
X185330000Y-86886666D03*
G36*
G01*
X124202400Y-167206200D02*
X122302400Y-167206200D01*
G75*
G02*
X122226200Y-167130000I0J76200D01*
G01*
X122226200Y-165730000D01*
G75*
G02*
X122302400Y-165653800I76200J0D01*
G01*
X124202400Y-165653800D01*
G75*
G02*
X124278600Y-165730000I0J-76200D01*
G01*
X124278600Y-167130000D01*
G75*
G02*
X124202400Y-167206200I-76200J0D01*
G01*
G37*
G36*
G01*
X124202400Y-163906200D02*
X122302400Y-163906200D01*
G75*
G02*
X122226200Y-163830000I0J76200D01*
G01*
X122226200Y-162430000D01*
G75*
G02*
X122302400Y-162353800I76200J0D01*
G01*
X124202400Y-162353800D01*
G75*
G02*
X124278600Y-162430000I0J-76200D01*
G01*
X124278600Y-163830000D01*
G75*
G02*
X124202400Y-163906200I-76200J0D01*
G01*
G37*
G36*
G01*
X133547000Y-180017800D02*
X134497000Y-180017800D01*
G75*
G02*
X134823200Y-180344000I0J-326200D01*
G01*
X134823200Y-180844000D01*
G75*
G02*
X134497000Y-181170200I-326200J0D01*
G01*
X133547000Y-181170200D01*
G75*
G02*
X133220800Y-180844000I0J326200D01*
G01*
X133220800Y-180344000D01*
G75*
G02*
X133547000Y-180017800I326200J0D01*
G01*
G37*
G36*
G01*
X133547000Y-181917800D02*
X134497000Y-181917800D01*
G75*
G02*
X134823200Y-182244000I0J-326200D01*
G01*
X134823200Y-182744000D01*
G75*
G02*
X134497000Y-183070200I-326200J0D01*
G01*
X133547000Y-183070200D01*
G75*
G02*
X133220800Y-182744000I0J326200D01*
G01*
X133220800Y-182244000D01*
G75*
G02*
X133547000Y-181917800I326200J0D01*
G01*
G37*
X185330000Y-47940000D03*
X111670000Y-207960000D03*
D18*
X111670000Y-233360000D03*
D11*
X162815500Y-116667000D03*
X174245500Y-116667000D03*
G36*
G01*
X173801700Y-122267000D02*
X173801700Y-123767000D01*
G75*
G02*
X173725500Y-123843200I-76200J0D01*
G01*
X172225500Y-123843200D01*
G75*
G02*
X172149300Y-123767000I0J76200D01*
G01*
X172149300Y-122267000D01*
G75*
G02*
X172225500Y-122190800I76200J0D01*
G01*
X173725500Y-122190800D01*
G75*
G02*
X173801700Y-122267000I0J-76200D01*
G01*
G37*
D12*
X171705500Y-125557000D03*
X170435500Y-123017000D03*
X169165500Y-125557000D03*
X167895500Y-123017000D03*
X166625500Y-125557000D03*
X165355500Y-123017000D03*
X164085500Y-125557000D03*
D10*
X148076667Y-68260000D03*
G36*
G01*
X156744000Y-45756800D02*
X158544000Y-45756800D01*
G75*
G02*
X158620200Y-45833000I0J-76200D01*
G01*
X158620200Y-48333000D01*
G75*
G02*
X158544000Y-48409200I-76200J0D01*
G01*
X156744000Y-48409200D01*
G75*
G02*
X156667800Y-48333000I0J76200D01*
G01*
X156667800Y-45833000D01*
G75*
G02*
X156744000Y-45756800I76200J0D01*
G01*
G37*
G36*
G01*
X156744000Y-49756800D02*
X158544000Y-49756800D01*
G75*
G02*
X158620200Y-49833000I0J-76200D01*
G01*
X158620200Y-52333000D01*
G75*
G02*
X158544000Y-52409200I-76200J0D01*
G01*
X156744000Y-52409200D01*
G75*
G02*
X156667800Y-52333000I0J76200D01*
G01*
X156667800Y-49833000D01*
G75*
G02*
X156744000Y-49756800I76200J0D01*
G01*
G37*
G36*
G01*
X136410000Y-73086000D02*
X136410000Y-74610000D01*
G75*
G02*
X136308000Y-74712000I-102000J0D01*
G01*
X134784000Y-74712000D01*
G75*
G02*
X134682000Y-74610000I0J102000D01*
G01*
X134682000Y-73086000D01*
G75*
G02*
X134784000Y-72984000I102000J0D01*
G01*
X136308000Y-72984000D01*
G75*
G02*
X136410000Y-73086000I0J-102000D01*
G01*
G37*
D17*
X122846000Y-73848000D03*
G36*
G01*
X117486000Y-210483800D02*
X119986000Y-210483800D01*
G75*
G02*
X120062200Y-210560000I0J-76200D01*
G01*
X120062200Y-213060000D01*
G75*
G02*
X119986000Y-213136200I-76200J0D01*
G01*
X117486000Y-213136200D01*
G75*
G02*
X117409800Y-213060000I0J76200D01*
G01*
X117409800Y-210560000D01*
G75*
G02*
X117486000Y-210483800I76200J0D01*
G01*
G37*
D16*
X118736000Y-216810000D03*
D13*
X181012000Y-61402000D03*
D10*
X149770000Y-228280000D03*
X148923333Y-65720000D03*
D11*
X174245500Y-76027000D03*
X162815500Y-76027000D03*
G36*
G01*
X173801700Y-81627000D02*
X173801700Y-83127000D01*
G75*
G02*
X173725500Y-83203200I-76200J0D01*
G01*
X172225500Y-83203200D01*
G75*
G02*
X172149300Y-83127000I0J76200D01*
G01*
X172149300Y-81627000D01*
G75*
G02*
X172225500Y-81550800I76200J0D01*
G01*
X173725500Y-81550800D01*
G75*
G02*
X173801700Y-81627000I0J-76200D01*
G01*
G37*
D12*
X171705500Y-84917000D03*
X170435500Y-82377000D03*
X169165500Y-84917000D03*
X167895500Y-82377000D03*
X166625500Y-84917000D03*
X165355500Y-82377000D03*
X164085500Y-84917000D03*
D10*
X185330000Y-128373333D03*
G36*
G01*
X139587200Y-58539000D02*
X139587200Y-59439000D01*
G75*
G02*
X139261000Y-59765200I-326200J0D01*
G01*
X138736000Y-59765200D01*
G75*
G02*
X138409800Y-59439000I0J326200D01*
G01*
X138409800Y-58539000D01*
G75*
G02*
X138736000Y-58212800I326200J0D01*
G01*
X139261000Y-58212800D01*
G75*
G02*
X139587200Y-58539000I0J-326200D01*
G01*
G37*
G36*
G01*
X137762200Y-58539000D02*
X137762200Y-59439000D01*
G75*
G02*
X137436000Y-59765200I-326200J0D01*
G01*
X136911000Y-59765200D01*
G75*
G02*
X136584800Y-59439000I0J326200D01*
G01*
X136584800Y-58539000D01*
G75*
G02*
X136911000Y-58212800I326200J0D01*
G01*
X137436000Y-58212800D01*
G75*
G02*
X137762200Y-58539000I0J-326200D01*
G01*
G37*
G36*
G01*
X136685250Y-202115800D02*
X137635250Y-202115800D01*
G75*
G02*
X137961450Y-202442000I0J-326200D01*
G01*
X137961450Y-202942000D01*
G75*
G02*
X137635250Y-203268200I-326200J0D01*
G01*
X136685250Y-203268200D01*
G75*
G02*
X136359050Y-202942000I0J326200D01*
G01*
X136359050Y-202442000D01*
G75*
G02*
X136685250Y-202115800I326200J0D01*
G01*
G37*
G36*
G01*
X136685250Y-204015800D02*
X137635250Y-204015800D01*
G75*
G02*
X137961450Y-204342000I0J-326200D01*
G01*
X137961450Y-204842000D01*
G75*
G02*
X137635250Y-205168200I-326200J0D01*
G01*
X136685250Y-205168200D01*
G75*
G02*
X136359050Y-204842000I0J326200D01*
G01*
X136359050Y-204342000D01*
G75*
G02*
X136685250Y-204015800I326200J0D01*
G01*
G37*
X148923333Y-147000000D03*
G36*
G01*
X142877700Y-167805000D02*
X142877700Y-168105000D01*
G75*
G02*
X142651500Y-168331200I-226200J0D01*
G01*
X141626500Y-168331200D01*
G75*
G02*
X141400300Y-168105000I0J226200D01*
G01*
X141400300Y-167805000D01*
G75*
G02*
X141626500Y-167578800I226200J0D01*
G01*
X142651500Y-167578800D01*
G75*
G02*
X142877700Y-167805000I0J-226200D01*
G01*
G37*
G36*
G01*
X142877700Y-166855000D02*
X142877700Y-167155000D01*
G75*
G02*
X142651500Y-167381200I-226200J0D01*
G01*
X141626500Y-167381200D01*
G75*
G02*
X141400300Y-167155000I0J226200D01*
G01*
X141400300Y-166855000D01*
G75*
G02*
X141626500Y-166628800I226200J0D01*
G01*
X142651500Y-166628800D01*
G75*
G02*
X142877700Y-166855000I0J-226200D01*
G01*
G37*
G36*
G01*
X142877700Y-165905000D02*
X142877700Y-166205000D01*
G75*
G02*
X142651500Y-166431200I-226200J0D01*
G01*
X141626500Y-166431200D01*
G75*
G02*
X141400300Y-166205000I0J226200D01*
G01*
X141400300Y-165905000D01*
G75*
G02*
X141626500Y-165678800I226200J0D01*
G01*
X142651500Y-165678800D01*
G75*
G02*
X142877700Y-165905000I0J-226200D01*
G01*
G37*
G36*
G01*
X140602700Y-165905000D02*
X140602700Y-166205000D01*
G75*
G02*
X140376500Y-166431200I-226200J0D01*
G01*
X139351500Y-166431200D01*
G75*
G02*
X139125300Y-166205000I0J226200D01*
G01*
X139125300Y-165905000D01*
G75*
G02*
X139351500Y-165678800I226200J0D01*
G01*
X140376500Y-165678800D01*
G75*
G02*
X140602700Y-165905000I0J-226200D01*
G01*
G37*
G36*
G01*
X140602700Y-167805000D02*
X140602700Y-168105000D01*
G75*
G02*
X140376500Y-168331200I-226200J0D01*
G01*
X139351500Y-168331200D01*
G75*
G02*
X139125300Y-168105000I0J226200D01*
G01*
X139125300Y-167805000D01*
G75*
G02*
X139351500Y-167578800I226200J0D01*
G01*
X140376500Y-167578800D01*
G75*
G02*
X140602700Y-167805000I0J-226200D01*
G01*
G37*
X111670000Y-46246667D03*
X147230000Y-68260000D03*
G36*
G01*
X128095000Y-55641200D02*
X126995000Y-55641200D01*
G75*
G02*
X126668800Y-55315000I0J326200D01*
G01*
X126668800Y-52315000D01*
G75*
G02*
X126995000Y-51988800I326200J0D01*
G01*
X128095000Y-51988800D01*
G75*
G02*
X128421200Y-52315000I0J-326200D01*
G01*
X128421200Y-55315000D01*
G75*
G02*
X128095000Y-55641200I-326200J0D01*
G01*
G37*
G36*
G01*
X128095000Y-50241200D02*
X126995000Y-50241200D01*
G75*
G02*
X126668800Y-49915000I0J326200D01*
G01*
X126668800Y-46915000D01*
G75*
G02*
X126995000Y-46588800I326200J0D01*
G01*
X128095000Y-46588800D01*
G75*
G02*
X128421200Y-46915000I0J-326200D01*
G01*
X128421200Y-49915000D01*
G75*
G02*
X128095000Y-50241200I-326200J0D01*
G01*
G37*
G36*
G01*
X158168200Y-155610000D02*
X158168200Y-158110000D01*
G75*
G02*
X158092000Y-158186200I-76200J0D01*
G01*
X155592000Y-158186200D01*
G75*
G02*
X155515800Y-158110000I0J76200D01*
G01*
X155515800Y-155610000D01*
G75*
G02*
X155592000Y-155533800I76200J0D01*
G01*
X158092000Y-155533800D01*
G75*
G02*
X158168200Y-155610000I0J-76200D01*
G01*
G37*
D16*
X151842000Y-156860000D03*
D10*
X111670000Y-128373333D03*
X148076667Y-27620000D03*
G36*
G01*
X130294000Y-57921300D02*
X130844000Y-57921300D01*
G75*
G02*
X130920200Y-57997500I0J-76200D01*
G01*
X130920200Y-59297500D01*
G75*
G02*
X130844000Y-59373700I-76200J0D01*
G01*
X130294000Y-59373700D01*
G75*
G02*
X130217800Y-59297500I0J76200D01*
G01*
X130217800Y-57997500D01*
G75*
G02*
X130294000Y-57921300I76200J0D01*
G01*
G37*
G36*
X130052373Y-62646480D02*
G01*
X130007232Y-62672542D01*
X129994000Y-62673700D01*
X128144000Y-62673700D01*
X128095020Y-62655873D01*
X128068958Y-62610732D01*
X128067800Y-62597500D01*
X128067800Y-59997500D01*
X128085627Y-59948520D01*
X128090118Y-59943618D01*
X128592800Y-59440936D01*
X128592800Y-57997500D01*
X128610627Y-57948520D01*
X128655768Y-57922458D01*
X128669000Y-57921300D01*
X129469000Y-57921300D01*
X129517980Y-57939127D01*
X129544042Y-57984268D01*
X129545200Y-57997500D01*
X129545200Y-59440936D01*
X130047882Y-59943618D01*
X130069910Y-59990859D01*
X130070200Y-59997500D01*
X130070200Y-62597500D01*
X130052373Y-62646480D01*
G37*
G36*
G01*
X127294000Y-57921300D02*
X127844000Y-57921300D01*
G75*
G02*
X127920200Y-57997500I0J-76200D01*
G01*
X127920200Y-59297500D01*
G75*
G02*
X127844000Y-59373700I-76200J0D01*
G01*
X127294000Y-59373700D01*
G75*
G02*
X127217800Y-59297500I0J76200D01*
G01*
X127217800Y-57997500D01*
G75*
G02*
X127294000Y-57921300I76200J0D01*
G01*
G37*
D11*
X162759500Y-139233000D03*
X174189500Y-139233000D03*
G36*
G01*
X163203300Y-133633000D02*
X163203300Y-132133000D01*
G75*
G02*
X163279500Y-132056800I76200J0D01*
G01*
X164779500Y-132056800D01*
G75*
G02*
X164855700Y-132133000I0J-76200D01*
G01*
X164855700Y-133633000D01*
G75*
G02*
X164779500Y-133709200I-76200J0D01*
G01*
X163279500Y-133709200D01*
G75*
G02*
X163203300Y-133633000I0J76200D01*
G01*
G37*
D12*
X165299500Y-130343000D03*
X166569500Y-132883000D03*
X167839500Y-130343000D03*
X169109500Y-132883000D03*
X170379500Y-130343000D03*
X171649500Y-132883000D03*
X172919500Y-130343000D03*
D14*
X133641000Y-87310000D03*
X135673000Y-87310000D03*
X134657000Y-92390000D03*
D15*
X135292000Y-91120000D03*
X134022000Y-91120000D03*
X135292000Y-89850000D03*
X134022000Y-89850000D03*
X135292000Y-88580000D03*
X134022000Y-88580000D03*
G36*
G01*
X152668200Y-96639000D02*
X152668200Y-97539000D01*
G75*
G02*
X152342000Y-97865200I-326200J0D01*
G01*
X151817000Y-97865200D01*
G75*
G02*
X151490800Y-97539000I0J326200D01*
G01*
X151490800Y-96639000D01*
G75*
G02*
X151817000Y-96312800I326200J0D01*
G01*
X152342000Y-96312800D01*
G75*
G02*
X152668200Y-96639000I0J-326200D01*
G01*
G37*
G36*
G01*
X150843200Y-96639000D02*
X150843200Y-97539000D01*
G75*
G02*
X150517000Y-97865200I-326200J0D01*
G01*
X149992000Y-97865200D01*
G75*
G02*
X149665800Y-97539000I0J326200D01*
G01*
X149665800Y-96639000D01*
G75*
G02*
X149992000Y-96312800I326200J0D01*
G01*
X150517000Y-96312800D01*
G75*
G02*
X150843200Y-96639000I0J-326200D01*
G01*
G37*
G36*
G01*
X143569800Y-183905250D02*
X143569800Y-182992750D01*
G75*
G02*
X143889750Y-182672800I319950J0D01*
G01*
X144377250Y-182672800D01*
G75*
G02*
X144697200Y-182992750I0J-319950D01*
G01*
X144697200Y-183905250D01*
G75*
G02*
X144377250Y-184225200I-319950J0D01*
G01*
X143889750Y-184225200D01*
G75*
G02*
X143569800Y-183905250I0J319950D01*
G01*
G37*
G36*
G01*
X145444800Y-183905250D02*
X145444800Y-182992750D01*
G75*
G02*
X145764750Y-182672800I319950J0D01*
G01*
X146252250Y-182672800D01*
G75*
G02*
X146572200Y-182992750I0J-319950D01*
G01*
X146572200Y-183905250D01*
G75*
G02*
X146252250Y-184225200I-319950J0D01*
G01*
X145764750Y-184225200D01*
G75*
G02*
X145444800Y-183905250I0J319950D01*
G01*
G37*
D10*
X149770000Y-106360000D03*
X149770000Y-190180000D03*
X148076667Y-106360000D03*
G36*
G01*
X151316800Y-61985250D02*
X151316800Y-61072750D01*
G75*
G02*
X151636750Y-60752800I319950J0D01*
G01*
X152124250Y-60752800D01*
G75*
G02*
X152444200Y-61072750I0J-319950D01*
G01*
X152444200Y-61985250D01*
G75*
G02*
X152124250Y-62305200I-319950J0D01*
G01*
X151636750Y-62305200D01*
G75*
G02*
X151316800Y-61985250I0J319950D01*
G01*
G37*
G36*
G01*
X153191800Y-61985250D02*
X153191800Y-61072750D01*
G75*
G02*
X153511750Y-60752800I319950J0D01*
G01*
X153999250Y-60752800D01*
G75*
G02*
X154319200Y-61072750I0J-319950D01*
G01*
X154319200Y-61985250D01*
G75*
G02*
X153999250Y-62305200I-319950J0D01*
G01*
X153511750Y-62305200D01*
G75*
G02*
X153191800Y-61985250I0J319950D01*
G01*
G37*
G36*
G01*
X139226800Y-49304000D02*
X139226800Y-48354000D01*
G75*
G02*
X139553000Y-48027800I326200J0D01*
G01*
X140053000Y-48027800D01*
G75*
G02*
X140379200Y-48354000I0J-326200D01*
G01*
X140379200Y-49304000D01*
G75*
G02*
X140053000Y-49630200I-326200J0D01*
G01*
X139553000Y-49630200D01*
G75*
G02*
X139226800Y-49304000I0J326200D01*
G01*
G37*
G36*
G01*
X141126800Y-49304000D02*
X141126800Y-48354000D01*
G75*
G02*
X141453000Y-48027800I326200J0D01*
G01*
X141953000Y-48027800D01*
G75*
G02*
X142279200Y-48354000I0J-326200D01*
G01*
X142279200Y-49304000D01*
G75*
G02*
X141953000Y-49630200I-326200J0D01*
G01*
X141453000Y-49630200D01*
G75*
G02*
X141126800Y-49304000I0J326200D01*
G01*
G37*
G36*
G01*
X136410000Y-32446000D02*
X136410000Y-33970000D01*
G75*
G02*
X136308000Y-34072000I-102000J0D01*
G01*
X134784000Y-34072000D01*
G75*
G02*
X134682000Y-33970000I0J102000D01*
G01*
X134682000Y-32446000D01*
G75*
G02*
X134784000Y-32344000I102000J0D01*
G01*
X136308000Y-32344000D01*
G75*
G02*
X136410000Y-32446000I0J-102000D01*
G01*
G37*
D17*
X122846000Y-33208000D03*
G36*
G01*
X146827700Y-170229250D02*
X146827700Y-171179250D01*
G75*
G02*
X146501500Y-171505450I-326200J0D01*
G01*
X146001500Y-171505450D01*
G75*
G02*
X145675300Y-171179250I0J326200D01*
G01*
X145675300Y-170229250D01*
G75*
G02*
X146001500Y-169903050I326200J0D01*
G01*
X146501500Y-169903050D01*
G75*
G02*
X146827700Y-170229250I0J-326200D01*
G01*
G37*
G36*
G01*
X144927700Y-170229250D02*
X144927700Y-171179250D01*
G75*
G02*
X144601500Y-171505450I-326200J0D01*
G01*
X144101500Y-171505450D01*
G75*
G02*
X143775300Y-171179250I0J326200D01*
G01*
X143775300Y-170229250D01*
G75*
G02*
X144101500Y-169903050I326200J0D01*
G01*
X144601500Y-169903050D01*
G75*
G02*
X144927700Y-170229250I0J-326200D01*
G01*
G37*
G36*
G01*
X143569800Y-221999000D02*
X143569800Y-221099000D01*
G75*
G02*
X143896000Y-220772800I326200J0D01*
G01*
X144421000Y-220772800D01*
G75*
G02*
X144747200Y-221099000I0J-326200D01*
G01*
X144747200Y-221999000D01*
G75*
G02*
X144421000Y-222325200I-326200J0D01*
G01*
X143896000Y-222325200D01*
G75*
G02*
X143569800Y-221999000I0J326200D01*
G01*
G37*
G36*
G01*
X145394800Y-221999000D02*
X145394800Y-221099000D01*
G75*
G02*
X145721000Y-220772800I326200J0D01*
G01*
X146246000Y-220772800D01*
G75*
G02*
X146572200Y-221099000I0J-326200D01*
G01*
X146572200Y-221999000D01*
G75*
G02*
X146246000Y-222325200I-326200J0D01*
G01*
X145721000Y-222325200D01*
G75*
G02*
X145394800Y-221999000I0J326200D01*
G01*
G37*
G36*
G01*
X151316800Y-59439000D02*
X151316800Y-58539000D01*
G75*
G02*
X151643000Y-58212800I326200J0D01*
G01*
X152168000Y-58212800D01*
G75*
G02*
X152494200Y-58539000I0J-326200D01*
G01*
X152494200Y-59439000D01*
G75*
G02*
X152168000Y-59765200I-326200J0D01*
G01*
X151643000Y-59765200D01*
G75*
G02*
X151316800Y-59439000I0J326200D01*
G01*
G37*
G36*
G01*
X153141800Y-59439000D02*
X153141800Y-58539000D01*
G75*
G02*
X153468000Y-58212800I326200J0D01*
G01*
X153993000Y-58212800D01*
G75*
G02*
X154319200Y-58539000I0J-326200D01*
G01*
X154319200Y-59439000D01*
G75*
G02*
X153993000Y-59765200I-326200J0D01*
G01*
X153468000Y-59765200D01*
G75*
G02*
X153141800Y-59439000I0J326200D01*
G01*
G37*
G36*
G01*
X117486000Y-129203800D02*
X119986000Y-129203800D01*
G75*
G02*
X120062200Y-129280000I0J-76200D01*
G01*
X120062200Y-131780000D01*
G75*
G02*
X119986000Y-131856200I-76200J0D01*
G01*
X117486000Y-131856200D01*
G75*
G02*
X117409800Y-131780000I0J76200D01*
G01*
X117409800Y-129280000D01*
G75*
G02*
X117486000Y-129203800I76200J0D01*
G01*
G37*
D16*
X118736000Y-135530000D03*
D13*
X181012000Y-113218000D03*
X115988000Y-223962000D03*
G36*
G01*
X130294000Y-220481300D02*
X130844000Y-220481300D01*
G75*
G02*
X130920200Y-220557500I0J-76200D01*
G01*
X130920200Y-221857500D01*
G75*
G02*
X130844000Y-221933700I-76200J0D01*
G01*
X130294000Y-221933700D01*
G75*
G02*
X130217800Y-221857500I0J76200D01*
G01*
X130217800Y-220557500D01*
G75*
G02*
X130294000Y-220481300I76200J0D01*
G01*
G37*
G36*
X130052373Y-225206480D02*
G01*
X130007232Y-225232542D01*
X129994000Y-225233700D01*
X128144000Y-225233700D01*
X128095020Y-225215873D01*
X128068958Y-225170732D01*
X128067800Y-225157500D01*
X128067800Y-222557500D01*
X128085627Y-222508520D01*
X128090118Y-222503618D01*
X128592800Y-222000936D01*
X128592800Y-220557500D01*
X128610627Y-220508520D01*
X128655768Y-220482458D01*
X128669000Y-220481300D01*
X129469000Y-220481300D01*
X129517980Y-220499127D01*
X129544042Y-220544268D01*
X129545200Y-220557500D01*
X129545200Y-222000936D01*
X130047882Y-222503618D01*
X130069910Y-222550859D01*
X130070200Y-222557500D01*
X130070200Y-225157500D01*
X130052373Y-225206480D01*
G37*
G36*
G01*
X127294000Y-220481300D02*
X127844000Y-220481300D01*
G75*
G02*
X127920200Y-220557500I0J-76200D01*
G01*
X127920200Y-221857500D01*
G75*
G02*
X127844000Y-221933700I-76200J0D01*
G01*
X127294000Y-221933700D01*
G75*
G02*
X127217800Y-221857500I0J76200D01*
G01*
X127217800Y-220557500D01*
G75*
G02*
X127294000Y-220481300I76200J0D01*
G01*
G37*
G36*
G01*
X151316800Y-100079000D02*
X151316800Y-99179000D01*
G75*
G02*
X151643000Y-98852800I326200J0D01*
G01*
X152168000Y-98852800D01*
G75*
G02*
X152494200Y-99179000I0J-326200D01*
G01*
X152494200Y-100079000D01*
G75*
G02*
X152168000Y-100405200I-326200J0D01*
G01*
X151643000Y-100405200D01*
G75*
G02*
X151316800Y-100079000I0J326200D01*
G01*
G37*
G36*
G01*
X153141800Y-100079000D02*
X153141800Y-99179000D01*
G75*
G02*
X153468000Y-98852800I326200J0D01*
G01*
X153993000Y-98852800D01*
G75*
G02*
X154319200Y-99179000I0J-326200D01*
G01*
X154319200Y-100079000D01*
G75*
G02*
X153993000Y-100405200I-326200J0D01*
G01*
X153468000Y-100405200D01*
G75*
G02*
X153141800Y-100079000I0J326200D01*
G01*
G37*
G36*
G01*
X146851200Y-83660000D02*
X146851200Y-84610000D01*
G75*
G02*
X146525000Y-84936200I-326200J0D01*
G01*
X146025000Y-84936200D01*
G75*
G02*
X145698800Y-84610000I0J326200D01*
G01*
X145698800Y-83660000D01*
G75*
G02*
X146025000Y-83333800I326200J0D01*
G01*
X146525000Y-83333800D01*
G75*
G02*
X146851200Y-83660000I0J-326200D01*
G01*
G37*
G36*
G01*
X144951200Y-83660000D02*
X144951200Y-84610000D01*
G75*
G02*
X144625000Y-84936200I-326200J0D01*
G01*
X144125000Y-84936200D01*
G75*
G02*
X143798800Y-84610000I0J326200D01*
G01*
X143798800Y-83660000D01*
G75*
G02*
X144125000Y-83333800I326200J0D01*
G01*
X144625000Y-83333800D01*
G75*
G02*
X144951200Y-83660000I0J-326200D01*
G01*
G37*
G36*
G01*
X130294000Y-98561300D02*
X130844000Y-98561300D01*
G75*
G02*
X130920200Y-98637500I0J-76200D01*
G01*
X130920200Y-99937500D01*
G75*
G02*
X130844000Y-100013700I-76200J0D01*
G01*
X130294000Y-100013700D01*
G75*
G02*
X130217800Y-99937500I0J76200D01*
G01*
X130217800Y-98637500D01*
G75*
G02*
X130294000Y-98561300I76200J0D01*
G01*
G37*
G36*
X130052373Y-103286480D02*
G01*
X130007232Y-103312542D01*
X129994000Y-103313700D01*
X128144000Y-103313700D01*
X128095020Y-103295873D01*
X128068958Y-103250732D01*
X128067800Y-103237500D01*
X128067800Y-100637500D01*
X128085627Y-100588520D01*
X128090118Y-100583618D01*
X128592800Y-100080936D01*
X128592800Y-98637500D01*
X128610627Y-98588520D01*
X128655768Y-98562458D01*
X128669000Y-98561300D01*
X129469000Y-98561300D01*
X129517980Y-98579127D01*
X129544042Y-98624268D01*
X129545200Y-98637500D01*
X129545200Y-100080936D01*
X130047882Y-100583618D01*
X130069910Y-100630859D01*
X130070200Y-100637500D01*
X130070200Y-103237500D01*
X130052373Y-103286480D01*
G37*
G36*
G01*
X127294000Y-98561300D02*
X127844000Y-98561300D01*
G75*
G02*
X127920200Y-98637500I0J-76200D01*
G01*
X127920200Y-99937500D01*
G75*
G02*
X127844000Y-100013700I-76200J0D01*
G01*
X127294000Y-100013700D01*
G75*
G02*
X127217800Y-99937500I0J76200D01*
G01*
X127217800Y-98637500D01*
G75*
G02*
X127294000Y-98561300I76200J0D01*
G01*
G37*
D11*
X174189500Y-179873000D03*
X162759500Y-179873000D03*
G36*
G01*
X163203300Y-174273000D02*
X163203300Y-172773000D01*
G75*
G02*
X163279500Y-172696800I76200J0D01*
G01*
X164779500Y-172696800D01*
G75*
G02*
X164855700Y-172773000I0J-76200D01*
G01*
X164855700Y-174273000D01*
G75*
G02*
X164779500Y-174349200I-76200J0D01*
G01*
X163279500Y-174349200D01*
G75*
G02*
X163203300Y-174273000I0J76200D01*
G01*
G37*
D12*
X165299500Y-170983000D03*
X166569500Y-173523000D03*
X167839500Y-170983000D03*
X169109500Y-173523000D03*
X170379500Y-170983000D03*
X171649500Y-173523000D03*
X172919500Y-170983000D03*
G36*
G01*
X124202400Y-45286200D02*
X122302400Y-45286200D01*
G75*
G02*
X122226200Y-45210000I0J76200D01*
G01*
X122226200Y-43810000D01*
G75*
G02*
X122302400Y-43733800I76200J0D01*
G01*
X124202400Y-43733800D01*
G75*
G02*
X124278600Y-43810000I0J-76200D01*
G01*
X124278600Y-45210000D01*
G75*
G02*
X124202400Y-45286200I-76200J0D01*
G01*
G37*
G36*
G01*
X124202400Y-41986200D02*
X122302400Y-41986200D01*
G75*
G02*
X122226200Y-41910000I0J76200D01*
G01*
X122226200Y-40510000D01*
G75*
G02*
X122302400Y-40433800I76200J0D01*
G01*
X124202400Y-40433800D01*
G75*
G02*
X124278600Y-40510000I0J-76200D01*
G01*
X124278600Y-41910000D01*
G75*
G02*
X124202400Y-41986200I-76200J0D01*
G01*
G37*
G36*
G01*
X139587200Y-180459000D02*
X139587200Y-181359000D01*
G75*
G02*
X139261000Y-181685200I-326200J0D01*
G01*
X138736000Y-181685200D01*
G75*
G02*
X138409800Y-181359000I0J326200D01*
G01*
X138409800Y-180459000D01*
G75*
G02*
X138736000Y-180132800I326200J0D01*
G01*
X139261000Y-180132800D01*
G75*
G02*
X139587200Y-180459000I0J-326200D01*
G01*
G37*
G36*
G01*
X137762200Y-180459000D02*
X137762200Y-181359000D01*
G75*
G02*
X137436000Y-181685200I-326200J0D01*
G01*
X136911000Y-181685200D01*
G75*
G02*
X136584800Y-181359000I0J326200D01*
G01*
X136584800Y-180459000D01*
G75*
G02*
X136911000Y-180132800I326200J0D01*
G01*
X137436000Y-180132800D01*
G75*
G02*
X137762200Y-180459000I0J-326200D01*
G01*
G37*
D10*
X111670000Y-86886666D03*
G36*
G01*
X157205200Y-40388000D02*
X157205200Y-42538000D01*
G75*
G02*
X156879000Y-42864200I-326200J0D01*
G01*
X156254000Y-42864200D01*
G75*
G02*
X155927800Y-42538000I0J326200D01*
G01*
X155927800Y-40388000D01*
G75*
G02*
X156254000Y-40061800I326200J0D01*
G01*
X156879000Y-40061800D01*
G75*
G02*
X157205200Y-40388000I0J-326200D01*
G01*
G37*
G36*
G01*
X154280200Y-40388000D02*
X154280200Y-42538000D01*
G75*
G02*
X153954000Y-42864200I-326200J0D01*
G01*
X153329000Y-42864200D01*
G75*
G02*
X153002800Y-42538000I0J326200D01*
G01*
X153002800Y-40388000D01*
G75*
G02*
X153329000Y-40061800I326200J0D01*
G01*
X153954000Y-40061800D01*
G75*
G02*
X154280200Y-40388000I0J-326200D01*
G01*
G37*
X147230000Y-27620000D03*
G36*
G01*
X157205200Y-202948000D02*
X157205200Y-205098000D01*
G75*
G02*
X156879000Y-205424200I-326200J0D01*
G01*
X156254000Y-205424200D01*
G75*
G02*
X155927800Y-205098000I0J326200D01*
G01*
X155927800Y-202948000D01*
G75*
G02*
X156254000Y-202621800I326200J0D01*
G01*
X156879000Y-202621800D01*
G75*
G02*
X157205200Y-202948000I0J-326200D01*
G01*
G37*
G36*
G01*
X154280200Y-202948000D02*
X154280200Y-205098000D01*
G75*
G02*
X153954000Y-205424200I-326200J0D01*
G01*
X153329000Y-205424200D01*
G75*
G02*
X153002800Y-205098000I0J326200D01*
G01*
X153002800Y-202948000D01*
G75*
G02*
X153329000Y-202621800I326200J0D01*
G01*
X153954000Y-202621800D01*
G75*
G02*
X154280200Y-202948000I0J-326200D01*
G01*
G37*
X111670000Y-169013333D03*
D18*
X185330000Y-22540000D03*
D10*
X149770000Y-187640000D03*
X111670000Y-167320000D03*
G36*
G01*
X136584800Y-143265250D02*
X136584800Y-142352750D01*
G75*
G02*
X136904750Y-142032800I319950J0D01*
G01*
X137392250Y-142032800D01*
G75*
G02*
X137712200Y-142352750I0J-319950D01*
G01*
X137712200Y-143265250D01*
G75*
G02*
X137392250Y-143585200I-319950J0D01*
G01*
X136904750Y-143585200D01*
G75*
G02*
X136584800Y-143265250I0J319950D01*
G01*
G37*
G36*
G01*
X138459800Y-143265250D02*
X138459800Y-142352750D01*
G75*
G02*
X138779750Y-142032800I319950J0D01*
G01*
X139267250Y-142032800D01*
G75*
G02*
X139587200Y-142352750I0J-319950D01*
G01*
X139587200Y-143265250D01*
G75*
G02*
X139267250Y-143585200I-319950J0D01*
G01*
X138779750Y-143585200D01*
G75*
G02*
X138459800Y-143265250I0J319950D01*
G01*
G37*
G36*
G01*
X121027400Y-85926200D02*
X119127400Y-85926200D01*
G75*
G02*
X119051200Y-85850000I0J76200D01*
G01*
X119051200Y-84450000D01*
G75*
G02*
X119127400Y-84373800I76200J0D01*
G01*
X121027400Y-84373800D01*
G75*
G02*
X121103600Y-84450000I0J-76200D01*
G01*
X121103600Y-85850000D01*
G75*
G02*
X121027400Y-85926200I-76200J0D01*
G01*
G37*
G36*
G01*
X121027400Y-82626200D02*
X119127400Y-82626200D01*
G75*
G02*
X119051200Y-82550000I0J76200D01*
G01*
X119051200Y-81150000D01*
G75*
G02*
X119127400Y-81073800I76200J0D01*
G01*
X121027400Y-81073800D01*
G75*
G02*
X121103600Y-81150000I0J-76200D01*
G01*
X121103600Y-82550000D01*
G75*
G02*
X121027400Y-82626200I-76200J0D01*
G01*
G37*
G36*
G01*
X117486000Y-169843800D02*
X119986000Y-169843800D01*
G75*
G02*
X120062200Y-169920000I0J-76200D01*
G01*
X120062200Y-172420000D01*
G75*
G02*
X119986000Y-172496200I-76200J0D01*
G01*
X117486000Y-172496200D01*
G75*
G02*
X117409800Y-172420000I0J76200D01*
G01*
X117409800Y-169920000D01*
G75*
G02*
X117486000Y-169843800I76200J0D01*
G01*
G37*
D16*
X118736000Y-176170000D03*
D13*
X115988000Y-153858000D03*
G36*
G01*
X151316800Y-224545250D02*
X151316800Y-223632750D01*
G75*
G02*
X151636750Y-223312800I319950J0D01*
G01*
X152124250Y-223312800D01*
G75*
G02*
X152444200Y-223632750I0J-319950D01*
G01*
X152444200Y-224545250D01*
G75*
G02*
X152124250Y-224865200I-319950J0D01*
G01*
X151636750Y-224865200D01*
G75*
G02*
X151316800Y-224545250I0J319950D01*
G01*
G37*
G36*
G01*
X153191800Y-224545250D02*
X153191800Y-223632750D01*
G75*
G02*
X153511750Y-223312800I319950J0D01*
G01*
X153999250Y-223312800D01*
G75*
G02*
X154319200Y-223632750I0J-319950D01*
G01*
X154319200Y-224545250D01*
G75*
G02*
X153999250Y-224865200I-319950J0D01*
G01*
X153511750Y-224865200D01*
G75*
G02*
X153191800Y-224545250I0J319950D01*
G01*
G37*
G36*
G01*
X158168200Y-196250000D02*
X158168200Y-198750000D01*
G75*
G02*
X158092000Y-198826200I-76200J0D01*
G01*
X155592000Y-198826200D01*
G75*
G02*
X155515800Y-198750000I0J76200D01*
G01*
X155515800Y-196250000D01*
G75*
G02*
X155592000Y-196173800I76200J0D01*
G01*
X158092000Y-196173800D01*
G75*
G02*
X158168200Y-196250000I0J-76200D01*
G01*
G37*
D16*
X151842000Y-197500000D03*
D10*
X148076667Y-65720000D03*
G36*
G01*
X124202400Y-126566200D02*
X122302400Y-126566200D01*
G75*
G02*
X122226200Y-126490000I0J76200D01*
G01*
X122226200Y-125090000D01*
G75*
G02*
X122302400Y-125013800I76200J0D01*
G01*
X124202400Y-125013800D01*
G75*
G02*
X124278600Y-125090000I0J-76200D01*
G01*
X124278600Y-126490000D01*
G75*
G02*
X124202400Y-126566200I-76200J0D01*
G01*
G37*
G36*
G01*
X124202400Y-123266200D02*
X122302400Y-123266200D01*
G75*
G02*
X122226200Y-123190000I0J76200D01*
G01*
X122226200Y-121790000D01*
G75*
G02*
X122302400Y-121713800I76200J0D01*
G01*
X124202400Y-121713800D01*
G75*
G02*
X124278600Y-121790000I0J-76200D01*
G01*
X124278600Y-123190000D01*
G75*
G02*
X124202400Y-123266200I-76200J0D01*
G01*
G37*
G36*
G01*
X130294000Y-179841300D02*
X130844000Y-179841300D01*
G75*
G02*
X130920200Y-179917500I0J-76200D01*
G01*
X130920200Y-181217500D01*
G75*
G02*
X130844000Y-181293700I-76200J0D01*
G01*
X130294000Y-181293700D01*
G75*
G02*
X130217800Y-181217500I0J76200D01*
G01*
X130217800Y-179917500D01*
G75*
G02*
X130294000Y-179841300I76200J0D01*
G01*
G37*
G36*
X130052373Y-184566480D02*
G01*
X130007232Y-184592542D01*
X129994000Y-184593700D01*
X128144000Y-184593700D01*
X128095020Y-184575873D01*
X128068958Y-184530732D01*
X128067800Y-184517500D01*
X128067800Y-181917500D01*
X128085627Y-181868520D01*
X128090118Y-181863618D01*
X128592800Y-181360936D01*
X128592800Y-179917500D01*
X128610627Y-179868520D01*
X128655768Y-179842458D01*
X128669000Y-179841300D01*
X129469000Y-179841300D01*
X129517980Y-179859127D01*
X129544042Y-179904268D01*
X129545200Y-179917500D01*
X129545200Y-181360936D01*
X130047882Y-181863618D01*
X130069910Y-181910859D01*
X130070200Y-181917500D01*
X130070200Y-184517500D01*
X130052373Y-184566480D01*
G37*
G36*
G01*
X127294000Y-179841300D02*
X127844000Y-179841300D01*
G75*
G02*
X127920200Y-179917500I0J-76200D01*
G01*
X127920200Y-181217500D01*
G75*
G02*
X127844000Y-181293700I-76200J0D01*
G01*
X127294000Y-181293700D01*
G75*
G02*
X127217800Y-181217500I0J76200D01*
G01*
X127217800Y-179917500D01*
G75*
G02*
X127294000Y-179841300I76200J0D01*
G01*
G37*
X185330000Y-210500000D03*
D13*
X181012000Y-142682000D03*
G36*
G01*
X136410000Y-113726000D02*
X136410000Y-115250000D01*
G75*
G02*
X136308000Y-115352000I-102000J0D01*
G01*
X134784000Y-115352000D01*
G75*
G02*
X134682000Y-115250000I0J102000D01*
G01*
X134682000Y-113726000D01*
G75*
G02*
X134784000Y-113624000I102000J0D01*
G01*
X136308000Y-113624000D01*
G75*
G02*
X136410000Y-113726000I0J-102000D01*
G01*
G37*
D17*
X122846000Y-114488000D03*
D10*
X149770000Y-108900000D03*
G36*
G01*
X124202400Y-207846200D02*
X122302400Y-207846200D01*
G75*
G02*
X122226200Y-207770000I0J76200D01*
G01*
X122226200Y-206370000D01*
G75*
G02*
X122302400Y-206293800I76200J0D01*
G01*
X124202400Y-206293800D01*
G75*
G02*
X124278600Y-206370000I0J-76200D01*
G01*
X124278600Y-207770000D01*
G75*
G02*
X124202400Y-207846200I-76200J0D01*
G01*
G37*
G36*
G01*
X124202400Y-204546200D02*
X122302400Y-204546200D01*
G75*
G02*
X122226200Y-204470000I0J76200D01*
G01*
X122226200Y-203070000D01*
G75*
G02*
X122302400Y-202993800I76200J0D01*
G01*
X124202400Y-202993800D01*
G75*
G02*
X124278600Y-203070000I0J-76200D01*
G01*
X124278600Y-204470000D01*
G75*
G02*
X124202400Y-204546200I-76200J0D01*
G01*
G37*
D11*
X174189500Y-98593000D03*
X162759500Y-98593000D03*
G36*
G01*
X163203300Y-92993000D02*
X163203300Y-91493000D01*
G75*
G02*
X163279500Y-91416800I76200J0D01*
G01*
X164779500Y-91416800D01*
G75*
G02*
X164855700Y-91493000I0J-76200D01*
G01*
X164855700Y-92993000D01*
G75*
G02*
X164779500Y-93069200I-76200J0D01*
G01*
X163279500Y-93069200D01*
G75*
G02*
X163203300Y-92993000I0J76200D01*
G01*
G37*
D12*
X165299500Y-89703000D03*
X166569500Y-92243000D03*
X167839500Y-89703000D03*
X169109500Y-92243000D03*
X170379500Y-89703000D03*
X171649500Y-92243000D03*
X172919500Y-89703000D03*
G36*
G01*
X146827700Y-210869250D02*
X146827700Y-211819250D01*
G75*
G02*
X146501500Y-212145450I-326200J0D01*
G01*
X146001500Y-212145450D01*
G75*
G02*
X145675300Y-211819250I0J326200D01*
G01*
X145675300Y-210869250D01*
G75*
G02*
X146001500Y-210543050I326200J0D01*
G01*
X146501500Y-210543050D01*
G75*
G02*
X146827700Y-210869250I0J-326200D01*
G01*
G37*
G36*
G01*
X144927700Y-210869250D02*
X144927700Y-211819250D01*
G75*
G02*
X144601500Y-212145450I-326200J0D01*
G01*
X144101500Y-212145450D01*
G75*
G02*
X143775300Y-211819250I0J326200D01*
G01*
X143775300Y-210869250D01*
G75*
G02*
X144101500Y-210543050I326200J0D01*
G01*
X144601500Y-210543050D01*
G75*
G02*
X144927700Y-210869250I0J-326200D01*
G01*
G37*
D13*
X115988000Y-183322000D03*
G36*
G01*
X121027400Y-207846200D02*
X119127400Y-207846200D01*
G75*
G02*
X119051200Y-207770000I0J76200D01*
G01*
X119051200Y-206370000D01*
G75*
G02*
X119127400Y-206293800I76200J0D01*
G01*
X121027400Y-206293800D01*
G75*
G02*
X121103600Y-206370000I0J-76200D01*
G01*
X121103600Y-207770000D01*
G75*
G02*
X121027400Y-207846200I-76200J0D01*
G01*
G37*
G36*
G01*
X121027400Y-204546200D02*
X119127400Y-204546200D01*
G75*
G02*
X119051200Y-204470000I0J76200D01*
G01*
X119051200Y-203070000D01*
G75*
G02*
X119127400Y-202993800I76200J0D01*
G01*
X121027400Y-202993800D01*
G75*
G02*
X121103600Y-203070000I0J-76200D01*
G01*
X121103600Y-204470000D01*
G75*
G02*
X121027400Y-204546200I-76200J0D01*
G01*
G37*
G36*
G01*
X134726000Y-123863200D02*
X133826000Y-123863200D01*
G75*
G02*
X133499800Y-123537000I0J326200D01*
G01*
X133499800Y-123012000D01*
G75*
G02*
X133826000Y-122685800I326200J0D01*
G01*
X134726000Y-122685800D01*
G75*
G02*
X135052200Y-123012000I0J-326200D01*
G01*
X135052200Y-123537000D01*
G75*
G02*
X134726000Y-123863200I-326200J0D01*
G01*
G37*
G36*
G01*
X134726000Y-122038200D02*
X133826000Y-122038200D01*
G75*
G02*
X133499800Y-121712000I0J326200D01*
G01*
X133499800Y-121187000D01*
G75*
G02*
X133826000Y-120860800I326200J0D01*
G01*
X134726000Y-120860800D01*
G75*
G02*
X135052200Y-121187000I0J-326200D01*
G01*
X135052200Y-121712000D01*
G75*
G02*
X134726000Y-122038200I-326200J0D01*
G01*
G37*
G36*
G01*
X157205200Y-162308000D02*
X157205200Y-164458000D01*
G75*
G02*
X156879000Y-164784200I-326200J0D01*
G01*
X156254000Y-164784200D01*
G75*
G02*
X155927800Y-164458000I0J326200D01*
G01*
X155927800Y-162308000D01*
G75*
G02*
X156254000Y-161981800I326200J0D01*
G01*
X156879000Y-161981800D01*
G75*
G02*
X157205200Y-162308000I0J-326200D01*
G01*
G37*
G36*
G01*
X154280200Y-162308000D02*
X154280200Y-164458000D01*
G75*
G02*
X153954000Y-164784200I-326200J0D01*
G01*
X153329000Y-164784200D01*
G75*
G02*
X153002800Y-164458000I0J326200D01*
G01*
X153002800Y-162308000D01*
G75*
G02*
X153329000Y-161981800I326200J0D01*
G01*
X153954000Y-161981800D01*
G75*
G02*
X154280200Y-162308000I0J-326200D01*
G01*
G37*
D18*
X111670000Y-22540000D03*
G36*
G01*
X152668200Y-177919000D02*
X152668200Y-178819000D01*
G75*
G02*
X152342000Y-179145200I-326200J0D01*
G01*
X151817000Y-179145200D01*
G75*
G02*
X151490800Y-178819000I0J326200D01*
G01*
X151490800Y-177919000D01*
G75*
G02*
X151817000Y-177592800I326200J0D01*
G01*
X152342000Y-177592800D01*
G75*
G02*
X152668200Y-177919000I0J-326200D01*
G01*
G37*
G36*
G01*
X150843200Y-177919000D02*
X150843200Y-178819000D01*
G75*
G02*
X150517000Y-179145200I-326200J0D01*
G01*
X149992000Y-179145200D01*
G75*
G02*
X149665800Y-178819000I0J326200D01*
G01*
X149665800Y-177919000D01*
G75*
G02*
X149992000Y-177592800I326200J0D01*
G01*
X150517000Y-177592800D01*
G75*
G02*
X150843200Y-177919000I0J-326200D01*
G01*
G37*
D10*
X111670000Y-87733333D03*
X111670000Y-208806666D03*
G36*
G01*
X136584800Y-183905250D02*
X136584800Y-182992750D01*
G75*
G02*
X136904750Y-182672800I319950J0D01*
G01*
X137392250Y-182672800D01*
G75*
G02*
X137712200Y-182992750I0J-319950D01*
G01*
X137712200Y-183905250D01*
G75*
G02*
X137392250Y-184225200I-319950J0D01*
G01*
X136904750Y-184225200D01*
G75*
G02*
X136584800Y-183905250I0J319950D01*
G01*
G37*
G36*
G01*
X138459800Y-183905250D02*
X138459800Y-182992750D01*
G75*
G02*
X138779750Y-182672800I319950J0D01*
G01*
X139267250Y-182672800D01*
G75*
G02*
X139587200Y-182992750I0J-319950D01*
G01*
X139587200Y-183905250D01*
G75*
G02*
X139267250Y-184225200I-319950J0D01*
G01*
X138779750Y-184225200D01*
G75*
G02*
X138459800Y-183905250I0J319950D01*
G01*
G37*
X149770000Y-27620000D03*
G36*
G01*
X136584800Y-224545250D02*
X136584800Y-223632750D01*
G75*
G02*
X136904750Y-223312800I319950J0D01*
G01*
X137392250Y-223312800D01*
G75*
G02*
X137712200Y-223632750I0J-319950D01*
G01*
X137712200Y-224545250D01*
G75*
G02*
X137392250Y-224865200I-319950J0D01*
G01*
X136904750Y-224865200D01*
G75*
G02*
X136584800Y-224545250I0J319950D01*
G01*
G37*
G36*
G01*
X138459800Y-224545250D02*
X138459800Y-223632750D01*
G75*
G02*
X138779750Y-223312800I319950J0D01*
G01*
X139267250Y-223312800D01*
G75*
G02*
X139587200Y-223632750I0J-319950D01*
G01*
X139587200Y-224545250D01*
G75*
G02*
X139267250Y-224865200I-319950J0D01*
G01*
X138779750Y-224865200D01*
G75*
G02*
X138459800Y-224545250I0J319950D01*
G01*
G37*
D13*
X115988000Y-142682000D03*
D11*
X174189500Y-57953000D03*
X162759500Y-57953000D03*
G36*
G01*
X163203300Y-52353000D02*
X163203300Y-50853000D01*
G75*
G02*
X163279500Y-50776800I76200J0D01*
G01*
X164779500Y-50776800D01*
G75*
G02*
X164855700Y-50853000I0J-76200D01*
G01*
X164855700Y-52353000D01*
G75*
G02*
X164779500Y-52429200I-76200J0D01*
G01*
X163279500Y-52429200D01*
G75*
G02*
X163203300Y-52353000I0J76200D01*
G01*
G37*
D12*
X165299500Y-49063000D03*
X166569500Y-51603000D03*
X167839500Y-49063000D03*
X169109500Y-51603000D03*
X170379500Y-49063000D03*
X171649500Y-51603000D03*
X172919500Y-49063000D03*
G36*
G01*
X136685250Y-80195800D02*
X137635250Y-80195800D01*
G75*
G02*
X137961450Y-80522000I0J-326200D01*
G01*
X137961450Y-81022000D01*
G75*
G02*
X137635250Y-81348200I-326200J0D01*
G01*
X136685250Y-81348200D01*
G75*
G02*
X136359050Y-81022000I0J326200D01*
G01*
X136359050Y-80522000D01*
G75*
G02*
X136685250Y-80195800I326200J0D01*
G01*
G37*
G36*
G01*
X136685250Y-82095800D02*
X137635250Y-82095800D01*
G75*
G02*
X137961450Y-82422000I0J-326200D01*
G01*
X137961450Y-82922000D01*
G75*
G02*
X137635250Y-83248200I-326200J0D01*
G01*
X136685250Y-83248200D01*
G75*
G02*
X136359050Y-82922000I0J326200D01*
G01*
X136359050Y-82422000D01*
G75*
G02*
X136685250Y-82095800I326200J0D01*
G01*
G37*
D10*
X111670000Y-209653333D03*
G36*
G01*
X143569800Y-59439000D02*
X143569800Y-58539000D01*
G75*
G02*
X143896000Y-58212800I326200J0D01*
G01*
X144421000Y-58212800D01*
G75*
G02*
X144747200Y-58539000I0J-326200D01*
G01*
X144747200Y-59439000D01*
G75*
G02*
X144421000Y-59765200I-326200J0D01*
G01*
X143896000Y-59765200D01*
G75*
G02*
X143569800Y-59439000I0J326200D01*
G01*
G37*
G36*
G01*
X145394800Y-59439000D02*
X145394800Y-58539000D01*
G75*
G02*
X145721000Y-58212800I326200J0D01*
G01*
X146246000Y-58212800D01*
G75*
G02*
X146572200Y-58539000I0J-326200D01*
G01*
X146572200Y-59439000D01*
G75*
G02*
X146246000Y-59765200I-326200J0D01*
G01*
X145721000Y-59765200D01*
G75*
G02*
X145394800Y-59439000I0J326200D01*
G01*
G37*
G36*
G01*
X146851200Y-164940000D02*
X146851200Y-165890000D01*
G75*
G02*
X146525000Y-166216200I-326200J0D01*
G01*
X146025000Y-166216200D01*
G75*
G02*
X145698800Y-165890000I0J326200D01*
G01*
X145698800Y-164940000D01*
G75*
G02*
X146025000Y-164613800I326200J0D01*
G01*
X146525000Y-164613800D01*
G75*
G02*
X146851200Y-164940000I0J-326200D01*
G01*
G37*
G36*
G01*
X144951200Y-164940000D02*
X144951200Y-165890000D01*
G75*
G02*
X144625000Y-166216200I-326200J0D01*
G01*
X144125000Y-166216200D01*
G75*
G02*
X143798800Y-165890000I0J326200D01*
G01*
X143798800Y-164940000D01*
G75*
G02*
X144125000Y-164613800I326200J0D01*
G01*
X144625000Y-164613800D01*
G75*
G02*
X144951200Y-164940000I0J-326200D01*
G01*
G37*
G36*
G01*
X115927000Y-40433800D02*
X117827000Y-40433800D01*
G75*
G02*
X117903200Y-40510000I0J-76200D01*
G01*
X117903200Y-41910000D01*
G75*
G02*
X117827000Y-41986200I-76200J0D01*
G01*
X115927000Y-41986200D01*
G75*
G02*
X115850800Y-41910000I0J76200D01*
G01*
X115850800Y-40510000D01*
G75*
G02*
X115927000Y-40433800I76200J0D01*
G01*
G37*
G36*
G01*
X115927000Y-43733800D02*
X117827000Y-43733800D01*
G75*
G02*
X117903200Y-43810000I0J-76200D01*
G01*
X117903200Y-45210000D01*
G75*
G02*
X117827000Y-45286200I-76200J0D01*
G01*
X115927000Y-45286200D01*
G75*
G02*
X115850800Y-45210000I0J76200D01*
G01*
X115850800Y-43810000D01*
G75*
G02*
X115927000Y-43733800I76200J0D01*
G01*
G37*
D13*
X115988000Y-31938000D03*
G36*
G01*
X143569800Y-143265250D02*
X143569800Y-142352750D01*
G75*
G02*
X143889750Y-142032800I319950J0D01*
G01*
X144377250Y-142032800D01*
G75*
G02*
X144697200Y-142352750I0J-319950D01*
G01*
X144697200Y-143265250D01*
G75*
G02*
X144377250Y-143585200I-319950J0D01*
G01*
X143889750Y-143585200D01*
G75*
G02*
X143569800Y-143265250I0J319950D01*
G01*
G37*
G36*
G01*
X145444800Y-143265250D02*
X145444800Y-142352750D01*
G75*
G02*
X145764750Y-142032800I319950J0D01*
G01*
X146252250Y-142032800D01*
G75*
G02*
X146572200Y-142352750I0J-319950D01*
G01*
X146572200Y-143265250D01*
G75*
G02*
X146252250Y-143585200I-319950J0D01*
G01*
X145764750Y-143585200D01*
G75*
G02*
X145444800Y-143265250I0J319950D01*
G01*
G37*
D10*
X185330000Y-169013333D03*
G36*
G01*
X139226800Y-171224000D02*
X139226800Y-170274000D01*
G75*
G02*
X139553000Y-169947800I326200J0D01*
G01*
X140053000Y-169947800D01*
G75*
G02*
X140379200Y-170274000I0J-326200D01*
G01*
X140379200Y-171224000D01*
G75*
G02*
X140053000Y-171550200I-326200J0D01*
G01*
X139553000Y-171550200D01*
G75*
G02*
X139226800Y-171224000I0J326200D01*
G01*
G37*
G36*
G01*
X141126800Y-171224000D02*
X141126800Y-170274000D01*
G75*
G02*
X141453000Y-169947800I326200J0D01*
G01*
X141953000Y-169947800D01*
G75*
G02*
X142279200Y-170274000I0J-326200D01*
G01*
X142279200Y-171224000D01*
G75*
G02*
X141953000Y-171550200I-326200J0D01*
G01*
X141453000Y-171550200D01*
G75*
G02*
X141126800Y-171224000I0J326200D01*
G01*
G37*
G36*
G01*
X142877700Y-86525000D02*
X142877700Y-86825000D01*
G75*
G02*
X142651500Y-87051200I-226200J0D01*
G01*
X141626500Y-87051200D01*
G75*
G02*
X141400300Y-86825000I0J226200D01*
G01*
X141400300Y-86525000D01*
G75*
G02*
X141626500Y-86298800I226200J0D01*
G01*
X142651500Y-86298800D01*
G75*
G02*
X142877700Y-86525000I0J-226200D01*
G01*
G37*
G36*
G01*
X142877700Y-85575000D02*
X142877700Y-85875000D01*
G75*
G02*
X142651500Y-86101200I-226200J0D01*
G01*
X141626500Y-86101200D01*
G75*
G02*
X141400300Y-85875000I0J226200D01*
G01*
X141400300Y-85575000D01*
G75*
G02*
X141626500Y-85348800I226200J0D01*
G01*
X142651500Y-85348800D01*
G75*
G02*
X142877700Y-85575000I0J-226200D01*
G01*
G37*
G36*
G01*
X142877700Y-84625000D02*
X142877700Y-84925000D01*
G75*
G02*
X142651500Y-85151200I-226200J0D01*
G01*
X141626500Y-85151200D01*
G75*
G02*
X141400300Y-84925000I0J226200D01*
G01*
X141400300Y-84625000D01*
G75*
G02*
X141626500Y-84398800I226200J0D01*
G01*
X142651500Y-84398800D01*
G75*
G02*
X142877700Y-84625000I0J-226200D01*
G01*
G37*
G36*
G01*
X140602700Y-84625000D02*
X140602700Y-84925000D01*
G75*
G02*
X140376500Y-85151200I-226200J0D01*
G01*
X139351500Y-85151200D01*
G75*
G02*
X139125300Y-84925000I0J226200D01*
G01*
X139125300Y-84625000D01*
G75*
G02*
X139351500Y-84398800I226200J0D01*
G01*
X140376500Y-84398800D01*
G75*
G02*
X140602700Y-84625000I0J-226200D01*
G01*
G37*
G36*
G01*
X140602700Y-86525000D02*
X140602700Y-86825000D01*
G75*
G02*
X140376500Y-87051200I-226200J0D01*
G01*
X139351500Y-87051200D01*
G75*
G02*
X139125300Y-86825000I0J226200D01*
G01*
X139125300Y-86525000D01*
G75*
G02*
X139351500Y-86298800I226200J0D01*
G01*
X140376500Y-86298800D01*
G75*
G02*
X140602700Y-86525000I0J-226200D01*
G01*
G37*
X185330000Y-129220000D03*
G36*
G01*
X131483250Y-201890800D02*
X131783250Y-201890800D01*
G75*
G02*
X132009450Y-202117000I0J-226200D01*
G01*
X132009450Y-203292000D01*
G75*
G02*
X131783250Y-203518200I-226200J0D01*
G01*
X131483250Y-203518200D01*
G75*
G02*
X131257050Y-203292000I0J226200D01*
G01*
X131257050Y-202117000D01*
G75*
G02*
X131483250Y-201890800I226200J0D01*
G01*
G37*
G36*
G01*
X129583250Y-201890800D02*
X129883250Y-201890800D01*
G75*
G02*
X130109450Y-202117000I0J-226200D01*
G01*
X130109450Y-203292000D01*
G75*
G02*
X129883250Y-203518200I-226200J0D01*
G01*
X129583250Y-203518200D01*
G75*
G02*
X129357050Y-203292000I0J226200D01*
G01*
X129357050Y-202117000D01*
G75*
G02*
X129583250Y-201890800I226200J0D01*
G01*
G37*
G36*
G01*
X130533250Y-203765800D02*
X130833250Y-203765800D01*
G75*
G02*
X131059450Y-203992000I0J-226200D01*
G01*
X131059450Y-205167000D01*
G75*
G02*
X130833250Y-205393200I-226200J0D01*
G01*
X130533250Y-205393200D01*
G75*
G02*
X130307050Y-205167000I0J226200D01*
G01*
X130307050Y-203992000D01*
G75*
G02*
X130533250Y-203765800I226200J0D01*
G01*
G37*
X111670000Y-126680000D03*
X147230000Y-228280000D03*
G36*
G01*
X151316800Y-102625250D02*
X151316800Y-101712750D01*
G75*
G02*
X151636750Y-101392800I319950J0D01*
G01*
X152124250Y-101392800D01*
G75*
G02*
X152444200Y-101712750I0J-319950D01*
G01*
X152444200Y-102625250D01*
G75*
G02*
X152124250Y-102945200I-319950J0D01*
G01*
X151636750Y-102945200D01*
G75*
G02*
X151316800Y-102625250I0J319950D01*
G01*
G37*
G36*
G01*
X153191800Y-102625250D02*
X153191800Y-101712750D01*
G75*
G02*
X153511750Y-101392800I319950J0D01*
G01*
X153999250Y-101392800D01*
G75*
G02*
X154319200Y-101712750I0J-319950D01*
G01*
X154319200Y-102625250D01*
G75*
G02*
X153999250Y-102945200I-319950J0D01*
G01*
X153511750Y-102945200D01*
G75*
G02*
X153191800Y-102625250I0J319950D01*
G01*
G37*
G36*
G01*
X156744000Y-127036800D02*
X158544000Y-127036800D01*
G75*
G02*
X158620200Y-127113000I0J-76200D01*
G01*
X158620200Y-129613000D01*
G75*
G02*
X158544000Y-129689200I-76200J0D01*
G01*
X156744000Y-129689200D01*
G75*
G02*
X156667800Y-129613000I0J76200D01*
G01*
X156667800Y-127113000D01*
G75*
G02*
X156744000Y-127036800I76200J0D01*
G01*
G37*
G36*
G01*
X156744000Y-131036800D02*
X158544000Y-131036800D01*
G75*
G02*
X158620200Y-131113000I0J-76200D01*
G01*
X158620200Y-133613000D01*
G75*
G02*
X158544000Y-133689200I-76200J0D01*
G01*
X156744000Y-133689200D01*
G75*
G02*
X156667800Y-133613000I0J76200D01*
G01*
X156667800Y-131113000D01*
G75*
G02*
X156744000Y-131036800I76200J0D01*
G01*
G37*
G36*
G01*
X134726000Y-205143200D02*
X133826000Y-205143200D01*
G75*
G02*
X133499800Y-204817000I0J326200D01*
G01*
X133499800Y-204292000D01*
G75*
G02*
X133826000Y-203965800I326200J0D01*
G01*
X134726000Y-203965800D01*
G75*
G02*
X135052200Y-204292000I0J-326200D01*
G01*
X135052200Y-204817000D01*
G75*
G02*
X134726000Y-205143200I-326200J0D01*
G01*
G37*
G36*
G01*
X134726000Y-203318200D02*
X133826000Y-203318200D01*
G75*
G02*
X133499800Y-202992000I0J326200D01*
G01*
X133499800Y-202467000D01*
G75*
G02*
X133826000Y-202140800I326200J0D01*
G01*
X134726000Y-202140800D01*
G75*
G02*
X135052200Y-202467000I0J-326200D01*
G01*
X135052200Y-202992000D01*
G75*
G02*
X134726000Y-203318200I-326200J0D01*
G01*
G37*
G36*
G01*
X146212000Y-111979000D02*
X145108000Y-111979000D01*
G75*
G02*
X144868000Y-111739000I0J240000D01*
G01*
X144868000Y-109915000D01*
G75*
G02*
X145108000Y-109675000I240000J0D01*
G01*
X146212000Y-109675000D01*
G75*
G02*
X146452000Y-109915000I0J-240000D01*
G01*
X146452000Y-111739000D01*
G75*
G02*
X146212000Y-111979000I-240000J0D01*
G01*
G37*
G36*
G01*
X146212000Y-121079000D02*
X145108000Y-121079000D01*
G75*
G02*
X144868000Y-120839000I0J240000D01*
G01*
X144868000Y-119015000D01*
G75*
G02*
X145108000Y-118775000I240000J0D01*
G01*
X146212000Y-118775000D01*
G75*
G02*
X146452000Y-119015000I0J-240000D01*
G01*
X146452000Y-120839000D01*
G75*
G02*
X146212000Y-121079000I-240000J0D01*
G01*
G37*
G36*
G01*
X141732000Y-111979000D02*
X140628000Y-111979000D01*
G75*
G02*
X140388000Y-111739000I0J240000D01*
G01*
X140388000Y-109915000D01*
G75*
G02*
X140628000Y-109675000I240000J0D01*
G01*
X141732000Y-109675000D01*
G75*
G02*
X141972000Y-109915000I0J-240000D01*
G01*
X141972000Y-111739000D01*
G75*
G02*
X141732000Y-111979000I-240000J0D01*
G01*
G37*
G36*
G01*
X141732000Y-121079000D02*
X140628000Y-121079000D01*
G75*
G02*
X140388000Y-120839000I0J240000D01*
G01*
X140388000Y-119015000D01*
G75*
G02*
X140628000Y-118775000I240000J0D01*
G01*
X141732000Y-118775000D01*
G75*
G02*
X141972000Y-119015000I0J-240000D01*
G01*
X141972000Y-120839000D01*
G75*
G02*
X141732000Y-121079000I-240000J0D01*
G01*
G37*
G36*
G01*
X139226800Y-211864000D02*
X139226800Y-210914000D01*
G75*
G02*
X139553000Y-210587800I326200J0D01*
G01*
X140053000Y-210587800D01*
G75*
G02*
X140379200Y-210914000I0J-326200D01*
G01*
X140379200Y-211864000D01*
G75*
G02*
X140053000Y-212190200I-326200J0D01*
G01*
X139553000Y-212190200D01*
G75*
G02*
X139226800Y-211864000I0J326200D01*
G01*
G37*
G36*
G01*
X141126800Y-211864000D02*
X141126800Y-210914000D01*
G75*
G02*
X141453000Y-210587800I326200J0D01*
G01*
X141953000Y-210587800D01*
G75*
G02*
X142279200Y-210914000I0J-326200D01*
G01*
X142279200Y-211864000D01*
G75*
G02*
X141953000Y-212190200I-326200J0D01*
G01*
X141453000Y-212190200D01*
G75*
G02*
X141126800Y-211864000I0J326200D01*
G01*
G37*
G36*
G01*
X121027400Y-126566200D02*
X119127400Y-126566200D01*
G75*
G02*
X119051200Y-126490000I0J76200D01*
G01*
X119051200Y-125090000D01*
G75*
G02*
X119127400Y-125013800I76200J0D01*
G01*
X121027400Y-125013800D01*
G75*
G02*
X121103600Y-125090000I0J-76200D01*
G01*
X121103600Y-126490000D01*
G75*
G02*
X121027400Y-126566200I-76200J0D01*
G01*
G37*
G36*
G01*
X121027400Y-123266200D02*
X119127400Y-123266200D01*
G75*
G02*
X119051200Y-123190000I0J76200D01*
G01*
X119051200Y-121790000D01*
G75*
G02*
X119127400Y-121713800I76200J0D01*
G01*
X121027400Y-121713800D01*
G75*
G02*
X121103600Y-121790000I0J-76200D01*
G01*
X121103600Y-123190000D01*
G75*
G02*
X121027400Y-123266200I-76200J0D01*
G01*
G37*
D13*
X115988000Y-113218000D03*
X115988000Y-61402000D03*
D10*
X148923333Y-187640000D03*
G36*
G01*
X125426600Y-121713800D02*
X127326600Y-121713800D01*
G75*
G02*
X127402800Y-121790000I0J-76200D01*
G01*
X127402800Y-123190000D01*
G75*
G02*
X127326600Y-123266200I-76200J0D01*
G01*
X125426600Y-123266200D01*
G75*
G02*
X125350400Y-123190000I0J76200D01*
G01*
X125350400Y-121790000D01*
G75*
G02*
X125426600Y-121713800I76200J0D01*
G01*
G37*
G36*
G01*
X125426600Y-125013800D02*
X127326600Y-125013800D01*
G75*
G02*
X127402800Y-125090000I0J-76200D01*
G01*
X127402800Y-126490000D01*
G75*
G02*
X127326600Y-126566200I-76200J0D01*
G01*
X125426600Y-126566200D01*
G75*
G02*
X125350400Y-126490000I0J76200D01*
G01*
X125350400Y-125090000D01*
G75*
G02*
X125426600Y-125013800I76200J0D01*
G01*
G37*
X148923333Y-106360000D03*
G36*
G01*
X128095000Y-177561200D02*
X126995000Y-177561200D01*
G75*
G02*
X126668800Y-177235000I0J326200D01*
G01*
X126668800Y-174235000D01*
G75*
G02*
X126995000Y-173908800I326200J0D01*
G01*
X128095000Y-173908800D01*
G75*
G02*
X128421200Y-174235000I0J-326200D01*
G01*
X128421200Y-177235000D01*
G75*
G02*
X128095000Y-177561200I-326200J0D01*
G01*
G37*
G36*
G01*
X128095000Y-172161200D02*
X126995000Y-172161200D01*
G75*
G02*
X126668800Y-171835000I0J326200D01*
G01*
X126668800Y-168835000D01*
G75*
G02*
X126995000Y-168508800I326200J0D01*
G01*
X128095000Y-168508800D01*
G75*
G02*
X128421200Y-168835000I0J-326200D01*
G01*
X128421200Y-171835000D01*
G75*
G02*
X128095000Y-172161200I-326200J0D01*
G01*
G37*
G36*
G01*
X124202400Y-85926200D02*
X122302400Y-85926200D01*
G75*
G02*
X122226200Y-85850000I0J76200D01*
G01*
X122226200Y-84450000D01*
G75*
G02*
X122302400Y-84373800I76200J0D01*
G01*
X124202400Y-84373800D01*
G75*
G02*
X124278600Y-84450000I0J-76200D01*
G01*
X124278600Y-85850000D01*
G75*
G02*
X124202400Y-85926200I-76200J0D01*
G01*
G37*
G36*
G01*
X124202400Y-82626200D02*
X122302400Y-82626200D01*
G75*
G02*
X122226200Y-82550000I0J76200D01*
G01*
X122226200Y-81150000D01*
G75*
G02*
X122302400Y-81073800I76200J0D01*
G01*
X124202400Y-81073800D01*
G75*
G02*
X124278600Y-81150000I0J-76200D01*
G01*
X124278600Y-82550000D01*
G75*
G02*
X124202400Y-82626200I-76200J0D01*
G01*
G37*
X148076667Y-149540000D03*
G36*
G01*
X121027400Y-167206200D02*
X119127400Y-167206200D01*
G75*
G02*
X119051200Y-167130000I0J76200D01*
G01*
X119051200Y-165730000D01*
G75*
G02*
X119127400Y-165653800I76200J0D01*
G01*
X121027400Y-165653800D01*
G75*
G02*
X121103600Y-165730000I0J-76200D01*
G01*
X121103600Y-167130000D01*
G75*
G02*
X121027400Y-167206200I-76200J0D01*
G01*
G37*
G36*
G01*
X121027400Y-163906200D02*
X119127400Y-163906200D01*
G75*
G02*
X119051200Y-163830000I0J76200D01*
G01*
X119051200Y-162430000D01*
G75*
G02*
X119127400Y-162353800I76200J0D01*
G01*
X121027400Y-162353800D01*
G75*
G02*
X121103600Y-162430000I0J-76200D01*
G01*
X121103600Y-163830000D01*
G75*
G02*
X121027400Y-163906200I-76200J0D01*
G01*
G37*
G36*
G01*
X146345200Y-96256000D02*
X146345200Y-96906000D01*
G75*
G02*
X146269000Y-96982200I-76200J0D01*
G01*
X143469000Y-96982200D01*
G75*
G02*
X143392800Y-96906000I0J76200D01*
G01*
X143392800Y-96256000D01*
G75*
G02*
X143469000Y-96179800I76200J0D01*
G01*
X146269000Y-96179800D01*
G75*
G02*
X146345200Y-96256000I0J-76200D01*
G01*
G37*
G36*
G01*
X146345200Y-94986000D02*
X146345200Y-95636000D01*
G75*
G02*
X146269000Y-95712200I-76200J0D01*
G01*
X143469000Y-95712200D01*
G75*
G02*
X143392800Y-95636000I0J76200D01*
G01*
X143392800Y-94986000D01*
G75*
G02*
X143469000Y-94909800I76200J0D01*
G01*
X146269000Y-94909800D01*
G75*
G02*
X146345200Y-94986000I0J-76200D01*
G01*
G37*
G36*
G01*
X146345200Y-93716000D02*
X146345200Y-94366000D01*
G75*
G02*
X146269000Y-94442200I-76200J0D01*
G01*
X143469000Y-94442200D01*
G75*
G02*
X143392800Y-94366000I0J76200D01*
G01*
X143392800Y-93716000D01*
G75*
G02*
X143469000Y-93639800I76200J0D01*
G01*
X146269000Y-93639800D01*
G75*
G02*
X146345200Y-93716000I0J-76200D01*
G01*
G37*
G36*
G01*
X146345200Y-92446000D02*
X146345200Y-93096000D01*
G75*
G02*
X146269000Y-93172200I-76200J0D01*
G01*
X143469000Y-93172200D01*
G75*
G02*
X143392800Y-93096000I0J76200D01*
G01*
X143392800Y-92446000D01*
G75*
G02*
X143469000Y-92369800I76200J0D01*
G01*
X146269000Y-92369800D01*
G75*
G02*
X146345200Y-92446000I0J-76200D01*
G01*
G37*
G36*
G01*
X140145200Y-92446000D02*
X140145200Y-93096000D01*
G75*
G02*
X140069000Y-93172200I-76200J0D01*
G01*
X137269000Y-93172200D01*
G75*
G02*
X137192800Y-93096000I0J76200D01*
G01*
X137192800Y-92446000D01*
G75*
G02*
X137269000Y-92369800I76200J0D01*
G01*
X140069000Y-92369800D01*
G75*
G02*
X140145200Y-92446000I0J-76200D01*
G01*
G37*
G36*
G01*
X140145200Y-93716000D02*
X140145200Y-94366000D01*
G75*
G02*
X140069000Y-94442200I-76200J0D01*
G01*
X137269000Y-94442200D01*
G75*
G02*
X137192800Y-94366000I0J76200D01*
G01*
X137192800Y-93716000D01*
G75*
G02*
X137269000Y-93639800I76200J0D01*
G01*
X140069000Y-93639800D01*
G75*
G02*
X140145200Y-93716000I0J-76200D01*
G01*
G37*
G36*
G01*
X140145200Y-94986000D02*
X140145200Y-95636000D01*
G75*
G02*
X140069000Y-95712200I-76200J0D01*
G01*
X137269000Y-95712200D01*
G75*
G02*
X137192800Y-95636000I0J76200D01*
G01*
X137192800Y-94986000D01*
G75*
G02*
X137269000Y-94909800I76200J0D01*
G01*
X140069000Y-94909800D01*
G75*
G02*
X140145200Y-94986000I0J-76200D01*
G01*
G37*
G36*
G01*
X140145200Y-96256000D02*
X140145200Y-96906000D01*
G75*
G02*
X140069000Y-96982200I-76200J0D01*
G01*
X137269000Y-96982200D01*
G75*
G02*
X137192800Y-96906000I0J76200D01*
G01*
X137192800Y-96256000D01*
G75*
G02*
X137269000Y-96179800I76200J0D01*
G01*
X140069000Y-96179800D01*
G75*
G02*
X140145200Y-96256000I0J-76200D01*
G01*
G37*
D13*
X181012000Y-223962000D03*
G36*
G01*
X115927000Y-162353800D02*
X117827000Y-162353800D01*
G75*
G02*
X117903200Y-162430000I0J-76200D01*
G01*
X117903200Y-163830000D01*
G75*
G02*
X117827000Y-163906200I-76200J0D01*
G01*
X115927000Y-163906200D01*
G75*
G02*
X115850800Y-163830000I0J76200D01*
G01*
X115850800Y-162430000D01*
G75*
G02*
X115927000Y-162353800I76200J0D01*
G01*
G37*
G36*
G01*
X115927000Y-165653800D02*
X117827000Y-165653800D01*
G75*
G02*
X117903200Y-165730000I0J-76200D01*
G01*
X117903200Y-167130000D01*
G75*
G02*
X117827000Y-167206200I-76200J0D01*
G01*
X115927000Y-167206200D01*
G75*
G02*
X115850800Y-167130000I0J76200D01*
G01*
X115850800Y-165730000D01*
G75*
G02*
X115927000Y-165653800I76200J0D01*
G01*
G37*
G36*
G01*
X133547000Y-220657800D02*
X134497000Y-220657800D01*
G75*
G02*
X134823200Y-220984000I0J-326200D01*
G01*
X134823200Y-221484000D01*
G75*
G02*
X134497000Y-221810200I-326200J0D01*
G01*
X133547000Y-221810200D01*
G75*
G02*
X133220800Y-221484000I0J326200D01*
G01*
X133220800Y-220984000D01*
G75*
G02*
X133547000Y-220657800I326200J0D01*
G01*
G37*
G36*
G01*
X133547000Y-222557800D02*
X134497000Y-222557800D01*
G75*
G02*
X134823200Y-222884000I0J-326200D01*
G01*
X134823200Y-223384000D01*
G75*
G02*
X134497000Y-223710200I-326200J0D01*
G01*
X133547000Y-223710200D01*
G75*
G02*
X133220800Y-223384000I0J326200D01*
G01*
X133220800Y-222884000D01*
G75*
G02*
X133547000Y-222557800I326200J0D01*
G01*
G37*
D10*
X149770000Y-149540000D03*
X148923333Y-149540000D03*
X111670000Y-210500000D03*
X185330000Y-169860000D03*
D14*
X133641000Y-209230000D03*
X134657000Y-214310000D03*
X135673000Y-209230000D03*
D15*
X135292000Y-213040000D03*
X134022000Y-213040000D03*
X135292000Y-211770000D03*
X134022000Y-211770000D03*
X135292000Y-210500000D03*
X134022000Y-210500000D03*
D10*
X111670000Y-47093333D03*
D11*
X174189500Y-220513000D03*
X162759500Y-220513000D03*
G36*
G01*
X163203300Y-214913000D02*
X163203300Y-213413000D01*
G75*
G02*
X163279500Y-213336800I76200J0D01*
G01*
X164779500Y-213336800D01*
G75*
G02*
X164855700Y-213413000I0J-76200D01*
G01*
X164855700Y-214913000D01*
G75*
G02*
X164779500Y-214989200I-76200J0D01*
G01*
X163279500Y-214989200D01*
G75*
G02*
X163203300Y-214913000I0J76200D01*
G01*
G37*
D12*
X165299500Y-211623000D03*
X166569500Y-214163000D03*
X167839500Y-211623000D03*
X169109500Y-214163000D03*
X170379500Y-211623000D03*
X171649500Y-214163000D03*
X172919500Y-211623000D03*
G36*
G01*
X143569800Y-224545250D02*
X143569800Y-223632750D01*
G75*
G02*
X143889750Y-223312800I319950J0D01*
G01*
X144377250Y-223312800D01*
G75*
G02*
X144697200Y-223632750I0J-319950D01*
G01*
X144697200Y-224545250D01*
G75*
G02*
X144377250Y-224865200I-319950J0D01*
G01*
X143889750Y-224865200D01*
G75*
G02*
X143569800Y-224545250I0J319950D01*
G01*
G37*
G36*
G01*
X145444800Y-224545250D02*
X145444800Y-223632750D01*
G75*
G02*
X145764750Y-223312800I319950J0D01*
G01*
X146252250Y-223312800D01*
G75*
G02*
X146572200Y-223632750I0J-319950D01*
G01*
X146572200Y-224545250D01*
G75*
G02*
X146252250Y-224865200I-319950J0D01*
G01*
X145764750Y-224865200D01*
G75*
G02*
X145444800Y-224545250I0J319950D01*
G01*
G37*
G36*
G01*
X143569800Y-102625250D02*
X143569800Y-101712750D01*
G75*
G02*
X143889750Y-101392800I319950J0D01*
G01*
X144377250Y-101392800D01*
G75*
G02*
X144697200Y-101712750I0J-319950D01*
G01*
X144697200Y-102625250D01*
G75*
G02*
X144377250Y-102945200I-319950J0D01*
G01*
X143889750Y-102945200D01*
G75*
G02*
X143569800Y-102625250I0J319950D01*
G01*
G37*
G36*
G01*
X145444800Y-102625250D02*
X145444800Y-101712750D01*
G75*
G02*
X145764750Y-101392800I319950J0D01*
G01*
X146252250Y-101392800D01*
G75*
G02*
X146572200Y-101712750I0J-319950D01*
G01*
X146572200Y-102625250D01*
G75*
G02*
X146252250Y-102945200I-319950J0D01*
G01*
X145764750Y-102945200D01*
G75*
G02*
X145444800Y-102625250I0J319950D01*
G01*
G37*
D10*
X148923333Y-228280000D03*
G36*
G01*
X146827700Y-88949250D02*
X146827700Y-89899250D01*
G75*
G02*
X146501500Y-90225450I-326200J0D01*
G01*
X146001500Y-90225450D01*
G75*
G02*
X145675300Y-89899250I0J326200D01*
G01*
X145675300Y-88949250D01*
G75*
G02*
X146001500Y-88623050I326200J0D01*
G01*
X146501500Y-88623050D01*
G75*
G02*
X146827700Y-88949250I0J-326200D01*
G01*
G37*
G36*
G01*
X144927700Y-88949250D02*
X144927700Y-89899250D01*
G75*
G02*
X144601500Y-90225450I-326200J0D01*
G01*
X144101500Y-90225450D01*
G75*
G02*
X143775300Y-89899250I0J326200D01*
G01*
X143775300Y-88949250D01*
G75*
G02*
X144101500Y-88623050I326200J0D01*
G01*
X144601500Y-88623050D01*
G75*
G02*
X144927700Y-88949250I0J-326200D01*
G01*
G37*
X185330000Y-208806666D03*
D13*
X181012000Y-153858000D03*
G36*
G01*
X146345200Y-218176000D02*
X146345200Y-218826000D01*
G75*
G02*
X146269000Y-218902200I-76200J0D01*
G01*
X143469000Y-218902200D01*
G75*
G02*
X143392800Y-218826000I0J76200D01*
G01*
X143392800Y-218176000D01*
G75*
G02*
X143469000Y-218099800I76200J0D01*
G01*
X146269000Y-218099800D01*
G75*
G02*
X146345200Y-218176000I0J-76200D01*
G01*
G37*
G36*
G01*
X146345200Y-216906000D02*
X146345200Y-217556000D01*
G75*
G02*
X146269000Y-217632200I-76200J0D01*
G01*
X143469000Y-217632200D01*
G75*
G02*
X143392800Y-217556000I0J76200D01*
G01*
X143392800Y-216906000D01*
G75*
G02*
X143469000Y-216829800I76200J0D01*
G01*
X146269000Y-216829800D01*
G75*
G02*
X146345200Y-216906000I0J-76200D01*
G01*
G37*
G36*
G01*
X146345200Y-215636000D02*
X146345200Y-216286000D01*
G75*
G02*
X146269000Y-216362200I-76200J0D01*
G01*
X143469000Y-216362200D01*
G75*
G02*
X143392800Y-216286000I0J76200D01*
G01*
X143392800Y-215636000D01*
G75*
G02*
X143469000Y-215559800I76200J0D01*
G01*
X146269000Y-215559800D01*
G75*
G02*
X146345200Y-215636000I0J-76200D01*
G01*
G37*
G36*
G01*
X146345200Y-214366000D02*
X146345200Y-215016000D01*
G75*
G02*
X146269000Y-215092200I-76200J0D01*
G01*
X143469000Y-215092200D01*
G75*
G02*
X143392800Y-215016000I0J76200D01*
G01*
X143392800Y-214366000D01*
G75*
G02*
X143469000Y-214289800I76200J0D01*
G01*
X146269000Y-214289800D01*
G75*
G02*
X146345200Y-214366000I0J-76200D01*
G01*
G37*
G36*
G01*
X140145200Y-214366000D02*
X140145200Y-215016000D01*
G75*
G02*
X140069000Y-215092200I-76200J0D01*
G01*
X137269000Y-215092200D01*
G75*
G02*
X137192800Y-215016000I0J76200D01*
G01*
X137192800Y-214366000D01*
G75*
G02*
X137269000Y-214289800I76200J0D01*
G01*
X140069000Y-214289800D01*
G75*
G02*
X140145200Y-214366000I0J-76200D01*
G01*
G37*
G36*
G01*
X140145200Y-215636000D02*
X140145200Y-216286000D01*
G75*
G02*
X140069000Y-216362200I-76200J0D01*
G01*
X137269000Y-216362200D01*
G75*
G02*
X137192800Y-216286000I0J76200D01*
G01*
X137192800Y-215636000D01*
G75*
G02*
X137269000Y-215559800I76200J0D01*
G01*
X140069000Y-215559800D01*
G75*
G02*
X140145200Y-215636000I0J-76200D01*
G01*
G37*
G36*
G01*
X140145200Y-216906000D02*
X140145200Y-217556000D01*
G75*
G02*
X140069000Y-217632200I-76200J0D01*
G01*
X137269000Y-217632200D01*
G75*
G02*
X137192800Y-217556000I0J76200D01*
G01*
X137192800Y-216906000D01*
G75*
G02*
X137269000Y-216829800I76200J0D01*
G01*
X140069000Y-216829800D01*
G75*
G02*
X140145200Y-216906000I0J-76200D01*
G01*
G37*
G36*
G01*
X140145200Y-218176000D02*
X140145200Y-218826000D01*
G75*
G02*
X140069000Y-218902200I-76200J0D01*
G01*
X137269000Y-218902200D01*
G75*
G02*
X137192800Y-218826000I0J76200D01*
G01*
X137192800Y-218176000D01*
G75*
G02*
X137269000Y-218099800I76200J0D01*
G01*
X140069000Y-218099800D01*
G75*
G02*
X140145200Y-218176000I0J-76200D01*
G01*
G37*
G36*
G01*
X128095000Y-218201200D02*
X126995000Y-218201200D01*
G75*
G02*
X126668800Y-217875000I0J326200D01*
G01*
X126668800Y-214875000D01*
G75*
G02*
X126995000Y-214548800I326200J0D01*
G01*
X128095000Y-214548800D01*
G75*
G02*
X128421200Y-214875000I0J-326200D01*
G01*
X128421200Y-217875000D01*
G75*
G02*
X128095000Y-218201200I-326200J0D01*
G01*
G37*
G36*
G01*
X128095000Y-212801200D02*
X126995000Y-212801200D01*
G75*
G02*
X126668800Y-212475000I0J326200D01*
G01*
X126668800Y-209475000D01*
G75*
G02*
X126995000Y-209148800I326200J0D01*
G01*
X128095000Y-209148800D01*
G75*
G02*
X128421200Y-209475000I0J-326200D01*
G01*
X128421200Y-212475000D01*
G75*
G02*
X128095000Y-212801200I-326200J0D01*
G01*
G37*
G36*
G01*
X143569800Y-61985250D02*
X143569800Y-61072750D01*
G75*
G02*
X143889750Y-60752800I319950J0D01*
G01*
X144377250Y-60752800D01*
G75*
G02*
X144697200Y-61072750I0J-319950D01*
G01*
X144697200Y-61985250D01*
G75*
G02*
X144377250Y-62305200I-319950J0D01*
G01*
X143889750Y-62305200D01*
G75*
G02*
X143569800Y-61985250I0J319950D01*
G01*
G37*
G36*
G01*
X145444800Y-61985250D02*
X145444800Y-61072750D01*
G75*
G02*
X145764750Y-60752800I319950J0D01*
G01*
X146252250Y-60752800D01*
G75*
G02*
X146572200Y-61072750I0J-319950D01*
G01*
X146572200Y-61985250D01*
G75*
G02*
X146252250Y-62305200I-319950J0D01*
G01*
X145764750Y-62305200D01*
G75*
G02*
X145444800Y-61985250I0J319950D01*
G01*
G37*
G36*
G01*
X146212000Y-152619000D02*
X145108000Y-152619000D01*
G75*
G02*
X144868000Y-152379000I0J240000D01*
G01*
X144868000Y-150555000D01*
G75*
G02*
X145108000Y-150315000I240000J0D01*
G01*
X146212000Y-150315000D01*
G75*
G02*
X146452000Y-150555000I0J-240000D01*
G01*
X146452000Y-152379000D01*
G75*
G02*
X146212000Y-152619000I-240000J0D01*
G01*
G37*
G36*
G01*
X146212000Y-161719000D02*
X145108000Y-161719000D01*
G75*
G02*
X144868000Y-161479000I0J240000D01*
G01*
X144868000Y-159655000D01*
G75*
G02*
X145108000Y-159415000I240000J0D01*
G01*
X146212000Y-159415000D01*
G75*
G02*
X146452000Y-159655000I0J-240000D01*
G01*
X146452000Y-161479000D01*
G75*
G02*
X146212000Y-161719000I-240000J0D01*
G01*
G37*
G36*
G01*
X141732000Y-152619000D02*
X140628000Y-152619000D01*
G75*
G02*
X140388000Y-152379000I0J240000D01*
G01*
X140388000Y-150555000D01*
G75*
G02*
X140628000Y-150315000I240000J0D01*
G01*
X141732000Y-150315000D01*
G75*
G02*
X141972000Y-150555000I0J-240000D01*
G01*
X141972000Y-152379000D01*
G75*
G02*
X141732000Y-152619000I-240000J0D01*
G01*
G37*
G36*
G01*
X141732000Y-161719000D02*
X140628000Y-161719000D01*
G75*
G02*
X140388000Y-161479000I0J240000D01*
G01*
X140388000Y-159655000D01*
G75*
G02*
X140628000Y-159415000I240000J0D01*
G01*
X141732000Y-159415000D01*
G75*
G02*
X141972000Y-159655000I0J-240000D01*
G01*
X141972000Y-161479000D01*
G75*
G02*
X141732000Y-161719000I-240000J0D01*
G01*
G37*
G36*
G01*
X151738500Y-54518600D02*
X150341500Y-54518600D01*
G75*
G02*
X150265300Y-54442400I0J76200D01*
G01*
X150265300Y-52740600D01*
G75*
G02*
X150341500Y-52664400I76200J0D01*
G01*
X151738500Y-52664400D01*
G75*
G02*
X151814700Y-52740600I0J-76200D01*
G01*
X151814700Y-54442400D01*
G75*
G02*
X151738500Y-54518600I-76200J0D01*
G01*
G37*
G36*
G01*
X154278500Y-54518600D02*
X152881500Y-54518600D01*
G75*
G02*
X152805300Y-54442400I0J76200D01*
G01*
X152805300Y-52740600D01*
G75*
G02*
X152881500Y-52664400I76200J0D01*
G01*
X154278500Y-52664400D01*
G75*
G02*
X154354700Y-52740600I0J-76200D01*
G01*
X154354700Y-54442400D01*
G75*
G02*
X154278500Y-54518600I-76200J0D01*
G01*
G37*
G36*
G01*
X154278500Y-45501600D02*
X152881500Y-45501600D01*
G75*
G02*
X152805300Y-45425400I0J76200D01*
G01*
X152805300Y-43723600D01*
G75*
G02*
X152881500Y-43647400I76200J0D01*
G01*
X154278500Y-43647400D01*
G75*
G02*
X154354700Y-43723600I0J-76200D01*
G01*
X154354700Y-45425400D01*
G75*
G02*
X154278500Y-45501600I-76200J0D01*
G01*
G37*
G36*
G01*
X151738500Y-45501600D02*
X150341500Y-45501600D01*
G75*
G02*
X150265300Y-45425400I0J76200D01*
G01*
X150265300Y-43723600D01*
G75*
G02*
X150341500Y-43647400I76200J0D01*
G01*
X151738500Y-43647400D01*
G75*
G02*
X151814700Y-43723600I0J-76200D01*
G01*
X151814700Y-45425400D01*
G75*
G02*
X151738500Y-45501600I-76200J0D01*
G01*
G37*
G36*
G01*
X133547000Y-98737800D02*
X134497000Y-98737800D01*
G75*
G02*
X134823200Y-99064000I0J-326200D01*
G01*
X134823200Y-99564000D01*
G75*
G02*
X134497000Y-99890200I-326200J0D01*
G01*
X133547000Y-99890200D01*
G75*
G02*
X133220800Y-99564000I0J326200D01*
G01*
X133220800Y-99064000D01*
G75*
G02*
X133547000Y-98737800I326200J0D01*
G01*
G37*
G36*
G01*
X133547000Y-100637800D02*
X134497000Y-100637800D01*
G75*
G02*
X134823200Y-100964000I0J-326200D01*
G01*
X134823200Y-101464000D01*
G75*
G02*
X134497000Y-101790200I-326200J0D01*
G01*
X133547000Y-101790200D01*
G75*
G02*
X133220800Y-101464000I0J326200D01*
G01*
X133220800Y-100964000D01*
G75*
G02*
X133547000Y-100637800I326200J0D01*
G01*
G37*
G36*
G01*
X157205200Y-121668000D02*
X157205200Y-123818000D01*
G75*
G02*
X156879000Y-124144200I-326200J0D01*
G01*
X156254000Y-124144200D01*
G75*
G02*
X155927800Y-123818000I0J326200D01*
G01*
X155927800Y-121668000D01*
G75*
G02*
X156254000Y-121341800I326200J0D01*
G01*
X156879000Y-121341800D01*
G75*
G02*
X157205200Y-121668000I0J-326200D01*
G01*
G37*
G36*
G01*
X154280200Y-121668000D02*
X154280200Y-123818000D01*
G75*
G02*
X153954000Y-124144200I-326200J0D01*
G01*
X153329000Y-124144200D01*
G75*
G02*
X153002800Y-123818000I0J326200D01*
G01*
X153002800Y-121668000D01*
G75*
G02*
X153329000Y-121341800I326200J0D01*
G01*
X153954000Y-121341800D01*
G75*
G02*
X154280200Y-121668000I0J-326200D01*
G01*
G37*
D10*
X111670000Y-86040000D03*
G36*
G01*
X151316800Y-221999000D02*
X151316800Y-221099000D01*
G75*
G02*
X151643000Y-220772800I326200J0D01*
G01*
X152168000Y-220772800D01*
G75*
G02*
X152494200Y-221099000I0J-326200D01*
G01*
X152494200Y-221999000D01*
G75*
G02*
X152168000Y-222325200I-326200J0D01*
G01*
X151643000Y-222325200D01*
G75*
G02*
X151316800Y-221999000I0J326200D01*
G01*
G37*
G36*
G01*
X153141800Y-221999000D02*
X153141800Y-221099000D01*
G75*
G02*
X153468000Y-220772800I326200J0D01*
G01*
X153993000Y-220772800D01*
G75*
G02*
X154319200Y-221099000I0J-326200D01*
G01*
X154319200Y-221999000D01*
G75*
G02*
X153993000Y-222325200I-326200J0D01*
G01*
X153468000Y-222325200D01*
G75*
G02*
X153141800Y-221999000I0J326200D01*
G01*
G37*
D13*
X181012000Y-31938000D03*
G36*
G01*
X146212000Y-193259000D02*
X145108000Y-193259000D01*
G75*
G02*
X144868000Y-193019000I0J240000D01*
G01*
X144868000Y-191195000D01*
G75*
G02*
X145108000Y-190955000I240000J0D01*
G01*
X146212000Y-190955000D01*
G75*
G02*
X146452000Y-191195000I0J-240000D01*
G01*
X146452000Y-193019000D01*
G75*
G02*
X146212000Y-193259000I-240000J0D01*
G01*
G37*
G36*
G01*
X146212000Y-202359000D02*
X145108000Y-202359000D01*
G75*
G02*
X144868000Y-202119000I0J240000D01*
G01*
X144868000Y-200295000D01*
G75*
G02*
X145108000Y-200055000I240000J0D01*
G01*
X146212000Y-200055000D01*
G75*
G02*
X146452000Y-200295000I0J-240000D01*
G01*
X146452000Y-202119000D01*
G75*
G02*
X146212000Y-202359000I-240000J0D01*
G01*
G37*
G36*
G01*
X141732000Y-193259000D02*
X140628000Y-193259000D01*
G75*
G02*
X140388000Y-193019000I0J240000D01*
G01*
X140388000Y-191195000D01*
G75*
G02*
X140628000Y-190955000I240000J0D01*
G01*
X141732000Y-190955000D01*
G75*
G02*
X141972000Y-191195000I0J-240000D01*
G01*
X141972000Y-193019000D01*
G75*
G02*
X141732000Y-193259000I-240000J0D01*
G01*
G37*
G36*
G01*
X141732000Y-202359000D02*
X140628000Y-202359000D01*
G75*
G02*
X140388000Y-202119000I0J240000D01*
G01*
X140388000Y-200295000D01*
G75*
G02*
X140628000Y-200055000I240000J0D01*
G01*
X141732000Y-200055000D01*
G75*
G02*
X141972000Y-200295000I0J-240000D01*
G01*
X141972000Y-202119000D01*
G75*
G02*
X141732000Y-202359000I-240000J0D01*
G01*
G37*
D10*
X148076667Y-147000000D03*
X148923333Y-190180000D03*
G36*
G01*
X142877700Y-45885000D02*
X142877700Y-46185000D01*
G75*
G02*
X142651500Y-46411200I-226200J0D01*
G01*
X141626500Y-46411200D01*
G75*
G02*
X141400300Y-46185000I0J226200D01*
G01*
X141400300Y-45885000D01*
G75*
G02*
X141626500Y-45658800I226200J0D01*
G01*
X142651500Y-45658800D01*
G75*
G02*
X142877700Y-45885000I0J-226200D01*
G01*
G37*
G36*
G01*
X142877700Y-44935000D02*
X142877700Y-45235000D01*
G75*
G02*
X142651500Y-45461200I-226200J0D01*
G01*
X141626500Y-45461200D01*
G75*
G02*
X141400300Y-45235000I0J226200D01*
G01*
X141400300Y-44935000D01*
G75*
G02*
X141626500Y-44708800I226200J0D01*
G01*
X142651500Y-44708800D01*
G75*
G02*
X142877700Y-44935000I0J-226200D01*
G01*
G37*
G36*
G01*
X142877700Y-43985000D02*
X142877700Y-44285000D01*
G75*
G02*
X142651500Y-44511200I-226200J0D01*
G01*
X141626500Y-44511200D01*
G75*
G02*
X141400300Y-44285000I0J226200D01*
G01*
X141400300Y-43985000D01*
G75*
G02*
X141626500Y-43758800I226200J0D01*
G01*
X142651500Y-43758800D01*
G75*
G02*
X142877700Y-43985000I0J-226200D01*
G01*
G37*
G36*
G01*
X140602700Y-43985000D02*
X140602700Y-44285000D01*
G75*
G02*
X140376500Y-44511200I-226200J0D01*
G01*
X139351500Y-44511200D01*
G75*
G02*
X139125300Y-44285000I0J226200D01*
G01*
X139125300Y-43985000D01*
G75*
G02*
X139351500Y-43758800I226200J0D01*
G01*
X140376500Y-43758800D01*
G75*
G02*
X140602700Y-43985000I0J-226200D01*
G01*
G37*
G36*
G01*
X140602700Y-45885000D02*
X140602700Y-46185000D01*
G75*
G02*
X140376500Y-46411200I-226200J0D01*
G01*
X139351500Y-46411200D01*
G75*
G02*
X139125300Y-46185000I0J226200D01*
G01*
X139125300Y-45885000D01*
G75*
G02*
X139351500Y-45658800I226200J0D01*
G01*
X140376500Y-45658800D01*
G75*
G02*
X140602700Y-45885000I0J-226200D01*
G01*
G37*
G36*
G01*
X131483250Y-39330800D02*
X131783250Y-39330800D01*
G75*
G02*
X132009450Y-39557000I0J-226200D01*
G01*
X132009450Y-40732000D01*
G75*
G02*
X131783250Y-40958200I-226200J0D01*
G01*
X131483250Y-40958200D01*
G75*
G02*
X131257050Y-40732000I0J226200D01*
G01*
X131257050Y-39557000D01*
G75*
G02*
X131483250Y-39330800I226200J0D01*
G01*
G37*
G36*
G01*
X129583250Y-39330800D02*
X129883250Y-39330800D01*
G75*
G02*
X130109450Y-39557000I0J-226200D01*
G01*
X130109450Y-40732000D01*
G75*
G02*
X129883250Y-40958200I-226200J0D01*
G01*
X129583250Y-40958200D01*
G75*
G02*
X129357050Y-40732000I0J226200D01*
G01*
X129357050Y-39557000D01*
G75*
G02*
X129583250Y-39330800I226200J0D01*
G01*
G37*
G36*
G01*
X130533250Y-41205800D02*
X130833250Y-41205800D01*
G75*
G02*
X131059450Y-41432000I0J-226200D01*
G01*
X131059450Y-42607000D01*
G75*
G02*
X130833250Y-42833200I-226200J0D01*
G01*
X130533250Y-42833200D01*
G75*
G02*
X130307050Y-42607000I0J226200D01*
G01*
X130307050Y-41432000D01*
G75*
G02*
X130533250Y-41205800I226200J0D01*
G01*
G37*
X111670000Y-88580000D03*
G36*
G01*
X158168200Y-33690000D02*
X158168200Y-36190000D01*
G75*
G02*
X158092000Y-36266200I-76200J0D01*
G01*
X155592000Y-36266200D01*
G75*
G02*
X155515800Y-36190000I0J76200D01*
G01*
X155515800Y-33690000D01*
G75*
G02*
X155592000Y-33613800I76200J0D01*
G01*
X158092000Y-33613800D01*
G75*
G02*
X158168200Y-33690000I0J-76200D01*
G01*
G37*
D16*
X151842000Y-34940000D03*
D10*
X148923333Y-68260000D03*
G36*
G01*
X151316800Y-143265250D02*
X151316800Y-142352750D01*
G75*
G02*
X151636750Y-142032800I319950J0D01*
G01*
X152124250Y-142032800D01*
G75*
G02*
X152444200Y-142352750I0J-319950D01*
G01*
X152444200Y-143265250D01*
G75*
G02*
X152124250Y-143585200I-319950J0D01*
G01*
X151636750Y-143585200D01*
G75*
G02*
X151316800Y-143265250I0J319950D01*
G01*
G37*
G36*
G01*
X153191800Y-143265250D02*
X153191800Y-142352750D01*
G75*
G02*
X153511750Y-142032800I319950J0D01*
G01*
X153999250Y-142032800D01*
G75*
G02*
X154319200Y-142352750I0J-319950D01*
G01*
X154319200Y-143265250D01*
G75*
G02*
X153999250Y-143585200I-319950J0D01*
G01*
X153511750Y-143585200D01*
G75*
G02*
X153191800Y-143265250I0J319950D01*
G01*
G37*
X185330000Y-87733333D03*
G36*
G01*
X143569800Y-181359000D02*
X143569800Y-180459000D01*
G75*
G02*
X143896000Y-180132800I326200J0D01*
G01*
X144421000Y-180132800D01*
G75*
G02*
X144747200Y-180459000I0J-326200D01*
G01*
X144747200Y-181359000D01*
G75*
G02*
X144421000Y-181685200I-326200J0D01*
G01*
X143896000Y-181685200D01*
G75*
G02*
X143569800Y-181359000I0J326200D01*
G01*
G37*
G36*
G01*
X145394800Y-181359000D02*
X145394800Y-180459000D01*
G75*
G02*
X145721000Y-180132800I326200J0D01*
G01*
X146246000Y-180132800D01*
G75*
G02*
X146572200Y-180459000I0J-326200D01*
G01*
X146572200Y-181359000D01*
G75*
G02*
X146246000Y-181685200I-326200J0D01*
G01*
X145721000Y-181685200D01*
G75*
G02*
X145394800Y-181359000I0J326200D01*
G01*
G37*
X111670000Y-45400000D03*
G36*
G01*
X139226800Y-130584000D02*
X139226800Y-129634000D01*
G75*
G02*
X139553000Y-129307800I326200J0D01*
G01*
X140053000Y-129307800D01*
G75*
G02*
X140379200Y-129634000I0J-326200D01*
G01*
X140379200Y-130584000D01*
G75*
G02*
X140053000Y-130910200I-326200J0D01*
G01*
X139553000Y-130910200D01*
G75*
G02*
X139226800Y-130584000I0J326200D01*
G01*
G37*
G36*
G01*
X141126800Y-130584000D02*
X141126800Y-129634000D01*
G75*
G02*
X141453000Y-129307800I326200J0D01*
G01*
X141953000Y-129307800D01*
G75*
G02*
X142279200Y-129634000I0J-326200D01*
G01*
X142279200Y-130584000D01*
G75*
G02*
X141953000Y-130910200I-326200J0D01*
G01*
X141453000Y-130910200D01*
G75*
G02*
X141126800Y-130584000I0J326200D01*
G01*
G37*
X147230000Y-149540000D03*
G36*
G01*
X133547000Y-139377800D02*
X134497000Y-139377800D01*
G75*
G02*
X134823200Y-139704000I0J-326200D01*
G01*
X134823200Y-140204000D01*
G75*
G02*
X134497000Y-140530200I-326200J0D01*
G01*
X133547000Y-140530200D01*
G75*
G02*
X133220800Y-140204000I0J326200D01*
G01*
X133220800Y-139704000D01*
G75*
G02*
X133547000Y-139377800I326200J0D01*
G01*
G37*
G36*
G01*
X133547000Y-141277800D02*
X134497000Y-141277800D01*
G75*
G02*
X134823200Y-141604000I0J-326200D01*
G01*
X134823200Y-142104000D01*
G75*
G02*
X134497000Y-142430200I-326200J0D01*
G01*
X133547000Y-142430200D01*
G75*
G02*
X133220800Y-142104000I0J326200D01*
G01*
X133220800Y-141604000D01*
G75*
G02*
X133547000Y-141277800I326200J0D01*
G01*
G37*
G36*
G01*
X156744000Y-167676800D02*
X158544000Y-167676800D01*
G75*
G02*
X158620200Y-167753000I0J-76200D01*
G01*
X158620200Y-170253000D01*
G75*
G02*
X158544000Y-170329200I-76200J0D01*
G01*
X156744000Y-170329200D01*
G75*
G02*
X156667800Y-170253000I0J76200D01*
G01*
X156667800Y-167753000D01*
G75*
G02*
X156744000Y-167676800I76200J0D01*
G01*
G37*
G36*
G01*
X156744000Y-171676800D02*
X158544000Y-171676800D01*
G75*
G02*
X158620200Y-171753000I0J-76200D01*
G01*
X158620200Y-174253000D01*
G75*
G02*
X158544000Y-174329200I-76200J0D01*
G01*
X156744000Y-174329200D01*
G75*
G02*
X156667800Y-174253000I0J76200D01*
G01*
X156667800Y-171753000D01*
G75*
G02*
X156744000Y-171676800I76200J0D01*
G01*
G37*
G36*
G01*
X146827700Y-48309250D02*
X146827700Y-49259250D01*
G75*
G02*
X146501500Y-49585450I-326200J0D01*
G01*
X146001500Y-49585450D01*
G75*
G02*
X145675300Y-49259250I0J326200D01*
G01*
X145675300Y-48309250D01*
G75*
G02*
X146001500Y-47983050I326200J0D01*
G01*
X146501500Y-47983050D01*
G75*
G02*
X146827700Y-48309250I0J-326200D01*
G01*
G37*
G36*
G01*
X144927700Y-48309250D02*
X144927700Y-49259250D01*
G75*
G02*
X144601500Y-49585450I-326200J0D01*
G01*
X144101500Y-49585450D01*
G75*
G02*
X143775300Y-49259250I0J326200D01*
G01*
X143775300Y-48309250D01*
G75*
G02*
X144101500Y-47983050I326200J0D01*
G01*
X144601500Y-47983050D01*
G75*
G02*
X144927700Y-48309250I0J-326200D01*
G01*
G37*
D11*
X162815500Y-197947000D03*
X174245500Y-197947000D03*
G36*
G01*
X173801700Y-203547000D02*
X173801700Y-205047000D01*
G75*
G02*
X173725500Y-205123200I-76200J0D01*
G01*
X172225500Y-205123200D01*
G75*
G02*
X172149300Y-205047000I0J76200D01*
G01*
X172149300Y-203547000D01*
G75*
G02*
X172225500Y-203470800I76200J0D01*
G01*
X173725500Y-203470800D01*
G75*
G02*
X173801700Y-203547000I0J-76200D01*
G01*
G37*
D12*
X171705500Y-206837000D03*
X170435500Y-204297000D03*
X169165500Y-206837000D03*
X167895500Y-204297000D03*
X166625500Y-206837000D03*
X165355500Y-204297000D03*
X164085500Y-206837000D03*
G36*
G01*
X152668200Y-137279000D02*
X152668200Y-138179000D01*
G75*
G02*
X152342000Y-138505200I-326200J0D01*
G01*
X151817000Y-138505200D01*
G75*
G02*
X151490800Y-138179000I0J326200D01*
G01*
X151490800Y-137279000D01*
G75*
G02*
X151817000Y-136952800I326200J0D01*
G01*
X152342000Y-136952800D01*
G75*
G02*
X152668200Y-137279000I0J-326200D01*
G01*
G37*
G36*
G01*
X150843200Y-137279000D02*
X150843200Y-138179000D01*
G75*
G02*
X150517000Y-138505200I-326200J0D01*
G01*
X149992000Y-138505200D01*
G75*
G02*
X149665800Y-138179000I0J326200D01*
G01*
X149665800Y-137279000D01*
G75*
G02*
X149992000Y-136952800I326200J0D01*
G01*
X150517000Y-136952800D01*
G75*
G02*
X150843200Y-137279000I0J-326200D01*
G01*
G37*
G36*
G01*
X146851200Y-124300000D02*
X146851200Y-125250000D01*
G75*
G02*
X146525000Y-125576200I-326200J0D01*
G01*
X146025000Y-125576200D01*
G75*
G02*
X145698800Y-125250000I0J326200D01*
G01*
X145698800Y-124300000D01*
G75*
G02*
X146025000Y-123973800I326200J0D01*
G01*
X146525000Y-123973800D01*
G75*
G02*
X146851200Y-124300000I0J-326200D01*
G01*
G37*
G36*
G01*
X144951200Y-124300000D02*
X144951200Y-125250000D01*
G75*
G02*
X144625000Y-125576200I-326200J0D01*
G01*
X144125000Y-125576200D01*
G75*
G02*
X143798800Y-125250000I0J326200D01*
G01*
X143798800Y-124300000D01*
G75*
G02*
X144125000Y-123973800I326200J0D01*
G01*
X144625000Y-123973800D01*
G75*
G02*
X144951200Y-124300000I0J-326200D01*
G01*
G37*
D10*
X185330000Y-46246667D03*
G36*
G01*
X158168200Y-114970000D02*
X158168200Y-117470000D01*
G75*
G02*
X158092000Y-117546200I-76200J0D01*
G01*
X155592000Y-117546200D01*
G75*
G02*
X155515800Y-117470000I0J76200D01*
G01*
X155515800Y-114970000D01*
G75*
G02*
X155592000Y-114893800I76200J0D01*
G01*
X158092000Y-114893800D01*
G75*
G02*
X158168200Y-114970000I0J-76200D01*
G01*
G37*
D16*
X151842000Y-116220000D03*
G36*
G01*
X117486000Y-88563800D02*
X119986000Y-88563800D01*
G75*
G02*
X120062200Y-88640000I0J-76200D01*
G01*
X120062200Y-91140000D01*
G75*
G02*
X119986000Y-91216200I-76200J0D01*
G01*
X117486000Y-91216200D01*
G75*
G02*
X117409800Y-91140000I0J76200D01*
G01*
X117409800Y-88640000D01*
G75*
G02*
X117486000Y-88563800I76200J0D01*
G01*
G37*
X118736000Y-94890000D03*
G36*
G01*
X136685250Y-39555800D02*
X137635250Y-39555800D01*
G75*
G02*
X137961450Y-39882000I0J-326200D01*
G01*
X137961450Y-40382000D01*
G75*
G02*
X137635250Y-40708200I-326200J0D01*
G01*
X136685250Y-40708200D01*
G75*
G02*
X136359050Y-40382000I0J326200D01*
G01*
X136359050Y-39882000D01*
G75*
G02*
X136685250Y-39555800I326200J0D01*
G01*
G37*
G36*
G01*
X136685250Y-41455800D02*
X137635250Y-41455800D01*
G75*
G02*
X137961450Y-41782000I0J-326200D01*
G01*
X137961450Y-42282000D01*
G75*
G02*
X137635250Y-42608200I-326200J0D01*
G01*
X136685250Y-42608200D01*
G75*
G02*
X136359050Y-42282000I0J326200D01*
G01*
X136359050Y-41782000D01*
G75*
G02*
X136685250Y-41455800I326200J0D01*
G01*
G37*
D10*
X185330000Y-47093333D03*
G36*
G01*
X128095000Y-136921200D02*
X126995000Y-136921200D01*
G75*
G02*
X126668800Y-136595000I0J326200D01*
G01*
X126668800Y-133595000D01*
G75*
G02*
X126995000Y-133268800I326200J0D01*
G01*
X128095000Y-133268800D01*
G75*
G02*
X128421200Y-133595000I0J-326200D01*
G01*
X128421200Y-136595000D01*
G75*
G02*
X128095000Y-136921200I-326200J0D01*
G01*
G37*
G36*
G01*
X128095000Y-131521200D02*
X126995000Y-131521200D01*
G75*
G02*
X126668800Y-131195000I0J326200D01*
G01*
X126668800Y-128195000D01*
G75*
G02*
X126995000Y-127868800I326200J0D01*
G01*
X128095000Y-127868800D01*
G75*
G02*
X128421200Y-128195000I0J-326200D01*
G01*
X128421200Y-131195000D01*
G75*
G02*
X128095000Y-131521200I-326200J0D01*
G01*
G37*
G36*
G01*
X134726000Y-42583200D02*
X133826000Y-42583200D01*
G75*
G02*
X133499800Y-42257000I0J326200D01*
G01*
X133499800Y-41732000D01*
G75*
G02*
X133826000Y-41405800I326200J0D01*
G01*
X134726000Y-41405800D01*
G75*
G02*
X135052200Y-41732000I0J-326200D01*
G01*
X135052200Y-42257000D01*
G75*
G02*
X134726000Y-42583200I-326200J0D01*
G01*
G37*
G36*
G01*
X134726000Y-40758200D02*
X133826000Y-40758200D01*
G75*
G02*
X133499800Y-40432000I0J326200D01*
G01*
X133499800Y-39907000D01*
G75*
G02*
X133826000Y-39580800I326200J0D01*
G01*
X134726000Y-39580800D01*
G75*
G02*
X135052200Y-39907000I0J-326200D01*
G01*
X135052200Y-40432000D01*
G75*
G02*
X134726000Y-40758200I-326200J0D01*
G01*
G37*
G36*
G01*
X152668200Y-55999000D02*
X152668200Y-56899000D01*
G75*
G02*
X152342000Y-57225200I-326200J0D01*
G01*
X151817000Y-57225200D01*
G75*
G02*
X151490800Y-56899000I0J326200D01*
G01*
X151490800Y-55999000D01*
G75*
G02*
X151817000Y-55672800I326200J0D01*
G01*
X152342000Y-55672800D01*
G75*
G02*
X152668200Y-55999000I0J-326200D01*
G01*
G37*
G36*
G01*
X150843200Y-55999000D02*
X150843200Y-56899000D01*
G75*
G02*
X150517000Y-57225200I-326200J0D01*
G01*
X149992000Y-57225200D01*
G75*
G02*
X149665800Y-56899000I0J326200D01*
G01*
X149665800Y-55999000D01*
G75*
G02*
X149992000Y-55672800I326200J0D01*
G01*
X150517000Y-55672800D01*
G75*
G02*
X150843200Y-55999000I0J-326200D01*
G01*
G37*
G36*
G01*
X136584800Y-61985250D02*
X136584800Y-61072750D01*
G75*
G02*
X136904750Y-60752800I319950J0D01*
G01*
X137392250Y-60752800D01*
G75*
G02*
X137712200Y-61072750I0J-319950D01*
G01*
X137712200Y-61985250D01*
G75*
G02*
X137392250Y-62305200I-319950J0D01*
G01*
X136904750Y-62305200D01*
G75*
G02*
X136584800Y-61985250I0J319950D01*
G01*
G37*
G36*
G01*
X138459800Y-61985250D02*
X138459800Y-61072750D01*
G75*
G02*
X138779750Y-60752800I319950J0D01*
G01*
X139267250Y-60752800D01*
G75*
G02*
X139587200Y-61072750I0J-319950D01*
G01*
X139587200Y-61985250D01*
G75*
G02*
X139267250Y-62305200I-319950J0D01*
G01*
X138779750Y-62305200D01*
G75*
G02*
X138459800Y-61985250I0J319950D01*
G01*
G37*
X185330000Y-86040000D03*
G36*
G01*
X146802700Y-208227250D02*
X146802700Y-209127250D01*
G75*
G02*
X146476500Y-209453450I-326200J0D01*
G01*
X145951500Y-209453450D01*
G75*
G02*
X145625300Y-209127250I0J326200D01*
G01*
X145625300Y-208227250D01*
G75*
G02*
X145951500Y-207901050I326200J0D01*
G01*
X146476500Y-207901050D01*
G75*
G02*
X146802700Y-208227250I0J-326200D01*
G01*
G37*
G36*
G01*
X144977700Y-208227250D02*
X144977700Y-209127250D01*
G75*
G02*
X144651500Y-209453450I-326200J0D01*
G01*
X144126500Y-209453450D01*
G75*
G02*
X143800300Y-209127250I0J326200D01*
G01*
X143800300Y-208227250D01*
G75*
G02*
X144126500Y-207901050I326200J0D01*
G01*
X144651500Y-207901050D01*
G75*
G02*
X144977700Y-208227250I0J-326200D01*
G01*
G37*
G36*
G01*
X128095000Y-96281200D02*
X126995000Y-96281200D01*
G75*
G02*
X126668800Y-95955000I0J326200D01*
G01*
X126668800Y-92955000D01*
G75*
G02*
X126995000Y-92628800I326200J0D01*
G01*
X128095000Y-92628800D01*
G75*
G02*
X128421200Y-92955000I0J-326200D01*
G01*
X128421200Y-95955000D01*
G75*
G02*
X128095000Y-96281200I-326200J0D01*
G01*
G37*
G36*
G01*
X128095000Y-90881200D02*
X126995000Y-90881200D01*
G75*
G02*
X126668800Y-90555000I0J326200D01*
G01*
X126668800Y-87555000D01*
G75*
G02*
X126995000Y-87228800I326200J0D01*
G01*
X128095000Y-87228800D01*
G75*
G02*
X128421200Y-87555000I0J-326200D01*
G01*
X128421200Y-90555000D01*
G75*
G02*
X128095000Y-90881200I-326200J0D01*
G01*
G37*
D13*
X181012000Y-72578000D03*
G36*
G01*
X146802700Y-126947250D02*
X146802700Y-127847250D01*
G75*
G02*
X146476500Y-128173450I-326200J0D01*
G01*
X145951500Y-128173450D01*
G75*
G02*
X145625300Y-127847250I0J326200D01*
G01*
X145625300Y-126947250D01*
G75*
G02*
X145951500Y-126621050I326200J0D01*
G01*
X146476500Y-126621050D01*
G75*
G02*
X146802700Y-126947250I0J-326200D01*
G01*
G37*
G36*
G01*
X144977700Y-126947250D02*
X144977700Y-127847250D01*
G75*
G02*
X144651500Y-128173450I-326200J0D01*
G01*
X144126500Y-128173450D01*
G75*
G02*
X143800300Y-127847250I0J326200D01*
G01*
X143800300Y-126947250D01*
G75*
G02*
X144126500Y-126621050I326200J0D01*
G01*
X144651500Y-126621050D01*
G75*
G02*
X144977700Y-126947250I0J-326200D01*
G01*
G37*
G36*
G01*
X115927000Y-202993800D02*
X117827000Y-202993800D01*
G75*
G02*
X117903200Y-203070000I0J-76200D01*
G01*
X117903200Y-204470000D01*
G75*
G02*
X117827000Y-204546200I-76200J0D01*
G01*
X115927000Y-204546200D01*
G75*
G02*
X115850800Y-204470000I0J76200D01*
G01*
X115850800Y-203070000D01*
G75*
G02*
X115927000Y-202993800I76200J0D01*
G01*
G37*
G36*
G01*
X115927000Y-206293800D02*
X117827000Y-206293800D01*
G75*
G02*
X117903200Y-206370000I0J-76200D01*
G01*
X117903200Y-207770000D01*
G75*
G02*
X117827000Y-207846200I-76200J0D01*
G01*
X115927000Y-207846200D01*
G75*
G02*
X115850800Y-207770000I0J76200D01*
G01*
X115850800Y-206370000D01*
G75*
G02*
X115927000Y-206293800I76200J0D01*
G01*
G37*
X115988000Y-72578000D03*
D10*
X148076667Y-187640000D03*
D13*
X181012000Y-183322000D03*
G36*
G01*
X157205200Y-81028000D02*
X157205200Y-83178000D01*
G75*
G02*
X156879000Y-83504200I-326200J0D01*
G01*
X156254000Y-83504200D01*
G75*
G02*
X155927800Y-83178000I0J326200D01*
G01*
X155927800Y-81028000D01*
G75*
G02*
X156254000Y-80701800I326200J0D01*
G01*
X156879000Y-80701800D01*
G75*
G02*
X157205200Y-81028000I0J-326200D01*
G01*
G37*
G36*
G01*
X154280200Y-81028000D02*
X154280200Y-83178000D01*
G75*
G02*
X153954000Y-83504200I-326200J0D01*
G01*
X153329000Y-83504200D01*
G75*
G02*
X153002800Y-83178000I0J326200D01*
G01*
X153002800Y-81028000D01*
G75*
G02*
X153329000Y-80701800I326200J0D01*
G01*
X153954000Y-80701800D01*
G75*
G02*
X154280200Y-81028000I0J-326200D01*
G01*
G37*
G36*
G01*
X139587200Y-139819000D02*
X139587200Y-140719000D01*
G75*
G02*
X139261000Y-141045200I-326200J0D01*
G01*
X138736000Y-141045200D01*
G75*
G02*
X138409800Y-140719000I0J326200D01*
G01*
X138409800Y-139819000D01*
G75*
G02*
X138736000Y-139492800I326200J0D01*
G01*
X139261000Y-139492800D01*
G75*
G02*
X139587200Y-139819000I0J-326200D01*
G01*
G37*
G36*
G01*
X137762200Y-139819000D02*
X137762200Y-140719000D01*
G75*
G02*
X137436000Y-141045200I-326200J0D01*
G01*
X136911000Y-141045200D01*
G75*
G02*
X136584800Y-140719000I0J326200D01*
G01*
X136584800Y-139819000D01*
G75*
G02*
X136911000Y-139492800I326200J0D01*
G01*
X137436000Y-139492800D01*
G75*
G02*
X137762200Y-139819000I0J-326200D01*
G01*
G37*
X181012000Y-102042000D03*
G36*
G01*
X146851200Y-43020000D02*
X146851200Y-43970000D01*
G75*
G02*
X146525000Y-44296200I-326200J0D01*
G01*
X146025000Y-44296200D01*
G75*
G02*
X145698800Y-43970000I0J326200D01*
G01*
X145698800Y-43020000D01*
G75*
G02*
X146025000Y-42693800I326200J0D01*
G01*
X146525000Y-42693800D01*
G75*
G02*
X146851200Y-43020000I0J-326200D01*
G01*
G37*
G36*
G01*
X144951200Y-43020000D02*
X144951200Y-43970000D01*
G75*
G02*
X144625000Y-44296200I-326200J0D01*
G01*
X144125000Y-44296200D01*
G75*
G02*
X143798800Y-43970000I0J326200D01*
G01*
X143798800Y-43020000D01*
G75*
G02*
X144125000Y-42693800I326200J0D01*
G01*
X144625000Y-42693800D01*
G75*
G02*
X144951200Y-43020000I0J-326200D01*
G01*
G37*
X115988000Y-194498000D03*
D10*
X111670000Y-129220000D03*
G36*
G01*
X151738500Y-176438600D02*
X150341500Y-176438600D01*
G75*
G02*
X150265300Y-176362400I0J76200D01*
G01*
X150265300Y-174660600D01*
G75*
G02*
X150341500Y-174584400I76200J0D01*
G01*
X151738500Y-174584400D01*
G75*
G02*
X151814700Y-174660600I0J-76200D01*
G01*
X151814700Y-176362400D01*
G75*
G02*
X151738500Y-176438600I-76200J0D01*
G01*
G37*
G36*
G01*
X154278500Y-176438600D02*
X152881500Y-176438600D01*
G75*
G02*
X152805300Y-176362400I0J76200D01*
G01*
X152805300Y-174660600D01*
G75*
G02*
X152881500Y-174584400I76200J0D01*
G01*
X154278500Y-174584400D01*
G75*
G02*
X154354700Y-174660600I0J-76200D01*
G01*
X154354700Y-176362400D01*
G75*
G02*
X154278500Y-176438600I-76200J0D01*
G01*
G37*
G36*
G01*
X154278500Y-167421600D02*
X152881500Y-167421600D01*
G75*
G02*
X152805300Y-167345400I0J76200D01*
G01*
X152805300Y-165643600D01*
G75*
G02*
X152881500Y-165567400I76200J0D01*
G01*
X154278500Y-165567400D01*
G75*
G02*
X154354700Y-165643600I0J-76200D01*
G01*
X154354700Y-167345400D01*
G75*
G02*
X154278500Y-167421600I-76200J0D01*
G01*
G37*
G36*
G01*
X151738500Y-167421600D02*
X150341500Y-167421600D01*
G75*
G02*
X150265300Y-167345400I0J76200D01*
G01*
X150265300Y-165643600D01*
G75*
G02*
X150341500Y-165567400I76200J0D01*
G01*
X151738500Y-165567400D01*
G75*
G02*
X151814700Y-165643600I0J-76200D01*
G01*
X151814700Y-167345400D01*
G75*
G02*
X151738500Y-167421600I-76200J0D01*
G01*
G37*
D13*
X181012000Y-194498000D03*
G36*
G01*
X131483250Y-161250800D02*
X131783250Y-161250800D01*
G75*
G02*
X132009450Y-161477000I0J-226200D01*
G01*
X132009450Y-162652000D01*
G75*
G02*
X131783250Y-162878200I-226200J0D01*
G01*
X131483250Y-162878200D01*
G75*
G02*
X131257050Y-162652000I0J226200D01*
G01*
X131257050Y-161477000D01*
G75*
G02*
X131483250Y-161250800I226200J0D01*
G01*
G37*
G36*
G01*
X129583250Y-161250800D02*
X129883250Y-161250800D01*
G75*
G02*
X130109450Y-161477000I0J-226200D01*
G01*
X130109450Y-162652000D01*
G75*
G02*
X129883250Y-162878200I-226200J0D01*
G01*
X129583250Y-162878200D01*
G75*
G02*
X129357050Y-162652000I0J226200D01*
G01*
X129357050Y-161477000D01*
G75*
G02*
X129583250Y-161250800I226200J0D01*
G01*
G37*
G36*
G01*
X130533250Y-163125800D02*
X130833250Y-163125800D01*
G75*
G02*
X131059450Y-163352000I0J-226200D01*
G01*
X131059450Y-164527000D01*
G75*
G02*
X130833250Y-164753200I-226200J0D01*
G01*
X130533250Y-164753200D01*
G75*
G02*
X130307050Y-164527000I0J226200D01*
G01*
X130307050Y-163352000D01*
G75*
G02*
X130533250Y-163125800I226200J0D01*
G01*
G37*
M02*
