G04 #@! TF.GenerationSoftware,KiCad,Pcbnew,6.0.2+dfsg-1*
G04 #@! TF.CreationDate,2024-05-29T15:43:08-06:00*
G04 #@! TF.ProjectId,mss-crossover-array,6d73732d-6372-46f7-9373-6f7665722d61,rev?*
G04 #@! TF.SameCoordinates,Original*
G04 #@! TF.FileFunction,Soldermask,Bot*
G04 #@! TF.FilePolarity,Negative*
%FSLAX46Y46*%
G04 Gerber Fmt 4.6, Leading zero omitted, Abs format (unit mm)*
G04 Created by KiCad (PCBNEW 6.0.2+dfsg-1) date 2024-05-29 15:43:08*
%MOMM*%
%LPD*%
G01*
G04 APERTURE LIST*
%ADD10C,0.500000*%
%ADD11C,3.352400*%
%ADD12C,1.652400*%
%ADD13C,6.552400*%
%ADD14C,1.143000*%
%ADD15C,2.652400*%
%ADD16C,1.728000*%
%ADD17C,2.000000*%
%ADD18C,2.152400*%
G04 APERTURE END LIST*
D10*
X149770000Y-147000000D03*
X185330000Y-167320000D03*
X185330000Y-207960000D03*
D11*
X162815500Y-35387000D03*
X174245500Y-35387000D03*
G36*
G01*
X173801700Y-40987000D02*
X173801700Y-42487000D01*
G75*
G02*
X173725500Y-42563200I-76200J0D01*
G01*
X172225500Y-42563200D01*
G75*
G02*
X172149300Y-42487000I0J76200D01*
G01*
X172149300Y-40987000D01*
G75*
G02*
X172225500Y-40910800I76200J0D01*
G01*
X173725500Y-40910800D01*
G75*
G02*
X173801700Y-40987000I0J-76200D01*
G01*
G37*
D12*
X171705500Y-44277000D03*
X170435500Y-41737000D03*
X169165500Y-44277000D03*
X167895500Y-41737000D03*
X166625500Y-44277000D03*
X165355500Y-41737000D03*
X164085500Y-44277000D03*
D10*
X147230000Y-65720000D03*
X147230000Y-147000000D03*
D13*
X115988000Y-102042000D03*
D10*
X185330000Y-88580000D03*
D14*
X134657000Y-133030000D03*
X133641000Y-127950000D03*
X135673000Y-127950000D03*
D10*
X185330000Y-168166666D03*
G36*
G01*
X117486000Y-47923800D02*
X119986000Y-47923800D01*
G75*
G02*
X120062200Y-48000000I0J-76200D01*
G01*
X120062200Y-50500000D01*
G75*
G02*
X119986000Y-50576200I-76200J0D01*
G01*
X117486000Y-50576200D01*
G75*
G02*
X117409800Y-50500000I0J76200D01*
G01*
X117409800Y-48000000D01*
G75*
G02*
X117486000Y-47923800I76200J0D01*
G01*
G37*
D15*
X118736000Y-54250000D03*
G36*
G01*
X158168200Y-74330000D02*
X158168200Y-76830000D01*
G75*
G02*
X158092000Y-76906200I-76200J0D01*
G01*
X155592000Y-76906200D01*
G75*
G02*
X155515800Y-76830000I0J76200D01*
G01*
X155515800Y-74330000D01*
G75*
G02*
X155592000Y-74253800I76200J0D01*
G01*
X158092000Y-74253800D01*
G75*
G02*
X158168200Y-74330000I0J-76200D01*
G01*
G37*
X151842000Y-75580000D03*
G36*
G01*
X136410000Y-195006000D02*
X136410000Y-196530000D01*
G75*
G02*
X136308000Y-196632000I-102000J0D01*
G01*
X134784000Y-196632000D01*
G75*
G02*
X134682000Y-196530000I0J102000D01*
G01*
X134682000Y-195006000D01*
G75*
G02*
X134784000Y-194904000I102000J0D01*
G01*
X136308000Y-194904000D01*
G75*
G02*
X136410000Y-195006000I0J-102000D01*
G01*
G37*
D16*
X122846000Y-195768000D03*
D10*
X148076667Y-108900000D03*
X147230000Y-187640000D03*
G36*
G01*
X136410000Y-154366000D02*
X136410000Y-155890000D01*
G75*
G02*
X136308000Y-155992000I-102000J0D01*
G01*
X134784000Y-155992000D01*
G75*
G02*
X134682000Y-155890000I0J102000D01*
G01*
X134682000Y-154366000D01*
G75*
G02*
X134784000Y-154264000I102000J0D01*
G01*
X136308000Y-154264000D01*
G75*
G02*
X136410000Y-154366000I0J-102000D01*
G01*
G37*
D16*
X122846000Y-155128000D03*
D10*
X185330000Y-209653333D03*
X148923333Y-108900000D03*
X147230000Y-106360000D03*
X111670000Y-169860000D03*
X149770000Y-68260000D03*
X185330000Y-127526666D03*
X148076667Y-190180000D03*
X111670000Y-168166666D03*
X147230000Y-190180000D03*
D11*
X174245500Y-157307000D03*
X162815500Y-157307000D03*
G36*
G01*
X173801700Y-162907000D02*
X173801700Y-164407000D01*
G75*
G02*
X173725500Y-164483200I-76200J0D01*
G01*
X172225500Y-164483200D01*
G75*
G02*
X172149300Y-164407000I0J76200D01*
G01*
X172149300Y-162907000D01*
G75*
G02*
X172225500Y-162830800I76200J0D01*
G01*
X173725500Y-162830800D01*
G75*
G02*
X173801700Y-162907000I0J-76200D01*
G01*
G37*
D12*
X171705500Y-166197000D03*
X170435500Y-163657000D03*
X169165500Y-166197000D03*
X167895500Y-163657000D03*
X166625500Y-166197000D03*
X165355500Y-163657000D03*
X164085500Y-166197000D03*
D14*
X134657000Y-51750000D03*
X135673000Y-46670000D03*
X133641000Y-46670000D03*
D10*
X149770000Y-65720000D03*
X111670000Y-47940000D03*
X148076667Y-228280000D03*
D14*
X133641000Y-168590000D03*
X135673000Y-168590000D03*
X134657000Y-173670000D03*
D10*
X111670000Y-127526666D03*
X148923333Y-27620000D03*
X147230000Y-108900000D03*
X185330000Y-126680000D03*
X185330000Y-45400000D03*
X185330000Y-86886666D03*
X185330000Y-47940000D03*
X111670000Y-207960000D03*
D11*
X162815500Y-116667000D03*
X174245500Y-116667000D03*
G36*
G01*
X173801700Y-122267000D02*
X173801700Y-123767000D01*
G75*
G02*
X173725500Y-123843200I-76200J0D01*
G01*
X172225500Y-123843200D01*
G75*
G02*
X172149300Y-123767000I0J76200D01*
G01*
X172149300Y-122267000D01*
G75*
G02*
X172225500Y-122190800I76200J0D01*
G01*
X173725500Y-122190800D01*
G75*
G02*
X173801700Y-122267000I0J-76200D01*
G01*
G37*
D12*
X171705500Y-125557000D03*
X170435500Y-123017000D03*
X169165500Y-125557000D03*
X167895500Y-123017000D03*
X166625500Y-125557000D03*
X165355500Y-123017000D03*
X164085500Y-125557000D03*
D10*
X148076667Y-68260000D03*
G36*
G01*
X136410000Y-73086000D02*
X136410000Y-74610000D01*
G75*
G02*
X136308000Y-74712000I-102000J0D01*
G01*
X134784000Y-74712000D01*
G75*
G02*
X134682000Y-74610000I0J102000D01*
G01*
X134682000Y-73086000D01*
G75*
G02*
X134784000Y-72984000I102000J0D01*
G01*
X136308000Y-72984000D01*
G75*
G02*
X136410000Y-73086000I0J-102000D01*
G01*
G37*
D16*
X122846000Y-73848000D03*
G36*
G01*
X117486000Y-210483800D02*
X119986000Y-210483800D01*
G75*
G02*
X120062200Y-210560000I0J-76200D01*
G01*
X120062200Y-213060000D01*
G75*
G02*
X119986000Y-213136200I-76200J0D01*
G01*
X117486000Y-213136200D01*
G75*
G02*
X117409800Y-213060000I0J76200D01*
G01*
X117409800Y-210560000D01*
G75*
G02*
X117486000Y-210483800I76200J0D01*
G01*
G37*
D15*
X118736000Y-216810000D03*
D13*
X181012000Y-61402000D03*
D10*
X149770000Y-228280000D03*
X148923333Y-65720000D03*
D11*
X174245500Y-76027000D03*
X162815500Y-76027000D03*
G36*
G01*
X173801700Y-81627000D02*
X173801700Y-83127000D01*
G75*
G02*
X173725500Y-83203200I-76200J0D01*
G01*
X172225500Y-83203200D01*
G75*
G02*
X172149300Y-83127000I0J76200D01*
G01*
X172149300Y-81627000D01*
G75*
G02*
X172225500Y-81550800I76200J0D01*
G01*
X173725500Y-81550800D01*
G75*
G02*
X173801700Y-81627000I0J-76200D01*
G01*
G37*
D12*
X171705500Y-84917000D03*
X170435500Y-82377000D03*
X169165500Y-84917000D03*
X167895500Y-82377000D03*
X166625500Y-84917000D03*
X165355500Y-82377000D03*
X164085500Y-84917000D03*
D10*
X185330000Y-128373333D03*
X148923333Y-147000000D03*
X111670000Y-46246667D03*
X147230000Y-68260000D03*
G36*
G01*
X158168200Y-155610000D02*
X158168200Y-158110000D01*
G75*
G02*
X158092000Y-158186200I-76200J0D01*
G01*
X155592000Y-158186200D01*
G75*
G02*
X155515800Y-158110000I0J76200D01*
G01*
X155515800Y-155610000D01*
G75*
G02*
X155592000Y-155533800I76200J0D01*
G01*
X158092000Y-155533800D01*
G75*
G02*
X158168200Y-155610000I0J-76200D01*
G01*
G37*
D15*
X151842000Y-156860000D03*
D10*
X111670000Y-128373333D03*
X148076667Y-27620000D03*
D11*
X162759500Y-139233000D03*
X174189500Y-139233000D03*
G36*
G01*
X163203300Y-133633000D02*
X163203300Y-132133000D01*
G75*
G02*
X163279500Y-132056800I76200J0D01*
G01*
X164779500Y-132056800D01*
G75*
G02*
X164855700Y-132133000I0J-76200D01*
G01*
X164855700Y-133633000D01*
G75*
G02*
X164779500Y-133709200I-76200J0D01*
G01*
X163279500Y-133709200D01*
G75*
G02*
X163203300Y-133633000I0J76200D01*
G01*
G37*
D12*
X165299500Y-130343000D03*
X166569500Y-132883000D03*
X167839500Y-130343000D03*
X169109500Y-132883000D03*
X170379500Y-130343000D03*
X171649500Y-132883000D03*
X172919500Y-130343000D03*
D14*
X133641000Y-87310000D03*
X135673000Y-87310000D03*
X134657000Y-92390000D03*
D10*
X149770000Y-106360000D03*
X149770000Y-190180000D03*
X148076667Y-106360000D03*
G36*
G01*
X136410000Y-32446000D02*
X136410000Y-33970000D01*
G75*
G02*
X136308000Y-34072000I-102000J0D01*
G01*
X134784000Y-34072000D01*
G75*
G02*
X134682000Y-33970000I0J102000D01*
G01*
X134682000Y-32446000D01*
G75*
G02*
X134784000Y-32344000I102000J0D01*
G01*
X136308000Y-32344000D01*
G75*
G02*
X136410000Y-32446000I0J-102000D01*
G01*
G37*
D16*
X122846000Y-33208000D03*
G36*
G01*
X117486000Y-129203800D02*
X119986000Y-129203800D01*
G75*
G02*
X120062200Y-129280000I0J-76200D01*
G01*
X120062200Y-131780000D01*
G75*
G02*
X119986000Y-131856200I-76200J0D01*
G01*
X117486000Y-131856200D01*
G75*
G02*
X117409800Y-131780000I0J76200D01*
G01*
X117409800Y-129280000D01*
G75*
G02*
X117486000Y-129203800I76200J0D01*
G01*
G37*
D15*
X118736000Y-135530000D03*
D13*
X181012000Y-113218000D03*
X115988000Y-223962000D03*
D11*
X174189500Y-179873000D03*
X162759500Y-179873000D03*
G36*
G01*
X163203300Y-174273000D02*
X163203300Y-172773000D01*
G75*
G02*
X163279500Y-172696800I76200J0D01*
G01*
X164779500Y-172696800D01*
G75*
G02*
X164855700Y-172773000I0J-76200D01*
G01*
X164855700Y-174273000D01*
G75*
G02*
X164779500Y-174349200I-76200J0D01*
G01*
X163279500Y-174349200D01*
G75*
G02*
X163203300Y-174273000I0J76200D01*
G01*
G37*
D12*
X165299500Y-170983000D03*
X166569500Y-173523000D03*
X167839500Y-170983000D03*
X169109500Y-173523000D03*
X170379500Y-170983000D03*
X171649500Y-173523000D03*
X172919500Y-170983000D03*
D10*
X111670000Y-86886666D03*
X147230000Y-27620000D03*
X111670000Y-169013333D03*
X149770000Y-187640000D03*
X111670000Y-167320000D03*
G36*
G01*
X117486000Y-169843800D02*
X119986000Y-169843800D01*
G75*
G02*
X120062200Y-169920000I0J-76200D01*
G01*
X120062200Y-172420000D01*
G75*
G02*
X119986000Y-172496200I-76200J0D01*
G01*
X117486000Y-172496200D01*
G75*
G02*
X117409800Y-172420000I0J76200D01*
G01*
X117409800Y-169920000D01*
G75*
G02*
X117486000Y-169843800I76200J0D01*
G01*
G37*
D15*
X118736000Y-176170000D03*
D13*
X115988000Y-153858000D03*
G36*
G01*
X158168200Y-196250000D02*
X158168200Y-198750000D01*
G75*
G02*
X158092000Y-198826200I-76200J0D01*
G01*
X155592000Y-198826200D01*
G75*
G02*
X155515800Y-198750000I0J76200D01*
G01*
X155515800Y-196250000D01*
G75*
G02*
X155592000Y-196173800I76200J0D01*
G01*
X158092000Y-196173800D01*
G75*
G02*
X158168200Y-196250000I0J-76200D01*
G01*
G37*
D15*
X151842000Y-197500000D03*
D10*
X148076667Y-65720000D03*
X185330000Y-210500000D03*
D13*
X181012000Y-142682000D03*
G36*
G01*
X136410000Y-113726000D02*
X136410000Y-115250000D01*
G75*
G02*
X136308000Y-115352000I-102000J0D01*
G01*
X134784000Y-115352000D01*
G75*
G02*
X134682000Y-115250000I0J102000D01*
G01*
X134682000Y-113726000D01*
G75*
G02*
X134784000Y-113624000I102000J0D01*
G01*
X136308000Y-113624000D01*
G75*
G02*
X136410000Y-113726000I0J-102000D01*
G01*
G37*
D16*
X122846000Y-114488000D03*
D10*
X149770000Y-108900000D03*
D11*
X174189500Y-98593000D03*
X162759500Y-98593000D03*
G36*
G01*
X163203300Y-92993000D02*
X163203300Y-91493000D01*
G75*
G02*
X163279500Y-91416800I76200J0D01*
G01*
X164779500Y-91416800D01*
G75*
G02*
X164855700Y-91493000I0J-76200D01*
G01*
X164855700Y-92993000D01*
G75*
G02*
X164779500Y-93069200I-76200J0D01*
G01*
X163279500Y-93069200D01*
G75*
G02*
X163203300Y-92993000I0J76200D01*
G01*
G37*
D12*
X165299500Y-89703000D03*
X166569500Y-92243000D03*
X167839500Y-89703000D03*
X169109500Y-92243000D03*
X170379500Y-89703000D03*
X171649500Y-92243000D03*
X172919500Y-89703000D03*
D13*
X115988000Y-183322000D03*
D10*
X111670000Y-87733333D03*
X111670000Y-208806666D03*
X149770000Y-27620000D03*
D13*
X115988000Y-142682000D03*
D11*
X174189500Y-57953000D03*
X162759500Y-57953000D03*
G36*
G01*
X163203300Y-52353000D02*
X163203300Y-50853000D01*
G75*
G02*
X163279500Y-50776800I76200J0D01*
G01*
X164779500Y-50776800D01*
G75*
G02*
X164855700Y-50853000I0J-76200D01*
G01*
X164855700Y-52353000D01*
G75*
G02*
X164779500Y-52429200I-76200J0D01*
G01*
X163279500Y-52429200D01*
G75*
G02*
X163203300Y-52353000I0J76200D01*
G01*
G37*
D12*
X165299500Y-49063000D03*
X166569500Y-51603000D03*
X167839500Y-49063000D03*
X169109500Y-51603000D03*
X170379500Y-49063000D03*
X171649500Y-51603000D03*
X172919500Y-49063000D03*
D10*
X111670000Y-209653333D03*
D13*
X115988000Y-31938000D03*
D10*
X185330000Y-169013333D03*
X185330000Y-129220000D03*
X111670000Y-126680000D03*
X147230000Y-228280000D03*
D13*
X115988000Y-113218000D03*
X115988000Y-61402000D03*
D10*
X148923333Y-187640000D03*
X148923333Y-106360000D03*
X148076667Y-149540000D03*
D13*
X181012000Y-223962000D03*
D10*
X149770000Y-149540000D03*
X148923333Y-149540000D03*
X111670000Y-210500000D03*
X185330000Y-169860000D03*
D14*
X133641000Y-209230000D03*
X134657000Y-214310000D03*
X135673000Y-209230000D03*
D10*
X111670000Y-47093333D03*
D11*
X174189500Y-220513000D03*
X162759500Y-220513000D03*
G36*
G01*
X163203300Y-214913000D02*
X163203300Y-213413000D01*
G75*
G02*
X163279500Y-213336800I76200J0D01*
G01*
X164779500Y-213336800D01*
G75*
G02*
X164855700Y-213413000I0J-76200D01*
G01*
X164855700Y-214913000D01*
G75*
G02*
X164779500Y-214989200I-76200J0D01*
G01*
X163279500Y-214989200D01*
G75*
G02*
X163203300Y-214913000I0J76200D01*
G01*
G37*
D12*
X165299500Y-211623000D03*
X166569500Y-214163000D03*
X167839500Y-211623000D03*
X169109500Y-214163000D03*
X170379500Y-211623000D03*
X171649500Y-214163000D03*
X172919500Y-211623000D03*
D10*
X148923333Y-228280000D03*
X185330000Y-208806666D03*
D13*
X181012000Y-153858000D03*
D10*
X111670000Y-86040000D03*
D13*
X181012000Y-31938000D03*
D10*
X148076667Y-147000000D03*
X148923333Y-190180000D03*
X111670000Y-88580000D03*
G36*
G01*
X158168200Y-33690000D02*
X158168200Y-36190000D01*
G75*
G02*
X158092000Y-36266200I-76200J0D01*
G01*
X155592000Y-36266200D01*
G75*
G02*
X155515800Y-36190000I0J76200D01*
G01*
X155515800Y-33690000D01*
G75*
G02*
X155592000Y-33613800I76200J0D01*
G01*
X158092000Y-33613800D01*
G75*
G02*
X158168200Y-33690000I0J-76200D01*
G01*
G37*
D15*
X151842000Y-34940000D03*
D10*
X148923333Y-68260000D03*
X185330000Y-87733333D03*
X111670000Y-45400000D03*
X147230000Y-149540000D03*
D11*
X162815500Y-197947000D03*
X174245500Y-197947000D03*
G36*
G01*
X173801700Y-203547000D02*
X173801700Y-205047000D01*
G75*
G02*
X173725500Y-205123200I-76200J0D01*
G01*
X172225500Y-205123200D01*
G75*
G02*
X172149300Y-205047000I0J76200D01*
G01*
X172149300Y-203547000D01*
G75*
G02*
X172225500Y-203470800I76200J0D01*
G01*
X173725500Y-203470800D01*
G75*
G02*
X173801700Y-203547000I0J-76200D01*
G01*
G37*
D12*
X171705500Y-206837000D03*
X170435500Y-204297000D03*
X169165500Y-206837000D03*
X167895500Y-204297000D03*
X166625500Y-206837000D03*
X165355500Y-204297000D03*
X164085500Y-206837000D03*
D10*
X185330000Y-46246667D03*
G36*
G01*
X158168200Y-114970000D02*
X158168200Y-117470000D01*
G75*
G02*
X158092000Y-117546200I-76200J0D01*
G01*
X155592000Y-117546200D01*
G75*
G02*
X155515800Y-117470000I0J76200D01*
G01*
X155515800Y-114970000D01*
G75*
G02*
X155592000Y-114893800I76200J0D01*
G01*
X158092000Y-114893800D01*
G75*
G02*
X158168200Y-114970000I0J-76200D01*
G01*
G37*
D15*
X151842000Y-116220000D03*
G36*
G01*
X117486000Y-88563800D02*
X119986000Y-88563800D01*
G75*
G02*
X120062200Y-88640000I0J-76200D01*
G01*
X120062200Y-91140000D01*
G75*
G02*
X119986000Y-91216200I-76200J0D01*
G01*
X117486000Y-91216200D01*
G75*
G02*
X117409800Y-91140000I0J76200D01*
G01*
X117409800Y-88640000D01*
G75*
G02*
X117486000Y-88563800I76200J0D01*
G01*
G37*
X118736000Y-94890000D03*
D10*
X185330000Y-47093333D03*
X185330000Y-86040000D03*
D13*
X181012000Y-72578000D03*
X115988000Y-72578000D03*
D10*
X148076667Y-187640000D03*
D13*
X181012000Y-183322000D03*
X181012000Y-102042000D03*
X115988000Y-194498000D03*
D10*
X111670000Y-129220000D03*
D13*
X181012000Y-194498000D03*
D17*
X185330000Y-22540000D03*
D18*
X114464000Y-94930000D03*
X114464000Y-176210000D03*
X159676000Y-93914000D03*
D17*
X111670000Y-233360000D03*
X111670000Y-22540000D03*
D18*
X114464000Y-89977000D03*
X159676000Y-126299000D03*
X114464000Y-49337000D03*
X159676000Y-215834000D03*
X114464000Y-216850000D03*
X114464000Y-130617000D03*
X159676000Y-207579000D03*
X159676000Y-85659000D03*
X114464000Y-54290000D03*
X114464000Y-211897000D03*
X159676000Y-45019000D03*
X114464000Y-171257000D03*
X159676000Y-134554000D03*
X114464000Y-135570000D03*
X159676000Y-53274000D03*
X159676000Y-175194000D03*
X159676000Y-166939000D03*
M02*
