M48
INCH,TZ
T1C0.0120
T2C0.0299
T3C0.0400
T4C0.0512
T5C0.1260
%
G90
G05
T1
X49465Y-18724
X49465Y-19074
X49465Y-19424
X49465Y-34724
X49465Y-35074
X49465Y-35424
X49465Y-50724
X49465Y-51074
X49465Y-51424
X49465Y-66724
X49465Y-67074
X49465Y-67424
X49465Y-82724
X49465Y-83074
X49465Y-83424
X50065Y-23774
X50065Y-24124
X50065Y-24474
X50065Y-39774
X50065Y-40124
X50065Y-40474
X50065Y-55774
X50065Y-56124
X50065Y-56474
X50065Y-71774
X50065Y-72124
X50065Y-72474
X50065Y-87774
X50065Y-88124
X50065Y-88474
X50415Y-24974
X50415Y-40974
X50415Y-56974
X50415Y-72974
X50415Y-88974
X50815Y-24974
X50815Y-40974
X50815Y-56974
X50815Y-72974
X50815Y-88974
X50965Y-18724
X50965Y-19074
X50965Y-19424
X50965Y-34724
X50965Y-35074
X50965Y-35424
X50965Y-50724
X50965Y-51074
X50965Y-51424
X50965Y-66724
X50965Y-67074
X50965Y-67424
X50965Y-82724
X50965Y-83074
X50965Y-83424
X51215Y-24974
X51215Y-40974
X51215Y-56974
X51215Y-72974
X51215Y-88974
X51565Y-23774
X51565Y-24124
X51565Y-24474
X51565Y-39774
X51565Y-40124
X51565Y-40474
X51565Y-55774
X51565Y-56124
X51565Y-56474
X51565Y-71774
X51565Y-72124
X51565Y-72474
X51565Y-87774
X51565Y-88124
X51565Y-88474
X51965Y-19374
X51965Y-22274
X51965Y-35374
X51965Y-38274
X51965Y-51374
X51965Y-54274
X51965Y-67374
X51965Y-70274
X51965Y-83374
X51965Y-86274
X52215Y-22674
X52215Y-38674
X52215Y-54674
X52215Y-70674
X52215Y-86674
X52315Y-19374
X52315Y-35374
X52315Y-51374
X52315Y-67374
X52315Y-83374
X53315Y-22674
X53315Y-38674
X53315Y-54674
X53315Y-70674
X53315Y-86674
X53515Y-21024
X53515Y-37024
X53515Y-53024
X53515Y-69024
X53515Y-85024
X53715Y-18874
X53715Y-19674
X53715Y-22424
X53715Y-34874
X53715Y-35674
X53715Y-38424
X53715Y-50874
X53715Y-51674
X53715Y-54424
X53715Y-66874
X53715Y-67674
X53715Y-70424
X53715Y-82874
X53715Y-83674
X53715Y-86424
X55462Y-17750
X55462Y-33750
X55462Y-49750
X55462Y-65750
X55462Y-81750
X55565Y-12340
X55565Y-14540
X55565Y-28340
X55565Y-30540
X55565Y-44340
X55565Y-46540
X55565Y-60340
X55565Y-62540
X55565Y-76340
X55565Y-78540
X55789Y-18679
X55789Y-34679
X55789Y-50679
X55789Y-66679
X55789Y-82679
X56215Y-19624
X56215Y-35624
X56215Y-51624
X56215Y-67624
X56215Y-83624
X56315Y-22424
X56315Y-38424
X56315Y-54424
X56315Y-70424
X56315Y-86424
X56665Y-20074
X56665Y-36074
X56665Y-52074
X56665Y-68074
X56665Y-84074
X57215Y-17574
X57215Y-33574
X57215Y-49574
X57215Y-65574
X57215Y-81574
X57865Y-20524
X57865Y-36524
X57865Y-52524
X57865Y-68524
X57865Y-84524
X60465Y-21912
X60465Y-22312
X60465Y-37912
X60465Y-38312
X60465Y-53912
X60465Y-54312
X60465Y-69912
X60465Y-70312
X60465Y-85912
X60465Y-86312
X62715Y-20124
X62715Y-36124
X62715Y-52124
X62715Y-68124
X62715Y-84124
X62865Y-18524
X62865Y-34524
X62865Y-50524
X62865Y-66524
X62865Y-82524
X63065Y-20124
X63065Y-36124
X63065Y-52124
X63065Y-68124
X63065Y-84124
X63165Y-18524
X63165Y-34524
X63165Y-50524
X63165Y-66524
X63165Y-82524
X63408Y-20124
X63408Y-36124
X63408Y-52124
X63408Y-68124
X63408Y-84124
X63465Y-18524
X63465Y-34524
X63465Y-50524
X63465Y-66524
X63465Y-82524
X68315Y-15224
X68315Y-31224
X68315Y-47224
X68315Y-63224
X68315Y-79224
X69165Y-15574
X69165Y-31574
X69165Y-47574
X69165Y-63574
X69165Y-79574
T2
X64579Y-20316
X64579Y-36316
X64579Y-52316
X64579Y-68316
X64579Y-84316
X64601Y-17432
X64601Y-33432
X64601Y-49432
X64601Y-65432
X64601Y-81432
X65079Y-19316
X65079Y-35316
X65079Y-51316
X65079Y-67316
X65079Y-83316
X65101Y-16432
X65101Y-32432
X65101Y-48432
X65101Y-64432
X65101Y-80432
X65579Y-20316
X65579Y-36316
X65579Y-52316
X65579Y-68316
X65579Y-84316
X65601Y-17432
X65601Y-33432
X65601Y-49432
X65601Y-65432
X65601Y-81432
X66079Y-19316
X66079Y-35316
X66079Y-51316
X66079Y-67316
X66079Y-83316
X66101Y-16432
X66101Y-32432
X66101Y-48432
X66101Y-64432
X66101Y-80432
X66579Y-20316
X66579Y-36316
X66579Y-52316
X66579Y-68316
X66579Y-84316
X66601Y-17432
X66601Y-33432
X66601Y-49432
X66601Y-65432
X66601Y-81432
X67079Y-19316
X67079Y-35316
X67079Y-51316
X67079Y-67316
X67079Y-83316
X67101Y-16432
X67101Y-32432
X67101Y-48432
X67101Y-64432
X67101Y-80432
X67579Y-20316
X67579Y-36316
X67579Y-52316
X67579Y-68316
X67579Y-84316
X67601Y-17432
X67601Y-33432
X67601Y-49432
X67601Y-65432
X67601Y-81432
X68079Y-19316
X68079Y-35316
X68079Y-51316
X68079Y-67316
X68079Y-83316
X68101Y-16432
X68101Y-32432
X68101Y-48432
X68101Y-64432
X68101Y-80432
T3
X48365Y-13074
X48365Y-29074
X48365Y-45074
X48365Y-61074
X48365Y-77074
X53365Y-13074
X53365Y-29074
X53365Y-45074
X53365Y-61074
X53365Y-77074
T4
X46746Y-19390
X46746Y-21358
X46746Y-35390
X46746Y-37358
X46746Y-51390
X46746Y-53358
X46746Y-67390
X46746Y-69358
X46746Y-83390
X46746Y-85358
X59780Y-13756
X59780Y-29756
X59780Y-45756
X59780Y-61756
X59780Y-77756
X61749Y-13756
X61749Y-29756
X61749Y-45756
X61749Y-61756
X61749Y-77756
T5
X45665Y-12574
X45665Y-24174
X45665Y-28574
X45665Y-40174
X45665Y-44574
X45665Y-56174
X45665Y-60574
X45665Y-72174
X45665Y-76574
X45665Y-88174
X71265Y-12574
X71265Y-24174
X71265Y-28574
X71265Y-40174
X71265Y-44574
X71265Y-56174
X71265Y-60574
X71265Y-72174
X71265Y-76574
X71265Y-88174
T0
M30
