G04 start of page 9 for group -4079 idx -4079 *
G04 Title: (unknown), topsilk *
G04 Creator: pcb 20140316 *
G04 CreationDate: Sat 17 Sep 2016 09:31:19 PM GMT UTC *
G04 For: ndholmes *
G04 Format: Gerber/RS-274X *
G04 PCB-Dimensions (mil): 2500.00 1900.00 *
G04 PCB-Coordinate-Origin: lower left *
%MOIN*%
%FSLAX25Y25*%
%LNTOPSILK*%
%ADD96C,0.0200*%
%ADD95C,0.0080*%
%ADD94C,0.0100*%
G54D94*X249500Y189500D02*X500D01*
Y500D01*
X69000Y159000D02*X67000Y161000D01*
X69000Y159000D02*X67000Y157000D01*
X500Y500D02*X249500D01*
Y189500D01*
X33500Y23500D02*X103500D01*
X74000Y155000D02*G75*G02X69500Y150500I-4500J0D01*G01*
G75*G02X65000Y155000I0J4500D01*G01*
G75*G02X69000Y159000I4000J0D01*G01*
G54D95*X94000Y184725D02*Y181750D01*
Y184725D02*X94425Y185150D01*
X95700D01*
X96125Y184725D01*
Y181750D01*
X94000Y183450D02*X96125D01*
X97570Y181750D02*X98845D01*
X97145Y182175D02*X97570Y181750D01*
X97145Y184725D02*Y182175D01*
Y184725D02*X97570Y185150D01*
X98845D01*
X99865D02*X101565D01*
X100715D02*Y181750D01*
X105000Y184725D02*Y182175D01*
Y184725D02*X105425Y185150D01*
X106275D01*
X106700Y184725D01*
Y182175D01*
X106275Y181750D02*X106700Y182175D01*
X105425Y181750D02*X106275D01*
X105000Y182175D02*X105425Y181750D01*
X108145D02*X109420D01*
X107720Y182175D02*X108145Y181750D01*
X107720Y184725D02*Y182175D01*
Y184725D02*X108145Y185150D01*
X109420D01*
X110865Y181750D02*X112140D01*
X110440Y182175D02*X110865Y181750D01*
X110440Y184725D02*Y182175D01*
Y184725D02*X110865Y185150D01*
X112140D01*
X81925D02*Y181750D01*
X81500Y185150D02*X83200D01*
X83625Y184725D01*
Y183875D01*
X83200Y183450D02*X83625Y183875D01*
X81925Y183450D02*X83200D01*
X84645Y185150D02*Y181750D01*
X85920Y183025D01*
X87195Y181750D01*
Y185150D02*Y181750D01*
X88215Y185150D02*X89915D01*
X90340Y184725D01*
Y183875D01*
X89915Y183450D02*X90340Y183875D01*
X88640Y183450D02*X89915D01*
X88640Y185150D02*Y181750D01*
Y183450D02*X90340Y181750D01*
X84000Y163500D02*X86000D01*
X85000Y164500D02*Y162500D01*
X77500Y156000D02*Y152000D01*
Y156000D02*X79000Y154500D01*
X80500Y156000D01*
Y152000D01*
X81700Y155500D02*Y152500D01*
Y155500D02*X82200Y156000D01*
X83200D01*
X83700Y155500D01*
Y152500D01*
X83200Y152000D02*X83700Y152500D01*
X82200Y152000D02*X83200D01*
X81700Y152500D02*X82200Y152000D01*
X84900Y156000D02*X86900D01*
X87400Y155500D01*
Y154500D01*
X86900Y154000D02*X87400Y154500D01*
X85400Y154000D02*X86900D01*
X85400Y156000D02*Y152000D01*
Y154000D02*X87400Y152000D01*
X88600Y154000D02*X90100D01*
X88600Y152000D02*X90600D01*
X88600Y156000D02*Y152000D01*
Y156000D02*X90600D01*
X65000Y148500D02*X65500Y148000D01*
X63500Y148500D02*X65000D01*
X63000Y148000D02*X63500Y148500D01*
X63000Y148000D02*Y147000D01*
X63500Y146500D01*
X65000D01*
X65500Y146000D01*
Y145000D01*
X65000Y144500D02*X65500Y145000D01*
X63500Y144500D02*X65000D01*
X63000Y145000D02*X63500Y144500D01*
X66700Y146500D02*X68200D01*
X66700Y144500D02*X68700D01*
X66700Y148500D02*Y144500D01*
Y148500D02*X68700D01*
X69900D02*Y144500D01*
Y148500D02*Y148000D01*
X72400Y145500D01*
Y148500D02*Y144500D01*
X75600Y148500D02*X76100Y148000D01*
X74100Y148500D02*X75600D01*
X73600Y148000D02*X74100Y148500D01*
X73600Y148000D02*Y147000D01*
X74100Y146500D01*
X75600D01*
X76100Y146000D01*
Y145000D01*
X75600Y144500D02*X76100Y145000D01*
X74100Y144500D02*X75600D01*
X73600Y145000D02*X74100Y144500D01*
X77300Y148500D02*X78300D01*
X77800D02*Y144500D01*
X77300D02*X78300D01*
X79500Y148500D02*X81500D01*
X80500D02*Y144500D01*
X82700Y148500D02*X83700D01*
X83200D02*Y144500D01*
X82700D02*X83700D01*
X84900Y148500D02*Y145500D01*
X85900Y144500D01*
X86900Y145500D01*
Y148500D02*Y145500D01*
X88100Y146500D02*X89600D01*
X88100Y144500D02*X90100D01*
X88100Y148500D02*Y144500D01*
Y148500D02*X90100D01*
X243600Y48000D02*X248000D01*
X243600D02*X245250Y49650D01*
X243600Y51300D01*
X248000D01*
X243600Y54820D02*X244150Y55370D01*
X243600Y54820D02*Y53170D01*
X244150Y52620D02*X243600Y53170D01*
X244150Y52620D02*X245250D01*
X245800Y53170D01*
Y54820D02*Y53170D01*
Y54820D02*X246350Y55370D01*
X247450D01*
X248000Y54820D02*X247450Y55370D01*
X248000Y54820D02*Y53170D01*
X247450Y52620D02*X248000Y53170D01*
X243600Y58890D02*X244150Y59440D01*
X243600Y58890D02*Y57240D01*
X244150Y56690D02*X243600Y57240D01*
X244150Y56690D02*X245250D01*
X245800Y57240D01*
Y58890D02*Y57240D01*
Y58890D02*X246350Y59440D01*
X247450D01*
X248000Y58890D02*X247450Y59440D01*
X248000Y58890D02*Y57240D01*
X247450Y56690D02*X248000Y57240D01*
X244150Y62740D02*X248000D01*
X244150D02*X243600Y63290D01*
Y64940D02*Y63290D01*
Y64940D02*X244150Y65490D01*
X248000D01*
X245800D02*Y62740D01*
Y70440D02*Y68790D01*
X248000Y70990D02*Y68790D01*
X243600D02*X248000D01*
X243600Y70990D02*Y68790D01*
X246350Y72860D02*X248000D01*
X246350D02*X245800Y73410D01*
Y73960D02*Y73410D01*
Y73960D02*X246350Y74510D01*
X248000D01*
X245800Y72310D02*X246350Y72860D01*
X243600Y78030D02*X248000D01*
Y77480D02*X247450Y78030D01*
X248000Y77480D02*Y76380D01*
X247450Y75830D02*X248000Y76380D01*
X246350Y75830D02*X247450D01*
X246350D02*X245800Y76380D01*
Y77480D02*Y76380D01*
Y77480D02*X246350Y78030D01*
X111000Y7000D02*X111500Y6500D01*
X109500Y7000D02*X111000D01*
X109000Y6500D02*X109500Y7000D01*
X109000Y6500D02*Y5500D01*
X109500Y5000D01*
X111000D01*
X111500Y4500D01*
Y3500D01*
X111000Y3000D02*X111500Y3500D01*
X109500Y3000D02*X111000D01*
X109000Y3500D02*X109500Y3000D01*
X112700Y7000D02*Y3000D01*
X115200Y7000D02*Y3000D01*
X112700Y5000D02*X115200D01*
X116400Y6500D02*Y3500D01*
Y6500D02*X116900Y7000D01*
X117900D01*
X118400Y6500D01*
Y3500D01*
X117900Y3000D02*X118400Y3500D01*
X116900Y3000D02*X117900D01*
X116400Y3500D02*X116900Y3000D01*
X119600Y7000D02*X121600D01*
X122100Y6500D01*
Y5500D01*
X121600Y5000D02*X122100Y5500D01*
X120100Y5000D02*X121600D01*
X120100Y7000D02*Y3000D01*
Y5000D02*X122100Y3000D01*
X123300Y7000D02*X125300D01*
X124300D02*Y3000D01*
X128300Y7000D02*Y3000D01*
Y7000D02*X130300D01*
X128300Y5000D02*X129800D01*
X131500Y6500D02*Y3500D01*
Y6500D02*X132000Y7000D01*
X133000D01*
X133500Y6500D01*
Y3500D01*
X133000Y3000D02*X133500Y3500D01*
X132000Y3000D02*X133000D01*
X131500Y3500D02*X132000Y3000D01*
X134700Y7000D02*X136700D01*
X137200Y6500D01*
Y5500D01*
X136700Y5000D02*X137200Y5500D01*
X135200Y5000D02*X136700D01*
X135200Y7000D02*Y3000D01*
Y5000D02*X137200Y3000D01*
X140200Y6500D02*Y3500D01*
Y6500D02*X140700Y7000D01*
X141700D01*
X142200Y6500D01*
Y3500D01*
X141700Y3000D02*X142200Y3500D01*
X140700Y3000D02*X141700D01*
X140200Y3500D02*X140700Y3000D01*
X143900D02*X145400D01*
X143400Y3500D02*X143900Y3000D01*
X143400Y6500D02*Y3500D01*
Y6500D02*X143900Y7000D01*
X145400D01*
X147100Y3000D02*X148600D01*
X146600Y3500D02*X147100Y3000D01*
X146600Y6500D02*Y3500D01*
Y6500D02*X147100Y7000D01*
X148600D01*
X202000Y13000D02*Y9000D01*
X201500Y13000D02*X203500D01*
X204000Y12500D01*
Y11500D01*
X203500Y11000D02*X204000Y11500D01*
X202000Y11000D02*X203500D01*
X205200Y12000D02*Y11500D01*
Y10500D02*Y9000D01*
X206700Y10500D02*Y9000D01*
Y10500D02*X207200Y11000D01*
X207700D01*
X208200Y10500D01*
Y9000D01*
X206200Y11000D02*X206700Y10500D01*
X211200Y9000D02*X213700Y11500D01*
Y13000D02*Y11500D01*
X211200Y13000D02*X213700D01*
X201000Y19000D02*X203000D01*
X203500Y18500D01*
Y17500D01*
X203000Y17000D02*X203500Y17500D01*
X201500Y17000D02*X203000D01*
X201500Y19000D02*Y15000D01*
Y17000D02*X203500Y15000D01*
X204700Y19000D02*X206200D01*
Y15500D01*
X205700Y15000D02*X206200Y15500D01*
X205200Y15000D02*X205700D01*
X204700Y15500D02*X205200Y15000D01*
X207400Y17000D02*X209400Y19000D01*
X207400Y17000D02*X209900D01*
X209400Y19000D02*Y15000D01*
X211100Y19000D02*X213100D01*
X211100D02*Y17000D01*
X211600Y17500D01*
X212600D01*
X213100Y17000D01*
Y15500D01*
X212600Y15000D02*X213100Y15500D01*
X211600Y15000D02*X212600D01*
X211100Y15500D02*X211600Y15000D01*
X201000Y7000D02*X203000D01*
X202000D02*Y3000D01*
X204200Y4500D02*Y3500D01*
Y4500D02*X204700Y5000D01*
X205700D01*
X206200Y4500D01*
Y3500D01*
X205700Y3000D02*X206200Y3500D01*
X204700Y3000D02*X205700D01*
X204200Y3500D02*X204700Y3000D01*
X211200Y7000D02*X211700Y6500D01*
X209700Y7000D02*X211200D01*
X209200Y6500D02*X209700Y7000D01*
X209200Y6500D02*Y3500D01*
X209700Y3000D01*
X211200D01*
X211700Y3500D01*
Y4500D02*Y3500D01*
X211200Y5000D02*X211700Y4500D01*
X210200Y5000D02*X211200D01*
X212900Y7000D02*Y3000D01*
Y7000D02*Y6500D01*
X215400Y4000D01*
Y7000D02*Y3000D01*
X217100Y7000D02*Y3000D01*
X218600Y7000D02*X219100Y6500D01*
Y3500D01*
X218600Y3000D02*X219100Y3500D01*
X216600Y3000D02*X218600D01*
X216600Y7000D02*X218600D01*
X34500Y9000D02*Y5000D01*
Y6500D02*X35000Y7000D01*
X36000D01*
X36500Y6500D01*
Y5000D01*
X38200Y9000D02*Y5500D01*
X38700Y5000D01*
X37700Y7500D02*X38700D01*
X40200Y9000D02*Y5500D01*
X40700Y5000D01*
X39700Y7500D02*X40700D01*
X42200Y6500D02*Y3500D01*
X41700Y7000D02*X42200Y6500D01*
X42700Y7000D01*
X43700D01*
X44200Y6500D01*
Y5500D01*
X43700Y5000D02*X44200Y5500D01*
X42700Y5000D02*X43700D01*
X42200Y5500D02*X42700Y5000D01*
X45400Y7500D02*X45900D01*
X45400Y6500D02*X45900D01*
X47100Y5500D02*X50100Y8500D01*
X51300Y5500D02*X54300Y8500D01*
X55500Y7000D02*Y5500D01*
X56000Y5000D01*
X56500D01*
X57000Y5500D01*
Y7000D02*Y5500D01*
X57500Y5000D01*
X58000D01*
X58500Y5500D01*
Y7000D02*Y5500D01*
X59700Y7000D02*Y5500D01*
X60200Y5000D01*
X60700D01*
X61200Y5500D01*
Y7000D02*Y5500D01*
X61700Y5000D01*
X62200D01*
X62700Y5500D01*
Y7000D02*Y5500D01*
X63900Y7000D02*Y5500D01*
X64400Y5000D01*
X64900D01*
X65400Y5500D01*
Y7000D02*Y5500D01*
X65900Y5000D01*
X66400D01*
X66900Y5500D01*
Y7000D02*Y5500D01*
X68100Y5000D02*X68600D01*
X69800Y8000D02*Y7500D01*
Y6500D02*Y5000D01*
X72300Y7000D02*X72800Y6500D01*
X71300Y7000D02*X72300D01*
X70800Y6500D02*X71300Y7000D01*
X70800Y6500D02*Y5500D01*
X71300Y5000D01*
X72800Y7000D02*Y5500D01*
X73300Y5000D01*
X71300D02*X72300D01*
X72800Y5500D01*
X75000Y5000D02*X76500D01*
X77000Y5500D01*
X76500Y6000D02*X77000Y5500D01*
X75000Y6000D02*X76500D01*
X74500Y6500D02*X75000Y6000D01*
X74500Y6500D02*X75000Y7000D01*
X76500D01*
X77000Y6500D01*
X74500Y5500D02*X75000Y5000D01*
X78700Y7000D02*X80200D01*
X78200Y6500D02*X78700Y7000D01*
X78200Y6500D02*Y5500D01*
X78700Y5000D01*
X80200D01*
X82900Y7000D02*X83400Y6500D01*
X81900Y7000D02*X82900D01*
X81400Y6500D02*X81900Y7000D01*
X81400Y6500D02*Y5500D01*
X81900Y5000D01*
X83400Y7000D02*Y5500D01*
X83900Y5000D01*
X81900D02*X82900D01*
X83400Y5500D01*
X85100Y9000D02*Y5500D01*
X85600Y5000D01*
X87100D02*X88600D01*
X86600Y5500D02*X87100Y5000D01*
X86600Y6500D02*Y5500D01*
Y6500D02*X87100Y7000D01*
X88100D01*
X88600Y6500D01*
X86600Y6000D02*X88600D01*
Y6500D02*Y6000D01*
X91800Y9000D02*Y5000D01*
X91300D02*X91800Y5500D01*
X90300Y5000D02*X91300D01*
X89800Y5500D02*X90300Y5000D01*
X89800Y6500D02*Y5500D01*
Y6500D02*X90300Y7000D01*
X91300D01*
X91800Y6500D01*
X93000Y5000D02*X93500D01*
X95200Y7000D02*X96700D01*
X94700Y6500D02*X95200Y7000D01*
X94700Y6500D02*Y5500D01*
X95200Y5000D01*
X96700D01*
X97900Y6500D02*Y5500D01*
Y6500D02*X98400Y7000D01*
X99400D01*
X99900Y6500D01*
Y5500D01*
X99400Y5000D02*X99900Y5500D01*
X98400Y5000D02*X99400D01*
X97900Y5500D02*X98400Y5000D01*
X101600Y6500D02*Y5000D01*
Y6500D02*X102100Y7000D01*
X102600D01*
X103100Y6500D01*
Y5000D01*
Y6500D02*X103600Y7000D01*
X104100D01*
X104600Y6500D01*
Y5000D01*
X101100Y7000D02*X101600Y6500D01*
X35000Y11000D02*X36500D01*
X34500Y11500D02*X35000Y11000D01*
X34500Y14500D02*Y11500D01*
Y14500D02*X35000Y15000D01*
X36500D01*
X38200Y11000D02*X39700D01*
X37700Y11500D02*X38200Y11000D01*
X37700Y14500D02*Y11500D01*
Y14500D02*X38200Y15000D01*
X39700D01*
X42700Y11000D02*X44700D01*
X45200Y11500D01*
Y12500D02*Y11500D01*
X44700Y13000D02*X45200Y12500D01*
X43200Y13000D02*X44700D01*
X43200Y15000D02*Y11000D01*
X42700Y15000D02*X44700D01*
X45200Y14500D01*
Y13500D01*
X44700Y13000D02*X45200Y13500D01*
X46400Y15000D02*Y14500D01*
X47400Y13500D01*
X48400Y14500D01*
Y15000D02*Y14500D01*
X47400Y13500D02*Y11000D01*
X49600Y13000D02*X51600D01*
X54800Y15000D02*X55300Y14500D01*
X53300Y15000D02*X54800D01*
X52800Y14500D02*X53300Y15000D01*
X52800Y14500D02*Y13500D01*
X53300Y13000D01*
X54800D01*
X55300Y12500D01*
Y11500D01*
X54800Y11000D02*X55300Y11500D01*
X53300Y11000D02*X54800D01*
X52800Y11500D02*X53300Y11000D01*
X56500Y14500D02*Y11000D01*
Y14500D02*X57000Y15000D01*
X58500D01*
X59000Y14500D01*
Y11000D01*
X56500Y13000D02*X59000D01*
X62000Y11500D02*X62500Y11000D01*
X62000Y14500D02*X62500Y15000D01*
X62000Y14500D02*Y11500D01*
X64200Y11000D02*X65700D01*
X63700Y11500D02*X64200Y11000D01*
X63700Y14500D02*Y11500D01*
Y14500D02*X64200Y15000D01*
X65700D01*
X66900D02*X67400Y14500D01*
Y11500D01*
X66900Y11000D02*X67400Y11500D01*
X70400Y14500D02*X70900Y15000D01*
X72400D01*
X72900Y14500D01*
Y13500D01*
X70400Y11000D02*X72900Y13500D01*
X70400Y11000D02*X72900D01*
X74100Y11500D02*X74600Y11000D01*
X74100Y14500D02*Y11500D01*
Y14500D02*X74600Y15000D01*
X75600D01*
X76100Y14500D01*
Y11500D01*
X75600Y11000D02*X76100Y11500D01*
X74600Y11000D02*X75600D01*
X74100Y12000D02*X76100Y14000D01*
X77800Y11000D02*X78800D01*
X78300Y15000D02*Y11000D01*
X77300Y14000D02*X78300Y15000D01*
X81500D02*X82000Y14500D01*
X80500Y15000D02*X81500D01*
X80000Y14500D02*X80500Y15000D01*
X80000Y14500D02*Y11500D01*
X80500Y11000D01*
X81500Y13000D02*X82000Y12500D01*
X80000Y13000D02*X81500D01*
X80500Y11000D02*X81500D01*
X82000Y11500D01*
Y12500D02*Y11500D01*
X2000Y78000D02*X6400D01*
X4750Y76350D01*
X6400Y74700D01*
X2000D02*X6400D01*
Y71180D02*X5850Y70630D01*
X6400Y72830D02*Y71180D01*
X5850Y73380D02*X6400Y72830D01*
X4750Y73380D02*X5850D01*
X4750D02*X4200Y72830D01*
Y71180D01*
X3650Y70630D01*
X2550D02*X3650D01*
X2000Y71180D02*X2550Y70630D01*
X2000Y72830D02*Y71180D01*
X2550Y73380D02*X2000Y72830D01*
X6400Y67110D02*X5850Y66560D01*
X6400Y68760D02*Y67110D01*
X5850Y69310D02*X6400Y68760D01*
X4750Y69310D02*X5850D01*
X4750D02*X4200Y68760D01*
Y67110D01*
X3650Y66560D01*
X2550D02*X3650D01*
X2000Y67110D02*X2550Y66560D01*
X2000Y68760D02*Y67110D01*
X2550Y69310D02*X2000Y68760D01*
Y63260D02*Y61060D01*
X2550Y60510D01*
X3650D01*
X4200Y61060D02*X3650Y60510D01*
X4200Y62710D02*Y61060D01*
X2000Y62710D02*X6400D01*
Y63260D02*Y61060D01*
X5850Y60510D01*
X4750D02*X5850D01*
X4200Y61060D02*X4750Y60510D01*
X4200Y57210D02*Y55560D01*
X2000Y57210D02*Y55010D01*
Y57210D02*X6400D01*
Y55010D01*
X2000Y53140D02*X3650D01*
X4200Y52590D01*
Y52040D01*
X3650Y51490D01*
X2000D02*X3650D01*
X4200Y53690D02*X3650Y53140D01*
X2000Y47970D02*X6400D01*
X2000Y48520D02*X2550Y47970D01*
X2000Y49620D02*Y48520D01*
X2550Y50170D02*X2000Y49620D01*
X2550Y50170D02*X3650D01*
X4200Y49620D01*
Y48520D01*
X3650Y47970D01*
X9000Y101500D02*X9500Y101000D01*
X9000Y102500D02*Y101500D01*
Y102500D02*X9500Y103000D01*
X10500D01*
X11000Y102500D01*
Y101500D01*
X10500Y101000D02*X11000Y101500D01*
X9500Y101000D02*X10500D01*
X9000Y103500D02*X9500Y103000D01*
X9000Y104500D02*Y103500D01*
Y104500D02*X9500Y105000D01*
X10500D01*
X11000Y104500D01*
Y103500D01*
X10500Y103000D02*X11000Y103500D01*
X12200Y103000D02*X14200D01*
X15400Y104500D02*X15900Y105000D01*
X17400D01*
X17900Y104500D01*
Y103500D01*
X15400Y101000D02*X17900Y103500D01*
X15400Y101000D02*X17900D01*
X19100Y101500D02*X19600Y101000D01*
X19100Y104500D02*Y101500D01*
Y104500D02*X19600Y105000D01*
X20600D01*
X21100Y104500D01*
Y101500D01*
X20600Y101000D02*X21100Y101500D01*
X19600Y101000D02*X20600D01*
X19100Y102000D02*X21100Y104000D01*
X22300Y105000D02*Y102000D01*
X23300Y101000D01*
X24300Y102000D01*
Y105000D02*Y102000D01*
X27300Y104500D02*Y101000D01*
Y104500D02*X27800Y105000D01*
X29300D01*
X29800Y104500D01*
Y101000D01*
X27300Y103000D02*X29800D01*
X31500Y101000D02*X33000D01*
X31000Y101500D02*X31500Y101000D01*
X31000Y104500D02*Y101500D01*
Y104500D02*X31500Y105000D01*
X33000D01*
X34200Y101500D02*X37200Y104500D01*
X38900Y105000D02*Y101000D01*
X40400Y105000D02*X40900Y104500D01*
Y101500D01*
X40400Y101000D02*X40900Y101500D01*
X38400Y101000D02*X40400D01*
X38400Y105000D02*X40400D01*
X42600Y101000D02*X44100D01*
X42100Y101500D02*X42600Y101000D01*
X42100Y104500D02*Y101500D01*
Y104500D02*X42600Y105000D01*
X44100D01*
X2000Y130500D02*X6000D01*
Y131000D02*Y129000D01*
X5500Y128500D01*
X4500D02*X5500D01*
X4000Y129000D02*X4500Y128500D01*
X4000Y130500D02*Y129000D01*
X2000Y127300D02*X6000D01*
X2000D02*X3500Y125800D01*
X2000Y124300D01*
X6000D01*
Y123100D02*Y121100D01*
X5500Y120600D01*
X4500D02*X5500D01*
X4000Y121100D02*X4500Y120600D01*
X4000Y122600D02*Y121100D01*
X2000Y122600D02*X6000D01*
X4000D02*X2000Y120600D01*
X34500Y30000D02*X35500D01*
X35000D02*Y26000D01*
X34500D02*X35500D01*
X36700Y27500D02*Y26500D01*
Y27500D02*X37200Y28000D01*
X38200D01*
X38700Y27500D01*
Y26500D01*
X38200Y26000D02*X38700Y26500D01*
X37200Y26000D02*X38200D01*
X36700Y26500D02*X37200Y26000D01*
X39900Y28000D02*Y26500D01*
X40400Y26000D01*
X40900D01*
X41400Y26500D01*
Y28000D02*Y26500D01*
X41900Y26000D01*
X42400D01*
X42900Y26500D01*
Y28000D02*Y26500D01*
X45600Y28000D02*X46100Y27500D01*
X44600Y28000D02*X45600D01*
X44100Y27500D02*X44600Y28000D01*
X44100Y27500D02*Y26500D01*
X44600Y26000D01*
X46100Y28000D02*Y26500D01*
X46600Y26000D01*
X44600D02*X45600D01*
X46100Y26500D01*
X51600Y30000D02*X52100Y29500D01*
X50100Y30000D02*X51600D01*
X49600Y29500D02*X50100Y30000D01*
X49600Y29500D02*Y28500D01*
X50100Y28000D01*
X51600D01*
X52100Y27500D01*
Y26500D01*
X51600Y26000D02*X52100Y26500D01*
X50100Y26000D02*X51600D01*
X49600Y26500D02*X50100Y26000D01*
X53800Y28000D02*X55300D01*
X53300Y27500D02*X53800Y28000D01*
X53300Y27500D02*Y26500D01*
X53800Y26000D01*
X55300D01*
X58000Y28000D02*X58500Y27500D01*
X57000Y28000D02*X58000D01*
X56500Y27500D02*X57000Y28000D01*
X56500Y27500D02*Y26500D01*
X57000Y26000D01*
X58500Y28000D02*Y26500D01*
X59000Y26000D01*
X57000D02*X58000D01*
X58500Y26500D01*
X60200Y30000D02*Y26500D01*
X60700Y26000D01*
X62200D02*X63700D01*
X61700Y26500D02*X62200Y26000D01*
X61700Y27500D02*Y26500D01*
Y27500D02*X62200Y28000D01*
X63200D01*
X63700Y27500D01*
X61700Y27000D02*X63700D01*
Y27500D02*Y27000D01*
X66900Y30000D02*Y26000D01*
X66400D02*X66900Y26500D01*
X65400Y26000D02*X66400D01*
X64900Y26500D02*X65400Y26000D01*
X64900Y27500D02*Y26500D01*
Y27500D02*X65400Y28000D01*
X66400D01*
X66900Y27500D01*
X69900Y28000D02*X71400D01*
X69900Y26000D02*X71900D01*
X69900Y30000D02*Y26000D01*
Y30000D02*X71900D01*
X73600Y27500D02*Y26000D01*
Y27500D02*X74100Y28000D01*
X74600D01*
X75100Y27500D01*
Y26000D01*
X73100Y28000D02*X73600Y27500D01*
X77800Y28000D02*X78300Y27500D01*
X76800Y28000D02*X77800D01*
X76300Y27500D02*X76800Y28000D01*
X76300Y27500D02*Y26500D01*
X76800Y26000D01*
X77800D01*
X78300Y26500D01*
X76300Y25000D02*X76800Y24500D01*
X77800D01*
X78300Y25000D01*
Y28000D02*Y25000D01*
X79500Y29000D02*Y28500D01*
Y27500D02*Y26000D01*
X81000Y27500D02*Y26000D01*
Y27500D02*X81500Y28000D01*
X82000D01*
X82500Y27500D01*
Y26000D01*
X80500Y28000D02*X81000Y27500D01*
X84200Y26000D02*X85700D01*
X83700Y26500D02*X84200Y26000D01*
X83700Y27500D02*Y26500D01*
Y27500D02*X84200Y28000D01*
X85200D01*
X85700Y27500D01*
X83700Y27000D02*X85700D01*
Y27500D02*Y27000D01*
X87400Y26000D02*X88900D01*
X86900Y26500D02*X87400Y26000D01*
X86900Y27500D02*Y26500D01*
Y27500D02*X87400Y28000D01*
X88400D01*
X88900Y27500D01*
X86900Y27000D02*X88900D01*
Y27500D02*Y27000D01*
X90600Y27500D02*Y26000D01*
Y27500D02*X91100Y28000D01*
X92100D01*
X90100D02*X90600Y27500D01*
X93300Y29000D02*Y28500D01*
Y27500D02*Y26000D01*
X94800Y27500D02*Y26000D01*
Y27500D02*X95300Y28000D01*
X95800D01*
X96300Y27500D01*
Y26000D01*
X94300Y28000D02*X94800Y27500D01*
X99000Y28000D02*X99500Y27500D01*
X98000Y28000D02*X99000D01*
X97500Y27500D02*X98000Y28000D01*
X97500Y27500D02*Y26500D01*
X98000Y26000D01*
X99000D01*
X99500Y26500D01*
X97500Y25000D02*X98000Y24500D01*
X99000D01*
X99500Y25000D01*
Y28000D02*Y25000D01*
X34500Y21500D02*Y17500D01*
Y21500D02*X36000Y20000D01*
X37500Y21500D01*
Y17500D01*
X40700Y21500D02*X41200Y21000D01*
X39200Y21500D02*X40700D01*
X38700Y21000D02*X39200Y21500D01*
X38700Y21000D02*Y20000D01*
X39200Y19500D01*
X40700D01*
X41200Y19000D01*
Y18000D01*
X40700Y17500D02*X41200Y18000D01*
X39200Y17500D02*X40700D01*
X38700Y18000D02*X39200Y17500D01*
X44400Y21500D02*X44900Y21000D01*
X42900Y21500D02*X44400D01*
X42400Y21000D02*X42900Y21500D01*
X42400Y21000D02*Y20000D01*
X42900Y19500D01*
X44400D01*
X44900Y19000D01*
Y18000D01*
X44400Y17500D02*X44900Y18000D01*
X42900Y17500D02*X44400D01*
X42400Y18000D02*X42900Y17500D01*
X46100Y19500D02*X48100D01*
X49800Y17500D02*X51300D01*
X49300Y18000D02*X49800Y17500D01*
X49300Y21000D02*Y18000D01*
Y21000D02*X49800Y21500D01*
X51300D01*
X52500D02*X54500D01*
X55000Y21000D01*
Y20000D01*
X54500Y19500D02*X55000Y20000D01*
X53000Y19500D02*X54500D01*
X53000Y21500D02*Y17500D01*
Y19500D02*X55000Y17500D01*
X56200Y21000D02*Y18000D01*
Y21000D02*X56700Y21500D01*
X57700D01*
X58200Y21000D01*
Y18000D01*
X57700Y17500D02*X58200Y18000D01*
X56700Y17500D02*X57700D01*
X56200Y18000D02*X56700Y17500D01*
X61400Y21500D02*X61900Y21000D01*
X59900Y21500D02*X61400D01*
X59400Y21000D02*X59900Y21500D01*
X59400Y21000D02*Y20000D01*
X59900Y19500D01*
X61400D01*
X61900Y19000D01*
Y18000D01*
X61400Y17500D02*X61900Y18000D01*
X59900Y17500D02*X61400D01*
X59400Y18000D02*X59900Y17500D01*
X65100Y21500D02*X65600Y21000D01*
X63600Y21500D02*X65100D01*
X63100Y21000D02*X63600Y21500D01*
X63100Y21000D02*Y20000D01*
X63600Y19500D01*
X65100D01*
X65600Y19000D01*
Y18000D01*
X65100Y17500D02*X65600Y18000D01*
X63600Y17500D02*X65100D01*
X63100Y18000D02*X63600Y17500D01*
X66800Y21000D02*Y18000D01*
Y21000D02*X67300Y21500D01*
X68300D01*
X68800Y21000D01*
Y18000D01*
X68300Y17500D02*X68800Y18000D01*
X67300Y17500D02*X68300D01*
X66800Y18000D02*X67300Y17500D01*
X70000Y21500D02*Y18500D01*
X71000Y17500D01*
X72000Y18500D01*
Y21500D02*Y18500D01*
X73200Y19500D02*X74700D01*
X73200Y17500D02*X75200D01*
X73200Y21500D02*Y17500D01*
Y21500D02*X75200D01*
X76400D02*X78400D01*
X78900Y21000D01*
Y20000D01*
X78400Y19500D02*X78900Y20000D01*
X76900Y19500D02*X78400D01*
X76900Y21500D02*Y17500D01*
Y19500D02*X78900Y17500D01*
X81900Y19500D02*Y18500D01*
X82900Y17500D01*
X83900Y18500D01*
Y19500D02*Y18500D01*
X85600Y17500D02*X86600D01*
X86100Y21500D02*Y17500D01*
X85100Y20500D02*X86100Y21500D01*
X87800Y17500D02*X88300D01*
X90000D02*X91000D01*
X90500Y21500D02*Y17500D01*
X89500Y20500D02*X90500Y21500D01*
G54D96*X9000Y33500D02*X80300D01*
X9000Y93500D02*X80300D01*
Y33500D01*
X9000Y93500D02*X8980Y33500D01*
G54D94*X89100Y94200D02*X130500D01*
X89100D02*Y65700D01*
X130500D01*
Y94200D02*Y65700D01*
X110255Y174393D02*Y173607D01*
X104745Y174393D02*Y173607D01*
X41508Y183492D02*Y176996D01*
Y164004D02*Y157508D01*
X60996D01*
X41508Y183492D02*X60996D01*
Y157508D02*X67492Y164004D01*
X60996Y183492D02*X67492Y176996D01*
X60500Y180500D02*Y176500D01*
X58500Y178500D02*X62500D01*
X107755Y127393D02*Y126607D01*
X102245Y127393D02*Y126607D01*
X85750Y128401D02*Y117771D01*
X67250Y128401D02*Y117771D01*
X82500D02*X85750D01*
X67250D02*X70500D01*
X85571Y128401D02*X85750D01*
X67250D02*X67429D01*
X7700Y147500D02*Y107500D01*
X37700Y147500D02*Y107500D01*
X33300Y147500D02*Y107500D01*
X7700Y147500D02*X37700D01*
X7700Y107500D02*X37700D01*
X108190Y158299D02*Y145701D01*
X94410D02*X108190D01*
X94410Y158299D02*Y145701D01*
Y158299D02*X108190D01*
X100755Y174436D02*Y173650D01*
X95245Y174436D02*Y173650D01*
X91255Y174393D02*Y173607D01*
X85745Y174393D02*Y173607D01*
X90745Y134350D02*Y133564D01*
X96255Y134350D02*Y133564D01*
X114900Y159050D02*X134100D01*
X114900Y186950D02*X134100D01*
X114900D02*Y159050D01*
X132500Y186950D02*Y159050D01*
X127245Y149393D02*Y148607D01*
X132755Y149393D02*Y148607D01*
X145564Y139255D02*X146350D01*
X145564Y133745D02*X146350D01*
X111689Y138311D02*X135311D01*
Y114689D01*
X111689D01*
Y138311D01*
X109689Y139811D02*G75*G03X109689Y139811I500J0D01*G01*
X60800Y153200D02*Y123800D01*
X41200Y153200D02*X60800D01*
X41200Y123800D02*X60800D01*
X41200Y153200D02*Y123800D01*
X39000Y127500D02*Y123500D01*
X218800Y137900D02*X227200D01*
X218800Y129100D02*X227200D01*
X217400Y136060D03*
X217201Y125390D02*X229799D01*
Y111610D01*
X217201D02*X229799D01*
X217201Y125390D02*Y111610D01*
X214607Y142245D02*X215393D01*
X214607Y147755D02*X215393D01*
X208245Y105850D02*Y105064D01*
X213755Y105850D02*Y105064D01*
X136000Y187250D02*X205000D01*
X136000Y148750D02*X205000D01*
X136000Y187250D02*Y148750D01*
X205000Y187250D02*Y148750D01*
X148745Y123393D02*Y122607D01*
X154255Y123393D02*Y122607D01*
X167741Y129299D02*Y116701D01*
X160259D02*X167741D01*
X160259Y129299D02*Y116701D01*
Y129299D02*X167741D01*
X210786Y160460D02*X219186D01*
X210786Y151660D02*X219186D01*
X209386Y158620D03*
X161607Y139255D02*X162393D01*
X161607Y133745D02*X162393D01*
X204500Y143500D02*Y124500D01*
X173500Y143500D02*X204500D01*
X173500D02*Y124500D01*
X191500D02*X204500D01*
X173500D02*X186500D01*
X191500D02*G75*G03X186500Y124500I-2500J0D01*G01*
X183564Y121255D02*X184350D01*
X183564Y115745D02*X184350D01*
X178000Y99200D02*X191900D01*
Y112000D02*Y99200D01*
X178000Y112000D02*X191900D01*
X178000D02*Y99200D01*
X204255Y105893D02*Y105107D01*
X198745Y105893D02*Y105107D01*
X158107Y21702D02*X158893D01*
X158107Y27212D02*X158893D01*
X184968Y24876D02*Y12278D01*
X177486D02*X184968D01*
X177486Y24876D02*Y12278D01*
Y24876D02*X184968D01*
X153200Y7500D02*X172900D01*
X153200Y15500D02*X172900D01*
X153200Y7500D02*Y15500D01*
X172900Y7500D02*Y15500D01*
X160000Y7500D02*Y15500D01*
X115245Y149393D02*Y148607D01*
X120755Y149393D02*Y148607D01*
X108500Y9200D02*X148500D01*
X108500Y39200D02*X148500D01*
X108500Y34800D02*X148500D01*
X108500Y39200D02*Y9200D01*
X148500Y39200D02*Y9200D01*
G54D96*X169700Y93500D02*X241000D01*
X169700Y33500D02*X241000D01*
X169700Y93500D02*Y33500D01*
X241000D02*X241020Y93500D01*
G54D94*X189500Y27500D02*Y7500D01*
X199500D01*
Y27500D01*
X189500D01*
Y17500D02*X199500D01*
Y27500D01*
G54D95*X95807Y165650D02*Y161650D01*
X97307Y165650D02*X97807Y165150D01*
Y162150D01*
X97307Y161650D02*X97807Y162150D01*
X95307Y161650D02*X97307D01*
X95307Y165650D02*X97307D01*
X99007Y165150D02*X99507Y165650D01*
X100507D01*
X101007Y165150D01*
Y162150D01*
X100507Y161650D02*X101007Y162150D01*
X99507Y161650D02*X100507D01*
X99007Y162150D02*X99507Y161650D01*
Y163650D02*X101007D01*
X87807Y165650D02*Y161650D01*
X89307Y165650D02*X89807Y165150D01*
Y162150D01*
X89307Y161650D02*X89807Y162150D01*
X87307Y161650D02*X89307D01*
X87307Y165650D02*X89307D01*
X91507Y161650D02*X92507D01*
X92007Y165650D02*Y161650D01*
X91007Y164650D02*X92007Y165650D01*
X109500Y158700D02*X111100D01*
X111500Y158300D01*
Y157500D01*
X111100Y157100D02*X111500Y157500D01*
X109900Y157100D02*X111100D01*
X109900Y158700D02*Y155500D01*
Y157100D02*X111500Y155500D01*
X112460D02*X114460Y157500D01*
Y158700D02*Y157500D01*
X112460Y158700D02*X114460D01*
X105307Y165650D02*Y161650D01*
X106807Y165650D02*X107307Y165150D01*
Y162150D01*
X106807Y161650D02*X107307Y162150D01*
X104807Y161650D02*X106807D01*
X104807Y165650D02*X106807D01*
X108507Y165150D02*X109007Y165650D01*
X110507D01*
X111007Y165150D01*
Y164150D01*
X108507Y161650D02*X111007Y164150D01*
X108507Y161650D02*X111007D01*
X48500Y122000D02*Y118500D01*
X49000Y118000D01*
X50000D01*
X50500Y118500D01*
Y122000D02*Y118500D01*
X52200Y118000D02*X53200D01*
X52700Y122000D02*Y118000D01*
X51700Y121000D02*X52700Y122000D01*
X29921Y155547D02*X31421D01*
X29421Y156047D02*X29921Y155547D01*
X29421Y159047D02*Y156047D01*
Y159047D02*X29921Y159547D01*
X31421D01*
X33121Y155547D02*X34121D01*
X33621Y159547D02*Y155547D01*
X32621Y158547D02*X33621Y159547D01*
X40500Y112000D02*X42000D01*
Y108500D01*
X41500Y108000D02*X42000Y108500D01*
X41000Y108000D02*X41500D01*
X40500Y108500D02*X41000Y108000D01*
X43200Y111500D02*X43700Y112000D01*
X44700D01*
X45200Y111500D01*
Y108500D01*
X44700Y108000D02*X45200Y108500D01*
X43700Y108000D02*X44700D01*
X43200Y108500D02*X43700Y108000D01*
Y110000D02*X45200D01*
X83657Y50500D02*X85157D01*
Y47000D01*
X84657Y46500D02*X85157Y47000D01*
X84157Y46500D02*X84657D01*
X83657Y47000D02*X84157Y46500D01*
X86357Y50000D02*X86857Y50500D01*
X88357D01*
X88857Y50000D01*
Y49000D01*
X86357Y46500D02*X88857Y49000D01*
X86357Y46500D02*X88857D01*
X146000Y60500D02*X147500D01*
Y57000D01*
X147000Y56500D02*X147500Y57000D01*
X146500Y56500D02*X147000D01*
X146000Y57000D02*X146500Y56500D01*
X148700Y58500D02*X150700Y60500D01*
X148700Y58500D02*X151200D01*
X150700Y60500D02*Y56500D01*
X101500Y40500D02*X103000D01*
Y37000D01*
X102500Y36500D02*X103000Y37000D01*
X102000Y36500D02*X102500D01*
X101500Y37000D02*X102000Y36500D01*
X104200Y40500D02*X106200D01*
X104200D02*Y38500D01*
X104700Y39000D01*
X105700D01*
X106200Y38500D01*
Y37000D01*
X105700Y36500D02*X106200Y37000D01*
X104700Y36500D02*X105700D01*
X104200Y37000D02*X104700Y36500D01*
X111500Y112500D02*Y109000D01*
X112000Y108500D01*
X113000D01*
X113500Y109000D01*
Y112500D02*Y109000D01*
X114700Y112500D02*X116700D01*
X114700D02*Y110500D01*
X115200Y111000D01*
X116200D01*
X116700Y110500D01*
Y109000D01*
X116200Y108500D02*X116700Y109000D01*
X115200Y108500D02*X116200D01*
X114700Y109000D02*X115200Y108500D01*
X83264Y136150D02*X84764D01*
X82764Y136650D02*X83264Y136150D01*
X82764Y139650D02*Y136650D01*
Y139650D02*X83264Y140150D01*
X84764D01*
X85964Y139650D02*X86464Y140150D01*
X87964D01*
X88464Y139650D01*
Y138650D01*
X85964Y136150D02*X88464Y138650D01*
X85964Y136150D02*X88464D01*
X96850Y115150D02*X98350D01*
X96350Y115650D02*X96850Y115150D01*
X96350Y118650D02*Y115650D01*
Y118650D02*X96850Y119150D01*
X98350D01*
X99550Y115650D02*X100050Y115150D01*
X99550Y116650D02*Y115650D01*
Y116650D02*X100050Y117150D01*
X101050D01*
X101550Y116650D01*
Y115650D01*
X101050Y115150D02*X101550Y115650D01*
X100050Y115150D02*X101050D01*
X99550Y117650D02*X100050Y117150D01*
X99550Y118650D02*Y117650D01*
Y118650D02*X100050Y119150D01*
X101050D01*
X101550Y118650D01*
Y117650D01*
X101050Y117150D02*X101550Y117650D01*
X90000Y99800D02*Y96800D01*
Y99800D02*X90500Y100300D01*
X91500D01*
X92000Y99800D01*
Y96800D01*
X91500Y96300D02*X92000Y96800D01*
X90500Y96300D02*X91500D01*
X90000Y96800D02*X90500Y96300D01*
X91000Y97300D02*X92000Y96300D01*
X93700D02*X94700D01*
X94200Y100300D02*Y96300D01*
X93200Y99300D02*X94200Y100300D01*
X110250Y141150D02*X111450D01*
X109850Y141550D02*X110250Y141150D01*
X109850Y143950D02*Y141550D01*
Y143950D02*X110250Y144350D01*
X111450D01*
X112410Y141150D02*X114010Y142750D01*
Y143950D02*Y142750D01*
X113610Y144350D02*X114010Y143950D01*
X112810Y144350D02*X113610D01*
X112410Y143950D02*X112810Y144350D01*
X112410Y143950D02*Y143150D01*
X112810Y142750D01*
X114010D01*
X98500Y143300D02*X100500D01*
X101000Y142800D01*
Y141800D01*
X100500Y141300D02*X101000Y141800D01*
X99000Y141300D02*X100500D01*
X99000Y143300D02*Y139300D01*
Y141300D02*X101000Y139300D01*
X102200Y139800D02*X102700Y139300D01*
X102200Y140800D02*Y139800D01*
Y140800D02*X102700Y141300D01*
X103700D01*
X104200Y140800D01*
Y139800D01*
X103700Y139300D02*X104200Y139800D01*
X102700Y139300D02*X103700D01*
X102200Y141800D02*X102700Y141300D01*
X102200Y142800D02*Y141800D01*
Y142800D02*X102700Y143300D01*
X103700D01*
X104200Y142800D01*
Y141800D01*
X103700Y141300D02*X104200Y141800D01*
X56510Y107000D02*Y103500D01*
X57010Y103000D01*
X58010D01*
X58510Y103500D01*
Y107000D02*Y103500D01*
X59710Y106500D02*X60210Y107000D01*
X61710D01*
X62210Y106500D01*
Y105500D01*
X59710Y103000D02*X62210Y105500D01*
X59710Y103000D02*X62210D01*
X159807Y145650D02*X161807D01*
X162307Y145150D01*
Y144150D01*
X161807Y143650D02*X162307Y144150D01*
X160307Y143650D02*X161807D01*
X160307Y145650D02*Y141650D01*
Y143650D02*X162307Y141650D01*
X163507Y145650D02*X165507D01*
X163507D02*Y143650D01*
X164007Y144150D01*
X165007D01*
X165507Y143650D01*
Y142150D01*
X165007Y141650D02*X165507Y142150D01*
X164007Y141650D02*X165007D01*
X163507Y142150D02*X164007Y141650D01*
X135189Y142900D02*X136464D01*
X134764Y143325D02*X135189Y142900D01*
X134764Y145875D02*Y143325D01*
Y145875D02*X135189Y146300D01*
X136464D01*
X138759D02*X139184Y145875D01*
X137909Y146300D02*X138759D01*
X137484Y145875D02*X137909Y146300D01*
X137484Y145875D02*Y143325D01*
X137909Y142900D01*
X138759Y144600D02*X139184Y144175D01*
X137484Y144600D02*X138759D01*
X137909Y142900D02*X138759D01*
X139184Y143325D01*
Y144175D02*Y143325D01*
X142207Y141150D02*X143407D01*
X141807Y141550D02*X142207Y141150D01*
X141807Y143950D02*Y141550D01*
Y143950D02*X142207Y144350D01*
X143407D01*
X144367D02*X145967D01*
X144367D02*Y142750D01*
X144767Y143150D01*
X145567D01*
X145967Y142750D01*
Y141550D01*
X145567Y141150D02*X145967Y141550D01*
X144767Y141150D02*X145567D01*
X144367Y141550D02*X144767Y141150D01*
X207406Y131082D02*Y127757D01*
X207881Y127282D01*
X208831D01*
X209306Y127757D01*
Y131082D02*Y127757D01*
X210446Y129182D02*X212346Y131082D01*
X210446Y129182D02*X212821D01*
X212346Y131082D02*Y127282D01*
X208000Y186000D02*X210000D01*
X209000D02*Y182000D01*
X211700D02*X212700D01*
X212200Y186000D02*Y182000D01*
X211200Y185000D02*X212200Y186000D01*
X210040Y167436D02*Y163436D01*
X211540Y167436D02*X212040Y166936D01*
Y163936D01*
X211540Y163436D02*X212040Y163936D01*
X209540Y163436D02*X211540D01*
X209540Y167436D02*X211540D01*
X213240Y165436D02*X215240Y167436D01*
X213240Y165436D02*X215740D01*
X215240Y167436D02*Y163436D01*
X170807Y113150D02*X172307D01*
X170307Y113650D02*X170807Y113150D01*
X170307Y116650D02*Y113650D01*
Y116650D02*X170807Y117150D01*
X172307D01*
X173507Y115150D02*X175507Y117150D01*
X173507Y115150D02*X176007D01*
X175507Y117150D02*Y113150D01*
X162157Y86000D02*X163657D01*
Y82500D01*
X163157Y82000D02*X163657Y82500D01*
X162657Y82000D02*X163157D01*
X162157Y82500D02*X162657Y82000D01*
X165357D02*X166357D01*
X165857Y86000D02*Y82000D01*
X164857Y85000D02*X165857Y86000D01*
X170500Y105200D02*Y101700D01*
X171000Y101200D01*
X172000D01*
X172500Y101700D01*
Y105200D02*Y101700D01*
X173700Y104700D02*X174200Y105200D01*
X175200D01*
X175700Y104700D01*
Y101700D01*
X175200Y101200D02*X175700Y101700D01*
X174200Y101200D02*X175200D01*
X173700Y101700D02*X174200Y101200D01*
Y103200D02*X175700D01*
X198807Y113193D02*X200307D01*
X198307Y113693D02*X198807Y113193D01*
X198307Y116693D02*Y113693D01*
Y116693D02*X198807Y117193D01*
X200307D01*
X201507Y116693D02*X202007Y117193D01*
X203007D01*
X203507Y116693D01*
Y113693D01*
X203007Y113193D02*X203507Y113693D01*
X202007Y113193D02*X203007D01*
X201507Y113693D02*X202007Y113193D01*
Y115193D02*X203507D01*
X148350Y110650D02*X149850D01*
X147850Y111150D02*X148350Y110650D01*
X147850Y114150D02*Y111150D01*
Y114150D02*X148350Y114650D01*
X149850D01*
X151050Y110650D02*X153550Y113150D01*
Y114650D02*Y113150D01*
X151050Y114650D02*X153550D01*
X161500Y114500D02*X163500D01*
X164000Y114000D01*
Y113000D01*
X163500Y112500D02*X164000Y113000D01*
X162000Y112500D02*X163500D01*
X162000Y114500D02*Y110500D01*
Y112500D02*X164000Y110500D01*
X166700Y114500D02*X167200Y114000D01*
X165700Y114500D02*X166700D01*
X165200Y114000D02*X165700Y114500D01*
X165200Y114000D02*Y111000D01*
X165700Y110500D01*
X166700Y112500D02*X167200Y112000D01*
X165200Y112500D02*X166700D01*
X165700Y110500D02*X166700D01*
X167200Y111000D01*
Y112000D02*Y111000D01*
X231100Y135450D02*Y131450D01*
X232600Y135450D02*X233100Y134950D01*
Y131950D01*
X232600Y131450D02*X233100Y131950D01*
X230600Y131450D02*X232600D01*
X230600Y135450D02*X232600D01*
X234300D02*X236300D01*
X234300D02*Y133450D01*
X234800Y133950D01*
X235800D01*
X236300Y133450D01*
Y131950D01*
X235800Y131450D02*X236300Y131950D01*
X234800Y131450D02*X235800D01*
X234300Y131950D02*X234800Y131450D01*
X223307Y150150D02*X225307D01*
X225807Y149650D01*
Y148650D01*
X225307Y148150D02*X225807Y148650D01*
X223807Y148150D02*X225307D01*
X223807Y150150D02*Y146150D01*
Y148150D02*X225807Y146150D01*
X227007Y149650D02*X227507Y150150D01*
X228507D01*
X229007Y149650D01*
Y146650D01*
X228507Y146150D02*X229007Y146650D01*
X227507Y146150D02*X228507D01*
X227007Y146650D02*X227507Y146150D01*
Y148150D02*X229007D01*
X232402Y116350D02*X234402D01*
X234902Y115850D01*
Y114850D01*
X234402Y114350D02*X234902Y114850D01*
X232902Y114350D02*X234402D01*
X232902Y116350D02*Y112350D01*
Y114350D02*X234902Y112350D01*
X236102Y114350D02*X238102Y116350D01*
X236102Y114350D02*X238602D01*
X238102Y116350D02*Y112350D01*
X215764Y107150D02*X217764D01*
X218264Y106650D01*
Y105650D01*
X217764Y105150D02*X218264Y105650D01*
X216264Y105150D02*X217764D01*
X216264Y107150D02*Y103150D01*
Y105150D02*X218264Y103150D01*
X219464Y106650D02*X219964Y107150D01*
X221464D01*
X221964Y106650D01*
Y105650D01*
X219464Y103150D02*X221964Y105650D01*
X219464Y103150D02*X221964D01*
X201500Y27500D02*X203000D01*
Y24000D01*
X202500Y23500D02*X203000Y24000D01*
X202000Y23500D02*X202500D01*
X201500Y24000D02*X202000Y23500D01*
X204700Y27500D02*Y23500D01*
X204200Y27500D02*X206200D01*
X206700Y27000D01*
Y26000D01*
X206200Y25500D02*X206700Y26000D01*
X204700Y25500D02*X206200D01*
X208400Y23500D02*X209400D01*
X208900Y27500D02*Y23500D01*
X207900Y26500D02*X208900Y27500D01*
X155307Y30193D02*X156807D01*
X154807Y30693D02*X155307Y30193D01*
X154807Y33693D02*Y30693D01*
Y33693D02*X155307Y34193D01*
X156807D01*
X158507Y30193D02*X159507D01*
X159007Y34193D02*Y30193D01*
X158007Y33193D02*X159007Y34193D01*
X160707Y30693D02*X161207Y30193D01*
X160707Y33693D02*Y30693D01*
Y33693D02*X161207Y34193D01*
X162207D01*
X162707Y33693D01*
Y30693D01*
X162207Y30193D02*X162707Y30693D01*
X161207Y30193D02*X162207D01*
X160707Y31193D02*X162707Y33193D01*
X177227Y31577D02*X179227D01*
X179727Y31077D01*
Y30077D01*
X179227Y29577D02*X179727Y30077D01*
X177727Y29577D02*X179227D01*
X177727Y31577D02*Y27577D01*
Y29577D02*X179727Y27577D01*
X181427D02*X182427D01*
X181927Y31577D02*Y27577D01*
X180927Y30577D02*X181927Y31577D01*
X183627Y28077D02*X184127Y27577D01*
X183627Y31077D02*Y28077D01*
Y31077D02*X184127Y31577D01*
X185127D01*
X185627Y31077D01*
Y28077D01*
X185127Y27577D02*X185627Y28077D01*
X184127Y27577D02*X185127D01*
X183627Y28577D02*X185627Y30577D01*
X175000Y9000D02*Y5000D01*
X176500Y9000D02*X177000Y8500D01*
Y5500D01*
X176500Y5000D02*X177000Y5500D01*
X174500Y5000D02*X176500D01*
X174500Y9000D02*X176500D01*
X179700D02*X180200Y8500D01*
X178700Y9000D02*X179700D01*
X178200Y8500D02*X178700Y9000D01*
X178200Y8500D02*Y5500D01*
X178700Y5000D01*
X179700Y7000D02*X180200Y6500D01*
X178200Y7000D02*X179700D01*
X178700Y5000D02*X179700D01*
X180200Y5500D01*
Y6500D02*Y5500D01*
M02*
