G04 start of page 8 for group -4062 idx -4062 *
G04 Title: (unknown), soldermask *
G04 Creator: pcb 20140316 *
G04 CreationDate: Sat 17 Sep 2016 09:31:19 PM GMT UTC *
G04 For: ndholmes *
G04 Format: Gerber/RS-274X *
G04 PCB-Dimensions (mil): 2500.00 1900.00 *
G04 PCB-Coordinate-Origin: lower left *
%MOIN*%
%FSLAX25Y25*%
%LNBOTTOMMASK*%
%ADD93C,0.0660*%
%ADD92C,0.2997*%
%ADD91C,0.1500*%
%ADD90C,0.0860*%
%ADD89C,0.0760*%
%ADD88C,0.0001*%
%ADD87C,0.0490*%
G54D87*X148500Y87000D03*
X152500Y67000D03*
X144500D03*
G54D88*G36*
X141200Y172300D02*Y163700D01*
X149800D01*
Y172300D01*
X141200D01*
G37*
G54D89*X185000Y66000D03*
G54D90*X195500Y168000D03*
G54D89*X175000Y71000D03*
Y81000D03*
X75000Y66000D03*
X65000Y61000D03*
X75000Y56000D03*
X65000Y51000D03*
Y81000D03*
X75000Y76000D03*
X65000Y71000D03*
X75000Y46000D03*
G54D88*G36*
X114200Y26300D02*Y17700D01*
X122800D01*
Y26300D01*
X114200D01*
G37*
G54D90*X138500Y22000D03*
G54D91*X40000Y86000D03*
G54D92*X17000Y173000D03*
G54D88*G36*
X16200Y141800D02*Y133200D01*
X24800D01*
Y141800D01*
X16200D01*
G37*
G54D90*X20500Y117500D03*
G54D91*X40000Y41000D03*
G54D92*X17000Y17000D03*
G54D88*G36*
X120700Y186800D02*Y179200D01*
X128300D01*
Y186800D01*
X120700D01*
G37*
G54D89*X124500Y173000D03*
Y163000D03*
G54D92*X233000Y173000D03*
Y17000D03*
G54D89*X185000Y46000D03*
X175000Y51000D03*
X185000Y56000D03*
X175000Y61000D03*
X185000Y76000D03*
G54D91*X210000Y86000D03*
Y41000D03*
G54D88*G36*
X191200Y25800D02*Y19200D01*
X197800D01*
Y25800D01*
X191200D01*
G37*
G54D93*X194500Y12500D03*
M02*
