G04 start of page 7 for group -4063 idx -4063 *
G04 Title: (unknown), componentmask *
G04 Creator: pcb 20140316 *
G04 CreationDate: Sat 17 Sep 2016 09:31:19 PM GMT UTC *
G04 For: ndholmes *
G04 Format: Gerber/RS-274X *
G04 PCB-Dimensions (mil): 2500.00 1900.00 *
G04 PCB-Coordinate-Origin: lower left *
%MOIN*%
%FSLAX25Y25*%
%LNTOPMASK*%
%ADD86R,0.1005X0.1005*%
%ADD85R,0.0438X0.0438*%
%ADD84R,0.0330X0.0330*%
%ADD83R,0.0690X0.0690*%
%ADD82R,0.1280X0.1280*%
%ADD81R,0.0620X0.0620*%
%ADD80R,0.0151X0.0151*%
%ADD79R,0.0420X0.0420*%
%ADD78R,0.0235X0.0235*%
%ADD77R,0.0227X0.0227*%
%ADD76C,0.0370*%
%ADD75R,0.0400X0.0400*%
%ADD74R,0.0572X0.0572*%
%ADD73R,0.0300X0.0300*%
%ADD72C,0.0660*%
%ADD71C,0.2997*%
%ADD70C,0.1500*%
%ADD69C,0.0860*%
%ADD68C,0.0760*%
%ADD67C,0.0001*%
%ADD66C,0.0490*%
G54D66*X148500Y87000D03*
X152500Y67000D03*
X144500D03*
G54D67*G36*
X141200Y172300D02*Y163700D01*
X149800D01*
Y172300D01*
X141200D01*
G37*
G54D68*X185000Y66000D03*
G54D69*X195500Y168000D03*
G54D68*X175000Y71000D03*
Y81000D03*
X75000Y66000D03*
X65000Y61000D03*
X75000Y56000D03*
X65000Y51000D03*
Y81000D03*
X75000Y76000D03*
X65000Y71000D03*
X75000Y46000D03*
G54D67*G36*
X114200Y26300D02*Y17700D01*
X122800D01*
Y26300D01*
X114200D01*
G37*
G54D69*X138500Y22000D03*
G54D70*X40000Y86000D03*
G54D71*X17000Y173000D03*
G54D67*G36*
X16200Y141800D02*Y133200D01*
X24800D01*
Y141800D01*
X16200D01*
G37*
G54D69*X20500Y117500D03*
G54D70*X40000Y41000D03*
G54D71*X17000Y17000D03*
G54D67*G36*
X120700Y186800D02*Y179200D01*
X128300D01*
Y186800D01*
X120700D01*
G37*
G54D68*X124500Y173000D03*
Y163000D03*
G54D71*X233000Y173000D03*
Y17000D03*
G54D68*X185000Y46000D03*
X175000Y51000D03*
X185000Y56000D03*
X175000Y61000D03*
X185000Y76000D03*
G54D70*X210000Y86000D03*
Y41000D03*
G54D67*G36*
X191200Y25800D02*Y19200D01*
X197800D01*
Y25800D01*
X191200D01*
G37*
G54D72*X194500Y12500D03*
G54D73*X196000Y126500D02*X202500D01*
X196000Y131500D02*X202500D01*
X196000Y136500D02*X202500D01*
X196000Y141500D02*X202500D01*
G54D74*X201107Y109043D02*X201893D01*
X201107Y101957D02*X201893D01*
G54D73*X175500Y141500D02*X182000D01*
X175500Y136500D02*X182000D01*
X175500Y131500D02*X182000D01*
X175500Y126500D02*X182000D01*
G54D74*X180414Y118893D02*Y118107D01*
G54D75*X180500Y105600D02*X181100D01*
G54D74*X187500Y118893D02*Y118107D01*
G54D75*X188700Y101700D02*X189300D01*
X188700Y109500D02*X189300D01*
G54D76*X146000Y82000D03*
X151000D03*
X146000Y77000D03*
X151000D03*
X146000Y72000D03*
X151000D03*
G54D74*X151107Y119457D02*X151893D01*
G54D77*X162425Y120587D02*Y118717D01*
X165575Y120587D02*Y118717D01*
G54D74*X151107Y126543D02*X151893D01*
G54D77*X165575Y127283D02*Y125413D01*
X162425Y127283D02*Y125413D01*
G54D74*X162043Y24850D02*Y24064D01*
X154957Y24850D02*Y24064D01*
X218543Y145393D02*Y144607D01*
X211457Y145393D02*Y144607D01*
G54D78*X211246Y158620D02*X211699D01*
X211246Y156060D02*X211699D01*
X211246Y153500D02*X211699D01*
X218273D02*X218726D01*
X218273Y156060D02*X218726D01*
X218273Y158620D02*X218726D01*
X219260Y136060D02*X219713D01*
X219260Y133500D02*X219713D01*
X219260Y130940D02*X219713D01*
G54D77*X219217Y123224D02*X221087D01*
X219217Y120075D02*X221087D01*
X219217Y116925D02*X221087D01*
X219217Y113776D02*X221087D01*
G54D78*X226287Y130940D02*X226740D01*
X226287Y133500D02*X226740D01*
X226287Y136060D02*X226740D01*
G54D77*X225913Y113776D02*X227783D01*
X225913Y116925D02*X227783D01*
X225913Y120075D02*X227783D01*
X225913Y123224D02*X227783D01*
G54D74*X210607Y101914D02*X211393D01*
X210607Y109000D02*X211393D01*
G54D77*X182802Y22860D02*Y20990D01*
X179652Y22860D02*Y20990D01*
Y16164D02*Y14294D01*
X182802Y16164D02*Y14294D01*
G54D79*X169500Y12100D02*Y10900D01*
X156600Y12100D02*Y10900D01*
G54D74*X158457Y136893D02*Y136107D01*
X165543Y136893D02*Y136107D01*
X142414Y136893D02*Y136107D01*
X149500Y136893D02*Y136107D01*
G54D80*X130390Y136874D02*Y135220D01*
X128421Y136874D02*Y135220D01*
X126453Y136874D02*Y135220D01*
X124484Y136874D02*Y135220D01*
X122516Y136874D02*Y135220D01*
X120547Y136874D02*Y135220D01*
X118579Y136874D02*Y135220D01*
X116610Y136874D02*Y135220D01*
G54D74*X93107Y137500D02*X93893D01*
X129607Y145457D02*X130393D01*
X129607Y152543D02*X130393D01*
X117607Y145457D02*X118393D01*
X117607Y152543D02*X118393D01*
X97607Y170500D02*X98393D01*
X97607Y177586D02*X98393D01*
X107107Y177543D02*X107893D01*
X107107Y170457D02*X107893D01*
G54D77*X106024Y156283D02*Y154413D01*
Y149587D02*Y147717D01*
X102875Y156283D02*Y154413D01*
Y149587D02*Y147717D01*
X99725Y156283D02*Y154413D01*
X96576Y156283D02*Y154413D01*
Y149587D02*Y147717D01*
X99725Y149587D02*Y147717D01*
G54D80*X113126Y133390D02*X114780D01*
X113126Y131421D02*X114780D01*
X113126Y129453D02*X114780D01*
X113126Y127484D02*X114780D01*
X113126Y125516D02*X114780D01*
G54D74*X93107Y130414D02*X93893D01*
X104607Y130543D02*X105393D01*
G54D81*X94300Y89000D02*X100900D01*
X94300Y80000D02*X100900D01*
X94300Y70900D02*X100900D01*
G54D82*X122000Y84500D02*Y75500D01*
G54D80*X113126Y123547D02*X114780D01*
X113126Y121579D02*X114780D01*
X113126Y119610D02*X114780D01*
X116610Y117780D02*Y116126D01*
G54D74*X104607Y123457D02*X105393D01*
G54D80*X118579Y117780D02*Y116126D01*
X120547Y117780D02*Y116126D01*
X122516Y117780D02*Y116126D01*
G54D67*G36*
X117097Y132902D02*Y120097D01*
X129903D01*
Y132902D01*
X117097D01*
G37*
G36*
Y120097D01*
X129903D01*
Y132902D01*
X117097D01*
G37*
G54D80*X124484Y117780D02*Y116126D01*
X126453Y117780D02*Y116126D01*
X128421Y117780D02*Y116126D01*
X130390Y117780D02*Y116126D01*
X132220Y119610D02*X133874D01*
X132220Y121579D02*X133874D01*
X132220Y123547D02*X133874D01*
X132220Y125516D02*X133874D01*
X132220Y127484D02*X133874D01*
X132220Y129453D02*X133874D01*
X132220Y131421D02*X133874D01*
X132220Y133390D02*X133874D01*
G54D74*X88107Y177543D02*X88893D01*
X88107Y170457D02*X88893D01*
G54D83*X61193Y170500D02*X67492D01*
X41508D02*X47807D01*
G54D84*X56000Y150950D02*Y148550D01*
X46000Y150950D02*Y148550D01*
Y128450D02*Y126050D01*
X56000Y128450D02*Y126050D01*
G54D85*X82406Y131905D02*Y127811D01*
X76500Y131905D02*Y120095D01*
G54D86*Y118361D02*Y116471D01*
G54D67*G36*
X78385Y126350D02*X81649Y123086D01*
X79805Y121242D01*
X76541Y124506D01*
X78385Y126350D01*
G37*
G36*
X71351Y123086D02*X74615Y126350D01*
X76459Y124506D01*
X73195Y121242D01*
X71351Y123086D01*
G37*
G54D85*X70594Y131905D02*Y127811D01*
M02*
