G04 start of page 3 for group 1 idx 1 *
G04 Title: (unknown), solder *
G04 Creator: pcb 20140316 *
G04 CreationDate: Fri 02 Jun 2017 03:09:38 AM GMT UTC *
G04 For: railfan *
G04 Format: Gerber/RS-274X *
G04 PCB-Dimensions (mil): 2500.00 1900.00 *
G04 PCB-Coordinate-Origin: lower left *
%MOIN*%
%FSLAX25Y25*%
%LNBOTTOM*%
%ADD56C,0.0380*%
%ADD55C,0.1285*%
%ADD54C,0.1280*%
%ADD53C,0.0300*%
%ADD52C,0.0480*%
%ADD51C,0.0390*%
%ADD50C,0.0200*%
%ADD49C,0.0600*%
%ADD48C,0.2937*%
%ADD47C,0.1440*%
%ADD46C,0.0800*%
%ADD45C,0.0700*%
%ADD44C,0.0400*%
%ADD43C,0.0100*%
%ADD42C,0.0250*%
%ADD41C,0.0001*%
G54D41*G36*
X202245Y188500D02*X230378D01*
X228138Y187962D01*
X225858Y187018D01*
X223753Y185728D01*
X221876Y184124D01*
X220272Y182247D01*
X218982Y180142D01*
X218038Y177862D01*
X217461Y175461D01*
X217268Y173000D01*
X217461Y170539D01*
X218038Y168138D01*
X218982Y165858D01*
X220272Y163753D01*
X221876Y161876D01*
X223753Y160272D01*
X225858Y158982D01*
X228138Y158038D01*
X230539Y157461D01*
X233000Y157268D01*
X235461Y157461D01*
X237862Y158038D01*
X240142Y158982D01*
X242247Y160272D01*
X244124Y161876D01*
X245728Y163753D01*
X247018Y165858D01*
X247962Y168138D01*
X248500Y170378D01*
Y19622D01*
X247962Y21862D01*
X247018Y24142D01*
X245728Y26247D01*
X244124Y28124D01*
X242247Y29728D01*
X240142Y31018D01*
X237862Y31962D01*
X235461Y32539D01*
X233000Y32732D01*
X230539Y32539D01*
X228138Y31962D01*
X225858Y31018D01*
X223753Y29728D01*
X221876Y28124D01*
X220272Y26247D01*
X218982Y24142D01*
X218038Y21862D01*
X217461Y19461D01*
X217268Y17000D01*
X217461Y14539D01*
X218038Y12138D01*
X218982Y9858D01*
X220272Y7753D01*
X221876Y5876D01*
X223753Y4272D01*
X225858Y2982D01*
X228138Y2038D01*
X230378Y1500D01*
X202245D01*
Y38294D01*
X202671Y37266D01*
X203346Y36165D01*
X204184Y35184D01*
X205165Y34346D01*
X206266Y33671D01*
X207458Y33177D01*
X208713Y32876D01*
X210000Y32775D01*
X211287Y32876D01*
X212542Y33177D01*
X213734Y33671D01*
X214835Y34346D01*
X215816Y35184D01*
X216654Y36165D01*
X217329Y37266D01*
X217823Y38458D01*
X218124Y39713D01*
X218200Y41000D01*
X218124Y42287D01*
X217823Y43542D01*
X217329Y44734D01*
X216654Y45835D01*
X215816Y46816D01*
X214835Y47654D01*
X213734Y48329D01*
X212542Y48823D01*
X211287Y49124D01*
X210000Y49225D01*
X208713Y49124D01*
X207458Y48823D01*
X206266Y48329D01*
X205165Y47654D01*
X204184Y46816D01*
X203346Y45835D01*
X202671Y44734D01*
X202245Y43706D01*
Y83294D01*
X202671Y82266D01*
X203346Y81165D01*
X204184Y80184D01*
X205165Y79346D01*
X206266Y78671D01*
X207458Y78177D01*
X208713Y77876D01*
X210000Y77775D01*
X211287Y77876D01*
X212542Y78177D01*
X213734Y78671D01*
X214835Y79346D01*
X215816Y80184D01*
X216654Y81165D01*
X217329Y82266D01*
X217823Y83458D01*
X218124Y84713D01*
X218200Y86000D01*
X218124Y87287D01*
X217823Y88542D01*
X217329Y89734D01*
X216654Y90835D01*
X215816Y91816D01*
X214835Y92654D01*
X213734Y93329D01*
X212542Y93823D01*
X211287Y94124D01*
X210000Y94225D01*
X208713Y94124D01*
X207458Y93823D01*
X206266Y93329D01*
X205165Y92654D01*
X204184Y91816D01*
X203346Y90835D01*
X202671Y89734D01*
X202245Y88706D01*
Y107698D01*
X202384Y107783D01*
X202564Y107936D01*
X202602Y107981D01*
X204519Y109898D01*
X204564Y109936D01*
X204717Y110115D01*
X204717Y110116D01*
X204841Y110317D01*
X204931Y110535D01*
X204986Y110765D01*
X205005Y111000D01*
X205000Y111059D01*
Y136379D01*
X205621Y137000D01*
X206401D01*
X206565Y136731D01*
X206872Y136372D01*
X207231Y136065D01*
X207634Y135819D01*
X208070Y135638D01*
X208529Y135528D01*
X209000Y135491D01*
X209471Y135528D01*
X209930Y135638D01*
X210366Y135819D01*
X210769Y136065D01*
X211128Y136372D01*
X211435Y136731D01*
X211681Y137134D01*
X211862Y137570D01*
X211972Y138029D01*
X212000Y138500D01*
X211972Y138971D01*
X211862Y139430D01*
X211681Y139866D01*
X211435Y140269D01*
X211128Y140628D01*
X210769Y140935D01*
X210366Y141181D01*
X209930Y141362D01*
X209471Y141472D01*
X209000Y141509D01*
X208529Y141472D01*
X208070Y141362D01*
X207634Y141181D01*
X207231Y140935D01*
X206872Y140628D01*
X206565Y140269D01*
X206401Y140000D01*
X205059D01*
X205000Y140005D01*
X204765Y139986D01*
X204535Y139931D01*
X204317Y139841D01*
X204116Y139717D01*
X204115Y139717D01*
X203936Y139564D01*
X203898Y139519D01*
X202481Y138102D01*
X202436Y138064D01*
X202283Y137884D01*
X202245Y137823D01*
Y142019D01*
X202265Y142014D01*
X202500Y141995D01*
X202559Y142000D01*
X228401D01*
X228565Y141731D01*
X228872Y141372D01*
X229231Y141065D01*
X229634Y140819D01*
X230070Y140638D01*
X230529Y140528D01*
X231000Y140491D01*
X231471Y140528D01*
X231930Y140638D01*
X232366Y140819D01*
X232769Y141065D01*
X233128Y141372D01*
X233435Y141731D01*
X233681Y142134D01*
X233862Y142570D01*
X233972Y143029D01*
X234000Y143500D01*
X233972Y143971D01*
X233862Y144430D01*
X233681Y144866D01*
X233435Y145269D01*
X233128Y145628D01*
X232769Y145935D01*
X232576Y146053D01*
X232930Y146138D01*
X233366Y146319D01*
X233769Y146565D01*
X234128Y146872D01*
X234435Y147231D01*
X234681Y147634D01*
X234862Y148070D01*
X234972Y148529D01*
X235000Y149000D01*
X234972Y149471D01*
X234862Y149930D01*
X234681Y150366D01*
X234435Y150769D01*
X234128Y151128D01*
X233769Y151435D01*
X233366Y151681D01*
X232930Y151862D01*
X232471Y151972D01*
X232000Y152009D01*
X231529Y151972D01*
X231070Y151862D01*
X230634Y151681D01*
X230231Y151435D01*
X229872Y151128D01*
X229565Y150769D01*
X229401Y150500D01*
X207121D01*
X204102Y153519D01*
X204064Y153564D01*
X203884Y153717D01*
X203683Y153841D01*
X203465Y153931D01*
X203235Y153986D01*
X203000Y154005D01*
X202941Y154000D01*
X202245D01*
Y188500D01*
G37*
G36*
X194500Y114991D02*X194971Y115028D01*
X195430Y115138D01*
X195866Y115319D01*
X196269Y115565D01*
X196628Y115872D01*
X196935Y116231D01*
X197181Y116634D01*
X197362Y117070D01*
X197472Y117529D01*
X197500Y118000D01*
X197472Y118471D01*
X197362Y118930D01*
X197181Y119366D01*
X196935Y119769D01*
X196628Y120128D01*
X196269Y120435D01*
X195866Y120681D01*
X195430Y120862D01*
X194971Y120972D01*
X194500Y121009D01*
Y146500D01*
X197379D01*
X201398Y142481D01*
X201436Y142436D01*
X201615Y142283D01*
X201616Y142283D01*
X201817Y142159D01*
X202035Y142069D01*
X202245Y142019D01*
Y137823D01*
X202159Y137683D01*
X202069Y137465D01*
X202014Y137235D01*
X202014Y137235D01*
X201995Y137000D01*
X202000Y136941D01*
Y111621D01*
X200879Y110500D01*
X198099D01*
X197935Y110769D01*
X197628Y111128D01*
X197269Y111435D01*
X196866Y111681D01*
X196430Y111862D01*
X195971Y111972D01*
X195500Y112009D01*
X195029Y111972D01*
X194570Y111862D01*
X194500Y111833D01*
Y114991D01*
G37*
G36*
X202245Y1500D02*X198113D01*
Y10353D01*
X198156Y10360D01*
X198268Y10397D01*
X198373Y10452D01*
X198468Y10522D01*
X198551Y10606D01*
X198619Y10702D01*
X198670Y10808D01*
X198818Y11216D01*
X198922Y11637D01*
X198984Y12067D01*
X199005Y12500D01*
X198984Y12933D01*
X198922Y13363D01*
X198818Y13784D01*
X198675Y14194D01*
X198622Y14300D01*
X198553Y14396D01*
X198470Y14481D01*
X198375Y14551D01*
X198269Y14606D01*
X198157Y14643D01*
X198113Y14651D01*
Y18130D01*
X198183Y18159D01*
X198384Y18283D01*
X198564Y18436D01*
X198717Y18616D01*
X198841Y18817D01*
X198931Y19035D01*
X198986Y19265D01*
X199000Y19500D01*
X198986Y25735D01*
X198931Y25965D01*
X198841Y26183D01*
X198717Y26384D01*
X198564Y26564D01*
X198384Y26717D01*
X198183Y26841D01*
X198113Y26870D01*
Y107500D01*
X201441D01*
X201500Y107495D01*
X201735Y107514D01*
X201735Y107514D01*
X201965Y107569D01*
X202183Y107659D01*
X202245Y107698D01*
Y88706D01*
X202177Y88542D01*
X201876Y87287D01*
X201775Y86000D01*
X201876Y84713D01*
X202177Y83458D01*
X202245Y83294D01*
Y43706D01*
X202177Y43542D01*
X201876Y42287D01*
X201775Y41000D01*
X201876Y39713D01*
X202177Y38458D01*
X202245Y38294D01*
Y1500D01*
G37*
G36*
X198113Y26870D02*X197965Y26931D01*
X197735Y26986D01*
X197500Y27000D01*
X194500Y26993D01*
Y106167D01*
X194570Y106138D01*
X195029Y106028D01*
X195500Y105991D01*
X195971Y106028D01*
X196430Y106138D01*
X196866Y106319D01*
X197269Y106565D01*
X197628Y106872D01*
X197935Y107231D01*
X198099Y107500D01*
X198113D01*
Y26870D01*
G37*
G36*
Y1500D02*X194500D01*
Y7995D01*
X194933Y8016D01*
X195363Y8078D01*
X195784Y8182D01*
X196194Y8325D01*
X196300Y8378D01*
X196396Y8447D01*
X196481Y8530D01*
X196551Y8625D01*
X196606Y8731D01*
X196643Y8843D01*
X196663Y8960D01*
X196664Y9079D01*
X196646Y9196D01*
X196610Y9309D01*
X196557Y9415D01*
X196488Y9512D01*
X196405Y9596D01*
X196309Y9667D01*
X196204Y9721D01*
X196092Y9759D01*
X195975Y9778D01*
X195856Y9779D01*
X195739Y9761D01*
X195626Y9723D01*
X195355Y9624D01*
X195075Y9556D01*
X194789Y9514D01*
X194500Y9500D01*
Y15500D01*
X194789Y15486D01*
X195075Y15444D01*
X195355Y15376D01*
X195628Y15280D01*
X195739Y15242D01*
X195856Y15225D01*
X195974Y15225D01*
X196091Y15245D01*
X196203Y15282D01*
X196307Y15336D01*
X196402Y15406D01*
X196485Y15491D01*
X196554Y15587D01*
X196607Y15692D01*
X196643Y15805D01*
X196660Y15921D01*
X196659Y16039D01*
X196640Y16156D01*
X196603Y16268D01*
X196548Y16373D01*
X196478Y16468D01*
X196394Y16551D01*
X196298Y16619D01*
X196192Y16670D01*
X195784Y16818D01*
X195363Y16922D01*
X194933Y16984D01*
X194500Y17005D01*
Y18007D01*
X197735Y18014D01*
X197965Y18069D01*
X198113Y18130D01*
Y14651D01*
X198040Y14663D01*
X197921Y14664D01*
X197804Y14646D01*
X197691Y14610D01*
X197585Y14557D01*
X197488Y14488D01*
X197404Y14405D01*
X197333Y14309D01*
X197279Y14204D01*
X197241Y14092D01*
X197222Y13975D01*
X197221Y13856D01*
X197239Y13739D01*
X197277Y13626D01*
X197376Y13355D01*
X197444Y13075D01*
X197486Y12789D01*
X197500Y12500D01*
X197486Y12211D01*
X197444Y11925D01*
X197376Y11645D01*
X197280Y11372D01*
X197242Y11261D01*
X197225Y11144D01*
X197225Y11026D01*
X197245Y10909D01*
X197282Y10797D01*
X197336Y10693D01*
X197406Y10598D01*
X197491Y10515D01*
X197587Y10446D01*
X197692Y10393D01*
X197805Y10357D01*
X197921Y10340D01*
X198039Y10341D01*
X198113Y10353D01*
Y1500D01*
G37*
G36*
X194500Y121009D02*X194029Y120972D01*
X193570Y120862D01*
X193134Y120681D01*
X192731Y120435D01*
X192372Y120128D01*
X192065Y119769D01*
X191901Y119500D01*
X188720D01*
Y146500D01*
X194500D01*
Y121009D01*
G37*
G36*
X190887Y116500D02*X191901D01*
X192065Y116231D01*
X192372Y115872D01*
X192731Y115565D01*
X193134Y115319D01*
X193570Y115138D01*
X194029Y115028D01*
X194500Y114991D01*
Y111833D01*
X194134Y111681D01*
X193731Y111435D01*
X193372Y111128D01*
X193065Y110769D01*
X192819Y110366D01*
X192638Y109930D01*
X192528Y109471D01*
X192491Y109000D01*
X192528Y108529D01*
X192638Y108070D01*
X192819Y107634D01*
X193065Y107231D01*
X193372Y106872D01*
X193731Y106565D01*
X194134Y106319D01*
X194500Y106167D01*
Y26993D01*
X191265Y26986D01*
X191035Y26931D01*
X190887Y26870D01*
Y116500D01*
G37*
G36*
X194500Y1500D02*X190887D01*
Y10349D01*
X190960Y10337D01*
X191079Y10336D01*
X191196Y10354D01*
X191309Y10390D01*
X191415Y10443D01*
X191512Y10512D01*
X191596Y10595D01*
X191667Y10691D01*
X191721Y10796D01*
X191759Y10908D01*
X191778Y11025D01*
X191779Y11144D01*
X191761Y11261D01*
X191723Y11374D01*
X191624Y11645D01*
X191556Y11925D01*
X191514Y12211D01*
X191500Y12500D01*
X191514Y12789D01*
X191556Y13075D01*
X191624Y13355D01*
X191720Y13628D01*
X191758Y13739D01*
X191775Y13856D01*
X191775Y13974D01*
X191755Y14091D01*
X191718Y14203D01*
X191664Y14307D01*
X191594Y14402D01*
X191509Y14485D01*
X191413Y14554D01*
X191308Y14607D01*
X191195Y14643D01*
X191079Y14660D01*
X190961Y14659D01*
X190887Y14647D01*
Y18130D01*
X191035Y18069D01*
X191265Y18014D01*
X191500Y18000D01*
X194500Y18007D01*
Y17005D01*
X194067Y16984D01*
X193637Y16922D01*
X193216Y16818D01*
X192806Y16675D01*
X192700Y16622D01*
X192604Y16553D01*
X192519Y16470D01*
X192449Y16375D01*
X192394Y16269D01*
X192357Y16157D01*
X192337Y16040D01*
X192336Y15921D01*
X192354Y15804D01*
X192390Y15691D01*
X192443Y15585D01*
X192512Y15488D01*
X192595Y15404D01*
X192691Y15333D01*
X192796Y15279D01*
X192908Y15241D01*
X193025Y15222D01*
X193144Y15221D01*
X193261Y15239D01*
X193374Y15277D01*
X193645Y15376D01*
X193925Y15444D01*
X194211Y15486D01*
X194500Y15500D01*
Y9500D01*
X194211Y9514D01*
X193925Y9556D01*
X193645Y9624D01*
X193372Y9720D01*
X193261Y9758D01*
X193144Y9775D01*
X193026Y9775D01*
X192909Y9755D01*
X192797Y9718D01*
X192693Y9664D01*
X192598Y9594D01*
X192515Y9509D01*
X192446Y9413D01*
X192393Y9308D01*
X192357Y9195D01*
X192340Y9079D01*
X192341Y8961D01*
X192360Y8844D01*
X192397Y8732D01*
X192452Y8627D01*
X192522Y8532D01*
X192606Y8449D01*
X192702Y8381D01*
X192808Y8330D01*
X193216Y8182D01*
X193637Y8078D01*
X194067Y8016D01*
X194500Y7995D01*
Y1500D01*
G37*
G36*
X190887D02*X188720D01*
Y42811D01*
X188976Y43111D01*
X189379Y43769D01*
X189675Y44481D01*
X189855Y45231D01*
X189900Y46000D01*
X189855Y46769D01*
X189675Y47519D01*
X189379Y48231D01*
X188976Y48889D01*
X188720Y49189D01*
Y53459D01*
X189022Y53951D01*
X189293Y54605D01*
X189458Y55294D01*
X189500Y56000D01*
X189458Y56706D01*
X189293Y57395D01*
X189022Y58049D01*
X188720Y58541D01*
Y63544D01*
X188771Y63583D01*
X188826Y63639D01*
X188870Y63704D01*
X189064Y64056D01*
X189221Y64426D01*
X189344Y64809D01*
X189433Y65200D01*
X189487Y65599D01*
X189504Y66000D01*
X189487Y66401D01*
X189433Y66800D01*
X189344Y67191D01*
X189221Y67574D01*
X189064Y67944D01*
X188874Y68298D01*
X188829Y68363D01*
X188774Y68420D01*
X188720Y68460D01*
Y73459D01*
X189022Y73951D01*
X189293Y74605D01*
X189458Y75294D01*
X189500Y76000D01*
X189458Y76706D01*
X189293Y77395D01*
X189022Y78049D01*
X188720Y78541D01*
Y116500D01*
X190887D01*
Y26870D01*
X190817Y26841D01*
X190616Y26717D01*
X190436Y26564D01*
X190283Y26384D01*
X190159Y26183D01*
X190069Y25965D01*
X190014Y25735D01*
X190000Y25500D01*
X190014Y19265D01*
X190069Y19035D01*
X190159Y18817D01*
X190283Y18616D01*
X190436Y18436D01*
X190616Y18283D01*
X190817Y18159D01*
X190887Y18130D01*
Y14647D01*
X190844Y14640D01*
X190732Y14603D01*
X190627Y14548D01*
X190532Y14478D01*
X190449Y14394D01*
X190381Y14298D01*
X190330Y14192D01*
X190182Y13784D01*
X190078Y13363D01*
X190016Y12933D01*
X189995Y12500D01*
X190016Y12067D01*
X190078Y11637D01*
X190182Y11216D01*
X190325Y10806D01*
X190378Y10700D01*
X190447Y10604D01*
X190530Y10519D01*
X190625Y10449D01*
X190731Y10394D01*
X190843Y10357D01*
X190887Y10349D01*
Y1500D01*
G37*
G36*
X188720Y119500D02*X182745D01*
Y145269D01*
X182866Y145319D01*
X183269Y145565D01*
X183628Y145872D01*
X183935Y146231D01*
X184099Y146500D01*
X188720D01*
Y119500D01*
G37*
G36*
Y78541D02*X188652Y78653D01*
X188192Y79192D01*
X187653Y79652D01*
X187049Y80022D01*
X186395Y80293D01*
X185706Y80458D01*
X185000Y80514D01*
X184294Y80458D01*
X183605Y80293D01*
X182951Y80022D01*
X182745Y79896D01*
Y116500D01*
X188720D01*
Y78541D01*
G37*
G36*
Y58541D02*X188652Y58653D01*
X188192Y59192D01*
X187653Y59652D01*
X187049Y60022D01*
X186395Y60293D01*
X185706Y60458D01*
X185000Y60514D01*
X184294Y60458D01*
X183605Y60293D01*
X182951Y60022D01*
X182745Y59896D01*
Y62107D01*
X183056Y61936D01*
X183426Y61779D01*
X183809Y61656D01*
X184200Y61567D01*
X184599Y61513D01*
X185000Y61496D01*
X185401Y61513D01*
X185800Y61567D01*
X186191Y61656D01*
X186574Y61779D01*
X186944Y61936D01*
X187298Y62126D01*
X187363Y62171D01*
X187420Y62226D01*
X187468Y62290D01*
X187504Y62360D01*
X187530Y62435D01*
X187544Y62513D01*
X187545Y62592D01*
X187533Y62671D01*
X187510Y62746D01*
X187475Y62817D01*
X187429Y62882D01*
X187374Y62939D01*
X187311Y62987D01*
X187241Y63024D01*
X187166Y63049D01*
X187088Y63063D01*
X187008Y63064D01*
X186930Y63052D01*
X186854Y63029D01*
X186784Y62993D01*
X186510Y62843D01*
X186223Y62721D01*
X185926Y62625D01*
X185621Y62556D01*
X185312Y62514D01*
X185000Y62500D01*
X184688Y62514D01*
X184379Y62556D01*
X184074Y62625D01*
X183777Y62721D01*
X183490Y62843D01*
X183214Y62990D01*
X183145Y63026D01*
X183069Y63049D01*
X182991Y63060D01*
X182913Y63059D01*
X182835Y63046D01*
X182761Y63020D01*
X182745Y63012D01*
Y68984D01*
X182759Y68976D01*
X182834Y68951D01*
X182912Y68937D01*
X182992Y68936D01*
X183070Y68948D01*
X183146Y68971D01*
X183216Y69007D01*
X183490Y69157D01*
X183777Y69279D01*
X184074Y69375D01*
X184379Y69444D01*
X184688Y69486D01*
X185000Y69500D01*
X185312Y69486D01*
X185621Y69444D01*
X185926Y69375D01*
X186223Y69279D01*
X186510Y69157D01*
X186786Y69010D01*
X186855Y68974D01*
X186931Y68951D01*
X187009Y68940D01*
X187087Y68941D01*
X187165Y68954D01*
X187239Y68980D01*
X187309Y69016D01*
X187372Y69064D01*
X187427Y69120D01*
X187472Y69184D01*
X187507Y69255D01*
X187530Y69330D01*
X187541Y69408D01*
X187540Y69487D01*
X187527Y69564D01*
X187501Y69639D01*
X187465Y69708D01*
X187417Y69771D01*
X187361Y69826D01*
X187296Y69870D01*
X186944Y70064D01*
X186574Y70221D01*
X186191Y70344D01*
X185800Y70433D01*
X185401Y70487D01*
X185000Y70504D01*
X184599Y70487D01*
X184200Y70433D01*
X183809Y70344D01*
X183426Y70221D01*
X183056Y70064D01*
X182745Y69897D01*
Y72104D01*
X182951Y71978D01*
X183605Y71707D01*
X184294Y71542D01*
X185000Y71486D01*
X185706Y71542D01*
X186395Y71707D01*
X187049Y71978D01*
X187653Y72348D01*
X188192Y72808D01*
X188652Y73347D01*
X188720Y73459D01*
Y68460D01*
X188710Y68468D01*
X188640Y68504D01*
X188565Y68530D01*
X188487Y68544D01*
X188408Y68545D01*
X188329Y68533D01*
X188254Y68510D01*
X188183Y68475D01*
X188118Y68429D01*
X188061Y68374D01*
X188013Y68311D01*
X187976Y68241D01*
X187951Y68166D01*
X187937Y68088D01*
X187936Y68008D01*
X187948Y67930D01*
X187971Y67854D01*
X188007Y67784D01*
X188157Y67510D01*
X188279Y67223D01*
X188375Y66926D01*
X188444Y66621D01*
X188486Y66312D01*
X188500Y66000D01*
X188486Y65688D01*
X188444Y65379D01*
X188375Y65074D01*
X188279Y64777D01*
X188157Y64490D01*
X188010Y64214D01*
X187974Y64145D01*
X187951Y64069D01*
X187940Y63991D01*
X187941Y63913D01*
X187954Y63835D01*
X187980Y63761D01*
X188016Y63691D01*
X188064Y63628D01*
X188120Y63573D01*
X188184Y63528D01*
X188255Y63493D01*
X188330Y63470D01*
X188408Y63459D01*
X188487Y63460D01*
X188564Y63473D01*
X188639Y63499D01*
X188708Y63535D01*
X188720Y63544D01*
Y58541D01*
G37*
G36*
Y49189D02*X188476Y49476D01*
X187889Y49976D01*
X187231Y50379D01*
X186519Y50675D01*
X185769Y50855D01*
X185000Y50915D01*
X184231Y50855D01*
X183481Y50675D01*
X182769Y50379D01*
X182745Y50365D01*
Y52104D01*
X182951Y51978D01*
X183605Y51707D01*
X184294Y51542D01*
X185000Y51486D01*
X185706Y51542D01*
X186395Y51707D01*
X187049Y51978D01*
X187653Y52348D01*
X188192Y52808D01*
X188652Y53347D01*
X188720Y53459D01*
Y49189D01*
G37*
G36*
Y1500D02*X182745D01*
Y41635D01*
X182769Y41621D01*
X183481Y41325D01*
X184231Y41145D01*
X185000Y41085D01*
X185769Y41145D01*
X186519Y41325D01*
X187231Y41621D01*
X187889Y42024D01*
X188476Y42524D01*
X188720Y42811D01*
Y1500D01*
G37*
G36*
X195492Y188500D02*X202245D01*
Y154000D01*
X198099D01*
X197935Y154269D01*
X197628Y154628D01*
X197269Y154935D01*
X196866Y155181D01*
X196430Y155362D01*
X195971Y155472D01*
X195500Y155509D01*
X195492Y155509D01*
Y162484D01*
X195500Y162483D01*
X196363Y162551D01*
X197205Y162753D01*
X198005Y163084D01*
X198743Y163537D01*
X199401Y164099D01*
X199963Y164757D01*
X200416Y165495D01*
X200747Y166295D01*
X200949Y167137D01*
X201000Y168000D01*
X200949Y168863D01*
X200747Y169705D01*
X200416Y170505D01*
X199963Y171243D01*
X199401Y171901D01*
X198743Y172463D01*
X198005Y172916D01*
X197205Y173247D01*
X196363Y173449D01*
X195500Y173517D01*
X195492Y173516D01*
Y188500D01*
G37*
G36*
X182745D02*X195492D01*
Y173516D01*
X194637Y173449D01*
X193795Y173247D01*
X192995Y172916D01*
X192257Y172463D01*
X191599Y171901D01*
X191037Y171243D01*
X190584Y170505D01*
X190253Y169705D01*
X190051Y168863D01*
X189983Y168000D01*
X190051Y167137D01*
X190253Y166295D01*
X190584Y165495D01*
X191037Y164757D01*
X191599Y164099D01*
X192257Y163537D01*
X192995Y163084D01*
X193795Y162753D01*
X194637Y162551D01*
X195492Y162484D01*
Y155509D01*
X195029Y155472D01*
X194570Y155362D01*
X194134Y155181D01*
X193731Y154935D01*
X193372Y154628D01*
X193065Y154269D01*
X192819Y153866D01*
X192638Y153430D01*
X192528Y152971D01*
X192491Y152500D01*
X192528Y152029D01*
X192638Y151570D01*
X192819Y151134D01*
X193065Y150731D01*
X193372Y150372D01*
X193731Y150065D01*
X194134Y149819D01*
X194570Y149638D01*
X195029Y149528D01*
X195382Y149500D01*
X184099D01*
X183935Y149769D01*
X183628Y150128D01*
X183269Y150435D01*
X182866Y150681D01*
X182745Y150731D01*
Y188500D01*
G37*
G36*
X181280Y42811D02*X181524Y42524D01*
X182111Y42024D01*
X182745Y41635D01*
Y1500D01*
X181280D01*
Y42811D01*
G37*
G36*
Y53459D02*X181348Y53347D01*
X181808Y52808D01*
X182347Y52348D01*
X182745Y52104D01*
Y50365D01*
X182111Y49976D01*
X181524Y49476D01*
X181280Y49189D01*
Y53459D01*
G37*
G36*
Y73459D02*X181348Y73347D01*
X181808Y72808D01*
X182347Y72348D01*
X182745Y72104D01*
Y69897D01*
X182702Y69874D01*
X182637Y69829D01*
X182580Y69774D01*
X182532Y69710D01*
X182496Y69640D01*
X182470Y69565D01*
X182456Y69487D01*
X182455Y69408D01*
X182467Y69329D01*
X182490Y69254D01*
X182525Y69183D01*
X182571Y69118D01*
X182626Y69061D01*
X182689Y69013D01*
X182745Y68984D01*
Y63012D01*
X182691Y62984D01*
X182628Y62936D01*
X182573Y62880D01*
X182528Y62816D01*
X182493Y62745D01*
X182470Y62670D01*
X182459Y62592D01*
X182460Y62513D01*
X182473Y62436D01*
X182499Y62361D01*
X182535Y62292D01*
X182583Y62229D01*
X182639Y62174D01*
X182704Y62130D01*
X182745Y62107D01*
Y59896D01*
X182347Y59652D01*
X181808Y59192D01*
X181348Y58653D01*
X181280Y58541D01*
Y63540D01*
X181290Y63532D01*
X181360Y63496D01*
X181435Y63470D01*
X181513Y63456D01*
X181592Y63455D01*
X181671Y63467D01*
X181746Y63490D01*
X181817Y63525D01*
X181882Y63571D01*
X181939Y63626D01*
X181987Y63689D01*
X182024Y63759D01*
X182049Y63834D01*
X182063Y63912D01*
X182064Y63992D01*
X182052Y64070D01*
X182029Y64146D01*
X181993Y64216D01*
X181843Y64490D01*
X181721Y64777D01*
X181625Y65074D01*
X181556Y65379D01*
X181514Y65688D01*
X181500Y66000D01*
X181514Y66312D01*
X181556Y66621D01*
X181625Y66926D01*
X181721Y67223D01*
X181843Y67510D01*
X181990Y67786D01*
X182026Y67855D01*
X182049Y67931D01*
X182060Y68009D01*
X182059Y68087D01*
X182046Y68165D01*
X182020Y68239D01*
X181984Y68309D01*
X181936Y68372D01*
X181880Y68427D01*
X181816Y68472D01*
X181745Y68507D01*
X181670Y68530D01*
X181592Y68541D01*
X181513Y68540D01*
X181436Y68527D01*
X181361Y68501D01*
X181292Y68465D01*
X181280Y68456D01*
Y73459D01*
G37*
G36*
Y116500D02*X182745D01*
Y79896D01*
X182347Y79652D01*
X181808Y79192D01*
X181348Y78653D01*
X181280Y78541D01*
Y116500D01*
G37*
G36*
X170995Y118383D02*X172398Y116981D01*
X172436Y116936D01*
X172616Y116783D01*
X172817Y116659D01*
X173035Y116569D01*
X173265Y116514D01*
X173500Y116495D01*
X173559Y116500D01*
X181280D01*
Y78541D01*
X180978Y78049D01*
X180707Y77395D01*
X180542Y76706D01*
X180486Y76000D01*
X180542Y75294D01*
X180707Y74605D01*
X180978Y73951D01*
X181280Y73459D01*
Y68456D01*
X181229Y68417D01*
X181174Y68361D01*
X181130Y68296D01*
X180936Y67944D01*
X180779Y67574D01*
X180656Y67191D01*
X180567Y66800D01*
X180513Y66401D01*
X180496Y66000D01*
X180513Y65599D01*
X180567Y65200D01*
X180656Y64809D01*
X180779Y64426D01*
X180936Y64056D01*
X181126Y63702D01*
X181171Y63637D01*
X181226Y63580D01*
X181280Y63540D01*
Y58541D01*
X180978Y58049D01*
X180707Y57395D01*
X180542Y56706D01*
X180486Y56000D01*
X180542Y55294D01*
X180707Y54605D01*
X180978Y53951D01*
X181280Y53459D01*
Y49189D01*
X181024Y48889D01*
X180621Y48231D01*
X180325Y47519D01*
X180145Y46769D01*
X180085Y46000D01*
X180145Y45231D01*
X180325Y44481D01*
X180621Y43769D01*
X181024Y43111D01*
X181280Y42811D01*
Y1500D01*
X170995D01*
Y48923D01*
X171348Y48347D01*
X171808Y47808D01*
X172347Y47348D01*
X172951Y46978D01*
X173605Y46707D01*
X174294Y46542D01*
X175000Y46486D01*
X175706Y46542D01*
X176395Y46707D01*
X177049Y46978D01*
X177653Y47348D01*
X178192Y47808D01*
X178652Y48347D01*
X179022Y48951D01*
X179293Y49605D01*
X179458Y50294D01*
X179500Y51000D01*
X179458Y51706D01*
X179293Y52395D01*
X179022Y53049D01*
X178652Y53653D01*
X178192Y54192D01*
X177653Y54652D01*
X177049Y55022D01*
X176395Y55293D01*
X175706Y55458D01*
X175000Y55514D01*
X174294Y55458D01*
X173605Y55293D01*
X172951Y55022D01*
X172347Y54652D01*
X171808Y54192D01*
X171348Y53653D01*
X170995Y53077D01*
Y58923D01*
X171348Y58347D01*
X171808Y57808D01*
X172347Y57348D01*
X172951Y56978D01*
X173605Y56707D01*
X174294Y56542D01*
X175000Y56486D01*
X175706Y56542D01*
X176395Y56707D01*
X177049Y56978D01*
X177653Y57348D01*
X178192Y57808D01*
X178652Y58347D01*
X179022Y58951D01*
X179293Y59605D01*
X179458Y60294D01*
X179500Y61000D01*
X179458Y61706D01*
X179293Y62395D01*
X179022Y63049D01*
X178652Y63653D01*
X178192Y64192D01*
X177653Y64652D01*
X177049Y65022D01*
X176395Y65293D01*
X175706Y65458D01*
X175000Y65514D01*
X174294Y65458D01*
X173605Y65293D01*
X172951Y65022D01*
X172347Y64652D01*
X171808Y64192D01*
X171348Y63653D01*
X170995Y63077D01*
Y68923D01*
X171348Y68347D01*
X171808Y67808D01*
X172347Y67348D01*
X172951Y66978D01*
X173605Y66707D01*
X174294Y66542D01*
X175000Y66486D01*
X175706Y66542D01*
X176395Y66707D01*
X177049Y66978D01*
X177653Y67348D01*
X178192Y67808D01*
X178652Y68347D01*
X179022Y68951D01*
X179293Y69605D01*
X179458Y70294D01*
X179500Y71000D01*
X179458Y71706D01*
X179293Y72395D01*
X179022Y73049D01*
X178652Y73653D01*
X178192Y74192D01*
X177653Y74652D01*
X177049Y75022D01*
X176395Y75293D01*
X175706Y75458D01*
X175000Y75514D01*
X174294Y75458D01*
X173605Y75293D01*
X172951Y75022D01*
X172347Y74652D01*
X171808Y74192D01*
X171348Y73653D01*
X170995Y73077D01*
Y73813D01*
X173834Y76652D01*
X174294Y76542D01*
X175000Y76486D01*
X175706Y76542D01*
X176395Y76707D01*
X177049Y76978D01*
X177653Y77348D01*
X178192Y77808D01*
X178652Y78347D01*
X179022Y78951D01*
X179293Y79605D01*
X179458Y80294D01*
X179500Y81000D01*
X179458Y81706D01*
X179293Y82395D01*
X179022Y83049D01*
X178652Y83653D01*
X178192Y84192D01*
X177653Y84652D01*
X177049Y85022D01*
X176395Y85293D01*
X175706Y85458D01*
X175000Y85514D01*
X174294Y85458D01*
X173605Y85293D01*
X172951Y85022D01*
X172347Y84652D01*
X171808Y84192D01*
X171348Y83653D01*
X170995Y83077D01*
Y118383D01*
G37*
G36*
Y188500D02*X182745D01*
Y150731D01*
X182430Y150862D01*
X181971Y150972D01*
X181500Y151009D01*
X181029Y150972D01*
X180570Y150862D01*
X180134Y150681D01*
X179731Y150435D01*
X179372Y150128D01*
X179065Y149769D01*
X178819Y149366D01*
X178638Y148930D01*
X178528Y148471D01*
X178491Y148000D01*
X178528Y147529D01*
X178638Y147070D01*
X178819Y146634D01*
X179065Y146231D01*
X179372Y145872D01*
X179731Y145565D01*
X180134Y145319D01*
X180570Y145138D01*
X181029Y145028D01*
X181500Y144991D01*
X181971Y145028D01*
X182430Y145138D01*
X182745Y145269D01*
Y119500D01*
X174121D01*
X173608Y120014D01*
X173681Y120134D01*
X173862Y120570D01*
X173972Y121029D01*
X174000Y121500D01*
X173972Y121971D01*
X173862Y122430D01*
X173681Y122866D01*
X173435Y123269D01*
X173128Y123628D01*
X172769Y123935D01*
X172366Y124181D01*
X171930Y124362D01*
X171471Y124472D01*
X171000Y124509D01*
X170995Y124509D01*
Y188500D01*
G37*
G36*
X152495D02*X170995D01*
Y124509D01*
X170529Y124472D01*
X170070Y124362D01*
X169634Y124181D01*
X169231Y123935D01*
X168872Y123628D01*
X168565Y123269D01*
X168319Y122866D01*
X168138Y122430D01*
X168028Y121971D01*
X167991Y121500D01*
X168028Y121029D01*
X168138Y120570D01*
X168319Y120134D01*
X168565Y119731D01*
X168872Y119372D01*
X169231Y119065D01*
X169634Y118819D01*
X170070Y118638D01*
X170529Y118528D01*
X170878Y118500D01*
X170995Y118383D01*
Y83077D01*
X170978Y83049D01*
X170707Y82395D01*
X170542Y81706D01*
X170486Y81000D01*
X170542Y80294D01*
X170652Y79834D01*
X163971Y73153D01*
X163904Y73096D01*
X163674Y72827D01*
X163489Y72525D01*
X163354Y72197D01*
X163271Y71853D01*
X163271Y71853D01*
X163243Y71500D01*
X163250Y71412D01*
Y50500D01*
X163250Y50500D01*
Y50485D01*
X163065Y50269D01*
X162819Y49866D01*
X162638Y49430D01*
X162528Y48971D01*
X162491Y48500D01*
X162528Y48029D01*
X162638Y47570D01*
X162819Y47134D01*
X163065Y46731D01*
X163250Y46515D01*
Y45485D01*
X163065Y45269D01*
X162819Y44866D01*
X162638Y44430D01*
X162528Y43971D01*
X162491Y43500D01*
X162528Y43029D01*
X162638Y42570D01*
X162819Y42134D01*
X163065Y41731D01*
X163372Y41372D01*
X163731Y41065D01*
X164134Y40819D01*
X164570Y40638D01*
X165029Y40528D01*
X165500Y40491D01*
X165971Y40528D01*
X166430Y40638D01*
X166866Y40819D01*
X167269Y41065D01*
X167628Y41372D01*
X167935Y41731D01*
X168181Y42134D01*
X168362Y42570D01*
X168472Y43029D01*
X168500Y43500D01*
X168472Y43971D01*
X168362Y44430D01*
X168181Y44866D01*
X167935Y45269D01*
X167750Y45485D01*
Y46515D01*
X167935Y46731D01*
X168181Y47134D01*
X168362Y47570D01*
X168472Y48029D01*
X168500Y48500D01*
X168472Y48971D01*
X168362Y49430D01*
X168181Y49866D01*
X167935Y50269D01*
X167750Y50485D01*
Y50500D01*
X167750Y50500D01*
Y70568D01*
X170995Y73813D01*
Y73077D01*
X170978Y73049D01*
X170707Y72395D01*
X170542Y71706D01*
X170486Y71000D01*
X170542Y70294D01*
X170707Y69605D01*
X170978Y68951D01*
X170995Y68923D01*
Y63077D01*
X170978Y63049D01*
X170707Y62395D01*
X170542Y61706D01*
X170486Y61000D01*
X170542Y60294D01*
X170707Y59605D01*
X170978Y58951D01*
X170995Y58923D01*
Y53077D01*
X170978Y53049D01*
X170707Y52395D01*
X170542Y51706D01*
X170486Y51000D01*
X170542Y50294D01*
X170707Y49605D01*
X170978Y48951D01*
X170995Y48923D01*
Y1500D01*
X152495D01*
Y64041D01*
X152500Y64041D01*
X152963Y64077D01*
X153414Y64186D01*
X153843Y64363D01*
X154239Y64606D01*
X154592Y64908D01*
X154894Y65261D01*
X155137Y65657D01*
X155314Y66086D01*
X155423Y66537D01*
X155450Y67000D01*
X155423Y67463D01*
X155314Y67914D01*
X155137Y68343D01*
X154894Y68739D01*
X154592Y69092D01*
X154239Y69394D01*
X153843Y69637D01*
X153414Y69814D01*
X152963Y69923D01*
X152500Y69959D01*
X152495Y69959D01*
Y95000D01*
X157379D01*
X159101Y93277D01*
X159028Y92971D01*
X158991Y92500D01*
X159028Y92029D01*
X159138Y91570D01*
X159319Y91134D01*
X159565Y90731D01*
X159872Y90372D01*
X160231Y90065D01*
X160634Y89819D01*
X161070Y89638D01*
X161529Y89528D01*
X162000Y89491D01*
X162471Y89528D01*
X162930Y89638D01*
X163366Y89819D01*
X163769Y90065D01*
X164128Y90372D01*
X164435Y90731D01*
X164681Y91134D01*
X164750Y91300D01*
X164819Y91134D01*
X165065Y90731D01*
X165372Y90372D01*
X165731Y90065D01*
X166134Y89819D01*
X166570Y89638D01*
X167029Y89528D01*
X167500Y89491D01*
X167971Y89528D01*
X168430Y89638D01*
X168866Y89819D01*
X169269Y90065D01*
X169628Y90372D01*
X169935Y90731D01*
X170181Y91134D01*
X170362Y91570D01*
X170472Y92029D01*
X170500Y92500D01*
X170472Y92971D01*
X170362Y93430D01*
X170181Y93866D01*
X169935Y94269D01*
X169628Y94628D01*
X169269Y94935D01*
X169000Y95099D01*
Y98901D01*
X169269Y99065D01*
X169628Y99372D01*
X169935Y99731D01*
X170181Y100134D01*
X170362Y100570D01*
X170472Y101029D01*
X170500Y101500D01*
X170472Y101971D01*
X170362Y102430D01*
X170181Y102866D01*
X169935Y103269D01*
X169628Y103628D01*
X169269Y103935D01*
X168866Y104181D01*
X168430Y104362D01*
X167971Y104472D01*
X167500Y104509D01*
X167029Y104472D01*
X166570Y104362D01*
X166134Y104181D01*
X165731Y103935D01*
X165372Y103628D01*
X165065Y103269D01*
X164819Y102866D01*
X164638Y102430D01*
X164528Y101971D01*
X164491Y101500D01*
X164528Y101029D01*
X164638Y100570D01*
X164819Y100134D01*
X165065Y99731D01*
X165372Y99372D01*
X165731Y99065D01*
X166000Y98901D01*
Y95099D01*
X165731Y94935D01*
X165372Y94628D01*
X165065Y94269D01*
X164819Y93866D01*
X164750Y93700D01*
X164681Y93866D01*
X164435Y94269D01*
X164128Y94628D01*
X163769Y94935D01*
X163366Y95181D01*
X162930Y95362D01*
X162471Y95472D01*
X162000Y95509D01*
X161529Y95472D01*
X161223Y95399D01*
X159102Y97519D01*
X159064Y97564D01*
X158884Y97717D01*
X158683Y97841D01*
X158465Y97931D01*
X158235Y97986D01*
X158235Y97986D01*
X158000Y98005D01*
X157941Y98000D01*
X152495D01*
Y120000D01*
X155441D01*
X155500Y119995D01*
X155735Y120014D01*
X155735Y120014D01*
X155965Y120069D01*
X156183Y120159D01*
X156384Y120283D01*
X156564Y120436D01*
X156602Y120481D01*
X158519Y122398D01*
X158564Y122436D01*
X158717Y122615D01*
X158717Y122616D01*
X158841Y122817D01*
X158931Y123035D01*
X158986Y123265D01*
X159005Y123500D01*
X159000Y123559D01*
Y127401D01*
X159269Y127565D01*
X159628Y127872D01*
X159935Y128231D01*
X160181Y128634D01*
X160362Y129070D01*
X160472Y129529D01*
X160500Y130000D01*
X160472Y130471D01*
X160362Y130930D01*
X160181Y131366D01*
X159935Y131769D01*
X159628Y132128D01*
X159269Y132435D01*
X158866Y132681D01*
X158430Y132862D01*
X157971Y132972D01*
X157500Y133009D01*
X157029Y132972D01*
X156570Y132862D01*
X156134Y132681D01*
X155731Y132435D01*
X155372Y132128D01*
X155065Y131769D01*
X154819Y131366D01*
X154638Y130930D01*
X154528Y130471D01*
X154491Y130000D01*
X154528Y129529D01*
X154638Y129070D01*
X154819Y128634D01*
X155065Y128231D01*
X155372Y127872D01*
X155731Y127565D01*
X156000Y127401D01*
Y124121D01*
X154879Y123000D01*
X152495D01*
Y188500D01*
G37*
G36*
Y98000D02*X149121D01*
X148495Y98626D01*
Y115198D01*
X148571Y115514D01*
X148600Y116000D01*
X148571Y116486D01*
X148495Y116802D01*
Y120000D01*
X152495D01*
Y98000D01*
G37*
G36*
Y1500D02*X148495D01*
Y84041D01*
X148500Y84041D01*
X148963Y84077D01*
X149414Y84186D01*
X149843Y84363D01*
X150239Y84606D01*
X150592Y84908D01*
X150894Y85261D01*
X151137Y85657D01*
X151314Y86086D01*
X151423Y86537D01*
X151450Y87000D01*
X151423Y87463D01*
X151314Y87914D01*
X151137Y88343D01*
X150894Y88739D01*
X150592Y89092D01*
X150239Y89394D01*
X149843Y89637D01*
X149414Y89814D01*
X148963Y89923D01*
X148500Y89959D01*
X148495Y89959D01*
Y94996D01*
X148500Y94995D01*
X148559Y95000D01*
X152495D01*
Y69959D01*
X152037Y69923D01*
X151586Y69814D01*
X151157Y69637D01*
X150761Y69394D01*
X150408Y69092D01*
X150106Y68739D01*
X149863Y68343D01*
X149686Y67914D01*
X149577Y67463D01*
X149541Y67000D01*
X149577Y66537D01*
X149686Y66086D01*
X149863Y65657D01*
X150106Y65261D01*
X150408Y64908D01*
X150761Y64606D01*
X151157Y64363D01*
X151586Y64186D01*
X152037Y64077D01*
X152495Y64041D01*
Y1500D01*
G37*
G36*
X148495Y188500D02*X152495D01*
Y123000D01*
X148495D01*
Y162512D01*
X149735Y162514D01*
X149965Y162569D01*
X150183Y162659D01*
X150384Y162783D01*
X150564Y162936D01*
X150717Y163116D01*
X150841Y163317D01*
X150931Y163535D01*
X150986Y163765D01*
X151000Y164000D01*
X150986Y172235D01*
X150931Y172465D01*
X150841Y172683D01*
X150717Y172884D01*
X150564Y173064D01*
X150384Y173217D01*
X150183Y173341D01*
X149965Y173431D01*
X149735Y173486D01*
X149500Y173500D01*
X148495Y173498D01*
Y188500D01*
G37*
G36*
Y116802D02*X148457Y116961D01*
X148271Y117412D01*
X148016Y117828D01*
X147699Y118199D01*
X147328Y118516D01*
X146912Y118771D01*
X146461Y118957D01*
X145986Y119071D01*
X145500Y119110D01*
X145014Y119071D01*
X144539Y118957D01*
X144088Y118771D01*
X143672Y118516D01*
X143431Y118309D01*
X145121Y120000D01*
X148495D01*
Y116802D01*
G37*
G36*
Y98626D02*X147500Y99621D01*
Y113631D01*
X147699Y113801D01*
X148016Y114172D01*
X148271Y114588D01*
X148457Y115039D01*
X148495Y115198D01*
Y98626D01*
G37*
G36*
Y1500D02*X144495D01*
Y64041D01*
X144500Y64041D01*
X144963Y64077D01*
X145414Y64186D01*
X145843Y64363D01*
X146239Y64606D01*
X146592Y64908D01*
X146894Y65261D01*
X147137Y65657D01*
X147314Y66086D01*
X147423Y66537D01*
X147450Y67000D01*
X147423Y67463D01*
X147314Y67914D01*
X147137Y68343D01*
X146894Y68739D01*
X146592Y69092D01*
X146239Y69394D01*
X145843Y69637D01*
X145414Y69814D01*
X144963Y69923D01*
X144500Y69959D01*
X144495Y69959D01*
Y77374D01*
X145019Y77898D01*
X145064Y77936D01*
X145217Y78115D01*
X145217Y78116D01*
X145341Y78317D01*
X145431Y78535D01*
X145486Y78765D01*
X145505Y79000D01*
X145500Y79059D01*
Y86941D01*
X145505Y87000D01*
X145486Y87235D01*
X145431Y87465D01*
X145341Y87683D01*
X145217Y87884D01*
X145064Y88064D01*
X145019Y88102D01*
X144495Y88626D01*
Y92665D01*
X144866Y92819D01*
X145269Y93065D01*
X145628Y93372D01*
X145935Y93731D01*
X146181Y94134D01*
X146362Y94570D01*
X146472Y95029D01*
X146500Y95500D01*
X146472Y95971D01*
X146362Y96430D01*
X146301Y96578D01*
X147398Y95481D01*
X147436Y95436D01*
X147616Y95283D01*
X147817Y95159D01*
X148035Y95069D01*
X148265Y95014D01*
X148495Y94996D01*
Y89959D01*
X148037Y89923D01*
X147586Y89814D01*
X147157Y89637D01*
X146761Y89394D01*
X146408Y89092D01*
X146106Y88739D01*
X145863Y88343D01*
X145686Y87914D01*
X145577Y87463D01*
X145541Y87000D01*
X145577Y86537D01*
X145686Y86086D01*
X145863Y85657D01*
X146106Y85261D01*
X146408Y84908D01*
X146761Y84606D01*
X147157Y84363D01*
X147586Y84186D01*
X148037Y84077D01*
X148495Y84041D01*
Y1500D01*
G37*
G36*
X144495Y88626D02*X141000Y92121D01*
Y93838D01*
X141065Y93731D01*
X141372Y93372D01*
X141731Y93065D01*
X142134Y92819D01*
X142570Y92638D01*
X143029Y92528D01*
X143500Y92491D01*
X143971Y92528D01*
X144430Y92638D01*
X144495Y92665D01*
Y88626D01*
G37*
G36*
X142993Y76080D02*X143183Y76159D01*
X143384Y76283D01*
X143564Y76436D01*
X143602Y76481D01*
X144495Y77374D01*
Y69959D01*
X144037Y69923D01*
X143586Y69814D01*
X143157Y69637D01*
X142993Y69536D01*
Y76080D01*
G37*
G36*
X144495Y1500D02*X142993D01*
Y19145D01*
X143078Y19181D01*
X143179Y19243D01*
X143269Y19319D01*
X143345Y19409D01*
X143405Y19511D01*
X143622Y19980D01*
X143789Y20469D01*
X143909Y20972D01*
X143982Y21484D01*
X144006Y22000D01*
X143982Y22516D01*
X143909Y23028D01*
X143789Y23531D01*
X143622Y24020D01*
X143410Y24492D01*
X143349Y24593D01*
X143272Y24684D01*
X143182Y24761D01*
X143080Y24823D01*
X142993Y24860D01*
Y64464D01*
X143157Y64363D01*
X143586Y64186D01*
X144037Y64077D01*
X144495Y64041D01*
Y1500D01*
G37*
G36*
X142993D02*X139745D01*
Y16643D01*
X140031Y16711D01*
X140520Y16878D01*
X140992Y17090D01*
X141093Y17151D01*
X141184Y17228D01*
X141261Y17318D01*
X141323Y17420D01*
X141369Y17529D01*
X141397Y17645D01*
X141406Y17763D01*
X141397Y17881D01*
X141370Y17997D01*
X141324Y18107D01*
X141262Y18208D01*
X141186Y18298D01*
X141095Y18376D01*
X140994Y18438D01*
X140885Y18484D01*
X140769Y18511D01*
X140651Y18521D01*
X140532Y18512D01*
X140417Y18484D01*
X140308Y18437D01*
X139968Y18279D01*
X139745Y18203D01*
Y25797D01*
X139968Y25721D01*
X140310Y25567D01*
X140418Y25520D01*
X140533Y25493D01*
X140651Y25483D01*
X140768Y25493D01*
X140883Y25521D01*
X140992Y25566D01*
X141093Y25628D01*
X141182Y25705D01*
X141259Y25795D01*
X141320Y25895D01*
X141365Y26004D01*
X141393Y26119D01*
X141402Y26237D01*
X141392Y26355D01*
X141365Y26469D01*
X141319Y26578D01*
X141257Y26679D01*
X141181Y26769D01*
X141091Y26845D01*
X140989Y26905D01*
X140520Y27122D01*
X140031Y27289D01*
X139745Y27357D01*
Y74510D01*
X139971Y74528D01*
X140430Y74638D01*
X140866Y74819D01*
X141269Y75065D01*
X141628Y75372D01*
X141935Y75731D01*
X142099Y76000D01*
X142441D01*
X142500Y75995D01*
X142735Y76014D01*
X142735Y76014D01*
X142965Y76069D01*
X142993Y76080D01*
Y69536D01*
X142761Y69394D01*
X142408Y69092D01*
X142106Y68739D01*
X141863Y68343D01*
X141686Y67914D01*
X141577Y67463D01*
X141541Y67000D01*
X141577Y66537D01*
X141686Y66086D01*
X141863Y65657D01*
X142106Y65261D01*
X142408Y64908D01*
X142761Y64606D01*
X142993Y64464D01*
Y24860D01*
X142971Y24869D01*
X142855Y24897D01*
X142737Y24906D01*
X142619Y24897D01*
X142503Y24870D01*
X142393Y24824D01*
X142292Y24762D01*
X142202Y24686D01*
X142124Y24595D01*
X142062Y24494D01*
X142016Y24385D01*
X141989Y24269D01*
X141979Y24151D01*
X141988Y24032D01*
X142016Y23917D01*
X142063Y23808D01*
X142221Y23468D01*
X142342Y23112D01*
X142430Y22747D01*
X142482Y22375D01*
X142500Y22000D01*
X142482Y21625D01*
X142430Y21253D01*
X142342Y20888D01*
X142221Y20532D01*
X142067Y20190D01*
X142020Y20082D01*
X141993Y19967D01*
X141983Y19849D01*
X141993Y19732D01*
X142021Y19617D01*
X142066Y19508D01*
X142128Y19407D01*
X142205Y19318D01*
X142295Y19241D01*
X142395Y19180D01*
X142504Y19135D01*
X142619Y19107D01*
X142737Y19098D01*
X142855Y19108D01*
X142969Y19135D01*
X142993Y19145D01*
Y1500D01*
G37*
G36*
X139745Y188500D02*X148495D01*
Y173498D01*
X141265Y173486D01*
X141035Y173431D01*
X140817Y173341D01*
X140616Y173217D01*
X140436Y173064D01*
X140283Y172884D01*
X140159Y172683D01*
X140069Y172465D01*
X140014Y172235D01*
X140000Y172000D01*
X140014Y163765D01*
X140069Y163535D01*
X140159Y163317D01*
X140283Y163116D01*
X140436Y162936D01*
X140616Y162783D01*
X140817Y162659D01*
X141035Y162569D01*
X141265Y162514D01*
X141500Y162500D01*
X148495Y162512D01*
Y123000D01*
X144559D01*
X144500Y123005D01*
X144265Y122986D01*
X144035Y122931D01*
X143817Y122841D01*
X143616Y122717D01*
X143615Y122717D01*
X143436Y122564D01*
X143398Y122519D01*
X139745Y118867D01*
Y144624D01*
X140723Y145601D01*
X141029Y145528D01*
X141500Y145491D01*
X141971Y145528D01*
X142430Y145638D01*
X142866Y145819D01*
X143269Y146065D01*
X143628Y146372D01*
X143935Y146731D01*
X144181Y147134D01*
X144362Y147570D01*
X144472Y148029D01*
X144500Y148500D01*
X144472Y148971D01*
X144362Y149430D01*
X144181Y149866D01*
X143935Y150269D01*
X143628Y150628D01*
X143269Y150935D01*
X142866Y151181D01*
X142430Y151362D01*
X141971Y151472D01*
X141500Y151509D01*
X141029Y151472D01*
X140570Y151362D01*
X140134Y151181D01*
X139745Y150943D01*
Y188500D01*
G37*
G36*
X134007Y102871D02*X135500Y101379D01*
Y86059D01*
X135495Y86000D01*
X135514Y85765D01*
X135569Y85535D01*
X135659Y85317D01*
X135783Y85116D01*
X135783Y85115D01*
X135936Y84936D01*
X135981Y84898D01*
X136601Y84277D01*
X136528Y83971D01*
X136491Y83500D01*
X136528Y83029D01*
X136638Y82570D01*
X136819Y82134D01*
X137065Y81731D01*
X137372Y81372D01*
X137731Y81065D01*
X138134Y80819D01*
X138570Y80638D01*
X139029Y80528D01*
X139382Y80500D01*
X139029Y80472D01*
X138570Y80362D01*
X138134Y80181D01*
X137731Y79935D01*
X137372Y79628D01*
X137065Y79269D01*
X136819Y78866D01*
X136638Y78430D01*
X136528Y77971D01*
X136491Y77500D01*
X136528Y77029D01*
X136638Y76570D01*
X136819Y76134D01*
X137065Y75731D01*
X137372Y75372D01*
X137731Y75065D01*
X138134Y74819D01*
X138570Y74638D01*
X139029Y74528D01*
X139500Y74491D01*
X139745Y74510D01*
Y27357D01*
X139528Y27409D01*
X139016Y27482D01*
X138500Y27506D01*
X137984Y27482D01*
X137472Y27409D01*
X136969Y27289D01*
X136480Y27122D01*
X136008Y26910D01*
X135907Y26849D01*
X135816Y26772D01*
X135739Y26682D01*
X135677Y26580D01*
X135631Y26471D01*
X135603Y26355D01*
X135594Y26237D01*
X135603Y26119D01*
X135630Y26003D01*
X135676Y25893D01*
X135738Y25792D01*
X135814Y25702D01*
X135905Y25624D01*
X136006Y25562D01*
X136115Y25516D01*
X136231Y25489D01*
X136349Y25479D01*
X136468Y25488D01*
X136583Y25516D01*
X136692Y25563D01*
X137032Y25721D01*
X137388Y25842D01*
X137753Y25930D01*
X138125Y25982D01*
X138500Y26000D01*
X138875Y25982D01*
X139247Y25930D01*
X139612Y25842D01*
X139745Y25797D01*
Y18203D01*
X139612Y18158D01*
X139247Y18070D01*
X138875Y18018D01*
X138500Y18000D01*
X138125Y18018D01*
X137753Y18070D01*
X137388Y18158D01*
X137032Y18279D01*
X136690Y18433D01*
X136582Y18480D01*
X136467Y18507D01*
X136349Y18517D01*
X136232Y18507D01*
X136117Y18479D01*
X136008Y18434D01*
X135907Y18372D01*
X135818Y18295D01*
X135741Y18205D01*
X135680Y18105D01*
X135635Y17996D01*
X135607Y17881D01*
X135598Y17763D01*
X135608Y17645D01*
X135635Y17531D01*
X135681Y17422D01*
X135743Y17321D01*
X135819Y17231D01*
X135909Y17155D01*
X136011Y17095D01*
X136480Y16878D01*
X136969Y16711D01*
X137472Y16591D01*
X137984Y16518D01*
X138500Y16494D01*
X139016Y16518D01*
X139528Y16591D01*
X139745Y16643D01*
Y1500D01*
X134007D01*
Y19140D01*
X134029Y19131D01*
X134145Y19103D01*
X134263Y19094D01*
X134381Y19103D01*
X134497Y19130D01*
X134607Y19176D01*
X134708Y19238D01*
X134798Y19314D01*
X134876Y19405D01*
X134938Y19506D01*
X134984Y19615D01*
X135011Y19731D01*
X135021Y19849D01*
X135012Y19968D01*
X134984Y20083D01*
X134937Y20192D01*
X134779Y20532D01*
X134658Y20888D01*
X134570Y21253D01*
X134518Y21625D01*
X134500Y22000D01*
X134518Y22375D01*
X134570Y22747D01*
X134658Y23112D01*
X134779Y23468D01*
X134933Y23810D01*
X134980Y23918D01*
X135007Y24033D01*
X135017Y24151D01*
X135007Y24268D01*
X134979Y24383D01*
X134934Y24492D01*
X134872Y24593D01*
X134795Y24682D01*
X134705Y24759D01*
X134605Y24820D01*
X134496Y24865D01*
X134381Y24893D01*
X134263Y24902D01*
X134145Y24892D01*
X134031Y24865D01*
X134007Y24855D01*
Y102871D01*
G37*
G36*
X118500Y101879D02*X120223Y103601D01*
X120529Y103528D01*
X121000Y103491D01*
X121471Y103528D01*
X121930Y103638D01*
X122366Y103819D01*
X122769Y104065D01*
X123128Y104372D01*
X123435Y104731D01*
X123681Y105134D01*
X123862Y105570D01*
X123972Y106029D01*
X124000Y106500D01*
X123972Y106971D01*
X123899Y107277D01*
X127064Y110442D01*
X127014Y110235D01*
X127014Y110235D01*
X126995Y110000D01*
X127000Y109941D01*
Y109599D01*
X126731Y109435D01*
X126372Y109128D01*
X126065Y108769D01*
X125819Y108366D01*
X125638Y107930D01*
X125528Y107471D01*
X125491Y107000D01*
X125528Y106529D01*
X125638Y106070D01*
X125819Y105634D01*
X126065Y105231D01*
X126372Y104872D01*
X126731Y104565D01*
X127134Y104319D01*
X127570Y104138D01*
X128029Y104028D01*
X128500Y103991D01*
X128971Y104028D01*
X129430Y104138D01*
X129866Y104319D01*
X130269Y104565D01*
X130628Y104872D01*
X130935Y105231D01*
X131181Y105634D01*
X131250Y105800D01*
X131319Y105634D01*
X131565Y105231D01*
X131872Y104872D01*
X132231Y104565D01*
X132634Y104319D01*
X132667Y104305D01*
X132783Y104116D01*
X132783Y104115D01*
X132936Y103936D01*
X132981Y103898D01*
X134007Y102871D01*
Y24855D01*
X133922Y24819D01*
X133821Y24757D01*
X133731Y24681D01*
X133655Y24591D01*
X133595Y24489D01*
X133378Y24020D01*
X133211Y23531D01*
X133091Y23028D01*
X133018Y22516D01*
X132994Y22000D01*
X133018Y21484D01*
X133091Y20972D01*
X133211Y20469D01*
X133378Y19980D01*
X133590Y19508D01*
X133651Y19407D01*
X133728Y19316D01*
X133818Y19239D01*
X133920Y19177D01*
X134007Y19140D01*
Y1500D01*
X118500D01*
Y16507D01*
X122735Y16514D01*
X122965Y16569D01*
X123183Y16659D01*
X123384Y16783D01*
X123564Y16936D01*
X123717Y17116D01*
X123841Y17317D01*
X123931Y17535D01*
X123986Y17765D01*
X124000Y18000D01*
X123986Y26235D01*
X123931Y26465D01*
X123841Y26683D01*
X123717Y26884D01*
X123564Y27064D01*
X123384Y27217D01*
X123183Y27341D01*
X122965Y27431D01*
X122735Y27486D01*
X122500Y27500D01*
X118500Y27493D01*
Y101879D01*
G37*
G36*
X128750Y143500D02*X137941D01*
X138000Y143495D01*
X138235Y143514D01*
X138235Y143514D01*
X138465Y143569D01*
X138683Y143659D01*
X138884Y143783D01*
X139064Y143936D01*
X139102Y143981D01*
X139745Y144624D01*
Y118867D01*
X137879Y117000D01*
X130059D01*
X130000Y117005D01*
X129765Y116986D01*
X129535Y116931D01*
X129317Y116841D01*
X129116Y116717D01*
X129115Y116717D01*
X128936Y116564D01*
X128898Y116519D01*
X128750Y116371D01*
Y143500D01*
G37*
G36*
Y188500D02*X139745D01*
Y150943D01*
X139731Y150935D01*
X139372Y150628D01*
X139065Y150269D01*
X138819Y149866D01*
X138638Y149430D01*
X138528Y148971D01*
X138491Y148500D01*
X138528Y148029D01*
X138601Y147723D01*
X137379Y146500D01*
X128750D01*
Y160366D01*
X128969Y160723D01*
X129270Y161450D01*
X129454Y162215D01*
X129500Y163000D01*
X129454Y163785D01*
X129270Y164550D01*
X128969Y165277D01*
X128750Y165634D01*
Y170366D01*
X128969Y170723D01*
X129270Y171450D01*
X129454Y172215D01*
X129500Y173000D01*
X129454Y173785D01*
X129270Y174550D01*
X128969Y175277D01*
X128750Y175634D01*
Y180248D01*
X128868Y180257D01*
X128982Y180285D01*
X129092Y180330D01*
X129192Y180391D01*
X129282Y180468D01*
X129359Y180558D01*
X129420Y180658D01*
X129465Y180768D01*
X129493Y180882D01*
X129500Y181000D01*
Y185000D01*
X129493Y185118D01*
X129465Y185232D01*
X129420Y185342D01*
X129359Y185442D01*
X129282Y185532D01*
X129192Y185609D01*
X129092Y185670D01*
X128982Y185715D01*
X128868Y185743D01*
X128750Y185752D01*
Y188500D01*
G37*
G36*
Y165634D02*X128558Y165948D01*
X128046Y166546D01*
X127448Y167058D01*
X126777Y167469D01*
X126050Y167770D01*
X125285Y167954D01*
X124696Y168000D01*
X125285Y168046D01*
X126050Y168230D01*
X126777Y168531D01*
X127448Y168942D01*
X128046Y169454D01*
X128558Y170052D01*
X128750Y170366D01*
Y165634D01*
G37*
G36*
X124500Y142035D02*X124930Y142138D01*
X125366Y142319D01*
X125769Y142565D01*
X126128Y142872D01*
X126435Y143231D01*
X126599Y143500D01*
X128750D01*
Y116371D01*
X124500Y112121D01*
Y142035D01*
G37*
G36*
Y157985D02*X125285Y158046D01*
X126050Y158230D01*
X126777Y158531D01*
X127448Y158942D01*
X128046Y159454D01*
X128558Y160052D01*
X128750Y160366D01*
Y146500D01*
X126599D01*
X126435Y146769D01*
X126128Y147128D01*
X125769Y147435D01*
X125366Y147681D01*
X124930Y147862D01*
X124500Y147965D01*
Y157985D01*
G37*
G36*
Y188500D02*X128750D01*
Y185752D01*
X128632Y185743D01*
X128518Y185715D01*
X128408Y185670D01*
X128308Y185609D01*
X128218Y185532D01*
X128141Y185442D01*
X128080Y185342D01*
X128035Y185232D01*
X128007Y185118D01*
X128000Y185000D01*
Y181000D01*
X128007Y180882D01*
X128035Y180768D01*
X128080Y180658D01*
X128141Y180558D01*
X128218Y180468D01*
X128308Y180391D01*
X128408Y180330D01*
X128518Y180285D01*
X128632Y180257D01*
X128750Y180248D01*
Y175634D01*
X128558Y175948D01*
X128046Y176546D01*
X127448Y177058D01*
X126777Y177469D01*
X126050Y177770D01*
X125285Y177954D01*
X124696Y178000D01*
X126500D01*
X126618Y178007D01*
X126732Y178035D01*
X126842Y178080D01*
X126942Y178141D01*
X127032Y178218D01*
X127109Y178308D01*
X127170Y178408D01*
X127215Y178518D01*
X127243Y178632D01*
X127252Y178750D01*
X127243Y178868D01*
X127215Y178982D01*
X127170Y179092D01*
X127109Y179192D01*
X127032Y179282D01*
X126942Y179359D01*
X126842Y179420D01*
X126732Y179465D01*
X126618Y179493D01*
X126500Y179500D01*
X124500D01*
Y186500D01*
X126500D01*
X126618Y186507D01*
X126732Y186535D01*
X126842Y186580D01*
X126942Y186641D01*
X127032Y186718D01*
X127109Y186808D01*
X127170Y186908D01*
X127215Y187018D01*
X127243Y187132D01*
X127252Y187250D01*
X127243Y187368D01*
X127215Y187482D01*
X127170Y187592D01*
X127109Y187692D01*
X127032Y187782D01*
X126942Y187859D01*
X126842Y187920D01*
X126732Y187965D01*
X126618Y187993D01*
X126500Y188000D01*
X124500D01*
Y188500D01*
G37*
G36*
X120250Y160366D02*X120442Y160052D01*
X120954Y159454D01*
X121552Y158942D01*
X122223Y158531D01*
X122950Y158230D01*
X123715Y158046D01*
X124500Y157985D01*
X124500D01*
Y147965D01*
X124471Y147972D01*
X124000Y148009D01*
X123529Y147972D01*
X123070Y147862D01*
X122634Y147681D01*
X122231Y147435D01*
X121872Y147128D01*
X121565Y146769D01*
X121319Y146366D01*
X121138Y145930D01*
X121028Y145471D01*
X120991Y145000D01*
X121028Y144529D01*
X121138Y144070D01*
X121319Y143634D01*
X121565Y143231D01*
X121872Y142872D01*
X122231Y142565D01*
X122634Y142319D01*
X123070Y142138D01*
X123529Y142028D01*
X124000Y141991D01*
X124471Y142028D01*
X124500Y142035D01*
Y112121D01*
X121777Y109399D01*
X121471Y109472D01*
X121000Y109509D01*
X120529Y109472D01*
X120250Y109405D01*
Y160366D01*
G37*
G36*
Y170366D02*X120442Y170052D01*
X120954Y169454D01*
X121552Y168942D01*
X122223Y168531D01*
X122950Y168230D01*
X123715Y168046D01*
X124304Y168000D01*
X123715Y167954D01*
X122950Y167770D01*
X122223Y167469D01*
X121552Y167058D01*
X120954Y166546D01*
X120442Y165948D01*
X120250Y165634D01*
Y170366D01*
G37*
G36*
Y188500D02*X124500D01*
Y188000D01*
X122500D01*
X122382Y187993D01*
X122268Y187965D01*
X122158Y187920D01*
X122058Y187859D01*
X121968Y187782D01*
X121891Y187692D01*
X121830Y187592D01*
X121785Y187482D01*
X121757Y187368D01*
X121748Y187250D01*
X121757Y187132D01*
X121785Y187018D01*
X121830Y186908D01*
X121891Y186808D01*
X121968Y186718D01*
X122058Y186641D01*
X122158Y186580D01*
X122268Y186535D01*
X122382Y186507D01*
X122500Y186500D01*
X124500D01*
Y179500D01*
X122500D01*
X122382Y179493D01*
X122268Y179465D01*
X122158Y179420D01*
X122058Y179359D01*
X121968Y179282D01*
X121891Y179192D01*
X121830Y179092D01*
X121785Y178982D01*
X121757Y178868D01*
X121748Y178750D01*
X121757Y178632D01*
X121785Y178518D01*
X121830Y178408D01*
X121891Y178308D01*
X121968Y178218D01*
X122058Y178141D01*
X122158Y178080D01*
X122268Y178035D01*
X122382Y178007D01*
X122500Y178000D01*
X124304D01*
X123715Y177954D01*
X122950Y177770D01*
X122223Y177469D01*
X121552Y177058D01*
X120954Y176546D01*
X120442Y175948D01*
X120250Y175634D01*
Y180248D01*
X120368Y180257D01*
X120482Y180285D01*
X120592Y180330D01*
X120692Y180391D01*
X120782Y180468D01*
X120859Y180558D01*
X120920Y180658D01*
X120965Y180768D01*
X120993Y180882D01*
X121000Y181000D01*
Y185000D01*
X120993Y185118D01*
X120965Y185232D01*
X120920Y185342D01*
X120859Y185442D01*
X120782Y185532D01*
X120692Y185609D01*
X120592Y185670D01*
X120482Y185715D01*
X120368Y185743D01*
X120250Y185752D01*
Y188500D01*
G37*
G36*
X118500D02*X120250D01*
Y185752D01*
X120132Y185743D01*
X120018Y185715D01*
X119908Y185670D01*
X119808Y185609D01*
X119718Y185532D01*
X119641Y185442D01*
X119580Y185342D01*
X119535Y185232D01*
X119507Y185118D01*
X119500Y185000D01*
Y181000D01*
X119507Y180882D01*
X119535Y180768D01*
X119580Y180658D01*
X119641Y180558D01*
X119718Y180468D01*
X119808Y180391D01*
X119908Y180330D01*
X120018Y180285D01*
X120132Y180257D01*
X120250Y180248D01*
Y175634D01*
X120031Y175277D01*
X119730Y174550D01*
X119546Y173785D01*
X119485Y173000D01*
X119546Y172215D01*
X119730Y171450D01*
X120031Y170723D01*
X120250Y170366D01*
Y165634D01*
X120031Y165277D01*
X119730Y164550D01*
X119546Y163785D01*
X119485Y163000D01*
X119546Y162215D01*
X119730Y161450D01*
X120031Y160723D01*
X120250Y160366D01*
Y109405D01*
X120070Y109362D01*
X119634Y109181D01*
X119231Y108935D01*
X118872Y108628D01*
X118565Y108269D01*
X118500Y108162D01*
Y188500D01*
G37*
G36*
X87493D02*X118500D01*
Y108162D01*
X118319Y107866D01*
X118138Y107430D01*
X118028Y106971D01*
X117991Y106500D01*
X118028Y106029D01*
X118101Y105723D01*
X112777Y100399D01*
X112471Y100472D01*
X112000Y100509D01*
X111529Y100472D01*
X111070Y100362D01*
X110634Y100181D01*
X110231Y99935D01*
X109872Y99628D01*
X109565Y99269D01*
X109319Y98866D01*
X109138Y98430D01*
X109028Y97971D01*
X108991Y97500D01*
X109028Y97029D01*
X109138Y96570D01*
X109319Y96134D01*
X109565Y95731D01*
X109872Y95372D01*
X110231Y95065D01*
X110634Y94819D01*
X111070Y94638D01*
X111529Y94528D01*
X112000Y94491D01*
X112471Y94528D01*
X112930Y94638D01*
X113366Y94819D01*
X113769Y95065D01*
X114128Y95372D01*
X114435Y95731D01*
X114681Y96134D01*
X114862Y96570D01*
X114972Y97029D01*
X115000Y97500D01*
X114972Y97971D01*
X114899Y98277D01*
X118500Y101879D01*
Y27493D01*
X114265Y27486D01*
X114035Y27431D01*
X113817Y27341D01*
X113616Y27217D01*
X113436Y27064D01*
X113283Y26884D01*
X113159Y26683D01*
X113069Y26465D01*
X113014Y26235D01*
X113000Y26000D01*
X113014Y17765D01*
X113069Y17535D01*
X113159Y17317D01*
X113283Y17116D01*
X113436Y16936D01*
X113616Y16783D01*
X113817Y16659D01*
X114035Y16569D01*
X114265Y16514D01*
X114500Y16500D01*
X118500Y16507D01*
Y1500D01*
X87493D01*
Y28250D01*
X103015D01*
X103231Y28065D01*
X103634Y27819D01*
X104070Y27638D01*
X104529Y27528D01*
X105000Y27491D01*
X105471Y27528D01*
X105930Y27638D01*
X106366Y27819D01*
X106769Y28065D01*
X106985Y28250D01*
X109515D01*
X109731Y28065D01*
X110134Y27819D01*
X110570Y27638D01*
X111029Y27528D01*
X111500Y27491D01*
X111971Y27528D01*
X112430Y27638D01*
X112866Y27819D01*
X113269Y28065D01*
X113628Y28372D01*
X113935Y28731D01*
X114181Y29134D01*
X114362Y29570D01*
X114472Y30029D01*
X114500Y30500D01*
X114472Y30971D01*
X114362Y31430D01*
X114181Y31866D01*
X113935Y32269D01*
X113628Y32628D01*
X113269Y32935D01*
X112866Y33181D01*
X112430Y33362D01*
X111971Y33472D01*
X111500Y33509D01*
X111029Y33472D01*
X110570Y33362D01*
X110134Y33181D01*
X109731Y32935D01*
X109515Y32750D01*
X106985D01*
X106769Y32935D01*
X106366Y33181D01*
X105930Y33362D01*
X105471Y33472D01*
X105000Y33509D01*
X104529Y33472D01*
X104070Y33362D01*
X103634Y33181D01*
X103231Y32935D01*
X103015Y32750D01*
X87493D01*
Y66250D01*
X88538Y67296D01*
X88628Y67372D01*
X88934Y67731D01*
X88935Y67731D01*
X89181Y68134D01*
X89362Y68570D01*
X89472Y69029D01*
X89509Y69500D01*
X89500Y69618D01*
Y85000D01*
X89472Y85471D01*
X89362Y85930D01*
X89181Y86366D01*
X88935Y86769D01*
X88628Y87128D01*
X88269Y87435D01*
X87866Y87681D01*
X87493Y87836D01*
Y188500D01*
G37*
G36*
X65002Y39316D02*X75347Y28971D01*
X75404Y28904D01*
X75673Y28674D01*
X75673Y28674D01*
X75861Y28559D01*
X75975Y28489D01*
X76303Y28354D01*
X76647Y28271D01*
X76647D01*
X77000Y28243D01*
X77088Y28250D01*
X87493D01*
Y1500D01*
X65002D01*
Y39316D01*
G37*
G36*
X74993Y61487D02*X75000Y61486D01*
X75706Y61542D01*
X76395Y61707D01*
X77049Y61978D01*
X77653Y62348D01*
X78192Y62808D01*
X78356Y63000D01*
X82882D01*
X83000Y62991D01*
X83471Y63028D01*
X83471Y63028D01*
X83930Y63138D01*
X84366Y63319D01*
X84769Y63565D01*
X85128Y63872D01*
X85204Y63962D01*
X87493Y66250D01*
Y32750D01*
X77932D01*
X74993Y35689D01*
Y41487D01*
X75000Y41486D01*
X75706Y41542D01*
X76395Y41707D01*
X77049Y41978D01*
X77653Y42348D01*
X78192Y42808D01*
X78652Y43347D01*
X79022Y43951D01*
X79293Y44605D01*
X79458Y45294D01*
X79500Y46000D01*
X79458Y46706D01*
X79293Y47395D01*
X79022Y48049D01*
X78652Y48653D01*
X78192Y49192D01*
X77653Y49652D01*
X77049Y50022D01*
X76395Y50293D01*
X75706Y50458D01*
X75000Y50514D01*
X74993Y50513D01*
Y51487D01*
X75000Y51486D01*
X75706Y51542D01*
X76395Y51707D01*
X77049Y51978D01*
X77653Y52348D01*
X78192Y52808D01*
X78652Y53347D01*
X79022Y53951D01*
X79293Y54605D01*
X79458Y55294D01*
X79500Y56000D01*
X79458Y56706D01*
X79293Y57395D01*
X79022Y58049D01*
X78652Y58653D01*
X78192Y59192D01*
X77653Y59652D01*
X77049Y60022D01*
X76395Y60293D01*
X75706Y60458D01*
X75000Y60514D01*
X74993Y60513D01*
Y61487D01*
G37*
G36*
Y188500D02*X87493D01*
Y87836D01*
X87430Y87862D01*
X86971Y87972D01*
X86500Y88009D01*
X86029Y87972D01*
X85570Y87862D01*
X85134Y87681D01*
X84731Y87435D01*
X84372Y87128D01*
X84065Y86769D01*
X83819Y86366D01*
X83638Y85930D01*
X83528Y85471D01*
X83528Y85471D01*
X83491Y85000D01*
X83500Y84882D01*
Y80118D01*
X83491Y80000D01*
X83500Y79882D01*
Y75118D01*
X83491Y75000D01*
X83500Y74882D01*
Y70743D01*
X81757Y69000D01*
X78356D01*
X78192Y69192D01*
X77653Y69652D01*
X77049Y70022D01*
X76395Y70293D01*
X75706Y70458D01*
X75000Y70514D01*
X74993Y70513D01*
Y71487D01*
X75000Y71486D01*
X75706Y71542D01*
X76395Y71707D01*
X77049Y71978D01*
X77653Y72348D01*
X78192Y72808D01*
X78652Y73347D01*
X79022Y73951D01*
X79293Y74605D01*
X79458Y75294D01*
X79500Y76000D01*
X79458Y76706D01*
X79293Y77395D01*
X79022Y78049D01*
X78652Y78653D01*
X78192Y79192D01*
X77653Y79652D01*
X77049Y80022D01*
X76395Y80293D01*
X75706Y80458D01*
X75000Y80514D01*
X74993Y80513D01*
Y188500D01*
G37*
G36*
X68720D02*X74993D01*
Y80513D01*
X74294Y80458D01*
X73605Y80293D01*
X72951Y80022D01*
X72347Y79652D01*
X71808Y79192D01*
X71348Y78653D01*
X70978Y78049D01*
X70707Y77395D01*
X70542Y76706D01*
X70486Y76000D01*
X70542Y75294D01*
X70707Y74605D01*
X70978Y73951D01*
X71348Y73347D01*
X71808Y72808D01*
X72347Y72348D01*
X72951Y71978D01*
X73605Y71707D01*
X74294Y71542D01*
X74993Y71487D01*
Y70513D01*
X74294Y70458D01*
X73605Y70293D01*
X72951Y70022D01*
X72347Y69652D01*
X71808Y69192D01*
X71348Y68653D01*
X70978Y68049D01*
X70707Y67395D01*
X70542Y66706D01*
X70486Y66000D01*
X70542Y65294D01*
X70707Y64605D01*
X70978Y63951D01*
X71348Y63347D01*
X71808Y62808D01*
X72347Y62348D01*
X72951Y61978D01*
X73605Y61707D01*
X74294Y61542D01*
X74993Y61487D01*
Y60513D01*
X74294Y60458D01*
X73605Y60293D01*
X72951Y60022D01*
X72347Y59652D01*
X71808Y59192D01*
X71348Y58653D01*
X70978Y58049D01*
X70707Y57395D01*
X70542Y56706D01*
X70486Y56000D01*
X70542Y55294D01*
X70707Y54605D01*
X70978Y53951D01*
X71348Y53347D01*
X71808Y52808D01*
X72347Y52348D01*
X72951Y51978D01*
X73605Y51707D01*
X74294Y51542D01*
X74993Y51487D01*
Y50513D01*
X74294Y50458D01*
X73605Y50293D01*
X72951Y50022D01*
X72347Y49652D01*
X71808Y49192D01*
X71348Y48653D01*
X70978Y48049D01*
X70707Y47395D01*
X70542Y46706D01*
X70486Y46000D01*
X70542Y45294D01*
X70707Y44605D01*
X70978Y43951D01*
X71348Y43347D01*
X71808Y42808D01*
X72347Y42348D01*
X72951Y41978D01*
X73605Y41707D01*
X74294Y41542D01*
X74993Y41487D01*
Y35689D01*
X68720Y41962D01*
Y48459D01*
X69022Y48951D01*
X69293Y49605D01*
X69458Y50294D01*
X69500Y51000D01*
X69458Y51706D01*
X69293Y52395D01*
X69022Y53049D01*
X68720Y53541D01*
Y58544D01*
X68771Y58583D01*
X68826Y58639D01*
X68870Y58704D01*
X69064Y59056D01*
X69221Y59426D01*
X69344Y59809D01*
X69433Y60200D01*
X69487Y60599D01*
X69504Y61000D01*
X69487Y61401D01*
X69433Y61800D01*
X69344Y62191D01*
X69221Y62574D01*
X69064Y62944D01*
X68874Y63298D01*
X68829Y63363D01*
X68774Y63420D01*
X68720Y63460D01*
Y68459D01*
X69022Y68951D01*
X69293Y69605D01*
X69458Y70294D01*
X69500Y71000D01*
X69458Y71706D01*
X69293Y72395D01*
X69022Y73049D01*
X68720Y73541D01*
Y78459D01*
X69022Y78951D01*
X69293Y79605D01*
X69458Y80294D01*
X69500Y81000D01*
X69458Y81706D01*
X69293Y82395D01*
X69022Y83049D01*
X68720Y83541D01*
Y188500D01*
G37*
G36*
Y73541D02*X68652Y73653D01*
X68192Y74192D01*
X67653Y74652D01*
X67049Y75022D01*
X66395Y75293D01*
X65706Y75458D01*
X65002Y75514D01*
Y76486D01*
X65706Y76542D01*
X66395Y76707D01*
X67049Y76978D01*
X67653Y77348D01*
X68192Y77808D01*
X68652Y78347D01*
X68720Y78459D01*
Y73541D01*
G37*
G36*
Y53541D02*X68652Y53653D01*
X68192Y54192D01*
X67653Y54652D01*
X67049Y55022D01*
X66395Y55293D01*
X65706Y55458D01*
X65002Y55514D01*
Y56496D01*
X65401Y56513D01*
X65800Y56567D01*
X66191Y56656D01*
X66574Y56779D01*
X66944Y56936D01*
X67298Y57126D01*
X67363Y57171D01*
X67420Y57226D01*
X67468Y57290D01*
X67504Y57360D01*
X67530Y57435D01*
X67544Y57513D01*
X67545Y57592D01*
X67533Y57671D01*
X67510Y57746D01*
X67475Y57817D01*
X67429Y57882D01*
X67374Y57939D01*
X67311Y57987D01*
X67241Y58024D01*
X67166Y58049D01*
X67088Y58063D01*
X67008Y58064D01*
X66930Y58052D01*
X66854Y58029D01*
X66784Y57993D01*
X66510Y57843D01*
X66223Y57721D01*
X65926Y57625D01*
X65621Y57556D01*
X65312Y57514D01*
X65002Y57500D01*
Y64500D01*
X65312Y64486D01*
X65621Y64444D01*
X65926Y64375D01*
X66223Y64279D01*
X66510Y64157D01*
X66786Y64010D01*
X66855Y63974D01*
X66931Y63951D01*
X67009Y63940D01*
X67087Y63941D01*
X67165Y63954D01*
X67239Y63980D01*
X67309Y64016D01*
X67372Y64064D01*
X67427Y64120D01*
X67472Y64184D01*
X67507Y64255D01*
X67530Y64330D01*
X67541Y64408D01*
X67540Y64487D01*
X67527Y64564D01*
X67501Y64639D01*
X67465Y64708D01*
X67417Y64771D01*
X67361Y64826D01*
X67296Y64870D01*
X66944Y65064D01*
X66574Y65221D01*
X66191Y65344D01*
X65800Y65433D01*
X65401Y65487D01*
X65002Y65504D01*
Y66486D01*
X65706Y66542D01*
X66395Y66707D01*
X67049Y66978D01*
X67653Y67348D01*
X68192Y67808D01*
X68652Y68347D01*
X68720Y68459D01*
Y63460D01*
X68710Y63468D01*
X68640Y63504D01*
X68565Y63530D01*
X68487Y63544D01*
X68408Y63545D01*
X68329Y63533D01*
X68254Y63510D01*
X68183Y63475D01*
X68118Y63429D01*
X68061Y63374D01*
X68013Y63311D01*
X67976Y63241D01*
X67951Y63166D01*
X67937Y63088D01*
X67936Y63008D01*
X67948Y62930D01*
X67971Y62854D01*
X68007Y62784D01*
X68157Y62510D01*
X68279Y62223D01*
X68375Y61926D01*
X68444Y61621D01*
X68486Y61312D01*
X68500Y61000D01*
X68486Y60688D01*
X68444Y60379D01*
X68375Y60074D01*
X68279Y59777D01*
X68157Y59490D01*
X68010Y59214D01*
X67974Y59145D01*
X67951Y59069D01*
X67940Y58991D01*
X67941Y58913D01*
X67954Y58835D01*
X67980Y58761D01*
X68016Y58691D01*
X68064Y58628D01*
X68120Y58573D01*
X68184Y58528D01*
X68255Y58493D01*
X68330Y58470D01*
X68408Y58459D01*
X68487Y58460D01*
X68564Y58473D01*
X68639Y58499D01*
X68708Y58535D01*
X68720Y58544D01*
Y53541D01*
G37*
G36*
Y41962D02*X67250Y43432D01*
Y47101D01*
X67653Y47348D01*
X68192Y47808D01*
X68652Y48347D01*
X68720Y48459D01*
Y41962D01*
G37*
G36*
X65002Y188500D02*X68720D01*
Y83541D01*
X68652Y83653D01*
X68192Y84192D01*
X67653Y84652D01*
X67049Y85022D01*
X66395Y85293D01*
X65706Y85458D01*
X65002Y85514D01*
Y188500D01*
G37*
G36*
X61280Y48459D02*X61348Y48347D01*
X61808Y47808D01*
X62347Y47348D01*
X62750Y47101D01*
Y42588D01*
X62743Y42500D01*
X62771Y42147D01*
X62854Y41803D01*
X62989Y41475D01*
X63174Y41173D01*
X63174Y41173D01*
X63404Y40904D01*
X63471Y40847D01*
X65002Y39316D01*
Y1500D01*
X61280D01*
Y48459D01*
G37*
G36*
Y68459D02*X61348Y68347D01*
X61808Y67808D01*
X62347Y67348D01*
X62951Y66978D01*
X63605Y66707D01*
X64294Y66542D01*
X65000Y66486D01*
X65002Y66486D01*
Y65504D01*
X65000Y65504D01*
X64599Y65487D01*
X64200Y65433D01*
X63809Y65344D01*
X63426Y65221D01*
X63056Y65064D01*
X62702Y64874D01*
X62637Y64829D01*
X62580Y64774D01*
X62532Y64710D01*
X62496Y64640D01*
X62470Y64565D01*
X62456Y64487D01*
X62455Y64408D01*
X62467Y64329D01*
X62490Y64254D01*
X62525Y64183D01*
X62571Y64118D01*
X62626Y64061D01*
X62689Y64013D01*
X62759Y63976D01*
X62834Y63951D01*
X62912Y63937D01*
X62992Y63936D01*
X63070Y63948D01*
X63146Y63971D01*
X63216Y64007D01*
X63490Y64157D01*
X63777Y64279D01*
X64074Y64375D01*
X64379Y64444D01*
X64688Y64486D01*
X65000Y64500D01*
X65002Y64500D01*
Y57500D01*
X65000Y57500D01*
X64688Y57514D01*
X64379Y57556D01*
X64074Y57625D01*
X63777Y57721D01*
X63490Y57843D01*
X63214Y57990D01*
X63145Y58026D01*
X63069Y58049D01*
X62991Y58060D01*
X62913Y58059D01*
X62835Y58046D01*
X62761Y58020D01*
X62691Y57984D01*
X62628Y57936D01*
X62573Y57880D01*
X62528Y57816D01*
X62493Y57745D01*
X62470Y57670D01*
X62459Y57592D01*
X62460Y57513D01*
X62473Y57436D01*
X62499Y57361D01*
X62535Y57292D01*
X62583Y57229D01*
X62639Y57174D01*
X62704Y57130D01*
X63056Y56936D01*
X63426Y56779D01*
X63809Y56656D01*
X64200Y56567D01*
X64599Y56513D01*
X65000Y56496D01*
X65002Y56496D01*
Y55514D01*
X65000Y55514D01*
X64294Y55458D01*
X63605Y55293D01*
X62951Y55022D01*
X62347Y54652D01*
X61808Y54192D01*
X61348Y53653D01*
X61280Y53541D01*
Y58540D01*
X61290Y58532D01*
X61360Y58496D01*
X61435Y58470D01*
X61513Y58456D01*
X61592Y58455D01*
X61671Y58467D01*
X61746Y58490D01*
X61817Y58525D01*
X61882Y58571D01*
X61939Y58626D01*
X61987Y58689D01*
X62024Y58759D01*
X62049Y58834D01*
X62063Y58912D01*
X62064Y58992D01*
X62052Y59070D01*
X62029Y59146D01*
X61993Y59216D01*
X61843Y59490D01*
X61721Y59777D01*
X61625Y60074D01*
X61556Y60379D01*
X61514Y60688D01*
X61500Y61000D01*
X61514Y61312D01*
X61556Y61621D01*
X61625Y61926D01*
X61721Y62223D01*
X61843Y62510D01*
X61990Y62786D01*
X62026Y62855D01*
X62049Y62931D01*
X62060Y63009D01*
X62059Y63087D01*
X62046Y63165D01*
X62020Y63239D01*
X61984Y63309D01*
X61936Y63372D01*
X61880Y63427D01*
X61816Y63472D01*
X61745Y63507D01*
X61670Y63530D01*
X61592Y63541D01*
X61513Y63540D01*
X61436Y63527D01*
X61361Y63501D01*
X61292Y63465D01*
X61280Y63456D01*
Y68459D01*
G37*
G36*
Y78459D02*X61348Y78347D01*
X61808Y77808D01*
X62347Y77348D01*
X62951Y76978D01*
X63605Y76707D01*
X64294Y76542D01*
X65000Y76486D01*
X65002Y76486D01*
Y75514D01*
X65000Y75514D01*
X64294Y75458D01*
X63605Y75293D01*
X62951Y75022D01*
X62347Y74652D01*
X61808Y74192D01*
X61348Y73653D01*
X61280Y73541D01*
Y78459D01*
G37*
G36*
Y188500D02*X65002D01*
Y85514D01*
X65000Y85514D01*
X64294Y85458D01*
X63605Y85293D01*
X62951Y85022D01*
X62347Y84652D01*
X61808Y84192D01*
X61348Y83653D01*
X61280Y83541D01*
Y188500D01*
G37*
G36*
X39987D02*X61280D01*
Y83541D01*
X60978Y83049D01*
X60707Y82395D01*
X60542Y81706D01*
X60486Y81000D01*
X60542Y80294D01*
X60707Y79605D01*
X60978Y78951D01*
X61280Y78459D01*
Y73541D01*
X60978Y73049D01*
X60707Y72395D01*
X60542Y71706D01*
X60486Y71000D01*
X60542Y70294D01*
X60707Y69605D01*
X60978Y68951D01*
X61280Y68459D01*
Y63456D01*
X61229Y63417D01*
X61174Y63361D01*
X61130Y63296D01*
X60936Y62944D01*
X60779Y62574D01*
X60656Y62191D01*
X60567Y61800D01*
X60513Y61401D01*
X60496Y61000D01*
X60513Y60599D01*
X60567Y60200D01*
X60656Y59809D01*
X60779Y59426D01*
X60936Y59056D01*
X61126Y58702D01*
X61171Y58637D01*
X61226Y58580D01*
X61280Y58540D01*
Y53541D01*
X60978Y53049D01*
X60707Y52395D01*
X60542Y51706D01*
X60486Y51000D01*
X60542Y50294D01*
X60707Y49605D01*
X60978Y48951D01*
X61280Y48459D01*
Y1500D01*
X39987D01*
Y32776D01*
X40000Y32775D01*
X41287Y32876D01*
X42542Y33177D01*
X43734Y33671D01*
X44835Y34346D01*
X45816Y35184D01*
X46654Y36165D01*
X47329Y37266D01*
X47823Y38458D01*
X48124Y39713D01*
X48200Y41000D01*
X48124Y42287D01*
X47823Y43542D01*
X47329Y44734D01*
X46654Y45835D01*
X45816Y46816D01*
X44835Y47654D01*
X43734Y48329D01*
X42542Y48823D01*
X41287Y49124D01*
X40000Y49225D01*
X39987Y49224D01*
Y77776D01*
X40000Y77775D01*
X41287Y77876D01*
X42542Y78177D01*
X43734Y78671D01*
X44835Y79346D01*
X45816Y80184D01*
X46654Y81165D01*
X47329Y82266D01*
X47823Y83458D01*
X48124Y84713D01*
X48200Y86000D01*
X48124Y87287D01*
X47823Y88542D01*
X47329Y89734D01*
X46654Y90835D01*
X45816Y91816D01*
X44835Y92654D01*
X43734Y93329D01*
X42542Y93823D01*
X41287Y94124D01*
X40000Y94225D01*
X39987Y94224D01*
Y188500D01*
G37*
G36*
X20500D02*X39987D01*
Y94224D01*
X38713Y94124D01*
X37458Y93823D01*
X36266Y93329D01*
X35165Y92654D01*
X34184Y91816D01*
X33346Y90835D01*
X32671Y89734D01*
X32177Y88542D01*
X31876Y87287D01*
X31775Y86000D01*
X31876Y84713D01*
X32177Y83458D01*
X32671Y82266D01*
X33346Y81165D01*
X34184Y80184D01*
X35165Y79346D01*
X36266Y78671D01*
X37458Y78177D01*
X38713Y77876D01*
X39987Y77776D01*
Y49224D01*
X38713Y49124D01*
X37458Y48823D01*
X36266Y48329D01*
X35165Y47654D01*
X34184Y46816D01*
X33346Y45835D01*
X32671Y44734D01*
X32177Y43542D01*
X31876Y42287D01*
X31775Y41000D01*
X31876Y39713D01*
X32177Y38458D01*
X32671Y37266D01*
X33346Y36165D01*
X34184Y35184D01*
X35165Y34346D01*
X36266Y33671D01*
X37458Y33177D01*
X38713Y32876D01*
X39987Y32776D01*
Y1500D01*
X20500D01*
Y1711D01*
X21862Y2038D01*
X24142Y2982D01*
X26247Y4272D01*
X28124Y5876D01*
X29728Y7753D01*
X31018Y9858D01*
X31962Y12138D01*
X32539Y14539D01*
X32684Y17000D01*
X32539Y19461D01*
X31962Y21862D01*
X31018Y24142D01*
X29728Y26247D01*
X28124Y28124D01*
X26247Y29728D01*
X24142Y31018D01*
X21862Y31962D01*
X20500Y32289D01*
Y111983D01*
X21363Y112051D01*
X22205Y112253D01*
X23005Y112584D01*
X23743Y113037D01*
X24401Y113599D01*
X24963Y114257D01*
X25416Y114995D01*
X25747Y115795D01*
X25949Y116637D01*
X26000Y117500D01*
X25949Y118363D01*
X25747Y119205D01*
X25416Y120005D01*
X24963Y120743D01*
X24401Y121401D01*
X23743Y121963D01*
X23005Y122416D01*
X22205Y122747D01*
X21363Y122949D01*
X20500Y123017D01*
Y132007D01*
X24735Y132014D01*
X24965Y132069D01*
X25183Y132159D01*
X25384Y132283D01*
X25564Y132436D01*
X25717Y132616D01*
X25841Y132817D01*
X25931Y133035D01*
X25986Y133265D01*
X26000Y133500D01*
X25986Y141735D01*
X25931Y141965D01*
X25841Y142183D01*
X25717Y142384D01*
X25564Y142564D01*
X25384Y142717D01*
X25183Y142841D01*
X24965Y142931D01*
X24735Y142986D01*
X24500Y143000D01*
X20500Y142993D01*
Y157711D01*
X21862Y158038D01*
X24142Y158982D01*
X26247Y160272D01*
X28124Y161876D01*
X29728Y163753D01*
X31018Y165858D01*
X31962Y168138D01*
X32539Y170539D01*
X32684Y173000D01*
X32539Y175461D01*
X31962Y177862D01*
X31018Y180142D01*
X29728Y182247D01*
X28124Y184124D01*
X26247Y185728D01*
X24142Y187018D01*
X21862Y187962D01*
X20500Y188289D01*
Y188500D01*
G37*
G36*
Y32289D02*X19461Y32539D01*
X17000Y32732D01*
X14539Y32539D01*
X12138Y31962D01*
X9858Y31018D01*
X7753Y29728D01*
X5876Y28124D01*
X4272Y26247D01*
X2982Y24142D01*
X2038Y21862D01*
X1500Y19622D01*
Y170378D01*
X2038Y168138D01*
X2982Y165858D01*
X4272Y163753D01*
X5876Y161876D01*
X7753Y160272D01*
X9858Y158982D01*
X12138Y158038D01*
X14539Y157461D01*
X17000Y157268D01*
X19461Y157461D01*
X20500Y157711D01*
Y142993D01*
X16265Y142986D01*
X16035Y142931D01*
X15817Y142841D01*
X15616Y142717D01*
X15436Y142564D01*
X15283Y142384D01*
X15159Y142183D01*
X15069Y141965D01*
X15014Y141735D01*
X15000Y141500D01*
X15014Y133265D01*
X15069Y133035D01*
X15159Y132817D01*
X15283Y132616D01*
X15436Y132436D01*
X15616Y132283D01*
X15817Y132159D01*
X16035Y132069D01*
X16265Y132014D01*
X16500Y132000D01*
X20500Y132007D01*
Y123017D01*
X19637Y122949D01*
X18795Y122747D01*
X17995Y122416D01*
X17257Y121963D01*
X16599Y121401D01*
X16037Y120743D01*
X15584Y120005D01*
X15253Y119205D01*
X15051Y118363D01*
X14983Y117500D01*
X15051Y116637D01*
X15253Y115795D01*
X15584Y114995D01*
X16037Y114257D01*
X16599Y113599D01*
X17257Y113037D01*
X17995Y112584D01*
X18795Y112253D01*
X19637Y112051D01*
X20500Y111983D01*
Y32289D01*
G37*
G36*
Y1500D02*X19622D01*
X20500Y1711D01*
Y1500D01*
G37*
G36*
X19622Y188500D02*X20500D01*
Y188289D01*
X19622Y188500D01*
G37*
G54D42*X165500Y50500D02*Y71500D01*
X175000Y81000D01*
X165500Y43500D02*Y52500D01*
G54D43*X171000Y121500D02*Y120500D01*
X173500Y118000D01*
X167500Y101500D02*Y92500D01*
X209000Y138500D02*X205000D01*
X203500Y137000D01*
Y111000D01*
X201500Y109000D01*
X195500D01*
X200000Y146000D02*X202500Y143500D01*
X206500Y149000D02*X204500Y151000D01*
X195500Y152500D02*X203000D01*
X206500Y149000D01*
X173500Y118000D02*X194500D01*
X181500Y148000D02*X198000D01*
X201250Y144750D01*
G54D44*X75000Y66000D02*X83000D01*
X86500Y69500D01*
Y85000D01*
G54D42*X65000Y51000D02*Y42500D01*
X77000Y30500D01*
X111500D01*
G54D43*X139500Y107000D02*Y91500D01*
X134000Y105000D02*X137000Y102000D01*
X139500Y91500D02*X144000Y87000D01*
Y79000D01*
X142500Y77500D01*
X139500D01*
X137500Y85500D02*X139500Y83500D01*
X137000Y86000D02*X138750Y84250D01*
X137000Y102000D02*Y86000D01*
X143500Y110500D02*Y95500D01*
X146000Y99000D02*X148500Y96500D01*
X158000D01*
X162000Y92500D01*
X146000Y99000D02*Y115500D01*
X145500Y116000D01*
X144500Y121500D02*X155500D01*
X157500Y123500D01*
Y130000D01*
X124000Y145000D02*X138000D01*
X141500Y148500D01*
X202500Y143500D02*X229500D01*
X232000Y149000D02*X206500D01*
X134000Y107000D02*Y105500D01*
Y107000D02*Y105000D01*
X128500Y107000D02*Y110000D01*
X141500Y112500D02*X143500Y110500D01*
X128500Y110000D02*X131000Y112500D01*
X141500D01*
X127000D02*X130000Y115500D01*
X138500D01*
X144500Y121500D01*
X127750Y113250D02*X112500Y98000D01*
G54D41*G36*
X141500Y172000D02*Y164000D01*
X149500D01*
Y172000D01*
X141500D01*
G37*
G54D45*X185000Y66000D03*
G54D46*X195500Y168000D03*
G54D45*X175000Y71000D03*
Y81000D03*
X75000Y66000D03*
X65000Y61000D03*
X75000Y56000D03*
X65000Y51000D03*
Y81000D03*
X75000Y76000D03*
X65000Y71000D03*
X75000Y46000D03*
G54D41*G36*
X114500Y26000D02*Y18000D01*
X122500D01*
Y26000D01*
X114500D01*
G37*
G54D46*X138500Y22000D03*
G54D47*X40000Y86000D03*
G54D48*X17000Y173000D03*
G54D41*G36*
X16500Y141500D02*Y133500D01*
X24500D01*
Y141500D01*
X16500D01*
G37*
G54D46*X20500Y117500D03*
G54D47*X40000Y41000D03*
G54D48*X17000Y17000D03*
G54D41*G36*
X121000Y186500D02*Y179500D01*
X128000D01*
Y186500D01*
X121000D01*
G37*
G54D45*X124500Y173000D03*
Y163000D03*
G54D48*X233000Y173000D03*
Y17000D03*
G54D45*X185000Y46000D03*
X175000Y51000D03*
X185000Y56000D03*
X175000Y61000D03*
X185000Y76000D03*
G54D47*X210000Y86000D03*
Y41000D03*
G54D41*G36*
X191500Y25500D02*Y19500D01*
X197500D01*
Y25500D01*
X191500D01*
G37*
G54D49*X194500Y12500D03*
G54D44*X195500Y101500D03*
X145000Y127500D03*
X195500Y109000D03*
X157500Y114000D03*
X139500Y127500D03*
X141500Y148500D03*
X148500Y24000D03*
X157500Y130000D03*
X145500Y116000D03*
X149500Y143000D03*
X209000Y138500D03*
X181500Y148000D03*
X232000Y149000D03*
X195500Y152500D03*
X187500Y129000D03*
Y135000D03*
X171000Y121500D03*
X194500Y118000D03*
X231000Y143500D03*
X224500Y87500D03*
X229500D03*
X234500D03*
X224500Y82000D03*
X229500D03*
X234500D03*
X224500Y44500D03*
X229500D03*
X234500D03*
X224500Y39000D03*
X229500D03*
X234500D03*
X86500Y80000D03*
Y85000D03*
Y75000D03*
X93500Y61500D03*
X103500D03*
X98500D03*
X105000Y117500D03*
Y112500D03*
Y30500D03*
X111500D03*
X112000Y97500D03*
X86500Y111000D03*
Y116000D03*
Y121000D03*
X71500Y107500D03*
Y102000D03*
X76500D03*
X81500D03*
X66500Y104500D03*
X86500D03*
X76500Y107500D03*
X81500D03*
X121000Y106500D03*
X92000Y111000D03*
Y116000D03*
Y121000D03*
X165500Y43500D03*
Y48500D03*
X157500Y76500D03*
X139500Y107000D03*
X134000D03*
X128500D03*
X139500Y77500D03*
Y83500D03*
X143500Y95500D03*
X162000Y92500D03*
X167500D03*
Y101500D03*
X124000Y152500D03*
Y145000D03*
X66500Y121000D03*
Y116000D03*
Y111000D03*
X61000Y121000D03*
Y116000D03*
Y111000D03*
X37500Y163000D03*
Y158000D03*
Y153000D03*
Y183000D03*
Y178000D03*
X45500Y178500D03*
X51500D03*
X45500Y161500D03*
X51500D03*
X77000Y139000D03*
X13500Y89000D03*
X18500D03*
X23500D03*
X13500Y83500D03*
X18500D03*
X23500D03*
X13500Y43500D03*
X18500D03*
X23500D03*
X13500Y38000D03*
X18500D03*
X23500D03*
G54D50*G54D51*G54D52*G54D53*G54D52*G54D53*G54D52*G54D54*G54D55*G54D52*G54D54*G54D55*G54D51*G54D55*G54D53*G54D54*G54D56*M02*
