G04 #@! TF.GenerationSoftware,KiCad,Pcbnew,6.0.2+dfsg-1*
G04 #@! TF.CreationDate,2024-04-05T20:58:32-06:00*
G04 #@! TF.ProjectId,mss-crossover,6d73732d-6372-46f7-9373-6f7665722e6b,rev?*
G04 #@! TF.SameCoordinates,Original*
G04 #@! TF.FileFunction,Soldermask,Top*
G04 #@! TF.FilePolarity,Negative*
%FSLAX46Y46*%
G04 Gerber Fmt 4.6, Leading zero omitted, Abs format (unit mm)*
G04 Created by KiCad (PCBNEW 6.0.2+dfsg-1) date 2024-04-05 20:58:32*
%MOMM*%
%LPD*%
G01*
G04 APERTURE LIST*
%ADD10C,6.552400*%
%ADD11C,3.352400*%
%ADD12C,1.652400*%
%ADD13C,2.652400*%
%ADD14C,1.728000*%
%ADD15C,1.143000*%
%ADD16C,0.939800*%
G04 APERTURE END LIST*
G36*
G01*
X52956800Y-175354000D02*
X52956800Y-174404000D01*
G75*
G02*
X53283000Y-174077800I326200J0D01*
G01*
X53783000Y-174077800D01*
G75*
G02*
X54109200Y-174404000I0J-326200D01*
G01*
X54109200Y-175354000D01*
G75*
G02*
X53783000Y-175680200I-326200J0D01*
G01*
X53283000Y-175680200D01*
G75*
G02*
X52956800Y-175354000I0J326200D01*
G01*
G37*
G36*
G01*
X54856800Y-175354000D02*
X54856800Y-174404000D01*
G75*
G02*
X55183000Y-174077800I326200J0D01*
G01*
X55683000Y-174077800D01*
G75*
G02*
X56009200Y-174404000I0J-326200D01*
G01*
X56009200Y-175354000D01*
G75*
G02*
X55683000Y-175680200I-326200J0D01*
G01*
X55183000Y-175680200D01*
G75*
G02*
X54856800Y-175354000I0J326200D01*
G01*
G37*
G36*
G01*
X70474000Y-171806800D02*
X72274000Y-171806800D01*
G75*
G02*
X72350200Y-171883000I0J-76200D01*
G01*
X72350200Y-174383000D01*
G75*
G02*
X72274000Y-174459200I-76200J0D01*
G01*
X70474000Y-174459200D01*
G75*
G02*
X70397800Y-174383000I0J76200D01*
G01*
X70397800Y-171883000D01*
G75*
G02*
X70474000Y-171806800I76200J0D01*
G01*
G37*
G36*
G01*
X70474000Y-175806800D02*
X72274000Y-175806800D01*
G75*
G02*
X72350200Y-175883000I0J-76200D01*
G01*
X72350200Y-178383000D01*
G75*
G02*
X72274000Y-178459200I-76200J0D01*
G01*
X70474000Y-178459200D01*
G75*
G02*
X70397800Y-178383000I0J76200D01*
G01*
X70397800Y-175883000D01*
G75*
G02*
X70474000Y-175806800I76200J0D01*
G01*
G37*
G36*
G01*
X57299800Y-185489000D02*
X57299800Y-184589000D01*
G75*
G02*
X57626000Y-184262800I326200J0D01*
G01*
X58151000Y-184262800D01*
G75*
G02*
X58477200Y-184589000I0J-326200D01*
G01*
X58477200Y-185489000D01*
G75*
G02*
X58151000Y-185815200I-326200J0D01*
G01*
X57626000Y-185815200D01*
G75*
G02*
X57299800Y-185489000I0J326200D01*
G01*
G37*
G36*
G01*
X59124800Y-185489000D02*
X59124800Y-184589000D01*
G75*
G02*
X59451000Y-184262800I326200J0D01*
G01*
X59976000Y-184262800D01*
G75*
G02*
X60302200Y-184589000I0J-326200D01*
G01*
X60302200Y-185489000D01*
G75*
G02*
X59976000Y-185815200I-326200J0D01*
G01*
X59451000Y-185815200D01*
G75*
G02*
X59124800Y-185489000I0J326200D01*
G01*
G37*
D10*
X94742000Y-187452000D03*
D11*
X76545500Y-161437000D03*
X87975500Y-161437000D03*
G36*
G01*
X87531700Y-167037000D02*
X87531700Y-168537000D01*
G75*
G02*
X87455500Y-168613200I-76200J0D01*
G01*
X85955500Y-168613200D01*
G75*
G02*
X85879300Y-168537000I0J76200D01*
G01*
X85879300Y-167037000D01*
G75*
G02*
X85955500Y-166960800I76200J0D01*
G01*
X87455500Y-166960800D01*
G75*
G02*
X87531700Y-167037000I0J-76200D01*
G01*
G37*
D12*
X85435500Y-170327000D03*
X84165500Y-167787000D03*
X82895500Y-170327000D03*
X81625500Y-167787000D03*
X80355500Y-170327000D03*
X79085500Y-167787000D03*
X77815500Y-170327000D03*
G36*
G01*
X66398200Y-182049000D02*
X66398200Y-182949000D01*
G75*
G02*
X66072000Y-183275200I-326200J0D01*
G01*
X65547000Y-183275200D01*
G75*
G02*
X65220800Y-182949000I0J326200D01*
G01*
X65220800Y-182049000D01*
G75*
G02*
X65547000Y-181722800I326200J0D01*
G01*
X66072000Y-181722800D01*
G75*
G02*
X66398200Y-182049000I0J-326200D01*
G01*
G37*
G36*
G01*
X64573200Y-182049000D02*
X64573200Y-182949000D01*
G75*
G02*
X64247000Y-183275200I-326200J0D01*
G01*
X63722000Y-183275200D01*
G75*
G02*
X63395800Y-182949000I0J326200D01*
G01*
X63395800Y-182049000D01*
G75*
G02*
X63722000Y-181722800I326200J0D01*
G01*
X64247000Y-181722800D01*
G75*
G02*
X64573200Y-182049000I0J-326200D01*
G01*
G37*
G36*
G01*
X50314800Y-188035250D02*
X50314800Y-187122750D01*
G75*
G02*
X50634750Y-186802800I319950J0D01*
G01*
X51122250Y-186802800D01*
G75*
G02*
X51442200Y-187122750I0J-319950D01*
G01*
X51442200Y-188035250D01*
G75*
G02*
X51122250Y-188355200I-319950J0D01*
G01*
X50634750Y-188355200D01*
G75*
G02*
X50314800Y-188035250I0J319950D01*
G01*
G37*
G36*
G01*
X52189800Y-188035250D02*
X52189800Y-187122750D01*
G75*
G02*
X52509750Y-186802800I319950J0D01*
G01*
X52997250Y-186802800D01*
G75*
G02*
X53317200Y-187122750I0J-319950D01*
G01*
X53317200Y-188035250D01*
G75*
G02*
X52997250Y-188355200I-319950J0D01*
G01*
X52509750Y-188355200D01*
G75*
G02*
X52189800Y-188035250I0J319950D01*
G01*
G37*
G36*
G01*
X53317200Y-184589000D02*
X53317200Y-185489000D01*
G75*
G02*
X52991000Y-185815200I-326200J0D01*
G01*
X52466000Y-185815200D01*
G75*
G02*
X52139800Y-185489000I0J326200D01*
G01*
X52139800Y-184589000D01*
G75*
G02*
X52466000Y-184262800I326200J0D01*
G01*
X52991000Y-184262800D01*
G75*
G02*
X53317200Y-184589000I0J-326200D01*
G01*
G37*
G36*
G01*
X51492200Y-184589000D02*
X51492200Y-185489000D01*
G75*
G02*
X51166000Y-185815200I-326200J0D01*
G01*
X50641000Y-185815200D01*
G75*
G02*
X50314800Y-185489000I0J326200D01*
G01*
X50314800Y-184589000D01*
G75*
G02*
X50641000Y-184262800I326200J0D01*
G01*
X51166000Y-184262800D01*
G75*
G02*
X51492200Y-184589000I0J-326200D01*
G01*
G37*
D10*
X94742000Y-157988000D03*
G36*
G01*
X37303000Y-171086200D02*
X36103000Y-171086200D01*
G75*
G02*
X36026800Y-171010000I0J76200D01*
G01*
X36026800Y-170110000D01*
G75*
G02*
X36103000Y-170033800I76200J0D01*
G01*
X37303000Y-170033800D01*
G75*
G02*
X37379200Y-170110000I0J-76200D01*
G01*
X37379200Y-171010000D01*
G75*
G02*
X37303000Y-171086200I-76200J0D01*
G01*
G37*
G36*
G01*
X37303000Y-167786200D02*
X36103000Y-167786200D01*
G75*
G02*
X36026800Y-167710000I0J76200D01*
G01*
X36026800Y-166810000D01*
G75*
G02*
X36103000Y-166733800I76200J0D01*
G01*
X37303000Y-166733800D01*
G75*
G02*
X37379200Y-166810000I0J-76200D01*
G01*
X37379200Y-167710000D01*
G75*
G02*
X37303000Y-167786200I-76200J0D01*
G01*
G37*
D11*
X87919500Y-184003000D03*
X76489500Y-184003000D03*
G36*
G01*
X76933300Y-178403000D02*
X76933300Y-176903000D01*
G75*
G02*
X77009500Y-176826800I76200J0D01*
G01*
X78509500Y-176826800D01*
G75*
G02*
X78585700Y-176903000I0J-76200D01*
G01*
X78585700Y-178403000D01*
G75*
G02*
X78509500Y-178479200I-76200J0D01*
G01*
X77009500Y-178479200D01*
G75*
G02*
X76933300Y-178403000I0J76200D01*
G01*
G37*
D12*
X79029500Y-175113000D03*
X80299500Y-177653000D03*
X81569500Y-175113000D03*
X82839500Y-177653000D03*
X84109500Y-175113000D03*
X85379500Y-177653000D03*
X86649500Y-175113000D03*
G36*
G01*
X57299800Y-188035250D02*
X57299800Y-187122750D01*
G75*
G02*
X57619750Y-186802800I319950J0D01*
G01*
X58107250Y-186802800D01*
G75*
G02*
X58427200Y-187122750I0J-319950D01*
G01*
X58427200Y-188035250D01*
G75*
G02*
X58107250Y-188355200I-319950J0D01*
G01*
X57619750Y-188355200D01*
G75*
G02*
X57299800Y-188035250I0J319950D01*
G01*
G37*
G36*
G01*
X59174800Y-188035250D02*
X59174800Y-187122750D01*
G75*
G02*
X59494750Y-186802800I319950J0D01*
G01*
X59982250Y-186802800D01*
G75*
G02*
X60302200Y-187122750I0J-319950D01*
G01*
X60302200Y-188035250D01*
G75*
G02*
X59982250Y-188355200I-319950J0D01*
G01*
X59494750Y-188355200D01*
G75*
G02*
X59174800Y-188035250I0J319950D01*
G01*
G37*
G36*
G01*
X62486200Y-168435000D02*
X62486200Y-169385000D01*
G75*
G02*
X62160000Y-169711200I-326200J0D01*
G01*
X61660000Y-169711200D01*
G75*
G02*
X61333800Y-169385000I0J326200D01*
G01*
X61333800Y-168435000D01*
G75*
G02*
X61660000Y-168108800I326200J0D01*
G01*
X62160000Y-168108800D01*
G75*
G02*
X62486200Y-168435000I0J-326200D01*
G01*
G37*
G36*
G01*
X60586200Y-168435000D02*
X60586200Y-169385000D01*
G75*
G02*
X60260000Y-169711200I-326200J0D01*
G01*
X59760000Y-169711200D01*
G75*
G02*
X59433800Y-169385000I0J326200D01*
G01*
X59433800Y-168435000D01*
G75*
G02*
X59760000Y-168108800I326200J0D01*
G01*
X60260000Y-168108800D01*
G75*
G02*
X60586200Y-168435000I0J-326200D01*
G01*
G37*
G36*
G01*
X71824200Y-164660000D02*
X71824200Y-166810000D01*
G75*
G02*
X71498000Y-167136200I-326200J0D01*
G01*
X70873000Y-167136200D01*
G75*
G02*
X70546800Y-166810000I0J326200D01*
G01*
X70546800Y-164660000D01*
G75*
G02*
X70873000Y-164333800I326200J0D01*
G01*
X71498000Y-164333800D01*
G75*
G02*
X71824200Y-164660000I0J-326200D01*
G01*
G37*
G36*
G01*
X68899200Y-164660000D02*
X68899200Y-166810000D01*
G75*
G02*
X68573000Y-167136200I-326200J0D01*
G01*
X67948000Y-167136200D01*
G75*
G02*
X67621800Y-166810000I0J326200D01*
G01*
X67621800Y-164660000D01*
G75*
G02*
X67948000Y-164333800I326200J0D01*
G01*
X68573000Y-164333800D01*
G75*
G02*
X68899200Y-164660000I0J-326200D01*
G01*
G37*
G36*
G01*
X31216000Y-173973800D02*
X33716000Y-173973800D01*
G75*
G02*
X33792200Y-174050000I0J-76200D01*
G01*
X33792200Y-176550000D01*
G75*
G02*
X33716000Y-176626200I-76200J0D01*
G01*
X31216000Y-176626200D01*
G75*
G02*
X31139800Y-176550000I0J76200D01*
G01*
X31139800Y-174050000D01*
G75*
G02*
X31216000Y-173973800I76200J0D01*
G01*
G37*
D13*
X32466000Y-180300000D03*
G36*
G01*
X60075200Y-181666000D02*
X60075200Y-182316000D01*
G75*
G02*
X59999000Y-182392200I-76200J0D01*
G01*
X58299000Y-182392200D01*
G75*
G02*
X58222800Y-182316000I0J76200D01*
G01*
X58222800Y-181666000D01*
G75*
G02*
X58299000Y-181589800I76200J0D01*
G01*
X59999000Y-181589800D01*
G75*
G02*
X60075200Y-181666000I0J-76200D01*
G01*
G37*
G36*
G01*
X60075200Y-180396000D02*
X60075200Y-181046000D01*
G75*
G02*
X59999000Y-181122200I-76200J0D01*
G01*
X58299000Y-181122200D01*
G75*
G02*
X58222800Y-181046000I0J76200D01*
G01*
X58222800Y-180396000D01*
G75*
G02*
X58299000Y-180319800I76200J0D01*
G01*
X59999000Y-180319800D01*
G75*
G02*
X60075200Y-180396000I0J-76200D01*
G01*
G37*
G36*
G01*
X60075200Y-179126000D02*
X60075200Y-179776000D01*
G75*
G02*
X59999000Y-179852200I-76200J0D01*
G01*
X58299000Y-179852200D01*
G75*
G02*
X58222800Y-179776000I0J76200D01*
G01*
X58222800Y-179126000D01*
G75*
G02*
X58299000Y-179049800I76200J0D01*
G01*
X59999000Y-179049800D01*
G75*
G02*
X60075200Y-179126000I0J-76200D01*
G01*
G37*
G36*
G01*
X60075200Y-177856000D02*
X60075200Y-178506000D01*
G75*
G02*
X59999000Y-178582200I-76200J0D01*
G01*
X58299000Y-178582200D01*
G75*
G02*
X58222800Y-178506000I0J76200D01*
G01*
X58222800Y-177856000D01*
G75*
G02*
X58299000Y-177779800I76200J0D01*
G01*
X59999000Y-177779800D01*
G75*
G02*
X60075200Y-177856000I0J-76200D01*
G01*
G37*
G36*
G01*
X52775200Y-177856000D02*
X52775200Y-178506000D01*
G75*
G02*
X52699000Y-178582200I-76200J0D01*
G01*
X50999000Y-178582200D01*
G75*
G02*
X50922800Y-178506000I0J76200D01*
G01*
X50922800Y-177856000D01*
G75*
G02*
X50999000Y-177779800I76200J0D01*
G01*
X52699000Y-177779800D01*
G75*
G02*
X52775200Y-177856000I0J-76200D01*
G01*
G37*
G36*
G01*
X52775200Y-179126000D02*
X52775200Y-179776000D01*
G75*
G02*
X52699000Y-179852200I-76200J0D01*
G01*
X50999000Y-179852200D01*
G75*
G02*
X50922800Y-179776000I0J76200D01*
G01*
X50922800Y-179126000D01*
G75*
G02*
X50999000Y-179049800I76200J0D01*
G01*
X52699000Y-179049800D01*
G75*
G02*
X52775200Y-179126000I0J-76200D01*
G01*
G37*
G36*
G01*
X52775200Y-180396000D02*
X52775200Y-181046000D01*
G75*
G02*
X52699000Y-181122200I-76200J0D01*
G01*
X50999000Y-181122200D01*
G75*
G02*
X50922800Y-181046000I0J76200D01*
G01*
X50922800Y-180396000D01*
G75*
G02*
X50999000Y-180319800I76200J0D01*
G01*
X52699000Y-180319800D01*
G75*
G02*
X52775200Y-180396000I0J-76200D01*
G01*
G37*
G36*
G01*
X52775200Y-181666000D02*
X52775200Y-182316000D01*
G75*
G02*
X52699000Y-182392200I-76200J0D01*
G01*
X50999000Y-182392200D01*
G75*
G02*
X50922800Y-182316000I0J76200D01*
G01*
X50922800Y-181666000D01*
G75*
G02*
X50999000Y-181589800I76200J0D01*
G01*
X52699000Y-181589800D01*
G75*
G02*
X52775200Y-181666000I0J-76200D01*
G01*
G37*
G36*
G01*
X48964000Y-168572200D02*
X48064000Y-168572200D01*
G75*
G02*
X47737800Y-168246000I0J326200D01*
G01*
X47737800Y-167721000D01*
G75*
G02*
X48064000Y-167394800I326200J0D01*
G01*
X48964000Y-167394800D01*
G75*
G02*
X49290200Y-167721000I0J-326200D01*
G01*
X49290200Y-168246000D01*
G75*
G02*
X48964000Y-168572200I-326200J0D01*
G01*
G37*
G36*
G01*
X48964000Y-166747200D02*
X48064000Y-166747200D01*
G75*
G02*
X47737800Y-166421000I0J326200D01*
G01*
X47737800Y-165896000D01*
G75*
G02*
X48064000Y-165569800I326200J0D01*
G01*
X48964000Y-165569800D01*
G75*
G02*
X49290200Y-165896000I0J-326200D01*
G01*
X49290200Y-166421000D01*
G75*
G02*
X48964000Y-166747200I-326200J0D01*
G01*
G37*
G36*
G01*
X30007000Y-166733800D02*
X31207000Y-166733800D01*
G75*
G02*
X31283200Y-166810000I0J-76200D01*
G01*
X31283200Y-167710000D01*
G75*
G02*
X31207000Y-167786200I-76200J0D01*
G01*
X30007000Y-167786200D01*
G75*
G02*
X29930800Y-167710000I0J76200D01*
G01*
X29930800Y-166810000D01*
G75*
G02*
X30007000Y-166733800I76200J0D01*
G01*
G37*
G36*
G01*
X30007000Y-170033800D02*
X31207000Y-170033800D01*
G75*
G02*
X31283200Y-170110000I0J-76200D01*
G01*
X31283200Y-171010000D01*
G75*
G02*
X31207000Y-171086200I-76200J0D01*
G01*
X30007000Y-171086200D01*
G75*
G02*
X29930800Y-171010000I0J76200D01*
G01*
X29930800Y-170110000D01*
G75*
G02*
X30007000Y-170033800I76200J0D01*
G01*
G37*
G36*
G01*
X44024000Y-183971300D02*
X44574000Y-183971300D01*
G75*
G02*
X44650200Y-184047500I0J-76200D01*
G01*
X44650200Y-185347500D01*
G75*
G02*
X44574000Y-185423700I-76200J0D01*
G01*
X44024000Y-185423700D01*
G75*
G02*
X43947800Y-185347500I0J76200D01*
G01*
X43947800Y-184047500D01*
G75*
G02*
X44024000Y-183971300I76200J0D01*
G01*
G37*
G36*
X43782373Y-188696480D02*
G01*
X43737232Y-188722542D01*
X43724000Y-188723700D01*
X41874000Y-188723700D01*
X41825020Y-188705873D01*
X41798958Y-188660732D01*
X41797800Y-188647500D01*
X41797800Y-186047500D01*
X41815627Y-185998520D01*
X41820118Y-185993618D01*
X42322800Y-185490936D01*
X42322800Y-184047500D01*
X42340627Y-183998520D01*
X42385768Y-183972458D01*
X42399000Y-183971300D01*
X43199000Y-183971300D01*
X43247980Y-183989127D01*
X43274042Y-184034268D01*
X43275200Y-184047500D01*
X43275200Y-185490936D01*
X43777882Y-185993618D01*
X43799910Y-186040859D01*
X43800200Y-186047500D01*
X43800200Y-188647500D01*
X43782373Y-188696480D01*
G37*
G36*
G01*
X41024000Y-183971300D02*
X41574000Y-183971300D01*
G75*
G02*
X41650200Y-184047500I0J-76200D01*
G01*
X41650200Y-185347500D01*
G75*
G02*
X41574000Y-185423700I-76200J0D01*
G01*
X41024000Y-185423700D01*
G75*
G02*
X40947800Y-185347500I0J76200D01*
G01*
X40947800Y-184047500D01*
G75*
G02*
X41024000Y-183971300I76200J0D01*
G01*
G37*
G36*
G01*
X47277000Y-184147800D02*
X48227000Y-184147800D01*
G75*
G02*
X48553200Y-184474000I0J-326200D01*
G01*
X48553200Y-184974000D01*
G75*
G02*
X48227000Y-185300200I-326200J0D01*
G01*
X47277000Y-185300200D01*
G75*
G02*
X46950800Y-184974000I0J326200D01*
G01*
X46950800Y-184474000D01*
G75*
G02*
X47277000Y-184147800I326200J0D01*
G01*
G37*
G36*
G01*
X47277000Y-186047800D02*
X48227000Y-186047800D01*
G75*
G02*
X48553200Y-186374000I0J-326200D01*
G01*
X48553200Y-186874000D01*
G75*
G02*
X48227000Y-187200200I-326200J0D01*
G01*
X47277000Y-187200200D01*
G75*
G02*
X46950800Y-186874000I0J326200D01*
G01*
X46950800Y-186374000D01*
G75*
G02*
X47277000Y-186047800I326200J0D01*
G01*
G37*
G36*
G01*
X41825000Y-181691200D02*
X40725000Y-181691200D01*
G75*
G02*
X40398800Y-181365000I0J326200D01*
G01*
X40398800Y-178365000D01*
G75*
G02*
X40725000Y-178038800I326200J0D01*
G01*
X41825000Y-178038800D01*
G75*
G02*
X42151200Y-178365000I0J-326200D01*
G01*
X42151200Y-181365000D01*
G75*
G02*
X41825000Y-181691200I-326200J0D01*
G01*
G37*
G36*
G01*
X41825000Y-176291200D02*
X40725000Y-176291200D01*
G75*
G02*
X40398800Y-175965000I0J326200D01*
G01*
X40398800Y-172965000D01*
G75*
G02*
X40725000Y-172638800I326200J0D01*
G01*
X41825000Y-172638800D01*
G75*
G02*
X42151200Y-172965000I0J-326200D01*
G01*
X42151200Y-175965000D01*
G75*
G02*
X41825000Y-176291200I-326200J0D01*
G01*
G37*
G36*
G01*
X50923250Y-165544800D02*
X51873250Y-165544800D01*
G75*
G02*
X52199450Y-165871000I0J-326200D01*
G01*
X52199450Y-166371000D01*
G75*
G02*
X51873250Y-166697200I-326200J0D01*
G01*
X50923250Y-166697200D01*
G75*
G02*
X50597050Y-166371000I0J326200D01*
G01*
X50597050Y-165871000D01*
G75*
G02*
X50923250Y-165544800I326200J0D01*
G01*
G37*
G36*
G01*
X50923250Y-167444800D02*
X51873250Y-167444800D01*
G75*
G02*
X52199450Y-167771000I0J-326200D01*
G01*
X52199450Y-168271000D01*
G75*
G02*
X51873250Y-168597200I-326200J0D01*
G01*
X50923250Y-168597200D01*
G75*
G02*
X50597050Y-168271000I0J326200D01*
G01*
X50597050Y-167771000D01*
G75*
G02*
X50923250Y-167444800I326200J0D01*
G01*
G37*
G36*
G01*
X60532700Y-171717250D02*
X60532700Y-172617250D01*
G75*
G02*
X60206500Y-172943450I-326200J0D01*
G01*
X59681500Y-172943450D01*
G75*
G02*
X59355300Y-172617250I0J326200D01*
G01*
X59355300Y-171717250D01*
G75*
G02*
X59681500Y-171391050I326200J0D01*
G01*
X60206500Y-171391050D01*
G75*
G02*
X60532700Y-171717250I0J-326200D01*
G01*
G37*
G36*
G01*
X58707700Y-171717250D02*
X58707700Y-172617250D01*
G75*
G02*
X58381500Y-172943450I-326200J0D01*
G01*
X57856500Y-172943450D01*
G75*
G02*
X57530300Y-172617250I0J326200D01*
G01*
X57530300Y-171717250D01*
G75*
G02*
X57856500Y-171391050I326200J0D01*
G01*
X58381500Y-171391050D01*
G75*
G02*
X58707700Y-171717250I0J-326200D01*
G01*
G37*
D10*
X29718000Y-187452000D03*
X29718000Y-157988000D03*
G36*
G01*
X34255000Y-171086200D02*
X33055000Y-171086200D01*
G75*
G02*
X32978800Y-171010000I0J76200D01*
G01*
X32978800Y-170110000D01*
G75*
G02*
X33055000Y-170033800I76200J0D01*
G01*
X34255000Y-170033800D01*
G75*
G02*
X34331200Y-170110000I0J-76200D01*
G01*
X34331200Y-171010000D01*
G75*
G02*
X34255000Y-171086200I-76200J0D01*
G01*
G37*
G36*
G01*
X34255000Y-167786200D02*
X33055000Y-167786200D01*
G75*
G02*
X32978800Y-167710000I0J76200D01*
G01*
X32978800Y-166810000D01*
G75*
G02*
X33055000Y-166733800I76200J0D01*
G01*
X34255000Y-166733800D01*
G75*
G02*
X34331200Y-166810000I0J-76200D01*
G01*
X34331200Y-167710000D01*
G75*
G02*
X34255000Y-167786200I-76200J0D01*
G01*
G37*
G36*
G01*
X51471000Y-158430000D02*
X51471000Y-159954000D01*
G75*
G02*
X51369000Y-160056000I-102000J0D01*
G01*
X49845000Y-160056000D01*
G75*
G02*
X49743000Y-159954000I0J102000D01*
G01*
X49743000Y-158430000D01*
G75*
G02*
X49845000Y-158328000I102000J0D01*
G01*
X51369000Y-158328000D01*
G75*
G02*
X51471000Y-158430000I0J-102000D01*
G01*
G37*
D14*
X37907000Y-159192000D03*
G36*
G01*
X39151000Y-166733800D02*
X40351000Y-166733800D01*
G75*
G02*
X40427200Y-166810000I0J-76200D01*
G01*
X40427200Y-167710000D01*
G75*
G02*
X40351000Y-167786200I-76200J0D01*
G01*
X39151000Y-167786200D01*
G75*
G02*
X39074800Y-167710000I0J76200D01*
G01*
X39074800Y-166810000D01*
G75*
G02*
X39151000Y-166733800I76200J0D01*
G01*
G37*
G36*
G01*
X39151000Y-170033800D02*
X40351000Y-170033800D01*
G75*
G02*
X40427200Y-170110000I0J-76200D01*
G01*
X40427200Y-171010000D01*
G75*
G02*
X40351000Y-171086200I-76200J0D01*
G01*
X39151000Y-171086200D01*
G75*
G02*
X39074800Y-171010000I0J76200D01*
G01*
X39074800Y-170110000D01*
G75*
G02*
X39151000Y-170033800I76200J0D01*
G01*
G37*
G36*
G01*
X45721250Y-165319800D02*
X46021250Y-165319800D01*
G75*
G02*
X46247450Y-165546000I0J-226200D01*
G01*
X46247450Y-166721000D01*
G75*
G02*
X46021250Y-166947200I-226200J0D01*
G01*
X45721250Y-166947200D01*
G75*
G02*
X45495050Y-166721000I0J226200D01*
G01*
X45495050Y-165546000D01*
G75*
G02*
X45721250Y-165319800I226200J0D01*
G01*
G37*
G36*
G01*
X43821250Y-165319800D02*
X44121250Y-165319800D01*
G75*
G02*
X44347450Y-165546000I0J-226200D01*
G01*
X44347450Y-166721000D01*
G75*
G02*
X44121250Y-166947200I-226200J0D01*
G01*
X43821250Y-166947200D01*
G75*
G02*
X43595050Y-166721000I0J226200D01*
G01*
X43595050Y-165546000D01*
G75*
G02*
X43821250Y-165319800I226200J0D01*
G01*
G37*
G36*
G01*
X44771250Y-167194800D02*
X45071250Y-167194800D01*
G75*
G02*
X45297450Y-167421000I0J-226200D01*
G01*
X45297450Y-168596000D01*
G75*
G02*
X45071250Y-168822200I-226200J0D01*
G01*
X44771250Y-168822200D01*
G75*
G02*
X44545050Y-168596000I0J226200D01*
G01*
X44545050Y-167421000D01*
G75*
G02*
X44771250Y-167194800I226200J0D01*
G01*
G37*
G36*
G01*
X56607700Y-171935000D02*
X56607700Y-172235000D01*
G75*
G02*
X56381500Y-172461200I-226200J0D01*
G01*
X55356500Y-172461200D01*
G75*
G02*
X55130300Y-172235000I0J226200D01*
G01*
X55130300Y-171935000D01*
G75*
G02*
X55356500Y-171708800I226200J0D01*
G01*
X56381500Y-171708800D01*
G75*
G02*
X56607700Y-171935000I0J-226200D01*
G01*
G37*
G36*
G01*
X56607700Y-170985000D02*
X56607700Y-171285000D01*
G75*
G02*
X56381500Y-171511200I-226200J0D01*
G01*
X55356500Y-171511200D01*
G75*
G02*
X55130300Y-171285000I0J226200D01*
G01*
X55130300Y-170985000D01*
G75*
G02*
X55356500Y-170758800I226200J0D01*
G01*
X56381500Y-170758800D01*
G75*
G02*
X56607700Y-170985000I0J-226200D01*
G01*
G37*
G36*
G01*
X56607700Y-170035000D02*
X56607700Y-170335000D01*
G75*
G02*
X56381500Y-170561200I-226200J0D01*
G01*
X55356500Y-170561200D01*
G75*
G02*
X55130300Y-170335000I0J226200D01*
G01*
X55130300Y-170035000D01*
G75*
G02*
X55356500Y-169808800I226200J0D01*
G01*
X56381500Y-169808800D01*
G75*
G02*
X56607700Y-170035000I0J-226200D01*
G01*
G37*
G36*
G01*
X54332700Y-170035000D02*
X54332700Y-170335000D01*
G75*
G02*
X54106500Y-170561200I-226200J0D01*
G01*
X53081500Y-170561200D01*
G75*
G02*
X52855300Y-170335000I0J226200D01*
G01*
X52855300Y-170035000D01*
G75*
G02*
X53081500Y-169808800I226200J0D01*
G01*
X54106500Y-169808800D01*
G75*
G02*
X54332700Y-170035000I0J-226200D01*
G01*
G37*
G36*
G01*
X54332700Y-171935000D02*
X54332700Y-172235000D01*
G75*
G02*
X54106500Y-172461200I-226200J0D01*
G01*
X53081500Y-172461200D01*
G75*
G02*
X52855300Y-172235000I0J226200D01*
G01*
X52855300Y-171935000D01*
G75*
G02*
X53081500Y-171708800I226200J0D01*
G01*
X54106500Y-171708800D01*
G75*
G02*
X54332700Y-171935000I0J-226200D01*
G01*
G37*
D15*
X48387000Y-177800000D03*
X47371000Y-172720000D03*
X49403000Y-172720000D03*
D16*
X49022000Y-176530000D03*
X47752000Y-176530000D03*
X49022000Y-175260000D03*
X47752000Y-175260000D03*
X49022000Y-173990000D03*
X47752000Y-173990000D03*
G36*
G01*
X60557700Y-174359250D02*
X60557700Y-175309250D01*
G75*
G02*
X60231500Y-175635450I-326200J0D01*
G01*
X59731500Y-175635450D01*
G75*
G02*
X59405300Y-175309250I0J326200D01*
G01*
X59405300Y-174359250D01*
G75*
G02*
X59731500Y-174033050I326200J0D01*
G01*
X60231500Y-174033050D01*
G75*
G02*
X60557700Y-174359250I0J-326200D01*
G01*
G37*
G36*
G01*
X58657700Y-174359250D02*
X58657700Y-175309250D01*
G75*
G02*
X58331500Y-175635450I-326200J0D01*
G01*
X57831500Y-175635450D01*
G75*
G02*
X57505300Y-175309250I0J326200D01*
G01*
X57505300Y-174359250D01*
G75*
G02*
X57831500Y-174033050I326200J0D01*
G01*
X58331500Y-174033050D01*
G75*
G02*
X58657700Y-174359250I0J-326200D01*
G01*
G37*
G36*
G01*
X65046800Y-185489000D02*
X65046800Y-184589000D01*
G75*
G02*
X65373000Y-184262800I326200J0D01*
G01*
X65898000Y-184262800D01*
G75*
G02*
X66224200Y-184589000I0J-326200D01*
G01*
X66224200Y-185489000D01*
G75*
G02*
X65898000Y-185815200I-326200J0D01*
G01*
X65373000Y-185815200D01*
G75*
G02*
X65046800Y-185489000I0J326200D01*
G01*
G37*
G36*
G01*
X66871800Y-185489000D02*
X66871800Y-184589000D01*
G75*
G02*
X67198000Y-184262800I326200J0D01*
G01*
X67723000Y-184262800D01*
G75*
G02*
X68049200Y-184589000I0J-326200D01*
G01*
X68049200Y-185489000D01*
G75*
G02*
X67723000Y-185815200I-326200J0D01*
G01*
X67198000Y-185815200D01*
G75*
G02*
X66871800Y-185489000I0J326200D01*
G01*
G37*
G36*
G01*
X65046800Y-188035250D02*
X65046800Y-187122750D01*
G75*
G02*
X65366750Y-186802800I319950J0D01*
G01*
X65854250Y-186802800D01*
G75*
G02*
X66174200Y-187122750I0J-319950D01*
G01*
X66174200Y-188035250D01*
G75*
G02*
X65854250Y-188355200I-319950J0D01*
G01*
X65366750Y-188355200D01*
G75*
G02*
X65046800Y-188035250I0J319950D01*
G01*
G37*
G36*
G01*
X66921800Y-188035250D02*
X66921800Y-187122750D01*
G75*
G02*
X67241750Y-186802800I319950J0D01*
G01*
X67729250Y-186802800D01*
G75*
G02*
X68049200Y-187122750I0J-319950D01*
G01*
X68049200Y-188035250D01*
G75*
G02*
X67729250Y-188355200I-319950J0D01*
G01*
X67241750Y-188355200D01*
G75*
G02*
X66921800Y-188035250I0J319950D01*
G01*
G37*
G36*
G01*
X65468500Y-180568600D02*
X64071500Y-180568600D01*
G75*
G02*
X63995300Y-180492400I0J76200D01*
G01*
X63995300Y-178790600D01*
G75*
G02*
X64071500Y-178714400I76200J0D01*
G01*
X65468500Y-178714400D01*
G75*
G02*
X65544700Y-178790600I0J-76200D01*
G01*
X65544700Y-180492400D01*
G75*
G02*
X65468500Y-180568600I-76200J0D01*
G01*
G37*
G36*
G01*
X68008500Y-180568600D02*
X66611500Y-180568600D01*
G75*
G02*
X66535300Y-180492400I0J76200D01*
G01*
X66535300Y-178790600D01*
G75*
G02*
X66611500Y-178714400I76200J0D01*
G01*
X68008500Y-178714400D01*
G75*
G02*
X68084700Y-178790600I0J-76200D01*
G01*
X68084700Y-180492400D01*
G75*
G02*
X68008500Y-180568600I-76200J0D01*
G01*
G37*
G36*
G01*
X68008500Y-171551600D02*
X66611500Y-171551600D01*
G75*
G02*
X66535300Y-171475400I0J76200D01*
G01*
X66535300Y-169773600D01*
G75*
G02*
X66611500Y-169697400I76200J0D01*
G01*
X68008500Y-169697400D01*
G75*
G02*
X68084700Y-169773600I0J-76200D01*
G01*
X68084700Y-171475400D01*
G75*
G02*
X68008500Y-171551600I-76200J0D01*
G01*
G37*
G36*
G01*
X65468500Y-171551600D02*
X64071500Y-171551600D01*
G75*
G02*
X63995300Y-171475400I0J76200D01*
G01*
X63995300Y-169773600D01*
G75*
G02*
X64071500Y-169697400I76200J0D01*
G01*
X65468500Y-169697400D01*
G75*
G02*
X65544700Y-169773600I0J-76200D01*
G01*
X65544700Y-171475400D01*
G75*
G02*
X65468500Y-171551600I-76200J0D01*
G01*
G37*
G36*
G01*
X63752000Y-157597000D02*
X62648000Y-157597000D01*
G75*
G02*
X62408000Y-157357000I0J240000D01*
G01*
X62408000Y-155533000D01*
G75*
G02*
X62648000Y-155293000I240000J0D01*
G01*
X63752000Y-155293000D01*
G75*
G02*
X63992000Y-155533000I0J-240000D01*
G01*
X63992000Y-157357000D01*
G75*
G02*
X63752000Y-157597000I-240000J0D01*
G01*
G37*
G36*
G01*
X63752000Y-166697000D02*
X62648000Y-166697000D01*
G75*
G02*
X62408000Y-166457000I0J240000D01*
G01*
X62408000Y-164633000D01*
G75*
G02*
X62648000Y-164393000I240000J0D01*
G01*
X63752000Y-164393000D01*
G75*
G02*
X63992000Y-164633000I0J-240000D01*
G01*
X63992000Y-166457000D01*
G75*
G02*
X63752000Y-166697000I-240000J0D01*
G01*
G37*
G36*
G01*
X59272000Y-157597000D02*
X58168000Y-157597000D01*
G75*
G02*
X57928000Y-157357000I0J240000D01*
G01*
X57928000Y-155533000D01*
G75*
G02*
X58168000Y-155293000I240000J0D01*
G01*
X59272000Y-155293000D01*
G75*
G02*
X59512000Y-155533000I0J-240000D01*
G01*
X59512000Y-157357000D01*
G75*
G02*
X59272000Y-157597000I-240000J0D01*
G01*
G37*
G36*
G01*
X59272000Y-166697000D02*
X58168000Y-166697000D01*
G75*
G02*
X57928000Y-166457000I0J240000D01*
G01*
X57928000Y-164633000D01*
G75*
G02*
X58168000Y-164393000I240000J0D01*
G01*
X59272000Y-164393000D01*
G75*
G02*
X59512000Y-164633000I0J-240000D01*
G01*
X59512000Y-166457000D01*
G75*
G02*
X59272000Y-166697000I-240000J0D01*
G01*
G37*
M02*
