M48
INCH,TZ
T1C0.0120
T2C0.0299
T3C0.0400
T4C0.0512
T5C0.1260
%
G90
G05
T1
X15500Y-68350
X15500Y-68700
X15500Y-69050
X16100Y-73400
X16100Y-73750
X16100Y-74100
X16450Y-74600
X16850Y-74600
X17000Y-68350
X17000Y-68700
X17000Y-69050
X17250Y-74600
X17600Y-73400
X17600Y-73750
X17600Y-74100
X18000Y-69000
X18000Y-71900
X18250Y-72300
X18350Y-69000
X19350Y-72300
X19550Y-70650
X19750Y-68500
X19750Y-69300
X19750Y-72050
X21498Y-67376
X21750Y-72050
X21824Y-68305
X22000Y-69450
X22350Y-69800
X22675Y-70125
X23100Y-62300
X23100Y-64500
X23600Y-67100
X23900Y-70150
X26500Y-71538
X26500Y-71938
X28750Y-69750
X28900Y-68150
X29100Y-69750
X29200Y-68150
X29444Y-69750
X29500Y-68150
X34350Y-64850
X35200Y-65200
T2
X30614Y-69942
X30636Y-67058
X31114Y-68942
X31136Y-66058
X31614Y-69942
X31636Y-67058
X32114Y-68942
X32136Y-66058
X32614Y-69942
X32636Y-67058
X33114Y-68942
X33136Y-66058
X33614Y-69942
X33636Y-67058
X34114Y-68942
X34136Y-66058
T3
X14924Y-62674
X19924Y-62674
T4
X12782Y-69016
X12782Y-70984
T5
X11700Y-62200
X11700Y-73800
X37300Y-62200
X37300Y-73800
T0
M30
