G04 #@! TF.GenerationSoftware,KiCad,Pcbnew,6.0.2+dfsg-1*
G04 #@! TF.CreationDate,2024-04-05T20:58:32-06:00*
G04 #@! TF.ProjectId,mss-crossover,6d73732d-6372-46f7-9373-6f7665722e6b,rev?*
G04 #@! TF.SameCoordinates,Original*
G04 #@! TF.FileFunction,Paste,Top*
G04 #@! TF.FilePolarity,Positive*
%FSLAX46Y46*%
G04 Gerber Fmt 4.6, Leading zero omitted, Abs format (unit mm)*
G04 Created by KiCad (PCBNEW 6.0.2+dfsg-1) date 2024-04-05 20:58:32*
%MOMM*%
%LPD*%
G01*
G04 APERTURE LIST*
%ADD10R,1.800000X2.500000*%
%ADD11R,1.200000X0.900000*%
%ADD12R,1.700000X0.650000*%
%ADD13R,0.550000X1.300000*%
%ADD14R,1.397000X1.701800*%
G04 APERTURE END LIST*
G36*
G01*
X53033000Y-175354000D02*
X53033000Y-174404000D01*
G75*
G02*
X53283000Y-174154000I250000J0D01*
G01*
X53783000Y-174154000D01*
G75*
G02*
X54033000Y-174404000I0J-250000D01*
G01*
X54033000Y-175354000D01*
G75*
G02*
X53783000Y-175604000I-250000J0D01*
G01*
X53283000Y-175604000D01*
G75*
G02*
X53033000Y-175354000I0J250000D01*
G01*
G37*
G36*
G01*
X54933000Y-175354000D02*
X54933000Y-174404000D01*
G75*
G02*
X55183000Y-174154000I250000J0D01*
G01*
X55683000Y-174154000D01*
G75*
G02*
X55933000Y-174404000I0J-250000D01*
G01*
X55933000Y-175354000D01*
G75*
G02*
X55683000Y-175604000I-250000J0D01*
G01*
X55183000Y-175604000D01*
G75*
G02*
X54933000Y-175354000I0J250000D01*
G01*
G37*
D10*
X71374000Y-173133000D03*
X71374000Y-177133000D03*
G36*
G01*
X57376000Y-185489000D02*
X57376000Y-184589000D01*
G75*
G02*
X57626000Y-184339000I250000J0D01*
G01*
X58151000Y-184339000D01*
G75*
G02*
X58401000Y-184589000I0J-250000D01*
G01*
X58401000Y-185489000D01*
G75*
G02*
X58151000Y-185739000I-250000J0D01*
G01*
X57626000Y-185739000D01*
G75*
G02*
X57376000Y-185489000I0J250000D01*
G01*
G37*
G36*
G01*
X59201000Y-185489000D02*
X59201000Y-184589000D01*
G75*
G02*
X59451000Y-184339000I250000J0D01*
G01*
X59976000Y-184339000D01*
G75*
G02*
X60226000Y-184589000I0J-250000D01*
G01*
X60226000Y-185489000D01*
G75*
G02*
X59976000Y-185739000I-250000J0D01*
G01*
X59451000Y-185739000D01*
G75*
G02*
X59201000Y-185489000I0J250000D01*
G01*
G37*
G36*
G01*
X66322000Y-182049000D02*
X66322000Y-182949000D01*
G75*
G02*
X66072000Y-183199000I-250000J0D01*
G01*
X65547000Y-183199000D01*
G75*
G02*
X65297000Y-182949000I0J250000D01*
G01*
X65297000Y-182049000D01*
G75*
G02*
X65547000Y-181799000I250000J0D01*
G01*
X66072000Y-181799000D01*
G75*
G02*
X66322000Y-182049000I0J-250000D01*
G01*
G37*
G36*
G01*
X64497000Y-182049000D02*
X64497000Y-182949000D01*
G75*
G02*
X64247000Y-183199000I-250000J0D01*
G01*
X63722000Y-183199000D01*
G75*
G02*
X63472000Y-182949000I0J250000D01*
G01*
X63472000Y-182049000D01*
G75*
G02*
X63722000Y-181799000I250000J0D01*
G01*
X64247000Y-181799000D01*
G75*
G02*
X64497000Y-182049000I0J-250000D01*
G01*
G37*
G36*
G01*
X50391000Y-188035250D02*
X50391000Y-187122750D01*
G75*
G02*
X50634750Y-186879000I243750J0D01*
G01*
X51122250Y-186879000D01*
G75*
G02*
X51366000Y-187122750I0J-243750D01*
G01*
X51366000Y-188035250D01*
G75*
G02*
X51122250Y-188279000I-243750J0D01*
G01*
X50634750Y-188279000D01*
G75*
G02*
X50391000Y-188035250I0J243750D01*
G01*
G37*
G36*
G01*
X52266000Y-188035250D02*
X52266000Y-187122750D01*
G75*
G02*
X52509750Y-186879000I243750J0D01*
G01*
X52997250Y-186879000D01*
G75*
G02*
X53241000Y-187122750I0J-243750D01*
G01*
X53241000Y-188035250D01*
G75*
G02*
X52997250Y-188279000I-243750J0D01*
G01*
X52509750Y-188279000D01*
G75*
G02*
X52266000Y-188035250I0J243750D01*
G01*
G37*
G36*
G01*
X53241000Y-184589000D02*
X53241000Y-185489000D01*
G75*
G02*
X52991000Y-185739000I-250000J0D01*
G01*
X52466000Y-185739000D01*
G75*
G02*
X52216000Y-185489000I0J250000D01*
G01*
X52216000Y-184589000D01*
G75*
G02*
X52466000Y-184339000I250000J0D01*
G01*
X52991000Y-184339000D01*
G75*
G02*
X53241000Y-184589000I0J-250000D01*
G01*
G37*
G36*
G01*
X51416000Y-184589000D02*
X51416000Y-185489000D01*
G75*
G02*
X51166000Y-185739000I-250000J0D01*
G01*
X50641000Y-185739000D01*
G75*
G02*
X50391000Y-185489000I0J250000D01*
G01*
X50391000Y-184589000D01*
G75*
G02*
X50641000Y-184339000I250000J0D01*
G01*
X51166000Y-184339000D01*
G75*
G02*
X51416000Y-184589000I0J-250000D01*
G01*
G37*
D11*
X36703000Y-170560000D03*
X36703000Y-167260000D03*
G36*
G01*
X57376000Y-188035250D02*
X57376000Y-187122750D01*
G75*
G02*
X57619750Y-186879000I243750J0D01*
G01*
X58107250Y-186879000D01*
G75*
G02*
X58351000Y-187122750I0J-243750D01*
G01*
X58351000Y-188035250D01*
G75*
G02*
X58107250Y-188279000I-243750J0D01*
G01*
X57619750Y-188279000D01*
G75*
G02*
X57376000Y-188035250I0J243750D01*
G01*
G37*
G36*
G01*
X59251000Y-188035250D02*
X59251000Y-187122750D01*
G75*
G02*
X59494750Y-186879000I243750J0D01*
G01*
X59982250Y-186879000D01*
G75*
G02*
X60226000Y-187122750I0J-243750D01*
G01*
X60226000Y-188035250D01*
G75*
G02*
X59982250Y-188279000I-243750J0D01*
G01*
X59494750Y-188279000D01*
G75*
G02*
X59251000Y-188035250I0J243750D01*
G01*
G37*
G36*
G01*
X62410000Y-168435000D02*
X62410000Y-169385000D01*
G75*
G02*
X62160000Y-169635000I-250000J0D01*
G01*
X61660000Y-169635000D01*
G75*
G02*
X61410000Y-169385000I0J250000D01*
G01*
X61410000Y-168435000D01*
G75*
G02*
X61660000Y-168185000I250000J0D01*
G01*
X62160000Y-168185000D01*
G75*
G02*
X62410000Y-168435000I0J-250000D01*
G01*
G37*
G36*
G01*
X60510000Y-168435000D02*
X60510000Y-169385000D01*
G75*
G02*
X60260000Y-169635000I-250000J0D01*
G01*
X59760000Y-169635000D01*
G75*
G02*
X59510000Y-169385000I0J250000D01*
G01*
X59510000Y-168435000D01*
G75*
G02*
X59760000Y-168185000I250000J0D01*
G01*
X60260000Y-168185000D01*
G75*
G02*
X60510000Y-168435000I0J-250000D01*
G01*
G37*
G36*
G01*
X71748000Y-164660000D02*
X71748000Y-166810000D01*
G75*
G02*
X71498000Y-167060000I-250000J0D01*
G01*
X70873000Y-167060000D01*
G75*
G02*
X70623000Y-166810000I0J250000D01*
G01*
X70623000Y-164660000D01*
G75*
G02*
X70873000Y-164410000I250000J0D01*
G01*
X71498000Y-164410000D01*
G75*
G02*
X71748000Y-164660000I0J-250000D01*
G01*
G37*
G36*
G01*
X68823000Y-164660000D02*
X68823000Y-166810000D01*
G75*
G02*
X68573000Y-167060000I-250000J0D01*
G01*
X67948000Y-167060000D01*
G75*
G02*
X67698000Y-166810000I0J250000D01*
G01*
X67698000Y-164660000D01*
G75*
G02*
X67948000Y-164410000I250000J0D01*
G01*
X68573000Y-164410000D01*
G75*
G02*
X68823000Y-164660000I0J-250000D01*
G01*
G37*
D12*
X59149000Y-181991000D03*
X59149000Y-180721000D03*
X59149000Y-179451000D03*
X59149000Y-178181000D03*
X51849000Y-178181000D03*
X51849000Y-179451000D03*
X51849000Y-180721000D03*
X51849000Y-181991000D03*
G36*
G01*
X48964000Y-168496000D02*
X48064000Y-168496000D01*
G75*
G02*
X47814000Y-168246000I0J250000D01*
G01*
X47814000Y-167721000D01*
G75*
G02*
X48064000Y-167471000I250000J0D01*
G01*
X48964000Y-167471000D01*
G75*
G02*
X49214000Y-167721000I0J-250000D01*
G01*
X49214000Y-168246000D01*
G75*
G02*
X48964000Y-168496000I-250000J0D01*
G01*
G37*
G36*
G01*
X48964000Y-166671000D02*
X48064000Y-166671000D01*
G75*
G02*
X47814000Y-166421000I0J250000D01*
G01*
X47814000Y-165896000D01*
G75*
G02*
X48064000Y-165646000I250000J0D01*
G01*
X48964000Y-165646000D01*
G75*
G02*
X49214000Y-165896000I0J-250000D01*
G01*
X49214000Y-166421000D01*
G75*
G02*
X48964000Y-166671000I-250000J0D01*
G01*
G37*
D11*
X30607000Y-167260000D03*
X30607000Y-170560000D03*
D13*
X44299000Y-184697500D03*
G36*
X41874000Y-188647500D02*
G01*
X41874000Y-186047500D01*
X42399000Y-185522500D01*
X42399000Y-184047500D01*
X43199000Y-184047500D01*
X43199000Y-185522500D01*
X43724000Y-186047500D01*
X43724000Y-188647500D01*
X41874000Y-188647500D01*
G37*
X41299000Y-184697500D03*
G36*
G01*
X47277000Y-184224000D02*
X48227000Y-184224000D01*
G75*
G02*
X48477000Y-184474000I0J-250000D01*
G01*
X48477000Y-184974000D01*
G75*
G02*
X48227000Y-185224000I-250000J0D01*
G01*
X47277000Y-185224000D01*
G75*
G02*
X47027000Y-184974000I0J250000D01*
G01*
X47027000Y-184474000D01*
G75*
G02*
X47277000Y-184224000I250000J0D01*
G01*
G37*
G36*
G01*
X47277000Y-186124000D02*
X48227000Y-186124000D01*
G75*
G02*
X48477000Y-186374000I0J-250000D01*
G01*
X48477000Y-186874000D01*
G75*
G02*
X48227000Y-187124000I-250000J0D01*
G01*
X47277000Y-187124000D01*
G75*
G02*
X47027000Y-186874000I0J250000D01*
G01*
X47027000Y-186374000D01*
G75*
G02*
X47277000Y-186124000I250000J0D01*
G01*
G37*
G36*
G01*
X41825000Y-181615000D02*
X40725000Y-181615000D01*
G75*
G02*
X40475000Y-181365000I0J250000D01*
G01*
X40475000Y-178365000D01*
G75*
G02*
X40725000Y-178115000I250000J0D01*
G01*
X41825000Y-178115000D01*
G75*
G02*
X42075000Y-178365000I0J-250000D01*
G01*
X42075000Y-181365000D01*
G75*
G02*
X41825000Y-181615000I-250000J0D01*
G01*
G37*
G36*
G01*
X41825000Y-176215000D02*
X40725000Y-176215000D01*
G75*
G02*
X40475000Y-175965000I0J250000D01*
G01*
X40475000Y-172965000D01*
G75*
G02*
X40725000Y-172715000I250000J0D01*
G01*
X41825000Y-172715000D01*
G75*
G02*
X42075000Y-172965000I0J-250000D01*
G01*
X42075000Y-175965000D01*
G75*
G02*
X41825000Y-176215000I-250000J0D01*
G01*
G37*
G36*
G01*
X50923250Y-165621000D02*
X51873250Y-165621000D01*
G75*
G02*
X52123250Y-165871000I0J-250000D01*
G01*
X52123250Y-166371000D01*
G75*
G02*
X51873250Y-166621000I-250000J0D01*
G01*
X50923250Y-166621000D01*
G75*
G02*
X50673250Y-166371000I0J250000D01*
G01*
X50673250Y-165871000D01*
G75*
G02*
X50923250Y-165621000I250000J0D01*
G01*
G37*
G36*
G01*
X50923250Y-167521000D02*
X51873250Y-167521000D01*
G75*
G02*
X52123250Y-167771000I0J-250000D01*
G01*
X52123250Y-168271000D01*
G75*
G02*
X51873250Y-168521000I-250000J0D01*
G01*
X50923250Y-168521000D01*
G75*
G02*
X50673250Y-168271000I0J250000D01*
G01*
X50673250Y-167771000D01*
G75*
G02*
X50923250Y-167521000I250000J0D01*
G01*
G37*
G36*
G01*
X60456500Y-171717250D02*
X60456500Y-172617250D01*
G75*
G02*
X60206500Y-172867250I-250000J0D01*
G01*
X59681500Y-172867250D01*
G75*
G02*
X59431500Y-172617250I0J250000D01*
G01*
X59431500Y-171717250D01*
G75*
G02*
X59681500Y-171467250I250000J0D01*
G01*
X60206500Y-171467250D01*
G75*
G02*
X60456500Y-171717250I0J-250000D01*
G01*
G37*
G36*
G01*
X58631500Y-171717250D02*
X58631500Y-172617250D01*
G75*
G02*
X58381500Y-172867250I-250000J0D01*
G01*
X57856500Y-172867250D01*
G75*
G02*
X57606500Y-172617250I0J250000D01*
G01*
X57606500Y-171717250D01*
G75*
G02*
X57856500Y-171467250I250000J0D01*
G01*
X58381500Y-171467250D01*
G75*
G02*
X58631500Y-171717250I0J-250000D01*
G01*
G37*
D11*
X33655000Y-170560000D03*
X33655000Y-167260000D03*
X39751000Y-167260000D03*
X39751000Y-170560000D03*
G36*
G01*
X45721250Y-165396000D02*
X46021250Y-165396000D01*
G75*
G02*
X46171250Y-165546000I0J-150000D01*
G01*
X46171250Y-166721000D01*
G75*
G02*
X46021250Y-166871000I-150000J0D01*
G01*
X45721250Y-166871000D01*
G75*
G02*
X45571250Y-166721000I0J150000D01*
G01*
X45571250Y-165546000D01*
G75*
G02*
X45721250Y-165396000I150000J0D01*
G01*
G37*
G36*
G01*
X43821250Y-165396000D02*
X44121250Y-165396000D01*
G75*
G02*
X44271250Y-165546000I0J-150000D01*
G01*
X44271250Y-166721000D01*
G75*
G02*
X44121250Y-166871000I-150000J0D01*
G01*
X43821250Y-166871000D01*
G75*
G02*
X43671250Y-166721000I0J150000D01*
G01*
X43671250Y-165546000D01*
G75*
G02*
X43821250Y-165396000I150000J0D01*
G01*
G37*
G36*
G01*
X44771250Y-167271000D02*
X45071250Y-167271000D01*
G75*
G02*
X45221250Y-167421000I0J-150000D01*
G01*
X45221250Y-168596000D01*
G75*
G02*
X45071250Y-168746000I-150000J0D01*
G01*
X44771250Y-168746000D01*
G75*
G02*
X44621250Y-168596000I0J150000D01*
G01*
X44621250Y-167421000D01*
G75*
G02*
X44771250Y-167271000I150000J0D01*
G01*
G37*
G36*
G01*
X56531500Y-171935000D02*
X56531500Y-172235000D01*
G75*
G02*
X56381500Y-172385000I-150000J0D01*
G01*
X55356500Y-172385000D01*
G75*
G02*
X55206500Y-172235000I0J150000D01*
G01*
X55206500Y-171935000D01*
G75*
G02*
X55356500Y-171785000I150000J0D01*
G01*
X56381500Y-171785000D01*
G75*
G02*
X56531500Y-171935000I0J-150000D01*
G01*
G37*
G36*
G01*
X56531500Y-170985000D02*
X56531500Y-171285000D01*
G75*
G02*
X56381500Y-171435000I-150000J0D01*
G01*
X55356500Y-171435000D01*
G75*
G02*
X55206500Y-171285000I0J150000D01*
G01*
X55206500Y-170985000D01*
G75*
G02*
X55356500Y-170835000I150000J0D01*
G01*
X56381500Y-170835000D01*
G75*
G02*
X56531500Y-170985000I0J-150000D01*
G01*
G37*
G36*
G01*
X56531500Y-170035000D02*
X56531500Y-170335000D01*
G75*
G02*
X56381500Y-170485000I-150000J0D01*
G01*
X55356500Y-170485000D01*
G75*
G02*
X55206500Y-170335000I0J150000D01*
G01*
X55206500Y-170035000D01*
G75*
G02*
X55356500Y-169885000I150000J0D01*
G01*
X56381500Y-169885000D01*
G75*
G02*
X56531500Y-170035000I0J-150000D01*
G01*
G37*
G36*
G01*
X54256500Y-170035000D02*
X54256500Y-170335000D01*
G75*
G02*
X54106500Y-170485000I-150000J0D01*
G01*
X53081500Y-170485000D01*
G75*
G02*
X52931500Y-170335000I0J150000D01*
G01*
X52931500Y-170035000D01*
G75*
G02*
X53081500Y-169885000I150000J0D01*
G01*
X54106500Y-169885000D01*
G75*
G02*
X54256500Y-170035000I0J-150000D01*
G01*
G37*
G36*
G01*
X54256500Y-171935000D02*
X54256500Y-172235000D01*
G75*
G02*
X54106500Y-172385000I-150000J0D01*
G01*
X53081500Y-172385000D01*
G75*
G02*
X52931500Y-172235000I0J150000D01*
G01*
X52931500Y-171935000D01*
G75*
G02*
X53081500Y-171785000I150000J0D01*
G01*
X54106500Y-171785000D01*
G75*
G02*
X54256500Y-171935000I0J-150000D01*
G01*
G37*
G36*
G01*
X60481500Y-174359250D02*
X60481500Y-175309250D01*
G75*
G02*
X60231500Y-175559250I-250000J0D01*
G01*
X59731500Y-175559250D01*
G75*
G02*
X59481500Y-175309250I0J250000D01*
G01*
X59481500Y-174359250D01*
G75*
G02*
X59731500Y-174109250I250000J0D01*
G01*
X60231500Y-174109250D01*
G75*
G02*
X60481500Y-174359250I0J-250000D01*
G01*
G37*
G36*
G01*
X58581500Y-174359250D02*
X58581500Y-175309250D01*
G75*
G02*
X58331500Y-175559250I-250000J0D01*
G01*
X57831500Y-175559250D01*
G75*
G02*
X57581500Y-175309250I0J250000D01*
G01*
X57581500Y-174359250D01*
G75*
G02*
X57831500Y-174109250I250000J0D01*
G01*
X58331500Y-174109250D01*
G75*
G02*
X58581500Y-174359250I0J-250000D01*
G01*
G37*
G36*
G01*
X65123000Y-185489000D02*
X65123000Y-184589000D01*
G75*
G02*
X65373000Y-184339000I250000J0D01*
G01*
X65898000Y-184339000D01*
G75*
G02*
X66148000Y-184589000I0J-250000D01*
G01*
X66148000Y-185489000D01*
G75*
G02*
X65898000Y-185739000I-250000J0D01*
G01*
X65373000Y-185739000D01*
G75*
G02*
X65123000Y-185489000I0J250000D01*
G01*
G37*
G36*
G01*
X66948000Y-185489000D02*
X66948000Y-184589000D01*
G75*
G02*
X67198000Y-184339000I250000J0D01*
G01*
X67723000Y-184339000D01*
G75*
G02*
X67973000Y-184589000I0J-250000D01*
G01*
X67973000Y-185489000D01*
G75*
G02*
X67723000Y-185739000I-250000J0D01*
G01*
X67198000Y-185739000D01*
G75*
G02*
X66948000Y-185489000I0J250000D01*
G01*
G37*
G36*
G01*
X65123000Y-188035250D02*
X65123000Y-187122750D01*
G75*
G02*
X65366750Y-186879000I243750J0D01*
G01*
X65854250Y-186879000D01*
G75*
G02*
X66098000Y-187122750I0J-243750D01*
G01*
X66098000Y-188035250D01*
G75*
G02*
X65854250Y-188279000I-243750J0D01*
G01*
X65366750Y-188279000D01*
G75*
G02*
X65123000Y-188035250I0J243750D01*
G01*
G37*
G36*
G01*
X66998000Y-188035250D02*
X66998000Y-187122750D01*
G75*
G02*
X67241750Y-186879000I243750J0D01*
G01*
X67729250Y-186879000D01*
G75*
G02*
X67973000Y-187122750I0J-243750D01*
G01*
X67973000Y-188035250D01*
G75*
G02*
X67729250Y-188279000I-243750J0D01*
G01*
X67241750Y-188279000D01*
G75*
G02*
X66998000Y-188035250I0J243750D01*
G01*
G37*
D14*
X64770000Y-179641500D03*
X67310000Y-179641500D03*
X67310000Y-170624500D03*
X64770000Y-170624500D03*
G36*
G01*
X63752000Y-157495000D02*
X62648000Y-157495000D01*
G75*
G02*
X62510000Y-157357000I0J138000D01*
G01*
X62510000Y-155533000D01*
G75*
G02*
X62648000Y-155395000I138000J0D01*
G01*
X63752000Y-155395000D01*
G75*
G02*
X63890000Y-155533000I0J-138000D01*
G01*
X63890000Y-157357000D01*
G75*
G02*
X63752000Y-157495000I-138000J0D01*
G01*
G37*
G36*
G01*
X63752000Y-166595000D02*
X62648000Y-166595000D01*
G75*
G02*
X62510000Y-166457000I0J138000D01*
G01*
X62510000Y-164633000D01*
G75*
G02*
X62648000Y-164495000I138000J0D01*
G01*
X63752000Y-164495000D01*
G75*
G02*
X63890000Y-164633000I0J-138000D01*
G01*
X63890000Y-166457000D01*
G75*
G02*
X63752000Y-166595000I-138000J0D01*
G01*
G37*
G36*
G01*
X59272000Y-157495000D02*
X58168000Y-157495000D01*
G75*
G02*
X58030000Y-157357000I0J138000D01*
G01*
X58030000Y-155533000D01*
G75*
G02*
X58168000Y-155395000I138000J0D01*
G01*
X59272000Y-155395000D01*
G75*
G02*
X59410000Y-155533000I0J-138000D01*
G01*
X59410000Y-157357000D01*
G75*
G02*
X59272000Y-157495000I-138000J0D01*
G01*
G37*
G36*
G01*
X59272000Y-166595000D02*
X58168000Y-166595000D01*
G75*
G02*
X58030000Y-166457000I0J138000D01*
G01*
X58030000Y-164633000D01*
G75*
G02*
X58168000Y-164495000I138000J0D01*
G01*
X59272000Y-164495000D01*
G75*
G02*
X59410000Y-164633000I0J-138000D01*
G01*
X59410000Y-166457000D01*
G75*
G02*
X59272000Y-166595000I-138000J0D01*
G01*
G37*
M02*
