G04 #@! TF.GenerationSoftware,KiCad,Pcbnew,6.0.2+dfsg-1*
G04 #@! TF.CreationDate,2024-04-05T20:58:32-06:00*
G04 #@! TF.ProjectId,mss-crossover,6d73732d-6372-46f7-9373-6f7665722e6b,rev?*
G04 #@! TF.SameCoordinates,Original*
G04 #@! TF.FileFunction,Legend,Bot*
G04 #@! TF.FilePolarity,Positive*
%FSLAX46Y46*%
G04 Gerber Fmt 4.6, Leading zero omitted, Abs format (unit mm)*
G04 Created by KiCad (PCBNEW 6.0.2+dfsg-1) date 2024-04-05 20:58:32*
%MOMM*%
%LPD*%
G01*
G04 APERTURE LIST*
%ADD10C,0.000000*%
%ADD11C,0.150000*%
%ADD12C,0.120000*%
G04 APERTURE END LIST*
D10*
G36*
X70076819Y-162142004D02*
G01*
X70091277Y-162143113D01*
X70105378Y-162145238D01*
X70112260Y-162146692D01*
X70119010Y-162148410D01*
X70127316Y-162150979D01*
X70135547Y-162153911D01*
X70143679Y-162157191D01*
X70151687Y-162160801D01*
X70159546Y-162164726D01*
X70167231Y-162168948D01*
X70174718Y-162173451D01*
X70181981Y-162178219D01*
X70188997Y-162183235D01*
X70195740Y-162188483D01*
X70202185Y-162193945D01*
X70208307Y-162199607D01*
X70214083Y-162205449D01*
X70219486Y-162211458D01*
X70224492Y-162217615D01*
X70229077Y-162223904D01*
X70248127Y-162251421D01*
X70435099Y-162252126D01*
X70622072Y-162252832D01*
X70926871Y-162640182D01*
X71232377Y-163026826D01*
X71232377Y-163892543D01*
X71268360Y-163923588D01*
X71277315Y-163931626D01*
X71285663Y-163939873D01*
X71293407Y-163948340D01*
X71300551Y-163957035D01*
X71307100Y-163965971D01*
X71313058Y-163975156D01*
X71318429Y-163984603D01*
X71323217Y-163994319D01*
X71327426Y-164004317D01*
X71331061Y-164014607D01*
X71334125Y-164025198D01*
X71336623Y-164036101D01*
X71338558Y-164047327D01*
X71339936Y-164058886D01*
X71340759Y-164070788D01*
X71341033Y-164083043D01*
X71340834Y-164094263D01*
X71340113Y-164105295D01*
X71338881Y-164116126D01*
X71337148Y-164126747D01*
X71334926Y-164137147D01*
X71332225Y-164147313D01*
X71329057Y-164157236D01*
X71325433Y-164166905D01*
X71321363Y-164176308D01*
X71316859Y-164185434D01*
X71311931Y-164194272D01*
X71306591Y-164202812D01*
X71300850Y-164211043D01*
X71294717Y-164218953D01*
X71288205Y-164226531D01*
X71281325Y-164233767D01*
X71274087Y-164240650D01*
X71266502Y-164247168D01*
X71258582Y-164253311D01*
X71250337Y-164259067D01*
X71241778Y-164264426D01*
X71232917Y-164269376D01*
X71223764Y-164273907D01*
X71214330Y-164278008D01*
X71204627Y-164281668D01*
X71194664Y-164284875D01*
X71184454Y-164287619D01*
X71174008Y-164289888D01*
X71163335Y-164291673D01*
X71152447Y-164292961D01*
X71141356Y-164293742D01*
X71130072Y-164294004D01*
X71115081Y-164293575D01*
X71100539Y-164292289D01*
X71086445Y-164290149D01*
X71072800Y-164287158D01*
X71059606Y-164283320D01*
X71046864Y-164278638D01*
X71034575Y-164273114D01*
X71022739Y-164266752D01*
X71011358Y-164259555D01*
X71000432Y-164251526D01*
X70989964Y-164242668D01*
X70979953Y-164232984D01*
X70970402Y-164222478D01*
X70961310Y-164211152D01*
X70952679Y-164199010D01*
X70944510Y-164186054D01*
X70940228Y-164177911D01*
X70936383Y-164168898D01*
X70932979Y-164159119D01*
X70930024Y-164148682D01*
X70927524Y-164137690D01*
X70925485Y-164126250D01*
X70923913Y-164114467D01*
X70922814Y-164102446D01*
X70922195Y-164090293D01*
X70922062Y-164078112D01*
X70922421Y-164066011D01*
X70923278Y-164054093D01*
X70924639Y-164042465D01*
X70926510Y-164031231D01*
X70928899Y-164020498D01*
X70931810Y-164010370D01*
X70934521Y-164003074D01*
X70937850Y-163995519D01*
X70941740Y-163987781D01*
X70946131Y-163979933D01*
X70950964Y-163972047D01*
X70956181Y-163964197D01*
X70961722Y-163956457D01*
X70967529Y-163948899D01*
X70973543Y-163941598D01*
X70979704Y-163934627D01*
X70985954Y-163928059D01*
X70992235Y-163921967D01*
X70998486Y-163916425D01*
X71004649Y-163911506D01*
X71010666Y-163907284D01*
X71016477Y-163903832D01*
X71034821Y-163893954D01*
X71034821Y-163102321D01*
X70779410Y-162779176D01*
X70523999Y-162456738D01*
X70384299Y-162456738D01*
X70330027Y-162457234D01*
X70306301Y-162457817D01*
X70285610Y-162458590D01*
X70268524Y-162459528D01*
X70255613Y-162460607D01*
X70247448Y-162461802D01*
X70245323Y-162462435D01*
X70244599Y-162463088D01*
X70244426Y-162464520D01*
X70243918Y-162466162D01*
X70243089Y-162468000D01*
X70241956Y-162470021D01*
X70240535Y-162472210D01*
X70238842Y-162474555D01*
X70234700Y-162479657D01*
X70229656Y-162485218D01*
X70223838Y-162491129D01*
X70217370Y-162497282D01*
X70210380Y-162503569D01*
X70202993Y-162509880D01*
X70195335Y-162516108D01*
X70187532Y-162522143D01*
X70179710Y-162527877D01*
X70171996Y-162533202D01*
X70164516Y-162538010D01*
X70157395Y-162542191D01*
X70150760Y-162545637D01*
X70140826Y-162549854D01*
X70130385Y-162553509D01*
X70119510Y-162556601D01*
X70108273Y-162559131D01*
X70096747Y-162561099D01*
X70085003Y-162562505D01*
X70073115Y-162563348D01*
X70061155Y-162563629D01*
X70049195Y-162563348D01*
X70037307Y-162562505D01*
X70025563Y-162561099D01*
X70014037Y-162559131D01*
X70002800Y-162556601D01*
X69991925Y-162553509D01*
X69981484Y-162549854D01*
X69971549Y-162545637D01*
X69959603Y-162539641D01*
X69948240Y-162533051D01*
X69937468Y-162525897D01*
X69927291Y-162518207D01*
X69917715Y-162510013D01*
X69908745Y-162501344D01*
X69900388Y-162492229D01*
X69892648Y-162482700D01*
X69885532Y-162472784D01*
X69879044Y-162462513D01*
X69873191Y-162451916D01*
X69867977Y-162441024D01*
X69863409Y-162429865D01*
X69859492Y-162418469D01*
X69856232Y-162406868D01*
X69853633Y-162395089D01*
X69851703Y-162383164D01*
X69850445Y-162371122D01*
X69849866Y-162358993D01*
X69849972Y-162346807D01*
X69850767Y-162334593D01*
X69852258Y-162322382D01*
X69854450Y-162310203D01*
X69857349Y-162298087D01*
X69860959Y-162286062D01*
X69865287Y-162274159D01*
X69870339Y-162262408D01*
X69876119Y-162250838D01*
X69882633Y-162239479D01*
X69889888Y-162228362D01*
X69897888Y-162217516D01*
X69906638Y-162206971D01*
X69911018Y-162202153D01*
X69915682Y-162197492D01*
X69920616Y-162192991D01*
X69925805Y-162188654D01*
X69936898Y-162180485D01*
X69948850Y-162173016D01*
X69961550Y-162166274D01*
X69974888Y-162160288D01*
X69988753Y-162155088D01*
X70003035Y-162150703D01*
X70017622Y-162147160D01*
X70032405Y-162144491D01*
X70047272Y-162142722D01*
X70062114Y-162141883D01*
X70076819Y-162142004D01*
G37*
G36*
X61305210Y-164728626D02*
G01*
X61305210Y-164545182D01*
X61488655Y-164545182D01*
X64656600Y-164545182D01*
X64656600Y-158491516D01*
X61573322Y-158491516D01*
X61573322Y-159359349D01*
X63647656Y-159359349D01*
X63647656Y-160982127D01*
X62067211Y-160982127D01*
X62067211Y-161849960D01*
X63647656Y-161849960D01*
X63647656Y-163677349D01*
X61488655Y-163677349D01*
X61488655Y-164545182D01*
X61305210Y-164545182D01*
X61305210Y-163493904D01*
X63464211Y-163493904D01*
X63464211Y-162033404D01*
X61883766Y-162033404D01*
X61883766Y-160798682D01*
X63464211Y-160798682D01*
X63464211Y-159549849D01*
X61389877Y-159549849D01*
X61389877Y-158308071D01*
X64840044Y-158308071D01*
X64840044Y-164728626D01*
X61305210Y-164728626D01*
G37*
G36*
X69674771Y-163182539D02*
G01*
X69647159Y-163267068D01*
X69619002Y-163348025D01*
X69591961Y-163419821D01*
X69572780Y-163466415D01*
X69549374Y-163519392D01*
X69522941Y-163576338D01*
X69494682Y-163634839D01*
X69465794Y-163692479D01*
X69437477Y-163746846D01*
X69410929Y-163795524D01*
X69387349Y-163836099D01*
X69323678Y-163935481D01*
X69256499Y-164029629D01*
X69185827Y-164118532D01*
X69111675Y-164202183D01*
X69034060Y-164280570D01*
X68952994Y-164353685D01*
X68868493Y-164421520D01*
X68780571Y-164484063D01*
X68689243Y-164541307D01*
X68594522Y-164593241D01*
X68496424Y-164639857D01*
X68394963Y-164681145D01*
X68290153Y-164717095D01*
X68182009Y-164747700D01*
X68070546Y-164772948D01*
X67955777Y-164792832D01*
X67907959Y-164799208D01*
X67858552Y-164804580D01*
X67755697Y-164812334D01*
X67648658Y-164816136D01*
X67538882Y-164816027D01*
X67427816Y-164812049D01*
X67316908Y-164804242D01*
X67207603Y-164792648D01*
X67101349Y-164777309D01*
X66953878Y-164748226D01*
X66812427Y-164711100D01*
X66677198Y-164666107D01*
X66548392Y-164613422D01*
X66426209Y-164553222D01*
X66310849Y-164485681D01*
X66202513Y-164410976D01*
X66101401Y-164329282D01*
X66007714Y-164240775D01*
X65921652Y-164145631D01*
X65843417Y-164044025D01*
X65773207Y-163936133D01*
X65711225Y-163822131D01*
X65657670Y-163702195D01*
X65612743Y-163576499D01*
X65576644Y-163445221D01*
X65561147Y-163372882D01*
X65548047Y-163297253D01*
X65537428Y-163219275D01*
X65529372Y-163139892D01*
X65523961Y-163060046D01*
X65521280Y-162980679D01*
X65521349Y-162938808D01*
X65711052Y-162938808D01*
X65711126Y-163017544D01*
X65712706Y-163090988D01*
X65715839Y-163153915D01*
X65718004Y-163179801D01*
X65720577Y-163201099D01*
X65732323Y-163274075D01*
X65746148Y-163344878D01*
X65762081Y-163413563D01*
X65780152Y-163480190D01*
X65800390Y-163544816D01*
X65822822Y-163607499D01*
X65847479Y-163668296D01*
X65874388Y-163727267D01*
X65903580Y-163784468D01*
X65935083Y-163839957D01*
X65968925Y-163893793D01*
X66005137Y-163946033D01*
X66043746Y-163996735D01*
X66084782Y-164045957D01*
X66128273Y-164093757D01*
X66174249Y-164140193D01*
X66224389Y-164186545D01*
X66276651Y-164230617D01*
X66331043Y-164272411D01*
X66387570Y-164311930D01*
X66446238Y-164349174D01*
X66507054Y-164384147D01*
X66570024Y-164416850D01*
X66635154Y-164447286D01*
X66702450Y-164475456D01*
X66771918Y-164501363D01*
X66843566Y-164525008D01*
X66917398Y-164546394D01*
X66993421Y-164565523D01*
X67071641Y-164582397D01*
X67152065Y-164597018D01*
X67234699Y-164609387D01*
X67293219Y-164615752D01*
X67363000Y-164621018D01*
X67440156Y-164625076D01*
X67520802Y-164627820D01*
X67601051Y-164629141D01*
X67677016Y-164628933D01*
X67744813Y-164627088D01*
X67800555Y-164623498D01*
X67903713Y-164611706D01*
X68003917Y-164595632D01*
X68101191Y-164575263D01*
X68195556Y-164550584D01*
X68287035Y-164521581D01*
X68375651Y-164488239D01*
X68461428Y-164450543D01*
X68544387Y-164408481D01*
X68624551Y-164362035D01*
X68701943Y-164311194D01*
X68776586Y-164255941D01*
X68848503Y-164196263D01*
X68917716Y-164132144D01*
X68984248Y-164063571D01*
X69048122Y-163990529D01*
X69109360Y-163913004D01*
X69138616Y-163872914D01*
X69167362Y-163831268D01*
X69195566Y-163788133D01*
X69223197Y-163743571D01*
X69250225Y-163697650D01*
X69276618Y-163650434D01*
X69302346Y-163601988D01*
X69327377Y-163552377D01*
X69351680Y-163501666D01*
X69375225Y-163449921D01*
X69397980Y-163397207D01*
X69419915Y-163343588D01*
X69440998Y-163289129D01*
X69461198Y-163233897D01*
X69480485Y-163177956D01*
X69498827Y-163121371D01*
X69506949Y-163095280D01*
X69512872Y-163075631D01*
X69515045Y-163067919D01*
X69516711Y-163061455D01*
X69517886Y-163056117D01*
X69518583Y-163051785D01*
X69518817Y-163048338D01*
X69518602Y-163045654D01*
X69517953Y-163043614D01*
X69516885Y-163042095D01*
X69515411Y-163040977D01*
X69513547Y-163040140D01*
X69508705Y-163038821D01*
X69004144Y-162930606D01*
X68539271Y-162833505D01*
X68538885Y-162834100D01*
X68538265Y-162835591D01*
X68536383Y-162841067D01*
X68533740Y-162849553D01*
X68530452Y-162860668D01*
X68526635Y-162874032D01*
X68522404Y-162889265D01*
X68517876Y-162905986D01*
X68513166Y-162923815D01*
X68480657Y-163030139D01*
X68443065Y-163130704D01*
X68400599Y-163225327D01*
X68353468Y-163313822D01*
X68301880Y-163396004D01*
X68246044Y-163471689D01*
X68216599Y-163507036D01*
X68186169Y-163540690D01*
X68154783Y-163572627D01*
X68122464Y-163602824D01*
X68089241Y-163631258D01*
X68055138Y-163657905D01*
X68020182Y-163682743D01*
X67984399Y-163705749D01*
X67947815Y-163726898D01*
X67910456Y-163746169D01*
X67872348Y-163763538D01*
X67833517Y-163778982D01*
X67793990Y-163792477D01*
X67753793Y-163804001D01*
X67712951Y-163813531D01*
X67671491Y-163821043D01*
X67629438Y-163826515D01*
X67586819Y-163829923D01*
X67543661Y-163831243D01*
X67499988Y-163830454D01*
X67428978Y-163825015D01*
X67360496Y-163814852D01*
X67294675Y-163800072D01*
X67231645Y-163780779D01*
X67171539Y-163757079D01*
X67114486Y-163729078D01*
X67060619Y-163696880D01*
X67010068Y-163660592D01*
X66962965Y-163620318D01*
X66919441Y-163576165D01*
X66879628Y-163528237D01*
X66843656Y-163476641D01*
X66811657Y-163421480D01*
X66783763Y-163362861D01*
X66760103Y-163300890D01*
X66740810Y-163235671D01*
X66733459Y-163203554D01*
X66727278Y-163170790D01*
X66722263Y-163137510D01*
X66718409Y-163103842D01*
X66715713Y-163069919D01*
X66714170Y-163035869D01*
X66713777Y-163001824D01*
X66714529Y-162967913D01*
X66716421Y-162934266D01*
X66719451Y-162901014D01*
X66723613Y-162868288D01*
X66728904Y-162836216D01*
X66735320Y-162804930D01*
X66742856Y-162774560D01*
X66751508Y-162745236D01*
X66761272Y-162717088D01*
X66778818Y-162673710D01*
X66798457Y-162631342D01*
X66820294Y-162589869D01*
X66844439Y-162549176D01*
X66870998Y-162509149D01*
X66900079Y-162469673D01*
X66931789Y-162430633D01*
X66966235Y-162391915D01*
X67003527Y-162353403D01*
X67043769Y-162314983D01*
X67087072Y-162276540D01*
X67133540Y-162237960D01*
X67183283Y-162199128D01*
X67236408Y-162159929D01*
X67293022Y-162120248D01*
X67353233Y-162079971D01*
X67399375Y-162050477D01*
X67448659Y-162019966D01*
X67503103Y-161987288D01*
X67564723Y-161951295D01*
X67635538Y-161910837D01*
X67717564Y-161864765D01*
X67923322Y-161751182D01*
X68106942Y-161649469D01*
X68265031Y-161559117D01*
X68401357Y-161477661D01*
X68519692Y-161402637D01*
X68623806Y-161331583D01*
X68717468Y-161262034D01*
X68804450Y-161191525D01*
X68888521Y-161117593D01*
X68924047Y-161084048D01*
X68958615Y-161049357D01*
X68992160Y-161013613D01*
X69024616Y-160976912D01*
X69055919Y-160939346D01*
X69086004Y-160901011D01*
X69114805Y-160862000D01*
X69142257Y-160822406D01*
X69168295Y-160782325D01*
X69192854Y-160741850D01*
X69215869Y-160701076D01*
X69237275Y-160660095D01*
X69257007Y-160619004D01*
X69274999Y-160577894D01*
X69291187Y-160536861D01*
X69305505Y-160495999D01*
X69318328Y-160454834D01*
X69329810Y-160412348D01*
X69339949Y-160368607D01*
X69348742Y-160323678D01*
X69356187Y-160277629D01*
X69362283Y-160230527D01*
X69367026Y-160182438D01*
X69370416Y-160133431D01*
X69372449Y-160083573D01*
X69373125Y-160032930D01*
X69372440Y-159981569D01*
X69370394Y-159929559D01*
X69366983Y-159876966D01*
X69362205Y-159823856D01*
X69356060Y-159770299D01*
X69348544Y-159716360D01*
X69336244Y-159644498D01*
X69321576Y-159574570D01*
X69304549Y-159506584D01*
X69285172Y-159440548D01*
X69263453Y-159376470D01*
X69239401Y-159314357D01*
X69213026Y-159254216D01*
X69184337Y-159196057D01*
X69153341Y-159139886D01*
X69120049Y-159085711D01*
X69084468Y-159033540D01*
X69046609Y-158983381D01*
X69006479Y-158935242D01*
X68964088Y-158889130D01*
X68919445Y-158845053D01*
X68872558Y-158803018D01*
X68823437Y-158763035D01*
X68772090Y-158725109D01*
X68718527Y-158689249D01*
X68662756Y-158655464D01*
X68604786Y-158623759D01*
X68544626Y-158594144D01*
X68482286Y-158566626D01*
X68417773Y-158541213D01*
X68351097Y-158517913D01*
X68282266Y-158496732D01*
X68211291Y-158477680D01*
X68138178Y-158460763D01*
X68062939Y-158445990D01*
X67985581Y-158433368D01*
X67824544Y-158414610D01*
X67774401Y-158411649D01*
X67709417Y-158410101D01*
X67634726Y-158409860D01*
X67555463Y-158410818D01*
X67476762Y-158412867D01*
X67403757Y-158415900D01*
X67341584Y-158419809D01*
X67295377Y-158424488D01*
X67232651Y-158433981D01*
X67171198Y-158445000D01*
X67110999Y-158457551D01*
X67052037Y-158471639D01*
X66994295Y-158487269D01*
X66937755Y-158504446D01*
X66882400Y-158523175D01*
X66828211Y-158543462D01*
X66775172Y-158565312D01*
X66723264Y-158588729D01*
X66672470Y-158613720D01*
X66622773Y-158640288D01*
X66574155Y-158668440D01*
X66526599Y-158698181D01*
X66480086Y-158729515D01*
X66434599Y-158762449D01*
X66419333Y-158774170D01*
X66403018Y-158787262D01*
X66367947Y-158816887D01*
X66330792Y-158849985D01*
X66292959Y-158885216D01*
X66255854Y-158921240D01*
X66220882Y-158956719D01*
X66189449Y-158990313D01*
X66175499Y-159005984D01*
X66162961Y-159020682D01*
X66134582Y-159055927D01*
X66106881Y-159092299D01*
X66079894Y-159129733D01*
X66053655Y-159168165D01*
X66028196Y-159207532D01*
X66003553Y-159247769D01*
X65979760Y-159288812D01*
X65956850Y-159330597D01*
X65934858Y-159373061D01*
X65913818Y-159416138D01*
X65893764Y-159459765D01*
X65874730Y-159503877D01*
X65856750Y-159548412D01*
X65839859Y-159593304D01*
X65824089Y-159638489D01*
X65809477Y-159683904D01*
X65802712Y-159706371D01*
X65797692Y-159723934D01*
X65794309Y-159737247D01*
X65793198Y-159742514D01*
X65792456Y-159746963D01*
X65792069Y-159750677D01*
X65792024Y-159753737D01*
X65792308Y-159756223D01*
X65792908Y-159758219D01*
X65793809Y-159759806D01*
X65794998Y-159761065D01*
X65796462Y-159762078D01*
X65798188Y-159762927D01*
X65809435Y-159766710D01*
X65836696Y-159775065D01*
X65932156Y-159803408D01*
X66237044Y-159892043D01*
X66674488Y-160019043D01*
X66675287Y-160019245D01*
X66676096Y-160019319D01*
X66676917Y-160019261D01*
X66677754Y-160019068D01*
X66678609Y-160018735D01*
X66679483Y-160018259D01*
X66680380Y-160017635D01*
X66681301Y-160016860D01*
X66682250Y-160015931D01*
X66683227Y-160014842D01*
X66684236Y-160013590D01*
X66685278Y-160012172D01*
X66686357Y-160010584D01*
X66687475Y-160008821D01*
X66688633Y-160006879D01*
X66689834Y-160004756D01*
X66691081Y-160002446D01*
X66692376Y-159999947D01*
X66693720Y-159997253D01*
X66695118Y-159994363D01*
X66698079Y-159987972D01*
X66701277Y-159980745D01*
X66704732Y-159972649D01*
X66708462Y-159963655D01*
X66712486Y-159953730D01*
X66716822Y-159942844D01*
X66734262Y-159900483D01*
X66753951Y-159856104D01*
X66775360Y-159810734D01*
X66797960Y-159765396D01*
X66821221Y-159721117D01*
X66844615Y-159678921D01*
X66867612Y-159639835D01*
X66889682Y-159604882D01*
X66902798Y-159586062D01*
X66917411Y-159566505D01*
X66933336Y-159546400D01*
X66950382Y-159525937D01*
X66968363Y-159505304D01*
X66987091Y-159484691D01*
X67006376Y-159464287D01*
X67026031Y-159444280D01*
X67045868Y-159424861D01*
X67065699Y-159406217D01*
X67085336Y-159388539D01*
X67104590Y-159372016D01*
X67123274Y-159356836D01*
X67141199Y-159343188D01*
X67158178Y-159331263D01*
X67174021Y-159321249D01*
X67228541Y-159291926D01*
X67285700Y-159266918D01*
X67345047Y-159246205D01*
X67406127Y-159229769D01*
X67468489Y-159217591D01*
X67531680Y-159209653D01*
X67595248Y-159205935D01*
X67658738Y-159206420D01*
X67721700Y-159211088D01*
X67783679Y-159219922D01*
X67844225Y-159232902D01*
X67902882Y-159250010D01*
X67959200Y-159271227D01*
X68012726Y-159296535D01*
X68063006Y-159325915D01*
X68109588Y-159359349D01*
X68125451Y-159372461D01*
X68140889Y-159386251D01*
X68170453Y-159415781D01*
X68198215Y-159447773D01*
X68224109Y-159482060D01*
X68248067Y-159518477D01*
X68270025Y-159556856D01*
X68289915Y-159597032D01*
X68307673Y-159638837D01*
X68323231Y-159682106D01*
X68336523Y-159726672D01*
X68347484Y-159772369D01*
X68356047Y-159819029D01*
X68362147Y-159866488D01*
X68365716Y-159914578D01*
X68366689Y-159963134D01*
X68364999Y-160011988D01*
X68362551Y-160043070D01*
X68358873Y-160073155D01*
X68353909Y-160102353D01*
X68347603Y-160130775D01*
X68339900Y-160158531D01*
X68330744Y-160185732D01*
X68320079Y-160212489D01*
X68307849Y-160238912D01*
X68293999Y-160265112D01*
X68278472Y-160291199D01*
X68261213Y-160317284D01*
X68242167Y-160343477D01*
X68221276Y-160369890D01*
X68198485Y-160396633D01*
X68173740Y-160423815D01*
X68146983Y-160451549D01*
X68119035Y-160479194D01*
X68090418Y-160505992D01*
X68060630Y-160532269D01*
X68029166Y-160558352D01*
X67995523Y-160584567D01*
X67959199Y-160611241D01*
X67919689Y-160638701D01*
X67876490Y-160667272D01*
X67829100Y-160697283D01*
X67777014Y-160729058D01*
X67719729Y-160762925D01*
X67656743Y-160799211D01*
X67511651Y-160880345D01*
X67337710Y-160975071D01*
X67164823Y-161069139D01*
X67016914Y-161151482D01*
X66889725Y-161224730D01*
X66778998Y-161291513D01*
X66680476Y-161354459D01*
X66589899Y-161416198D01*
X66503009Y-161479359D01*
X66415549Y-161546571D01*
X66377373Y-161578371D01*
X66332790Y-161618141D01*
X66284320Y-161663401D01*
X66234486Y-161711671D01*
X66185810Y-161760470D01*
X66140813Y-161807318D01*
X66102017Y-161849734D01*
X66085732Y-161868505D01*
X66071944Y-161885237D01*
X66051539Y-161911613D01*
X66031373Y-161938816D01*
X66011503Y-161966746D01*
X65991985Y-161995304D01*
X65954233Y-162053909D01*
X65918574Y-162113838D01*
X65885461Y-162174295D01*
X65870002Y-162204474D01*
X65855349Y-162234488D01*
X65841561Y-162264237D01*
X65828694Y-162293622D01*
X65816804Y-162322544D01*
X65805949Y-162350904D01*
X65794591Y-162384326D01*
X65782952Y-162422353D01*
X65771347Y-162463703D01*
X65760088Y-162507096D01*
X65749491Y-162551250D01*
X65739870Y-162594883D01*
X65731538Y-162636713D01*
X65724811Y-162675460D01*
X65719362Y-162723107D01*
X65715219Y-162786364D01*
X65712433Y-162860007D01*
X65711052Y-162938808D01*
X65521349Y-162938808D01*
X65521409Y-162902734D01*
X65524433Y-162827154D01*
X65535274Y-162704178D01*
X65552786Y-162584903D01*
X65577076Y-162469164D01*
X65608250Y-162356791D01*
X65646416Y-162247619D01*
X65691678Y-162141478D01*
X65744144Y-162038203D01*
X65803921Y-161937625D01*
X65871114Y-161839577D01*
X65945830Y-161743892D01*
X66028175Y-161650402D01*
X66118257Y-161558940D01*
X66216181Y-161469338D01*
X66322054Y-161381429D01*
X66435982Y-161295046D01*
X66558072Y-161210021D01*
X66622465Y-161167733D01*
X66687453Y-161126512D01*
X66756013Y-161084646D01*
X66831121Y-161040423D01*
X66915755Y-160992133D01*
X67012890Y-160938063D01*
X67125503Y-160876501D01*
X67256572Y-160805738D01*
X67448185Y-160701635D01*
X67584567Y-160625380D01*
X67638846Y-160593747D01*
X67687479Y-160564338D01*
X67733184Y-160535575D01*
X67778683Y-160505877D01*
X67810889Y-160484171D01*
X67841634Y-160462703D01*
X67870928Y-160441462D01*
X67898781Y-160420438D01*
X67925204Y-160399621D01*
X67950207Y-160379001D01*
X67973800Y-160358566D01*
X67995994Y-160338307D01*
X68016798Y-160318214D01*
X68036224Y-160298275D01*
X68054281Y-160278481D01*
X68070981Y-160258822D01*
X68086333Y-160239287D01*
X68100347Y-160219865D01*
X68113034Y-160200546D01*
X68124405Y-160181321D01*
X68133378Y-160164828D01*
X68141524Y-160148626D01*
X68148857Y-160132626D01*
X68155394Y-160116741D01*
X68161149Y-160100880D01*
X68166139Y-160084955D01*
X68170378Y-160068877D01*
X68173882Y-160052557D01*
X68176667Y-160035907D01*
X68178748Y-160018836D01*
X68180140Y-160001258D01*
X68180860Y-159983082D01*
X68180923Y-159964220D01*
X68180344Y-159944582D01*
X68179138Y-159924081D01*
X68177322Y-159902627D01*
X68171020Y-159851221D01*
X68162163Y-159802569D01*
X68150743Y-159756659D01*
X68136752Y-159713483D01*
X68120181Y-159673031D01*
X68101022Y-159635294D01*
X68090470Y-159617441D01*
X68079267Y-159600263D01*
X68067414Y-159583759D01*
X68054908Y-159567929D01*
X68041749Y-159552770D01*
X68027935Y-159538281D01*
X68013467Y-159524462D01*
X67998342Y-159511312D01*
X67982560Y-159498829D01*
X67966119Y-159487011D01*
X67949019Y-159475859D01*
X67931259Y-159465370D01*
X67893753Y-159446378D01*
X67853593Y-159430027D01*
X67810770Y-159416308D01*
X67765277Y-159405210D01*
X67749738Y-159402374D01*
X67732872Y-159399950D01*
X67714860Y-159397938D01*
X67695879Y-159396336D01*
X67655727Y-159394358D01*
X67613847Y-159394009D01*
X67571670Y-159395281D01*
X67530625Y-159398165D01*
X67510974Y-159400209D01*
X67492143Y-159402654D01*
X67474310Y-159405497D01*
X67457655Y-159408738D01*
X67432753Y-159414461D01*
X67408313Y-159421189D01*
X67384325Y-159428933D01*
X67360777Y-159437705D01*
X67337662Y-159447518D01*
X67314968Y-159458383D01*
X67292685Y-159470312D01*
X67270804Y-159483317D01*
X67249315Y-159497411D01*
X67228207Y-159512605D01*
X67207472Y-159528911D01*
X67187098Y-159546342D01*
X67167076Y-159564909D01*
X67147396Y-159584624D01*
X67128048Y-159605500D01*
X67109022Y-159627548D01*
X67090309Y-159650781D01*
X67071897Y-159675210D01*
X67053778Y-159700847D01*
X67035941Y-159727705D01*
X67001074Y-159785131D01*
X66967217Y-159847582D01*
X66934290Y-159915156D01*
X66902213Y-159987948D01*
X66870908Y-160066054D01*
X66840294Y-160149571D01*
X66827131Y-160186723D01*
X66815952Y-160217657D01*
X66807948Y-160239066D01*
X66805509Y-160245165D01*
X66804310Y-160247643D01*
X66791205Y-160244520D01*
X66754635Y-160234568D01*
X66621219Y-160197019D01*
X66424303Y-160140685D01*
X66184127Y-160071254D01*
X65889425Y-159985243D01*
X65699234Y-159928203D01*
X65597149Y-159895240D01*
X65574020Y-159886258D01*
X65568537Y-159883374D01*
X65566766Y-159881460D01*
X65567249Y-159875874D01*
X65568642Y-159867267D01*
X65573833Y-159842268D01*
X65581686Y-159809018D01*
X65591549Y-159770070D01*
X65602767Y-159727981D01*
X65614689Y-159685304D01*
X65626660Y-159644596D01*
X65638027Y-159608410D01*
X65691095Y-159460416D01*
X65720685Y-159389254D01*
X65752282Y-159320006D01*
X65785862Y-159252689D01*
X65821404Y-159187323D01*
X65858883Y-159123923D01*
X65898278Y-159062508D01*
X65939565Y-159003097D01*
X65982722Y-158945706D01*
X66027725Y-158890354D01*
X66074552Y-158837059D01*
X66123181Y-158785837D01*
X66173587Y-158736708D01*
X66225748Y-158689689D01*
X66279642Y-158644798D01*
X66335245Y-158602052D01*
X66392535Y-158561469D01*
X66451488Y-158523068D01*
X66512082Y-158486866D01*
X66574295Y-158452881D01*
X66638102Y-158421131D01*
X66703482Y-158391633D01*
X66770411Y-158364405D01*
X66838866Y-158339466D01*
X66908826Y-158316833D01*
X66980266Y-158296524D01*
X67053164Y-158278556D01*
X67203242Y-158249718D01*
X67358877Y-158230460D01*
X67403473Y-158227712D01*
X67463101Y-158225808D01*
X67532882Y-158224730D01*
X67607938Y-158224463D01*
X67683391Y-158224989D01*
X67754363Y-158226293D01*
X67815975Y-158228357D01*
X67863349Y-158231166D01*
X67941370Y-158238960D01*
X68017980Y-158248843D01*
X68093142Y-158260801D01*
X68166815Y-158274822D01*
X68238964Y-158290893D01*
X68309548Y-158309003D01*
X68378531Y-158329138D01*
X68445874Y-158351287D01*
X68511538Y-158375436D01*
X68575485Y-158401574D01*
X68637677Y-158429688D01*
X68698076Y-158459766D01*
X68756644Y-158491795D01*
X68813342Y-158525763D01*
X68868133Y-158561657D01*
X68920977Y-158599466D01*
X68934900Y-158610356D01*
X68950077Y-158622790D01*
X68983385Y-158651522D01*
X69019290Y-158684124D01*
X69056179Y-158719057D01*
X69092439Y-158754784D01*
X69126459Y-158789767D01*
X69156626Y-158822468D01*
X69169760Y-158837482D01*
X69181327Y-158851349D01*
X69224215Y-158907078D01*
X69264510Y-158964734D01*
X69302214Y-159024324D01*
X69337332Y-159085858D01*
X69369866Y-159149343D01*
X69399819Y-159214787D01*
X69427195Y-159282199D01*
X69451996Y-159351588D01*
X69474225Y-159422960D01*
X69493887Y-159496326D01*
X69510983Y-159571692D01*
X69525517Y-159649067D01*
X69537492Y-159728460D01*
X69546911Y-159809879D01*
X69553777Y-159893332D01*
X69558094Y-159978827D01*
X69559249Y-160055812D01*
X69557413Y-160131225D01*
X69552572Y-160205115D01*
X69544710Y-160277530D01*
X69533814Y-160348519D01*
X69519870Y-160418130D01*
X69502862Y-160486412D01*
X69482776Y-160553413D01*
X69459597Y-160619183D01*
X69433312Y-160683769D01*
X69403906Y-160747220D01*
X69371364Y-160809585D01*
X69335672Y-160870913D01*
X69296815Y-160931251D01*
X69254779Y-160990649D01*
X69209549Y-161049155D01*
X69194894Y-161066746D01*
X69178327Y-161085773D01*
X69140350Y-161127262D01*
X69097395Y-161171876D01*
X69051240Y-161217870D01*
X69003663Y-161263501D01*
X68956442Y-161307024D01*
X68911354Y-161346693D01*
X68870177Y-161380765D01*
X68792435Y-161440826D01*
X68712981Y-161498637D01*
X68628319Y-161556383D01*
X68534950Y-161616245D01*
X68429377Y-161680406D01*
X68308103Y-161751050D01*
X68167630Y-161830359D01*
X68004460Y-161920516D01*
X67802611Y-162032426D01*
X67633074Y-162129735D01*
X67491847Y-162215170D01*
X67374929Y-162291461D01*
X67324335Y-162327030D01*
X67278317Y-162361336D01*
X67236376Y-162394720D01*
X67198011Y-162427523D01*
X67162721Y-162460086D01*
X67130007Y-162492751D01*
X67099369Y-162525858D01*
X67070305Y-162559748D01*
X67048745Y-162586607D01*
X67028764Y-162613255D01*
X67010335Y-162639762D01*
X66993433Y-162666199D01*
X66978031Y-162692636D01*
X66964104Y-162719144D01*
X66951626Y-162745791D01*
X66940571Y-162772650D01*
X66930913Y-162799790D01*
X66922627Y-162827281D01*
X66915687Y-162855194D01*
X66910067Y-162883599D01*
X66905740Y-162912566D01*
X66902682Y-162942165D01*
X66900866Y-162972468D01*
X66900266Y-163003543D01*
X66902154Y-163059798D01*
X66907767Y-163114187D01*
X66917023Y-163166598D01*
X66929844Y-163216918D01*
X66946150Y-163265035D01*
X66965862Y-163310836D01*
X66988900Y-163354208D01*
X67015183Y-163395038D01*
X67044634Y-163433215D01*
X67077172Y-163468624D01*
X67112717Y-163501154D01*
X67151190Y-163530692D01*
X67192512Y-163557126D01*
X67236602Y-163580342D01*
X67283382Y-163600228D01*
X67332771Y-163616671D01*
X67366291Y-163625650D01*
X67399642Y-163633009D01*
X67432824Y-163638747D01*
X67465835Y-163642865D01*
X67498672Y-163645362D01*
X67531333Y-163646238D01*
X67563817Y-163645494D01*
X67596120Y-163643129D01*
X67628242Y-163639144D01*
X67660180Y-163633538D01*
X67691931Y-163626312D01*
X67723495Y-163617464D01*
X67754868Y-163606997D01*
X67786050Y-163594909D01*
X67817036Y-163581200D01*
X67847827Y-163565870D01*
X67871939Y-163552636D01*
X67895588Y-163538469D01*
X67918770Y-163523375D01*
X67941483Y-163507359D01*
X67963721Y-163490428D01*
X67985482Y-163472586D01*
X68006762Y-163453841D01*
X68027556Y-163434196D01*
X68047862Y-163413659D01*
X68067675Y-163392235D01*
X68086992Y-163369928D01*
X68105808Y-163346746D01*
X68124121Y-163322694D01*
X68141926Y-163297777D01*
X68159220Y-163272001D01*
X68175999Y-163245372D01*
X68207996Y-163189578D01*
X68237888Y-163130438D01*
X68265644Y-163068000D01*
X68291236Y-163002308D01*
X68314632Y-162933408D01*
X68335803Y-162861346D01*
X68354719Y-162786166D01*
X68371349Y-162707915D01*
X68378625Y-162672207D01*
X68385108Y-162642387D01*
X68390002Y-162621694D01*
X68391606Y-162615783D01*
X68392516Y-162613370D01*
X68604767Y-162655384D01*
X69068174Y-162753159D01*
X69532242Y-162853182D01*
X69746477Y-162901943D01*
X69747410Y-162903989D01*
X69747711Y-162907821D01*
X69746523Y-162920491D01*
X69743121Y-162939255D01*
X69737713Y-162963414D01*
X69721710Y-163025123D01*
X69715036Y-163048338D01*
X69700175Y-163100028D01*
X69674771Y-163182539D01*
G37*
G36*
X72234266Y-160043738D02*
G01*
X71980266Y-160043738D01*
X71980266Y-160417682D01*
X72234266Y-160417682D01*
X72234266Y-160643460D01*
X71980266Y-160643460D01*
X71980266Y-161017404D01*
X72234266Y-161017404D01*
X72234266Y-161243182D01*
X71980266Y-161243182D01*
X71980266Y-161610071D01*
X72234266Y-161610071D01*
X72234266Y-161842905D01*
X71980266Y-161842905D01*
X71980266Y-162410876D01*
X72107266Y-162571038D01*
X72234266Y-162730493D01*
X72234266Y-163381016D01*
X72685821Y-163381016D01*
X72685821Y-163272360D01*
X72685765Y-163238279D01*
X72685502Y-163212046D01*
X72684891Y-163192575D01*
X72684412Y-163185038D01*
X72683793Y-163178785D01*
X72683017Y-163173682D01*
X72682066Y-163169592D01*
X72680923Y-163166381D01*
X72679571Y-163163914D01*
X72677990Y-163162053D01*
X72676165Y-163160666D01*
X72674078Y-163159615D01*
X72671710Y-163158765D01*
X72669589Y-163157957D01*
X72667334Y-163156865D01*
X72664956Y-163155502D01*
X72662466Y-163153881D01*
X72657193Y-163149922D01*
X72651602Y-163145095D01*
X72645779Y-163139507D01*
X72639811Y-163133266D01*
X72633786Y-163126479D01*
X72627789Y-163119254D01*
X72621909Y-163111698D01*
X72616230Y-163103919D01*
X72610842Y-163096025D01*
X72605829Y-163088122D01*
X72601279Y-163080318D01*
X72597280Y-163072721D01*
X72593917Y-163065438D01*
X72591277Y-163058577D01*
X72588325Y-163048908D01*
X72585819Y-163038744D01*
X72583756Y-163028166D01*
X72582138Y-163017257D01*
X72580961Y-163006101D01*
X72580226Y-162994779D01*
X72579932Y-162983374D01*
X72580076Y-162971969D01*
X72580659Y-162960647D01*
X72581679Y-162949491D01*
X72583135Y-162938582D01*
X72585026Y-162928005D01*
X72587351Y-162917840D01*
X72590110Y-162908172D01*
X72593300Y-162899082D01*
X72596921Y-162890654D01*
X72600333Y-162883732D01*
X72603952Y-162876990D01*
X72607773Y-162870431D01*
X72611793Y-162864057D01*
X72616007Y-162857870D01*
X72620411Y-162851874D01*
X72625002Y-162846070D01*
X72629774Y-162840461D01*
X72634724Y-162835049D01*
X72639847Y-162829837D01*
X72645140Y-162824828D01*
X72650599Y-162820023D01*
X72656218Y-162815425D01*
X72661995Y-162811038D01*
X72667925Y-162806862D01*
X72674003Y-162802901D01*
X72680227Y-162799157D01*
X72686590Y-162795632D01*
X72693091Y-162792330D01*
X72699723Y-162789251D01*
X72706484Y-162786400D01*
X72713368Y-162783778D01*
X72720373Y-162781388D01*
X72727493Y-162779232D01*
X72734725Y-162777312D01*
X72742065Y-162775632D01*
X72749507Y-162774193D01*
X72757049Y-162772999D01*
X72764687Y-162772051D01*
X72772415Y-162771351D01*
X72780229Y-162770904D01*
X72788127Y-162770710D01*
X72807129Y-162771400D01*
X72825483Y-162773451D01*
X72843150Y-162776835D01*
X72851715Y-162779018D01*
X72860094Y-162781525D01*
X72868282Y-162784350D01*
X72876277Y-162787492D01*
X72884071Y-162790946D01*
X72891662Y-162794708D01*
X72899043Y-162798777D01*
X72906212Y-162803147D01*
X72913162Y-162807815D01*
X72919889Y-162812779D01*
X72926390Y-162818034D01*
X72932658Y-162823576D01*
X72938689Y-162829404D01*
X72944479Y-162835512D01*
X72950023Y-162841898D01*
X72955317Y-162848558D01*
X72960355Y-162855488D01*
X72965133Y-162862686D01*
X72969647Y-162870147D01*
X72973891Y-162877868D01*
X72977862Y-162885845D01*
X72981554Y-162894076D01*
X72988084Y-162911283D01*
X72993444Y-162929460D01*
X72996753Y-162944511D01*
X72999014Y-162959479D01*
X73000237Y-162974331D01*
X73000433Y-162989035D01*
X72999612Y-163003557D01*
X72997784Y-163017864D01*
X72994960Y-163031922D01*
X72991151Y-163045700D01*
X72986365Y-163059163D01*
X72980614Y-163072280D01*
X72973908Y-163085015D01*
X72966258Y-163097338D01*
X72957673Y-163109214D01*
X72948164Y-163120610D01*
X72937742Y-163131494D01*
X72926416Y-163141832D01*
X72890432Y-163172877D01*
X72890432Y-163578571D01*
X72234266Y-163578571D01*
X72234266Y-163980737D01*
X72594099Y-163980737D01*
X72635021Y-163939815D01*
X72643920Y-163930947D01*
X72652667Y-163922846D01*
X72661325Y-163915485D01*
X72669957Y-163908837D01*
X72678627Y-163902875D01*
X72687396Y-163897573D01*
X72696329Y-163892903D01*
X72705489Y-163888839D01*
X72714937Y-163885353D01*
X72724739Y-163882420D01*
X72734955Y-163880011D01*
X72745650Y-163878101D01*
X72756887Y-163876662D01*
X72768728Y-163875668D01*
X72781237Y-163875090D01*
X72794477Y-163874904D01*
X72805441Y-163875080D01*
X72815876Y-163875621D01*
X72825835Y-163876541D01*
X72835366Y-163877859D01*
X72844521Y-163879589D01*
X72853351Y-163881750D01*
X72861906Y-163884357D01*
X72870236Y-163887428D01*
X72878393Y-163890977D01*
X72886427Y-163895023D01*
X72894388Y-163899582D01*
X72902328Y-163904670D01*
X72910296Y-163910303D01*
X72918345Y-163916499D01*
X72926523Y-163923273D01*
X72934882Y-163930643D01*
X72940771Y-163936320D01*
X72946397Y-163942228D01*
X72951758Y-163948358D01*
X72956851Y-163954698D01*
X72961675Y-163961237D01*
X72966226Y-163967962D01*
X72970503Y-163974863D01*
X72974504Y-163981928D01*
X72981665Y-163996507D01*
X72987692Y-164011606D01*
X72992565Y-164027135D01*
X72996266Y-164043003D01*
X72998776Y-164059119D01*
X73000077Y-164075392D01*
X73000151Y-164091732D01*
X72998978Y-164108046D01*
X72997918Y-164116166D01*
X72996540Y-164124245D01*
X72994840Y-164132273D01*
X72992818Y-164140237D01*
X72990470Y-164148127D01*
X72987794Y-164155932D01*
X72984788Y-164163639D01*
X72981449Y-164171238D01*
X72975012Y-164184131D01*
X72967899Y-164196349D01*
X72960146Y-164207886D01*
X72951792Y-164218737D01*
X72942876Y-164228896D01*
X72933435Y-164238358D01*
X72923507Y-164247116D01*
X72913132Y-164255166D01*
X72902345Y-164262501D01*
X72891187Y-164269117D01*
X72879694Y-164275008D01*
X72867906Y-164280167D01*
X72855859Y-164284591D01*
X72843593Y-164288272D01*
X72831145Y-164291206D01*
X72818554Y-164293387D01*
X72805857Y-164294809D01*
X72793093Y-164295467D01*
X72780300Y-164295356D01*
X72767516Y-164294469D01*
X72754778Y-164292801D01*
X72742126Y-164290347D01*
X72729597Y-164287101D01*
X72717230Y-164283057D01*
X72705062Y-164278210D01*
X72693131Y-164272555D01*
X72681476Y-164266086D01*
X72670135Y-164258797D01*
X72659146Y-164250682D01*
X72648547Y-164241737D01*
X72638376Y-164231955D01*
X72628671Y-164221332D01*
X72597627Y-164185348D01*
X72234266Y-164185348D01*
X72234266Y-164696876D01*
X72267427Y-164721571D01*
X72276050Y-164728499D01*
X72284191Y-164735787D01*
X72291846Y-164743430D01*
X72299012Y-164751425D01*
X72305686Y-164759766D01*
X72311865Y-164768452D01*
X72317545Y-164777476D01*
X72322725Y-164786835D01*
X72327400Y-164796524D01*
X72331568Y-164806541D01*
X72335225Y-164816879D01*
X72338368Y-164827537D01*
X72340995Y-164838508D01*
X72343102Y-164849789D01*
X72344686Y-164861376D01*
X72345744Y-164873265D01*
X72346312Y-164885574D01*
X72346424Y-164897389D01*
X72346069Y-164908745D01*
X72345236Y-164919678D01*
X72343916Y-164930221D01*
X72342097Y-164940412D01*
X72339770Y-164950284D01*
X72336924Y-164959872D01*
X72333549Y-164969213D01*
X72329634Y-164978341D01*
X72325170Y-164987291D01*
X72320145Y-164996098D01*
X72314550Y-165004798D01*
X72308374Y-165013426D01*
X72301607Y-165022016D01*
X72294238Y-165030604D01*
X72286115Y-165039271D01*
X72277867Y-165047289D01*
X72269471Y-165054671D01*
X72260901Y-165061428D01*
X72252132Y-165067573D01*
X72243140Y-165073119D01*
X72233901Y-165078078D01*
X72224388Y-165082462D01*
X72214578Y-165086284D01*
X72204445Y-165089556D01*
X72193965Y-165092291D01*
X72183113Y-165094501D01*
X72171864Y-165096198D01*
X72160194Y-165097395D01*
X72148076Y-165098104D01*
X72135488Y-165098337D01*
X72119482Y-165097999D01*
X72104011Y-165096725D01*
X72089082Y-165094521D01*
X72074700Y-165091392D01*
X72060872Y-165087346D01*
X72047605Y-165082388D01*
X72034904Y-165076525D01*
X72022776Y-165069762D01*
X72011226Y-165062107D01*
X72000261Y-165053565D01*
X71989888Y-165044142D01*
X71980112Y-165033845D01*
X71970939Y-165022680D01*
X71962376Y-165010652D01*
X71954429Y-164997769D01*
X71947105Y-164984037D01*
X71944093Y-164977897D01*
X71941396Y-164972128D01*
X71938998Y-164966652D01*
X71936885Y-164961393D01*
X71935041Y-164956275D01*
X71933450Y-164951221D01*
X71932096Y-164946154D01*
X71930965Y-164940999D01*
X71930041Y-164935678D01*
X71929307Y-164930115D01*
X71928750Y-164924234D01*
X71928352Y-164917958D01*
X71928100Y-164911211D01*
X71927976Y-164903915D01*
X71928055Y-164887376D01*
X71928297Y-164874563D01*
X71929037Y-164862292D01*
X71930292Y-164850527D01*
X71932079Y-164839233D01*
X71934415Y-164828373D01*
X71937319Y-164817911D01*
X71940808Y-164807810D01*
X71944900Y-164798035D01*
X71949612Y-164788550D01*
X71954961Y-164779317D01*
X71960966Y-164770302D01*
X71967643Y-164761468D01*
X71975011Y-164752778D01*
X71983087Y-164744197D01*
X71991888Y-164735688D01*
X72001433Y-164727216D01*
X72036710Y-164696876D01*
X72036710Y-163751432D01*
X72036005Y-162805987D01*
X71909710Y-162647237D01*
X71783416Y-162488487D01*
X71782710Y-162165343D01*
X71782710Y-161842905D01*
X71013655Y-161842905D01*
X71013655Y-162095493D01*
X71405238Y-162590088D01*
X71796821Y-163085388D01*
X71796821Y-164358210D01*
X71604205Y-164550827D01*
X71412294Y-164742737D01*
X70463322Y-164742737D01*
X70462616Y-164059759D01*
X70462616Y-163377488D01*
X70428749Y-163351382D01*
X70419422Y-163343947D01*
X70410749Y-163336187D01*
X70402726Y-163328089D01*
X70395346Y-163319643D01*
X70388602Y-163310838D01*
X70385467Y-163306297D01*
X70382489Y-163301661D01*
X70379666Y-163296930D01*
X70377000Y-163292102D01*
X70372129Y-163282150D01*
X70367869Y-163271792D01*
X70364216Y-163261017D01*
X70361162Y-163249815D01*
X70358701Y-163238173D01*
X70356827Y-163226081D01*
X70355534Y-163213527D01*
X70354816Y-163200500D01*
X70354666Y-163186987D01*
X70354843Y-163175146D01*
X70355388Y-163163926D01*
X70356322Y-163153270D01*
X70357665Y-163143122D01*
X70359437Y-163133424D01*
X70361661Y-163124120D01*
X70364356Y-163115153D01*
X70367542Y-163106466D01*
X70371242Y-163098002D01*
X70375474Y-163089705D01*
X70380261Y-163081517D01*
X70385622Y-163073382D01*
X70391579Y-163065243D01*
X70398151Y-163057042D01*
X70405361Y-163048724D01*
X70413227Y-163040232D01*
X70420571Y-163032737D01*
X70427823Y-163025848D01*
X70435043Y-163019542D01*
X70442287Y-163013796D01*
X70449614Y-163008587D01*
X70457082Y-163003893D01*
X70464748Y-162999691D01*
X70472670Y-162995958D01*
X70480907Y-162992672D01*
X70489515Y-162989809D01*
X70498554Y-162987348D01*
X70508080Y-162985264D01*
X70518152Y-162983537D01*
X70528828Y-162982142D01*
X70540165Y-162981057D01*
X70552222Y-162980259D01*
X70569568Y-162979448D01*
X70577094Y-162979244D01*
X70583971Y-162979190D01*
X70590286Y-162979298D01*
X70596126Y-162979577D01*
X70601577Y-162980041D01*
X70606726Y-162980701D01*
X70611660Y-162981566D01*
X70616466Y-162982650D01*
X70621230Y-162983964D01*
X70626040Y-162985518D01*
X70630983Y-162987325D01*
X70636144Y-162989395D01*
X70647472Y-162994371D01*
X70656837Y-162998858D01*
X70665641Y-163003346D01*
X70673918Y-163007869D01*
X70681702Y-163012461D01*
X70689027Y-163017157D01*
X70695928Y-163021991D01*
X70702437Y-163026995D01*
X70708590Y-163032206D01*
X70714421Y-163037656D01*
X70719963Y-163043381D01*
X70725251Y-163049413D01*
X70730319Y-163055787D01*
X70735201Y-163062538D01*
X70739931Y-163069698D01*
X70744543Y-163077304D01*
X70749072Y-163085388D01*
X70753734Y-163094670D01*
X70757927Y-163104480D01*
X70761644Y-163114752D01*
X70764880Y-163125417D01*
X70767629Y-163136409D01*
X70769883Y-163147660D01*
X70771637Y-163159103D01*
X70772884Y-163170672D01*
X70773619Y-163182298D01*
X70773835Y-163193915D01*
X70773526Y-163205456D01*
X70772686Y-163216853D01*
X70771308Y-163228039D01*
X70769387Y-163238947D01*
X70766915Y-163249510D01*
X70763888Y-163259660D01*
X70761060Y-163267097D01*
X70757406Y-163275040D01*
X70753024Y-163283365D01*
X70748013Y-163291950D01*
X70742473Y-163300671D01*
X70736504Y-163309405D01*
X70730203Y-163318030D01*
X70723671Y-163326423D01*
X70717007Y-163334460D01*
X70710310Y-163342018D01*
X70703679Y-163348975D01*
X70697213Y-163355207D01*
X70691012Y-163360592D01*
X70685175Y-163365007D01*
X70679800Y-163368328D01*
X70677318Y-163369540D01*
X70674988Y-163370432D01*
X70673706Y-163370865D01*
X70673095Y-163371127D01*
X70672504Y-163371436D01*
X70671933Y-163371807D01*
X70671380Y-163372250D01*
X70670846Y-163372779D01*
X70670330Y-163373407D01*
X70669833Y-163374147D01*
X70669353Y-163375010D01*
X70668891Y-163376011D01*
X70668446Y-163377162D01*
X70668018Y-163378475D01*
X70667606Y-163379963D01*
X70667210Y-163381640D01*
X70666830Y-163383518D01*
X70666466Y-163385609D01*
X70666117Y-163387927D01*
X70665782Y-163390484D01*
X70665463Y-163393293D01*
X70665157Y-163396366D01*
X70664865Y-163399718D01*
X70664587Y-163403359D01*
X70664322Y-163407304D01*
X70664070Y-163411564D01*
X70663831Y-163416154D01*
X70663389Y-163426369D01*
X70662993Y-163438053D01*
X70662641Y-163451306D01*
X70662330Y-163466232D01*
X70662059Y-163482932D01*
X70661823Y-163501509D01*
X70661621Y-163522064D01*
X70661450Y-163544701D01*
X70661308Y-163569521D01*
X70661191Y-163596626D01*
X70661098Y-163626119D01*
X70660970Y-163692676D01*
X70660905Y-163770009D01*
X70660877Y-163960276D01*
X70660877Y-164545182D01*
X71327627Y-164545182D01*
X71599266Y-164273543D01*
X71599266Y-163161587D01*
X71207683Y-162666287D01*
X70816099Y-162171693D01*
X70816099Y-161842905D01*
X70562099Y-161842905D01*
X70562099Y-161610071D01*
X70816099Y-161610071D01*
X71013655Y-161610071D01*
X71782710Y-161610071D01*
X71782710Y-161243182D01*
X71013655Y-161243182D01*
X71013655Y-161610071D01*
X70816099Y-161610071D01*
X70816099Y-161243182D01*
X70562099Y-161243182D01*
X70562099Y-161017404D01*
X70816099Y-161017404D01*
X71013655Y-161017404D01*
X71782710Y-161017404D01*
X71782710Y-160643460D01*
X71013655Y-160643460D01*
X71013655Y-161017404D01*
X70816099Y-161017404D01*
X70816099Y-160643460D01*
X70562099Y-160643460D01*
X70562099Y-160417682D01*
X70816099Y-160417682D01*
X71013655Y-160417682D01*
X71782710Y-160417682D01*
X71782710Y-160043738D01*
X71013655Y-160043738D01*
X71013655Y-160417682D01*
X70816099Y-160417682D01*
X70816099Y-160043738D01*
X70562099Y-160043738D01*
X70562099Y-159825015D01*
X70816099Y-159825015D01*
X71013655Y-159825015D01*
X71782710Y-159825015D01*
X71782710Y-159451071D01*
X71013655Y-159451071D01*
X71013655Y-159825015D01*
X70816099Y-159825015D01*
X70816099Y-159451071D01*
X70562099Y-159451071D01*
X70562099Y-159225293D01*
X70816099Y-159225293D01*
X71013655Y-159225293D01*
X71782710Y-159225293D01*
X71782710Y-158851349D01*
X71013655Y-158851349D01*
X71013655Y-159225293D01*
X70816099Y-159225293D01*
X70816099Y-158851349D01*
X70562099Y-158851349D01*
X70562099Y-158632627D01*
X70816099Y-158632627D01*
X70816099Y-158279849D01*
X71013655Y-158279849D01*
X71013655Y-158632627D01*
X71782710Y-158632627D01*
X71782710Y-158279849D01*
X71980266Y-158279849D01*
X71980266Y-158632627D01*
X72234266Y-158632627D01*
X72234266Y-158851349D01*
X71980266Y-158851349D01*
X71980266Y-159225293D01*
X72234266Y-159225293D01*
X72234266Y-159451071D01*
X71980266Y-159451071D01*
X71980266Y-159825015D01*
X72234266Y-159825015D01*
X72234266Y-160043738D01*
G37*
G36*
X71464064Y-155903295D02*
G01*
X71498724Y-155904676D01*
X71513152Y-155905742D01*
X71525183Y-155907066D01*
X71530422Y-155907879D01*
X71537464Y-155909205D01*
X71545994Y-155910960D01*
X71555698Y-155913063D01*
X71577372Y-155917980D01*
X71599971Y-155923294D01*
X71634754Y-155932598D01*
X71668835Y-155943290D01*
X71702190Y-155955337D01*
X71734792Y-155968703D01*
X71766614Y-155983355D01*
X71797629Y-155999258D01*
X71827812Y-156016379D01*
X71857135Y-156034683D01*
X71885573Y-156054137D01*
X71913099Y-156074706D01*
X71939686Y-156096355D01*
X71965307Y-156119052D01*
X71989937Y-156142762D01*
X72013549Y-156167450D01*
X72036116Y-156193083D01*
X72057612Y-156219627D01*
X72078011Y-156247047D01*
X72097285Y-156275309D01*
X72115409Y-156304380D01*
X72132356Y-156334225D01*
X72148099Y-156364809D01*
X72162612Y-156396100D01*
X72175869Y-156428062D01*
X72187842Y-156460662D01*
X72198507Y-156493866D01*
X72207835Y-156527639D01*
X72215801Y-156561947D01*
X72222378Y-156596757D01*
X72227539Y-156632034D01*
X72231258Y-156667744D01*
X72233510Y-156703853D01*
X72234266Y-156740326D01*
X72233276Y-156782134D01*
X72230312Y-156823400D01*
X72225387Y-156864096D01*
X72218512Y-156904192D01*
X72209698Y-156943660D01*
X72198956Y-156982470D01*
X72186299Y-157020594D01*
X72171736Y-157058003D01*
X72155280Y-157094668D01*
X72136942Y-157130559D01*
X72116733Y-157165649D01*
X72094665Y-157199908D01*
X72070749Y-157233307D01*
X72044996Y-157265817D01*
X72017419Y-157297409D01*
X71988027Y-157328054D01*
X71955712Y-157358849D01*
X71922057Y-157387711D01*
X71887146Y-157414612D01*
X71851061Y-157439521D01*
X71813884Y-157462409D01*
X71775699Y-157483245D01*
X71736587Y-157502000D01*
X71696633Y-157518643D01*
X71655917Y-157533144D01*
X71614524Y-157545474D01*
X71572535Y-157555603D01*
X71530033Y-157563500D01*
X71487102Y-157569136D01*
X71443823Y-157572481D01*
X71400280Y-157573505D01*
X71356555Y-157572177D01*
X71317395Y-157569175D01*
X71279024Y-157564665D01*
X71241433Y-157558644D01*
X71204618Y-157551109D01*
X71168571Y-157542057D01*
X71133288Y-157531485D01*
X71098761Y-157519389D01*
X71064984Y-157505766D01*
X71031951Y-157490614D01*
X70999657Y-157473929D01*
X70968094Y-157455709D01*
X70937256Y-157435949D01*
X70907138Y-157414648D01*
X70877733Y-157391801D01*
X70849035Y-157367406D01*
X70821038Y-157341460D01*
X70801878Y-157322604D01*
X70783544Y-157303590D01*
X70766021Y-157284392D01*
X70749292Y-157264984D01*
X70733340Y-157245341D01*
X70718148Y-157225436D01*
X70703701Y-157205244D01*
X70689981Y-157184738D01*
X70676973Y-157163894D01*
X70664658Y-157142685D01*
X70653022Y-157121085D01*
X70642048Y-157099069D01*
X70631718Y-157076610D01*
X70622016Y-157053683D01*
X70612927Y-157030262D01*
X70604433Y-157006321D01*
X70595793Y-156978919D01*
X70588133Y-156950519D01*
X70581457Y-156921263D01*
X70575770Y-156891294D01*
X70571074Y-156860754D01*
X70567374Y-156829786D01*
X70564676Y-156798533D01*
X70562981Y-156767138D01*
X70562296Y-156735742D01*
X70562623Y-156704489D01*
X70563967Y-156673522D01*
X70566333Y-156642982D01*
X70569723Y-156613013D01*
X70574143Y-156583757D01*
X70579597Y-156555356D01*
X70586088Y-156527954D01*
X70593645Y-156500653D01*
X70602028Y-156473785D01*
X70611235Y-156447353D01*
X70621267Y-156421361D01*
X70632121Y-156395810D01*
X70643796Y-156370705D01*
X70656292Y-156346049D01*
X70669608Y-156321844D01*
X70683743Y-156298094D01*
X70698695Y-156274802D01*
X70714463Y-156251971D01*
X70731047Y-156229604D01*
X70748445Y-156207704D01*
X70766657Y-156186274D01*
X70785681Y-156165318D01*
X70805516Y-156144838D01*
X70828574Y-156122581D01*
X70852231Y-156101325D01*
X70876476Y-156081078D01*
X70901295Y-156061847D01*
X70926676Y-156043642D01*
X70952608Y-156026470D01*
X70979076Y-156010340D01*
X71006070Y-155995260D01*
X71033576Y-155981239D01*
X71061583Y-155968284D01*
X71090077Y-155956404D01*
X71119047Y-155945607D01*
X71148480Y-155935901D01*
X71178363Y-155927295D01*
X71208685Y-155919797D01*
X71239433Y-155913416D01*
X71250967Y-155911515D01*
X71264965Y-155909786D01*
X71298964Y-155906867D01*
X71338651Y-155904709D01*
X71381249Y-155903362D01*
X71423979Y-155902874D01*
X71464064Y-155903295D01*
G37*
D11*
X74667904Y-176778380D02*
X74096476Y-176778380D01*
X74382190Y-177778380D02*
X74382190Y-176778380D01*
X73763142Y-177778380D02*
X73763142Y-176778380D01*
X73382190Y-176778380D01*
X73286952Y-176826000D01*
X73239333Y-176873619D01*
X73191714Y-176968857D01*
X73191714Y-177111714D01*
X73239333Y-177206952D01*
X73286952Y-177254571D01*
X73382190Y-177302190D01*
X73763142Y-177302190D01*
X72334571Y-177111714D02*
X72334571Y-177778380D01*
X72572666Y-176730761D02*
X72810761Y-177445047D01*
X72191714Y-177445047D01*
X74667904Y-168523380D02*
X74096476Y-168523380D01*
X74382190Y-169523380D02*
X74382190Y-168523380D01*
X73763142Y-169523380D02*
X73763142Y-168523380D01*
X73382190Y-168523380D01*
X73286952Y-168571000D01*
X73239333Y-168618619D01*
X73191714Y-168713857D01*
X73191714Y-168856714D01*
X73239333Y-168951952D01*
X73286952Y-168999571D01*
X73382190Y-169047190D01*
X73763142Y-169047190D01*
X72858380Y-168523380D02*
X72239333Y-168523380D01*
X72572666Y-168904333D01*
X72429809Y-168904333D01*
X72334571Y-168951952D01*
X72286952Y-168999571D01*
X72239333Y-169094809D01*
X72239333Y-169332904D01*
X72286952Y-169428142D01*
X72334571Y-169475761D01*
X72429809Y-169523380D01*
X72715523Y-169523380D01*
X72810761Y-169475761D01*
X72858380Y-169428142D01*
X29455904Y-177794380D02*
X28884476Y-177794380D01*
X29170190Y-178794380D02*
X29170190Y-177794380D01*
X28551142Y-178794380D02*
X28551142Y-177794380D01*
X28170190Y-177794380D01*
X28074952Y-177842000D01*
X28027333Y-177889619D01*
X27979714Y-177984857D01*
X27979714Y-178127714D01*
X28027333Y-178222952D01*
X28074952Y-178270571D01*
X28170190Y-178318190D01*
X28551142Y-178318190D01*
X27598761Y-177889619D02*
X27551142Y-177842000D01*
X27455904Y-177794380D01*
X27217809Y-177794380D01*
X27122571Y-177842000D01*
X27074952Y-177889619D01*
X27027333Y-177984857D01*
X27027333Y-178080095D01*
X27074952Y-178222952D01*
X27646380Y-178794380D01*
X27027333Y-178794380D01*
X29455904Y-172841380D02*
X28884476Y-172841380D01*
X29170190Y-173841380D02*
X29170190Y-172841380D01*
X28551142Y-173841380D02*
X28551142Y-172841380D01*
X28170190Y-172841380D01*
X28074952Y-172889000D01*
X28027333Y-172936619D01*
X27979714Y-173031857D01*
X27979714Y-173174714D01*
X28027333Y-173269952D01*
X28074952Y-173317571D01*
X28170190Y-173365190D01*
X28551142Y-173365190D01*
X27027333Y-173841380D02*
X27598761Y-173841380D01*
X27313047Y-173841380D02*
X27313047Y-172841380D01*
X27408285Y-172984238D01*
X27503523Y-173079476D01*
X27598761Y-173127095D01*
D12*
X74606000Y-179324000D02*
G75*
G03*
X74606000Y-179324000I-1200000J0D01*
G01*
X74606000Y-171069000D02*
G75*
G03*
X74606000Y-171069000I-1200000J0D01*
G01*
X29394000Y-180340000D02*
G75*
G03*
X29394000Y-180340000I-1200000J0D01*
G01*
X29394000Y-175387000D02*
G75*
G03*
X29394000Y-175387000I-1200000J0D01*
G01*
M02*
