G04 #@! TF.GenerationSoftware,KiCad,Pcbnew,6.0.2+dfsg-1*
G04 #@! TF.CreationDate,2024-04-05T20:58:32-06:00*
G04 #@! TF.ProjectId,mss-crossover,6d73732d-6372-46f7-9373-6f7665722e6b,rev?*
G04 #@! TF.SameCoordinates,Original*
G04 #@! TF.FileFunction,Legend,Top*
G04 #@! TF.FilePolarity,Positive*
%FSLAX46Y46*%
G04 Gerber Fmt 4.6, Leading zero omitted, Abs format (unit mm)*
G04 Created by KiCad (PCBNEW 6.0.2+dfsg-1) date 2024-04-05 20:58:32*
%MOMM*%
%LPD*%
G01*
G04 APERTURE LIST*
%ADD10C,0.300000*%
%ADD11C,0.304800*%
%ADD12C,0.152400*%
%ADD13C,0.150000*%
%ADD14C,0.120000*%
%ADD15C,0.127000*%
%ADD16C,0.200000*%
G04 APERTURE END LIST*
D10*
X49816000Y-190797571D02*
X49816000Y-189297571D01*
X50387428Y-189297571D01*
X50530285Y-189369000D01*
X50601714Y-189440428D01*
X50673142Y-189583285D01*
X50673142Y-189797571D01*
X50601714Y-189940428D01*
X50530285Y-190011857D01*
X50387428Y-190083285D01*
X49816000Y-190083285D01*
X51173142Y-189297571D02*
X51530285Y-190797571D01*
X51816000Y-189726142D01*
X52101714Y-190797571D01*
X52458857Y-189297571D01*
X53887428Y-190797571D02*
X53387428Y-190083285D01*
X53030285Y-190797571D02*
X53030285Y-189297571D01*
X53601714Y-189297571D01*
X53744571Y-189369000D01*
X53816000Y-189440428D01*
X53887428Y-189583285D01*
X53887428Y-189797571D01*
X53816000Y-189940428D01*
X53744571Y-190011857D01*
X53601714Y-190083285D01*
X53030285Y-190083285D01*
X73449571Y-185951571D02*
X71949571Y-185951571D01*
X73021000Y-185451571D01*
X71949571Y-184951571D01*
X73449571Y-184951571D01*
X73378142Y-184308714D02*
X73449571Y-184094428D01*
X73449571Y-183737285D01*
X73378142Y-183594428D01*
X73306714Y-183523000D01*
X73163857Y-183451571D01*
X73021000Y-183451571D01*
X72878142Y-183523000D01*
X72806714Y-183594428D01*
X72735285Y-183737285D01*
X72663857Y-184023000D01*
X72592428Y-184165857D01*
X72521000Y-184237285D01*
X72378142Y-184308714D01*
X72235285Y-184308714D01*
X72092428Y-184237285D01*
X72021000Y-184165857D01*
X71949571Y-184023000D01*
X71949571Y-183665857D01*
X72021000Y-183451571D01*
X73378142Y-182880142D02*
X73449571Y-182665857D01*
X73449571Y-182308714D01*
X73378142Y-182165857D01*
X73306714Y-182094428D01*
X73163857Y-182023000D01*
X73021000Y-182023000D01*
X72878142Y-182094428D01*
X72806714Y-182165857D01*
X72735285Y-182308714D01*
X72663857Y-182594428D01*
X72592428Y-182737285D01*
X72521000Y-182808714D01*
X72378142Y-182880142D01*
X72235285Y-182880142D01*
X72092428Y-182808714D01*
X72021000Y-182737285D01*
X71949571Y-182594428D01*
X71949571Y-182237285D01*
X72021000Y-182023000D01*
X26499428Y-174335714D02*
X27999428Y-174335714D01*
X27999428Y-174907142D01*
X27928000Y-175050000D01*
X27856571Y-175121428D01*
X27713714Y-175192857D01*
X27499428Y-175192857D01*
X27356571Y-175121428D01*
X27285142Y-175050000D01*
X27213714Y-174907142D01*
X27213714Y-174335714D01*
X27999428Y-176121428D02*
X27999428Y-176407142D01*
X27928000Y-176550000D01*
X27785142Y-176692857D01*
X27499428Y-176764285D01*
X26999428Y-176764285D01*
X26713714Y-176692857D01*
X26570857Y-176550000D01*
X26499428Y-176407142D01*
X26499428Y-176121428D01*
X26570857Y-175978571D01*
X26713714Y-175835714D01*
X26999428Y-175764285D01*
X27499428Y-175764285D01*
X27785142Y-175835714D01*
X27928000Y-175978571D01*
X27999428Y-176121428D01*
X27999428Y-177264285D02*
X26499428Y-177621428D01*
X27570857Y-177907142D01*
X26499428Y-178192857D01*
X27999428Y-178550000D01*
X27285142Y-179121428D02*
X27285142Y-179621428D01*
X26499428Y-179835714D02*
X26499428Y-179121428D01*
X27999428Y-179121428D01*
X27999428Y-179835714D01*
X26499428Y-181335714D02*
X27213714Y-180835714D01*
X26499428Y-180478571D02*
X27999428Y-180478571D01*
X27999428Y-181050000D01*
X27928000Y-181192857D01*
X27856571Y-181264285D01*
X27713714Y-181335714D01*
X27499428Y-181335714D01*
X27356571Y-181264285D01*
X27285142Y-181192857D01*
X27213714Y-181050000D01*
X27213714Y-180478571D01*
X73576571Y-163345571D02*
X72076571Y-163345571D01*
X73148000Y-162845571D01*
X72076571Y-162345571D01*
X73576571Y-162345571D01*
X73505142Y-161702714D02*
X73576571Y-161488428D01*
X73576571Y-161131285D01*
X73505142Y-160988428D01*
X73433714Y-160917000D01*
X73290857Y-160845571D01*
X73148000Y-160845571D01*
X73005142Y-160917000D01*
X72933714Y-160988428D01*
X72862285Y-161131285D01*
X72790857Y-161417000D01*
X72719428Y-161559857D01*
X72648000Y-161631285D01*
X72505142Y-161702714D01*
X72362285Y-161702714D01*
X72219428Y-161631285D01*
X72148000Y-161559857D01*
X72076571Y-161417000D01*
X72076571Y-161059857D01*
X72148000Y-160845571D01*
X73505142Y-160274142D02*
X73576571Y-160059857D01*
X73576571Y-159702714D01*
X73505142Y-159559857D01*
X73433714Y-159488428D01*
X73290857Y-159417000D01*
X73148000Y-159417000D01*
X73005142Y-159488428D01*
X72933714Y-159559857D01*
X72862285Y-159702714D01*
X72790857Y-159988428D01*
X72719428Y-160131285D01*
X72648000Y-160202714D01*
X72505142Y-160274142D01*
X72362285Y-160274142D01*
X72219428Y-160202714D01*
X72148000Y-160131285D01*
X72076571Y-159988428D01*
X72076571Y-159631285D01*
X72148000Y-159417000D01*
D11*
X66965285Y-161961285D02*
X67037857Y-162033857D01*
X67110428Y-162251571D01*
X67110428Y-162396714D01*
X67037857Y-162614428D01*
X66892714Y-162759571D01*
X66747571Y-162832142D01*
X66457285Y-162904714D01*
X66239571Y-162904714D01*
X65949285Y-162832142D01*
X65804142Y-162759571D01*
X65659000Y-162614428D01*
X65586428Y-162396714D01*
X65586428Y-162251571D01*
X65659000Y-162033857D01*
X65731571Y-161961285D01*
X66675000Y-161380714D02*
X66675000Y-160655000D01*
X67110428Y-161525857D02*
X65586428Y-161017857D01*
X67110428Y-160509857D01*
X67110428Y-159276142D02*
X67110428Y-160001857D01*
X65586428Y-160001857D01*
D12*
X93565859Y-182166380D02*
X92549859Y-182166380D01*
X93565859Y-181537428D02*
X93517478Y-181634190D01*
X93469097Y-181682571D01*
X93372335Y-181730952D01*
X93082049Y-181730952D01*
X92985287Y-181682571D01*
X92936906Y-181634190D01*
X92888525Y-181537428D01*
X92888525Y-181392285D01*
X92936906Y-181295523D01*
X92985287Y-181247142D01*
X93082049Y-181198761D01*
X93372335Y-181198761D01*
X93469097Y-181247142D01*
X93517478Y-181295523D01*
X93565859Y-181392285D01*
X93565859Y-181537428D01*
X92888525Y-180860095D02*
X93565859Y-180666571D01*
X93082049Y-180473047D01*
X93565859Y-180279523D01*
X92888525Y-180086000D01*
X93565859Y-179263523D02*
X93033668Y-179263523D01*
X92936906Y-179311904D01*
X92888525Y-179408666D01*
X92888525Y-179602190D01*
X92936906Y-179698952D01*
X93517478Y-179263523D02*
X93565859Y-179360285D01*
X93565859Y-179602190D01*
X93517478Y-179698952D01*
X93420716Y-179747333D01*
X93323954Y-179747333D01*
X93227192Y-179698952D01*
X93178811Y-179602190D01*
X93178811Y-179360285D01*
X93130430Y-179263523D01*
X93517478Y-178054000D02*
X93565859Y-177908857D01*
X93565859Y-177666952D01*
X93517478Y-177570190D01*
X93469097Y-177521809D01*
X93372335Y-177473428D01*
X93275573Y-177473428D01*
X93178811Y-177521809D01*
X93130430Y-177570190D01*
X93082049Y-177666952D01*
X93033668Y-177860476D01*
X92985287Y-177957238D01*
X92936906Y-178005619D01*
X92840144Y-178054000D01*
X92743382Y-178054000D01*
X92646620Y-178005619D01*
X92598240Y-177957238D01*
X92549859Y-177860476D01*
X92549859Y-177618571D01*
X92598240Y-177473428D01*
X93517478Y-176602571D02*
X93565859Y-176699333D01*
X93565859Y-176892857D01*
X93517478Y-176989619D01*
X93469097Y-177038000D01*
X93372335Y-177086380D01*
X93082049Y-177086380D01*
X92985287Y-177038000D01*
X92936906Y-176989619D01*
X92888525Y-176892857D01*
X92888525Y-176699333D01*
X92936906Y-176602571D01*
X93565859Y-175731714D02*
X93033668Y-175731714D01*
X92936906Y-175780095D01*
X92888525Y-175876857D01*
X92888525Y-176070380D01*
X92936906Y-176167142D01*
X93517478Y-175731714D02*
X93565859Y-175828476D01*
X93565859Y-176070380D01*
X93517478Y-176167142D01*
X93420716Y-176215523D01*
X93323954Y-176215523D01*
X93227192Y-176167142D01*
X93178811Y-176070380D01*
X93178811Y-175828476D01*
X93130430Y-175731714D01*
X93565859Y-175102761D02*
X93517478Y-175199523D01*
X93420716Y-175247904D01*
X92549859Y-175247904D01*
X93517478Y-174328666D02*
X93565859Y-174425428D01*
X93565859Y-174618952D01*
X93517478Y-174715714D01*
X93420716Y-174764095D01*
X93033668Y-174764095D01*
X92936906Y-174715714D01*
X92888525Y-174618952D01*
X92888525Y-174425428D01*
X92936906Y-174328666D01*
X93033668Y-174280285D01*
X93130430Y-174280285D01*
X93227192Y-174764095D01*
X93565859Y-173409428D02*
X92549859Y-173409428D01*
X93517478Y-173409428D02*
X93565859Y-173506190D01*
X93565859Y-173699714D01*
X93517478Y-173796476D01*
X93469097Y-173844857D01*
X93372335Y-173893238D01*
X93082049Y-173893238D01*
X92985287Y-173844857D01*
X92936906Y-173796476D01*
X92888525Y-173699714D01*
X92888525Y-173506190D01*
X92936906Y-173409428D01*
X93033668Y-172151523D02*
X93033668Y-171812857D01*
X93565859Y-171667714D02*
X93565859Y-172151523D01*
X92549859Y-172151523D01*
X92549859Y-171667714D01*
X92888525Y-171232285D02*
X93565859Y-171232285D01*
X92985287Y-171232285D02*
X92936906Y-171183904D01*
X92888525Y-171087142D01*
X92888525Y-170942000D01*
X92936906Y-170845238D01*
X93033668Y-170796857D01*
X93565859Y-170796857D01*
X92888525Y-169877619D02*
X93711001Y-169877619D01*
X93807763Y-169926000D01*
X93856144Y-169974380D01*
X93904525Y-170071142D01*
X93904525Y-170216285D01*
X93856144Y-170313047D01*
X93517478Y-169877619D02*
X93565859Y-169974380D01*
X93565859Y-170167904D01*
X93517478Y-170264666D01*
X93469097Y-170313047D01*
X93372335Y-170361428D01*
X93082049Y-170361428D01*
X92985287Y-170313047D01*
X92936906Y-170264666D01*
X92888525Y-170167904D01*
X92888525Y-169974380D01*
X92936906Y-169877619D01*
X93565859Y-169393809D02*
X92888525Y-169393809D01*
X92549859Y-169393809D02*
X92598240Y-169442190D01*
X92646620Y-169393809D01*
X92598240Y-169345428D01*
X92549859Y-169393809D01*
X92646620Y-169393809D01*
X92888525Y-168910000D02*
X93565859Y-168910000D01*
X92985287Y-168910000D02*
X92936906Y-168861619D01*
X92888525Y-168764857D01*
X92888525Y-168619714D01*
X92936906Y-168522952D01*
X93033668Y-168474571D01*
X93565859Y-168474571D01*
X93517478Y-167603714D02*
X93565859Y-167700476D01*
X93565859Y-167894000D01*
X93517478Y-167990761D01*
X93420716Y-168039142D01*
X93033668Y-168039142D01*
X92936906Y-167990761D01*
X92888525Y-167894000D01*
X92888525Y-167700476D01*
X92936906Y-167603714D01*
X93033668Y-167555333D01*
X93130430Y-167555333D01*
X93227192Y-168039142D01*
X93517478Y-166732857D02*
X93565859Y-166829619D01*
X93565859Y-167023142D01*
X93517478Y-167119904D01*
X93420716Y-167168285D01*
X93033668Y-167168285D01*
X92936906Y-167119904D01*
X92888525Y-167023142D01*
X92888525Y-166829619D01*
X92936906Y-166732857D01*
X93033668Y-166684476D01*
X93130430Y-166684476D01*
X93227192Y-167168285D01*
X93565859Y-166249047D02*
X92888525Y-166249047D01*
X93082049Y-166249047D02*
X92985287Y-166200666D01*
X92936906Y-166152285D01*
X92888525Y-166055523D01*
X92888525Y-165958761D01*
X93565859Y-165620095D02*
X92888525Y-165620095D01*
X92549859Y-165620095D02*
X92598240Y-165668476D01*
X92646620Y-165620095D01*
X92598240Y-165571714D01*
X92549859Y-165620095D01*
X92646620Y-165620095D01*
X92888525Y-165136285D02*
X93565859Y-165136285D01*
X92985287Y-165136285D02*
X92936906Y-165087904D01*
X92888525Y-164991142D01*
X92888525Y-164846000D01*
X92936906Y-164749238D01*
X93033668Y-164700857D01*
X93565859Y-164700857D01*
X92888525Y-163781619D02*
X93711001Y-163781619D01*
X93807763Y-163830000D01*
X93856144Y-163878380D01*
X93904525Y-163975142D01*
X93904525Y-164120285D01*
X93856144Y-164217047D01*
X93517478Y-163781619D02*
X93565859Y-163878380D01*
X93565859Y-164071904D01*
X93517478Y-164168666D01*
X93469097Y-164217047D01*
X93372335Y-164265428D01*
X93082049Y-164265428D01*
X92985287Y-164217047D01*
X92936906Y-164168666D01*
X92888525Y-164071904D01*
X92888525Y-163878380D01*
X92936906Y-163781619D01*
X95201619Y-181343904D02*
X94185619Y-181343904D01*
X94911333Y-181005238D01*
X94185619Y-180666571D01*
X95201619Y-180666571D01*
X95153238Y-180231142D02*
X95201619Y-180086000D01*
X95201619Y-179844095D01*
X95153238Y-179747333D01*
X95104857Y-179698952D01*
X95008095Y-179650571D01*
X94911333Y-179650571D01*
X94814571Y-179698952D01*
X94766190Y-179747333D01*
X94717809Y-179844095D01*
X94669428Y-180037619D01*
X94621047Y-180134380D01*
X94572666Y-180182761D01*
X94475904Y-180231142D01*
X94379142Y-180231142D01*
X94282380Y-180182761D01*
X94234000Y-180134380D01*
X94185619Y-180037619D01*
X94185619Y-179795714D01*
X94234000Y-179650571D01*
X95153238Y-179263523D02*
X95201619Y-179118380D01*
X95201619Y-178876476D01*
X95153238Y-178779714D01*
X95104857Y-178731333D01*
X95008095Y-178682952D01*
X94911333Y-178682952D01*
X94814571Y-178731333D01*
X94766190Y-178779714D01*
X94717809Y-178876476D01*
X94669428Y-179070000D01*
X94621047Y-179166761D01*
X94572666Y-179215142D01*
X94475904Y-179263523D01*
X94379142Y-179263523D01*
X94282380Y-179215142D01*
X94234000Y-179166761D01*
X94185619Y-179070000D01*
X94185619Y-178828095D01*
X94234000Y-178682952D01*
X94814571Y-178247523D02*
X94814571Y-177473428D01*
X95104857Y-176409047D02*
X95153238Y-176457428D01*
X95201619Y-176602571D01*
X95201619Y-176699333D01*
X95153238Y-176844476D01*
X95056476Y-176941238D01*
X94959714Y-176989619D01*
X94766190Y-177038000D01*
X94621047Y-177038000D01*
X94427523Y-176989619D01*
X94330761Y-176941238D01*
X94234000Y-176844476D01*
X94185619Y-176699333D01*
X94185619Y-176602571D01*
X94234000Y-176457428D01*
X94282380Y-176409047D01*
X95201619Y-175393047D02*
X94717809Y-175731714D01*
X95201619Y-175973619D02*
X94185619Y-175973619D01*
X94185619Y-175586571D01*
X94234000Y-175489809D01*
X94282380Y-175441428D01*
X94379142Y-175393047D01*
X94524285Y-175393047D01*
X94621047Y-175441428D01*
X94669428Y-175489809D01*
X94717809Y-175586571D01*
X94717809Y-175973619D01*
X94185619Y-174764095D02*
X94185619Y-174570571D01*
X94234000Y-174473809D01*
X94330761Y-174377047D01*
X94524285Y-174328666D01*
X94862952Y-174328666D01*
X95056476Y-174377047D01*
X95153238Y-174473809D01*
X95201619Y-174570571D01*
X95201619Y-174764095D01*
X95153238Y-174860857D01*
X95056476Y-174957619D01*
X94862952Y-175006000D01*
X94524285Y-175006000D01*
X94330761Y-174957619D01*
X94234000Y-174860857D01*
X94185619Y-174764095D01*
X95153238Y-173941619D02*
X95201619Y-173796476D01*
X95201619Y-173554571D01*
X95153238Y-173457809D01*
X95104857Y-173409428D01*
X95008095Y-173361047D01*
X94911333Y-173361047D01*
X94814571Y-173409428D01*
X94766190Y-173457809D01*
X94717809Y-173554571D01*
X94669428Y-173748095D01*
X94621047Y-173844857D01*
X94572666Y-173893238D01*
X94475904Y-173941619D01*
X94379142Y-173941619D01*
X94282380Y-173893238D01*
X94234000Y-173844857D01*
X94185619Y-173748095D01*
X94185619Y-173506190D01*
X94234000Y-173361047D01*
X95153238Y-172974000D02*
X95201619Y-172828857D01*
X95201619Y-172586952D01*
X95153238Y-172490190D01*
X95104857Y-172441809D01*
X95008095Y-172393428D01*
X94911333Y-172393428D01*
X94814571Y-172441809D01*
X94766190Y-172490190D01*
X94717809Y-172586952D01*
X94669428Y-172780476D01*
X94621047Y-172877238D01*
X94572666Y-172925619D01*
X94475904Y-172974000D01*
X94379142Y-172974000D01*
X94282380Y-172925619D01*
X94234000Y-172877238D01*
X94185619Y-172780476D01*
X94185619Y-172538571D01*
X94234000Y-172393428D01*
X94185619Y-171764476D02*
X94185619Y-171570952D01*
X94234000Y-171474190D01*
X94330761Y-171377428D01*
X94524285Y-171329047D01*
X94862952Y-171329047D01*
X95056476Y-171377428D01*
X95153238Y-171474190D01*
X95201619Y-171570952D01*
X95201619Y-171764476D01*
X95153238Y-171861238D01*
X95056476Y-171958000D01*
X94862952Y-172006380D01*
X94524285Y-172006380D01*
X94330761Y-171958000D01*
X94234000Y-171861238D01*
X94185619Y-171764476D01*
X94185619Y-171038761D02*
X95201619Y-170700095D01*
X94185619Y-170361428D01*
X94669428Y-170022761D02*
X94669428Y-169684095D01*
X95201619Y-169538952D02*
X95201619Y-170022761D01*
X94185619Y-170022761D01*
X94185619Y-169538952D01*
X95201619Y-168522952D02*
X94717809Y-168861619D01*
X95201619Y-169103523D02*
X94185619Y-169103523D01*
X94185619Y-168716476D01*
X94234000Y-168619714D01*
X94282380Y-168571333D01*
X94379142Y-168522952D01*
X94524285Y-168522952D01*
X94621047Y-168571333D01*
X94669428Y-168619714D01*
X94717809Y-168716476D01*
X94717809Y-169103523D01*
X94524285Y-167410190D02*
X95201619Y-167168285D01*
X94524285Y-166926380D01*
X94282380Y-166587714D02*
X94234000Y-166539333D01*
X94185619Y-166442571D01*
X94185619Y-166200666D01*
X94234000Y-166103904D01*
X94282380Y-166055523D01*
X94379142Y-166007142D01*
X94475904Y-166007142D01*
X94621047Y-166055523D01*
X95201619Y-166636095D01*
X95201619Y-166007142D01*
X95104857Y-165571714D02*
X95153238Y-165523333D01*
X95201619Y-165571714D01*
X95153238Y-165620095D01*
X95104857Y-165571714D01*
X95201619Y-165571714D01*
X94185619Y-164894380D02*
X94185619Y-164797619D01*
X94234000Y-164700857D01*
X94282380Y-164652476D01*
X94379142Y-164604095D01*
X94572666Y-164555714D01*
X94814571Y-164555714D01*
X95008095Y-164604095D01*
X95104857Y-164652476D01*
X95153238Y-164700857D01*
X95201619Y-164797619D01*
X95201619Y-164894380D01*
X95153238Y-164991142D01*
X95104857Y-165039523D01*
X95008095Y-165087904D01*
X94814571Y-165136285D01*
X94572666Y-165136285D01*
X94379142Y-165087904D01*
X94282380Y-165039523D01*
X94234000Y-164991142D01*
X94185619Y-164894380D01*
X96160045Y-182843714D02*
X96837379Y-182650190D01*
X96353569Y-182456666D01*
X96837379Y-182263142D01*
X96160045Y-182069619D01*
X96160045Y-181779333D02*
X96837379Y-181585809D01*
X96353569Y-181392285D01*
X96837379Y-181198761D01*
X96160045Y-181005238D01*
X96160045Y-180714952D02*
X96837379Y-180521428D01*
X96353569Y-180327904D01*
X96837379Y-180134380D01*
X96160045Y-179940857D01*
X96740617Y-179553809D02*
X96788998Y-179505428D01*
X96837379Y-179553809D01*
X96788998Y-179602190D01*
X96740617Y-179553809D01*
X96837379Y-179553809D01*
X96837379Y-179070000D02*
X96160045Y-179070000D01*
X95821379Y-179070000D02*
X95869760Y-179118380D01*
X95918140Y-179070000D01*
X95869760Y-179021619D01*
X95821379Y-179070000D01*
X95918140Y-179070000D01*
X96837379Y-178150761D02*
X96305188Y-178150761D01*
X96208426Y-178199142D01*
X96160045Y-178295904D01*
X96160045Y-178489428D01*
X96208426Y-178586190D01*
X96788998Y-178150761D02*
X96837379Y-178247523D01*
X96837379Y-178489428D01*
X96788998Y-178586190D01*
X96692236Y-178634571D01*
X96595474Y-178634571D01*
X96498712Y-178586190D01*
X96450331Y-178489428D01*
X96450331Y-178247523D01*
X96401950Y-178150761D01*
X96788998Y-177715333D02*
X96837379Y-177618571D01*
X96837379Y-177425047D01*
X96788998Y-177328285D01*
X96692236Y-177279904D01*
X96643855Y-177279904D01*
X96547093Y-177328285D01*
X96498712Y-177425047D01*
X96498712Y-177570190D01*
X96450331Y-177666952D01*
X96353569Y-177715333D01*
X96305188Y-177715333D01*
X96208426Y-177666952D01*
X96160045Y-177570190D01*
X96160045Y-177425047D01*
X96208426Y-177328285D01*
X96788998Y-176409047D02*
X96837379Y-176505809D01*
X96837379Y-176699333D01*
X96788998Y-176796095D01*
X96740617Y-176844476D01*
X96643855Y-176892857D01*
X96353569Y-176892857D01*
X96256807Y-176844476D01*
X96208426Y-176796095D01*
X96160045Y-176699333D01*
X96160045Y-176505809D01*
X96208426Y-176409047D01*
X96837379Y-175538190D02*
X96305188Y-175538190D01*
X96208426Y-175586571D01*
X96160045Y-175683333D01*
X96160045Y-175876857D01*
X96208426Y-175973619D01*
X96788998Y-175538190D02*
X96837379Y-175634952D01*
X96837379Y-175876857D01*
X96788998Y-175973619D01*
X96692236Y-176022000D01*
X96595474Y-176022000D01*
X96498712Y-175973619D01*
X96450331Y-175876857D01*
X96450331Y-175634952D01*
X96401950Y-175538190D01*
X96837379Y-174909238D02*
X96788998Y-175006000D01*
X96692236Y-175054380D01*
X95821379Y-175054380D01*
X96788998Y-174135142D02*
X96837379Y-174231904D01*
X96837379Y-174425428D01*
X96788998Y-174522190D01*
X96692236Y-174570571D01*
X96305188Y-174570571D01*
X96208426Y-174522190D01*
X96160045Y-174425428D01*
X96160045Y-174231904D01*
X96208426Y-174135142D01*
X96305188Y-174086761D01*
X96401950Y-174086761D01*
X96498712Y-174570571D01*
X96837379Y-173215904D02*
X95821379Y-173215904D01*
X96788998Y-173215904D02*
X96837379Y-173312666D01*
X96837379Y-173506190D01*
X96788998Y-173602952D01*
X96740617Y-173651333D01*
X96643855Y-173699714D01*
X96353569Y-173699714D01*
X96256807Y-173651333D01*
X96208426Y-173602952D01*
X96160045Y-173506190D01*
X96160045Y-173312666D01*
X96208426Y-173215904D01*
X96740617Y-172732095D02*
X96788998Y-172683714D01*
X96837379Y-172732095D01*
X96788998Y-172780476D01*
X96740617Y-172732095D01*
X96837379Y-172732095D01*
X96788998Y-171812857D02*
X96837379Y-171909619D01*
X96837379Y-172103142D01*
X96788998Y-172199904D01*
X96740617Y-172248285D01*
X96643855Y-172296666D01*
X96353569Y-172296666D01*
X96256807Y-172248285D01*
X96208426Y-172199904D01*
X96160045Y-172103142D01*
X96160045Y-171909619D01*
X96208426Y-171812857D01*
X96837379Y-171232285D02*
X96788998Y-171329047D01*
X96740617Y-171377428D01*
X96643855Y-171425809D01*
X96353569Y-171425809D01*
X96256807Y-171377428D01*
X96208426Y-171329047D01*
X96160045Y-171232285D01*
X96160045Y-171087142D01*
X96208426Y-170990380D01*
X96256807Y-170942000D01*
X96353569Y-170893619D01*
X96643855Y-170893619D01*
X96740617Y-170942000D01*
X96788998Y-170990380D01*
X96837379Y-171087142D01*
X96837379Y-171232285D01*
X96837379Y-170458190D02*
X96160045Y-170458190D01*
X96256807Y-170458190D02*
X96208426Y-170409809D01*
X96160045Y-170313047D01*
X96160045Y-170167904D01*
X96208426Y-170071142D01*
X96305188Y-170022761D01*
X96837379Y-170022761D01*
X96305188Y-170022761D02*
X96208426Y-169974380D01*
X96160045Y-169877619D01*
X96160045Y-169732476D01*
X96208426Y-169635714D01*
X96305188Y-169587333D01*
X96837379Y-169587333D01*
X96063283Y-167506952D02*
X96014902Y-167603714D01*
X96014902Y-167797238D01*
X96063283Y-167894000D01*
X96160045Y-167990761D01*
X96256807Y-168039142D01*
X96450331Y-168039142D01*
X96547093Y-167990761D01*
X96643855Y-167894000D01*
X96692236Y-167797238D01*
X96692236Y-167603714D01*
X96643855Y-167506952D01*
X95676236Y-167700476D02*
X95724617Y-167942380D01*
X95869760Y-168184285D01*
X96111664Y-168329428D01*
X96353569Y-168377809D01*
X96595474Y-168329428D01*
X96837379Y-168184285D01*
X96982521Y-167942380D01*
X97030902Y-167700476D01*
X96982521Y-167458571D01*
X96837379Y-167216666D01*
X96595474Y-167071523D01*
X96353569Y-167023142D01*
X96111664Y-167071523D01*
X95869760Y-167216666D01*
X95724617Y-167458571D01*
X95676236Y-167700476D01*
X95918140Y-166636095D02*
X95869760Y-166587714D01*
X95821379Y-166490952D01*
X95821379Y-166249047D01*
X95869760Y-166152285D01*
X95918140Y-166103904D01*
X96014902Y-166055523D01*
X96111664Y-166055523D01*
X96256807Y-166103904D01*
X96837379Y-166684476D01*
X96837379Y-166055523D01*
X95821379Y-165426571D02*
X95821379Y-165329809D01*
X95869760Y-165233047D01*
X95918140Y-165184666D01*
X96014902Y-165136285D01*
X96208426Y-165087904D01*
X96450331Y-165087904D01*
X96643855Y-165136285D01*
X96740617Y-165184666D01*
X96788998Y-165233047D01*
X96837379Y-165329809D01*
X96837379Y-165426571D01*
X96788998Y-165523333D01*
X96740617Y-165571714D01*
X96643855Y-165620095D01*
X96450331Y-165668476D01*
X96208426Y-165668476D01*
X96014902Y-165620095D01*
X95918140Y-165571714D01*
X95869760Y-165523333D01*
X95821379Y-165426571D01*
X95918140Y-164700857D02*
X95869760Y-164652476D01*
X95821379Y-164555714D01*
X95821379Y-164313809D01*
X95869760Y-164217047D01*
X95918140Y-164168666D01*
X96014902Y-164120285D01*
X96111664Y-164120285D01*
X96256807Y-164168666D01*
X96837379Y-164749238D01*
X96837379Y-164120285D01*
X96160045Y-163249428D02*
X96837379Y-163249428D01*
X95772998Y-163491333D02*
X96498712Y-163733238D01*
X96498712Y-163104285D01*
D10*
X58015285Y-190654714D02*
X57943857Y-190726142D01*
X57729571Y-190797571D01*
X57586714Y-190797571D01*
X57372428Y-190726142D01*
X57229571Y-190583285D01*
X57158142Y-190440428D01*
X57086714Y-190154714D01*
X57086714Y-189940428D01*
X57158142Y-189654714D01*
X57229571Y-189511857D01*
X57372428Y-189369000D01*
X57586714Y-189297571D01*
X57729571Y-189297571D01*
X57943857Y-189369000D01*
X58015285Y-189440428D01*
X58586714Y-190369000D02*
X59301000Y-190369000D01*
X58443857Y-190797571D02*
X58943857Y-189297571D01*
X59443857Y-190797571D01*
X60658142Y-190797571D02*
X59943857Y-190797571D01*
X59943857Y-189297571D01*
D12*
X29060260Y-163860238D02*
X29060260Y-163666714D01*
X29011880Y-163569952D01*
X28963499Y-163521571D01*
X28818356Y-163424809D01*
X28624832Y-163376428D01*
X28237784Y-163376428D01*
X28141022Y-163424809D01*
X28092641Y-163473190D01*
X28044260Y-163569952D01*
X28044260Y-163763476D01*
X28092641Y-163860238D01*
X28141022Y-163908619D01*
X28237784Y-163957000D01*
X28479689Y-163957000D01*
X28576451Y-163908619D01*
X28624832Y-163860238D01*
X28673213Y-163763476D01*
X28673213Y-163569952D01*
X28624832Y-163473190D01*
X28576451Y-163424809D01*
X28479689Y-163376428D01*
X28431308Y-164392428D02*
X28431308Y-165166523D01*
X28963499Y-165601952D02*
X29011880Y-165650333D01*
X29060260Y-165747095D01*
X29060260Y-165989000D01*
X29011880Y-166085761D01*
X28963499Y-166134142D01*
X28866737Y-166182523D01*
X28769975Y-166182523D01*
X28624832Y-166134142D01*
X28044260Y-165553571D01*
X28044260Y-166182523D01*
X28721594Y-167053380D02*
X28044260Y-167053380D01*
X29108641Y-166811476D02*
X28382927Y-166569571D01*
X28382927Y-167198523D01*
X29060260Y-168214523D02*
X28044260Y-168553190D01*
X29060260Y-168891857D01*
X28044260Y-169375666D02*
X28092641Y-169278904D01*
X28141022Y-169230523D01*
X28237784Y-169182142D01*
X28528070Y-169182142D01*
X28624832Y-169230523D01*
X28673213Y-169278904D01*
X28721594Y-169375666D01*
X28721594Y-169520809D01*
X28673213Y-169617571D01*
X28624832Y-169665952D01*
X28528070Y-169714333D01*
X28237784Y-169714333D01*
X28141022Y-169665952D01*
X28092641Y-169617571D01*
X28044260Y-169520809D01*
X28044260Y-169375666D01*
X28044260Y-170294904D02*
X28092641Y-170198142D01*
X28189403Y-170149761D01*
X29060260Y-170149761D01*
X28721594Y-170536809D02*
X28721594Y-170923857D01*
X29060260Y-170681952D02*
X28189403Y-170681952D01*
X28092641Y-170730333D01*
X28044260Y-170827095D01*
X28044260Y-170923857D01*
X28092641Y-171214142D02*
X28044260Y-171310904D01*
X28044260Y-171504428D01*
X28092641Y-171601190D01*
X28189403Y-171649571D01*
X28237784Y-171649571D01*
X28334546Y-171601190D01*
X28382927Y-171504428D01*
X28382927Y-171359285D01*
X28431308Y-171262523D01*
X28528070Y-171214142D01*
X28576451Y-171214142D01*
X28673213Y-171262523D01*
X28721594Y-171359285D01*
X28721594Y-171504428D01*
X28673213Y-171601190D01*
X26408500Y-162820047D02*
X27424500Y-162820047D01*
X27424500Y-163061952D01*
X27376120Y-163207095D01*
X27279358Y-163303857D01*
X27182596Y-163352238D01*
X26989072Y-163400619D01*
X26843929Y-163400619D01*
X26650405Y-163352238D01*
X26553643Y-163303857D01*
X26456881Y-163207095D01*
X26408500Y-163061952D01*
X26408500Y-162820047D01*
X26505262Y-164416619D02*
X26456881Y-164368238D01*
X26408500Y-164223095D01*
X26408500Y-164126333D01*
X26456881Y-163981190D01*
X26553643Y-163884428D01*
X26650405Y-163836047D01*
X26843929Y-163787666D01*
X26989072Y-163787666D01*
X27182596Y-163836047D01*
X27279358Y-163884428D01*
X27376120Y-163981190D01*
X27424500Y-164126333D01*
X27424500Y-164223095D01*
X27376120Y-164368238D01*
X27327739Y-164416619D01*
X27472881Y-165577761D02*
X26166596Y-164706904D01*
X26698786Y-165868047D02*
X26698786Y-166351857D01*
X26408500Y-165771285D02*
X27424500Y-166109952D01*
X26408500Y-166448619D01*
X26505262Y-167367857D02*
X26456881Y-167319476D01*
X26408500Y-167174333D01*
X26408500Y-167077571D01*
X26456881Y-166932428D01*
X26553643Y-166835666D01*
X26650405Y-166787285D01*
X26843929Y-166738904D01*
X26989072Y-166738904D01*
X27182596Y-166787285D01*
X27279358Y-166835666D01*
X27376120Y-166932428D01*
X27424500Y-167077571D01*
X27424500Y-167174333D01*
X27376120Y-167319476D01*
X27327739Y-167367857D01*
X27472881Y-168529000D02*
X26166596Y-167658142D01*
X26408500Y-168867666D02*
X27424500Y-168867666D01*
X27424500Y-169109571D01*
X27376120Y-169254714D01*
X27279358Y-169351476D01*
X27182596Y-169399857D01*
X26989072Y-169448238D01*
X26843929Y-169448238D01*
X26650405Y-169399857D01*
X26553643Y-169351476D01*
X26456881Y-169254714D01*
X26408500Y-169109571D01*
X26408500Y-168867666D01*
X26505262Y-170464238D02*
X26456881Y-170415857D01*
X26408500Y-170270714D01*
X26408500Y-170173952D01*
X26456881Y-170028809D01*
X26553643Y-169932047D01*
X26650405Y-169883666D01*
X26843929Y-169835285D01*
X26989072Y-169835285D01*
X27182596Y-169883666D01*
X27279358Y-169932047D01*
X27376120Y-170028809D01*
X27424500Y-170173952D01*
X27424500Y-170270714D01*
X27376120Y-170415857D01*
X27327739Y-170464238D01*
X26505262Y-171480238D02*
X26456881Y-171431857D01*
X26408500Y-171286714D01*
X26408500Y-171189952D01*
X26456881Y-171044809D01*
X26553643Y-170948047D01*
X26650405Y-170899666D01*
X26843929Y-170851285D01*
X26989072Y-170851285D01*
X27182596Y-170899666D01*
X27279358Y-170948047D01*
X27376120Y-171044809D01*
X27424500Y-171189952D01*
X27424500Y-171286714D01*
X27376120Y-171431857D01*
X27327739Y-171480238D01*
D13*
X48260000Y-172172380D02*
X48260000Y-172410476D01*
X48021904Y-172315238D02*
X48260000Y-172410476D01*
X48498095Y-172315238D01*
X48117142Y-172600952D02*
X48260000Y-172410476D01*
X48402857Y-172600952D01*
X59944000Y-183094380D02*
X59944000Y-183332476D01*
X59705904Y-183237238D02*
X59944000Y-183332476D01*
X60182095Y-183237238D01*
X59801142Y-183522952D02*
X59944000Y-183332476D01*
X60086857Y-183522952D01*
D10*
X62905142Y-190797571D02*
X62905142Y-189297571D01*
X63262285Y-189297571D01*
X63476571Y-189369000D01*
X63619428Y-189511857D01*
X63690857Y-189654714D01*
X63762285Y-189940428D01*
X63762285Y-190154714D01*
X63690857Y-190440428D01*
X63619428Y-190583285D01*
X63476571Y-190726142D01*
X63262285Y-190797571D01*
X62905142Y-190797571D01*
X64405142Y-190011857D02*
X64905142Y-190011857D01*
X65119428Y-190797571D02*
X64405142Y-190797571D01*
X64405142Y-189297571D01*
X65119428Y-189297571D01*
X65548000Y-189297571D02*
X66405142Y-189297571D01*
X65976571Y-190797571D02*
X65976571Y-189297571D01*
X66905142Y-190011857D02*
X67405142Y-190011857D01*
X67619428Y-190797571D02*
X66905142Y-190797571D01*
X66905142Y-189297571D01*
X67619428Y-189297571D01*
X69119428Y-190654714D02*
X69048000Y-190726142D01*
X68833714Y-190797571D01*
X68690857Y-190797571D01*
X68476571Y-190726142D01*
X68333714Y-190583285D01*
X68262285Y-190440428D01*
X68190857Y-190154714D01*
X68190857Y-189940428D01*
X68262285Y-189654714D01*
X68333714Y-189511857D01*
X68476571Y-189369000D01*
X68690857Y-189297571D01*
X68833714Y-189297571D01*
X69048000Y-189369000D01*
X69119428Y-189440428D01*
X69548000Y-189297571D02*
X70405142Y-189297571D01*
X69976571Y-190797571D02*
X69976571Y-189297571D01*
D13*
X51522333Y-175236142D02*
X51474714Y-175283761D01*
X51331857Y-175331380D01*
X51236619Y-175331380D01*
X51093761Y-175283761D01*
X50998523Y-175188523D01*
X50950904Y-175093285D01*
X50903285Y-174902809D01*
X50903285Y-174759952D01*
X50950904Y-174569476D01*
X50998523Y-174474238D01*
X51093761Y-174379000D01*
X51236619Y-174331380D01*
X51331857Y-174331380D01*
X51474714Y-174379000D01*
X51522333Y-174426619D01*
X52427095Y-174331380D02*
X51950904Y-174331380D01*
X51903285Y-174807571D01*
X51950904Y-174759952D01*
X52046142Y-174712333D01*
X52284238Y-174712333D01*
X52379476Y-174759952D01*
X52427095Y-174807571D01*
X52474714Y-174902809D01*
X52474714Y-175140904D01*
X52427095Y-175236142D01*
X52379476Y-175283761D01*
X52284238Y-175331380D01*
X52046142Y-175331380D01*
X51950904Y-175283761D01*
X51903285Y-175236142D01*
X70635904Y-171013380D02*
X70635904Y-170013380D01*
X70874000Y-170013380D01*
X71016857Y-170061000D01*
X71112095Y-170156238D01*
X71159714Y-170251476D01*
X71207333Y-170441952D01*
X71207333Y-170584809D01*
X71159714Y-170775285D01*
X71112095Y-170870523D01*
X71016857Y-170965761D01*
X70874000Y-171013380D01*
X70635904Y-171013380D01*
X71683523Y-171013380D02*
X71874000Y-171013380D01*
X71969238Y-170965761D01*
X72016857Y-170918142D01*
X72112095Y-170775285D01*
X72159714Y-170584809D01*
X72159714Y-170203857D01*
X72112095Y-170108619D01*
X72064476Y-170061000D01*
X71969238Y-170013380D01*
X71778761Y-170013380D01*
X71683523Y-170061000D01*
X71635904Y-170108619D01*
X71588285Y-170203857D01*
X71588285Y-170441952D01*
X71635904Y-170537190D01*
X71683523Y-170584809D01*
X71778761Y-170632428D01*
X71969238Y-170632428D01*
X72064476Y-170584809D01*
X72112095Y-170537190D01*
X72159714Y-170441952D01*
X61555333Y-185618380D02*
X61222000Y-185142190D01*
X60983904Y-185618380D02*
X60983904Y-184618380D01*
X61364857Y-184618380D01*
X61460095Y-184666000D01*
X61507714Y-184713619D01*
X61555333Y-184808857D01*
X61555333Y-184951714D01*
X61507714Y-185046952D01*
X61460095Y-185094571D01*
X61364857Y-185142190D01*
X60983904Y-185142190D01*
X61888666Y-184618380D02*
X62507714Y-184618380D01*
X62174380Y-184999333D01*
X62317238Y-184999333D01*
X62412476Y-185046952D01*
X62460095Y-185094571D01*
X62507714Y-185189809D01*
X62507714Y-185427904D01*
X62460095Y-185523142D01*
X62412476Y-185570761D01*
X62317238Y-185618380D01*
X62031523Y-185618380D01*
X61936285Y-185570761D01*
X61888666Y-185523142D01*
X72818666Y-154392380D02*
X72818666Y-155106666D01*
X72771047Y-155249523D01*
X72675809Y-155344761D01*
X72532952Y-155392380D01*
X72437714Y-155392380D01*
X73723428Y-154725714D02*
X73723428Y-155392380D01*
X73485333Y-154344761D02*
X73247238Y-155059047D01*
X73866285Y-155059047D01*
X61809333Y-182824380D02*
X61476000Y-182348190D01*
X61237904Y-182824380D02*
X61237904Y-181824380D01*
X61618857Y-181824380D01*
X61714095Y-181872000D01*
X61761714Y-181919619D01*
X61809333Y-182014857D01*
X61809333Y-182157714D01*
X61761714Y-182252952D01*
X61714095Y-182300571D01*
X61618857Y-182348190D01*
X61237904Y-182348190D01*
X62666476Y-181824380D02*
X62476000Y-181824380D01*
X62380761Y-181872000D01*
X62333142Y-181919619D01*
X62237904Y-182062476D01*
X62190285Y-182252952D01*
X62190285Y-182633904D01*
X62237904Y-182729142D01*
X62285523Y-182776761D01*
X62380761Y-182824380D01*
X62571238Y-182824380D01*
X62666476Y-182776761D01*
X62714095Y-182729142D01*
X62761714Y-182633904D01*
X62761714Y-182395809D01*
X62714095Y-182300571D01*
X62666476Y-182252952D01*
X62571238Y-182205333D01*
X62380761Y-182205333D01*
X62285523Y-182252952D01*
X62237904Y-182300571D01*
X62190285Y-182395809D01*
X53871904Y-188031380D02*
X53871904Y-187031380D01*
X54110000Y-187031380D01*
X54252857Y-187079000D01*
X54348095Y-187174238D01*
X54395714Y-187269476D01*
X54443333Y-187459952D01*
X54443333Y-187602809D01*
X54395714Y-187793285D01*
X54348095Y-187888523D01*
X54252857Y-187983761D01*
X54110000Y-188031380D01*
X53871904Y-188031380D01*
X55300476Y-187031380D02*
X55110000Y-187031380D01*
X55014761Y-187079000D01*
X54967142Y-187126619D01*
X54871904Y-187269476D01*
X54824285Y-187459952D01*
X54824285Y-187840904D01*
X54871904Y-187936142D01*
X54919523Y-187983761D01*
X55014761Y-188031380D01*
X55205238Y-188031380D01*
X55300476Y-187983761D01*
X55348095Y-187936142D01*
X55395714Y-187840904D01*
X55395714Y-187602809D01*
X55348095Y-187507571D01*
X55300476Y-187459952D01*
X55205238Y-187412333D01*
X55014761Y-187412333D01*
X54919523Y-187459952D01*
X54871904Y-187507571D01*
X54824285Y-187602809D01*
X54443333Y-185618380D02*
X54110000Y-185142190D01*
X53871904Y-185618380D02*
X53871904Y-184618380D01*
X54252857Y-184618380D01*
X54348095Y-184666000D01*
X54395714Y-184713619D01*
X54443333Y-184808857D01*
X54443333Y-184951714D01*
X54395714Y-185046952D01*
X54348095Y-185094571D01*
X54252857Y-185142190D01*
X53871904Y-185142190D01*
X55395714Y-185618380D02*
X54824285Y-185618380D01*
X55110000Y-185618380D02*
X55110000Y-184618380D01*
X55014761Y-184761238D01*
X54919523Y-184856476D01*
X54824285Y-184904095D01*
X35837904Y-166060380D02*
X35837904Y-165060380D01*
X36076000Y-165060380D01*
X36218857Y-165108000D01*
X36314095Y-165203238D01*
X36361714Y-165298476D01*
X36409333Y-165488952D01*
X36409333Y-165631809D01*
X36361714Y-165822285D01*
X36314095Y-165917523D01*
X36218857Y-166012761D01*
X36076000Y-166060380D01*
X35837904Y-166060380D01*
X36790285Y-165155619D02*
X36837904Y-165108000D01*
X36933142Y-165060380D01*
X37171238Y-165060380D01*
X37266476Y-165108000D01*
X37314095Y-165155619D01*
X37361714Y-165250857D01*
X37361714Y-165346095D01*
X37314095Y-165488952D01*
X36742666Y-166060380D01*
X37361714Y-166060380D01*
X72818666Y-190206380D02*
X72818666Y-190920666D01*
X72771047Y-191063523D01*
X72675809Y-191158761D01*
X72532952Y-191206380D01*
X72437714Y-191206380D01*
X73199619Y-190206380D02*
X73818666Y-190206380D01*
X73485333Y-190587333D01*
X73628190Y-190587333D01*
X73723428Y-190634952D01*
X73771047Y-190682571D01*
X73818666Y-190777809D01*
X73818666Y-191015904D01*
X73771047Y-191111142D01*
X73723428Y-191158761D01*
X73628190Y-191206380D01*
X73342476Y-191206380D01*
X73247238Y-191158761D01*
X73199619Y-191111142D01*
X60856904Y-188031380D02*
X60856904Y-187031380D01*
X61095000Y-187031380D01*
X61237857Y-187079000D01*
X61333095Y-187174238D01*
X61380714Y-187269476D01*
X61428333Y-187459952D01*
X61428333Y-187602809D01*
X61380714Y-187793285D01*
X61333095Y-187888523D01*
X61237857Y-187983761D01*
X61095000Y-188031380D01*
X60856904Y-188031380D01*
X61999761Y-187459952D02*
X61904523Y-187412333D01*
X61856904Y-187364714D01*
X61809285Y-187269476D01*
X61809285Y-187221857D01*
X61856904Y-187126619D01*
X61904523Y-187079000D01*
X61999761Y-187031380D01*
X62190238Y-187031380D01*
X62285476Y-187079000D01*
X62333095Y-187126619D01*
X62380714Y-187221857D01*
X62380714Y-187269476D01*
X62333095Y-187364714D01*
X62285476Y-187412333D01*
X62190238Y-187459952D01*
X61999761Y-187459952D01*
X61904523Y-187507571D01*
X61856904Y-187555190D01*
X61809285Y-187650428D01*
X61809285Y-187840904D01*
X61856904Y-187936142D01*
X61904523Y-187983761D01*
X61999761Y-188031380D01*
X62190238Y-188031380D01*
X62285476Y-187983761D01*
X62333095Y-187936142D01*
X62380714Y-187840904D01*
X62380714Y-187650428D01*
X62333095Y-187555190D01*
X62285476Y-187507571D01*
X62190238Y-187459952D01*
X57872333Y-169267142D02*
X57824714Y-169314761D01*
X57681857Y-169362380D01*
X57586619Y-169362380D01*
X57443761Y-169314761D01*
X57348523Y-169219523D01*
X57300904Y-169124285D01*
X57253285Y-168933809D01*
X57253285Y-168790952D01*
X57300904Y-168600476D01*
X57348523Y-168505238D01*
X57443761Y-168410000D01*
X57586619Y-168362380D01*
X57681857Y-168362380D01*
X57824714Y-168410000D01*
X57872333Y-168457619D01*
X58729476Y-168695714D02*
X58729476Y-169362380D01*
X58491380Y-168314761D02*
X58253285Y-169029047D01*
X58872333Y-169029047D01*
X69389666Y-163123571D02*
X69056333Y-163123571D01*
X69056333Y-163647380D02*
X69056333Y-162647380D01*
X69532523Y-162647380D01*
X70437285Y-163647380D02*
X69865857Y-163647380D01*
X70151571Y-163647380D02*
X70151571Y-162647380D01*
X70056333Y-162790238D01*
X69961095Y-162885476D01*
X69865857Y-162933095D01*
X35734666Y-183856380D02*
X35734666Y-184570666D01*
X35687047Y-184713523D01*
X35591809Y-184808761D01*
X35448952Y-184856380D01*
X35353714Y-184856380D01*
X36734666Y-184856380D02*
X36163238Y-184856380D01*
X36448952Y-184856380D02*
X36448952Y-183856380D01*
X36353714Y-183999238D01*
X36258476Y-184094476D01*
X36163238Y-184142095D01*
X60833095Y-179665380D02*
X60833095Y-180474904D01*
X60880714Y-180570142D01*
X60928333Y-180617761D01*
X61023571Y-180665380D01*
X61214047Y-180665380D01*
X61309285Y-180617761D01*
X61356904Y-180570142D01*
X61404523Y-180474904D01*
X61404523Y-179665380D01*
X61785476Y-179665380D02*
X62404523Y-179665380D01*
X62071190Y-180046333D01*
X62214047Y-180046333D01*
X62309285Y-180093952D01*
X62356904Y-180141571D01*
X62404523Y-180236809D01*
X62404523Y-180474904D01*
X62356904Y-180570142D01*
X62309285Y-180617761D01*
X62214047Y-180665380D01*
X61928333Y-180665380D01*
X61833095Y-180617761D01*
X61785476Y-180570142D01*
X48384083Y-170378380D02*
X48050750Y-169902190D01*
X47812654Y-170378380D02*
X47812654Y-169378380D01*
X48193607Y-169378380D01*
X48288845Y-169426000D01*
X48336464Y-169473619D01*
X48384083Y-169568857D01*
X48384083Y-169711714D01*
X48336464Y-169806952D01*
X48288845Y-169854571D01*
X48193607Y-169902190D01*
X47812654Y-169902190D01*
X49241226Y-169711714D02*
X49241226Y-170378380D01*
X49003130Y-169330761D02*
X48765035Y-170045047D01*
X49384083Y-170045047D01*
X29868904Y-166060380D02*
X29868904Y-165060380D01*
X30107000Y-165060380D01*
X30249857Y-165108000D01*
X30345095Y-165203238D01*
X30392714Y-165298476D01*
X30440333Y-165488952D01*
X30440333Y-165631809D01*
X30392714Y-165822285D01*
X30345095Y-165917523D01*
X30249857Y-166012761D01*
X30107000Y-166060380D01*
X29868904Y-166060380D01*
X31297476Y-165393714D02*
X31297476Y-166060380D01*
X31059380Y-165012761D02*
X30821285Y-165727047D01*
X31440333Y-165727047D01*
X38227095Y-186777380D02*
X38227095Y-187586904D01*
X38274714Y-187682142D01*
X38322333Y-187729761D01*
X38417571Y-187777380D01*
X38608047Y-187777380D01*
X38703285Y-187729761D01*
X38750904Y-187682142D01*
X38798523Y-187586904D01*
X38798523Y-186777380D01*
X39798523Y-187777380D02*
X39227095Y-187777380D01*
X39512809Y-187777380D02*
X39512809Y-186777380D01*
X39417571Y-186920238D01*
X39322333Y-187015476D01*
X39227095Y-187063095D01*
X47712333Y-183491142D02*
X47664714Y-183538761D01*
X47521857Y-183586380D01*
X47426619Y-183586380D01*
X47283761Y-183538761D01*
X47188523Y-183443523D01*
X47140904Y-183348285D01*
X47093285Y-183157809D01*
X47093285Y-183014952D01*
X47140904Y-182824476D01*
X47188523Y-182729238D01*
X47283761Y-182634000D01*
X47426619Y-182586380D01*
X47521857Y-182586380D01*
X47664714Y-182634000D01*
X47712333Y-182681619D01*
X48093285Y-182681619D02*
X48140904Y-182634000D01*
X48236142Y-182586380D01*
X48474238Y-182586380D01*
X48569476Y-182634000D01*
X48617095Y-182681619D01*
X48664714Y-182776857D01*
X48664714Y-182872095D01*
X48617095Y-183014952D01*
X48045666Y-183586380D01*
X48664714Y-183586380D01*
X45172333Y-181586142D02*
X45124714Y-181633761D01*
X44981857Y-181681380D01*
X44886619Y-181681380D01*
X44743761Y-181633761D01*
X44648523Y-181538523D01*
X44600904Y-181443285D01*
X44553285Y-181252809D01*
X44553285Y-181109952D01*
X44600904Y-180919476D01*
X44648523Y-180824238D01*
X44743761Y-180729000D01*
X44886619Y-180681380D01*
X44981857Y-180681380D01*
X45124714Y-180729000D01*
X45172333Y-180776619D01*
X46124714Y-181681380D02*
X45553285Y-181681380D01*
X45839000Y-181681380D02*
X45839000Y-180681380D01*
X45743761Y-180824238D01*
X45648523Y-180919476D01*
X45553285Y-180967095D01*
X51141333Y-170283142D02*
X51093714Y-170330761D01*
X50950857Y-170378380D01*
X50855619Y-170378380D01*
X50712761Y-170330761D01*
X50617523Y-170235523D01*
X50569904Y-170140285D01*
X50522285Y-169949809D01*
X50522285Y-169806952D01*
X50569904Y-169616476D01*
X50617523Y-169521238D01*
X50712761Y-169426000D01*
X50855619Y-169378380D01*
X50950857Y-169378380D01*
X51093714Y-169426000D01*
X51141333Y-169473619D01*
X51998476Y-169378380D02*
X51808000Y-169378380D01*
X51712761Y-169426000D01*
X51665142Y-169473619D01*
X51569904Y-169616476D01*
X51522285Y-169806952D01*
X51522285Y-170187904D01*
X51569904Y-170283142D01*
X51617523Y-170330761D01*
X51712761Y-170378380D01*
X51903238Y-170378380D01*
X51998476Y-170330761D01*
X52046095Y-170283142D01*
X52093714Y-170187904D01*
X52093714Y-169949809D01*
X52046095Y-169854571D01*
X51998476Y-169806952D01*
X51903238Y-169759333D01*
X51712761Y-169759333D01*
X51617523Y-169806952D01*
X51569904Y-169854571D01*
X51522285Y-169949809D01*
X61682333Y-172664380D02*
X61349000Y-172188190D01*
X61110904Y-172664380D02*
X61110904Y-171664380D01*
X61491857Y-171664380D01*
X61587095Y-171712000D01*
X61634714Y-171759619D01*
X61682333Y-171854857D01*
X61682333Y-171997714D01*
X61634714Y-172092952D01*
X61587095Y-172140571D01*
X61491857Y-172188190D01*
X61110904Y-172188190D01*
X62587095Y-171664380D02*
X62110904Y-171664380D01*
X62063285Y-172140571D01*
X62110904Y-172092952D01*
X62206142Y-172045333D01*
X62444238Y-172045333D01*
X62539476Y-172092952D01*
X62587095Y-172140571D01*
X62634714Y-172235809D01*
X62634714Y-172473904D01*
X62587095Y-172569142D01*
X62539476Y-172616761D01*
X62444238Y-172664380D01*
X62206142Y-172664380D01*
X62110904Y-172616761D01*
X62063285Y-172569142D01*
X32916904Y-166060380D02*
X32916904Y-165060380D01*
X33155000Y-165060380D01*
X33297857Y-165108000D01*
X33393095Y-165203238D01*
X33440714Y-165298476D01*
X33488333Y-165488952D01*
X33488333Y-165631809D01*
X33440714Y-165822285D01*
X33393095Y-165917523D01*
X33297857Y-166012761D01*
X33155000Y-166060380D01*
X32916904Y-166060380D01*
X34440714Y-166060380D02*
X33869285Y-166060380D01*
X34155000Y-166060380D02*
X34155000Y-165060380D01*
X34059761Y-165203238D01*
X33964523Y-165298476D01*
X33869285Y-165346095D01*
X53462095Y-162769380D02*
X54033523Y-162769380D01*
X53747809Y-163769380D02*
X53747809Y-162769380D01*
X54890666Y-163769380D02*
X54319238Y-163769380D01*
X54604952Y-163769380D02*
X54604952Y-162769380D01*
X54509714Y-162912238D01*
X54414476Y-163007476D01*
X54319238Y-163055095D01*
X38885904Y-166060380D02*
X38885904Y-165060380D01*
X39124000Y-165060380D01*
X39266857Y-165108000D01*
X39362095Y-165203238D01*
X39409714Y-165298476D01*
X39457333Y-165488952D01*
X39457333Y-165631809D01*
X39409714Y-165822285D01*
X39362095Y-165917523D01*
X39266857Y-166012761D01*
X39124000Y-166060380D01*
X38885904Y-166060380D01*
X39790666Y-165060380D02*
X40409714Y-165060380D01*
X40076380Y-165441333D01*
X40219238Y-165441333D01*
X40314476Y-165488952D01*
X40362095Y-165536571D01*
X40409714Y-165631809D01*
X40409714Y-165869904D01*
X40362095Y-165965142D01*
X40314476Y-166012761D01*
X40219238Y-166060380D01*
X39933523Y-166060380D01*
X39838285Y-166012761D01*
X39790666Y-165965142D01*
X44092904Y-170378380D02*
X44092904Y-169378380D01*
X44331000Y-169378380D01*
X44473857Y-169426000D01*
X44569095Y-169521238D01*
X44616714Y-169616476D01*
X44664333Y-169806952D01*
X44664333Y-169949809D01*
X44616714Y-170140285D01*
X44569095Y-170235523D01*
X44473857Y-170330761D01*
X44331000Y-170378380D01*
X44092904Y-170378380D01*
X45569095Y-169378380D02*
X45092904Y-169378380D01*
X45045285Y-169854571D01*
X45092904Y-169806952D01*
X45188142Y-169759333D01*
X45426238Y-169759333D01*
X45521476Y-169806952D01*
X45569095Y-169854571D01*
X45616714Y-169949809D01*
X45616714Y-170187904D01*
X45569095Y-170283142D01*
X45521476Y-170330761D01*
X45426238Y-170378380D01*
X45188142Y-170378380D01*
X45092904Y-170330761D01*
X45045285Y-170283142D01*
X53848095Y-167981380D02*
X53848095Y-168790904D01*
X53895714Y-168886142D01*
X53943333Y-168933761D01*
X54038571Y-168981380D01*
X54229047Y-168981380D01*
X54324285Y-168933761D01*
X54371904Y-168886142D01*
X54419523Y-168790904D01*
X54419523Y-167981380D01*
X54848095Y-168076619D02*
X54895714Y-168029000D01*
X54990952Y-167981380D01*
X55229047Y-167981380D01*
X55324285Y-168029000D01*
X55371904Y-168076619D01*
X55419523Y-168171857D01*
X55419523Y-168267095D01*
X55371904Y-168409952D01*
X54800476Y-168981380D01*
X55419523Y-168981380D01*
X47926666Y-179284380D02*
X47926666Y-179998666D01*
X47879047Y-180141523D01*
X47783809Y-180236761D01*
X47640952Y-180284380D01*
X47545714Y-180284380D01*
X48355238Y-179379619D02*
X48402857Y-179332000D01*
X48498095Y-179284380D01*
X48736190Y-179284380D01*
X48831428Y-179332000D01*
X48879047Y-179379619D01*
X48926666Y-179474857D01*
X48926666Y-179570095D01*
X48879047Y-179712952D01*
X48307619Y-180284380D01*
X48926666Y-180284380D01*
X61682333Y-175109142D02*
X61634714Y-175156761D01*
X61491857Y-175204380D01*
X61396619Y-175204380D01*
X61253761Y-175156761D01*
X61158523Y-175061523D01*
X61110904Y-174966285D01*
X61063285Y-174775809D01*
X61063285Y-174632952D01*
X61110904Y-174442476D01*
X61158523Y-174347238D01*
X61253761Y-174252000D01*
X61396619Y-174204380D01*
X61491857Y-174204380D01*
X61634714Y-174252000D01*
X61682333Y-174299619D01*
X62015666Y-174204380D02*
X62634714Y-174204380D01*
X62301380Y-174585333D01*
X62444238Y-174585333D01*
X62539476Y-174632952D01*
X62587095Y-174680571D01*
X62634714Y-174775809D01*
X62634714Y-175013904D01*
X62587095Y-175109142D01*
X62539476Y-175156761D01*
X62444238Y-175204380D01*
X62158523Y-175204380D01*
X62063285Y-175156761D01*
X62015666Y-175109142D01*
X69175333Y-185491380D02*
X68842000Y-185015190D01*
X68603904Y-185491380D02*
X68603904Y-184491380D01*
X68984857Y-184491380D01*
X69080095Y-184539000D01*
X69127714Y-184586619D01*
X69175333Y-184681857D01*
X69175333Y-184824714D01*
X69127714Y-184919952D01*
X69080095Y-184967571D01*
X68984857Y-185015190D01*
X68603904Y-185015190D01*
X69556285Y-184586619D02*
X69603904Y-184539000D01*
X69699142Y-184491380D01*
X69937238Y-184491380D01*
X70032476Y-184539000D01*
X70080095Y-184586619D01*
X70127714Y-184681857D01*
X70127714Y-184777095D01*
X70080095Y-184919952D01*
X69508666Y-185491380D01*
X70127714Y-185491380D01*
X68603904Y-188031380D02*
X68603904Y-187031380D01*
X68842000Y-187031380D01*
X68984857Y-187079000D01*
X69080095Y-187174238D01*
X69127714Y-187269476D01*
X69175333Y-187459952D01*
X69175333Y-187602809D01*
X69127714Y-187793285D01*
X69080095Y-187888523D01*
X68984857Y-187983761D01*
X68842000Y-188031380D01*
X68603904Y-188031380D01*
X69508666Y-187031380D02*
X70175333Y-187031380D01*
X69746761Y-188031380D01*
X65151095Y-168235380D02*
X65151095Y-169044904D01*
X65198714Y-169140142D01*
X65246333Y-169187761D01*
X65341571Y-169235380D01*
X65532047Y-169235380D01*
X65627285Y-169187761D01*
X65674904Y-169140142D01*
X65722523Y-169044904D01*
X65722523Y-168235380D01*
X66627285Y-168568714D02*
X66627285Y-169235380D01*
X66389190Y-168187761D02*
X66151095Y-168902047D01*
X66770142Y-168902047D01*
X62825380Y-180340000D02*
X63063476Y-180340000D01*
X62968238Y-180578095D02*
X63063476Y-180340000D01*
X62968238Y-180101904D01*
X63253952Y-180482857D02*
X63063476Y-180340000D01*
X63253952Y-180197142D01*
X59090886Y-161562409D02*
X59291148Y-161629163D01*
X59624919Y-161629163D01*
X59758427Y-161562409D01*
X59825181Y-161495655D01*
X59891935Y-161362147D01*
X59891935Y-161228639D01*
X59825181Y-161095131D01*
X59758427Y-161028377D01*
X59624919Y-160961622D01*
X59357902Y-160894868D01*
X59224394Y-160828114D01*
X59157640Y-160761360D01*
X59090886Y-160627852D01*
X59090886Y-160494344D01*
X59157640Y-160360836D01*
X59224394Y-160294082D01*
X59357902Y-160227328D01*
X59691673Y-160227328D01*
X59891935Y-160294082D01*
X60359213Y-160227328D02*
X60692983Y-161629163D01*
X60960000Y-160627852D01*
X61227016Y-161629163D01*
X61560786Y-160227328D01*
X62829113Y-161629163D02*
X62028064Y-161629163D01*
X62428589Y-161629163D02*
X62428589Y-160227328D01*
X62295080Y-160427590D01*
X62161572Y-160561098D01*
X62028064Y-160627852D01*
D14*
X54221748Y-174144000D02*
X54744252Y-174144000D01*
X54221748Y-175614000D02*
X54744252Y-175614000D01*
X73024000Y-171733000D02*
X69724000Y-171733000D01*
X69724000Y-171733000D02*
X69724000Y-177133000D01*
X73024000Y-171733000D02*
X73024000Y-177133000D01*
X58573936Y-185774000D02*
X59028064Y-185774000D01*
X58573936Y-184304000D02*
X59028064Y-184304000D01*
X90020500Y-171667000D02*
X90032900Y-154071000D01*
X74500500Y-171667000D02*
X90020500Y-171667000D01*
X90205500Y-167787000D02*
X90705500Y-168287000D01*
X74500500Y-171667000D02*
X74500500Y-154071000D01*
X90705500Y-167287000D02*
X90205500Y-167787000D01*
X90705500Y-168287000D02*
X90705500Y-167287000D01*
X65124064Y-181764000D02*
X64669936Y-181764000D01*
X65124064Y-183234000D02*
X64669936Y-183234000D01*
X50131000Y-186619000D02*
X50131000Y-188539000D01*
X52816000Y-186619000D02*
X50131000Y-186619000D01*
X50131000Y-188539000D02*
X52816000Y-188539000D01*
X52043064Y-184304000D02*
X51588936Y-184304000D01*
X52043064Y-185774000D02*
X51588936Y-185774000D01*
X35703000Y-171160000D02*
X37703000Y-171160000D01*
X35703000Y-171160000D02*
X35703000Y-167260000D01*
X37703000Y-171160000D02*
X37703000Y-167260000D01*
X74444500Y-173773000D02*
X74482900Y-191369000D01*
X89964500Y-173773000D02*
X89964500Y-191369000D01*
X74259500Y-177653000D02*
X73759500Y-177153000D01*
X73759500Y-177153000D02*
X73759500Y-178153000D01*
X73759500Y-178153000D02*
X74259500Y-177653000D01*
X89964500Y-173773000D02*
X74444500Y-173773000D01*
X57116000Y-188539000D02*
X59801000Y-188539000D01*
X59801000Y-186619000D02*
X57116000Y-186619000D01*
X57116000Y-186619000D02*
X57116000Y-188539000D01*
X61221252Y-169645000D02*
X60698748Y-169645000D01*
X61221252Y-168175000D02*
X60698748Y-168175000D01*
X70446737Y-167090000D02*
X68999263Y-167090000D01*
X70446737Y-164380000D02*
X68999263Y-164380000D01*
X31490000Y-179120000D02*
X31397000Y-179026000D01*
X33535000Y-181575000D02*
X33442000Y-181481000D01*
X31250000Y-179290000D02*
X31192000Y-179231000D01*
X33741000Y-181370000D02*
X33682000Y-181311000D01*
X36626000Y-172740000D02*
X36626000Y-182860000D01*
X29566000Y-172740000D02*
X29566000Y-182860000D01*
X28905000Y-172740000D02*
X28905000Y-182860000D01*
X29506000Y-172500000D02*
X28666000Y-172500000D01*
X34866000Y-172740000D02*
X34866000Y-182860000D01*
X30166000Y-172740000D02*
X30166000Y-182860000D01*
X28666000Y-172500000D02*
X28666000Y-173100000D01*
X36626000Y-172740000D02*
X28905000Y-172740000D01*
X36626000Y-182860000D02*
X28905000Y-182860000D01*
X33255000Y-173816000D02*
G75*
G03*
X31676911Y-173816047I-789000J-1483995D01*
G01*
X30982000Y-174511000D02*
G75*
G03*
X30785550Y-175329383I1483995J-788998D01*
G01*
X30786000Y-175300000D02*
G75*
G03*
X30982648Y-176088712I1679991J-2D01*
G01*
X33950000Y-176089000D02*
G75*
G03*
X33949953Y-174510911I-1483995J789000D01*
G01*
X31677000Y-176784000D02*
G75*
G03*
X33255089Y-176783953I789000J1483995D01*
G01*
X36016000Y-175300000D02*
G75*
G03*
X36016000Y-175300000I-550000J0D01*
G01*
X34146000Y-180300000D02*
G75*
G03*
X34146000Y-180300000I-1680000J0D01*
G01*
X36016000Y-180300000D02*
G75*
G03*
X36016000Y-180300000I-550000J0D01*
G01*
D13*
X58249000Y-177331000D02*
X58249000Y-177631000D01*
X58249000Y-182841000D02*
X52749000Y-182841000D01*
X52749000Y-177331000D02*
X52749000Y-177631000D01*
X58249000Y-177331000D02*
X52749000Y-177331000D01*
X58249000Y-182636000D02*
X59999000Y-182636000D01*
X58249000Y-182841000D02*
X58249000Y-182636000D01*
X52749000Y-182841000D02*
X52749000Y-182541000D01*
D14*
X47779000Y-167298064D02*
X47779000Y-166843936D01*
X49249000Y-167298064D02*
X49249000Y-166843936D01*
X31607000Y-166660000D02*
X31607000Y-170560000D01*
X29607000Y-166660000D02*
X29607000Y-170560000D01*
X31607000Y-166660000D02*
X29607000Y-166660000D01*
X41749000Y-188007500D02*
X40439000Y-188007500D01*
X44929000Y-184147500D02*
X44929000Y-185287500D01*
X40439000Y-185287500D02*
X40669000Y-185287500D01*
X40439000Y-188007500D02*
X40439000Y-185287500D01*
X45159000Y-185287500D02*
X44929000Y-185287500D01*
X45159000Y-185287500D02*
X45159000Y-188007500D01*
X45159000Y-188007500D02*
X43849000Y-188007500D01*
X47017000Y-185412748D02*
X47017000Y-185935252D01*
X48487000Y-185412748D02*
X48487000Y-185935252D01*
X43620563Y-180575000D02*
X42335000Y-180575000D01*
X39033750Y-181208750D02*
X39821250Y-181208750D01*
X39427500Y-181602500D02*
X39427500Y-180815000D01*
X44685000Y-179510563D02*
X44685000Y-173755000D01*
X37865000Y-179510563D02*
X37865000Y-173755000D01*
X43620563Y-180575000D02*
X44685000Y-179510563D01*
X44685000Y-173755000D02*
X42335000Y-173755000D01*
X38929437Y-180575000D02*
X37865000Y-179510563D01*
X37865000Y-173755000D02*
X40215000Y-173755000D01*
X38929437Y-180575000D02*
X40215000Y-180575000D01*
X52133250Y-166809748D02*
X52133250Y-167332252D01*
X50663250Y-166809748D02*
X50663250Y-167332252D01*
X59258564Y-172902250D02*
X58804436Y-172902250D01*
X59258564Y-171432250D02*
X58804436Y-171432250D01*
X32655000Y-171160000D02*
X32655000Y-167260000D01*
X34655000Y-171160000D02*
X34655000Y-167260000D01*
X32655000Y-171160000D02*
X34655000Y-171160000D01*
D15*
X35494000Y-154302500D02*
X53020000Y-154302500D01*
X53020000Y-154302500D02*
X53020000Y-164081500D01*
X53020000Y-164081500D02*
X35494000Y-164081500D01*
X35494000Y-164081500D02*
X35494000Y-154302500D01*
D16*
X53957000Y-159192000D02*
G75*
G03*
X53957000Y-159192000I-100000J0D01*
G01*
D14*
X40751000Y-166660000D02*
X40751000Y-170560000D01*
X38751000Y-166660000D02*
X38751000Y-170560000D01*
X40751000Y-166660000D02*
X38751000Y-166660000D01*
X46481250Y-167071000D02*
X46481250Y-165396000D01*
X43361250Y-167071000D02*
X43361250Y-166421000D01*
X43361250Y-167071000D02*
X43361250Y-167721000D01*
X46481250Y-167071000D02*
X46481250Y-167721000D01*
X54731500Y-169575000D02*
X53931500Y-169575000D01*
X54731500Y-172695000D02*
X56531500Y-172695000D01*
X54731500Y-172695000D02*
X53931500Y-172695000D01*
X54731500Y-169575000D02*
X55531500Y-169575000D01*
X49657000Y-177165000D02*
X49022000Y-177165000D01*
X49657000Y-176530000D02*
X49657000Y-177165000D01*
X59292752Y-175569250D02*
X58770248Y-175569250D01*
X59292752Y-174099250D02*
X58770248Y-174099250D01*
X66320936Y-185774000D02*
X66775064Y-185774000D01*
X66320936Y-184304000D02*
X66775064Y-184304000D01*
X64863000Y-188539000D02*
X67548000Y-188539000D01*
X67548000Y-186619000D02*
X64863000Y-186619000D01*
X64863000Y-186619000D02*
X64863000Y-188539000D01*
D12*
X63808012Y-171678600D02*
X63500000Y-171678600D01*
X68580000Y-178587400D02*
X68580000Y-171678600D01*
X68580000Y-171678600D02*
X68271988Y-171678600D01*
X65731988Y-178587400D02*
X66348012Y-178587400D01*
X63500000Y-178587400D02*
X63808012Y-178587400D01*
X66348012Y-171678600D02*
X65731988Y-171678600D01*
X68271988Y-178587400D02*
X68580000Y-178587400D01*
X63500000Y-171678600D02*
X63500000Y-178587400D01*
D15*
X57960000Y-163995000D02*
X57960000Y-157995000D01*
X57960000Y-157995000D02*
X63960000Y-157995000D01*
X63960000Y-157995000D02*
X63960000Y-163995000D01*
X63960000Y-163995000D02*
X57960000Y-163995000D01*
D16*
X63309000Y-154844000D02*
G75*
G03*
X63309000Y-154844000I-100000J0D01*
G01*
M02*
