G04 #@! TF.GenerationSoftware,KiCad,Pcbnew,6.0.2+dfsg-1*
G04 #@! TF.CreationDate,2024-04-05T20:58:32-06:00*
G04 #@! TF.ProjectId,mss-crossover,6d73732d-6372-46f7-9373-6f7665722e6b,rev?*
G04 #@! TF.SameCoordinates,Original*
G04 #@! TF.FileFunction,Soldermask,Bot*
G04 #@! TF.FilePolarity,Negative*
%FSLAX46Y46*%
G04 Gerber Fmt 4.6, Leading zero omitted, Abs format (unit mm)*
G04 Created by KiCad (PCBNEW 6.0.2+dfsg-1) date 2024-04-05 20:58:32*
%MOMM*%
%LPD*%
G01*
G04 APERTURE LIST*
%ADD10C,6.552400*%
%ADD11C,3.352400*%
%ADD12C,1.652400*%
%ADD13C,2.652400*%
%ADD14C,1.728000*%
%ADD15C,1.143000*%
%ADD16C,2.152400*%
G04 APERTURE END LIST*
D10*
X94742000Y-187452000D03*
D11*
X76545500Y-161437000D03*
X87975500Y-161437000D03*
G36*
G01*
X87531700Y-167037000D02*
X87531700Y-168537000D01*
G75*
G02*
X87455500Y-168613200I-76200J0D01*
G01*
X85955500Y-168613200D01*
G75*
G02*
X85879300Y-168537000I0J76200D01*
G01*
X85879300Y-167037000D01*
G75*
G02*
X85955500Y-166960800I76200J0D01*
G01*
X87455500Y-166960800D01*
G75*
G02*
X87531700Y-167037000I0J-76200D01*
G01*
G37*
D12*
X85435500Y-170327000D03*
X84165500Y-167787000D03*
X82895500Y-170327000D03*
X81625500Y-167787000D03*
X80355500Y-170327000D03*
X79085500Y-167787000D03*
X77815500Y-170327000D03*
D10*
X94742000Y-157988000D03*
D11*
X87919500Y-184003000D03*
X76489500Y-184003000D03*
G36*
G01*
X76933300Y-178403000D02*
X76933300Y-176903000D01*
G75*
G02*
X77009500Y-176826800I76200J0D01*
G01*
X78509500Y-176826800D01*
G75*
G02*
X78585700Y-176903000I0J-76200D01*
G01*
X78585700Y-178403000D01*
G75*
G02*
X78509500Y-178479200I-76200J0D01*
G01*
X77009500Y-178479200D01*
G75*
G02*
X76933300Y-178403000I0J76200D01*
G01*
G37*
D12*
X79029500Y-175113000D03*
X80299500Y-177653000D03*
X81569500Y-175113000D03*
X82839500Y-177653000D03*
X84109500Y-175113000D03*
X85379500Y-177653000D03*
X86649500Y-175113000D03*
G36*
G01*
X31216000Y-173973800D02*
X33716000Y-173973800D01*
G75*
G02*
X33792200Y-174050000I0J-76200D01*
G01*
X33792200Y-176550000D01*
G75*
G02*
X33716000Y-176626200I-76200J0D01*
G01*
X31216000Y-176626200D01*
G75*
G02*
X31139800Y-176550000I0J76200D01*
G01*
X31139800Y-174050000D01*
G75*
G02*
X31216000Y-173973800I76200J0D01*
G01*
G37*
D13*
X32466000Y-180300000D03*
D10*
X29718000Y-187452000D03*
X29718000Y-157988000D03*
G36*
G01*
X51471000Y-158430000D02*
X51471000Y-159954000D01*
G75*
G02*
X51369000Y-160056000I-102000J0D01*
G01*
X49845000Y-160056000D01*
G75*
G02*
X49743000Y-159954000I0J102000D01*
G01*
X49743000Y-158430000D01*
G75*
G02*
X49845000Y-158328000I102000J0D01*
G01*
X51369000Y-158328000D01*
G75*
G02*
X51471000Y-158430000I0J-102000D01*
G01*
G37*
D14*
X37907000Y-159192000D03*
D15*
X48387000Y-177800000D03*
X47371000Y-172720000D03*
X49403000Y-172720000D03*
D16*
X73406000Y-179324000D03*
X73406000Y-171069000D03*
X28194000Y-180340000D03*
X28194000Y-175387000D03*
M02*
