G04 #@! TF.GenerationSoftware,KiCad,Pcbnew,6.0.2+dfsg-1*
G04 #@! TF.CreationDate,2024-04-05T20:58:32-06:00*
G04 #@! TF.ProjectId,mss-crossover,6d73732d-6372-46f7-9373-6f7665722e6b,rev?*
G04 #@! TF.SameCoordinates,Original*
G04 #@! TF.FileFunction,Copper,L1,Top*
G04 #@! TF.FilePolarity,Positive*
%FSLAX46Y46*%
G04 Gerber Fmt 4.6, Leading zero omitted, Abs format (unit mm)*
G04 Created by KiCad (PCBNEW 6.0.2+dfsg-1) date 2024-04-05 20:58:32*
%MOMM*%
%LPD*%
G01*
G04 APERTURE LIST*
G04 #@! TA.AperFunction,SMDPad,CuDef*
%ADD10R,1.800000X2.500000*%
G04 #@! TD*
G04 #@! TA.AperFunction,ComponentPad*
%ADD11C,6.400000*%
G04 #@! TD*
G04 #@! TA.AperFunction,ComponentPad*
%ADD12R,1.500000X1.500000*%
G04 #@! TD*
G04 #@! TA.AperFunction,ComponentPad*
%ADD13C,1.500000*%
G04 #@! TD*
G04 #@! TA.AperFunction,SMDPad,CuDef*
%ADD14R,1.200000X0.900000*%
G04 #@! TD*
G04 #@! TA.AperFunction,ComponentPad*
%ADD15R,2.500000X2.500000*%
G04 #@! TD*
G04 #@! TA.AperFunction,ComponentPad*
%ADD16C,2.500000*%
G04 #@! TD*
G04 #@! TA.AperFunction,SMDPad,CuDef*
%ADD17R,1.700000X0.650000*%
G04 #@! TD*
G04 #@! TA.AperFunction,SMDPad,CuDef*
%ADD18R,0.550000X1.300000*%
G04 #@! TD*
G04 #@! TA.AperFunction,ComponentPad*
%ADD19R,1.524000X1.524000*%
G04 #@! TD*
G04 #@! TA.AperFunction,ComponentPad*
%ADD20C,1.524000*%
G04 #@! TD*
G04 #@! TA.AperFunction,ConnectorPad*
%ADD21C,0.787400*%
G04 #@! TD*
G04 #@! TA.AperFunction,SMDPad,CuDef*
%ADD22R,1.397000X1.701800*%
G04 #@! TD*
G04 #@! TA.AperFunction,ViaPad*
%ADD23C,0.609600*%
G04 #@! TD*
G04 #@! TA.AperFunction,Conductor*
%ADD24C,1.016000*%
G04 #@! TD*
G04 #@! TA.AperFunction,Conductor*
%ADD25C,0.508000*%
G04 #@! TD*
G04 #@! TA.AperFunction,Conductor*
%ADD26C,0.635000*%
G04 #@! TD*
G04 #@! TA.AperFunction,Conductor*
%ADD27C,0.254000*%
G04 #@! TD*
G04 APERTURE END LIST*
G04 #@! TA.AperFunction,SMDPad,CuDef*
G36*
G01*
X53033000Y-175354000D02*
X53033000Y-174404000D01*
G75*
G02*
X53283000Y-174154000I250000J0D01*
G01*
X53783000Y-174154000D01*
G75*
G02*
X54033000Y-174404000I0J-250000D01*
G01*
X54033000Y-175354000D01*
G75*
G02*
X53783000Y-175604000I-250000J0D01*
G01*
X53283000Y-175604000D01*
G75*
G02*
X53033000Y-175354000I0J250000D01*
G01*
G37*
G04 #@! TD.AperFunction*
G04 #@! TA.AperFunction,SMDPad,CuDef*
G36*
G01*
X54933000Y-175354000D02*
X54933000Y-174404000D01*
G75*
G02*
X55183000Y-174154000I250000J0D01*
G01*
X55683000Y-174154000D01*
G75*
G02*
X55933000Y-174404000I0J-250000D01*
G01*
X55933000Y-175354000D01*
G75*
G02*
X55683000Y-175604000I-250000J0D01*
G01*
X55183000Y-175604000D01*
G75*
G02*
X54933000Y-175354000I0J250000D01*
G01*
G37*
G04 #@! TD.AperFunction*
D10*
X71374000Y-173133000D03*
X71374000Y-177133000D03*
G04 #@! TA.AperFunction,SMDPad,CuDef*
G36*
G01*
X57376000Y-185489000D02*
X57376000Y-184589000D01*
G75*
G02*
X57626000Y-184339000I250000J0D01*
G01*
X58151000Y-184339000D01*
G75*
G02*
X58401000Y-184589000I0J-250000D01*
G01*
X58401000Y-185489000D01*
G75*
G02*
X58151000Y-185739000I-250000J0D01*
G01*
X57626000Y-185739000D01*
G75*
G02*
X57376000Y-185489000I0J250000D01*
G01*
G37*
G04 #@! TD.AperFunction*
G04 #@! TA.AperFunction,SMDPad,CuDef*
G36*
G01*
X59201000Y-185489000D02*
X59201000Y-184589000D01*
G75*
G02*
X59451000Y-184339000I250000J0D01*
G01*
X59976000Y-184339000D01*
G75*
G02*
X60226000Y-184589000I0J-250000D01*
G01*
X60226000Y-185489000D01*
G75*
G02*
X59976000Y-185739000I-250000J0D01*
G01*
X59451000Y-185739000D01*
G75*
G02*
X59201000Y-185489000I0J250000D01*
G01*
G37*
G04 #@! TD.AperFunction*
D11*
X94742000Y-187452000D03*
D12*
X86705500Y-167787000D03*
D13*
X85435500Y-170327000D03*
X84165500Y-167787000D03*
X82895500Y-170327000D03*
X81625500Y-167787000D03*
X80355500Y-170327000D03*
X79085500Y-167787000D03*
X77815500Y-170327000D03*
G04 #@! TA.AperFunction,SMDPad,CuDef*
G36*
G01*
X66322000Y-182049000D02*
X66322000Y-182949000D01*
G75*
G02*
X66072000Y-183199000I-250000J0D01*
G01*
X65547000Y-183199000D01*
G75*
G02*
X65297000Y-182949000I0J250000D01*
G01*
X65297000Y-182049000D01*
G75*
G02*
X65547000Y-181799000I250000J0D01*
G01*
X66072000Y-181799000D01*
G75*
G02*
X66322000Y-182049000I0J-250000D01*
G01*
G37*
G04 #@! TD.AperFunction*
G04 #@! TA.AperFunction,SMDPad,CuDef*
G36*
G01*
X64497000Y-182049000D02*
X64497000Y-182949000D01*
G75*
G02*
X64247000Y-183199000I-250000J0D01*
G01*
X63722000Y-183199000D01*
G75*
G02*
X63472000Y-182949000I0J250000D01*
G01*
X63472000Y-182049000D01*
G75*
G02*
X63722000Y-181799000I250000J0D01*
G01*
X64247000Y-181799000D01*
G75*
G02*
X64497000Y-182049000I0J-250000D01*
G01*
G37*
G04 #@! TD.AperFunction*
G04 #@! TA.AperFunction,SMDPad,CuDef*
G36*
G01*
X50391000Y-188035250D02*
X50391000Y-187122750D01*
G75*
G02*
X50634750Y-186879000I243750J0D01*
G01*
X51122250Y-186879000D01*
G75*
G02*
X51366000Y-187122750I0J-243750D01*
G01*
X51366000Y-188035250D01*
G75*
G02*
X51122250Y-188279000I-243750J0D01*
G01*
X50634750Y-188279000D01*
G75*
G02*
X50391000Y-188035250I0J243750D01*
G01*
G37*
G04 #@! TD.AperFunction*
G04 #@! TA.AperFunction,SMDPad,CuDef*
G36*
G01*
X52266000Y-188035250D02*
X52266000Y-187122750D01*
G75*
G02*
X52509750Y-186879000I243750J0D01*
G01*
X52997250Y-186879000D01*
G75*
G02*
X53241000Y-187122750I0J-243750D01*
G01*
X53241000Y-188035250D01*
G75*
G02*
X52997250Y-188279000I-243750J0D01*
G01*
X52509750Y-188279000D01*
G75*
G02*
X52266000Y-188035250I0J243750D01*
G01*
G37*
G04 #@! TD.AperFunction*
G04 #@! TA.AperFunction,SMDPad,CuDef*
G36*
G01*
X53241000Y-184589000D02*
X53241000Y-185489000D01*
G75*
G02*
X52991000Y-185739000I-250000J0D01*
G01*
X52466000Y-185739000D01*
G75*
G02*
X52216000Y-185489000I0J250000D01*
G01*
X52216000Y-184589000D01*
G75*
G02*
X52466000Y-184339000I250000J0D01*
G01*
X52991000Y-184339000D01*
G75*
G02*
X53241000Y-184589000I0J-250000D01*
G01*
G37*
G04 #@! TD.AperFunction*
G04 #@! TA.AperFunction,SMDPad,CuDef*
G36*
G01*
X51416000Y-184589000D02*
X51416000Y-185489000D01*
G75*
G02*
X51166000Y-185739000I-250000J0D01*
G01*
X50641000Y-185739000D01*
G75*
G02*
X50391000Y-185489000I0J250000D01*
G01*
X50391000Y-184589000D01*
G75*
G02*
X50641000Y-184339000I250000J0D01*
G01*
X51166000Y-184339000D01*
G75*
G02*
X51416000Y-184589000I0J-250000D01*
G01*
G37*
G04 #@! TD.AperFunction*
D11*
X94742000Y-157988000D03*
D14*
X36703000Y-170560000D03*
X36703000Y-167260000D03*
D12*
X77759500Y-177653000D03*
D13*
X79029500Y-175113000D03*
X80299500Y-177653000D03*
X81569500Y-175113000D03*
X82839500Y-177653000D03*
X84109500Y-175113000D03*
X85379500Y-177653000D03*
X86649500Y-175113000D03*
G04 #@! TA.AperFunction,SMDPad,CuDef*
G36*
G01*
X57376000Y-188035250D02*
X57376000Y-187122750D01*
G75*
G02*
X57619750Y-186879000I243750J0D01*
G01*
X58107250Y-186879000D01*
G75*
G02*
X58351000Y-187122750I0J-243750D01*
G01*
X58351000Y-188035250D01*
G75*
G02*
X58107250Y-188279000I-243750J0D01*
G01*
X57619750Y-188279000D01*
G75*
G02*
X57376000Y-188035250I0J243750D01*
G01*
G37*
G04 #@! TD.AperFunction*
G04 #@! TA.AperFunction,SMDPad,CuDef*
G36*
G01*
X59251000Y-188035250D02*
X59251000Y-187122750D01*
G75*
G02*
X59494750Y-186879000I243750J0D01*
G01*
X59982250Y-186879000D01*
G75*
G02*
X60226000Y-187122750I0J-243750D01*
G01*
X60226000Y-188035250D01*
G75*
G02*
X59982250Y-188279000I-243750J0D01*
G01*
X59494750Y-188279000D01*
G75*
G02*
X59251000Y-188035250I0J243750D01*
G01*
G37*
G04 #@! TD.AperFunction*
G04 #@! TA.AperFunction,SMDPad,CuDef*
G36*
G01*
X62410000Y-168435000D02*
X62410000Y-169385000D01*
G75*
G02*
X62160000Y-169635000I-250000J0D01*
G01*
X61660000Y-169635000D01*
G75*
G02*
X61410000Y-169385000I0J250000D01*
G01*
X61410000Y-168435000D01*
G75*
G02*
X61660000Y-168185000I250000J0D01*
G01*
X62160000Y-168185000D01*
G75*
G02*
X62410000Y-168435000I0J-250000D01*
G01*
G37*
G04 #@! TD.AperFunction*
G04 #@! TA.AperFunction,SMDPad,CuDef*
G36*
G01*
X60510000Y-168435000D02*
X60510000Y-169385000D01*
G75*
G02*
X60260000Y-169635000I-250000J0D01*
G01*
X59760000Y-169635000D01*
G75*
G02*
X59510000Y-169385000I0J250000D01*
G01*
X59510000Y-168435000D01*
G75*
G02*
X59760000Y-168185000I250000J0D01*
G01*
X60260000Y-168185000D01*
G75*
G02*
X60510000Y-168435000I0J-250000D01*
G01*
G37*
G04 #@! TD.AperFunction*
G04 #@! TA.AperFunction,SMDPad,CuDef*
G36*
G01*
X71748000Y-164660000D02*
X71748000Y-166810000D01*
G75*
G02*
X71498000Y-167060000I-250000J0D01*
G01*
X70873000Y-167060000D01*
G75*
G02*
X70623000Y-166810000I0J250000D01*
G01*
X70623000Y-164660000D01*
G75*
G02*
X70873000Y-164410000I250000J0D01*
G01*
X71498000Y-164410000D01*
G75*
G02*
X71748000Y-164660000I0J-250000D01*
G01*
G37*
G04 #@! TD.AperFunction*
G04 #@! TA.AperFunction,SMDPad,CuDef*
G36*
G01*
X68823000Y-164660000D02*
X68823000Y-166810000D01*
G75*
G02*
X68573000Y-167060000I-250000J0D01*
G01*
X67948000Y-167060000D01*
G75*
G02*
X67698000Y-166810000I0J250000D01*
G01*
X67698000Y-164660000D01*
G75*
G02*
X67948000Y-164410000I250000J0D01*
G01*
X68573000Y-164410000D01*
G75*
G02*
X68823000Y-164660000I0J-250000D01*
G01*
G37*
G04 #@! TD.AperFunction*
D15*
X32466000Y-175300000D03*
D16*
X32466000Y-180300000D03*
D17*
X59149000Y-181991000D03*
X59149000Y-180721000D03*
X59149000Y-179451000D03*
X59149000Y-178181000D03*
X51849000Y-178181000D03*
X51849000Y-179451000D03*
X51849000Y-180721000D03*
X51849000Y-181991000D03*
G04 #@! TA.AperFunction,SMDPad,CuDef*
G36*
G01*
X48964000Y-168496000D02*
X48064000Y-168496000D01*
G75*
G02*
X47814000Y-168246000I0J250000D01*
G01*
X47814000Y-167721000D01*
G75*
G02*
X48064000Y-167471000I250000J0D01*
G01*
X48964000Y-167471000D01*
G75*
G02*
X49214000Y-167721000I0J-250000D01*
G01*
X49214000Y-168246000D01*
G75*
G02*
X48964000Y-168496000I-250000J0D01*
G01*
G37*
G04 #@! TD.AperFunction*
G04 #@! TA.AperFunction,SMDPad,CuDef*
G36*
G01*
X48964000Y-166671000D02*
X48064000Y-166671000D01*
G75*
G02*
X47814000Y-166421000I0J250000D01*
G01*
X47814000Y-165896000D01*
G75*
G02*
X48064000Y-165646000I250000J0D01*
G01*
X48964000Y-165646000D01*
G75*
G02*
X49214000Y-165896000I0J-250000D01*
G01*
X49214000Y-166421000D01*
G75*
G02*
X48964000Y-166671000I-250000J0D01*
G01*
G37*
G04 #@! TD.AperFunction*
D14*
X30607000Y-167260000D03*
X30607000Y-170560000D03*
D18*
X44299000Y-184697500D03*
G04 #@! TA.AperFunction,SMDPad,CuDef*
G36*
X41874000Y-188647500D02*
G01*
X41874000Y-186047500D01*
X42399000Y-185522500D01*
X42399000Y-184047500D01*
X43199000Y-184047500D01*
X43199000Y-185522500D01*
X43724000Y-186047500D01*
X43724000Y-188647500D01*
X41874000Y-188647500D01*
G37*
G04 #@! TD.AperFunction*
X41299000Y-184697500D03*
G04 #@! TA.AperFunction,SMDPad,CuDef*
G36*
G01*
X47277000Y-184224000D02*
X48227000Y-184224000D01*
G75*
G02*
X48477000Y-184474000I0J-250000D01*
G01*
X48477000Y-184974000D01*
G75*
G02*
X48227000Y-185224000I-250000J0D01*
G01*
X47277000Y-185224000D01*
G75*
G02*
X47027000Y-184974000I0J250000D01*
G01*
X47027000Y-184474000D01*
G75*
G02*
X47277000Y-184224000I250000J0D01*
G01*
G37*
G04 #@! TD.AperFunction*
G04 #@! TA.AperFunction,SMDPad,CuDef*
G36*
G01*
X47277000Y-186124000D02*
X48227000Y-186124000D01*
G75*
G02*
X48477000Y-186374000I0J-250000D01*
G01*
X48477000Y-186874000D01*
G75*
G02*
X48227000Y-187124000I-250000J0D01*
G01*
X47277000Y-187124000D01*
G75*
G02*
X47027000Y-186874000I0J250000D01*
G01*
X47027000Y-186374000D01*
G75*
G02*
X47277000Y-186124000I250000J0D01*
G01*
G37*
G04 #@! TD.AperFunction*
G04 #@! TA.AperFunction,SMDPad,CuDef*
G36*
G01*
X41825000Y-181615000D02*
X40725000Y-181615000D01*
G75*
G02*
X40475000Y-181365000I0J250000D01*
G01*
X40475000Y-178365000D01*
G75*
G02*
X40725000Y-178115000I250000J0D01*
G01*
X41825000Y-178115000D01*
G75*
G02*
X42075000Y-178365000I0J-250000D01*
G01*
X42075000Y-181365000D01*
G75*
G02*
X41825000Y-181615000I-250000J0D01*
G01*
G37*
G04 #@! TD.AperFunction*
G04 #@! TA.AperFunction,SMDPad,CuDef*
G36*
G01*
X41825000Y-176215000D02*
X40725000Y-176215000D01*
G75*
G02*
X40475000Y-175965000I0J250000D01*
G01*
X40475000Y-172965000D01*
G75*
G02*
X40725000Y-172715000I250000J0D01*
G01*
X41825000Y-172715000D01*
G75*
G02*
X42075000Y-172965000I0J-250000D01*
G01*
X42075000Y-175965000D01*
G75*
G02*
X41825000Y-176215000I-250000J0D01*
G01*
G37*
G04 #@! TD.AperFunction*
G04 #@! TA.AperFunction,SMDPad,CuDef*
G36*
G01*
X50923250Y-165621000D02*
X51873250Y-165621000D01*
G75*
G02*
X52123250Y-165871000I0J-250000D01*
G01*
X52123250Y-166371000D01*
G75*
G02*
X51873250Y-166621000I-250000J0D01*
G01*
X50923250Y-166621000D01*
G75*
G02*
X50673250Y-166371000I0J250000D01*
G01*
X50673250Y-165871000D01*
G75*
G02*
X50923250Y-165621000I250000J0D01*
G01*
G37*
G04 #@! TD.AperFunction*
G04 #@! TA.AperFunction,SMDPad,CuDef*
G36*
G01*
X50923250Y-167521000D02*
X51873250Y-167521000D01*
G75*
G02*
X52123250Y-167771000I0J-250000D01*
G01*
X52123250Y-168271000D01*
G75*
G02*
X51873250Y-168521000I-250000J0D01*
G01*
X50923250Y-168521000D01*
G75*
G02*
X50673250Y-168271000I0J250000D01*
G01*
X50673250Y-167771000D01*
G75*
G02*
X50923250Y-167521000I250000J0D01*
G01*
G37*
G04 #@! TD.AperFunction*
G04 #@! TA.AperFunction,SMDPad,CuDef*
G36*
G01*
X60456500Y-171717250D02*
X60456500Y-172617250D01*
G75*
G02*
X60206500Y-172867250I-250000J0D01*
G01*
X59681500Y-172867250D01*
G75*
G02*
X59431500Y-172617250I0J250000D01*
G01*
X59431500Y-171717250D01*
G75*
G02*
X59681500Y-171467250I250000J0D01*
G01*
X60206500Y-171467250D01*
G75*
G02*
X60456500Y-171717250I0J-250000D01*
G01*
G37*
G04 #@! TD.AperFunction*
G04 #@! TA.AperFunction,SMDPad,CuDef*
G36*
G01*
X58631500Y-171717250D02*
X58631500Y-172617250D01*
G75*
G02*
X58381500Y-172867250I-250000J0D01*
G01*
X57856500Y-172867250D01*
G75*
G02*
X57606500Y-172617250I0J250000D01*
G01*
X57606500Y-171717250D01*
G75*
G02*
X57856500Y-171467250I250000J0D01*
G01*
X58381500Y-171467250D01*
G75*
G02*
X58631500Y-171717250I0J-250000D01*
G01*
G37*
G04 #@! TD.AperFunction*
D11*
X29718000Y-187452000D03*
X29718000Y-157988000D03*
D14*
X33655000Y-170560000D03*
X33655000Y-167260000D03*
D19*
X50607000Y-159192000D03*
D20*
X37907000Y-159192000D03*
D14*
X39751000Y-167260000D03*
X39751000Y-170560000D03*
G04 #@! TA.AperFunction,SMDPad,CuDef*
G36*
G01*
X45721250Y-165396000D02*
X46021250Y-165396000D01*
G75*
G02*
X46171250Y-165546000I0J-150000D01*
G01*
X46171250Y-166721000D01*
G75*
G02*
X46021250Y-166871000I-150000J0D01*
G01*
X45721250Y-166871000D01*
G75*
G02*
X45571250Y-166721000I0J150000D01*
G01*
X45571250Y-165546000D01*
G75*
G02*
X45721250Y-165396000I150000J0D01*
G01*
G37*
G04 #@! TD.AperFunction*
G04 #@! TA.AperFunction,SMDPad,CuDef*
G36*
G01*
X43821250Y-165396000D02*
X44121250Y-165396000D01*
G75*
G02*
X44271250Y-165546000I0J-150000D01*
G01*
X44271250Y-166721000D01*
G75*
G02*
X44121250Y-166871000I-150000J0D01*
G01*
X43821250Y-166871000D01*
G75*
G02*
X43671250Y-166721000I0J150000D01*
G01*
X43671250Y-165546000D01*
G75*
G02*
X43821250Y-165396000I150000J0D01*
G01*
G37*
G04 #@! TD.AperFunction*
G04 #@! TA.AperFunction,SMDPad,CuDef*
G36*
G01*
X44771250Y-167271000D02*
X45071250Y-167271000D01*
G75*
G02*
X45221250Y-167421000I0J-150000D01*
G01*
X45221250Y-168596000D01*
G75*
G02*
X45071250Y-168746000I-150000J0D01*
G01*
X44771250Y-168746000D01*
G75*
G02*
X44621250Y-168596000I0J150000D01*
G01*
X44621250Y-167421000D01*
G75*
G02*
X44771250Y-167271000I150000J0D01*
G01*
G37*
G04 #@! TD.AperFunction*
G04 #@! TA.AperFunction,SMDPad,CuDef*
G36*
G01*
X56531500Y-171935000D02*
X56531500Y-172235000D01*
G75*
G02*
X56381500Y-172385000I-150000J0D01*
G01*
X55356500Y-172385000D01*
G75*
G02*
X55206500Y-172235000I0J150000D01*
G01*
X55206500Y-171935000D01*
G75*
G02*
X55356500Y-171785000I150000J0D01*
G01*
X56381500Y-171785000D01*
G75*
G02*
X56531500Y-171935000I0J-150000D01*
G01*
G37*
G04 #@! TD.AperFunction*
G04 #@! TA.AperFunction,SMDPad,CuDef*
G36*
G01*
X56531500Y-170985000D02*
X56531500Y-171285000D01*
G75*
G02*
X56381500Y-171435000I-150000J0D01*
G01*
X55356500Y-171435000D01*
G75*
G02*
X55206500Y-171285000I0J150000D01*
G01*
X55206500Y-170985000D01*
G75*
G02*
X55356500Y-170835000I150000J0D01*
G01*
X56381500Y-170835000D01*
G75*
G02*
X56531500Y-170985000I0J-150000D01*
G01*
G37*
G04 #@! TD.AperFunction*
G04 #@! TA.AperFunction,SMDPad,CuDef*
G36*
G01*
X56531500Y-170035000D02*
X56531500Y-170335000D01*
G75*
G02*
X56381500Y-170485000I-150000J0D01*
G01*
X55356500Y-170485000D01*
G75*
G02*
X55206500Y-170335000I0J150000D01*
G01*
X55206500Y-170035000D01*
G75*
G02*
X55356500Y-169885000I150000J0D01*
G01*
X56381500Y-169885000D01*
G75*
G02*
X56531500Y-170035000I0J-150000D01*
G01*
G37*
G04 #@! TD.AperFunction*
G04 #@! TA.AperFunction,SMDPad,CuDef*
G36*
G01*
X54256500Y-170035000D02*
X54256500Y-170335000D01*
G75*
G02*
X54106500Y-170485000I-150000J0D01*
G01*
X53081500Y-170485000D01*
G75*
G02*
X52931500Y-170335000I0J150000D01*
G01*
X52931500Y-170035000D01*
G75*
G02*
X53081500Y-169885000I150000J0D01*
G01*
X54106500Y-169885000D01*
G75*
G02*
X54256500Y-170035000I0J-150000D01*
G01*
G37*
G04 #@! TD.AperFunction*
G04 #@! TA.AperFunction,SMDPad,CuDef*
G36*
G01*
X54256500Y-171935000D02*
X54256500Y-172235000D01*
G75*
G02*
X54106500Y-172385000I-150000J0D01*
G01*
X53081500Y-172385000D01*
G75*
G02*
X52931500Y-172235000I0J150000D01*
G01*
X52931500Y-171935000D01*
G75*
G02*
X53081500Y-171785000I150000J0D01*
G01*
X54106500Y-171785000D01*
G75*
G02*
X54256500Y-171935000I0J-150000D01*
G01*
G37*
G04 #@! TD.AperFunction*
D21*
X49022000Y-176530000D03*
X47752000Y-176530000D03*
X49022000Y-175260000D03*
X47752000Y-175260000D03*
X49022000Y-173990000D03*
X47752000Y-173990000D03*
G04 #@! TA.AperFunction,SMDPad,CuDef*
G36*
G01*
X60481500Y-174359250D02*
X60481500Y-175309250D01*
G75*
G02*
X60231500Y-175559250I-250000J0D01*
G01*
X59731500Y-175559250D01*
G75*
G02*
X59481500Y-175309250I0J250000D01*
G01*
X59481500Y-174359250D01*
G75*
G02*
X59731500Y-174109250I250000J0D01*
G01*
X60231500Y-174109250D01*
G75*
G02*
X60481500Y-174359250I0J-250000D01*
G01*
G37*
G04 #@! TD.AperFunction*
G04 #@! TA.AperFunction,SMDPad,CuDef*
G36*
G01*
X58581500Y-174359250D02*
X58581500Y-175309250D01*
G75*
G02*
X58331500Y-175559250I-250000J0D01*
G01*
X57831500Y-175559250D01*
G75*
G02*
X57581500Y-175309250I0J250000D01*
G01*
X57581500Y-174359250D01*
G75*
G02*
X57831500Y-174109250I250000J0D01*
G01*
X58331500Y-174109250D01*
G75*
G02*
X58581500Y-174359250I0J-250000D01*
G01*
G37*
G04 #@! TD.AperFunction*
G04 #@! TA.AperFunction,SMDPad,CuDef*
G36*
G01*
X65123000Y-185489000D02*
X65123000Y-184589000D01*
G75*
G02*
X65373000Y-184339000I250000J0D01*
G01*
X65898000Y-184339000D01*
G75*
G02*
X66148000Y-184589000I0J-250000D01*
G01*
X66148000Y-185489000D01*
G75*
G02*
X65898000Y-185739000I-250000J0D01*
G01*
X65373000Y-185739000D01*
G75*
G02*
X65123000Y-185489000I0J250000D01*
G01*
G37*
G04 #@! TD.AperFunction*
G04 #@! TA.AperFunction,SMDPad,CuDef*
G36*
G01*
X66948000Y-185489000D02*
X66948000Y-184589000D01*
G75*
G02*
X67198000Y-184339000I250000J0D01*
G01*
X67723000Y-184339000D01*
G75*
G02*
X67973000Y-184589000I0J-250000D01*
G01*
X67973000Y-185489000D01*
G75*
G02*
X67723000Y-185739000I-250000J0D01*
G01*
X67198000Y-185739000D01*
G75*
G02*
X66948000Y-185489000I0J250000D01*
G01*
G37*
G04 #@! TD.AperFunction*
G04 #@! TA.AperFunction,SMDPad,CuDef*
G36*
G01*
X65123000Y-188035250D02*
X65123000Y-187122750D01*
G75*
G02*
X65366750Y-186879000I243750J0D01*
G01*
X65854250Y-186879000D01*
G75*
G02*
X66098000Y-187122750I0J-243750D01*
G01*
X66098000Y-188035250D01*
G75*
G02*
X65854250Y-188279000I-243750J0D01*
G01*
X65366750Y-188279000D01*
G75*
G02*
X65123000Y-188035250I0J243750D01*
G01*
G37*
G04 #@! TD.AperFunction*
G04 #@! TA.AperFunction,SMDPad,CuDef*
G36*
G01*
X66998000Y-188035250D02*
X66998000Y-187122750D01*
G75*
G02*
X67241750Y-186879000I243750J0D01*
G01*
X67729250Y-186879000D01*
G75*
G02*
X67973000Y-187122750I0J-243750D01*
G01*
X67973000Y-188035250D01*
G75*
G02*
X67729250Y-188279000I-243750J0D01*
G01*
X67241750Y-188279000D01*
G75*
G02*
X66998000Y-188035250I0J243750D01*
G01*
G37*
G04 #@! TD.AperFunction*
D22*
X64770000Y-179641500D03*
X67310000Y-179641500D03*
X67310000Y-170624500D03*
X64770000Y-170624500D03*
G04 #@! TA.AperFunction,SMDPad,CuDef*
G36*
G01*
X63752000Y-157495000D02*
X62648000Y-157495000D01*
G75*
G02*
X62510000Y-157357000I0J138000D01*
G01*
X62510000Y-155533000D01*
G75*
G02*
X62648000Y-155395000I138000J0D01*
G01*
X63752000Y-155395000D01*
G75*
G02*
X63890000Y-155533000I0J-138000D01*
G01*
X63890000Y-157357000D01*
G75*
G02*
X63752000Y-157495000I-138000J0D01*
G01*
G37*
G04 #@! TD.AperFunction*
G04 #@! TA.AperFunction,SMDPad,CuDef*
G36*
G01*
X63752000Y-166595000D02*
X62648000Y-166595000D01*
G75*
G02*
X62510000Y-166457000I0J138000D01*
G01*
X62510000Y-164633000D01*
G75*
G02*
X62648000Y-164495000I138000J0D01*
G01*
X63752000Y-164495000D01*
G75*
G02*
X63890000Y-164633000I0J-138000D01*
G01*
X63890000Y-166457000D01*
G75*
G02*
X63752000Y-166595000I-138000J0D01*
G01*
G37*
G04 #@! TD.AperFunction*
G04 #@! TA.AperFunction,SMDPad,CuDef*
G36*
G01*
X59272000Y-157495000D02*
X58168000Y-157495000D01*
G75*
G02*
X58030000Y-157357000I0J138000D01*
G01*
X58030000Y-155533000D01*
G75*
G02*
X58168000Y-155395000I138000J0D01*
G01*
X59272000Y-155395000D01*
G75*
G02*
X59410000Y-155533000I0J-138000D01*
G01*
X59410000Y-157357000D01*
G75*
G02*
X59272000Y-157495000I-138000J0D01*
G01*
G37*
G04 #@! TD.AperFunction*
G04 #@! TA.AperFunction,SMDPad,CuDef*
G36*
G01*
X59272000Y-166595000D02*
X58168000Y-166595000D01*
G75*
G02*
X58030000Y-166457000I0J138000D01*
G01*
X58030000Y-164633000D01*
G75*
G02*
X58168000Y-164495000I138000J0D01*
G01*
X59272000Y-164495000D01*
G75*
G02*
X59410000Y-164633000I0J-138000D01*
G01*
X59410000Y-166457000D01*
G75*
G02*
X59272000Y-166595000I-138000J0D01*
G01*
G37*
G04 #@! TD.AperFunction*
D23*
X40894000Y-187325000D03*
X58674000Y-163830000D03*
X56769000Y-177292000D03*
X41783000Y-189484000D03*
X43180000Y-173609000D03*
X55433000Y-173493500D03*
X67310000Y-181705250D03*
X40894000Y-188214000D03*
X58674000Y-158242000D03*
X39370000Y-173609000D03*
X44704000Y-187325000D03*
X44704000Y-188214000D03*
X44704000Y-186436000D03*
X57594500Y-178117500D03*
X43815000Y-189484000D03*
X43180000Y-175387000D03*
X39370000Y-175387000D03*
X40894000Y-186436000D03*
X59944000Y-170434000D03*
X42799000Y-189484000D03*
X54604500Y-171135000D03*
X67310000Y-182721250D03*
X55880000Y-176403000D03*
X43180000Y-174498000D03*
X39370000Y-174498000D03*
X60706000Y-178181000D03*
X73406000Y-173101000D03*
X74930000Y-173101000D03*
X74168000Y-173101000D03*
X73914000Y-177165000D03*
X74787000Y-177165000D03*
X73025000Y-177165000D03*
X50165000Y-173990000D03*
X50165000Y-183007000D03*
X45720000Y-175260000D03*
X45720000Y-182626000D03*
X89408000Y-165608000D03*
X87249000Y-164719000D03*
X55245000Y-183007000D03*
X49657000Y-179451000D03*
X49149000Y-183642000D03*
X46609000Y-175260000D03*
X50165000Y-176022000D03*
X46355000Y-183642000D03*
D24*
X38895000Y-179865000D02*
X41275000Y-179865000D01*
X36703000Y-177673000D02*
X38895000Y-179865000D01*
X36703000Y-170560000D02*
X36703000Y-177673000D01*
X33655000Y-170560000D02*
X36703000Y-170560000D01*
X41299000Y-184697500D02*
X41299000Y-179889000D01*
D25*
X50800000Y-189357000D02*
X57785000Y-189357000D01*
D24*
X55433000Y-174879000D02*
X55433000Y-173493500D01*
X39751000Y-173228000D02*
X39370000Y-173609000D01*
D25*
X67310000Y-182721250D02*
X67310000Y-179736750D01*
X47752000Y-186624000D02*
X47752000Y-188468000D01*
D24*
X55626000Y-176149000D02*
X57594500Y-178117500D01*
D25*
X47752000Y-188468000D02*
X48641000Y-189357000D01*
X58674000Y-167640000D02*
X58674000Y-165591000D01*
D24*
X39751000Y-170560000D02*
X39751000Y-173228000D01*
D25*
X58081500Y-176003500D02*
X59149000Y-177071000D01*
D24*
X31242000Y-168910000D02*
X39116000Y-168910000D01*
D25*
X59944000Y-170434000D02*
X59944000Y-168976000D01*
X59149000Y-177071000D02*
X59149000Y-178181000D01*
X47752000Y-173990000D02*
X44577000Y-173990000D01*
D24*
X44262000Y-186624000D02*
X43942000Y-186944000D01*
X57594500Y-178117500D02*
X57658000Y-178181000D01*
D25*
X59944000Y-168910000D02*
X58674000Y-167640000D01*
D24*
X57658000Y-178181000D02*
X59149000Y-178181000D01*
X30607000Y-170560000D02*
X30607000Y-169545000D01*
D25*
X63832500Y-189357000D02*
X65610500Y-187579000D01*
D24*
X39751000Y-169545000D02*
X39751000Y-170560000D01*
D25*
X50878500Y-187579000D02*
X50878500Y-189278500D01*
D24*
X39116000Y-168910000D02*
X39751000Y-169545000D01*
D25*
X57863500Y-189278500D02*
X57785000Y-189357000D01*
D26*
X44196000Y-173609000D02*
X44577000Y-173990000D01*
D24*
X47752000Y-186624000D02*
X44262000Y-186624000D01*
D25*
X50878500Y-189278500D02*
X50800000Y-189357000D01*
D24*
X55626000Y-176149000D02*
X55433000Y-175956000D01*
D26*
X43180000Y-173609000D02*
X44196000Y-173609000D01*
D24*
X55433000Y-175956000D02*
X55433000Y-174879000D01*
D25*
X58081500Y-174834250D02*
X58081500Y-176003500D01*
X54604500Y-171135000D02*
X55869000Y-171135000D01*
D24*
X60706000Y-178181000D02*
X57658000Y-178181000D01*
D25*
X57863500Y-187579000D02*
X57863500Y-189278500D01*
D24*
X30607000Y-169545000D02*
X31242000Y-168910000D01*
D25*
X57785000Y-189357000D02*
X63832500Y-189357000D01*
X48641000Y-189357000D02*
X50800000Y-189357000D01*
X42672000Y-160020000D02*
X42672000Y-167386000D01*
X50588500Y-184724000D02*
X50903500Y-185039000D01*
X52506500Y-172085000D02*
X52191500Y-171770000D01*
X47117000Y-181483000D02*
X48260000Y-182626000D01*
X51398250Y-168021000D02*
X45883750Y-168021000D01*
X53594000Y-170185000D02*
X53594000Y-168529000D01*
D24*
X54356000Y-177165000D02*
X53533000Y-176342000D01*
D25*
X37907000Y-159192000D02*
X41844000Y-159192000D01*
X53594000Y-172085000D02*
X53594000Y-174818000D01*
X43294500Y-168008500D02*
X44921250Y-168008500D01*
D24*
X47283500Y-184697500D02*
X47725500Y-184697500D01*
X53533000Y-176342000D02*
X53533000Y-174879000D01*
D25*
X47117000Y-177165000D02*
X47117000Y-181483000D01*
D24*
X44299000Y-184697500D02*
X47283500Y-184697500D01*
D25*
X52191500Y-171770000D02*
X52191500Y-170500000D01*
D24*
X48895000Y-181991000D02*
X51849000Y-181991000D01*
D25*
X52506500Y-170185000D02*
X53594000Y-170185000D01*
D24*
X47752000Y-184724000D02*
X47752000Y-183134000D01*
D25*
X52191500Y-170500000D02*
X52506500Y-170185000D01*
X42672000Y-167386000D02*
X43294500Y-168008500D01*
D24*
X48260000Y-182626000D02*
X48895000Y-181991000D01*
X47752000Y-183134000D02*
X48260000Y-182626000D01*
D25*
X45883750Y-168021000D02*
X45871250Y-168008500D01*
D24*
X47725500Y-184697500D02*
X47752000Y-184724000D01*
D25*
X47752000Y-176530000D02*
X47117000Y-177165000D01*
X53594000Y-168529000D02*
X53086000Y-168021000D01*
X53594000Y-172085000D02*
X52506500Y-172085000D01*
D24*
X51849000Y-181991000D02*
X53125600Y-181991000D01*
X53125600Y-181991000D02*
X54356000Y-180760600D01*
D25*
X44969750Y-168008500D02*
X45871250Y-168008500D01*
X47752000Y-184724000D02*
X50588500Y-184724000D01*
D24*
X54356000Y-180760600D02*
X54356000Y-177165000D01*
D25*
X53086000Y-168021000D02*
X51398250Y-168021000D01*
X41844000Y-159192000D02*
X42672000Y-160020000D01*
D27*
X59149000Y-179451000D02*
X61341000Y-179451000D01*
X61745200Y-179046800D02*
X61745200Y-176934200D01*
D25*
X59944000Y-172167250D02*
X59944000Y-174796750D01*
D27*
X61341000Y-179451000D02*
X61745200Y-179046800D01*
X59981500Y-176186500D02*
X59981500Y-174834250D01*
X61468000Y-176657000D02*
X60452000Y-176657000D01*
X61745200Y-176934200D02*
X61468000Y-176657000D01*
X60452000Y-176657000D02*
X59981500Y-176186500D01*
D24*
X28829000Y-168021000D02*
X28829000Y-173990000D01*
X30139000Y-175300000D02*
X32466000Y-175300000D01*
X29590000Y-167260000D02*
X28829000Y-168021000D01*
X30607000Y-167259000D02*
X30608000Y-167260000D01*
X30607000Y-167260000D02*
X30607000Y-167259000D01*
X30608000Y-167260000D02*
X33655000Y-167260000D01*
X28829000Y-173990000D02*
X30139000Y-175300000D01*
X30607000Y-167260000D02*
X29590000Y-167260000D01*
X28956000Y-165735000D02*
X35178000Y-165735000D01*
X27305000Y-167386000D02*
X28956000Y-165735000D01*
X32466000Y-180300000D02*
X29805000Y-180300000D01*
X35178000Y-165735000D02*
X36703000Y-167260000D01*
X29805000Y-180300000D02*
X27305000Y-177800000D01*
X36703000Y-167260000D02*
X39751000Y-167260000D01*
X27305000Y-177800000D02*
X27305000Y-167386000D01*
D25*
X63246000Y-167574000D02*
X63246000Y-165591000D01*
D27*
X59149000Y-180721000D02*
X61595000Y-180721000D01*
D25*
X61910000Y-168910000D02*
X63246000Y-167574000D01*
D27*
X61595000Y-180721000D02*
X62484000Y-179832000D01*
X61910000Y-170495000D02*
X61910000Y-168910000D01*
X62484000Y-179832000D02*
X62484000Y-171069000D01*
X62484000Y-171069000D02*
X61910000Y-170495000D01*
D25*
X52728500Y-185039000D02*
X52728500Y-187554000D01*
D24*
X74930000Y-173101000D02*
X71406000Y-173101000D01*
D25*
X71374000Y-165923500D02*
X71374000Y-173133000D01*
X81569500Y-173573500D02*
X82895500Y-172247500D01*
X81569500Y-175113000D02*
X81569500Y-173573500D01*
X82895500Y-170327000D02*
X82895500Y-172247500D01*
D24*
X73025000Y-177165000D02*
X71263000Y-177165000D01*
D25*
X67310000Y-170624500D02*
X67310000Y-175641000D01*
X68834000Y-177165000D02*
X68866000Y-177133000D01*
X68866000Y-177133000D02*
X71374000Y-177133000D01*
D24*
X73914000Y-177165000D02*
X73025000Y-177165000D01*
X74787000Y-177165000D02*
X73914000Y-177165000D01*
D25*
X67310000Y-175641000D02*
X68834000Y-177165000D01*
X65532000Y-168402000D02*
X67564000Y-168402000D01*
X64770000Y-169164000D02*
X65532000Y-168402000D01*
X68260500Y-167705500D02*
X68260500Y-165735000D01*
X67564000Y-168402000D02*
X68260500Y-167705500D01*
X64770000Y-170624500D02*
X64770000Y-169164000D01*
D27*
X53340000Y-180340000D02*
X53340000Y-177673000D01*
X52959000Y-180721000D02*
X53340000Y-180340000D01*
X50927000Y-175260000D02*
X49022000Y-175260000D01*
X51849000Y-180721000D02*
X52959000Y-180721000D01*
X53340000Y-177673000D02*
X50927000Y-175260000D01*
X45720000Y-175260000D02*
X45720000Y-182626000D01*
X54991000Y-181991000D02*
X59149000Y-181991000D01*
X50165000Y-183007000D02*
X53975000Y-183007000D01*
X53975000Y-183007000D02*
X54991000Y-181991000D01*
X49022000Y-173990000D02*
X50165000Y-173990000D01*
D25*
X77759500Y-176438500D02*
X77216000Y-175895000D01*
X83566000Y-165608000D02*
X84165500Y-166207500D01*
X84165500Y-166207500D02*
X84165500Y-167787000D01*
X75946000Y-168275000D02*
X78613000Y-165608000D01*
X78613000Y-165608000D02*
X83566000Y-165608000D01*
X77216000Y-175895000D02*
X77216000Y-172085000D01*
X77759500Y-177653000D02*
X77759500Y-176438500D01*
X75946000Y-170815000D02*
X75946000Y-168275000D01*
X77216000Y-172085000D02*
X75946000Y-170815000D01*
X79029500Y-173510000D02*
X79029500Y-175113000D01*
X80355500Y-170327000D02*
X80355500Y-172184000D01*
X80355500Y-172184000D02*
X79029500Y-173510000D01*
X75946000Y-178308000D02*
X75946000Y-172212000D01*
X86705500Y-165953500D02*
X86705500Y-167787000D01*
X74930000Y-167894000D02*
X78105000Y-164719000D01*
X80299500Y-177653000D02*
X80299500Y-178780500D01*
X76962000Y-179324000D02*
X75946000Y-178308000D01*
X75946000Y-172212000D02*
X74930000Y-171196000D01*
X85471000Y-164719000D02*
X86705500Y-165953500D01*
X80299500Y-178780500D02*
X79756000Y-179324000D01*
X78105000Y-164719000D02*
X85471000Y-164719000D01*
X79756000Y-179324000D02*
X76962000Y-179324000D01*
X74930000Y-171196000D02*
X74930000Y-167894000D01*
X85435500Y-170327000D02*
X85435500Y-172247500D01*
X84109500Y-173573500D02*
X84109500Y-175113000D01*
X85435500Y-172247500D02*
X84109500Y-173573500D01*
X89408000Y-176403000D02*
X88158000Y-177653000D01*
X88158000Y-177653000D02*
X85379500Y-177653000D01*
X89408000Y-176403000D02*
X89408000Y-165608000D01*
X88392000Y-173370500D02*
X88392000Y-164719000D01*
X86649500Y-175113000D02*
X88392000Y-173370500D01*
X87249000Y-164719000D02*
X88392000Y-164719000D01*
X55869000Y-172085000D02*
X58036750Y-172085000D01*
X44770000Y-159192000D02*
X43971250Y-159990750D01*
X50607000Y-159192000D02*
X44770000Y-159192000D01*
X43971250Y-159990750D02*
X43971250Y-166133500D01*
X51398250Y-166121000D02*
X53980000Y-166121000D01*
X43971250Y-166133500D02*
X44686500Y-166133500D01*
X51398250Y-166121000D02*
X44699000Y-166121000D01*
X55880000Y-170174000D02*
X55869000Y-170185000D01*
X53980000Y-166121000D02*
X55880000Y-168021000D01*
X44686500Y-166133500D02*
X44699000Y-166121000D01*
X55880000Y-168021000D02*
X55880000Y-170174000D01*
D27*
X67460500Y-185039000D02*
X67460500Y-187554000D01*
X59713500Y-185039000D02*
X59713500Y-187554000D01*
X65532000Y-181102000D02*
X65809500Y-181379500D01*
X65024000Y-181102000D02*
X65532000Y-181102000D01*
X64770000Y-180848000D02*
X65024000Y-181102000D01*
X65809500Y-181379500D02*
X65809500Y-182499000D01*
X64770000Y-179641500D02*
X64770000Y-180848000D01*
X60452000Y-183007000D02*
X62484000Y-185039000D01*
X63984500Y-184935500D02*
X63881000Y-185039000D01*
X62484000Y-185039000D02*
X63881000Y-185039000D01*
X49657000Y-177721775D02*
X49022000Y-177086775D01*
X49022000Y-177086775D02*
X49022000Y-176530000D01*
X49657000Y-179451000D02*
X49657000Y-177721775D01*
X63984500Y-182499000D02*
X63984500Y-184935500D01*
X55245000Y-183007000D02*
X60452000Y-183007000D01*
X63881000Y-185039000D02*
X65635500Y-185039000D01*
X49657000Y-179451000D02*
X51849000Y-179451000D01*
X46609000Y-176276000D02*
X46355000Y-176530000D01*
X56491500Y-183642000D02*
X57888500Y-185039000D01*
X49149000Y-183642000D02*
X56491500Y-183642000D01*
X51849000Y-177706000D02*
X51849000Y-178181000D01*
X50165000Y-176022000D02*
X51849000Y-177706000D01*
X46355000Y-176530000D02*
X46355000Y-183642000D01*
X47752000Y-175260000D02*
X46609000Y-175260000D01*
X46609000Y-175260000D02*
X46609000Y-176276000D01*
G04 #@! TA.AperFunction,Conductor*
G36*
X60140121Y-154452002D02*
G01*
X60186614Y-154505658D01*
X60198000Y-154558000D01*
X60198000Y-167387000D01*
X60177998Y-167455121D01*
X60124342Y-167501614D01*
X60072000Y-167513000D01*
X57022000Y-167513000D01*
X56953879Y-167492998D01*
X56907386Y-167439342D01*
X56896000Y-167387000D01*
X56896000Y-154558000D01*
X56916002Y-154489879D01*
X56969658Y-154443386D01*
X57022000Y-154432000D01*
X60072000Y-154432000D01*
X60140121Y-154452002D01*
G37*
G04 #@! TD.AperFunction*
G04 #@! TA.AperFunction,Conductor*
G36*
X35882621Y-171724002D02*
G01*
X35929114Y-171777658D01*
X35940500Y-171830000D01*
X35940500Y-177605624D01*
X35939067Y-177624574D01*
X35936876Y-177638973D01*
X35936876Y-177638979D01*
X35935776Y-177646208D01*
X35936369Y-177653500D01*
X35936369Y-177653503D01*
X35940085Y-177699183D01*
X35940500Y-177709398D01*
X35940500Y-177717525D01*
X35943811Y-177745924D01*
X35944238Y-177750244D01*
X35950191Y-177823426D01*
X35952447Y-177830388D01*
X35953643Y-177836376D01*
X35955051Y-177842333D01*
X35955899Y-177849607D01*
X35958397Y-177856489D01*
X35958398Y-177856493D01*
X35980945Y-177918607D01*
X35982355Y-177922711D01*
X36004987Y-177992575D01*
X36008787Y-177998838D01*
X36011325Y-178004380D01*
X36014067Y-178009856D01*
X36016566Y-178016741D01*
X36020581Y-178022865D01*
X36056815Y-178078132D01*
X36059130Y-178081800D01*
X36097227Y-178144581D01*
X36100941Y-178148786D01*
X36100943Y-178148789D01*
X36104667Y-178153005D01*
X36104638Y-178153031D01*
X36107238Y-178155962D01*
X36110042Y-178159316D01*
X36114054Y-178165435D01*
X36119366Y-178170467D01*
X36170586Y-178218988D01*
X36173028Y-178221366D01*
X38308190Y-180356528D01*
X38320577Y-180370941D01*
X38333546Y-180388564D01*
X38339129Y-180393307D01*
X38374055Y-180422979D01*
X38381571Y-180429909D01*
X38387315Y-180435653D01*
X38390189Y-180437927D01*
X38390196Y-180437933D01*
X38409711Y-180453372D01*
X38413115Y-180456163D01*
X38463472Y-180498945D01*
X38463476Y-180498948D01*
X38469051Y-180503684D01*
X38475568Y-180507012D01*
X38480632Y-180510389D01*
X38485856Y-180513616D01*
X38491600Y-180518160D01*
X38498231Y-180521259D01*
X38558082Y-180549232D01*
X38562033Y-180551163D01*
X38627404Y-180584543D01*
X38634519Y-180586284D01*
X38640265Y-180588421D01*
X38646048Y-180590345D01*
X38652679Y-180593444D01*
X38724557Y-180608394D01*
X38728829Y-180609361D01*
X38800112Y-180626804D01*
X38805711Y-180627151D01*
X38805715Y-180627152D01*
X38811330Y-180627500D01*
X38811328Y-180627539D01*
X38815229Y-180627772D01*
X38819588Y-180628161D01*
X38826756Y-180629652D01*
X38834073Y-180629454D01*
X38904577Y-180627546D01*
X38907986Y-180627500D01*
X40094500Y-180627500D01*
X40162621Y-180647502D01*
X40209114Y-180701158D01*
X40220500Y-180753500D01*
X40220500Y-181412756D01*
X40227202Y-181474448D01*
X40277929Y-181609764D01*
X40283309Y-181616943D01*
X40283311Y-181616946D01*
X40349287Y-181704977D01*
X40364596Y-181725404D01*
X40371776Y-181730785D01*
X40480236Y-181812071D01*
X40479061Y-181813639D01*
X40521152Y-181855821D01*
X40536500Y-181916088D01*
X40536500Y-184742025D01*
X40551899Y-184874107D01*
X40554395Y-184880984D01*
X40554396Y-184880987D01*
X40587292Y-184971613D01*
X40612566Y-185041241D01*
X40710054Y-185189935D01*
X40730155Y-185208977D01*
X40765852Y-185270344D01*
X40769501Y-185300448D01*
X40769501Y-185372566D01*
X40784266Y-185446801D01*
X40840516Y-185530984D01*
X40924699Y-185587234D01*
X40998933Y-185602000D01*
X41298951Y-185602000D01*
X41599066Y-185601999D01*
X41634818Y-185594888D01*
X41661126Y-185589656D01*
X41661128Y-185589655D01*
X41673301Y-185587234D01*
X41683621Y-185580339D01*
X41683622Y-185580338D01*
X41747168Y-185537877D01*
X41757484Y-185530984D01*
X41813734Y-185446801D01*
X41828500Y-185372567D01*
X41828500Y-185298263D01*
X41848502Y-185230142D01*
X41858475Y-185216684D01*
X41932945Y-185129028D01*
X41932948Y-185129024D01*
X41937684Y-185123449D01*
X42018543Y-184965096D01*
X42060804Y-184792388D01*
X42061500Y-184781170D01*
X42061500Y-181881292D01*
X42081502Y-181813171D01*
X42111935Y-181780466D01*
X42178224Y-181730785D01*
X42185404Y-181725404D01*
X42200713Y-181704977D01*
X42266689Y-181616946D01*
X42266691Y-181616943D01*
X42272071Y-181609764D01*
X42322798Y-181474448D01*
X42329500Y-181412756D01*
X42329500Y-178317244D01*
X42322798Y-178255552D01*
X42309523Y-178220139D01*
X42289015Y-178165435D01*
X42272071Y-178120236D01*
X42266691Y-178113057D01*
X42266689Y-178113054D01*
X42190785Y-178011776D01*
X42185404Y-178004596D01*
X42160076Y-177985614D01*
X42076946Y-177923311D01*
X42076943Y-177923309D01*
X42069764Y-177917929D01*
X41980046Y-177884296D01*
X41941843Y-177869974D01*
X41941841Y-177869974D01*
X41934448Y-177867202D01*
X41926598Y-177866349D01*
X41926597Y-177866349D01*
X41876153Y-177860869D01*
X41876152Y-177860869D01*
X41872756Y-177860500D01*
X40677244Y-177860500D01*
X40673848Y-177860869D01*
X40673847Y-177860869D01*
X40623403Y-177866349D01*
X40623402Y-177866349D01*
X40615552Y-177867202D01*
X40608159Y-177869974D01*
X40608157Y-177869974D01*
X40569954Y-177884296D01*
X40480236Y-177917929D01*
X40473057Y-177923309D01*
X40473054Y-177923311D01*
X40389924Y-177985614D01*
X40364596Y-178004596D01*
X40359215Y-178011776D01*
X40283311Y-178113054D01*
X40283309Y-178113057D01*
X40277929Y-178120236D01*
X40260985Y-178165435D01*
X40240478Y-178220139D01*
X40227202Y-178255552D01*
X40220500Y-178317244D01*
X40220500Y-178976500D01*
X40200498Y-179044621D01*
X40146842Y-179091114D01*
X40094500Y-179102500D01*
X39263027Y-179102500D01*
X39194906Y-179082498D01*
X39173932Y-179065595D01*
X37502405Y-177394067D01*
X37468379Y-177331755D01*
X37465500Y-177304972D01*
X37465500Y-171830000D01*
X37485502Y-171761879D01*
X37539158Y-171715386D01*
X37591500Y-171704000D01*
X45086000Y-171704000D01*
X45154121Y-171724002D01*
X45200614Y-171777658D01*
X45212000Y-171830000D01*
X45212000Y-174999835D01*
X45202409Y-175048053D01*
X45178256Y-175106364D01*
X45175096Y-175113993D01*
X45155874Y-175260000D01*
X45175096Y-175406007D01*
X45178256Y-175413635D01*
X45178256Y-175413636D01*
X45202409Y-175471947D01*
X45212000Y-175520165D01*
X45212000Y-182365835D01*
X45202409Y-182414053D01*
X45178256Y-182472364D01*
X45175096Y-182479993D01*
X45155874Y-182626000D01*
X45175096Y-182772007D01*
X45178256Y-182779635D01*
X45178256Y-182779636D01*
X45202409Y-182837947D01*
X45212000Y-182886165D01*
X45212000Y-183809000D01*
X45191998Y-183877121D01*
X45138342Y-183923614D01*
X45086000Y-183935000D01*
X44872262Y-183935000D01*
X44804141Y-183914998D01*
X44767499Y-183879004D01*
X44757484Y-183864016D01*
X44673301Y-183807766D01*
X44599067Y-183793000D01*
X44299049Y-183793000D01*
X43998934Y-183793001D01*
X43963182Y-183800112D01*
X43936874Y-183805344D01*
X43936872Y-183805345D01*
X43924699Y-183807766D01*
X43914379Y-183814661D01*
X43914378Y-183814662D01*
X43853985Y-183855016D01*
X43840516Y-183864016D01*
X43784266Y-183948199D01*
X43769500Y-184022433D01*
X43769500Y-184097476D01*
X43749498Y-184165597D01*
X43734975Y-184184126D01*
X43684286Y-184237635D01*
X43594981Y-184391384D01*
X43543442Y-184561554D01*
X43532432Y-184739016D01*
X43533672Y-184746232D01*
X43533672Y-184746234D01*
X43540640Y-184786783D01*
X43562543Y-184914251D01*
X43632159Y-185077859D01*
X43736752Y-185219985D01*
X43737546Y-185221064D01*
X43737361Y-185221200D01*
X43767481Y-185281249D01*
X43769501Y-185303721D01*
X43769501Y-185372566D01*
X43784266Y-185446801D01*
X43840516Y-185530984D01*
X43924699Y-185587234D01*
X43998933Y-185602000D01*
X44298951Y-185602000D01*
X44599066Y-185601999D01*
X44634818Y-185594888D01*
X44661126Y-185589656D01*
X44661128Y-185589655D01*
X44673301Y-185587234D01*
X44683621Y-185580339D01*
X44683622Y-185580338D01*
X44747168Y-185537877D01*
X44757484Y-185530984D01*
X44767498Y-185515997D01*
X44821974Y-185470470D01*
X44872262Y-185460000D01*
X45086000Y-185460000D01*
X45154121Y-185480002D01*
X45200614Y-185533658D01*
X45212000Y-185586000D01*
X45212000Y-191009000D01*
X45191998Y-191077121D01*
X45138342Y-191123614D01*
X45086000Y-191135000D01*
X34924000Y-191135000D01*
X34855879Y-191114998D01*
X34809386Y-191061342D01*
X34798000Y-191009000D01*
X34798000Y-171830000D01*
X34818002Y-171761879D01*
X34871658Y-171715386D01*
X34924000Y-171704000D01*
X35814500Y-171704000D01*
X35882621Y-171724002D01*
G37*
G04 #@! TD.AperFunction*
G04 #@! TA.AperFunction,Conductor*
G36*
X64839121Y-154452002D02*
G01*
X64885614Y-154505658D01*
X64897000Y-154558000D01*
X64897000Y-167387000D01*
X64876998Y-167455121D01*
X64823342Y-167501614D01*
X64771000Y-167513000D01*
X61721000Y-167513000D01*
X61652879Y-167492998D01*
X61606386Y-167439342D01*
X61595000Y-167387000D01*
X61595000Y-154558000D01*
X61615002Y-154489879D01*
X61668658Y-154443386D01*
X61721000Y-154432000D01*
X64771000Y-154432000D01*
X64839121Y-154452002D01*
G37*
G04 #@! TD.AperFunction*
M02*
