G04 start of page 7 for group -4063 idx -4063 *
G04 Title: (unknown), componentmask *
G04 Creator: pcb 20140316 *
G04 CreationDate: Sun 30 Dec 2018 07:31:13 PM GMT UTC *
G04 For: railfan *
G04 Format: Gerber/RS-274X *
G04 PCB-Dimensions (mil): 2500.00 1900.00 *
G04 PCB-Coordinate-Origin: lower left *
%MOIN*%
%FSLAX25Y25*%
%LNTOPMASK*%
%ADD82R,0.0610X0.0610*%
%ADD81R,0.0690X0.0690*%
%ADD80R,0.0300X0.0300*%
%ADD79C,0.0600*%
%ADD78R,0.0420X0.0420*%
%ADD77R,0.0227X0.0227*%
%ADD76R,0.0620X0.0620*%
%ADD75R,0.1005X0.1005*%
%ADD74R,0.0438X0.0438*%
%ADD73R,0.0330X0.0330*%
%ADD72R,0.1280X0.1280*%
%ADD71C,0.0370*%
%ADD70R,0.0572X0.0572*%
%ADD69R,0.0151X0.0151*%
%ADD68C,0.0860*%
%ADD67C,0.1500*%
%ADD66C,0.0760*%
%ADD65C,0.2997*%
%ADD64C,0.0001*%
%ADD63C,0.0490*%
G54D63*X148500Y87000D03*
X152500Y67000D03*
X144500D03*
G54D64*G36*
X141200Y172300D02*Y163700D01*
X149800D01*
Y172300D01*
X141200D01*
G37*
G54D65*X233000Y173000D03*
Y17000D03*
G54D66*X185000Y46000D03*
X175000Y51000D03*
X185000Y56000D03*
X175000Y61000D03*
G54D67*X210000Y41000D03*
G54D66*X185000Y66000D03*
G54D68*X195500Y168000D03*
G54D66*X175000Y71000D03*
Y81000D03*
X185000Y76000D03*
G54D67*X210000Y86000D03*
G54D66*X75000Y66000D03*
X65000Y61000D03*
X75000Y56000D03*
X65000Y51000D03*
Y81000D03*
X75000Y76000D03*
X65000Y71000D03*
X75000Y46000D03*
G54D64*G36*
X114200Y26300D02*Y17700D01*
X122800D01*
Y26300D01*
X114200D01*
G37*
G54D68*X138500Y22000D03*
G54D67*X40000Y86000D03*
G54D65*X17000Y173000D03*
G54D64*G36*
X16200Y141800D02*Y133200D01*
X24800D01*
Y141800D01*
X16200D01*
G37*
G54D68*X20500Y117500D03*
G54D67*X40000Y41000D03*
G54D65*X17000Y17000D03*
G54D64*G36*
X120700Y186800D02*Y179200D01*
X128300D01*
Y186800D01*
X120700D01*
G37*
G54D66*X124500Y173000D03*
Y163000D03*
G54D69*X113126Y133390D02*X114780D01*
X113126Y131421D02*X114780D01*
G54D70*X104607Y130543D02*X105393D01*
G54D69*X113126Y129453D02*X114780D01*
X113126Y127484D02*X114780D01*
X113126Y125516D02*X114780D01*
G54D70*X104607Y123457D02*X105393D01*
X161107Y119457D02*X161893D01*
X161107Y126543D02*X161893D01*
G54D71*X146000Y82000D03*
X151000D03*
X146000Y77000D03*
X151000D03*
X146000Y72000D03*
X151000D03*
G54D72*X122000Y84500D02*Y75500D01*
G54D73*X47000Y103450D02*Y101050D01*
X57000Y103450D02*Y101050D01*
Y125950D02*Y123550D01*
X47000Y125950D02*Y123550D01*
G54D70*X93500Y125393D02*Y124607D01*
X86414Y125393D02*Y124607D01*
G54D74*X89406Y116984D02*Y112890D01*
X83500Y116984D02*Y105174D01*
X77594Y116984D02*Y112890D01*
G54D75*X83500Y103440D02*Y101550D01*
G54D64*G36*
X85385Y111429D02*X88649Y108165D01*
X86805Y106321D01*
X83541Y109585D01*
X85385Y111429D01*
G37*
G36*
X78351Y108165D02*X81615Y111429D01*
X83459Y109585D01*
X80195Y106321D01*
X78351Y108165D01*
G37*
G54D76*X94300Y89000D02*X100900D01*
X94300Y80000D02*X100900D01*
X94300Y70900D02*X100900D01*
G54D70*X162043Y24850D02*Y24064D01*
G54D77*X182802Y22860D02*Y20990D01*
X179652Y22860D02*Y20990D01*
G54D70*X154957Y24850D02*Y24064D01*
G54D77*X179652Y16164D02*Y14294D01*
X182802Y16164D02*Y14294D01*
G54D78*X169500Y12100D02*Y10900D01*
X156600Y12100D02*Y10900D01*
G54D79*X194500Y15600D03*
G54D80*X193000Y17100D02*X196000D01*
G54D79*X194500Y22400D03*
G54D80*X193000Y20900D02*X196000D01*
G54D70*X158457Y136893D02*Y136107D01*
X165543Y136893D02*Y136107D01*
X142414Y136893D02*Y136107D01*
X149500Y136893D02*Y136107D01*
G54D69*X130390Y136874D02*Y135220D01*
X128421Y136874D02*Y135220D01*
X126453Y136874D02*Y135220D01*
X124484Y136874D02*Y135220D01*
X122516Y136874D02*Y135220D01*
X120547Y136874D02*Y135220D01*
X118579Y136874D02*Y135220D01*
X116610Y136874D02*Y135220D01*
G54D81*X76000Y135307D02*Y129008D01*
G54D70*X129607Y145457D02*X130393D01*
X129607Y152543D02*X130393D01*
X117607Y145457D02*X118393D01*
X117607Y152543D02*X118393D01*
G54D69*X113126Y123547D02*X114780D01*
X113126Y121579D02*X114780D01*
X113126Y119610D02*X114780D01*
X116610Y117780D02*Y116126D01*
X118579Y117780D02*Y116126D01*
X120547Y117780D02*Y116126D01*
X122516Y117780D02*Y116126D01*
X124484Y117780D02*Y116126D01*
X126453Y117780D02*Y116126D01*
X128421Y117780D02*Y116126D01*
X130390Y117780D02*Y116126D01*
X132220Y119610D02*X133874D01*
X132220Y121579D02*X133874D01*
X132220Y123547D02*X133874D01*
G54D70*X151107Y119457D02*X151893D01*
X151107Y126543D02*X151893D01*
G54D69*X132220Y125516D02*X133874D01*
G54D64*G36*
X119263Y130737D02*Y122263D01*
X127737D01*
Y130737D01*
X119263D01*
G37*
G36*
X117097Y132902D02*Y120097D01*
X129903D01*
Y132902D01*
X117097D01*
G37*
G54D69*X132220Y127484D02*X133874D01*
X132220Y129453D02*X133874D01*
X132220Y131421D02*X133874D01*
X132220Y133390D02*X133874D01*
G54D70*X97607Y170500D02*X98393D01*
X97607Y177586D02*X98393D01*
X107107Y177543D02*X107893D01*
X107107Y170457D02*X107893D01*
G54D77*X106024Y156283D02*Y154413D01*
X102875Y156283D02*Y154413D01*
X99725Y156283D02*Y154413D01*
X96576Y156283D02*Y154413D01*
Y149587D02*Y147717D01*
X99725Y149587D02*Y147717D01*
X102875Y149587D02*Y147717D01*
X106024Y149587D02*Y147717D01*
G54D70*X88107Y177543D02*X88893D01*
G54D82*X74100Y181300D02*X76900D01*
X38200D02*X41000D01*
G54D70*X88107Y170457D02*X88893D01*
G54D82*X74100Y163500D02*X76900D01*
X38200D02*X41000D01*
G54D81*X76000Y154992D02*Y148693D01*
G54D80*X196000Y126500D02*X202500D01*
X196000Y131500D02*X202500D01*
X196000Y136500D02*X202500D01*
X196000Y141500D02*X202500D01*
G54D70*X218543Y145393D02*Y144607D01*
X211457Y145393D02*Y144607D01*
G54D80*X175500Y141500D02*X182000D01*
X175500Y136500D02*X182000D01*
X175500Y131500D02*X182000D01*
X175500Y126500D02*X182000D01*
G54D70*X180414Y118893D02*Y118107D01*
X187500Y118893D02*Y118107D01*
G54D80*X218200Y133500D02*X219800D01*
X226400D02*X228000D01*
X218200Y129600D02*X219800D01*
X218200Y125700D02*X219800D01*
X226400D02*X228000D01*
X226400Y129600D02*X228000D01*
G54D77*X218717Y113224D02*X220587D01*
X218717Y110075D02*X220587D01*
X218717Y106925D02*X220587D01*
X218717Y103776D02*X220587D01*
X225413D02*X227283D01*
X225413Y106925D02*X227283D01*
X225413Y110075D02*X227283D01*
X225413Y113224D02*X227283D01*
M02*
