G04 start of page 2 for group 0 idx 0 *
G04 Title: (unknown), component *
G04 Creator: pcb 20140316 *
G04 CreationDate: Sun 30 Dec 2018 07:31:13 PM GMT UTC *
G04 For: railfan *
G04 Format: Gerber/RS-274X *
G04 PCB-Dimensions (mil): 2500.00 1900.00 *
G04 PCB-Coordinate-Origin: lower left *
%MOIN*%
%FSLAX25Y25*%
%LNTOP*%
%ADD40C,0.1280*%
%ADD39C,0.0300*%
%ADD38C,0.1285*%
%ADD37C,0.0480*%
%ADD36C,0.0390*%
%ADD35R,0.0240X0.0240*%
%ADD34R,0.0200X0.0200*%
%ADD33R,0.0550X0.0550*%
%ADD32R,0.0630X0.0630*%
%ADD31R,0.0300X0.0300*%
%ADD30C,0.0600*%
%ADD29R,0.0360X0.0360*%
%ADD28R,0.0167X0.0167*%
%ADD27R,0.0560X0.0560*%
%ADD26R,0.0945X0.0945*%
%ADD25R,0.0378X0.0378*%
%ADD24R,0.0310X0.0310*%
%ADD23R,0.1220X0.1220*%
%ADD22C,0.0310*%
%ADD21R,0.0512X0.0512*%
%ADD20R,0.0091X0.0091*%
%ADD19C,0.0800*%
%ADD18C,0.1440*%
%ADD17C,0.0700*%
%ADD16C,0.2937*%
%ADD15C,0.0200*%
%ADD14C,0.0250*%
%ADD13C,0.0400*%
%ADD12C,0.0100*%
%ADD11C,0.0001*%
G54D11*G36*
X94048Y173059D02*X94057Y167784D01*
X94094Y167631D01*
X94154Y167486D01*
X94236Y167351D01*
X94339Y167232D01*
X94458Y167129D01*
X94593Y167047D01*
X94738Y166987D01*
X94891Y166950D01*
X95048Y166941D01*
X96500Y166943D01*
Y164059D01*
X96495Y164000D01*
X96514Y163765D01*
X96569Y163535D01*
X96659Y163317D01*
X96783Y163116D01*
X96783Y163115D01*
X96936Y162936D01*
X96981Y162898D01*
X97442Y162436D01*
X97427Y162440D01*
X97235Y162486D01*
X97000Y162505D01*
X96941Y162500D01*
X91121D01*
X90000Y163621D01*
Y166905D01*
X91609Y166907D01*
X91762Y166944D01*
X91907Y167004D01*
X92042Y167086D01*
X92161Y167189D01*
X92264Y167308D01*
X92346Y167443D01*
X92406Y167588D01*
X92443Y167741D01*
X92452Y167898D01*
X92443Y173173D01*
X92406Y173326D01*
X92346Y173471D01*
X92264Y173606D01*
X92161Y173725D01*
X92042Y173828D01*
X91907Y173910D01*
X91762Y173970D01*
X91609Y174007D01*
X91452Y174016D01*
X85391Y174007D01*
X85238Y173970D01*
X85093Y173910D01*
X84958Y173828D01*
X84839Y173725D01*
X84736Y173606D01*
X84654Y173471D01*
X84594Y173326D01*
X84557Y173173D01*
X84548Y173016D01*
X84557Y167741D01*
X84594Y167588D01*
X84654Y167443D01*
X84736Y167308D01*
X84839Y167189D01*
X84958Y167086D01*
X85093Y167004D01*
X85238Y166944D01*
X85391Y166907D01*
X85548Y166898D01*
X87000Y166900D01*
Y163059D01*
X86995Y163000D01*
X87014Y162765D01*
X87069Y162535D01*
X87159Y162317D01*
X87283Y162116D01*
X87436Y161936D01*
X87481Y161898D01*
X89398Y159981D01*
X89436Y159936D01*
X89615Y159783D01*
X89616Y159783D01*
X89817Y159659D01*
X90035Y159569D01*
X90265Y159514D01*
X90500Y159495D01*
X90559Y159500D01*
X96379D01*
X97864Y158015D01*
X97722Y158073D01*
X97569Y158110D01*
X97412Y158120D01*
X95583Y158110D01*
X95430Y158073D01*
X95284Y158013D01*
X95150Y157931D01*
X95030Y157829D01*
X94928Y157709D01*
X94846Y157575D01*
X94786Y157429D01*
X94749Y157276D01*
X94739Y157120D01*
X94742Y156000D01*
X38500D01*
Y177454D01*
X43923Y177460D01*
X44091Y177501D01*
X44251Y177567D01*
X44399Y177657D01*
X44530Y177770D01*
X44643Y177901D01*
X44733Y178049D01*
X44799Y178209D01*
X44840Y178377D01*
X44850Y178550D01*
X44848Y179800D01*
X70158D01*
X70161Y178362D01*
X70205Y178178D01*
X70277Y178004D01*
X70376Y177842D01*
X70499Y177699D01*
X70642Y177576D01*
X70804Y177477D01*
X70978Y177405D01*
X71162Y177361D01*
X71350Y177350D01*
X79838Y177361D01*
X80022Y177405D01*
X80196Y177477D01*
X80358Y177576D01*
X80501Y177699D01*
X80624Y177842D01*
X80723Y178004D01*
X80795Y178178D01*
X80839Y178362D01*
X80850Y178550D01*
X80848Y179800D01*
X81241D01*
X81300Y179795D01*
X81535Y179814D01*
X81535Y179814D01*
X81765Y179869D01*
X81983Y179959D01*
X82184Y180083D01*
X82364Y180236D01*
X82402Y180281D01*
X85121Y183000D01*
X111879D01*
X113500Y181379D01*
Y174559D01*
X113495Y174500D01*
X113514Y174265D01*
X113569Y174035D01*
X113659Y173817D01*
X113783Y173616D01*
X113783Y173615D01*
X113936Y173436D01*
X113981Y173398D01*
X115398Y171981D01*
X115436Y171936D01*
X115615Y171783D01*
X115616Y171783D01*
X115817Y171659D01*
X116035Y171569D01*
X116265Y171514D01*
X116500Y171495D01*
X116559Y171500D01*
X119718D01*
X119730Y171450D01*
X120031Y170723D01*
X120442Y170052D01*
X120954Y169454D01*
X121552Y168942D01*
X122223Y168531D01*
X122950Y168230D01*
X123715Y168046D01*
X124304Y168000D01*
X123715Y167954D01*
X122950Y167770D01*
X122223Y167469D01*
X121552Y167058D01*
X120954Y166546D01*
X120442Y165948D01*
X120031Y165277D01*
X119730Y164550D01*
X119718Y164500D01*
X115059D01*
X115000Y164505D01*
X114765Y164486D01*
X114535Y164431D01*
X114317Y164341D01*
X114116Y164217D01*
X114115Y164217D01*
X113936Y164064D01*
X113898Y164019D01*
X111481Y161602D01*
X111436Y161564D01*
X111283Y161384D01*
X111159Y161183D01*
X111069Y160965D01*
X111014Y160735D01*
X111014Y160735D01*
X110995Y160500D01*
X111000Y160441D01*
Y156000D01*
X107854D01*
X107851Y157276D01*
X107814Y157429D01*
X107754Y157575D01*
X107672Y157709D01*
X107570Y157829D01*
X107500Y157888D01*
Y161379D01*
X108519Y162398D01*
X108564Y162436D01*
X108717Y162615D01*
X108717Y162616D01*
X108841Y162817D01*
X108931Y163035D01*
X108986Y163265D01*
X109005Y163500D01*
X109000Y163559D01*
Y166905D01*
X110609Y166907D01*
X110762Y166944D01*
X110907Y167004D01*
X111042Y167086D01*
X111161Y167189D01*
X111264Y167308D01*
X111346Y167443D01*
X111406Y167588D01*
X111443Y167741D01*
X111452Y167898D01*
X111443Y173173D01*
X111406Y173326D01*
X111346Y173471D01*
X111264Y173606D01*
X111161Y173725D01*
X111042Y173828D01*
X110907Y173910D01*
X110762Y173970D01*
X110609Y174007D01*
X110452Y174016D01*
X104391Y174007D01*
X104238Y173970D01*
X104093Y173910D01*
X103958Y173828D01*
X103839Y173725D01*
X103736Y173606D01*
X103654Y173471D01*
X103594Y173326D01*
X103557Y173173D01*
X103548Y173016D01*
X103557Y167741D01*
X103594Y167588D01*
X103654Y167443D01*
X103736Y167308D01*
X103839Y167189D01*
X103958Y167086D01*
X104093Y167004D01*
X104238Y166944D01*
X104391Y166907D01*
X104548Y166898D01*
X106000Y166900D01*
Y164121D01*
X104981Y163102D01*
X104936Y163064D01*
X104783Y162884D01*
X104659Y162683D01*
X104569Y162465D01*
X104514Y162235D01*
X104514Y162235D01*
X104495Y162000D01*
X104500Y161941D01*
Y157847D01*
X104478Y157829D01*
X104449Y157795D01*
X104421Y157829D01*
X104350Y157889D01*
Y159091D01*
X104355Y159150D01*
X104336Y159385D01*
X104336Y159385D01*
X104281Y159615D01*
X104191Y159833D01*
X104067Y160034D01*
X103914Y160214D01*
X103869Y160252D01*
X99500Y164621D01*
Y166948D01*
X101109Y166950D01*
X101262Y166987D01*
X101407Y167047D01*
X101542Y167129D01*
X101661Y167232D01*
X101764Y167351D01*
X101846Y167486D01*
X101906Y167631D01*
X101943Y167784D01*
X101952Y167941D01*
X101943Y173216D01*
X101906Y173369D01*
X101846Y173514D01*
X101764Y173649D01*
X101661Y173768D01*
X101542Y173871D01*
X101407Y173953D01*
X101262Y174013D01*
X101109Y174050D01*
X100952Y174059D01*
X94891Y174050D01*
X94738Y174013D01*
X94593Y173953D01*
X94458Y173871D01*
X94339Y173768D01*
X94236Y173649D01*
X94154Y173514D01*
X94094Y173369D01*
X94057Y173216D01*
X94048Y173059D01*
G37*
G36*
X84548Y173016D02*X84557Y167741D01*
X84594Y167588D01*
X84654Y167443D01*
X84736Y167308D01*
X84839Y167189D01*
X84958Y167086D01*
X85093Y167004D01*
X85238Y166944D01*
X85391Y166907D01*
X85548Y166898D01*
X87000Y166900D01*
Y163059D01*
X86995Y163000D01*
X87014Y162765D01*
X87069Y162535D01*
X87159Y162317D01*
X87283Y162116D01*
X87436Y161936D01*
X87481Y161898D01*
X89398Y159981D01*
X89436Y159936D01*
X89615Y159783D01*
X89616Y159783D01*
X89817Y159659D01*
X90035Y159569D01*
X90265Y159514D01*
X90500Y159495D01*
X90559Y159500D01*
X93500D01*
Y148500D01*
X38500D01*
Y177454D01*
X43923Y177460D01*
X44091Y177501D01*
X44251Y177567D01*
X44399Y177657D01*
X44530Y177770D01*
X44643Y177901D01*
X44733Y178049D01*
X44799Y178209D01*
X44840Y178377D01*
X44850Y178550D01*
X44849Y179000D01*
X70160D01*
X70161Y178362D01*
X70205Y178178D01*
X70277Y178004D01*
X70376Y177842D01*
X70499Y177699D01*
X70642Y177576D01*
X70804Y177477D01*
X70978Y177405D01*
X71162Y177361D01*
X71350Y177350D01*
X79838Y177361D01*
X80022Y177405D01*
X80196Y177477D01*
X80358Y177576D01*
X80501Y177699D01*
X80624Y177842D01*
X80723Y178004D01*
X80795Y178178D01*
X80839Y178362D01*
X80850Y178550D01*
X80849Y179000D01*
X93500D01*
Y162500D01*
X91121D01*
X90000Y163621D01*
Y166905D01*
X91609Y166907D01*
X91762Y166944D01*
X91907Y167004D01*
X92042Y167086D01*
X92161Y167189D01*
X92264Y167308D01*
X92346Y167443D01*
X92406Y167588D01*
X92443Y167741D01*
X92452Y167898D01*
X92443Y173173D01*
X92406Y173326D01*
X92346Y173471D01*
X92264Y173606D01*
X92161Y173725D01*
X92042Y173828D01*
X91907Y173910D01*
X91762Y173970D01*
X91609Y174007D01*
X91452Y174016D01*
X85391Y174007D01*
X85238Y173970D01*
X85093Y173910D01*
X84958Y173828D01*
X84839Y173725D01*
X84736Y173606D01*
X84654Y173471D01*
X84594Y173326D01*
X84557Y173173D01*
X84548Y173016D01*
G37*
G36*
X75500Y149000D02*X51500D01*
Y178500D01*
X70161D01*
X70161Y178362D01*
X70205Y178178D01*
X70277Y178004D01*
X70376Y177842D01*
X70499Y177699D01*
X70642Y177576D01*
X70804Y177477D01*
X70978Y177405D01*
X71162Y177361D01*
X71350Y177350D01*
X75500Y177355D01*
Y149000D01*
G37*
G36*
X97412Y151424D02*X95583Y151414D01*
X95430Y151377D01*
X95284Y151317D01*
X95150Y151235D01*
X95030Y151133D01*
X94928Y151013D01*
X94846Y150879D01*
X94786Y150733D01*
X94749Y150580D01*
X94739Y150424D01*
X94749Y146724D01*
X94786Y146571D01*
X94846Y146425D01*
X94928Y146291D01*
X95030Y146171D01*
X95150Y146069D01*
X95284Y145987D01*
X95430Y145927D01*
X95583Y145890D01*
X95739Y145880D01*
X97569Y145890D01*
X97722Y145927D01*
X97868Y145987D01*
X98002Y146069D01*
X98122Y146171D01*
X98150Y146205D01*
X98179Y146171D01*
X98225Y146132D01*
Y133000D01*
X87500D01*
Y154500D01*
X94746D01*
X94749Y153420D01*
X94786Y153267D01*
X94846Y153121D01*
X94928Y152987D01*
X95030Y152867D01*
X95150Y152765D01*
X95284Y152683D01*
X95430Y152623D01*
X95583Y152586D01*
X95739Y152576D01*
X97569Y152586D01*
X97722Y152623D01*
X97868Y152683D01*
X98002Y152765D01*
X98122Y152867D01*
X98150Y152901D01*
X98179Y152867D01*
X98299Y152765D01*
X98433Y152683D01*
X98579Y152623D01*
X98732Y152586D01*
X98888Y152576D01*
X99500Y152580D01*
Y152321D01*
X98706Y151527D01*
X98661Y151489D01*
X98559Y151369D01*
X98433Y151317D01*
X98299Y151235D01*
X98179Y151133D01*
X98150Y151099D01*
X98122Y151133D01*
X98002Y151235D01*
X97868Y151317D01*
X97722Y151377D01*
X97569Y151414D01*
X97412Y151424D01*
G37*
G36*
X94744Y148500D02*X74500D01*
Y164000D01*
X87000D01*
Y163059D01*
X86995Y163000D01*
X87014Y162765D01*
X87069Y162535D01*
X87159Y162317D01*
X87283Y162116D01*
X87436Y161936D01*
X87481Y161898D01*
X89398Y159981D01*
X89436Y159936D01*
X89615Y159783D01*
X89616Y159783D01*
X89817Y159659D01*
X90035Y159569D01*
X90265Y159514D01*
X90500Y159495D01*
X90559Y159500D01*
X96379D01*
X97000Y158879D01*
Y158117D01*
X95583Y158110D01*
X95430Y158073D01*
X95284Y158013D01*
X95150Y157931D01*
X95030Y157829D01*
X94928Y157709D01*
X94846Y157575D01*
X94786Y157429D01*
X94749Y157276D01*
X94739Y157120D01*
X94749Y153420D01*
X94786Y153267D01*
X94846Y153121D01*
X94928Y152987D01*
X95030Y152867D01*
X95150Y152765D01*
X95284Y152683D01*
X95430Y152623D01*
X95583Y152586D01*
X95739Y152576D01*
X97000Y152583D01*
Y151421D01*
X95583Y151414D01*
X95430Y151377D01*
X95284Y151317D01*
X95150Y151235D01*
X95030Y151133D01*
X94928Y151013D01*
X94846Y150879D01*
X94786Y150733D01*
X94749Y150580D01*
X94739Y150424D01*
X94744Y148500D01*
G37*
G36*
X67320Y179800D02*X70158D01*
X70161Y178362D01*
X70205Y178178D01*
X70277Y178004D01*
X70376Y177842D01*
X70499Y177699D01*
X70642Y177576D01*
X70804Y177477D01*
X70978Y177405D01*
X71162Y177361D01*
X71350Y177350D01*
X79838Y177361D01*
X80022Y177405D01*
X80196Y177477D01*
X80358Y177576D01*
X80501Y177699D01*
X80624Y177842D01*
X80723Y178004D01*
X80795Y178178D01*
X80839Y178362D01*
X80850Y178550D01*
X80848Y179800D01*
X81241D01*
X81300Y179795D01*
X81535Y179814D01*
X81535Y179814D01*
X81765Y179869D01*
X81983Y179959D01*
X82184Y180083D01*
X82364Y180236D01*
X82402Y180281D01*
X85121Y183000D01*
X89000D01*
Y174012D01*
X85391Y174007D01*
X85238Y173970D01*
X85093Y173910D01*
X84958Y173828D01*
X84839Y173725D01*
X84736Y173606D01*
X84654Y173471D01*
X84594Y173326D01*
X84557Y173173D01*
X84548Y173016D01*
X84557Y167741D01*
X84594Y167588D01*
X84654Y167443D01*
X84736Y167308D01*
X84839Y167189D01*
X84958Y167086D01*
X85093Y167004D01*
X85238Y166944D01*
X85391Y166907D01*
X85548Y166898D01*
X87000Y166900D01*
Y163059D01*
X86995Y163000D01*
X87014Y162765D01*
X87069Y162535D01*
X87159Y162317D01*
X87283Y162116D01*
X87436Y161936D01*
X87481Y161898D01*
X89000Y160379D01*
Y119869D01*
X87359Y119865D01*
X87206Y119828D01*
X87061Y119768D01*
X86926Y119686D01*
X86807Y119583D01*
X86704Y119464D01*
X86622Y119329D01*
X86562Y119184D01*
X86525Y119031D01*
X86516Y118874D01*
X86520Y115765D01*
X86434Y115408D01*
X86397Y114937D01*
X86434Y114466D01*
X86522Y114101D01*
X86525Y110843D01*
X86562Y110690D01*
X86622Y110545D01*
X86704Y110410D01*
X86807Y110291D01*
X86926Y110188D01*
X87061Y110106D01*
X87206Y110046D01*
X87359Y110009D01*
X87516Y110000D01*
X89000Y110003D01*
Y95000D01*
X67320D01*
Y119741D01*
X67570Y119638D01*
X68029Y119528D01*
X68500Y119491D01*
X68618Y119500D01*
X74500D01*
Y115148D01*
X74491Y115031D01*
X74528Y114561D01*
X74528Y114560D01*
X74528Y114560D01*
X74528Y114560D01*
X74561Y114422D01*
X74638Y114101D01*
X74638Y114101D01*
X74638Y114101D01*
X74708Y113931D01*
X74710Y113928D01*
X74713Y110843D01*
X74750Y110690D01*
X74810Y110545D01*
X74892Y110410D01*
X74995Y110291D01*
X75114Y110188D01*
X75249Y110106D01*
X75394Y110046D01*
X75547Y110009D01*
X75704Y110000D01*
X79641Y110009D01*
X79794Y110046D01*
X79939Y110106D01*
X80074Y110188D01*
X80193Y110291D01*
X80296Y110410D01*
X80378Y110545D01*
X80438Y110690D01*
X80475Y110843D01*
X80484Y111000D01*
X80480Y114109D01*
X80566Y114466D01*
X80603Y114937D01*
X80566Y115408D01*
X80500Y115684D01*
Y121382D01*
X80509Y121500D01*
X80472Y121971D01*
X80472Y121971D01*
X80362Y122430D01*
X80181Y122866D01*
X79935Y123269D01*
X79628Y123628D01*
X79538Y123704D01*
X79000Y124243D01*
Y124371D01*
X79385Y124372D01*
X79615Y124427D01*
X79833Y124517D01*
X80034Y124641D01*
X80214Y124794D01*
X80367Y124974D01*
X80491Y125175D01*
X80581Y125393D01*
X80636Y125623D01*
X80650Y125858D01*
X80636Y138692D01*
X80581Y138922D01*
X80491Y139140D01*
X80367Y139341D01*
X80214Y139521D01*
X80034Y139674D01*
X79833Y139798D01*
X79615Y139888D01*
X79385Y139943D01*
X79150Y139957D01*
X72615Y139943D01*
X72385Y139888D01*
X72167Y139798D01*
X71966Y139674D01*
X71786Y139521D01*
X71633Y139341D01*
X71509Y139140D01*
X71419Y138922D01*
X71364Y138692D01*
X71350Y138457D01*
X71364Y125623D01*
X71393Y125500D01*
X69743D01*
X68454Y126788D01*
X68378Y126878D01*
X68019Y127185D01*
X67616Y127431D01*
X67320Y127554D01*
Y179800D01*
G37*
G36*
X70150Y184050D02*X70152Y182800D01*
X67320D01*
Y188500D01*
X89000D01*
Y186000D01*
X84559D01*
X84500Y186005D01*
X84265Y185986D01*
X84035Y185931D01*
X83817Y185841D01*
X83616Y185717D01*
X83615Y185717D01*
X83436Y185564D01*
X83398Y185519D01*
X80841Y182963D01*
X80839Y184238D01*
X80795Y184422D01*
X80723Y184596D01*
X80624Y184758D01*
X80501Y184901D01*
X80358Y185024D01*
X80196Y185123D01*
X80022Y185195D01*
X79838Y185239D01*
X79650Y185250D01*
X71162Y185239D01*
X70978Y185195D01*
X70804Y185123D01*
X70642Y185024D01*
X70499Y184901D01*
X70376Y184758D01*
X70277Y184596D01*
X70205Y184422D01*
X70161Y184238D01*
X70150Y184050D01*
G37*
G36*
X37496Y177452D02*X43923Y177460D01*
X44091Y177501D01*
X44251Y177567D01*
X44399Y177657D01*
X44530Y177770D01*
X44643Y177901D01*
X44733Y178049D01*
X44799Y178209D01*
X44840Y178377D01*
X44850Y178550D01*
X44848Y179800D01*
X67320D01*
Y127554D01*
X67180Y127612D01*
X66721Y127722D01*
X66721Y127722D01*
X66250Y127759D01*
X66132Y127750D01*
X59518D01*
X59504Y127810D01*
X59444Y127955D01*
X59362Y128090D01*
X59259Y128209D01*
X59140Y128312D01*
X59005Y128394D01*
X58860Y128454D01*
X58707Y128491D01*
X58550Y128500D01*
X55293Y128491D01*
X55140Y128454D01*
X54995Y128394D01*
X54860Y128312D01*
X54741Y128209D01*
X54638Y128090D01*
X54556Y127955D01*
X54496Y127810D01*
X54459Y127657D01*
X54450Y127500D01*
X54452Y126333D01*
X54319Y126116D01*
X54138Y125680D01*
X54028Y125221D01*
X53991Y124750D01*
X54028Y124279D01*
X54138Y123820D01*
X54319Y123384D01*
X54457Y123158D01*
X54459Y121843D01*
X54496Y121690D01*
X54556Y121545D01*
X54638Y121410D01*
X54741Y121291D01*
X54860Y121188D01*
X54995Y121106D01*
X55140Y121046D01*
X55293Y121009D01*
X55450Y121000D01*
X58707Y121009D01*
X58860Y121046D01*
X59005Y121106D01*
X59140Y121188D01*
X59259Y121291D01*
X59362Y121410D01*
X59444Y121545D01*
X59504Y121690D01*
X59518Y121750D01*
X65007D01*
X66296Y120462D01*
X66372Y120372D01*
X66731Y120066D01*
X66731Y120065D01*
X67134Y119819D01*
X67320Y119741D01*
Y95000D01*
X37496D01*
Y99250D01*
X44482D01*
X44496Y99190D01*
X44556Y99045D01*
X44638Y98910D01*
X44741Y98791D01*
X44860Y98688D01*
X44995Y98606D01*
X45140Y98546D01*
X45293Y98509D01*
X45450Y98500D01*
X48707Y98509D01*
X48860Y98546D01*
X49005Y98606D01*
X49140Y98688D01*
X49259Y98791D01*
X49362Y98910D01*
X49444Y99045D01*
X49504Y99190D01*
X49541Y99343D01*
X49550Y99500D01*
X49548Y100667D01*
X49681Y100884D01*
X49862Y101320D01*
X49972Y101779D01*
X50009Y102250D01*
X49972Y102721D01*
X49862Y103180D01*
X49681Y103616D01*
X49543Y103842D01*
X49541Y105000D01*
X52757D01*
X54000Y103757D01*
Y102250D01*
X54028Y101779D01*
X54138Y101320D01*
X54319Y100884D01*
X54457Y100658D01*
X54459Y99343D01*
X54496Y99190D01*
X54556Y99045D01*
X54638Y98910D01*
X54741Y98791D01*
X54860Y98688D01*
X54995Y98606D01*
X55140Y98546D01*
X55293Y98509D01*
X55450Y98500D01*
X58707Y98509D01*
X58860Y98546D01*
X59005Y98606D01*
X59140Y98688D01*
X59259Y98791D01*
X59362Y98910D01*
X59444Y99045D01*
X59504Y99190D01*
X59541Y99343D01*
X59550Y99500D01*
X59548Y100667D01*
X59681Y100884D01*
X59862Y101320D01*
X59972Y101779D01*
X60000Y102250D01*
Y104882D01*
X60009Y105000D01*
X59972Y105471D01*
X59972Y105471D01*
X59862Y105930D01*
X59681Y106366D01*
X59435Y106769D01*
X59128Y107128D01*
X59038Y107204D01*
X56204Y110038D01*
X56128Y110128D01*
X55769Y110435D01*
X55366Y110681D01*
X54930Y110862D01*
X54471Y110972D01*
X54471Y110972D01*
X54000Y111009D01*
X53882Y111000D01*
X37496D01*
Y177452D01*
G37*
G36*
X67320Y182800D02*X44842D01*
X44840Y184223D01*
X44799Y184391D01*
X44733Y184551D01*
X44643Y184699D01*
X44530Y184830D01*
X44399Y184943D01*
X44251Y185033D01*
X44091Y185099D01*
X43923Y185140D01*
X43750Y185150D01*
X37496Y185142D01*
Y188500D01*
X67320D01*
Y182800D01*
G37*
G36*
X37496Y185142D02*X35277Y185140D01*
X35109Y185099D01*
X34949Y185033D01*
X34801Y184943D01*
X34670Y184830D01*
X34557Y184699D01*
X34467Y184551D01*
X34401Y184391D01*
X34360Y184223D01*
X34350Y184050D01*
X34360Y178377D01*
X34401Y178209D01*
X34467Y178049D01*
X34557Y177901D01*
X34670Y177770D01*
X34801Y177657D01*
X34949Y177567D01*
X35109Y177501D01*
X35277Y177460D01*
X35450Y177450D01*
X37496Y177452D01*
Y111000D01*
X33243D01*
X33000Y111243D01*
Y119882D01*
X33009Y120000D01*
X32972Y120471D01*
X32972Y120471D01*
X32862Y120930D01*
X32681Y121366D01*
X32435Y121769D01*
X32128Y122128D01*
X32038Y122204D01*
X23500Y130743D01*
Y132012D01*
X24735Y132014D01*
X24965Y132069D01*
X25183Y132159D01*
X25384Y132283D01*
X25564Y132436D01*
X25717Y132616D01*
X25841Y132817D01*
X25931Y133035D01*
X25986Y133265D01*
X26000Y133500D01*
X25986Y141735D01*
X25931Y141965D01*
X25841Y142183D01*
X25717Y142384D01*
X25564Y142564D01*
X25384Y142717D01*
X25183Y142841D01*
X24965Y142931D01*
X24735Y142986D01*
X24500Y143000D01*
X16265Y142986D01*
X16035Y142931D01*
X15817Y142841D01*
X15616Y142717D01*
X15436Y142564D01*
X15283Y142384D01*
X15159Y142183D01*
X15069Y141965D01*
X15014Y141735D01*
X15000Y141500D01*
X15014Y133265D01*
X15069Y133035D01*
X15159Y132817D01*
X15283Y132616D01*
X15436Y132436D01*
X15616Y132283D01*
X15817Y132159D01*
X16035Y132069D01*
X16265Y132014D01*
X16500Y132000D01*
X17500Y132002D01*
Y129618D01*
X17491Y129500D01*
X17528Y129029D01*
X17638Y128570D01*
X17819Y128134D01*
X18065Y127731D01*
X18066Y127731D01*
X18372Y127372D01*
X18462Y127296D01*
X24094Y121663D01*
X23743Y121963D01*
X23005Y122416D01*
X22205Y122747D01*
X21363Y122949D01*
X20500Y123017D01*
X19637Y122949D01*
X18795Y122747D01*
X17995Y122416D01*
X17257Y121963D01*
X16599Y121401D01*
X16037Y120743D01*
X15584Y120005D01*
X15253Y119205D01*
X15051Y118363D01*
X14983Y117500D01*
X15051Y116637D01*
X15253Y115795D01*
X15584Y114995D01*
X16037Y114257D01*
X16599Y113599D01*
X17257Y113037D01*
X17500Y112888D01*
Y105118D01*
X17491Y105000D01*
X17528Y104529D01*
Y104529D01*
X17549Y104440D01*
X17638Y104070D01*
X17819Y103634D01*
X18065Y103231D01*
X18065Y103231D01*
X18372Y102872D01*
X18462Y102796D01*
X21046Y100212D01*
X21122Y100122D01*
X21481Y99816D01*
X21481Y99815D01*
X21884Y99569D01*
X22320Y99388D01*
X22779Y99278D01*
X23250Y99241D01*
X23368Y99250D01*
X37496D01*
Y95000D01*
X1500D01*
Y170378D01*
X2038Y168138D01*
X2982Y165858D01*
X4272Y163753D01*
X5876Y161876D01*
X7753Y160272D01*
X9858Y158982D01*
X12138Y158038D01*
X14539Y157461D01*
X17000Y157268D01*
X19461Y157461D01*
X21862Y158038D01*
X24142Y158982D01*
X26247Y160272D01*
X28124Y161876D01*
X29728Y163753D01*
X31018Y165858D01*
X31962Y168138D01*
X32539Y170539D01*
X32684Y173000D01*
X32539Y175461D01*
X31962Y177862D01*
X31018Y180142D01*
X29728Y182247D01*
X28124Y184124D01*
X26247Y185728D01*
X24142Y187018D01*
X21862Y187962D01*
X19622Y188500D01*
X37496D01*
Y185142D01*
G37*
G36*
X86500Y135000D02*X90500D01*
Y128852D01*
X90486Y128846D01*
X90351Y128764D01*
X90232Y128661D01*
X90129Y128542D01*
X90047Y128407D01*
X89987Y128262D01*
X89950Y128109D01*
X89941Y127952D01*
X89942Y127500D01*
X86500D01*
Y135000D01*
G37*
G36*
X87500Y95000D02*Y110001D01*
X87516Y110000D01*
X91453Y110009D01*
X91606Y110046D01*
X91751Y110106D01*
X91886Y110188D01*
X92005Y110291D01*
X92108Y110410D01*
X92190Y110545D01*
X92250Y110690D01*
X92287Y110843D01*
X92296Y111000D01*
X92295Y111937D01*
X96000D01*
Y107118D01*
X95991Y107000D01*
X96028Y106529D01*
Y106529D01*
X96049Y106440D01*
X96138Y106070D01*
X96319Y105634D01*
X96565Y105231D01*
X96565Y105231D01*
X96872Y104872D01*
X96962Y104796D01*
X99000Y102757D01*
Y95000D01*
X87500D01*
G37*
G36*
X90500Y74500D02*X107000D01*
Y58000D01*
X92182D01*
X90500Y59682D01*
Y74500D01*
G37*
G36*
X108500Y94000D02*X130500D01*
Y65500D01*
X108500D01*
Y94000D01*
G37*
G36*
X65002Y32750D02*X103015D01*
X102872Y32628D01*
X102565Y32269D01*
X102319Y31866D01*
X102138Y31430D01*
X102028Y30971D01*
X101991Y30500D01*
X102028Y30029D01*
X102138Y29570D01*
X102319Y29134D01*
X102565Y28731D01*
X102872Y28372D01*
X103231Y28065D01*
X103634Y27819D01*
X104070Y27638D01*
X104529Y27528D01*
X105000Y27491D01*
X105471Y27528D01*
X105930Y27638D01*
X106366Y27819D01*
X106769Y28065D01*
X106985Y28250D01*
X107000D01*
Y1500D01*
X65002D01*
Y32750D01*
G37*
G36*
X68720Y107500D02*X96000D01*
Y107118D01*
X95991Y107000D01*
X96028Y106529D01*
Y106529D01*
X96049Y106440D01*
X96138Y106070D01*
X96319Y105634D01*
X96565Y105231D01*
X96565Y105231D01*
X96872Y104872D01*
X96962Y104796D01*
X99796Y101962D01*
X99872Y101872D01*
X100231Y101565D01*
X100231Y101565D01*
X100634Y101319D01*
X101070Y101138D01*
X101440Y101049D01*
X101529Y101028D01*
X101529D01*
X102000Y100991D01*
X102118Y101000D01*
X107000D01*
Y99162D01*
X106819Y98866D01*
X106805Y98833D01*
X106616Y98717D01*
X106615Y98717D01*
X106436Y98564D01*
X106398Y98519D01*
X104981Y97102D01*
X104936Y97064D01*
X104783Y96884D01*
X104659Y96683D01*
X104569Y96465D01*
X104514Y96235D01*
X104514Y96235D01*
X104495Y96000D01*
X104500Y95941D01*
Y94175D01*
X104475Y94185D01*
X104092Y94277D01*
X103700Y94300D01*
X91108Y94277D01*
X90725Y94185D01*
X90362Y94034D01*
X90026Y93829D01*
X89727Y93573D01*
X89471Y93274D01*
X89266Y92938D01*
X89115Y92575D01*
X89023Y92192D01*
X89000Y91800D01*
X89020Y86629D01*
X88935Y86769D01*
X88628Y87128D01*
X88269Y87435D01*
X87866Y87681D01*
X87430Y87862D01*
X86971Y87972D01*
X86500Y88009D01*
X86029Y87972D01*
X85570Y87862D01*
X85134Y87681D01*
X84731Y87435D01*
X84372Y87128D01*
X84065Y86769D01*
X83819Y86366D01*
X83638Y85930D01*
X83528Y85471D01*
X83528Y85471D01*
X83491Y85000D01*
X83500Y84882D01*
Y80118D01*
X83491Y80000D01*
X83500Y79882D01*
Y75118D01*
X83491Y75000D01*
X83528Y74529D01*
X83638Y74070D01*
X83657Y74025D01*
X80153Y77529D01*
X80096Y77596D01*
X79827Y77826D01*
X79525Y78011D01*
X79197Y78146D01*
X78922Y78213D01*
X78652Y78653D01*
X78192Y79192D01*
X77653Y79652D01*
X77049Y80022D01*
X76395Y80293D01*
X75706Y80458D01*
X75000Y80514D01*
X74294Y80458D01*
X73605Y80293D01*
X72951Y80022D01*
X72347Y79652D01*
X71808Y79192D01*
X71348Y78653D01*
X70978Y78049D01*
X70707Y77395D01*
X70542Y76706D01*
X70486Y76000D01*
X70542Y75294D01*
X70707Y74605D01*
X70978Y73951D01*
X71348Y73347D01*
X71808Y72808D01*
X72347Y72348D01*
X72951Y71978D01*
X73605Y71707D01*
X74294Y71542D01*
X75000Y71486D01*
X75706Y71542D01*
X76395Y71707D01*
X77049Y71978D01*
X77653Y72348D01*
X78192Y72808D01*
X78338Y72980D01*
X82750Y68568D01*
Y62088D01*
X82743Y62000D01*
X82771Y61647D01*
X82845Y61337D01*
X79348Y64834D01*
X79458Y65294D01*
X79500Y66000D01*
X79458Y66706D01*
X79293Y67395D01*
X79022Y68049D01*
X78652Y68653D01*
X78192Y69192D01*
X77653Y69652D01*
X77049Y70022D01*
X76395Y70293D01*
X75706Y70458D01*
X75000Y70514D01*
X74294Y70458D01*
X73605Y70293D01*
X72951Y70022D01*
X72347Y69652D01*
X71808Y69192D01*
X71348Y68653D01*
X70978Y68049D01*
X70707Y67395D01*
X70542Y66706D01*
X70486Y66000D01*
X70542Y65294D01*
X70707Y64605D01*
X70978Y63951D01*
X71348Y63347D01*
X71808Y62808D01*
X72347Y62348D01*
X72951Y61978D01*
X73605Y61707D01*
X74294Y61542D01*
X75000Y61486D01*
X75706Y61542D01*
X76166Y61652D01*
X88347Y49471D01*
X88404Y49404D01*
X88585Y49250D01*
X84932D01*
X79348Y54834D01*
X79458Y55294D01*
X79500Y56000D01*
X79458Y56706D01*
X79293Y57395D01*
X79022Y58049D01*
X78652Y58653D01*
X78192Y59192D01*
X77653Y59652D01*
X77049Y60022D01*
X76395Y60293D01*
X75706Y60458D01*
X75000Y60514D01*
X74294Y60458D01*
X73605Y60293D01*
X72951Y60022D01*
X72347Y59652D01*
X71808Y59192D01*
X71348Y58653D01*
X70978Y58049D01*
X70707Y57395D01*
X70542Y56706D01*
X70486Y56000D01*
X70542Y55294D01*
X70707Y54605D01*
X70978Y53951D01*
X71348Y53347D01*
X71808Y52808D01*
X72347Y52348D01*
X72951Y51978D01*
X73605Y51707D01*
X74294Y51542D01*
X75000Y51486D01*
X75706Y51542D01*
X76166Y51652D01*
X82347Y45471D01*
X82404Y45404D01*
X82585Y45250D01*
X79448D01*
X79458Y45294D01*
X79500Y46000D01*
X79458Y46706D01*
X79293Y47395D01*
X79022Y48049D01*
X78652Y48653D01*
X78192Y49192D01*
X77653Y49652D01*
X77049Y50022D01*
X76395Y50293D01*
X75706Y50458D01*
X75000Y50514D01*
X74294Y50458D01*
X73605Y50293D01*
X72951Y50022D01*
X72347Y49652D01*
X71808Y49192D01*
X71348Y48653D01*
X70978Y48049D01*
X70707Y47395D01*
X70542Y46706D01*
X70486Y46000D01*
X70542Y45294D01*
X70707Y44605D01*
X70978Y43951D01*
X71348Y43347D01*
X71808Y42808D01*
X72347Y42348D01*
X72951Y41978D01*
X73605Y41707D01*
X74294Y41542D01*
X75000Y41486D01*
X75706Y41542D01*
X76166Y41652D01*
X76347Y41471D01*
X76404Y41404D01*
X76585Y41250D01*
X68720D01*
Y48459D01*
X69022Y48951D01*
X69293Y49605D01*
X69458Y50294D01*
X69500Y51000D01*
X69458Y51706D01*
X69293Y52395D01*
X69022Y53049D01*
X68720Y53541D01*
Y58544D01*
X68771Y58583D01*
X68826Y58639D01*
X68870Y58704D01*
X69064Y59056D01*
X69221Y59426D01*
X69344Y59809D01*
X69433Y60200D01*
X69487Y60599D01*
X69504Y61000D01*
X69487Y61401D01*
X69433Y61800D01*
X69344Y62191D01*
X69221Y62574D01*
X69064Y62944D01*
X68874Y63298D01*
X68829Y63363D01*
X68774Y63420D01*
X68720Y63460D01*
Y68459D01*
X69022Y68951D01*
X69293Y69605D01*
X69458Y70294D01*
X69500Y71000D01*
X69458Y71706D01*
X69293Y72395D01*
X69022Y73049D01*
X68720Y73541D01*
Y78459D01*
X69022Y78951D01*
X69293Y79605D01*
X69458Y80294D01*
X69500Y81000D01*
X69458Y81706D01*
X69293Y82395D01*
X69022Y83049D01*
X68720Y83541D01*
Y107500D01*
G37*
G36*
Y73541D02*X68652Y73653D01*
X68192Y74192D01*
X67653Y74652D01*
X67049Y75022D01*
X66395Y75293D01*
X65706Y75458D01*
X65002Y75514D01*
Y76486D01*
X65706Y76542D01*
X66395Y76707D01*
X67049Y76978D01*
X67653Y77348D01*
X68192Y77808D01*
X68652Y78347D01*
X68720Y78459D01*
Y73541D01*
G37*
G36*
Y53541D02*X68652Y53653D01*
X68192Y54192D01*
X67653Y54652D01*
X67049Y55022D01*
X66395Y55293D01*
X65706Y55458D01*
X65002Y55514D01*
Y56496D01*
X65401Y56513D01*
X65800Y56567D01*
X66191Y56656D01*
X66574Y56779D01*
X66944Y56936D01*
X67298Y57126D01*
X67363Y57171D01*
X67420Y57226D01*
X67468Y57290D01*
X67504Y57360D01*
X67530Y57435D01*
X67544Y57513D01*
X67545Y57592D01*
X67533Y57671D01*
X67510Y57746D01*
X67475Y57817D01*
X67429Y57882D01*
X67374Y57939D01*
X67311Y57987D01*
X67241Y58024D01*
X67166Y58049D01*
X67088Y58063D01*
X67008Y58064D01*
X66930Y58052D01*
X66854Y58029D01*
X66784Y57993D01*
X66510Y57843D01*
X66223Y57721D01*
X65926Y57625D01*
X65621Y57556D01*
X65312Y57514D01*
X65002Y57500D01*
Y64500D01*
X65312Y64486D01*
X65621Y64444D01*
X65926Y64375D01*
X66223Y64279D01*
X66510Y64157D01*
X66786Y64010D01*
X66855Y63974D01*
X66931Y63951D01*
X67009Y63940D01*
X67087Y63941D01*
X67165Y63954D01*
X67239Y63980D01*
X67309Y64016D01*
X67372Y64064D01*
X67427Y64120D01*
X67472Y64184D01*
X67507Y64255D01*
X67530Y64330D01*
X67541Y64408D01*
X67540Y64487D01*
X67527Y64564D01*
X67501Y64639D01*
X67465Y64708D01*
X67417Y64771D01*
X67361Y64826D01*
X67296Y64870D01*
X66944Y65064D01*
X66574Y65221D01*
X66191Y65344D01*
X65800Y65433D01*
X65401Y65487D01*
X65002Y65504D01*
Y66486D01*
X65706Y66542D01*
X66395Y66707D01*
X67049Y66978D01*
X67653Y67348D01*
X68192Y67808D01*
X68652Y68347D01*
X68720Y68459D01*
Y63460D01*
X68710Y63468D01*
X68640Y63504D01*
X68565Y63530D01*
X68487Y63544D01*
X68408Y63545D01*
X68329Y63533D01*
X68254Y63510D01*
X68183Y63475D01*
X68118Y63429D01*
X68061Y63374D01*
X68013Y63311D01*
X67976Y63241D01*
X67951Y63166D01*
X67937Y63088D01*
X67936Y63008D01*
X67948Y62930D01*
X67971Y62854D01*
X68007Y62784D01*
X68157Y62510D01*
X68279Y62223D01*
X68375Y61926D01*
X68444Y61621D01*
X68486Y61312D01*
X68500Y61000D01*
X68486Y60688D01*
X68444Y60379D01*
X68375Y60074D01*
X68279Y59777D01*
X68157Y59490D01*
X68010Y59214D01*
X67974Y59145D01*
X67951Y59069D01*
X67940Y58991D01*
X67941Y58913D01*
X67954Y58835D01*
X67980Y58761D01*
X68016Y58691D01*
X68064Y58628D01*
X68120Y58573D01*
X68184Y58528D01*
X68255Y58493D01*
X68330Y58470D01*
X68408Y58459D01*
X68487Y58460D01*
X68564Y58473D01*
X68639Y58499D01*
X68708Y58535D01*
X68720Y58544D01*
Y53541D01*
G37*
G36*
Y41250D02*X65002D01*
Y46486D01*
X65706Y46542D01*
X66395Y46707D01*
X67049Y46978D01*
X67653Y47348D01*
X68192Y47808D01*
X68652Y48347D01*
X68720Y48459D01*
Y41250D01*
G37*
G36*
X65002Y107500D02*X68720D01*
Y83541D01*
X68652Y83653D01*
X68192Y84192D01*
X67653Y84652D01*
X67049Y85022D01*
X66395Y85293D01*
X65706Y85458D01*
X65002Y85514D01*
Y107500D01*
G37*
G36*
Y75514D02*X65000Y75514D01*
X64294Y75458D01*
X63605Y75293D01*
X62951Y75022D01*
X62347Y74652D01*
X61808Y74192D01*
X61348Y73653D01*
X61101Y73250D01*
X60588D01*
X60500Y73257D01*
X60434Y73252D01*
X63834Y76652D01*
X64294Y76542D01*
X65000Y76486D01*
X65002Y76486D01*
Y75514D01*
G37*
G36*
X61280Y68459D02*X61348Y68347D01*
X61808Y67808D01*
X62347Y67348D01*
X62951Y66978D01*
X63605Y66707D01*
X64294Y66542D01*
X65000Y66486D01*
X65002Y66486D01*
Y65504D01*
X65000Y65504D01*
X64599Y65487D01*
X64200Y65433D01*
X63809Y65344D01*
X63426Y65221D01*
X63056Y65064D01*
X62702Y64874D01*
X62637Y64829D01*
X62580Y64774D01*
X62532Y64710D01*
X62496Y64640D01*
X62470Y64565D01*
X62456Y64487D01*
X62455Y64408D01*
X62467Y64329D01*
X62490Y64254D01*
X62525Y64183D01*
X62571Y64118D01*
X62626Y64061D01*
X62689Y64013D01*
X62759Y63976D01*
X62834Y63951D01*
X62912Y63937D01*
X62992Y63936D01*
X63070Y63948D01*
X63146Y63971D01*
X63216Y64007D01*
X63490Y64157D01*
X63777Y64279D01*
X64074Y64375D01*
X64379Y64444D01*
X64688Y64486D01*
X65000Y64500D01*
X65002Y64500D01*
Y57500D01*
X65000Y57500D01*
X64688Y57514D01*
X64379Y57556D01*
X64074Y57625D01*
X63777Y57721D01*
X63490Y57843D01*
X63214Y57990D01*
X63145Y58026D01*
X63069Y58049D01*
X62991Y58060D01*
X62913Y58059D01*
X62835Y58046D01*
X62761Y58020D01*
X62691Y57984D01*
X62628Y57936D01*
X62573Y57880D01*
X62528Y57816D01*
X62493Y57745D01*
X62470Y57670D01*
X62459Y57592D01*
X62460Y57513D01*
X62473Y57436D01*
X62499Y57361D01*
X62535Y57292D01*
X62583Y57229D01*
X62639Y57174D01*
X62704Y57130D01*
X63056Y56936D01*
X63426Y56779D01*
X63809Y56656D01*
X64200Y56567D01*
X64599Y56513D01*
X65000Y56496D01*
X65002Y56496D01*
Y55514D01*
X65000Y55514D01*
X64294Y55458D01*
X63605Y55293D01*
X62951Y55022D01*
X62347Y54652D01*
X61808Y54192D01*
X61348Y53653D01*
X61280Y53541D01*
Y58540D01*
X61290Y58532D01*
X61360Y58496D01*
X61435Y58470D01*
X61513Y58456D01*
X61592Y58455D01*
X61671Y58467D01*
X61746Y58490D01*
X61817Y58525D01*
X61882Y58571D01*
X61939Y58626D01*
X61987Y58689D01*
X62024Y58759D01*
X62049Y58834D01*
X62063Y58912D01*
X62064Y58992D01*
X62052Y59070D01*
X62029Y59146D01*
X61993Y59216D01*
X61843Y59490D01*
X61721Y59777D01*
X61625Y60074D01*
X61556Y60379D01*
X61514Y60688D01*
X61500Y61000D01*
X61514Y61312D01*
X61556Y61621D01*
X61625Y61926D01*
X61721Y62223D01*
X61843Y62510D01*
X61990Y62786D01*
X62026Y62855D01*
X62049Y62931D01*
X62060Y63009D01*
X62059Y63087D01*
X62046Y63165D01*
X62020Y63239D01*
X61984Y63309D01*
X61936Y63372D01*
X61880Y63427D01*
X61816Y63472D01*
X61745Y63507D01*
X61670Y63530D01*
X61592Y63541D01*
X61513Y63540D01*
X61436Y63527D01*
X61361Y63501D01*
X61292Y63465D01*
X61280Y63456D01*
Y68459D01*
G37*
G36*
X65002Y41250D02*X61280D01*
Y48459D01*
X61348Y48347D01*
X61808Y47808D01*
X62347Y47348D01*
X62951Y46978D01*
X63605Y46707D01*
X64294Y46542D01*
X65000Y46486D01*
X65002Y46486D01*
Y41250D01*
G37*
G36*
X61280D02*X60932D01*
X59750Y42432D01*
Y67068D01*
X61227Y68545D01*
X61280Y68459D01*
Y63456D01*
X61229Y63417D01*
X61174Y63361D01*
X61130Y63296D01*
X60936Y62944D01*
X60779Y62574D01*
X60656Y62191D01*
X60567Y61800D01*
X60513Y61401D01*
X60496Y61000D01*
X60513Y60599D01*
X60567Y60200D01*
X60656Y59809D01*
X60779Y59426D01*
X60936Y59056D01*
X61126Y58702D01*
X61171Y58637D01*
X61226Y58580D01*
X61280Y58540D01*
Y53541D01*
X60978Y53049D01*
X60707Y52395D01*
X60542Y51706D01*
X60486Y51000D01*
X60542Y50294D01*
X60707Y49605D01*
X60978Y48951D01*
X61280Y48459D01*
Y41250D01*
G37*
G36*
X44482Y99250D02*X44496Y99190D01*
X44556Y99045D01*
X44638Y98910D01*
X44741Y98791D01*
X44860Y98688D01*
X44995Y98606D01*
X45140Y98546D01*
X45293Y98509D01*
X45450Y98500D01*
X48707Y98509D01*
X48860Y98546D01*
X49005Y98606D01*
X49140Y98688D01*
X49259Y98791D01*
X49362Y98910D01*
X49444Y99045D01*
X49504Y99190D01*
X49541Y99343D01*
X49550Y99500D01*
X49548Y100667D01*
X49681Y100884D01*
X49862Y101320D01*
X49972Y101779D01*
X50009Y102250D01*
X49972Y102721D01*
X49862Y103180D01*
X49681Y103616D01*
X49543Y103842D01*
X49541Y105000D01*
X52757D01*
X54000Y103757D01*
Y102250D01*
X54028Y101779D01*
X54138Y101320D01*
X54319Y100884D01*
X54457Y100658D01*
X54459Y99343D01*
X54496Y99190D01*
X54556Y99045D01*
X54638Y98910D01*
X54741Y98791D01*
X54860Y98688D01*
X54995Y98606D01*
X55140Y98546D01*
X55293Y98509D01*
X55450Y98500D01*
X58707Y98509D01*
X58860Y98546D01*
X59005Y98606D01*
X59140Y98688D01*
X59259Y98791D01*
X59362Y98910D01*
X59444Y99045D01*
X59504Y99190D01*
X59541Y99343D01*
X59550Y99500D01*
X59548Y100667D01*
X59681Y100884D01*
X59862Y101320D01*
X59972Y101779D01*
X60000Y102250D01*
Y104882D01*
X60009Y105000D01*
X59972Y105471D01*
X59972Y105471D01*
X59862Y105930D01*
X59681Y106366D01*
X59435Y106769D01*
X59128Y107128D01*
X59038Y107204D01*
X58743Y107500D01*
X65002D01*
Y85514D01*
X65000Y85514D01*
X64294Y85458D01*
X63605Y85293D01*
X62951Y85022D01*
X62347Y84652D01*
X61808Y84192D01*
X61348Y83653D01*
X60978Y83049D01*
X60707Y82395D01*
X60542Y81706D01*
X60486Y81000D01*
X60542Y80294D01*
X60652Y79834D01*
X51971Y71153D01*
X51904Y71096D01*
X51674Y70827D01*
X51489Y70525D01*
X51354Y70197D01*
X51271Y69853D01*
X51271Y69853D01*
X51243Y69500D01*
X51250Y69412D01*
Y40088D01*
X51243Y40000D01*
X51271Y39647D01*
X51354Y39303D01*
X51489Y38975D01*
X51674Y38673D01*
X51674Y38673D01*
X51904Y38404D01*
X51971Y38347D01*
X56847Y33471D01*
X56904Y33404D01*
X57173Y33174D01*
X57173Y33174D01*
X57361Y33059D01*
X57475Y32989D01*
X57803Y32854D01*
X58147Y32771D01*
X58147D01*
X58500Y32743D01*
X58588Y32750D01*
X65002D01*
Y1500D01*
X39987D01*
Y32776D01*
X40000Y32775D01*
X41287Y32876D01*
X42542Y33177D01*
X43734Y33671D01*
X44835Y34346D01*
X45816Y35184D01*
X46654Y36165D01*
X47329Y37266D01*
X47823Y38458D01*
X48124Y39713D01*
X48200Y41000D01*
X48124Y42287D01*
X47823Y43542D01*
X47329Y44734D01*
X46654Y45835D01*
X45816Y46816D01*
X44835Y47654D01*
X43734Y48329D01*
X42542Y48823D01*
X41287Y49124D01*
X40000Y49225D01*
X39987Y49224D01*
Y77776D01*
X40000Y77775D01*
X41287Y77876D01*
X42542Y78177D01*
X43734Y78671D01*
X44835Y79346D01*
X45816Y80184D01*
X46654Y81165D01*
X47329Y82266D01*
X47823Y83458D01*
X48124Y84713D01*
X48200Y86000D01*
X48124Y87287D01*
X47823Y88542D01*
X47329Y89734D01*
X46654Y90835D01*
X45816Y91816D01*
X44835Y92654D01*
X43734Y93329D01*
X42542Y93823D01*
X41287Y94124D01*
X40000Y94225D01*
X39987Y94224D01*
Y99250D01*
X44482D01*
G37*
G36*
X39987Y1500D02*X19622D01*
X21862Y2038D01*
X24142Y2982D01*
X26247Y4272D01*
X28124Y5876D01*
X29728Y7753D01*
X31018Y9858D01*
X31962Y12138D01*
X32539Y14539D01*
X32684Y17000D01*
X32539Y19461D01*
X31962Y21862D01*
X31018Y24142D01*
X29728Y26247D01*
X28124Y28124D01*
X26247Y29728D01*
X24142Y31018D01*
X21862Y31962D01*
X19461Y32539D01*
X17000Y32732D01*
X14539Y32539D01*
X12138Y31962D01*
X9858Y31018D01*
X7753Y29728D01*
X5876Y28124D01*
X4272Y26247D01*
X2982Y24142D01*
X2038Y21862D01*
X1500Y19622D01*
Y107500D01*
X17500D01*
Y105118D01*
X17491Y105000D01*
X17528Y104529D01*
Y104529D01*
X17549Y104440D01*
X17638Y104070D01*
X17819Y103634D01*
X18065Y103231D01*
X18065Y103231D01*
X18372Y102872D01*
X18462Y102796D01*
X21046Y100212D01*
X21122Y100122D01*
X21481Y99816D01*
X21481Y99815D01*
X21884Y99569D01*
X22320Y99388D01*
X22779Y99278D01*
X23250Y99241D01*
X23368Y99250D01*
X39987D01*
Y94224D01*
X38713Y94124D01*
X37458Y93823D01*
X36266Y93329D01*
X35165Y92654D01*
X34184Y91816D01*
X33346Y90835D01*
X32671Y89734D01*
X32177Y88542D01*
X31876Y87287D01*
X31775Y86000D01*
X31876Y84713D01*
X32177Y83458D01*
X32671Y82266D01*
X33346Y81165D01*
X34184Y80184D01*
X35165Y79346D01*
X36266Y78671D01*
X37458Y78177D01*
X38713Y77876D01*
X39987Y77776D01*
Y49224D01*
X38713Y49124D01*
X37458Y48823D01*
X36266Y48329D01*
X35165Y47654D01*
X34184Y46816D01*
X33346Y45835D01*
X32671Y44734D01*
X32177Y43542D01*
X31876Y42287D01*
X31775Y41000D01*
X31876Y39713D01*
X32177Y38458D01*
X32671Y37266D01*
X33346Y36165D01*
X34184Y35184D01*
X35165Y34346D01*
X36266Y33671D01*
X37458Y33177D01*
X38713Y32876D01*
X39987Y32776D01*
Y1500D01*
G37*
G36*
X180489Y18001D02*X178659Y17991D01*
X178506Y17955D01*
X178360Y17894D01*
X178226Y17812D01*
X178106Y17710D01*
X178004Y17590D01*
X177922Y17456D01*
X177862Y17311D01*
X177825Y17158D01*
X177816Y17001D01*
X177825Y13301D01*
X177862Y13148D01*
X177922Y13002D01*
X178004Y12868D01*
X178106Y12748D01*
X178152Y12709D01*
Y4907D01*
X178147Y4848D01*
X178166Y4613D01*
X178221Y4383D01*
X178311Y4165D01*
X178435Y3964D01*
X178588Y3784D01*
X178633Y3746D01*
X180398Y1981D01*
X180436Y1936D01*
X180615Y1783D01*
X180616Y1783D01*
X180817Y1659D01*
X181035Y1569D01*
X181265Y1514D01*
X181441Y1500D01*
X142993D01*
Y8000D01*
X149941D01*
X150000Y7995D01*
X150235Y8014D01*
X150235Y8014D01*
X150465Y8069D01*
X150683Y8159D01*
X150884Y8283D01*
X151064Y8436D01*
X151102Y8481D01*
X152621Y10000D01*
X153807D01*
X153809Y8943D01*
X153846Y8790D01*
X153906Y8645D01*
X153988Y8510D01*
X154091Y8391D01*
X154210Y8288D01*
X154345Y8206D01*
X154490Y8146D01*
X154643Y8109D01*
X154800Y8100D01*
X158557Y8109D01*
X158710Y8146D01*
X158855Y8206D01*
X158990Y8288D01*
X159109Y8391D01*
X159212Y8510D01*
X159294Y8645D01*
X159354Y8790D01*
X159391Y8943D01*
X159400Y9100D01*
X159391Y14057D01*
X159354Y14210D01*
X159294Y14355D01*
X159212Y14490D01*
X159109Y14609D01*
X158990Y14712D01*
X158855Y14794D01*
X158710Y14854D01*
X158557Y14891D01*
X158400Y14900D01*
X154643Y14891D01*
X154490Y14854D01*
X154345Y14794D01*
X154210Y14712D01*
X154091Y14609D01*
X153988Y14490D01*
X153906Y14355D01*
X153846Y14210D01*
X153809Y14057D01*
X153800Y13900D01*
X153802Y13000D01*
X152059D01*
X152000Y13005D01*
X151765Y12986D01*
X151535Y12931D01*
X151317Y12841D01*
X151116Y12717D01*
X151115Y12717D01*
X150936Y12564D01*
X150898Y12519D01*
X149379Y11000D01*
X142993D01*
Y19145D01*
X143078Y19181D01*
X143179Y19243D01*
X143269Y19319D01*
X143345Y19409D01*
X143405Y19511D01*
X143622Y19980D01*
X143789Y20469D01*
X143909Y20972D01*
X143982Y21484D01*
X144006Y22000D01*
X143982Y22516D01*
X143909Y23028D01*
X143789Y23531D01*
X143622Y24020D01*
X143410Y24492D01*
X143349Y24593D01*
X143272Y24684D01*
X143182Y24761D01*
X143080Y24823D01*
X142993Y24860D01*
Y28250D01*
X158942D01*
X158894Y28221D01*
X158775Y28118D01*
X158672Y27999D01*
X158590Y27864D01*
X158530Y27719D01*
X158493Y27566D01*
X158484Y27409D01*
X158493Y21348D01*
X158530Y21195D01*
X158590Y21050D01*
X158672Y20915D01*
X158775Y20796D01*
X158894Y20694D01*
X159029Y20611D01*
X159174Y20551D01*
X159327Y20514D01*
X159484Y20505D01*
X164759Y20514D01*
X164912Y20551D01*
X165057Y20611D01*
X165192Y20694D01*
X165311Y20796D01*
X165414Y20915D01*
X165496Y21050D01*
X165556Y21195D01*
X165593Y21348D01*
X165602Y21505D01*
X165600Y22957D01*
X166422D01*
X168879Y20500D01*
X168481Y20102D01*
X168436Y20064D01*
X168283Y19884D01*
X168283Y19884D01*
X168283Y19884D01*
X168247Y19827D01*
X168159Y19683D01*
X168159Y19683D01*
X168159Y19683D01*
X168154Y19671D01*
X168069Y19465D01*
X168069Y19465D01*
X168069Y19465D01*
X168061Y19430D01*
X168014Y19235D01*
X168014Y19235D01*
X168014Y19235D01*
X167995Y19000D01*
X168000Y18941D01*
Y14892D01*
X167543Y14891D01*
X167390Y14854D01*
X167245Y14794D01*
X167110Y14712D01*
X166991Y14609D01*
X166888Y14490D01*
X166806Y14355D01*
X166746Y14210D01*
X166709Y14057D01*
X166700Y13900D01*
X166709Y8943D01*
X166746Y8790D01*
X166806Y8645D01*
X166888Y8510D01*
X166991Y8391D01*
X167110Y8288D01*
X167245Y8206D01*
X167390Y8146D01*
X167543Y8109D01*
X167700Y8100D01*
X171457Y8109D01*
X171610Y8146D01*
X171755Y8206D01*
X171890Y8288D01*
X172009Y8391D01*
X172112Y8510D01*
X172194Y8645D01*
X172254Y8790D01*
X172291Y8943D01*
X172300Y9100D01*
X172291Y14057D01*
X172254Y14210D01*
X172194Y14355D01*
X172112Y14490D01*
X172009Y14609D01*
X171890Y14712D01*
X171755Y14794D01*
X171610Y14854D01*
X171457Y14891D01*
X171300Y14900D01*
X171000Y14899D01*
Y18379D01*
X172018Y19397D01*
X172064Y19436D01*
X172103Y19482D01*
X173046Y20425D01*
X177824D01*
X177825Y19997D01*
X177862Y19844D01*
X177922Y19698D01*
X178004Y19564D01*
X178106Y19444D01*
X178226Y19342D01*
X178360Y19260D01*
X178506Y19200D01*
X178659Y19163D01*
X178816Y19154D01*
X180646Y19163D01*
X180799Y19200D01*
X180944Y19260D01*
X181078Y19342D01*
X181198Y19444D01*
X181227Y19479D01*
X181256Y19444D01*
X181376Y19342D01*
X181510Y19260D01*
X181656Y19200D01*
X181809Y19163D01*
X181966Y19154D01*
X183796Y19163D01*
X183949Y19200D01*
X184094Y19260D01*
X184228Y19342D01*
X184348Y19444D01*
X184450Y19564D01*
X184532Y19698D01*
X184593Y19844D01*
X184629Y19997D01*
X184639Y20154D01*
X184629Y23854D01*
X184593Y24007D01*
X184532Y24152D01*
X184450Y24286D01*
X184348Y24406D01*
X184228Y24508D01*
X184094Y24590D01*
X183949Y24651D01*
X183796Y24687D01*
X183639Y24697D01*
X181809Y24687D01*
X181656Y24651D01*
X181510Y24590D01*
X181376Y24508D01*
X181256Y24406D01*
X181227Y24372D01*
X181198Y24406D01*
X181078Y24508D01*
X180944Y24590D01*
X180799Y24651D01*
X180646Y24687D01*
X180489Y24697D01*
X178659Y24687D01*
X178506Y24651D01*
X178360Y24590D01*
X178226Y24508D01*
X178106Y24406D01*
X178004Y24286D01*
X177922Y24152D01*
X177862Y24007D01*
X177825Y23854D01*
X177816Y23697D01*
X177816Y23425D01*
X172484D01*
X172425Y23430D01*
X172190Y23411D01*
X172189Y23411D01*
X172189Y23411D01*
X172189Y23411D01*
X172041Y23376D01*
X171960Y23356D01*
X171960Y23356D01*
X171960Y23356D01*
X171841Y23307D01*
X171742Y23266D01*
X171742Y23266D01*
X171742Y23266D01*
X171611Y23186D01*
X171540Y23142D01*
X171540Y23142D01*
X171540Y23142D01*
X171540Y23142D01*
X171361Y22989D01*
X171323Y22944D01*
X171000Y22621D01*
X168145Y25476D01*
X168107Y25521D01*
X167927Y25674D01*
X167726Y25798D01*
X167508Y25888D01*
X167278Y25943D01*
X167278Y25943D01*
X167043Y25962D01*
X166984Y25957D01*
X165595D01*
X165593Y27566D01*
X165556Y27719D01*
X165496Y27864D01*
X165414Y27999D01*
X165311Y28118D01*
X165192Y28221D01*
X165144Y28250D01*
X189912D01*
X190000Y28243D01*
X190353Y28271D01*
X190353Y28271D01*
X190697Y28354D01*
X191025Y28489D01*
X191327Y28674D01*
X191596Y28904D01*
X191653Y28971D01*
X191750Y29068D01*
X192250Y28568D01*
Y25712D01*
X192142Y25646D01*
X191663Y25237D01*
X191254Y24758D01*
X190925Y24222D01*
X190684Y23640D01*
X190537Y23028D01*
X190488Y22400D01*
X190500Y22237D01*
X190509Y19243D01*
X190546Y19090D01*
X190583Y19000D01*
X190546Y18910D01*
X190509Y18757D01*
X190500Y18600D01*
X190508Y15859D01*
X190488Y15600D01*
X190537Y14972D01*
X190684Y14360D01*
X190925Y13778D01*
X191254Y13242D01*
X191663Y12763D01*
X192142Y12354D01*
X192678Y12025D01*
X193260Y11784D01*
X193872Y11637D01*
X194500Y11588D01*
X195128Y11637D01*
X195740Y11784D01*
X196322Y12025D01*
X196858Y12354D01*
X197337Y12763D01*
X197746Y13242D01*
X198075Y13778D01*
X198316Y14360D01*
X198463Y14972D01*
X198491Y15443D01*
X198491Y15443D01*
X198500Y15600D01*
X198491Y18757D01*
X198454Y18910D01*
X198417Y19000D01*
X198454Y19090D01*
X198491Y19243D01*
X198500Y19400D01*
X198492Y22258D01*
X198500Y22400D01*
X198491Y22557D01*
Y22557D01*
X198491Y22557D01*
X198463Y23028D01*
X198316Y23640D01*
X198075Y24222D01*
X197746Y24758D01*
X197337Y25237D01*
X196858Y25646D01*
X196750Y25712D01*
Y29412D01*
X196757Y29500D01*
X196729Y29853D01*
X196729Y29853D01*
X196646Y30197D01*
X196511Y30525D01*
X196326Y30827D01*
X196096Y31096D01*
X196029Y31153D01*
X194932Y32250D01*
X197000Y34318D01*
Y31559D01*
X196995Y31500D01*
X197014Y31265D01*
X197069Y31035D01*
X197159Y30817D01*
X197283Y30616D01*
X197283Y30615D01*
X197436Y30436D01*
X197481Y30398D01*
X200500Y27379D01*
Y6621D01*
X200379Y6500D01*
X185621D01*
X184302Y7819D01*
Y12709D01*
X184348Y12748D01*
X184450Y12868D01*
X184532Y13002D01*
X184593Y13148D01*
X184629Y13301D01*
X184639Y13458D01*
X184629Y17158D01*
X184593Y17311D01*
X184532Y17456D01*
X184450Y17590D01*
X184348Y17710D01*
X184228Y17812D01*
X184094Y17894D01*
X183949Y17955D01*
X183796Y17991D01*
X183639Y18001D01*
X181809Y17991D01*
X181656Y17955D01*
X181510Y17894D01*
X181376Y17812D01*
X181256Y17710D01*
X181227Y17676D01*
X181198Y17710D01*
X181078Y17812D01*
X180944Y17894D01*
X180799Y17955D01*
X180646Y17991D01*
X180489Y18001D01*
G37*
G36*
X142993Y11000D02*X136200D01*
Y17008D01*
X136480Y16878D01*
X136969Y16711D01*
X137472Y16591D01*
X137984Y16518D01*
X138500Y16494D01*
X139016Y16518D01*
X139528Y16591D01*
X140031Y16711D01*
X140520Y16878D01*
X140992Y17090D01*
X141093Y17151D01*
X141184Y17228D01*
X141261Y17318D01*
X141323Y17420D01*
X141369Y17529D01*
X141397Y17645D01*
X141406Y17763D01*
X141397Y17881D01*
X141370Y17997D01*
X141324Y18107D01*
X141262Y18208D01*
X141186Y18298D01*
X141095Y18376D01*
X140994Y18438D01*
X140885Y18484D01*
X140769Y18511D01*
X140651Y18521D01*
X140532Y18512D01*
X140417Y18484D01*
X140308Y18437D01*
X139968Y18279D01*
X139612Y18158D01*
X139247Y18070D01*
X138875Y18018D01*
X138500Y18000D01*
X138125Y18018D01*
X137753Y18070D01*
X137388Y18158D01*
X137032Y18279D01*
X136690Y18433D01*
X136582Y18480D01*
X136467Y18507D01*
X136349Y18517D01*
X136232Y18507D01*
X136200Y18499D01*
Y25496D01*
X136231Y25489D01*
X136349Y25479D01*
X136468Y25488D01*
X136583Y25516D01*
X136692Y25563D01*
X137032Y25721D01*
X137388Y25842D01*
X137753Y25930D01*
X138125Y25982D01*
X138500Y26000D01*
X138875Y25982D01*
X139247Y25930D01*
X139612Y25842D01*
X139968Y25721D01*
X140310Y25567D01*
X140418Y25520D01*
X140533Y25493D01*
X140651Y25483D01*
X140768Y25493D01*
X140883Y25521D01*
X140992Y25566D01*
X141093Y25628D01*
X141182Y25705D01*
X141259Y25795D01*
X141320Y25895D01*
X141365Y26004D01*
X141393Y26119D01*
X141402Y26237D01*
X141392Y26355D01*
X141365Y26469D01*
X141319Y26578D01*
X141257Y26679D01*
X141181Y26769D01*
X141091Y26845D01*
X140989Y26905D01*
X140520Y27122D01*
X140031Y27289D01*
X139528Y27409D01*
X139016Y27482D01*
X138500Y27506D01*
X137984Y27482D01*
X137472Y27409D01*
X136969Y27289D01*
X136480Y27122D01*
X136200Y26996D01*
Y28250D01*
X142993D01*
Y24860D01*
X142971Y24869D01*
X142855Y24897D01*
X142737Y24906D01*
X142619Y24897D01*
X142503Y24870D01*
X142393Y24824D01*
X142292Y24762D01*
X142202Y24686D01*
X142124Y24595D01*
X142062Y24494D01*
X142016Y24385D01*
X141989Y24269D01*
X141979Y24151D01*
X141988Y24032D01*
X142016Y23917D01*
X142063Y23808D01*
X142221Y23468D01*
X142342Y23112D01*
X142430Y22747D01*
X142482Y22375D01*
X142500Y22000D01*
X142482Y21625D01*
X142430Y21253D01*
X142342Y20888D01*
X142221Y20532D01*
X142067Y20190D01*
X142020Y20082D01*
X141993Y19967D01*
X141983Y19849D01*
X141993Y19732D01*
X142021Y19617D01*
X142066Y19508D01*
X142128Y19407D01*
X142205Y19318D01*
X142295Y19241D01*
X142395Y19180D01*
X142504Y19135D01*
X142619Y19107D01*
X142737Y19098D01*
X142855Y19108D01*
X142969Y19135D01*
X142993Y19145D01*
Y11000D01*
G37*
G36*
Y1500D02*X136200D01*
Y8000D01*
X142993D01*
Y1500D01*
G37*
G36*
X134007Y28250D02*X136200D01*
Y26996D01*
X136008Y26910D01*
X135907Y26849D01*
X135816Y26772D01*
X135739Y26682D01*
X135677Y26580D01*
X135631Y26471D01*
X135603Y26355D01*
X135594Y26237D01*
X135603Y26119D01*
X135630Y26003D01*
X135676Y25893D01*
X135738Y25792D01*
X135814Y25702D01*
X135905Y25624D01*
X136006Y25562D01*
X136115Y25516D01*
X136200Y25496D01*
Y18499D01*
X136117Y18479D01*
X136008Y18434D01*
X135907Y18372D01*
X135818Y18295D01*
X135741Y18205D01*
X135680Y18105D01*
X135635Y17996D01*
X135607Y17881D01*
X135598Y17763D01*
X135608Y17645D01*
X135635Y17531D01*
X135681Y17422D01*
X135743Y17321D01*
X135819Y17231D01*
X135909Y17155D01*
X136011Y17095D01*
X136200Y17008D01*
Y11000D01*
X134007D01*
Y19140D01*
X134029Y19131D01*
X134145Y19103D01*
X134263Y19094D01*
X134381Y19103D01*
X134497Y19130D01*
X134607Y19176D01*
X134708Y19238D01*
X134798Y19314D01*
X134876Y19405D01*
X134938Y19506D01*
X134984Y19615D01*
X135011Y19731D01*
X135021Y19849D01*
X135012Y19968D01*
X134984Y20083D01*
X134937Y20192D01*
X134779Y20532D01*
X134658Y20888D01*
X134570Y21253D01*
X134518Y21625D01*
X134500Y22000D01*
X134518Y22375D01*
X134570Y22747D01*
X134658Y23112D01*
X134779Y23468D01*
X134933Y23810D01*
X134980Y23918D01*
X135007Y24033D01*
X135017Y24151D01*
X135007Y24268D01*
X134979Y24383D01*
X134934Y24492D01*
X134872Y24593D01*
X134795Y24682D01*
X134705Y24759D01*
X134605Y24820D01*
X134496Y24865D01*
X134381Y24893D01*
X134263Y24902D01*
X134145Y24892D01*
X134031Y24865D01*
X134007Y24855D01*
Y28250D01*
G37*
G36*
X136200Y1500D02*X134007D01*
Y8000D01*
X136200D01*
Y1500D01*
G37*
G36*
X134007D02*X98500D01*
Y32750D01*
X103015D01*
X102872Y32628D01*
X102565Y32269D01*
X102319Y31866D01*
X102138Y31430D01*
X102028Y30971D01*
X101991Y30500D01*
X102028Y30029D01*
X102138Y29570D01*
X102319Y29134D01*
X102565Y28731D01*
X102872Y28372D01*
X103231Y28065D01*
X103634Y27819D01*
X104070Y27638D01*
X104529Y27528D01*
X105000Y27491D01*
X105471Y27528D01*
X105930Y27638D01*
X106366Y27819D01*
X106769Y28065D01*
X106985Y28250D01*
X109515D01*
X109731Y28065D01*
X110134Y27819D01*
X110570Y27638D01*
X111029Y27528D01*
X111500Y27491D01*
X111971Y27528D01*
X112430Y27638D01*
X112866Y27819D01*
X113269Y28065D01*
X113485Y28250D01*
X134007D01*
Y24855D01*
X133922Y24819D01*
X133821Y24757D01*
X133731Y24681D01*
X133655Y24591D01*
X133595Y24489D01*
X133378Y24020D01*
X133211Y23531D01*
X133091Y23028D01*
X133018Y22516D01*
X132994Y22000D01*
X133018Y21484D01*
X133091Y20972D01*
X133211Y20469D01*
X133378Y19980D01*
X133590Y19508D01*
X133651Y19407D01*
X133728Y19316D01*
X133818Y19239D01*
X133920Y19177D01*
X134007Y19140D01*
Y11000D01*
X128621D01*
X127500Y12121D01*
Y20441D01*
X127505Y20500D01*
X127486Y20735D01*
X127431Y20965D01*
X127341Y21183D01*
X127217Y21384D01*
X127064Y21564D01*
X127019Y21602D01*
X125602Y23019D01*
X125564Y23064D01*
X125384Y23217D01*
X125183Y23341D01*
X124965Y23431D01*
X124735Y23486D01*
X124735Y23486D01*
X124500Y23505D01*
X124441Y23500D01*
X123991D01*
X123986Y26235D01*
X123931Y26465D01*
X123841Y26683D01*
X123717Y26884D01*
X123564Y27064D01*
X123384Y27217D01*
X123183Y27341D01*
X122965Y27431D01*
X122735Y27486D01*
X122500Y27500D01*
X114265Y27486D01*
X114035Y27431D01*
X113817Y27341D01*
X113616Y27217D01*
X113436Y27064D01*
X113283Y26884D01*
X113159Y26683D01*
X113069Y26465D01*
X113014Y26235D01*
X113000Y26000D01*
X113014Y17765D01*
X113069Y17535D01*
X113159Y17317D01*
X113283Y17116D01*
X113436Y16936D01*
X113616Y16783D01*
X113817Y16659D01*
X114035Y16569D01*
X114265Y16514D01*
X114500Y16500D01*
X122735Y16514D01*
X122965Y16569D01*
X123183Y16659D01*
X123384Y16783D01*
X123564Y16936D01*
X123717Y17116D01*
X123841Y17317D01*
X123931Y17535D01*
X123986Y17765D01*
X124000Y18000D01*
X123996Y20383D01*
X124500Y19879D01*
Y11559D01*
X124495Y11500D01*
X124514Y11265D01*
X124569Y11035D01*
X124659Y10817D01*
X124783Y10616D01*
X124783Y10615D01*
X124936Y10436D01*
X124981Y10398D01*
X126898Y8481D01*
X126936Y8436D01*
X127116Y8283D01*
X127317Y8159D01*
X127535Y8069D01*
X127765Y8014D01*
X128000Y7995D01*
X128059Y8000D01*
X134007D01*
Y1500D01*
G37*
G36*
X180489Y18001D02*X178659Y17991D01*
X178506Y17955D01*
X178360Y17894D01*
X178226Y17812D01*
X178106Y17710D01*
X178004Y17590D01*
X177922Y17456D01*
X177862Y17311D01*
X177825Y17158D01*
X177816Y17001D01*
X177825Y13301D01*
X177862Y13148D01*
X177922Y13002D01*
X178004Y12868D01*
X178106Y12748D01*
X178152Y12709D01*
Y4907D01*
X178147Y4848D01*
X178166Y4613D01*
X178221Y4383D01*
X178311Y4165D01*
X178435Y3964D01*
X178588Y3784D01*
X178633Y3746D01*
X180398Y1981D01*
X180436Y1936D01*
X180615Y1783D01*
X180616Y1783D01*
X180817Y1659D01*
X181035Y1569D01*
X181265Y1514D01*
X181441Y1500D01*
X142993D01*
Y8000D01*
X149941D01*
X150000Y7995D01*
X150235Y8014D01*
X150235Y8014D01*
X150465Y8069D01*
X150683Y8159D01*
X150884Y8283D01*
X151064Y8436D01*
X151102Y8481D01*
X152621Y10000D01*
X153807D01*
X153809Y8943D01*
X153846Y8790D01*
X153906Y8645D01*
X153988Y8510D01*
X154091Y8391D01*
X154210Y8288D01*
X154345Y8206D01*
X154490Y8146D01*
X154643Y8109D01*
X154800Y8100D01*
X158557Y8109D01*
X158710Y8146D01*
X158855Y8206D01*
X158990Y8288D01*
X159109Y8391D01*
X159212Y8510D01*
X159294Y8645D01*
X159354Y8790D01*
X159391Y8943D01*
X159400Y9100D01*
X159391Y14057D01*
X159354Y14210D01*
X159294Y14355D01*
X159212Y14490D01*
X159109Y14609D01*
X158990Y14712D01*
X158855Y14794D01*
X158710Y14854D01*
X158557Y14891D01*
X158400Y14900D01*
X154643Y14891D01*
X154490Y14854D01*
X154345Y14794D01*
X154210Y14712D01*
X154091Y14609D01*
X153988Y14490D01*
X153906Y14355D01*
X153846Y14210D01*
X153809Y14057D01*
X153800Y13900D01*
X153802Y13000D01*
X152059D01*
X152000Y13005D01*
X151765Y12986D01*
X151535Y12931D01*
X151317Y12841D01*
X151116Y12717D01*
X151115Y12717D01*
X150936Y12564D01*
X150898Y12519D01*
X149379Y11000D01*
X142993D01*
Y19145D01*
X143078Y19181D01*
X143179Y19243D01*
X143269Y19319D01*
X143345Y19409D01*
X143405Y19511D01*
X143622Y19980D01*
X143789Y20469D01*
X143909Y20972D01*
X143982Y21484D01*
X144006Y22000D01*
X143982Y22516D01*
X143909Y23028D01*
X143789Y23531D01*
X143622Y24020D01*
X143410Y24492D01*
X143349Y24593D01*
X143272Y24684D01*
X143182Y24761D01*
X143080Y24823D01*
X142993Y24860D01*
Y28250D01*
X158942D01*
X158894Y28221D01*
X158775Y28118D01*
X158672Y27999D01*
X158590Y27864D01*
X158530Y27719D01*
X158493Y27566D01*
X158484Y27409D01*
X158493Y21348D01*
X158530Y21195D01*
X158590Y21050D01*
X158672Y20915D01*
X158775Y20796D01*
X158894Y20694D01*
X159029Y20611D01*
X159174Y20551D01*
X159327Y20514D01*
X159484Y20505D01*
X164759Y20514D01*
X164912Y20551D01*
X165057Y20611D01*
X165192Y20694D01*
X165311Y20796D01*
X165414Y20915D01*
X165496Y21050D01*
X165556Y21195D01*
X165593Y21348D01*
X165602Y21505D01*
X165600Y22957D01*
X166422D01*
X168879Y20500D01*
X168481Y20102D01*
X168436Y20064D01*
X168283Y19884D01*
X168283Y19884D01*
X168283Y19884D01*
X168247Y19827D01*
X168159Y19683D01*
X168159Y19683D01*
X168159Y19683D01*
X168154Y19671D01*
X168069Y19465D01*
X168069Y19465D01*
X168069Y19465D01*
X168061Y19430D01*
X168014Y19235D01*
X168014Y19235D01*
X168014Y19235D01*
X167995Y19000D01*
X168000Y18941D01*
Y14892D01*
X167543Y14891D01*
X167390Y14854D01*
X167245Y14794D01*
X167110Y14712D01*
X166991Y14609D01*
X166888Y14490D01*
X166806Y14355D01*
X166746Y14210D01*
X166709Y14057D01*
X166700Y13900D01*
X166709Y8943D01*
X166746Y8790D01*
X166806Y8645D01*
X166888Y8510D01*
X166991Y8391D01*
X167110Y8288D01*
X167245Y8206D01*
X167390Y8146D01*
X167543Y8109D01*
X167700Y8100D01*
X171457Y8109D01*
X171610Y8146D01*
X171755Y8206D01*
X171890Y8288D01*
X172009Y8391D01*
X172112Y8510D01*
X172194Y8645D01*
X172254Y8790D01*
X172291Y8943D01*
X172300Y9100D01*
X172291Y14057D01*
X172254Y14210D01*
X172194Y14355D01*
X172112Y14490D01*
X172009Y14609D01*
X171890Y14712D01*
X171755Y14794D01*
X171610Y14854D01*
X171457Y14891D01*
X171300Y14900D01*
X171000Y14899D01*
Y18379D01*
X172018Y19397D01*
X172064Y19436D01*
X172103Y19482D01*
X173046Y20425D01*
X177824D01*
X177825Y19997D01*
X177862Y19844D01*
X177922Y19698D01*
X178004Y19564D01*
X178106Y19444D01*
X178226Y19342D01*
X178360Y19260D01*
X178506Y19200D01*
X178659Y19163D01*
X178816Y19154D01*
X180646Y19163D01*
X180799Y19200D01*
X180944Y19260D01*
X181078Y19342D01*
X181198Y19444D01*
X181227Y19479D01*
X181256Y19444D01*
X181376Y19342D01*
X181510Y19260D01*
X181656Y19200D01*
X181809Y19163D01*
X181966Y19154D01*
X183796Y19163D01*
X183949Y19200D01*
X184094Y19260D01*
X184228Y19342D01*
X184348Y19444D01*
X184450Y19564D01*
X184532Y19698D01*
X184593Y19844D01*
X184629Y19997D01*
X184639Y20154D01*
X184629Y23854D01*
X184593Y24007D01*
X184532Y24152D01*
X184450Y24286D01*
X184348Y24406D01*
X184228Y24508D01*
X184094Y24590D01*
X183949Y24651D01*
X183796Y24687D01*
X183639Y24697D01*
X181809Y24687D01*
X181656Y24651D01*
X181510Y24590D01*
X181376Y24508D01*
X181256Y24406D01*
X181227Y24372D01*
X181198Y24406D01*
X181078Y24508D01*
X180944Y24590D01*
X180799Y24651D01*
X180646Y24687D01*
X180489Y24697D01*
X178659Y24687D01*
X178506Y24651D01*
X178360Y24590D01*
X178226Y24508D01*
X178106Y24406D01*
X178004Y24286D01*
X177922Y24152D01*
X177862Y24007D01*
X177825Y23854D01*
X177816Y23697D01*
X177816Y23425D01*
X172484D01*
X172425Y23430D01*
X172190Y23411D01*
X172189Y23411D01*
X172189Y23411D01*
X172189Y23411D01*
X172041Y23376D01*
X171960Y23356D01*
X171960Y23356D01*
X171960Y23356D01*
X171841Y23307D01*
X171742Y23266D01*
X171742Y23266D01*
X171742Y23266D01*
X171611Y23186D01*
X171540Y23142D01*
X171540Y23142D01*
X171540Y23142D01*
X171540Y23142D01*
X171361Y22989D01*
X171323Y22944D01*
X171000Y22621D01*
X168145Y25476D01*
X168107Y25521D01*
X167927Y25674D01*
X167726Y25798D01*
X167508Y25888D01*
X167278Y25943D01*
X167278Y25943D01*
X167043Y25962D01*
X166984Y25957D01*
X165595D01*
X165593Y27566D01*
X165556Y27719D01*
X165496Y27864D01*
X165414Y27999D01*
X165311Y28118D01*
X165192Y28221D01*
X165144Y28250D01*
X189912D01*
X190000Y28243D01*
X190353Y28271D01*
X190353Y28271D01*
X190500Y28306D01*
Y22557D01*
X190488Y22400D01*
X190500Y22243D01*
Y18600D01*
X190500Y18600D01*
X190500Y18599D01*
Y15757D01*
X190488Y15600D01*
X190500Y15443D01*
Y6500D01*
X185621D01*
X184302Y7819D01*
Y12709D01*
X184348Y12748D01*
X184450Y12868D01*
X184532Y13002D01*
X184593Y13148D01*
X184629Y13301D01*
X184639Y13458D01*
X184629Y17158D01*
X184593Y17311D01*
X184532Y17456D01*
X184450Y17590D01*
X184348Y17710D01*
X184228Y17812D01*
X184094Y17894D01*
X183949Y17955D01*
X183796Y17991D01*
X183639Y18001D01*
X181809Y17991D01*
X181656Y17955D01*
X181510Y17894D01*
X181376Y17812D01*
X181256Y17710D01*
X181227Y17676D01*
X181198Y17710D01*
X181078Y17812D01*
X180944Y17894D01*
X180799Y17955D01*
X180646Y17991D01*
X180489Y18001D01*
G37*
G36*
X142993Y11000D02*X136200D01*
Y17008D01*
X136480Y16878D01*
X136969Y16711D01*
X137472Y16591D01*
X137984Y16518D01*
X138500Y16494D01*
X139016Y16518D01*
X139528Y16591D01*
X140031Y16711D01*
X140520Y16878D01*
X140992Y17090D01*
X141093Y17151D01*
X141184Y17228D01*
X141261Y17318D01*
X141323Y17420D01*
X141369Y17529D01*
X141397Y17645D01*
X141406Y17763D01*
X141397Y17881D01*
X141370Y17997D01*
X141324Y18107D01*
X141262Y18208D01*
X141186Y18298D01*
X141095Y18376D01*
X140994Y18438D01*
X140885Y18484D01*
X140769Y18511D01*
X140651Y18521D01*
X140532Y18512D01*
X140417Y18484D01*
X140308Y18437D01*
X139968Y18279D01*
X139612Y18158D01*
X139247Y18070D01*
X138875Y18018D01*
X138500Y18000D01*
X138125Y18018D01*
X137753Y18070D01*
X137388Y18158D01*
X137032Y18279D01*
X136690Y18433D01*
X136582Y18480D01*
X136467Y18507D01*
X136349Y18517D01*
X136232Y18507D01*
X136200Y18499D01*
Y25496D01*
X136231Y25489D01*
X136349Y25479D01*
X136468Y25488D01*
X136583Y25516D01*
X136692Y25563D01*
X137032Y25721D01*
X137388Y25842D01*
X137753Y25930D01*
X138125Y25982D01*
X138500Y26000D01*
X138875Y25982D01*
X139247Y25930D01*
X139612Y25842D01*
X139968Y25721D01*
X140310Y25567D01*
X140418Y25520D01*
X140533Y25493D01*
X140651Y25483D01*
X140768Y25493D01*
X140883Y25521D01*
X140992Y25566D01*
X141093Y25628D01*
X141182Y25705D01*
X141259Y25795D01*
X141320Y25895D01*
X141365Y26004D01*
X141393Y26119D01*
X141402Y26237D01*
X141392Y26355D01*
X141365Y26469D01*
X141319Y26578D01*
X141257Y26679D01*
X141181Y26769D01*
X141091Y26845D01*
X140989Y26905D01*
X140520Y27122D01*
X140031Y27289D01*
X139528Y27409D01*
X139016Y27482D01*
X138500Y27506D01*
X137984Y27482D01*
X137472Y27409D01*
X136969Y27289D01*
X136480Y27122D01*
X136200Y26996D01*
Y28250D01*
X142993D01*
Y24860D01*
X142971Y24869D01*
X142855Y24897D01*
X142737Y24906D01*
X142619Y24897D01*
X142503Y24870D01*
X142393Y24824D01*
X142292Y24762D01*
X142202Y24686D01*
X142124Y24595D01*
X142062Y24494D01*
X142016Y24385D01*
X141989Y24269D01*
X141979Y24151D01*
X141988Y24032D01*
X142016Y23917D01*
X142063Y23808D01*
X142221Y23468D01*
X142342Y23112D01*
X142430Y22747D01*
X142482Y22375D01*
X142500Y22000D01*
X142482Y21625D01*
X142430Y21253D01*
X142342Y20888D01*
X142221Y20532D01*
X142067Y20190D01*
X142020Y20082D01*
X141993Y19967D01*
X141983Y19849D01*
X141993Y19732D01*
X142021Y19617D01*
X142066Y19508D01*
X142128Y19407D01*
X142205Y19318D01*
X142295Y19241D01*
X142395Y19180D01*
X142504Y19135D01*
X142619Y19107D01*
X142737Y19098D01*
X142855Y19108D01*
X142969Y19135D01*
X142993Y19145D01*
Y11000D01*
G37*
G36*
Y1500D02*X136200D01*
Y8000D01*
X142993D01*
Y1500D01*
G37*
G36*
X134007Y28250D02*X136200D01*
Y26996D01*
X136008Y26910D01*
X135907Y26849D01*
X135816Y26772D01*
X135739Y26682D01*
X135677Y26580D01*
X135631Y26471D01*
X135603Y26355D01*
X135594Y26237D01*
X135603Y26119D01*
X135630Y26003D01*
X135676Y25893D01*
X135738Y25792D01*
X135814Y25702D01*
X135905Y25624D01*
X136006Y25562D01*
X136115Y25516D01*
X136200Y25496D01*
Y18499D01*
X136117Y18479D01*
X136008Y18434D01*
X135907Y18372D01*
X135818Y18295D01*
X135741Y18205D01*
X135680Y18105D01*
X135635Y17996D01*
X135607Y17881D01*
X135598Y17763D01*
X135608Y17645D01*
X135635Y17531D01*
X135681Y17422D01*
X135743Y17321D01*
X135819Y17231D01*
X135909Y17155D01*
X136011Y17095D01*
X136200Y17008D01*
Y11000D01*
X134007D01*
Y19140D01*
X134029Y19131D01*
X134145Y19103D01*
X134263Y19094D01*
X134381Y19103D01*
X134497Y19130D01*
X134607Y19176D01*
X134708Y19238D01*
X134798Y19314D01*
X134876Y19405D01*
X134938Y19506D01*
X134984Y19615D01*
X135011Y19731D01*
X135021Y19849D01*
X135012Y19968D01*
X134984Y20083D01*
X134937Y20192D01*
X134779Y20532D01*
X134658Y20888D01*
X134570Y21253D01*
X134518Y21625D01*
X134500Y22000D01*
X134518Y22375D01*
X134570Y22747D01*
X134658Y23112D01*
X134779Y23468D01*
X134933Y23810D01*
X134980Y23918D01*
X135007Y24033D01*
X135017Y24151D01*
X135007Y24268D01*
X134979Y24383D01*
X134934Y24492D01*
X134872Y24593D01*
X134795Y24682D01*
X134705Y24759D01*
X134605Y24820D01*
X134496Y24865D01*
X134381Y24893D01*
X134263Y24902D01*
X134145Y24892D01*
X134031Y24865D01*
X134007Y24855D01*
Y28250D01*
G37*
G36*
X136200Y1500D02*X134007D01*
Y8000D01*
X136200D01*
Y1500D01*
G37*
G36*
X134007D02*X104500D01*
Y27535D01*
X104529Y27528D01*
X105000Y27491D01*
X105471Y27528D01*
X105930Y27638D01*
X106366Y27819D01*
X106769Y28065D01*
X106985Y28250D01*
X109515D01*
X109731Y28065D01*
X110134Y27819D01*
X110570Y27638D01*
X111029Y27528D01*
X111500Y27491D01*
X111971Y27528D01*
X112430Y27638D01*
X112866Y27819D01*
X113269Y28065D01*
X113485Y28250D01*
X134007D01*
Y24855D01*
X133922Y24819D01*
X133821Y24757D01*
X133731Y24681D01*
X133655Y24591D01*
X133595Y24489D01*
X133378Y24020D01*
X133211Y23531D01*
X133091Y23028D01*
X133018Y22516D01*
X132994Y22000D01*
X133018Y21484D01*
X133091Y20972D01*
X133211Y20469D01*
X133378Y19980D01*
X133590Y19508D01*
X133651Y19407D01*
X133728Y19316D01*
X133818Y19239D01*
X133920Y19177D01*
X134007Y19140D01*
Y11000D01*
X128621D01*
X127500Y12121D01*
Y20441D01*
X127505Y20500D01*
X127486Y20735D01*
X127431Y20965D01*
X127341Y21183D01*
X127217Y21384D01*
X127064Y21564D01*
X127019Y21602D01*
X125602Y23019D01*
X125564Y23064D01*
X125384Y23217D01*
X125183Y23341D01*
X124965Y23431D01*
X124735Y23486D01*
X124735Y23486D01*
X124500Y23505D01*
X124441Y23500D01*
X123991D01*
X123986Y26235D01*
X123931Y26465D01*
X123841Y26683D01*
X123717Y26884D01*
X123564Y27064D01*
X123384Y27217D01*
X123183Y27341D01*
X122965Y27431D01*
X122735Y27486D01*
X122500Y27500D01*
X114265Y27486D01*
X114035Y27431D01*
X113817Y27341D01*
X113616Y27217D01*
X113436Y27064D01*
X113283Y26884D01*
X113159Y26683D01*
X113069Y26465D01*
X113014Y26235D01*
X113000Y26000D01*
X113014Y17765D01*
X113069Y17535D01*
X113159Y17317D01*
X113283Y17116D01*
X113436Y16936D01*
X113616Y16783D01*
X113817Y16659D01*
X114035Y16569D01*
X114265Y16514D01*
X114500Y16500D01*
X122735Y16514D01*
X122965Y16569D01*
X123183Y16659D01*
X123384Y16783D01*
X123564Y16936D01*
X123717Y17116D01*
X123841Y17317D01*
X123931Y17535D01*
X123986Y17765D01*
X124000Y18000D01*
X123996Y20383D01*
X124500Y19879D01*
Y11559D01*
X124495Y11500D01*
X124514Y11265D01*
X124569Y11035D01*
X124659Y10817D01*
X124783Y10616D01*
X124783Y10615D01*
X124936Y10436D01*
X124981Y10398D01*
X126898Y8481D01*
X126936Y8436D01*
X127116Y8283D01*
X127317Y8159D01*
X127535Y8069D01*
X127765Y8014D01*
X128000Y7995D01*
X128059Y8000D01*
X134007D01*
Y1500D01*
G37*
G36*
X230378D02*X202059D01*
X202235Y1514D01*
X202235Y1514D01*
X202465Y1569D01*
X202683Y1659D01*
X202884Y1783D01*
X203064Y1936D01*
X203102Y1981D01*
X205519Y4398D01*
X205564Y4436D01*
X205717Y4615D01*
X205717Y4616D01*
X205841Y4817D01*
X205931Y5035D01*
X205986Y5265D01*
X206005Y5500D01*
X206000Y5559D01*
Y28441D01*
X206005Y28500D01*
X205986Y28735D01*
X205986Y28735D01*
X205931Y28965D01*
X205841Y29183D01*
X205717Y29384D01*
X205564Y29564D01*
X205519Y29602D01*
X202000Y33121D01*
Y39197D01*
X202177Y38458D01*
X202671Y37266D01*
X203346Y36165D01*
X204184Y35184D01*
X205165Y34346D01*
X206266Y33671D01*
X207458Y33177D01*
X208713Y32876D01*
X210000Y32775D01*
X211287Y32876D01*
X212542Y33177D01*
X213734Y33671D01*
X214835Y34346D01*
X215816Y35184D01*
X216654Y36165D01*
X217329Y37266D01*
X217823Y38458D01*
X218124Y39713D01*
X218200Y41000D01*
X218124Y42287D01*
X217823Y43542D01*
X217329Y44734D01*
X216654Y45835D01*
X216513Y46000D01*
X248500D01*
Y19622D01*
X247962Y21862D01*
X247018Y24142D01*
X245728Y26247D01*
X244124Y28124D01*
X242247Y29728D01*
X240142Y31018D01*
X237862Y31962D01*
X235461Y32539D01*
X233000Y32732D01*
X230539Y32539D01*
X228138Y31962D01*
X225858Y31018D01*
X223753Y29728D01*
X221876Y28124D01*
X220272Y26247D01*
X218982Y24142D01*
X218038Y21862D01*
X217461Y19461D01*
X217268Y17000D01*
X217461Y14539D01*
X218038Y12138D01*
X218982Y9858D01*
X220272Y7753D01*
X221876Y5876D01*
X223753Y4272D01*
X225858Y2982D01*
X228138Y2038D01*
X230378Y1500D01*
G37*
G36*
X248500Y36000D02*X216513D01*
X216654Y36165D01*
X217329Y37266D01*
X217823Y38458D01*
X218124Y39713D01*
X218200Y41000D01*
X218124Y42287D01*
X217823Y43542D01*
X217329Y44734D01*
X216654Y45835D01*
X215816Y46816D01*
X214835Y47654D01*
X213734Y48329D01*
X212542Y48823D01*
X211287Y49124D01*
X210000Y49225D01*
X208713Y49124D01*
X207458Y48823D01*
X206266Y48329D01*
X205165Y47654D01*
X204184Y46816D01*
X203346Y45835D01*
X202671Y44734D01*
X202177Y43542D01*
X202000Y42803D01*
Y84197D01*
X202177Y83458D01*
X202671Y82266D01*
X203346Y81165D01*
X204184Y80184D01*
X205165Y79346D01*
X206266Y78671D01*
X207458Y78177D01*
X208713Y77876D01*
X210000Y77775D01*
X211287Y77876D01*
X212542Y78177D01*
X213734Y78671D01*
X214835Y79346D01*
X215816Y80184D01*
X216654Y81165D01*
X217329Y82266D01*
X217823Y83458D01*
X218124Y84713D01*
X218200Y86000D01*
X218124Y87287D01*
X217823Y88542D01*
X217329Y89734D01*
X216654Y90835D01*
X215816Y91816D01*
X214835Y92654D01*
X213734Y93329D01*
X212542Y93823D01*
X211287Y94124D01*
X210000Y94225D01*
X208713Y94124D01*
X207458Y93823D01*
X206266Y93329D01*
X205165Y92654D01*
X204184Y91816D01*
X203346Y90835D01*
X202671Y89734D01*
X202177Y88542D01*
X201876Y87287D01*
X201863Y87128D01*
X201841Y87183D01*
X201717Y87384D01*
X201564Y87564D01*
X201519Y87602D01*
X197500Y91621D01*
Y94500D01*
X248500D01*
Y36000D01*
G37*
G54D12*X113953Y125516D02*X122516D01*
X124484Y127484D02*X122516Y125516D01*
X114016D02*X106473D01*
X113953Y127484D02*X108059D01*
X110579Y131421D02*X109500Y132500D01*
Y137000D01*
X108059Y127484D02*X105000Y130543D01*
X99725Y130133D02*X100000Y129858D01*
G54D13*X104957Y130500D02*X105000Y130543D01*
G54D12*X109500Y137000D02*X107000Y139500D01*
X102850Y148500D02*Y140650D01*
X104000Y139500D01*
X107000D01*
X108500Y138000D01*
X106000Y148500D02*Y143500D01*
X114000Y135500D01*
X149500Y143000D02*Y136500D01*
X122516Y136047D02*Y140941D01*
X136000Y134500D02*Y142500D01*
X130000Y145457D02*X135957D01*
X136000Y145500D01*
X114000Y135500D02*Y133437D01*
X113953Y133390D01*
X133047D02*X134890D01*
X136000Y134500D01*
X113953Y131421D02*X110579D01*
X133047D02*X149579D01*
X149000D02*X155079D01*
X156500Y130000D01*
G54D13*X105000Y112500D02*Y123457D01*
X99000Y107000D02*Y129000D01*
X100500Y130500D01*
X104957D01*
G54D12*X114000Y123500D02*X110500D01*
G54D13*X93500Y125000D02*X99000D01*
G54D12*X110500Y123500D02*X109500Y122500D01*
Y113500D01*
X139750Y119250D03*
X133047Y119610D02*Y116953D01*
X134750Y115250D01*
X133047Y121579D02*X137421D01*
X139750Y119250D02*X141000Y118000D01*
Y114500D01*
X143500Y112000D01*
X156500Y130000D02*Y109000D01*
X158000Y107500D01*
G54D13*X178000Y104000D02*X180500Y106500D01*
Y121500D01*
G54D12*Y126500D02*Y121000D01*
X177776Y103776D02*X177750Y103750D01*
G54D13*X175500Y101500D02*X178500Y104500D01*
G54D12*X172000Y90500D02*X174000D01*
X169000Y96500D02*X165500D01*
X163000Y94000D01*
X171000Y141500D02*X173500Y144000D01*
X165500Y136457D02*X165543Y136500D01*
Y130586D01*
X161500Y126543D01*
X158000Y107500D02*X174000D01*
X161500Y119457D02*X168957D01*
X171000Y121500D01*
G54D14*X136484Y127484D02*X150559D01*
X151500Y126543D01*
G54D12*X137421Y121579D02*X140000Y119000D01*
X151043D02*X151500Y119457D01*
G54D13*Y119500D02*Y104000D01*
Y101500D02*Y107000D01*
G54D12*X134000Y111000D02*Y107000D01*
X143500Y112000D02*X151500D01*
X139500Y107000D02*Y110500D01*
X133000Y117000D01*
X128421Y116953D02*Y107079D01*
G54D13*X99000Y107000D02*X102000Y104000D01*
X112500D01*
G54D12*X109500Y109500D02*Y117000D01*
X97600Y89000D02*X104500D01*
X106000Y90500D01*
Y96000D02*Y90500D01*
X105250Y89750D01*
G54D13*X112500Y104000D02*X115000Y101500D01*
G54D12*X107500Y97500D02*X106000Y96000D01*
X107500Y97500D02*X109500D01*
G54D13*X89406Y114937D02*X98437D01*
X99000Y115500D01*
G54D14*X145500Y168000D02*X181500D01*
X179000D02*X186500D01*
X188000Y166500D01*
Y162500D01*
X189500Y161000D01*
X211000Y168000D02*X195500D01*
X215000Y151000D02*Y164000D01*
X211000Y168000D01*
X207500Y154000D02*Y158500D01*
G54D12*X207620Y158620D02*X207500Y158500D01*
X215120Y158620D02*X215000Y158500D01*
G54D14*X207500Y159500D02*Y155500D01*
X189500Y161000D02*X206000D01*
X207500Y159500D01*
G54D12*X193000Y134000D02*X192000Y135000D01*
Y138000D02*X193000Y139000D01*
X195000D01*
X199250Y131500D02*X193500D01*
X192000Y130000D01*
X193000Y134000D02*X206000D01*
G54D15*X190000Y141500D02*X199250D01*
G54D12*X189000Y145500D02*X185000Y141500D01*
X189000Y145500D02*X204000D01*
X194000Y139000D02*X204000D01*
X184500Y144000D02*X188000Y147500D01*
X185000Y141500D02*X178750D01*
X171000Y121500D02*Y129500D01*
X173000Y131500D01*
X178750D01*
Y136500D02*X165543D01*
X165500Y136457D02*X165543Y136500D01*
X169500Y141500D02*X159500D01*
X173500Y144000D02*X184500D01*
X204000Y139000D02*X205000Y140000D01*
X199250Y136500D02*X211500D01*
X205000Y140000D02*Y144500D01*
X219000Y133500D02*Y145500D01*
X211500Y144957D02*Y133000D01*
X219000Y125700D02*X207800D01*
X207000Y126500D01*
Y126700D02*X208000Y125700D01*
X219000D02*Y123500D01*
X199250Y126500D02*Y124750D01*
X206000Y134000D02*X207000Y133000D01*
Y126700D01*
X219000Y129600D02*X214900D01*
X211500Y133000D01*
X212750Y131750D01*
G54D14*X207500Y156000D02*Y148957D01*
G54D12*X205000Y144500D02*X204000Y145500D01*
X204750Y144750D01*
X188000Y147500D02*X208957D01*
G54D14*X207500Y148957D02*X211457Y145000D01*
X218543D02*Y147457D01*
X215000Y151000D01*
G54D12*X211500Y144500D02*X211728Y144728D01*
X219000Y145500D02*X218543Y145957D01*
X211500Y144957D02*X211457Y145000D01*
X142421Y131421D02*X142500Y131500D01*
X124484Y127484D02*X136484D01*
X136500Y127500D01*
X142500Y131500D02*Y136414D01*
X142414Y136500D01*
X136000Y170500D02*Y137500D01*
X122516Y140016D02*Y143516D01*
X124000Y145000D01*
X118000Y145457D02*Y141500D01*
X119000Y140500D01*
X122516D01*
X107500Y163500D02*Y170457D01*
X129000Y151957D02*Y152043D01*
G54D14*X118000Y152543D02*X130000D01*
G54D12*X107000Y152000D02*X111000D01*
X112500Y153500D01*
X101300Y152000D02*X110000D01*
X133500Y173000D02*X136000Y170500D01*
X124500Y173000D02*X133500D01*
X116500D02*X125000D01*
X106000Y155196D02*Y162000D01*
X107500Y163500D01*
X112500Y153500D02*Y160500D01*
X115000Y163000D01*
X124500D01*
X99725Y148652D02*Y150425D01*
X101300Y152000D01*
X99725Y148725D02*Y130133D01*
X102850Y155196D02*Y159150D01*
X98000Y164000D01*
X97000Y161000D02*X99500Y158500D01*
X99725Y155348D02*Y158275D01*
X98750Y159250D01*
X98000Y164000D02*Y170500D01*
X88500Y170457D02*Y163000D01*
X90500Y161000D01*
X97000D01*
X39600Y181300D02*X80800D01*
X76900D02*X81300D01*
X84500Y184500D01*
X112500D01*
X115000Y182000D01*
Y174500D01*
X116500Y173000D01*
X128421Y107079D02*X128500Y107000D01*
X138000Y91500D02*X136000Y93500D01*
Y101500D01*
X130390Y116953D02*Y114610D01*
X134000Y111000D01*
Y108500D01*
X153500Y85500D02*Y89000D01*
X151000Y91500D01*
X138000D01*
G54D13*X115000Y101500D02*X175500D01*
G54D12*X156500Y91000D02*X152000Y95500D01*
X143500D01*
X133047Y123547D02*X140953D01*
X144500Y120000D01*
X145500Y116000D02*Y119000D01*
X143500Y121000D01*
X132500Y96500D02*Y74500D01*
X163000Y94000D02*Y77000D01*
X156500Y81000D02*Y91000D01*
X167500Y86000D02*X172000Y90500D01*
X159500Y141500D02*X158500Y140500D01*
X169000Y141500D02*X171000D01*
X158500Y140500D02*Y136543D01*
X158457Y136500D01*
X166500Y96500D02*X220000D01*
X167500Y92500D02*X194500D01*
X172500Y90500D02*X193500D01*
X198500Y85500D01*
X194500Y92500D02*X200500Y86500D01*
X219652Y103776D02*X177776D01*
X181500Y100000D02*X221500D01*
X223000Y101500D01*
X222250Y100750D01*
G54D14*X180414Y105986D02*X180800Y105600D01*
X187543Y119000D02*Y139043D01*
X190000Y141500D01*
G54D12*X192000Y135000D02*Y138000D01*
Y130000D02*Y126500D01*
Y125000D02*Y127500D01*
Y118500D02*Y128000D01*
X187500Y109500D02*X193350D01*
X195925Y106925D01*
X199250Y124750D02*X204500Y119500D01*
X227200Y133500D02*X235000D01*
X227100Y129500D02*X227200Y129600D01*
X231900D01*
X233500Y128000D01*
X219000Y133500D02*X222000D01*
X223000Y132500D01*
Y130500D01*
X224000Y129500D01*
X227100D01*
X219000Y123500D02*X223000Y119500D01*
Y113000D01*
X227200Y125700D02*Y119800D01*
X227500Y119500D01*
X233500Y128000D02*Y115000D01*
X232000Y113500D01*
X226348Y113224D02*X231724D01*
X233000Y114500D01*
X219000Y96500D02*X225000D01*
X222500D01*
X219652Y106925D02*X196575D01*
X226348D02*X223925D01*
X223000Y106000D01*
X195925Y106925D02*X201000D01*
X204500Y119500D02*X216500D01*
X219652Y113224D02*X197276D01*
X192000Y118500D01*
X219652Y113224D02*Y110075D01*
X226348D02*X223925D01*
X223000Y111000D01*
Y115000D01*
Y106000D02*Y101500D01*
X226348Y103776D02*Y97848D01*
X225000Y96500D01*
G54D14*X60000Y39000D02*X178000D01*
X75000Y46000D02*X78000Y43000D01*
X165500D01*
X84000Y47000D02*X156500D01*
X58500Y35000D02*X188500D01*
X178000Y39000D02*X185000Y46000D01*
X92000Y55000D02*X153500D01*
X90000Y51000D02*X155000D01*
X158500Y54500D01*
X105000Y30500D02*X190000D01*
X165500Y43000D02*Y48000D01*
X156500Y47000D02*X162250Y52750D01*
X173250D01*
X175000Y51000D01*
Y61000D02*X165000D01*
X155000Y51000D01*
X153500Y55000D02*X169500Y71000D01*
G54D12*X151000Y72000D02*X153000D01*
X139500Y77500D02*X145500D01*
X146000Y72000D02*X140000D01*
X145500Y77500D02*X146000Y77000D01*
X151000D02*X152500D01*
X156500Y81000D01*
X153000Y72000D02*X157500Y76500D01*
X163000Y70000D02*Y84500D01*
X139500Y83500D02*X144500D01*
X146000Y82000D01*
X151000D02*Y83000D01*
X153500Y85500D01*
G54D14*X65000Y71000D02*X60500D01*
X57500Y68000D01*
Y41500D01*
X60000Y39000D01*
X65000Y81000D02*X53500Y69500D01*
Y40000D01*
X58500Y35000D01*
X75000Y56000D02*X84000Y47000D01*
X85000Y62000D02*X92000Y55000D01*
X81750Y59250D02*X90000Y51000D01*
X82000Y59000D02*X75000Y66000D01*
Y76000D02*X78500D01*
X85000Y69500D01*
Y62000D01*
G54D13*X86500Y85000D02*Y75000D01*
Y80000D02*X97600D01*
G54D14*X169500Y71000D02*X175000D01*
G54D13*X122000Y80000D02*X96000D01*
G54D12*X132500Y74500D02*X135000Y72000D01*
X144000D01*
X139000D02*Y62500D01*
X140000Y61500D01*
X154500D01*
X163000Y70000D01*
G54D13*X47000Y102250D02*X23250D01*
X57000D02*Y105000D01*
X54000Y108000D01*
X32000D01*
X23250Y102250D02*X20500Y105000D01*
Y117500D01*
X32000Y108000D02*X30000Y110000D01*
Y120000D01*
X20500Y129500D01*
Y137500D01*
X76000Y132157D02*Y123000D01*
X57000Y124750D02*X66250D01*
X68500Y122500D01*
X76000Y123000D02*X77500Y121500D01*
Y115031D01*
X77594Y114937D01*
X68500Y122500D02*X76500D01*
X77500Y121500D01*
G54D14*X192000Y38500D02*Y49000D01*
X185000Y56000D01*
X190500Y31000D02*X195500Y36000D01*
X190000Y30500D02*X192750Y33250D01*
X194500Y29500D02*X191750Y32250D01*
G54D12*X148000Y9500D02*X128000D01*
X169500Y19000D02*Y11500D01*
X147000Y9500D02*X150000D01*
X152000Y11500D01*
X156600D01*
X128000Y9500D02*X126000Y11500D01*
Y20500D01*
X124500Y22000D01*
X118500D02*X124500D01*
X123500D01*
X182802Y21925D02*X172425D01*
X169500Y19000D01*
X162043Y24457D02*X167043D01*
X171000Y20500D01*
G54D14*X188500Y35000D02*X192000Y38500D01*
X195500Y36000D02*Y72000D01*
X191500Y76000D01*
X185000D01*
G54D12*X198500Y85500D02*Y31500D01*
X200500Y86500D02*Y32500D01*
G54D14*X194500Y22500D02*Y29500D01*
G54D12*X198500Y31500D02*X202000Y28000D01*
X200500Y32500D02*X204500Y28500D01*
X202000Y28000D02*Y6000D01*
X204500Y28500D02*Y5500D01*
G54D14*X194500Y9000D02*Y15600D01*
G54D12*X202000Y6000D02*X201000Y5000D01*
X188500D01*
X204500Y5500D02*X202000Y3000D01*
X182802Y15229D02*Y7198D01*
X185000Y5000D01*
X179652Y15229D02*Y4848D01*
X202000Y3000D02*X184000D01*
X185500Y5000D02*X190500D01*
X185000D02*X189000D01*
X179652Y4848D02*X181500Y3000D01*
X185500D01*
G54D11*G36*
X141500Y172000D02*Y164000D01*
X149500D01*
Y172000D01*
X141500D01*
G37*
G54D16*X233000Y173000D03*
Y17000D03*
G54D17*X185000Y46000D03*
X175000Y51000D03*
X185000Y56000D03*
X175000Y61000D03*
G54D18*X210000Y41000D03*
G54D17*X185000Y66000D03*
G54D19*X195500Y168000D03*
G54D17*X175000Y71000D03*
Y81000D03*
X185000Y76000D03*
G54D18*X210000Y86000D03*
G54D17*X75000Y66000D03*
X65000Y61000D03*
X75000Y56000D03*
X65000Y51000D03*
Y81000D03*
X75000Y76000D03*
X65000Y71000D03*
X75000Y46000D03*
G54D11*G36*
X114500Y26000D02*Y18000D01*
X122500D01*
Y26000D01*
X114500D01*
G37*
G54D19*X138500Y22000D03*
G54D18*X40000Y86000D03*
G54D16*X17000Y173000D03*
G54D11*G36*
X16500Y141500D02*Y133500D01*
X24500D01*
Y141500D01*
X16500D01*
G37*
G54D19*X20500Y117500D03*
G54D18*X40000Y41000D03*
G54D16*X17000Y17000D03*
G54D11*G36*
X121000Y186500D02*Y179500D01*
X128000D01*
Y186500D01*
X121000D01*
G37*
G54D17*X124500Y173000D03*
Y163000D03*
G54D20*X113126Y133390D02*X114780D01*
X113126Y131421D02*X114780D01*
G54D21*X104607Y130543D02*X105393D01*
G54D20*X113126Y129453D02*X114780D01*
X113126Y127484D02*X114780D01*
X113126Y125516D02*X114780D01*
G54D21*X104607Y123457D02*X105393D01*
X161107Y119457D02*X161893D01*
X161107Y126543D02*X161893D01*
G54D22*X146000Y82000D03*
X151000D03*
X146000Y77000D03*
X151000D03*
X146000Y72000D03*
X151000D03*
G54D23*X122000Y84500D02*Y75500D01*
G54D24*X47000Y103450D02*Y101050D01*
X57000Y103450D02*Y101050D01*
Y125950D02*Y123550D01*
X47000Y125950D02*Y123550D01*
G54D21*X93500Y125393D02*Y124607D01*
X86414Y125393D02*Y124607D01*
G54D25*X89406Y116984D02*Y112890D01*
X83500Y116984D02*Y105174D01*
X77594Y116984D02*Y112890D01*
G54D26*X83500Y103440D02*Y101550D01*
G54D11*G36*
X85385Y111005D02*X88225Y108165D01*
X86805Y106745D01*
X83965Y109585D01*
X85385Y111005D01*
G37*
G36*
X78775Y108165D02*X81615Y111005D01*
X83035Y109585D01*
X80195Y106745D01*
X78775Y108165D01*
G37*
G54D27*X94300Y89000D02*X100900D01*
X94300Y80000D02*X100900D01*
X94300Y70900D02*X100900D01*
G54D21*X162043Y24850D02*Y24064D01*
G54D28*X182802Y22860D02*Y20990D01*
X179652Y22860D02*Y20990D01*
G54D21*X154957Y24850D02*Y24064D01*
G54D28*X179652Y16164D02*Y14294D01*
X182802Y16164D02*Y14294D01*
G54D29*X169500Y12100D02*Y10900D01*
X156600Y12100D02*Y10900D01*
G54D30*X194500Y15600D03*
G54D31*X193000Y17100D02*X196000D01*
G54D30*X194500Y22400D03*
G54D31*X193000Y20900D02*X196000D01*
G54D21*X158457Y136893D02*Y136107D01*
X165543Y136893D02*Y136107D01*
X142414Y136893D02*Y136107D01*
X149500Y136893D02*Y136107D01*
G54D20*X130390Y136874D02*Y135220D01*
X128421Y136874D02*Y135220D01*
X126453Y136874D02*Y135220D01*
X124484Y136874D02*Y135220D01*
X122516Y136874D02*Y135220D01*
X120547Y136874D02*Y135220D01*
X118579Y136874D02*Y135220D01*
X116610Y136874D02*Y135220D01*
G54D32*X76000Y135307D02*Y129008D01*
G54D21*X129607Y145457D02*X130393D01*
X129607Y152543D02*X130393D01*
X117607Y145457D02*X118393D01*
X117607Y152543D02*X118393D01*
G54D20*X113126Y123547D02*X114780D01*
X113126Y121579D02*X114780D01*
X113126Y119610D02*X114780D01*
X116610Y117780D02*Y116126D01*
X118579Y117780D02*Y116126D01*
X120547Y117780D02*Y116126D01*
X122516Y117780D02*Y116126D01*
X124484Y117780D02*Y116126D01*
X126453Y117780D02*Y116126D01*
X128421Y117780D02*Y116126D01*
X130390Y117780D02*Y116126D01*
X132220Y119610D02*X133874D01*
X132220Y121579D02*X133874D01*
X132220Y123547D02*X133874D01*
G54D21*X151107Y119457D02*X151893D01*
X151107Y126543D02*X151893D01*
G54D20*X132220Y125516D02*X133874D01*
G54D11*G36*
X119563Y130437D02*Y122563D01*
X127437D01*
Y130437D01*
X119563D01*
G37*
G36*
X117397Y132602D02*Y120397D01*
X129603D01*
Y132602D01*
X117397D01*
G37*
G54D20*X132220Y127484D02*X133874D01*
X132220Y129453D02*X133874D01*
X132220Y131421D02*X133874D01*
X132220Y133390D02*X133874D01*
G54D21*X97607Y170500D02*X98393D01*
X97607Y177586D02*X98393D01*
X107107Y177543D02*X107893D01*
X107107Y170457D02*X107893D01*
G54D28*X106024Y156283D02*Y154413D01*
X102875Y156283D02*Y154413D01*
X99725Y156283D02*Y154413D01*
X96576Y156283D02*Y154413D01*
Y149587D02*Y147717D01*
X99725Y149587D02*Y147717D01*
X102875Y149587D02*Y147717D01*
X106024Y149587D02*Y147717D01*
G54D21*X88107Y177543D02*X88893D01*
G54D33*X74100Y181300D02*X76900D01*
X38200D02*X41000D01*
G54D21*X88107Y170457D02*X88893D01*
G54D33*X74100Y163500D02*X76900D01*
X38200D02*X41000D01*
G54D32*X76000Y154992D02*Y148693D01*
G54D34*X196000Y126500D02*X202500D01*
X196000Y131500D02*X202500D01*
X196000Y136500D02*X202500D01*
X196000Y141500D02*X202500D01*
G54D21*X218543Y145393D02*Y144607D01*
X211457Y145393D02*Y144607D01*
G54D34*X175500Y141500D02*X182000D01*
X175500Y136500D02*X182000D01*
X175500Y131500D02*X182000D01*
X175500Y126500D02*X182000D01*
G54D21*X180414Y118893D02*Y118107D01*
X187500Y118893D02*Y118107D01*
G54D35*X218200Y133500D02*X219800D01*
X226400D02*X228000D01*
X218200Y129600D02*X219800D01*
X218200Y125700D02*X219800D01*
X226400D02*X228000D01*
X226400Y129600D02*X228000D01*
G54D28*X218717Y113224D02*X220587D01*
X218717Y110075D02*X220587D01*
X218717Y106925D02*X220587D01*
X218717Y103776D02*X220587D01*
X225413D02*X227283D01*
X225413Y106925D02*X227283D01*
X225413Y110075D02*X227283D01*
X225413Y113224D02*X227283D01*
G54D13*X187500Y129000D03*
Y135000D03*
X171000Y121500D03*
X145000Y127500D03*
X149500Y143000D03*
X124000Y152500D03*
Y145000D03*
X139500Y127500D03*
X145500Y116000D03*
X235000Y133500D03*
X227500Y119500D03*
X216500D03*
X211500Y133000D03*
X86500Y80000D03*
Y85000D03*
Y75000D03*
X93500Y61500D03*
X103500D03*
X98500D03*
X105000Y117500D03*
Y112500D03*
Y30500D03*
X111500D03*
X109500Y109500D03*
Y97500D03*
X134000Y107000D03*
X128500D03*
X132500Y96500D03*
X73500Y106500D03*
Y101500D03*
X81000Y93500D03*
X93000Y101500D03*
Y106500D03*
X86500Y93500D03*
X165500Y43500D03*
Y48500D03*
X157500Y76500D03*
X139500Y77500D03*
Y83500D03*
Y107000D03*
X143500Y95500D03*
X148500Y24000D03*
X224500Y87500D03*
X229500D03*
X234500D03*
X224500Y82000D03*
X229500D03*
X234500D03*
X224500Y44500D03*
Y39000D03*
X229500D03*
X234500D03*
X229500Y44500D03*
X234500D03*
X167500Y92500D03*
Y101500D03*
X187500Y109500D03*
X181500Y100000D03*
X174000Y107500D03*
X167500Y86000D03*
X13500Y89000D03*
Y83500D03*
Y43500D03*
Y38000D03*
X18500Y89000D03*
Y83500D03*
Y43500D03*
Y38000D03*
X23500Y89000D03*
Y83500D03*
Y43500D03*
Y38000D03*
G54D15*G54D36*G54D37*G54D38*G54D39*G54D40*G54D39*G54D37*G54D39*G54D40*G54D39*G54D37*G54D40*G54D38*G54D37*G54D40*G54D38*G54D36*M02*
