G04 start of page 11 for group -4015 idx -4015 *
G04 Title: (unknown), toppaste *
G04 Creator: pcb 20140316 *
G04 CreationDate: Sun 30 Dec 2018 07:31:13 PM GMT UTC *
G04 For: railfan *
G04 Format: Gerber/RS-274X *
G04 PCB-Dimensions (mil): 2500.00 1900.00 *
G04 PCB-Coordinate-Origin: lower left *
%MOIN*%
%FSLAX25Y25*%
%LNTOPPASTE*%
%ADD108R,0.0630X0.0630*%
%ADD107R,0.0550X0.0550*%
%ADD106R,0.0240X0.0240*%
%ADD105R,0.0300X0.0300*%
%ADD104C,0.0600*%
%ADD103R,0.0360X0.0360*%
%ADD102R,0.0167X0.0167*%
%ADD101R,0.1220X0.1220*%
%ADD100R,0.0560X0.0560*%
%ADD99R,0.0945X0.0945*%
%ADD98R,0.0378X0.0378*%
%ADD97R,0.0310X0.0310*%
%ADD96R,0.0200X0.0200*%
%ADD95C,0.0001*%
%ADD94R,0.0091X0.0091*%
%ADD93R,0.0512X0.0512*%
G54D93*X158457Y136893D02*Y136107D01*
X165543Y136893D02*Y136107D01*
X129607Y145457D02*X130393D01*
X129607Y152543D02*X130393D01*
X142414Y136893D02*Y136107D01*
X149500Y136893D02*Y136107D01*
X97607Y177586D02*X98393D01*
X97607Y170500D02*X98393D01*
G54D94*X113126Y133390D02*X114780D01*
X113126Y131421D02*X114780D01*
X113126Y129453D02*X114780D01*
X113126Y127484D02*X114780D01*
X113126Y125516D02*X114780D01*
X113126Y123547D02*X114780D01*
X113126Y121579D02*X114780D01*
X113126Y119610D02*X114780D01*
X116610Y117780D02*Y116126D01*
X118579Y117780D02*Y116126D01*
X120547Y117780D02*Y116126D01*
X122516Y117780D02*Y116126D01*
X124484Y117780D02*Y116126D01*
X126453Y117780D02*Y116126D01*
X128421Y117780D02*Y116126D01*
X130390Y117780D02*Y116126D01*
X132220Y119610D02*X133874D01*
X132220Y121579D02*X133874D01*
X132220Y123547D02*X133874D01*
X132220Y125516D02*X133874D01*
X132220Y127484D02*X133874D01*
X132220Y129453D02*X133874D01*
X132220Y131421D02*X133874D01*
X132220Y133390D02*X133874D01*
X130390Y136874D02*Y135220D01*
X128421Y136874D02*Y135220D01*
X126453Y136874D02*Y135220D01*
X124484Y136874D02*Y135220D01*
X122516Y136874D02*Y135220D01*
X120547Y136874D02*Y135220D01*
X118579Y136874D02*Y135220D01*
X116610Y136874D02*Y135220D01*
G54D95*G36*
X119563Y130437D02*Y122563D01*
X127437D01*
Y130437D01*
X119563D01*
G37*
G54D96*X196000Y126500D02*X202500D01*
X196000Y131500D02*X202500D01*
X196000Y136500D02*X202500D01*
X196000Y141500D02*X202500D01*
X175500D02*X182000D01*
X175500Y136500D02*X182000D01*
X175500Y131500D02*X182000D01*
X175500Y126500D02*X182000D01*
G54D93*X88107Y177543D02*X88893D01*
X88107Y170457D02*X88893D01*
G54D97*X47000Y103450D02*Y101050D01*
X57000Y103450D02*Y101050D01*
Y125950D02*Y123550D01*
X47000Y125950D02*Y123550D01*
G54D93*X180414Y118893D02*Y118107D01*
X187500Y118893D02*Y118107D01*
X218543Y145393D02*Y144607D01*
X211457Y145393D02*Y144607D01*
X93500Y125393D02*Y124607D01*
X86414Y125393D02*Y124607D01*
X107107Y177543D02*X107893D01*
X107107Y170457D02*X107893D01*
X151107Y119457D02*X151893D01*
X151107Y126543D02*X151893D01*
X104607Y130543D02*X105393D01*
X104607Y123457D02*X105393D01*
X117607Y145457D02*X118393D01*
X117607Y152543D02*X118393D01*
G54D98*X89406Y116984D02*Y112890D01*
X83500Y116984D02*Y105174D01*
G54D99*Y103440D02*Y101550D01*
G54D95*G36*
X85385Y111005D02*X88225Y108165D01*
X86805Y106745D01*
X83965Y109585D01*
X85385Y111005D01*
G37*
G36*
X78775Y108165D02*X81615Y111005D01*
X83035Y109585D01*
X80195Y106745D01*
X78775Y108165D01*
G37*
G54D98*X77594Y116984D02*Y112890D01*
G54D100*X94300Y89000D02*X100900D01*
X94300Y80000D02*X100900D01*
X94300Y70900D02*X100900D01*
G54D101*X122000Y84500D02*Y75500D01*
G54D93*X162043Y24850D02*Y24064D01*
X154957Y24850D02*Y24064D01*
G54D102*X182802Y22860D02*Y20990D01*
X179652Y22860D02*Y20990D01*
Y16164D02*Y14294D01*
X182802Y16164D02*Y14294D01*
X106024Y156283D02*Y154413D01*
X102875Y156283D02*Y154413D01*
X99725Y156283D02*Y154413D01*
X96576Y156283D02*Y154413D01*
Y149587D02*Y147717D01*
X99725Y149587D02*Y147717D01*
X102875Y149587D02*Y147717D01*
X106024Y149587D02*Y147717D01*
G54D103*X169500Y12100D02*Y10900D01*
X156600Y12100D02*Y10900D01*
G54D104*X194500Y15600D03*
G54D105*X193000Y17100D02*X196000D01*
G54D104*X194500Y22400D03*
G54D105*X193000Y20900D02*X196000D01*
G54D106*X218200Y133500D02*X219800D01*
X218200Y129600D02*X219800D01*
X218200Y125700D02*X219800D01*
X226400D02*X228000D01*
X226400Y129600D02*X228000D01*
X226400Y133500D02*X228000D01*
G54D93*X161107Y119457D02*X161893D01*
X161107Y126543D02*X161893D01*
G54D102*X218717Y113224D02*X220587D01*
X218717Y110075D02*X220587D01*
X218717Y106925D02*X220587D01*
X218717Y103776D02*X220587D01*
X225413D02*X227283D01*
X225413Y106925D02*X227283D01*
X225413Y110075D02*X227283D01*
X225413Y113224D02*X227283D01*
G54D107*X74100Y163500D02*X76900D01*
X38200D02*X41000D01*
X74100Y181300D02*X76900D01*
X38200D02*X41000D01*
G54D108*X76000Y135307D02*Y129008D01*
Y154992D02*Y148693D01*
M02*
