M48
INCH
T61C0.020
T60C0.039
T59C0.128
T58C0.030
T57C0.129
T56C0.048
%
T61
X001350Y008900
X001350Y008350
X001350Y004350
X001350Y003800
X001850Y008900
X001850Y008350
X001850Y004350
X001850Y003800
X002350Y008900
X002350Y008350
X002350Y004350
X002350Y003800
X007350Y010650
X007350Y010150
X008100Y009350
X008650Y009350
X008650Y008500
X008650Y008000
X008650Y007500
X009300Y010650
X009300Y010150
X009350Y006150
X009850Y006150
X010350Y006150
X010500Y011750
X010500Y011250
X010500Y003050
X010950Y010950
X010950Y009750
X011150Y003050
X012400Y015250
X012400Y014500
X012850Y010700
X013250Y009650
X013400Y010700
X013950Y012750
X013950Y010700
X013950Y008350
X013950Y007750
X014350Y009550
X014500Y012750
X014550Y011600
X014850Y002400
X014950Y014300
X015750Y007650
X016550Y004850
X016550Y004350
X016750Y010150
X016750Y009250
X016750Y008600
X017100Y012150
X017400Y010750
X018150Y010000
X018750Y013500
X018750Y012900
X018750Y010950
X021150Y013300
X021650Y011950
X022450Y008750
X022450Y008200
X022450Y004450
X022450Y003900
X022750Y011950
X022950Y008750
X022950Y008200
X022950Y004450
X022950Y003900
X023450Y008750
X023450Y008200
X023450Y004450
X023450Y003900
X023500Y013350
T58
X006500Y008100
X006500Y007100
X006500Y006100
X006500Y005100
X007500Y007600
X007500Y006600
X007500Y005600
X007500Y004600
X017500Y008100
X017500Y007100
X017500Y006100
X017500Y005100
X018500Y007600
X018500Y006600
X018500Y005600
X018500Y004600
T60
X012450Y018300
X012450Y017300
X012450Y016300
T56
X002050Y013750
X002050Y011750
X011850Y002200
X013850Y002200
X014550Y016800
X019550Y016800
T59
X004000Y008600
X004000Y004100
X021000Y008600
X021000Y004100
T57
X001700Y017300
X001700Y001700
X023300Y017300
X023300Y001700
M30
