G04 start of page 11 for group -4015 idx -4015 *
G04 Title: (unknown), toppaste *
G04 Creator: pcb 20140316 *
G04 CreationDate: Tue 03 Nov 2015 08:28:20 PM GMT UTC *
G04 For: ndholmes *
G04 Format: Gerber/RS-274X *
G04 PCB-Dimensions (mil): 2500.00 1900.00 *
G04 PCB-Coordinate-Origin: lower left *
%MOIN*%
%FSLAX25Y25*%
%LNTOPPASTE*%
%ADD101R,0.1220X0.1220*%
%ADD100R,0.0560X0.0560*%
%ADD99R,0.0945X0.0945*%
%ADD98R,0.0378X0.0378*%
%ADD97R,0.0340X0.0340*%
%ADD96R,0.0630X0.0630*%
%ADD95R,0.0165X0.0165*%
%ADD94R,0.0310X0.0310*%
%ADD93R,0.0200X0.0200*%
%ADD92C,0.0001*%
%ADD91R,0.0091X0.0091*%
%ADD90R,0.0167X0.0167*%
%ADD89R,0.0512X0.0512*%
G54D89*X162043Y27350D02*Y26564D01*
X154957Y27350D02*Y26564D01*
G54D90*X106000Y156131D02*Y154261D01*
X102850Y156131D02*Y154261D01*
Y149435D02*Y147565D01*
X106000Y149435D02*Y147565D01*
G54D89*X158457Y136893D02*Y136107D01*
X165543Y136893D02*Y136107D01*
X163607Y125086D02*X164393D01*
X163607Y118000D02*X164393D01*
X129607Y145457D02*X130393D01*
X129607Y152543D02*X130393D01*
X142414Y136893D02*Y136107D01*
X149500Y136893D02*Y136107D01*
X97607Y177586D02*X98393D01*
X97607Y170500D02*X98393D01*
G54D91*X113126Y133390D02*X114780D01*
X113126Y131421D02*X114780D01*
X113126Y129453D02*X114780D01*
X113126Y127484D02*X114780D01*
X113126Y125516D02*X114780D01*
X113126Y123547D02*X114780D01*
X113126Y121579D02*X114780D01*
X113126Y119610D02*X114780D01*
X116610Y117780D02*Y116126D01*
X118579Y117780D02*Y116126D01*
X120547Y117780D02*Y116126D01*
X122516Y117780D02*Y116126D01*
X124484Y117780D02*Y116126D01*
X126453Y117780D02*Y116126D01*
X128421Y117780D02*Y116126D01*
X130390Y117780D02*Y116126D01*
X132220Y119610D02*X133874D01*
X132220Y121579D02*X133874D01*
X132220Y123547D02*X133874D01*
X132220Y125516D02*X133874D01*
X132220Y127484D02*X133874D01*
X132220Y129453D02*X133874D01*
X132220Y131421D02*X133874D01*
X132220Y133390D02*X133874D01*
X130390Y136874D02*Y135220D01*
X128421Y136874D02*Y135220D01*
X126453Y136874D02*Y135220D01*
X124484Y136874D02*Y135220D01*
X122516Y136874D02*Y135220D01*
X120547Y136874D02*Y135220D01*
X118579Y136874D02*Y135220D01*
X116610Y136874D02*Y135220D01*
G54D92*G36*
X118185Y131815D02*Y121185D01*
X128815D01*
Y131815D01*
X118185D01*
G37*
G54D93*X196000Y126500D02*X202500D01*
X196000Y131500D02*X202500D01*
X196000Y136500D02*X202500D01*
X196000Y141500D02*X202500D01*
X175500D02*X182000D01*
X175500Y136500D02*X182000D01*
X175500Y131500D02*X182000D01*
X175500Y126500D02*X182000D01*
G54D89*X88107Y177543D02*X88893D01*
X88107Y170457D02*X88893D01*
X79021Y170500D02*X79807D01*
X79021Y177586D02*X79807D01*
G54D94*X46000Y128450D02*Y126050D01*
X56000Y128450D02*Y126050D01*
Y150950D02*Y148550D01*
X46000Y150950D02*Y148550D01*
G54D89*X180414Y118893D02*Y118107D01*
X187500Y118893D02*Y118107D01*
G54D95*X219260Y136060D02*X219713D01*
X219260Y133500D02*X219713D01*
X219260Y130940D02*X219713D01*
X226287D02*X226740D01*
X226287Y133500D02*X226740D01*
X226287Y136060D02*X226740D01*
G54D89*X218543Y145393D02*Y144607D01*
X211457Y145393D02*Y144607D01*
X93107Y130414D02*X93893D01*
X93107Y137500D02*X93893D01*
X107107Y177543D02*X107893D01*
X107107Y170457D02*X107893D01*
G54D95*X211246Y158620D02*X211699D01*
X211246Y156060D02*X211699D01*
X211246Y153500D02*X211699D01*
X218273D02*X218726D01*
X218273Y156060D02*X218726D01*
X218273Y158620D02*X218726D01*
G54D90*X219217Y123224D02*X221087D01*
X219217Y120075D02*X221087D01*
X219217Y116925D02*X221087D01*
X219217Y113776D02*X221087D01*
X225913D02*X227783D01*
X225913Y116925D02*X227783D01*
X225913Y120075D02*X227783D01*
X225913Y123224D02*X227783D01*
G54D96*X61193Y170500D02*X67492D01*
X41508D02*X47807D01*
G54D89*X210607Y101914D02*X211393D01*
X210607Y109000D02*X211393D01*
G54D97*X188700Y101700D02*X189300D01*
X188700Y109500D02*X189300D01*
X180500Y105600D02*X181100D01*
G54D89*X201107Y109043D02*X201893D01*
X201107Y101957D02*X201893D01*
X123543Y60893D02*Y60107D01*
X116457Y60893D02*Y60107D01*
X151107Y119457D02*X151893D01*
X151107Y126543D02*X151893D01*
X104607Y130543D02*X105393D01*
X104607Y123457D02*X105393D01*
X117607Y145457D02*X118393D01*
X117607Y152543D02*X118393D01*
G54D98*X82406Y131905D02*Y127811D01*
X76500Y131905D02*Y120095D01*
G54D99*Y118361D02*Y116471D01*
G54D92*G36*
X78385Y125926D02*X81225Y123086D01*
X79805Y121666D01*
X76965Y124506D01*
X78385Y125926D01*
G37*
G36*
X71775Y123086D02*X74615Y125926D01*
X76035Y124506D01*
X73195Y121666D01*
X71775Y123086D01*
G37*
G54D98*X70594Y131905D02*Y127811D01*
G54D100*X94300Y89000D02*X100900D01*
X94300Y80000D02*X100900D01*
X94300Y70900D02*X100900D01*
G54D101*X122000Y84500D02*Y75500D01*
G54D89*X154957Y16893D02*Y16107D01*
X162043Y16893D02*Y16107D01*
M02*
