M48
INCH
T58C0.020
T57C0.039
T56C0.128
T55C0.030
T54C0.129
T53C0.048
%
T58
X003750Y018300
X003750Y017800
X003750Y016300
X003750Y015800
X003750Y015300
X004550Y017850
X004550Y016150
X005150Y017850
X005150Y016150
X006100Y012100
X006100Y011600
X006100Y011100
X006650Y012100
X006650Y011600
X006650Y011100
X006650Y010450
X007150Y010750
X007150Y010200
X007650Y010750
X007650Y010200
X007700Y013900
X008150Y010750
X008150Y010200
X008650Y012100
X008650Y011600
X008650Y011100
X008650Y010450
X008650Y008500
X008650Y008000
X008650Y007500
X009200Y012100
X009200Y011600
X009200Y011100
X009350Y006150
X009850Y006150
X010350Y006150
X010500Y011750
X010500Y011250
X011050Y011250
X011050Y009800
X012400Y015250
X012400Y014500
X012850Y010700
X013400Y010700
X013950Y012750
X013950Y010700
X013950Y008350
X013950Y007750
X014150Y014850
X014200Y012300
X014350Y009550
X014500Y012750
X014950Y014300
X015750Y007650
X016200Y009250
X016550Y004850
X016550Y004350
X016750Y010150
X016750Y009250
X017100Y012150
X018150Y014800
X018750Y013500
X018750Y012900
X019450Y011800
X019550Y015250
X019550Y010900
X019550Y010150
X020900Y013850
X023100Y014350
X023200Y014900
T55
X006500Y008100
X006500Y007100
X006500Y006100
X006500Y005100
X007500Y007600
X007500Y006600
X007500Y005600
X007500Y004600
X017500Y008100
X017500Y007100
X017500Y006100
X017500Y005100
X018500Y007600
X018500Y006600
X018500Y005600
X018500Y004600
T57
X012450Y018300
X012450Y017300
X012450Y016300
T53
X002050Y013750
X002050Y011750
X011850Y002200
X013850Y002200
X014550Y016800
X019550Y016800
T56
X004000Y008600
X004000Y004100
X021000Y008600
X021000Y004100
T54
X001700Y017300
X001700Y001700
X023300Y017300
X023300Y001700
M30
